<svg width="84" height="18" viewBox="0 0 84 18" fill="none" xmlns="http://www.w3.org/2000/svg">
<path d="M9.93528 13.7606H12.1568L7.27317 0.234427H5.00475L0.121094 13.7606H2.30515L3.54247 10.1049H8.69796L9.93528 13.7606ZM6.09209 2.4841H6.14833L8.16366 8.4176H4.07676L6.09209 2.4841Z" fill="white"/>
<path d="M18.6902 3.4777C17.2748 3.4777 16.0188 4.17135 15.447 5.26806H15.4001V3.58081H13.441V17.0882H15.4751V12.0921H15.5126C16.1219 13.2169 17.2748 13.8637 18.7371 13.8637C21.2961 13.8637 22.9927 11.8202 22.9927 8.67069C22.9927 5.51178 21.2867 3.4777 18.6902 3.4777ZM18.1747 12.1389C16.5531 12.1389 15.4657 10.7516 15.4563 8.67069C15.4657 6.59912 16.5624 5.20245 18.1747 5.20245C19.8245 5.20245 20.9118 6.571 20.9118 8.67069C20.9118 10.7798 19.8245 12.1389 18.1747 12.1389Z" fill="white"/>
<path d="M29.8636 3.4777C28.4482 3.4777 27.1921 4.17135 26.6203 5.26806H26.5735V3.58081H24.6144V17.0882H26.6485V12.0921H26.6859C27.2952 13.2169 28.4482 13.8637 29.9105 13.8637C32.4695 13.8637 34.1661 11.8202 34.1661 8.67069C34.1661 5.51178 32.4601 3.4777 29.8636 3.4777ZM29.3481 12.1389C27.7264 12.1389 26.6391 10.7516 26.6297 8.67069C26.6391 6.59912 27.7358 5.20245 29.3481 5.20245C30.9978 5.20245 32.0852 6.571 32.0852 8.67069C32.0852 10.7798 30.9978 12.1389 29.3481 12.1389Z" fill="white"/>
<path d="M39.8184 9.99237C39.9496 12.4389 41.9743 13.9855 44.9739 13.9855C48.1797 13.9855 50.195 12.4014 50.195 9.87051C50.195 7.89268 49.042 6.77722 46.2674 6.12106L44.777 5.75549C43.0335 5.32431 42.3212 4.76189 42.3212 3.80578C42.3212 2.60595 43.4366 1.78108 45.0676 1.78108C46.6986 1.78108 47.8141 2.59658 47.936 3.94638H49.9794C49.9138 1.61235 47.9547 0.00946045 45.0957 0.00946045C42.2087 0.00946045 40.1746 1.61235 40.1746 3.94638C40.1746 5.83048 41.3275 6.99281 43.8116 7.59272L45.5644 8.01454C47.3173 8.44572 48.0578 9.07376 48.0578 10.1236C48.0578 11.3328 46.8299 12.2139 45.1239 12.2139C43.3429 12.2139 42.0399 11.3328 41.89 9.99237H39.8184Z" fill="white"/>
<path d="M52.4822 1.29365V3.58081H51.0761V5.1837H52.4822V11.0797C52.4822 13.0482 53.2695 13.8262 55.3036 13.8262C55.7442 13.8262 56.2222 13.7793 56.4472 13.7231V12.1202C56.316 12.1389 55.9691 12.1671 55.7536 12.1671C54.9006 12.1671 54.5069 11.7546 54.5069 10.8735V5.1837H56.4566V3.58081H54.5069V1.29365H52.4822Z" fill="white"/>
<path d="M62.287 13.8824C65.2303 13.8824 67.0956 11.8765 67.0956 8.67069C67.0956 5.46491 65.2209 3.44958 62.287 3.44958C59.353 3.44958 57.4689 5.47428 57.4689 8.67069C57.4689 11.8765 59.3437 13.8824 62.287 13.8824ZM62.287 12.1952C60.5622 12.1952 59.5311 10.8922 59.5311 8.67069C59.5311 6.45851 60.5622 5.13683 62.287 5.13683C64.0117 5.13683 65.0334 6.44914 65.0334 8.67069C65.0334 10.8922 64.0117 12.1952 62.287 12.1952Z" fill="white"/>
<path d="M68.7266 13.7606H70.7607V7.68646C70.7607 6.25229 71.6044 5.32431 72.9448 5.32431C73.2447 5.32431 73.6665 5.38992 73.8353 5.45554V3.55269C73.6759 3.50582 73.3853 3.4777 73.1604 3.4777C71.9605 3.4777 71.0232 4.16198 70.7045 5.29619H70.667V3.58081H68.7266V13.7606Z" fill="white"/>
<path d="M78.9814 5.10871C80.4624 5.10871 81.4654 6.15856 81.5123 7.7427H76.3474C76.4599 6.17731 77.5191 5.10871 78.9814 5.10871ZM81.5029 10.7798C81.2217 11.6702 80.2937 12.2327 79.1126 12.2327C77.4441 12.2327 76.338 11.0703 76.338 9.3081V9.18624H83.5463V8.47384C83.5463 5.38992 81.7841 3.44958 78.9908 3.44958C76.1412 3.44958 74.2852 5.52115 74.2852 8.70818C74.2852 11.8952 76.1224 13.8824 79.0751 13.8824C81.3623 13.8824 83.1527 12.6076 83.4432 10.7798H81.5029Z" fill="white"/>
</svg>
