<?xml version="1.0" standalone="no"?>
<!DOCTYPE svg PUBLIC "-//W3C//DTD SVG 1.1//EN" "http://www.w3.org/Graphics/SVG/1.1/DTD/svg11.dtd" >
<svg xmlns="http://www.w3.org/2000/svg" xmlns:xlink="http://www.w3.org/1999/xlink" version="1.1">
<metadata>
Created by FontForge 20170731 at Thu Feb  5 13:06:52 2015
 By Aleksey,,,
Copyright (c) 2015 Monotype Imaging Inc.  All rights reserved.
</metadata>
<defs>
<font id="NeueHaasUnicaW06-Bold" horiz-adv-x="600" >
  <font-face 
    font-family="NeueHaasUnicaW06-Bold"
    font-weight="700"
    font-stretch="normal"
    units-per-em="1000"
    panose-1="2 11 8 4 3 2 6 2 2 3"
    ascent="800"
    descent="-200"
    x-height="508"
    cap-height="712"
    bbox="-500 -275 1159 1116"
    underline-thickness="50"
    underline-position="-175"
    unicode-range="U+0020-FEFF"
  />
<missing-glyph horiz-adv-x="642" 
d="M589.5 740.5q36.5 -36.5 36.5 -98.5v-572q0 -62 -36.5 -98.5t-98.5 -36.5h-340q-62 0 -98.5 36.5t-36.5 98.5v572q0 62 36.5 98.5t98.5 36.5h340q62 0 98.5 -36.5zM99 694q-19 -19 -19 -52v-572q0 -33 19 -52t52 -19h340q33 0 52 19t19 52v572q0 33 -19 52t-52 19h-340
q-33 0 -52 -19zM455 606.5q48 -40.5 48 -110.5q0 -41 -15 -69.5t-57 -67.5q-40 -37 -52.5 -64t-12.5 -76h-102q-1 11 -1 31q0 55 13 85t54 72q30 30 38.5 46.5t8.5 40.5t-14 38t-40 14q-32 0 -47.5 -19t-16.5 -61h-125q1 88 50.5 134.5t138.5 46.5q84 0 132 -40.5zM251 65
v112h128v-112h-128z" />
    <glyph glyph-name="f_f.liga" unicode="ff" horiz-adv-x="652" 
d="M561 597.5q-18 -18.5 -18 -60.5v-29h96v-104h-96v-404h-138v404h-173v-404h-138v404h-84v104h84v46q0 83 43 124.5t125 41.5q35 0 69 -8v-99q-9 3 -25 3q-38 0 -56 -18.5t-18 -60.5v-29h173v46q0 83 43 124.5t125 41.5q35 0 69 -8v-99q-9 3 -25 3q-38 0 -56 -18.5z" />
    <glyph glyph-name="f_f_i.liga" unicode="ffi" horiz-adv-x="928" 
d="M448 678.5q43 41.5 125 41.5q35 0 69 -8v-99q-9 3 -25 3q-38 0 -56 -18.5t-18 -60.5v-29h96v-104h-96v-404h-138v404h-173v-404h-138v404h-84v104h84v46q0 83 43 124.5t125 41.5q35 0 69 -8v-99q-9 3 -25 3q-38 0 -56 -18.5t-18 -60.5v-29h173v46q0 83 43 124.5zM860 592
h-140v120h140v-120zM860 508v-508h-140v508h140z" />
    <glyph glyph-name="f_f_l.liga" unicode="ffl" horiz-adv-x="928" 
d="M561 597.5q-18 -18.5 -18 -60.5v-29h96v-104h-96v-404h-138v404h-173v-404h-138v404h-84v104h84v46q0 83 43 124.5t125 41.5q35 0 69 -8v-99q-9 3 -25 3q-38 0 -56 -18.5t-18 -60.5v-29h173v46q0 83 43 124.5t125 41.5q35 0 69 -8v-99q-9 3 -25 3q-38 0 -56 -18.5zM720 0
v712h140v-712h-140z" />
    <glyph glyph-name="f_i.liga" unicode="fi" horiz-adv-x="617" 
d="M137 678.5q43 41.5 125 41.5q35 0 69 -8v-99q-9 3 -25 3q-38 0 -56 -18.5t-18 -60.5v-29h96v-104h-96v-404h-138v404h-84v104h84v46q0 83 43 124.5zM549 592h-140v120h140v-120zM549 508v-508h-140v508h140z" />
    <glyph glyph-name="f_l.liga" unicode="fl" horiz-adv-x="617" 
d="M250 597.5q-18 -18.5 -18 -60.5v-29h96v-104h-96v-404h-138v404h-84v104h84v46q0 83 43 124.5t125 41.5q35 0 69 -8v-99q-9 3 -25 3q-38 0 -56 -18.5zM409 0v712h140v-712h-140z" />
    <glyph glyph-name=".notdef" horiz-adv-x="642" 
d="M589.5 740.5q36.5 -36.5 36.5 -98.5v-572q0 -62 -36.5 -98.5t-98.5 -36.5h-340q-62 0 -98.5 36.5t-36.5 98.5v572q0 62 36.5 98.5t98.5 36.5h340q62 0 98.5 -36.5zM99 694q-19 -19 -19 -52v-572q0 -33 19 -52t52 -19h340q33 0 52 19t19 52v572q0 33 -19 52t-52 19h-340
q-33 0 -52 -19zM455 606.5q48 -40.5 48 -110.5q0 -41 -15 -69.5t-57 -67.5q-40 -37 -52.5 -64t-12.5 -76h-102q-1 11 -1 31q0 55 13 85t54 72q30 30 38.5 46.5t8.5 40.5t-14 38t-40 14q-32 0 -47.5 -19t-16.5 -61h-125q1 88 50.5 134.5t138.5 46.5q84 0 132 -40.5zM251 65
v112h128v-112h-128z" />
    <glyph glyph-name="glyph1" 
 />
    <glyph glyph-name="glyph1" 
 />
    <glyph glyph-name="nonmarkingreturn" horiz-adv-x="333" 
 />
    <glyph glyph-name="space" unicode=" " horiz-adv-x="230" 
 />
    <glyph glyph-name="exclam" unicode="!" horiz-adv-x="324" 
d="M108 198l-31 514h170l-31 -514h-108zM85 0v132h154v-132h-154z" />
    <glyph glyph-name="quotedbl" unicode="&#x22;" horiz-adv-x="436" 
d="M75 439l-15 273h132l-15 -273h-102zM259 439l-15 273h132l-15 -273h-102z" />
    <glyph glyph-name="numbersign" unicode="#" horiz-adv-x="672" 
d="M501 273h100l-16 -100h-100l-27 -173h-120l27 173h-111l-27 -173h-120l27 173h-99l16 100h99l21 129h-100l16 100h100l27 172h120l-27 -172h111l27 172h120l-27 -172h99l-16 -100h-99zM290 402l-20 -129h111l20 129h-111z" />
    <glyph glyph-name="dollar" unicode="$" 
d="M503.5 50q-60.5 -54 -163.5 -64v-85h-81v84q-107 9 -165 69t-58 166h133q0 -108 90 -127v197q-65 19 -109 40t-74.5 60t-30.5 100q0 84 58 137.5t156 61.5v75h81v-76q99 -11 150.5 -66.5t51.5 -155.5h-131q0 94 -71 115v-182q70 -18 116 -38.5t77 -61.5t31 -110
q0 -85 -60.5 -139zM199.5 453q18.5 -18 59.5 -31v162q-37 -6 -57.5 -27t-20.5 -54q0 -32 18.5 -50zM406.5 122q22.5 23 22.5 60q0 32 -21.5 51t-67.5 34v-175q44 7 66.5 30z" />
    <glyph glyph-name="percent" unicode="%" horiz-adv-x="909" 
d="M225 -30l377 734h82l-377 -734h-82zM332 638.5q43 -51.5 43 -146.5t-43 -146.5t-122 -51.5t-122 51.5t-43 146.5t43 146.5t122 51.5t122 -51.5zM152 492q0 -118 58 -118t58 118t-58 118t-58 -118zM821 328.5q43 -51.5 43 -146.5t-43 -146.5t-122 -51.5t-122 51.5
t-43 146.5t43 146.5t122 51.5t122 -51.5zM641 182q0 -118 58 -118t58 118t-58 118t-58 -118z" />
    <glyph glyph-name="ampersand" unicode="&#x26;" horiz-adv-x="753" 
d="M514 55q-37 -34 -93 -52.5t-119 -18.5q-124 0 -191.5 56t-67.5 152q0 142 147 205q-41 43 -57 77t-16 82q0 78 56 125t148 47t146 -44.5t54 -120.5q0 -57 -29.5 -103t-95.5 -88l123 -127q32 57 32 157h139q-3 -153 -78 -253l145 -149h-190zM272.5 596
q-17.5 -18 -17.5 -49q0 -24 12.5 -45t47.5 -57q72 50 72 105q0 29 -18.5 46.5t-47.5 17.5q-31 0 -48.5 -18zM431 139l-165 170q-41 -23 -58 -48.5t-17 -58.5q0 -43 33.5 -70.5t92.5 -27.5q62 0 114 35z" />
    <glyph glyph-name="quotesingle" unicode="'" horiz-adv-x="252" 
d="M75 439l-15 273h132l-15 -273h-102z" />
    <glyph glyph-name="parenleft" unicode="(" horiz-adv-x="328" 
d="M217 522q-25 -105 -25 -225t25 -225.5t81 -218.5h-115q-73 105 -107 211t-34 233t34 233.5t107 210.5h115q-56 -114 -81 -219z" />
    <glyph glyph-name="parenright" unicode=")" horiz-adv-x="328" 
d="M252 530.5q34 -106.5 34 -233.5t-34 -233t-107 -211h-115q56 113 81 218.5t25 225.5t-25 225t-81 219h115q73 -104 107 -210.5z" />
    <glyph glyph-name="asterisk" unicode="*" horiz-adv-x="426" 
d="M370 635l30 -96l-132 -26l91 -99l-80 -58l-66 117l-66 -117l-80 58l91 99l-132 26l30 96l123 -57l-16 134h100l-16 -134z" />
    <glyph glyph-name="plus" unicode="+" horiz-adv-x="566" 
d="M502 371v-109h-165v-165h-108v165h-165v109h165v165h108v-165h165z" />
    <glyph glyph-name="comma" unicode="," horiz-adv-x="258" 
d="M132 -172h-84l55 172h-51v167h154v-167z" />
    <glyph glyph-name="hyphen" unicode="-" horiz-adv-x="320" 
d="M30 237v110h260v-110h-260z" />
    <glyph glyph-name="period" unicode="." horiz-adv-x="258" 
d="M52 0v167h154v-167h-154z" />
    <glyph glyph-name="slash" unicode="/" horiz-adv-x="488" 
d="M30 -89l298 834h109l-298 -834h-109z" />
    <glyph glyph-name="zero" unicode="0" 
d="M499 598q70 -92 70 -261q0 -170 -69.5 -261.5t-199.5 -91.5t-199.5 91.5t-69.5 261.5q0 169 70 261t199 92t199 -92zM211.5 508.5q-30.5 -60.5 -30.5 -171.5q0 -113 30.5 -173.5t88.5 -60.5t88.5 60.5t30.5 173.5q0 111 -30.5 171.5t-88.5 60.5t-88.5 -60.5z" />
    <glyph glyph-name="one" unicode="1" 
d="M259 0v457h-163v102q85 0 126 27t50 88h131v-674h-144z" />
    <glyph glyph-name="two" unicode="2" 
d="M471.5 638q64.5 -52 64.5 -141q0 -58 -21 -99.5t-56.5 -71.5t-92.5 -63q-62 -36 -93.5 -60t-43.5 -43t-13 -42h337v-118h-509q-1 8 -1 22q0 70 16 120t58 94.5t120 89.5q55 32 86 55t47 49.5t16 60.5q0 36 -23 58t-64 22q-100 0 -102 -108h-145q3 110 68 168.5t179 58.5
q108 0 172.5 -52z" />
    <glyph glyph-name="three" unicode="3" 
d="M476 638.5q64 -51.5 64 -138.5q0 -57 -28.5 -93t-89.5 -58v-2q66 -22 97 -62t31 -104q0 -60 -30.5 -104.5t-86.5 -68.5t-130 -24q-126 0 -193.5 60.5t-67.5 175.5h145q0 -117 116 -117q46 0 73.5 23.5t27.5 61.5q0 91 -135 91h-21v116h21q59 0 93 24.5t34 66.5
q0 38 -27 61.5t-72 23.5q-102 0 -102 -111h-145q0 109 66 169.5t185 60.5q111 0 175 -51.5z" />
    <glyph glyph-name="four" unicode="4" 
d="M484 151v-151h-144v151h-326v120l276 403h194v-410h95v-113h-95zM344 264v82q0 119 7 224h-2q-59 -101 -135 -212l-66 -94h196z" />
    <glyph glyph-name="five" unicode="5" 
d="M208 557l-17 -159h2q24 25 58.5 38t73.5 13q66 0 117.5 -28t80 -79t28.5 -117q0 -73 -32.5 -127.5t-91.5 -84t-136 -29.5q-111 0 -176.5 54t-65.5 147h145q1 -39 29.5 -61t68.5 -22q52 0 80.5 30t28.5 87q0 56 -29 85.5t-78 29.5q-38 0 -63.5 -19t-32.5 -51l-143 9
l38 401h424v-117h-309z" />
    <glyph glyph-name="six" unicode="6" 
d="M484 637q60 -53 65 -147h-146q-5 40 -27.5 61t-59.5 21q-58 0 -94.5 -49.5t-39.5 -152.5h2q59 70 154 70q65 0 115 -28t77.5 -78t27.5 -114q0 -70 -32 -123.5t-89.5 -83t-131.5 -29.5q-125 0 -192 84t-67 249q0 179 72.5 276t205.5 97q100 0 160 -53zM233 298.5
q-28 -32.5 -28 -86.5q0 -50 27 -80t73 -30q47 0 75 30.5t28 82.5q0 53 -27.5 84.5t-73.5 31.5t-74 -32.5z" />
    <glyph glyph-name="seven" unicode="7" 
d="M414 299q-57 -144 -84 -299h-157q35 172 99.5 318t134.5 234h-364v122h503v-124q-75 -107 -132 -251z" />
    <glyph glyph-name="eight" unicode="8" 
d="M426 667q55 -23 86 -65t31 -98q0 -55 -32.5 -95.5t-89.5 -57.5v-2q63 -17 99.5 -61t36.5 -107q0 -92 -70 -144.5t-187 -52.5t-187 52.5t-70 144.5q0 63 36.5 107t99.5 61v2q-57 17 -89.5 57.5t-32.5 95.5q0 56 31 98t86 65t126 23t126 -23zM224.5 551
q-28.5 -22 -28.5 -59q0 -41 28 -64.5t76 -23.5t76 23.5t28 64.5q0 37 -28.5 59t-75.5 22t-75.5 -22zM218.5 263.5q-30.5 -25.5 -30.5 -67.5q0 -43 30 -68t82 -25t82 25t30 68q0 42 -30.5 67.5t-81.5 25.5t-81.5 -25.5z" />
    <glyph glyph-name="nine" unicode="9" 
d="M96 37q-60 53 -65 147h146q5 -40 27.5 -61t59.5 -21q58 0 94.5 49.5t39.5 152.5h-2q-59 -70 -154 -70q-65 0 -115 28t-77.5 78t-27.5 114q0 70 32 123.5t89.5 83t131.5 29.5q125 0 192 -84t67 -249q0 -179 -72.5 -276t-205.5 -97q-100 0 -160 53zM347 375.5
q28 32.5 28 86.5q0 50 -27 80t-73 30q-47 0 -75 -30.5t-28 -82.5q0 -53 27.5 -84.5t73.5 -31.5t74 32.5z" />
    <glyph glyph-name="colon" unicode=":" horiz-adv-x="258" 
d="M52 0v167h154v-167h-154zM52 341v167h154v-167h-154z" />
    <glyph glyph-name="semicolon" unicode=";" horiz-adv-x="258" 
d="M132 -172h-84l55 172h-51v167h154v-167zM52 341v167h154v-167h-154z" />
    <glyph glyph-name="less" unicode="&#x3c;" horiz-adv-x="566" 
d="M193 318v-2l309 -123v-118l-438 181v122l438 181v-118z" />
    <glyph glyph-name="equal" unicode="=" horiz-adv-x="566" 
d="M64 357v109h438v-109h-438zM64 167v109h438v-109h-438z" />
    <glyph glyph-name="greater" unicode="&#x3e;" horiz-adv-x="566" 
d="M502 256l-438 -181v118l309 123v2l-309 123v118l438 -181v-122z" />
    <glyph glyph-name="question" unicode="?" horiz-adv-x="547" 
d="M448 677q62 -50 62 -136q0 -52 -20 -87t-80 -87q-37 -32 -55 -55.5t-25 -51t-7 -74.5h-119q-1 12 -1 32q0 51 7.5 82.5t27.5 59.5t60 65q42 38 54 59.5t12 52.5q0 32 -22.5 50.5t-64.5 18.5q-49 0 -74 -24.5t-27 -76.5h-146q3 109 66.5 165.5t180.5 56.5q109 0 171 -50z
M185 0v132h154v-132h-154z" />
    <glyph glyph-name="at" unicode="@" horiz-adv-x="872" 
d="M652 657.5q88 -46.5 135.5 -131t47.5 -197.5q0 -85 -28 -144t-74 -87.5t-102 -28.5q-50 0 -82 21t-42 62h-2q-42 -83 -131 -83q-70 0 -110 51t-41 146q1 74 26 131.5t68.5 89t99.5 31.5q77 0 105 -68h2q9 46 12 58h111q-17 -84 -29 -165.5t-12 -121.5q0 -32 11 -46
t33 -14q42 0 70.5 43t28.5 125q0 87 -37 152.5t-105 101.5t-159 36q-102 0 -175.5 -44.5t-111.5 -122t-38 -174.5q0 -96 38 -166t108 -107t164 -37q130 0 218 53l39 -76q-108 -62 -257 -62q-120 0 -209.5 47.5t-138 136.5t-48.5 211q0 117 50 214.5t143 154.5t218 57
q116 0 204 -46.5zM369.5 376.5q-26.5 -38.5 -26.5 -106.5q0 -47 17.5 -72t48.5 -25q38 0 64.5 40t26.5 113q0 42 -16.5 65.5t-47.5 23.5q-40 0 -66.5 -38.5z" />
    <glyph glyph-name="A" unicode="A" horiz-adv-x="698" 
d="M213 174l-56 -174h-154l247 712h198l247 -712h-154l-55 174h-273zM431 347q-49 156 -81 278h-2q-37 -140 -80 -278l-15 -47h193z" />
    <glyph glyph-name="B" unicode="B" horiz-adv-x="650" 
d="M532 663q65 -49 65 -134q0 -61 -30.5 -102t-93.5 -64v-2q73 -16 107 -56.5t34 -109.5q0 -90 -67.5 -142.5t-186.5 -52.5h-278v712h256q129 0 194 -49zM229 419h104q64 0 93.5 21t29.5 67q0 44 -27.5 64.5t-88.5 20.5h-111v-173zM229 121h109q67 0 97 21.5t30 67.5
q0 49 -30.5 71t-100.5 22h-105v-182z" />
    <glyph glyph-name="C" unicode="C" horiz-adv-x="701" 
d="M515.5 695q65.5 -33 102.5 -93t40 -137h-148q-7 62 -46 97.5t-101 35.5q-81 0 -127.5 -64.5t-46.5 -177.5t45.5 -177.5t125.5 -64.5q63 0 102.5 35.5t47.5 100.5h151q-10 -126 -90 -196t-211 -70q-99 0 -172 45t-112 128.5t-39 198.5q0 114 39.5 198t113 129t173.5 45
q87 0 152.5 -33z" />
    <glyph glyph-name="D" unicode="D" horiz-adv-x="734" 
d="M599 619.5q98 -92.5 98 -263.5t-98 -263.5t-280 -92.5h-237v712h237q182 0 280 -92.5zM228 126h89q115 0 171.5 57t56.5 173t-56.5 173t-171.5 57h-89v-460z" />
    <glyph glyph-name="E" unicode="E" horiz-adv-x="633" 
d="M229 586v-161h322v-125h-322v-174h354v-126h-501v712h492v-126h-345z" />
    <glyph glyph-name="F" unicode="F" horiz-adv-x="584" 
d="M229 586v-194h303v-126h-303v-266h-147v712h475v-126h-328z" />
    <glyph glyph-name="G" unicode="G" horiz-adv-x="744" 
d="M583 664.5q78 -63.5 89 -174.5h-158q-10 53 -45 80.5t-94 27.5q-86 0 -136 -65.5t-50 -179.5q0 -117 49 -184t134 -67q77 0 118 43.5t42 125.5h-169v120h306v-391h-124v77h-2q-31 -43 -84.5 -67t-123.5 -24q-91 0 -158 44.5t-103.5 127t-36.5 195.5q0 115 41 200
t117.5 130t179.5 45q130 0 208 -63.5z" />
    <glyph glyph-name="H" unicode="H" horiz-adv-x="750" 
d="M521 0v307h-292v-307h-147v712h147v-279h292v279h147v-712h-147z" />
    <glyph glyph-name="I" unicode="I" horiz-adv-x="311" 
d="M82 0v712h147v-712h-147z" />
    <glyph glyph-name="J" unicode="J" horiz-adv-x="392" 
d="M258.5 49.5q-56.5 -56.5 -178.5 -56.5q-38 0 -65 8v125q27 -5 47 -5q38 0 60.5 11.5t34 41t11.5 84.5v454h147v-485q0 -121 -56.5 -177.5z" />
    <glyph glyph-name="K" unicode="K" horiz-adv-x="663" 
d="M659 0h-187l-241 336h-2v-336h-147v712h147v-313h2l233 313h172l-271 -338z" />
    <glyph glyph-name="L" unicode="L" horiz-adv-x="575" 
d="M565 126v-126h-483v712h147v-586h336z" />
    <glyph glyph-name="M" unicode="M" horiz-adv-x="984" 
d="M761 0v354q0 134 6 267h-2q-33 -126 -76 -262l-113 -359h-168l-113 359q-43 136 -76 262h-2q6 -133 6 -267v-354h-141v712h236l103 -327q42 -134 70 -262h2q28 128 70 262l103 327h236v-712h-141z" />
    <glyph glyph-name="N" unicode="N" horiz-adv-x="776" 
d="M485 0l-138 289q-76 161 -130 294h-2q8 -165 8 -309v-274h-141v712h209l138 -289q76 -161 130 -294h2q-8 165 -8 309v274h141v-712h-209z" />
    <glyph glyph-name="O" unicode="O" horiz-adv-x="748" 
d="M554 683q76 -45 116.5 -128.5t40.5 -198.5t-40.5 -198.5t-116.5 -128.5t-180 -45t-180 45t-116.5 128.5t-40.5 198.5t40.5 198.5t116.5 128.5t180 45t180 -45zM238.5 533.5q-49.5 -64.5 -49.5 -177.5t49.5 -177.5t135.5 -64.5t135.5 64.5t49.5 177.5t-49.5 177.5
t-135.5 64.5t-135.5 -64.5z" />
    <glyph glyph-name="P" unicode="P" horiz-adv-x="636" 
d="M545 650q67 -62 67 -168t-67 -168t-194 -62h-122v-252h-147v712h269q127 0 194 -62zM229 374h102q131 0 131 108t-131 108h-102v-216z" />
    <glyph glyph-name="Q" unicode="Q" horiz-adv-x="748" 
d="M689 204q-22 -68 -64 -115l81 -91l-78 -73l-87 97q-71 -38 -167 -38q-104 0 -180 45t-116.5 128.5t-40.5 198.5t40.5 198.5t116.5 128.5t180 45t180 -45t116.5 -128.5t40.5 -198.5q0 -84 -22 -152zM451 121l-99 110l81 74l97 -109q35 61 35 156q0 114 -50 180t-138 66
t-138 -66t-50 -180t50 -180t138 -66q41 0 74 15z" />
    <glyph glyph-name="R" unicode="R" horiz-adv-x="666" 
d="M540 660q64 -52 64 -149q0 -65 -35 -111t-95 -63v-2q38 -14 60 -42.5t47 -95.5l71 -197h-160l-57 169q-20 58 -46.5 80.5t-78.5 22.5h-81v-272h-147v712h262q132 0 196 -52zM229 389h104q123 0 123 105q0 99 -131 99h-96v-204z" />
    <glyph glyph-name="S" unicode="S" horiz-adv-x="630" 
d="M502.5 668.5q68.5 -59.5 68.5 -174.5h-149q0 56 -32 86.5t-92 30.5q-49 0 -79 -21.5t-30 -56.5q0 -27 15 -44t47 -29.5t93 -27.5q83 -21 134 -42.5t83.5 -64.5t32.5 -116q0 -67 -35 -118t-98 -79t-145 -28q-135 0 -211.5 65t-76.5 185h152q0 -65 35 -98t103 -33
q56 0 89.5 24.5t33.5 66.5q0 30 -15 47.5t-43 27.5t-89 26q-87 22 -138 43t-84.5 63.5t-33.5 115.5q0 62 33 110t93 74.5t137 26.5q133 0 201.5 -59.5z" />
    <glyph glyph-name="T" unicode="T" horiz-adv-x="615" 
d="M381 586v-586h-147v586h-224v126h595v-126h-224z" />
    <glyph glyph-name="U" unicode="U" horiz-adv-x="718" 
d="M568.5 58q-73.5 -74 -209.5 -74t-209.5 74t-73.5 214v440h147v-435q0 -79 35 -121t101 -42t101 42t35 121v435h147v-440q0 -140 -73.5 -214z" />
    <glyph glyph-name="V" unicode="V" horiz-adv-x="638" 
d="M227 0l-221 712h150l85 -277q46 -146 77 -291h2q28 127 77 291l85 277h150l-221 -712h-184z" />
    <glyph glyph-name="W" unicode="W" horiz-adv-x="956" 
d="M607 0l-66 282q-37 157 -62 305h-2q-25 -148 -62 -305l-66 -282h-191l-149 712h144l51 -259q32 -162 52 -308h2q27 151 65 308l62 259h186l62 -259q38 -157 65 -308h2q20 146 52 308l51 259h144l-149 -712h-191z" />
    <glyph glyph-name="X" unicode="X" horiz-adv-x="630" 
d="M627 0h-171l-140 252h-2l-140 -252h-171l223 362l-212 350h168l132 -246h2l132 246h168l-212 -350z" />
    <glyph glyph-name="Y" unicode="Y" horiz-adv-x="638" 
d="M392 0h-147v277l-243 435h165l68 -134q45 -89 83 -181h2q38 92 83 181l68 134h164l-243 -435v-277z" />
    <glyph glyph-name="Z" unicode="Z" horiz-adv-x="582" 
d="M195 126v-2h367v-124h-542v129l350 457v2h-334v124h509v-129z" />
    <glyph glyph-name="bracketleft" unicode="[" horiz-adv-x="329" 
d="M202 660v-728h112v-81h-244v890h244v-81h-112z" />
    <glyph glyph-name="backslash" unicode="\" horiz-adv-x="488" 
d="M458 -89h-109l-298 834h109z" />
    <glyph glyph-name="bracketright" unicode="]" horiz-adv-x="329" 
d="M259 -149h-244v81h112v728h-112v81h244v-890z" />
    <glyph glyph-name="asciicircum" unicode="^" horiz-adv-x="496" 
d="M359 371l-110 231h-2l-110 -231h-129l166 341h148l166 -341h-129z" />
    <glyph glyph-name="underscore" unicode="_" horiz-adv-x="500" 
d="M0 -126v76h500v-76h-500z" />
    <glyph glyph-name="grave" unicode="`" horiz-adv-x="350" 
d="M300 566h-110l-140 146h173z" />
    <glyph glyph-name="a" unicode="a" horiz-adv-x="547" 
d="M430 473.5q55 -50.5 55 -150.5v-184q0 -86 14 -139h-126q-7 29 -7 68h-2q-56 -80 -165 -80q-79 0 -126 43.5t-47 110.5q0 65 45.5 105t151.5 57q64 10 127 14v18q0 46 -22 68t-61 22t-60.5 -20.5t-23.5 -56.5h-136q4 77 60 126t160 49q108 0 163 -50.5zM248 222
q-44 -8 -63 -24t-19 -46q0 -29 19.5 -46.5t55.5 -17.5q23 0 44.5 7.5t35.5 21.5q17 17 23 38.5t6 58.5v19q-60 -4 -102 -11z" />
    <glyph glyph-name="b" unicode="b" horiz-adv-x="598" 
d="M210 447q23 35 61.5 54.5t82.5 19.5q63 0 110.5 -33t73 -93.5t25.5 -140.5t-26 -140.5t-74 -93.5t-111 -33q-45 0 -84 21t-62 59h-2v-67h-136v712h140v-265h2zM230 371.5q-29 -42.5 -29 -117.5t29 -117.5t77 -42.5q50 0 80 43.5t30 116.5t-30 116.5t-80 43.5
q-48 0 -77 -42.5z" />
    <glyph glyph-name="c" unicode="c" horiz-adv-x="562" 
d="M410.5 498q52.5 -26 84 -73t36.5 -106h-146q-4 45 -29.5 71t-65.5 26q-51 0 -80 -43.5t-29 -118.5t29 -118.5t80 -43.5q40 0 65.5 28.5t28.5 78.5h147q-8 -97 -73 -156t-167 -59q-77 0 -135 33.5t-89.5 94.5t-31.5 142t31.5 142t89.5 94.5t135 33.5q67 0 119.5 -26z" />
    <glyph glyph-name="d" unicode="d" horiz-adv-x="598" 
d="M394 0v67h-2q-23 -38 -62 -59t-84 -21q-63 0 -111 33t-74 93.5t-26 140.5t25.5 140.5t73 93.5t110.5 33q44 0 82.5 -19.5t61.5 -54.5h2v265h140v-712h-136zM211 370.5q-30 -43.5 -30 -116.5t30 -116.5t80 -43.5q48 0 77 42.5t29 117.5t-29 117.5t-77 42.5
q-50 0 -80 -43.5z" />
    <glyph glyph-name="e" unicode="e" horiz-adv-x="573" 
d="M356 102.5q27 19.5 32 51.5h143q-10 -47 -42.5 -86t-84 -61.5t-116.5 -22.5q-79 0 -136 34.5t-87 96.5t-30 143q0 76 30 136t87 95t135 35q87 0 149 -45.5t86 -123.5q16 -51 16 -130h-365q3 -74 34.5 -108t80.5 -34q41 0 68 19.5zM213.5 397q-29.5 -28 -37.5 -84h222
q-6 55 -36.5 83.5t-74.5 28.5t-73.5 -28z" />
    <glyph glyph-name="f" unicode="f" horiz-adv-x="341" 
d="M250 597.5q-18 -18.5 -18 -60.5v-29h96v-104h-96v-404h-138v404h-84v104h84v46q0 83 43 124.5t125 41.5q35 0 69 -8v-99q-9 3 -25 3q-38 0 -56 -18.5z" />
    <glyph glyph-name="g" unicode="g" horiz-adv-x="591" 
d="M326 502.5q34 -19.5 63 -62.5h2v68h132v-476q0 -112 -64 -169t-177 -57q-103 0 -161 43t-64 119h140q2 -29 25 -45.5t63 -16.5q50 0 76 30t26 101v45h-2q-28 -40 -62 -58t-80 -18q-63 0 -110 31.5t-72.5 90t-25.5 136.5t26 136.5t73.5 90t110.5 31.5q47 0 81 -19.5z
M208.5 368.5q-27.5 -38.5 -27.5 -104.5t27.5 -104.5t74.5 -38.5q49 0 78.5 39t29.5 104t-29.5 104t-78.5 39q-47 0 -74.5 -38.5z" />
    <glyph glyph-name="h" unicode="h" 
d="M210 452q26 34 62.5 51t77.5 17q87 0 137 -53.5t50 -154.5v-312h-140v298q0 56 -23.5 84t-65.5 28q-45 0 -72.5 -35.5t-27.5 -102.5v-272h-140v712h140v-260h2z" />
    <glyph glyph-name="i" unicode="i" horiz-adv-x="276" 
d="M68 0v508h140v-508h-140zM68 592v120h140v-120h-140z" />
    <glyph glyph-name="j" unicode="j" horiz-adv-x="278" 
d="M163.5 -146.5q-46.5 -43.5 -126.5 -43.5q-37 0 -69 8v101q12 -3 27 -3q39 0 57 20.5t18 73.5v498h140v-519q0 -92 -46.5 -135.5zM70 592v120h140v-120h-140z" />
    <glyph glyph-name="k" unicode="k" horiz-adv-x="543" 
d="M380 0l-170 238h-2v-238h-140v712h140v-409h2l164 205h158l-193 -234l214 -274h-173z" />
    <glyph glyph-name="l" unicode="l" horiz-adv-x="276" 
d="M68 0v712h140v-712h-140z" />
    <glyph glyph-name="m" unicode="m" horiz-adv-x="897" 
d="M786.5 467q47.5 -53 47.5 -155v-312h-140v298q0 56 -21 84t-59 28q-45 0 -69 -38.5t-24 -110.5v-261h-140v307q0 49 -20.5 76t-59.5 27q-45 0 -69 -38.5t-24 -110.5v-261h-140v508h132v-58h2q28 36 62 53t79 17q53 0 91.5 -22t59.5 -65q30 43 68 65t94 22q83 0 130.5 -53
z" />
    <glyph glyph-name="n" unicode="n" 
d="M487 466.5q50 -53.5 50 -154.5v-312h-140v298q0 56 -23.5 84t-65.5 28q-45 0 -72.5 -35.5t-27.5 -102.5v-272h-140v508h131v-64h2q26 35 64 55.5t85 20.5q87 0 137 -53.5z" />
    <glyph glyph-name="o" unicode="o" horiz-adv-x="590" 
d="M432.5 491q58.5 -33 90.5 -94t32 -143t-32 -143t-90.5 -94t-137.5 -33t-137.5 33t-90.5 94t-32 143t32 143t90.5 94t137.5 33t137.5 -33zM212.5 372q-30.5 -44 -30.5 -118t30.5 -118t82.5 -44t82.5 44t30.5 118t-30.5 118t-82.5 44t-82.5 -44z" />
    <glyph glyph-name="p" unicode="p" horiz-adv-x="598" 
d="M463 488q48 -33 74 -93.5t26 -140.5t-25.5 -140.5t-73 -93.5t-110.5 -33q-44 0 -82.5 19.5t-61.5 54.5h-2v-246h-140v693h136v-67h2q23 38 62 59t84 21q63 0 111 -33zM230 371.5q-29 -42.5 -29 -117.5t29 -117.5t77 -42.5q50 0 80 43.5t30 116.5t-30 116.5t-80 43.5
q-48 0 -77 -42.5z" />
    <glyph glyph-name="q" unicode="q" horiz-adv-x="598" 
d="M330 500q39 -21 62 -59h2v67h136v-693h-140v246h-2q-23 -35 -61.5 -54.5t-82.5 -19.5q-63 0 -110.5 33t-73 93.5t-25.5 140.5t26 140.5t74 93.5t111 33q45 0 84 -21zM211 370.5q-30 -43.5 -30 -116.5t30 -116.5t80 -43.5q48 0 77 42.5t29 117.5t-29 117.5t-77 42.5
q-50 0 -80 -43.5z" />
    <glyph glyph-name="r" unicode="r" horiz-adv-x="392" 
d="M384 510v-121q-27 5 -44 5q-64 0 -98 -39.5t-34 -114.5v-240h-140v508h129v-72h2q25 41 59.5 60.5t79.5 19.5q25 0 46 -6z" />
    <glyph glyph-name="s" unicode="s" horiz-adv-x="524" 
d="M414 480q56 -44 56 -128h-134q0 74 -80 74q-33 0 -51 -12.5t-18 -34.5q0 -18 11 -28.5t32 -17.5t66 -19q64 -17 101 -32t63.5 -48t26.5 -91q0 -72 -60.5 -115.5t-163.5 -43.5q-108 0 -168 45.5t-60 135.5h142q0 -38 23 -59t66 -21q36 0 55 13t19 36q0 21 -12 33.5
t-33.5 20t-71.5 20.5q-60 16 -93.5 29.5t-58 44.5t-24.5 86q0 45 26.5 80.5t74 55.5t109.5 20q101 0 157 -44z" />
    <glyph glyph-name="t" unicode="t" horiz-adv-x="357" 
d="M332 110v-107q-32 -10 -74 -10q-88 0 -128 38.5t-40 126.5v246h-82v104h82v132h140v-132h97v-104h-97v-221q0 -42 15 -60t51 -18q21 0 36 5z" />
    <glyph glyph-name="u" unicode="u" 
d="M113 41.5q-50 53.5 -50 154.5v312h140v-298q0 -56 23.5 -84t65.5 -28q45 0 72.5 35.5t27.5 102.5v272h140v-508h-131v64h-2q-26 -35 -64 -55.5t-85 -20.5q-87 0 -137 53.5z" />
    <glyph glyph-name="v" unicode="v" horiz-adv-x="510" 
d="M164 0l-171 508h146l59 -200q33 -112 56 -220h2q23 108 56 220l59 200h146l-171 -508h-182z" />
    <glyph glyph-name="w" unicode="w" horiz-adv-x="810" 
d="M493 0l-45 200q-23 104 -42 217h-2q-19 -113 -42 -217l-45 -200h-200l-112 508h139l38 -196q24 -123 37 -221h2q18 112 43 219l45 198h192l45 -198q25 -107 43 -219h2q13 98 37 221l38 196h139l-112 -508h-200z" />
    <glyph glyph-name="x" unicode="x" horiz-adv-x="508" 
d="M514 0h-163l-96 172h-2l-96 -172h-163l174 261l-163 247h161l87 -149h2l87 149h161l-163 -247z" />
    <glyph glyph-name="y" unicode="y" horiz-adv-x="504" 
d="M271.5 -115.5q-31.5 -40.5 -75.5 -58t-109 -17.5q-39 0 -73 8v112q22 -8 54 -8q42 0 67.5 22.5t25.5 59.5q0 14 -4.5 32t-19.5 60l-144 413h150l52 -170q32 -107 56 -213h2q30 123 59 213l55 170h144l-182 -511q-26 -72 -57.5 -112.5z" />
    <glyph glyph-name="z" unicode="z" horiz-adv-x="484" 
d="M197 112v-2h259v-110h-428v114l249 282v2h-239v110h408v-114z" />
    <glyph glyph-name="braceleft" unicode="{" horiz-adv-x="338" 
d="M251.5 639.5q-18.5 -19.5 -18.5 -68.5v-144q0 -56 -22 -86.5t-72 -44.5v-3q50 -14 72 -44.5t22 -86.5v-144q0 -49 18.5 -68.5t61.5 -20.5v-81h-24q-69 0 -109 18.5t-57 57t-17 102.5v133q0 43 -14 62.5t-52 29.5v87q38 11 52 30.5t14 61.5v134q0 64 17 102t57 56.5
t109 18.5h24v-80q-43 -2 -61.5 -21.5z" />
    <glyph glyph-name="bar" unicode="|" horiz-adv-x="294" 
d="M84 -205v937h126v-937h-126z" />
    <glyph glyph-name="braceright" unicode="}" horiz-adv-x="338" 
d="M158 722.5q40 -18.5 57 -56.5t17 -102v-134q0 -42 14 -61.5t52 -30.5v-87q-38 -10 -52 -29.5t-14 -62.5v-133q0 -64 -17 -102.5t-57 -57t-109 -18.5h-24v81q43 1 61.5 20.5t18.5 68.5v144q0 56 22 86.5t72 44.5v3q-50 14 -72 44.5t-22 86.5v144q0 49 -18.5 68.5
t-61.5 21.5v80h24q69 0 109 -18.5z" />
    <glyph glyph-name="asciitilde" unicode="~" horiz-adv-x="594" 
d="M255 404.5q29 -14.5 67 -41.5q28 -21 46.5 -30.5t38.5 -9.5q32 0 52 23.5t20 63.5h90q0 -58 -21 -102.5t-58 -68.5t-85 -24q-37 0 -66.5 14.5t-66.5 40.5q-30 21 -48 30.5t-38 9.5q-32 0 -51.5 -23.5t-19.5 -63.5h-90q0 58 21 102.5t58 69t85 24.5q37 0 66 -14.5z" />
    <glyph glyph-name="uni00A0" unicode="&#xa0;" horiz-adv-x="230" 
 />
    <glyph glyph-name="exclamdown" unicode="&#xa1;" horiz-adv-x="324" 
d="M239 508v-132h-154v132h154zM216 310l31 -514h-170l31 514h108z" />
    <glyph glyph-name="cent" unicode="&#xa2;" 
d="M384 215q15 26 17 62h147q-8 -88 -62 -145.5t-141 -67.5v-90h-81v91q-98 14 -155 85t-57 182t57 182t155 85v91h81v-90q86 -10 140.5 -65.5t62.5 -137.5h-146q-6 68 -57 90v-309q24 11 39 37zM215 235q17 -39 49 -55v304q-32 -16 -49 -55t-17 -97t17 -97z" />
    <glyph glyph-name="sterling" unicode="&#xa3;" 
d="M565 116v-116h-541v118q45 0 67.5 30t22.5 101v28h-90v117h90v57q0 120 60 179.5t176 59.5q104 0 163 -58t59 -159h-141q0 47 -21 72t-60 25q-89 0 -89 -119v-57h122v-117h-122v-26q0 -54 -14 -84t-48 -49v-2h366z" />
    <glyph glyph-name="currency" unicode="&#xa4;" 
d="M491 175l72 -76l-87 -81l-71 77q-49 -22 -105 -22t-105 22l-71 -77l-87 81l72 76q-30 51 -30 116t30 116l-72 76l87 81l71 -77q49 22 105 22t105 -22l71 77l87 -81l-72 -76q30 -51 30 -116t-30 -116zM378.5 210q29.5 31 29.5 81t-29.5 81t-78.5 31t-78.5 -31t-29.5 -81
t29.5 -81t78.5 -31t78.5 31z" />
    <glyph glyph-name="yen" unicode="&#xa5;" 
d="M534 347v-70h-160v-40h160v-70h-160v-167h-148v167h-160v70h160v40h-160v70h122l-175 327h163l46 -96q43 -90 77 -181h2q34 91 77 181l46 96h163l-175 -327h122z" />
    <glyph glyph-name="brokenbar" unicode="&#xa6;" horiz-adv-x="294" 
d="M84 382v350h126v-350h-126zM84 -205v350h126v-350h-126z" />
    <glyph glyph-name="section" unicode="&#xa7;" horiz-adv-x="646" 
d="M545 542h-141q-2 34 -22.5 53.5t-58.5 19.5q-30 0 -48.5 -14t-18.5 -38q0 -20 9 -31.5t30.5 -22t77.5 -31.5q73 -27 115.5 -50.5t68 -62t25.5 -98.5q0 -91 -88 -147v-2q47 -35 47 -106q0 -78 -59.5 -123t-158.5 -45q-107 0 -168 46t-65 138h142q8 -71 88 -71
q34 0 54.5 14.5t20.5 40.5q0 21 -11.5 35t-39 27.5t-93.5 40.5q-63 26 -101.5 49t-62 59t-23.5 90q0 46 23 84t66 65v2q-19 15 -31 40t-12 57q0 50 27.5 88t76 58.5t109.5 20.5q210 0 222 -186zM209.5 372.5q-9.5 -17.5 -9.5 -38.5q0 -36 24 -60t93 -52q26 -10 92 -40
q17 9 27 27.5t10 41.5q0 33 -22.5 57.5t-85.5 49.5l-100 42q-19 -10 -28.5 -27.5z" />
    <glyph glyph-name="dieresis" unicode="&#xa8;" horiz-adv-x="440" 
d="M50 592v120h123v-120h-123zM267 592v120h123v-120h-123z" />
    <glyph glyph-name="copyright" unicode="&#xa9;" horiz-adv-x="802" 
d="M589.5 680q81.5 -46 126.5 -130t45 -194t-45 -194t-126.5 -130t-188.5 -46t-188.5 46t-126.5 130t-45 194t45 194t126.5 130t188.5 46t188.5 -46zM240.5 631.5q-69.5 -39.5 -107.5 -110.5t-38 -165t38 -165t107.5 -110.5t160.5 -39.5t160.5 39.5t108 110.5t38.5 165
t-38.5 165t-108 110.5t-160.5 39.5t-160.5 -39.5zM539 541q51 -46 55 -123h-97q-3 41 -27.5 65.5t-66.5 24.5q-50 0 -78.5 -41t-28.5 -112q0 -70 28.5 -110.5t76.5 -40.5q41 0 67 25t31 68h98q-7 -81 -59.5 -126.5t-136.5 -45.5q-94 0 -148 61.5t-54 168.5q0 108 54.5 170
t149.5 62q85 0 136 -46z" />
    <glyph glyph-name="ordfeminine" unicode="&#xaa;" horiz-adv-x="412" 
d="M325.5 660q41.5 -37 41.5 -108v-121q0 -62 11 -101h-108q-6 21 -6 46h-1q-42 -55 -119 -55q-58 0 -92 31t-34 79q0 47 34 75t112 40q49 7 87 9v13q0 54 -51 54q-24 0 -37 -12.5t-14 -36.5h-116q3 54 45 89t123 35q83 0 124.5 -37zM187 483q-27 -5 -38.5 -15.5
t-11.5 -28.5t12 -29t34 -11q33 0 50 18q11 11 14.5 24.5t3.5 36.5v13q-35 -2 -64 -8z" />
    <glyph glyph-name="guillemotleft" unicode="&#xab;" horiz-adv-x="532" 
d="M488 54h-122l-114 200l114 200h122l-108 -200zM280 54h-122l-114 200l114 200h122l-108 -200z" />
    <glyph glyph-name="logicalnot" unicode="&#xac;" horiz-adv-x="566" 
d="M394 132v221h-330v109h438v-330h-108z" />
    <glyph glyph-name="uni00AD" unicode="&#xad;" horiz-adv-x="320" 
d="M30 237v110h260v-110h-260z" />
    <glyph glyph-name="registered" unicode="&#xae;" horiz-adv-x="592" 
d="M428 696q57 -32 88 -90.5t31 -135.5t-31 -135.5t-88 -90.5t-132 -32t-132 32t-88 90.5t-31 135.5t31 135.5t88 90.5t132 32t132 -32zM183.5 664.5q-48.5 -27.5 -75.5 -78t-27 -116.5t27 -116.5t75.5 -78t112.5 -27.5t112.5 27.5t75.5 78t27 116.5t-27 116.5t-75.5 78
t-112.5 27.5t-112.5 -27.5zM386 608q28 -24 28 -66q0 -28 -15.5 -49t-42.5 -28v-2q16 -5 26 -17t20 -39l33 -91h-72l-27 77q-7 24 -20 33.5t-36 9.5h-36v-120h-68v316h128q54 0 82 -24zM244 490h43q60 0 60 46q0 19 -14.5 30t-42.5 11h-46v-87z" />
    <glyph glyph-name="macron" unicode="&#xaf;" horiz-adv-x="426" 
d="M50 598v91h326v-91h-326z" />
    <glyph glyph-name="degree" unicode="&#xb0;" horiz-adv-x="339" 
d="M237 704q31 -18 49.5 -49t18.5 -68t-18.5 -68t-49.5 -49t-67 -18q-37 0 -68 18t-49.5 49t-18.5 68t18.5 68t49.5 49t68 18q36 0 67 -18zM124 633q-19 -19 -19 -46t19 -46t46 -19t46 19t19 46t-19 46t-46 19t-46 -19z" />
    <glyph glyph-name="plusminus" unicode="&#xb1;" horiz-adv-x="566" 
d="M502 411v-109h-165v-155h-108v155h-165v109h165v155h108v-155h165zM64 0v109h438v-109h-438z" />
    <glyph glyph-name="uni00B2" unicode="&#xb2;" horiz-adv-x="458" 
d="M363 774q50 -39 50 -102q0 -57 -32 -92t-95 -66q-62 -30 -82.5 -47.5t-22.5 -37.5h244v-99h-389q-1 7 -1 23q0 75 30 123.5t110 90.5q60 31 85 52.5t25 51.5q0 21 -14.5 34t-40.5 13q-63 0 -65 -69h-124q1 79 51 121.5t138 42.5q83 0 133 -39z" />
    <glyph glyph-name="uni00B3" unicode="&#xb3;" horiz-adv-x="452" 
d="M362.5 777q49.5 -36 49.5 -98q0 -39 -20.5 -63.5t-64.5 -40.5v-2q47 -15 69 -42t22 -70q0 -65 -51.5 -103.5t-137.5 -38.5q-97 0 -148.5 43t-51.5 125h125q0 -36 19 -54.5t56 -18.5q29 0 47 14t18 37q0 56 -87 56h-14v92h16q37 0 58.5 14.5t21.5 39.5q0 23 -17 37t-46 14
q-67 0 -67 -70h-123q0 78 50.5 121.5t141.5 43.5q85 0 134.5 -36z" />
    <glyph glyph-name="acute" unicode="&#xb4;" horiz-adv-x="350" 
d="M50 566l77 146h173l-140 -146h-110z" />
    <glyph glyph-name="uni00B5" unicode="&#xb5;" horiz-adv-x="613" 
d="M545.5 115.5q10.5 -14.5 33.5 -14.5q12 0 24 3v-100q-36 -12 -85 -12q-93 0 -111 81h-2q-14 -37 -46.5 -58t-74.5 -21q-49 0 -76 21v-200h-140v693h140v-298q0 -56 22.5 -84t64.5 -28q45 0 72.5 35.5t27.5 102.5v272h140v-340q0 -38 10.5 -52.5z" />
    <glyph glyph-name="paragraph" unicode="&#xb6;" horiz-adv-x="656" 
d="M552 616v-736h-103v736h-82v-736h-103v410h-23q-92 0 -146.5 57t-54.5 154t54.5 154t146.5 57h391v-96h-80z" />
    <glyph glyph-name="periodcentered" unicode="&#xb7;" horiz-adv-x="258" 
d="M52 222v167h154v-167h-154z" />
    <glyph glyph-name="cedilla" unicode="&#xb8;" horiz-adv-x="336" 
d="M201 -56q35 0 60 -20.5t25 -55.5q0 -41 -32 -67.5t-90 -26.5q-60 0 -114 30l22 45q41 -22 80 -22q23 0 36 9t13 26t-13 27.5t-35 10.5q-17 0 -32 -6l-21 23l52 83h55l-38 -61q13 5 32 5z" />
    <glyph glyph-name="uni00B9" unicode="&#xb9;" horiz-adv-x="326" 
d="M139 330v301h-128v89q67 0 100 19t41 63h111v-472h-124z" />
    <glyph glyph-name="ordmasculine" unicode="&#xba;" horiz-adv-x="438" 
d="M360.5 645.5q52.5 -51.5 52.5 -137.5q0 -87 -52.5 -138t-141.5 -51t-141.5 51t-52.5 138q0 86 52.5 137.5t141.5 51.5t141.5 -51.5zM169 580q-18 -26 -18 -72t18.5 -72.5t49.5 -26.5t49.5 26.5t18.5 72.5t-18 72t-50 26t-50 -26z" />
    <glyph glyph-name="guillemotright" unicode="&#xbb;" horiz-adv-x="532" 
d="M280 254l-114 -200h-122l108 200l-108 200h122zM488 254l-114 -200h-122l108 200l-108 200h122z" />
    <glyph glyph-name="onequarter" unicode="&#xbc;" horiz-adv-x="801" 
d="M112 270v252h-103v81q50 0 77.5 18t36.5 53h106v-404h-117zM121 0l369 674h91l-369 -674h-91zM725 80v-80h-112v80h-199v88l163 236h148v-237h66v-87h-66zM619 167v42q0 69 4 124h-1q-35 -63 -71 -113l-38 -53h106z" />
    <glyph glyph-name="onehalf" unicode="&#xbd;" horiz-adv-x="830" 
d="M112 270v252h-103v81q50 0 77.5 18t36.5 53h106v-404h-117zM121 0l369 674h91l-369 -674h-91zM746.5 380q43.5 -34 43.5 -89q0 -49 -28.5 -80t-82.5 -55t-71.5 -37.5t-19.5 -29.5h214v-89h-346q-1 7 -1 22q0 66 26.5 107.5t95.5 76.5q55 27 76 43.5t21 43.5q0 16 -12 26
t-33 10q-26 0 -40 -15t-14 -43h-114q1 69 45 106t122 37q75 0 118.5 -34z" />
    <glyph glyph-name="threequarters" unicode="&#xbe;" horiz-adv-x="924" 
d="M321 652.5q45 -31.5 45 -84.5q0 -33 -17.5 -53.5t-56.5 -34.5v-1q41 -13 60 -36.5t19 -61.5q0 -57 -44.5 -89t-123.5 -32q-85 0 -131.5 37t-46.5 107h114q0 -58 64 -58q25 0 40.5 11t15.5 30q0 22 -18.5 33.5t-53.5 11.5h-14v82h13q32 0 50.5 12.5t18.5 33.5q0 17 -15 28
t-40 11q-28 0 -43 -14.5t-15 -40.5h-111q0 66 45 103t124 37q76 0 121 -31.5zM244 0l369 674h91l-369 -674h-91zM848 80v-80h-112v80h-199v88l163 236h148v-237h66v-87h-66zM742 167v42q0 69 4 124h-1q-35 -63 -71 -113l-38 -53h106z" />
    <glyph glyph-name="questiondown" unicode="&#xbf;" horiz-adv-x="517" 
d="M362 508v-132h-154v132h154zM99 -169q-62 50 -62 136q0 52 20 87t80 87q37 32 55 55.5t25 51t7 74.5h119q1 -12 1 -32q0 -51 -7.5 -82.5t-27.5 -59.5t-60 -65q-42 -38 -54 -59.5t-12 -52.5q0 -32 22.5 -50.5t64.5 -18.5q49 0 74 24.5t27 76.5h146q-3 -109 -66.5 -165.5
t-180.5 -56.5q-109 0 -171 50z" />
    <glyph glyph-name="Agrave" unicode="&#xc0;" horiz-adv-x="698" 
d="M213 174l-56 -174h-154l247 712h198l247 -712h-154l-55 174h-273zM431 347q-49 156 -81 278h-2q-37 -140 -80 -278l-15 -47h193zM434 760h-110l-140 146h173z" />
    <glyph glyph-name="Aacute" unicode="&#xc1;" horiz-adv-x="698" 
d="M213 174l-56 -174h-154l247 712h198l247 -712h-154l-55 174h-273zM431 347q-49 156 -81 278h-2q-37 -140 -80 -278l-15 -47h193zM264 760l77 146h173l-140 -146h-110z" />
    <glyph glyph-name="Acircumflex" unicode="&#xc2;" horiz-adv-x="698" 
d="M213 174l-56 -174h-154l247 712h198l247 -712h-154l-55 174h-273zM431 347q-49 156 -81 278h-2q-37 -140 -80 -278l-15 -47h193zM423 906l114 -146h-128l-61 76l-60 -76h-128l114 146h149z" />
    <glyph glyph-name="Atilde" unicode="&#xc3;" horiz-adv-x="698" 
d="M213 174l-56 -174h-154l247 712h198l247 -712h-154l-55 174h-273zM431 347q-49 156 -81 278h-2q-37 -140 -80 -278l-15 -47h193zM503 807q-31 -36 -84 -36q-24 0 -42 7t-40 20q-18 10 -28.5 14.5t-23.5 4.5q-21 0 -32 -11t-14 -35h-78q3 63 34 99t84 36q24 0 42.5 -7
t40.5 -20q16 -9 27.5 -14t23.5 -5q21 0 32 11t14 35h78q-3 -63 -34 -99z" />
    <glyph glyph-name="Adieresis" unicode="&#xc4;" horiz-adv-x="698" 
d="M213 174l-56 -174h-154l247 712h198l247 -712h-154l-55 174h-273zM431 347q-49 156 -81 278h-2q-37 -140 -80 -278l-15 -47h193zM179 769v120h123v-120h-123zM396 769v120h123v-120h-123z" />
    <glyph glyph-name="Aring" unicode="&#xc5;" horiz-adv-x="698" 
d="M213 174l-56 -174h-154l247 712h198l247 -712h-154l-55 174h-273zM431 347q-49 156 -81 278h-2q-37 -140 -80 -278l-15 -47h193zM425.5 934.5q31.5 -31.5 31.5 -76.5t-31.5 -76.5t-76.5 -31.5t-76.5 31.5t-31.5 76.5t31.5 76.5t76.5 31.5t76.5 -31.5zM311 896.5
q-16 -15.5 -16 -38.5q0 -22 16 -38t38 -16q23 0 38.5 16t15.5 38q0 23 -15.5 38.5t-38.5 15.5q-22 0 -38 -15.5z" />
    <glyph glyph-name="AE" unicode="&#xc6;" horiz-adv-x="965" 
d="M915 0h-398l-26 179h-254l-77 -179h-166l332 712h580v-126h-332l23 -161h286v-125h-268l25 -174h275v-126zM431 595h-14l-126 -292h182z" />
    <glyph glyph-name="Ccedilla" unicode="&#xc7;" horiz-adv-x="701" 
d="M580.5 63q-70.5 -69 -187.5 -78l-29 -46q13 5 32 5q35 0 60 -20.5t25 -55.5q0 -41 -32 -67.5t-90 -26.5q-60 0 -114 30l22 45q41 -22 80 -22q23 0 36 9t13 26t-13 27.5t-35 10.5q-17 0 -32 -6l-21 23l42 68q-92 5 -160 51t-104 128t-36 192q0 114 39.5 198t113 129
t173.5 45q87 0 152.5 -33t102.5 -93t40 -137h-148q-7 62 -46 97.5t-101 35.5q-81 0 -127.5 -64.5t-46.5 -177.5t45.5 -177.5t125.5 -64.5q63 0 102.5 35.5t47.5 100.5h151q-10 -118 -80.5 -187z" />
    <glyph glyph-name="Egrave" unicode="&#xc8;" horiz-adv-x="633" 
d="M229 586v-161h322v-125h-322v-174h354v-126h-501v712h492v-126h-345zM413 760h-110l-140 146h173z" />
    <glyph glyph-name="Eacute" unicode="&#xc9;" horiz-adv-x="633" 
d="M229 586v-161h322v-125h-322v-174h354v-126h-501v712h492v-126h-345zM243 760l77 146h173l-140 -146h-110z" />
    <glyph glyph-name="Ecircumflex" unicode="&#xca;" horiz-adv-x="633" 
d="M229 586v-161h322v-125h-322v-174h354v-126h-501v712h492v-126h-345zM402 906l114 -146h-128l-61 76l-60 -76h-128l114 146h149z" />
    <glyph glyph-name="Edieresis" unicode="&#xcb;" horiz-adv-x="633" 
d="M229 586v-161h322v-125h-322v-174h354v-126h-501v712h492v-126h-345zM158 769v120h123v-120h-123zM375 769v120h123v-120h-123z" />
    <glyph glyph-name="Igrave" unicode="&#xcc;" horiz-adv-x="311" 
d="M82 0v712h147v-712h-147zM241 760h-110l-140 146h173z" />
    <glyph glyph-name="Iacute" unicode="&#xcd;" horiz-adv-x="311" 
d="M82 0v712h147v-712h-147zM71 760l77 146h173l-140 -146h-110z" />
    <glyph glyph-name="Icircumflex" unicode="&#xce;" horiz-adv-x="311" 
d="M82 0v712h147v-712h-147zM230 906l114 -146h-128l-61 76l-60 -76h-128l114 146h149z" />
    <glyph glyph-name="Idieresis" unicode="&#xcf;" horiz-adv-x="311" 
d="M82 0v712h147v-712h-147zM-14 769v120h123v-120h-123zM203 769v120h123v-120h-123z" />
    <glyph glyph-name="Eth" unicode="&#xd0;" horiz-adv-x="734" 
d="M599 619.5q98 -92.5 98 -263.5t-98 -263.5t-280 -92.5h-237v307h-64v106h64v299h237q182 0 280 -92.5zM488.5 183q56.5 57 56.5 173t-56.5 173t-171.5 57h-89v-173h166v-106h-166v-181h89q115 0 171.5 57z" />
    <glyph glyph-name="Ntilde" unicode="&#xd1;" horiz-adv-x="776" 
d="M485 0l-138 289q-76 161 -130 294h-2q8 -165 8 -309v-274h-141v712h209l138 -289q76 -161 130 -294h2q-8 165 -8 309v274h141v-712h-209zM542 807q-31 -36 -84 -36q-24 0 -42 7t-40 20q-18 10 -28.5 14.5t-23.5 4.5q-21 0 -32 -11t-14 -35h-78q3 63 34 99t84 36
q24 0 42.5 -7t40.5 -20q16 -9 27.5 -14t23.5 -5q21 0 32 11t14 35h78q-3 -63 -34 -99z" />
    <glyph glyph-name="Ograve" unicode="&#xd2;" horiz-adv-x="748" 
d="M554 683q76 -45 116.5 -128.5t40.5 -198.5t-40.5 -198.5t-116.5 -128.5t-180 -45t-180 45t-116.5 128.5t-40.5 198.5t40.5 198.5t116.5 128.5t180 45t180 -45zM238.5 533.5q-49.5 -64.5 -49.5 -177.5t49.5 -177.5t135.5 -64.5t135.5 64.5t49.5 177.5t-49.5 177.5
t-135.5 64.5t-135.5 -64.5zM459 760h-110l-140 146h173z" />
    <glyph glyph-name="Oacute" unicode="&#xd3;" horiz-adv-x="748" 
d="M554 683q76 -45 116.5 -128.5t40.5 -198.5t-40.5 -198.5t-116.5 -128.5t-180 -45t-180 45t-116.5 128.5t-40.5 198.5t40.5 198.5t116.5 128.5t180 45t180 -45zM238.5 533.5q-49.5 -64.5 -49.5 -177.5t49.5 -177.5t135.5 -64.5t135.5 64.5t49.5 177.5t-49.5 177.5
t-135.5 64.5t-135.5 -64.5zM289 760l77 146h173l-140 -146h-110z" />
    <glyph glyph-name="Ocircumflex" unicode="&#xd4;" horiz-adv-x="748" 
d="M554 683q76 -45 116.5 -128.5t40.5 -198.5t-40.5 -198.5t-116.5 -128.5t-180 -45t-180 45t-116.5 128.5t-40.5 198.5t40.5 198.5t116.5 128.5t180 45t180 -45zM238.5 533.5q-49.5 -64.5 -49.5 -177.5t49.5 -177.5t135.5 -64.5t135.5 64.5t49.5 177.5t-49.5 177.5
t-135.5 64.5t-135.5 -64.5zM448 906l114 -146h-128l-61 76l-60 -76h-128l114 146h149z" />
    <glyph glyph-name="Otilde" unicode="&#xd5;" horiz-adv-x="748" 
d="M554 683q76 -45 116.5 -128.5t40.5 -198.5t-40.5 -198.5t-116.5 -128.5t-180 -45t-180 45t-116.5 128.5t-40.5 198.5t40.5 198.5t116.5 128.5t180 45t180 -45zM238.5 533.5q-49.5 -64.5 -49.5 -177.5t49.5 -177.5t135.5 -64.5t135.5 64.5t49.5 177.5t-49.5 177.5
t-135.5 64.5t-135.5 -64.5zM528 807q-31 -36 -84 -36q-24 0 -42 7t-40 20q-18 10 -28.5 14.5t-23.5 4.5q-21 0 -32 -11t-14 -35h-78q3 63 34 99t84 36q24 0 42.5 -7t40.5 -20q16 -9 27.5 -14t23.5 -5q21 0 32 11t14 35h78q-3 -63 -34 -99z" />
    <glyph glyph-name="Odieresis" unicode="&#xd6;" horiz-adv-x="748" 
d="M554 683q76 -45 116.5 -128.5t40.5 -198.5t-40.5 -198.5t-116.5 -128.5t-180 -45t-180 45t-116.5 128.5t-40.5 198.5t40.5 198.5t116.5 128.5t180 45t180 -45zM238.5 533.5q-49.5 -64.5 -49.5 -177.5t49.5 -177.5t135.5 -64.5t135.5 64.5t49.5 177.5t-49.5 177.5
t-135.5 64.5t-135.5 -64.5zM204 769v120h123v-120h-123zM421 769v120h123v-120h-123z" />
    <glyph glyph-name="multiply" unicode="&#xd7;" horiz-adv-x="566" 
d="M360 307l185 -185l-77 -77l-185 185l-184 -185l-78 77l185 185l-185 185l78 76l184 -184l185 184l77 -76z" />
    <glyph glyph-name="Oslash" unicode="&#xd8;" horiz-adv-x="748" 
d="M688.5 508.5q22.5 -68.5 22.5 -152.5q0 -115 -40.5 -198.5t-116.5 -128.5t-180 -45q-111 0 -190 51l-59 -78l-62 48l61 82q-87 99 -87 269q0 115 40.5 198.5t116.5 128.5t180 45q111 0 191 -52l59 79l61 -48l-61 -82q42 -48 64.5 -116.5zM213 206l272 363q-46 37 -111 37
q-89 0 -140 -67t-51 -183q0 -87 30 -150zM514 173q51 67 51 183q0 88 -31 150l-271 -364q47 -36 111 -36q89 0 140 67z" />
    <glyph glyph-name="Ugrave" unicode="&#xd9;" horiz-adv-x="718" 
d="M568.5 58q-73.5 -74 -209.5 -74t-209.5 74t-73.5 214v440h147v-435q0 -79 35 -121t101 -42t101 42t35 121v435h147v-440q0 -140 -73.5 -214zM444 760h-110l-140 146h173z" />
    <glyph glyph-name="Uacute" unicode="&#xda;" horiz-adv-x="718" 
d="M568.5 58q-73.5 -74 -209.5 -74t-209.5 74t-73.5 214v440h147v-435q0 -79 35 -121t101 -42t101 42t35 121v435h147v-440q0 -140 -73.5 -214zM274 760l77 146h173l-140 -146h-110z" />
    <glyph glyph-name="Ucircumflex" unicode="&#xdb;" horiz-adv-x="718" 
d="M568.5 58q-73.5 -74 -209.5 -74t-209.5 74t-73.5 214v440h147v-435q0 -79 35 -121t101 -42t101 42t35 121v435h147v-440q0 -140 -73.5 -214zM433 906l114 -146h-128l-61 76l-60 -76h-128l114 146h149z" />
    <glyph glyph-name="Udieresis" unicode="&#xdc;" horiz-adv-x="718" 
d="M568.5 58q-73.5 -74 -209.5 -74t-209.5 74t-73.5 214v440h147v-435q0 -79 35 -121t101 -42t101 42t35 121v435h147v-440q0 -140 -73.5 -214zM189 769v120h123v-120h-123zM406 769v120h123v-120h-123z" />
    <glyph glyph-name="Yacute" unicode="&#xdd;" horiz-adv-x="638" 
d="M392 0h-147v277l-243 435h165l68 -134q45 -89 83 -181h2q38 92 83 181l68 134h164l-243 -435v-277zM234 760l77 146h173l-140 -146h-110z" />
    <glyph glyph-name="Thorn" unicode="&#xde;" horiz-adv-x="636" 
d="M351 595q127 0 194 -62t67 -168t-67 -168t-194 -62h-122v-135h-147v712h147v-117h122zM229 257h102q131 0 131 108t-131 108h-102v-216z" />
    <glyph glyph-name="germandbls" unicode="&#xdf;" horiz-adv-x="575" 
d="M450.5 680q58.5 -48 58.5 -128q0 -117 -122 -156v-2q77 -15 116 -62.5t39 -125.5q0 -99 -63 -155t-163 -56q-27 0 -50 5v113q9 -2 22 -2q109 0 109 110q0 53 -30.5 82.5t-88.5 29.5h-12v115q58 0 83.5 21t25.5 68q0 39 -21 59.5t-60 20.5q-45 0 -65.5 -28t-20.5 -89v-500
h-140v510q0 103 59 160.5t165 57.5q100 0 158.5 -48z" />
    <glyph glyph-name="agrave" unicode="&#xe0;" horiz-adv-x="547" 
d="M430 473.5q55 -50.5 55 -150.5v-184q0 -86 14 -139h-126q-7 29 -7 68h-2q-56 -80 -165 -80q-79 0 -126 43.5t-47 110.5q0 65 45.5 105t151.5 57q64 10 127 14v18q0 46 -22 68t-61 22t-60.5 -20.5t-23.5 -56.5h-136q4 77 60 126t160 49q108 0 163 -50.5zM248 222
q-44 -8 -63 -24t-19 -46q0 -29 19.5 -46.5t55.5 -17.5q23 0 44.5 7.5t35.5 21.5q17 17 23 38.5t6 58.5v19q-60 -4 -102 -11zM346 566h-110l-140 146h173z" />
    <glyph glyph-name="aacute" unicode="&#xe1;" horiz-adv-x="547" 
d="M430 473.5q55 -50.5 55 -150.5v-184q0 -86 14 -139h-126q-7 29 -7 68h-2q-56 -80 -165 -80q-79 0 -126 43.5t-47 110.5q0 65 45.5 105t151.5 57q64 10 127 14v18q0 46 -22 68t-61 22t-60.5 -20.5t-23.5 -56.5h-136q4 77 60 126t160 49q108 0 163 -50.5zM248 222
q-44 -8 -63 -24t-19 -46q0 -29 19.5 -46.5t55.5 -17.5q23 0 44.5 7.5t35.5 21.5q17 17 23 38.5t6 58.5v19q-60 -4 -102 -11zM176 566l77 146h173l-140 -146h-110z" />
    <glyph glyph-name="acircumflex" unicode="&#xe2;" horiz-adv-x="547" 
d="M430 473.5q55 -50.5 55 -150.5v-184q0 -86 14 -139h-126q-7 29 -7 68h-2q-56 -80 -165 -80q-79 0 -126 43.5t-47 110.5q0 65 45.5 105t151.5 57q64 10 127 14v18q0 46 -22 68t-61 22t-60.5 -20.5t-23.5 -56.5h-136q4 77 60 126t160 49q108 0 163 -50.5zM248 222
q-44 -8 -63 -24t-19 -46q0 -29 19.5 -46.5t55.5 -17.5q23 0 44.5 7.5t35.5 21.5q17 17 23 38.5t6 58.5v19q-60 -4 -102 -11zM261 642l-61 -76h-128l114 146h149l114 -146h-128z" />
    <glyph glyph-name="atilde" unicode="&#xe3;" horiz-adv-x="547" 
d="M430 473.5q55 -50.5 55 -150.5v-184q0 -86 14 -139h-126q-7 29 -7 68h-2q-56 -80 -165 -80q-79 0 -126 43.5t-47 110.5q0 65 45.5 105t151.5 57q64 10 127 14v18q0 46 -22 68t-61 22t-60.5 -20.5t-23.5 -56.5h-136q4 77 60 126t160 49q108 0 163 -50.5zM248 222
q-44 -8 -63 -24t-19 -46q0 -29 19.5 -46.5t55.5 -17.5q23 0 44.5 7.5t35.5 21.5q17 17 23 38.5t6 58.5v19q-60 -4 -102 -11zM415 613q-31 -36 -84 -36q-24 0 -42 7t-40 20q-18 10 -28.5 14.5t-23.5 4.5q-21 0 -32 -11t-14 -35h-78q3 63 34 99t84 36q24 0 42.5 -7t40.5 -20
q16 -9 27.5 -14t23.5 -5q21 0 32 11t14 35h78q-3 -63 -34 -99z" />
    <glyph glyph-name="adieresis" unicode="&#xe4;" horiz-adv-x="547" 
d="M430 473.5q55 -50.5 55 -150.5v-184q0 -86 14 -139h-126q-7 29 -7 68h-2q-56 -80 -165 -80q-79 0 -126 43.5t-47 110.5q0 65 45.5 105t151.5 57q64 10 127 14v18q0 46 -22 68t-61 22t-60.5 -20.5t-23.5 -56.5h-136q4 77 60 126t160 49q108 0 163 -50.5zM248 222
q-44 -8 -63 -24t-19 -46q0 -29 19.5 -46.5t55.5 -17.5q23 0 44.5 7.5t35.5 21.5q17 17 23 38.5t6 58.5v19q-60 -4 -102 -11zM91 592v120h123v-120h-123zM308 592v120h123v-120h-123z" />
    <glyph glyph-name="aring" unicode="&#xe5;" horiz-adv-x="547" 
d="M430 473.5q55 -50.5 55 -150.5v-184q0 -86 14 -139h-126q-7 29 -7 68h-2q-56 -80 -165 -80q-79 0 -126 43.5t-47 110.5q0 65 45.5 105t151.5 57q64 10 127 14v18q0 46 -22 68t-61 22t-60.5 -20.5t-23.5 -56.5h-136q4 77 60 126t160 49q108 0 163 -50.5zM248 222
q-44 -8 -63 -24t-19 -46q0 -29 19.5 -46.5t55.5 -17.5q23 0 44.5 7.5t35.5 21.5q17 17 23 38.5t6 58.5v19q-60 -4 -102 -11zM337.5 740.5q31.5 -31.5 31.5 -76.5t-31.5 -76.5t-76.5 -31.5t-76.5 31.5t-31.5 76.5t31.5 76.5t76.5 31.5t76.5 -31.5zM223 702.5
q-16 -15.5 -16 -38.5q0 -22 16 -38t38 -16q23 0 38.5 16t15.5 38q0 23 -15.5 38.5t-38.5 15.5q-22 0 -38 -15.5z" />
    <glyph glyph-name="ae" unicode="&#xe6;" horiz-adv-x="880" 
d="M664.5 102.5q25.5 19.5 30.5 51.5h143q-10 -47 -41.5 -86t-82 -61.5t-114.5 -22.5q-60 0 -107 23t-78 66q-30 -44 -80 -66.5t-112 -22.5q-60 0 -104.5 20.5t-68.5 56.5t-24 81q0 80 60.5 123t195.5 43h78v28q0 47 -22 68.5t-66 21.5q-41 0 -63.5 -20.5t-24.5 -56.5h-136
q4 77 61 126t163 49q115 0 168 -60q63 60 159 60q85 0 146 -45.5t85 -123.5q15 -52 15 -130h-355q3 -74 33 -108t77 -34q39 0 64.5 19.5zM527 395.5q-28 -29.5 -35 -87.5h213q-5 58 -34 87.5t-72 29.5q-44 0 -72 -29.5zM297 225q-72 0 -101.5 -18t-29.5 -55q0 -31 21 -49.5
t58 -18.5q24 0 46.5 8t37.5 23q18 18 24.5 40t6.5 59v11h-63z" />
    <glyph glyph-name="ccedilla" unicode="&#xe7;" horiz-adv-x="562" 
d="M355.5 120.5q25.5 28.5 28.5 78.5h147q-8 -90 -64 -147.5t-146 -66.5l-29 -46q13 5 32 5q35 0 60 -20.5t25 -55.5q0 -41 -32 -67.5t-90 -26.5q-60 0 -114 30l22 45q41 -22 80 -22q23 0 36 9t13 26t-13 27.5t-35 10.5q-17 0 -32 -6l-21 23l43 68q-106 8 -168.5 80.5
t-62.5 188.5q0 81 31.5 142t89.5 94.5t135 33.5q67 0 119.5 -26t84 -73t36.5 -106h-146q-4 45 -29.5 71t-65.5 26q-51 0 -80 -43.5t-29 -118.5t29 -118.5t80 -43.5q40 0 65.5 28.5z" />
    <glyph glyph-name="egrave" unicode="&#xe8;" horiz-adv-x="573" 
d="M356 102.5q27 19.5 32 51.5h143q-10 -47 -42.5 -86t-84 -61.5t-116.5 -22.5q-79 0 -136 34.5t-87 96.5t-30 143q0 76 30 136t87 95t135 35q87 0 149 -45.5t86 -123.5q16 -51 16 -130h-365q3 -74 34.5 -108t80.5 -34q41 0 68 19.5zM213.5 397q-29.5 -28 -37.5 -84h222
q-6 55 -36.5 83.5t-74.5 28.5t-73.5 -28zM371 566h-110l-140 146h173z" />
    <glyph glyph-name="eacute" unicode="&#xe9;" horiz-adv-x="573" 
d="M356 102.5q27 19.5 32 51.5h143q-10 -47 -42.5 -86t-84 -61.5t-116.5 -22.5q-79 0 -136 34.5t-87 96.5t-30 143q0 76 30 136t87 95t135 35q87 0 149 -45.5t86 -123.5q16 -51 16 -130h-365q3 -74 34.5 -108t80.5 -34q41 0 68 19.5zM213.5 397q-29.5 -28 -37.5 -84h222
q-6 55 -36.5 83.5t-74.5 28.5t-73.5 -28zM201 566l77 146h173l-140 -146h-110z" />
    <glyph glyph-name="ecircumflex" unicode="&#xea;" horiz-adv-x="573" 
d="M356 102.5q27 19.5 32 51.5h143q-10 -47 -42.5 -86t-84 -61.5t-116.5 -22.5q-79 0 -136 34.5t-87 96.5t-30 143q0 76 30 136t87 95t135 35q87 0 149 -45.5t86 -123.5q16 -51 16 -130h-365q3 -74 34.5 -108t80.5 -34q41 0 68 19.5zM213.5 397q-29.5 -28 -37.5 -84h222
q-6 55 -36.5 83.5t-74.5 28.5t-73.5 -28zM286 642l-61 -76h-128l114 146h149l114 -146h-128z" />
    <glyph glyph-name="edieresis" unicode="&#xeb;" horiz-adv-x="573" 
d="M356 102.5q27 19.5 32 51.5h143q-10 -47 -42.5 -86t-84 -61.5t-116.5 -22.5q-79 0 -136 34.5t-87 96.5t-30 143q0 76 30 136t87 95t135 35q87 0 149 -45.5t86 -123.5q16 -51 16 -130h-365q3 -74 34.5 -108t80.5 -34q41 0 68 19.5zM213.5 397q-29.5 -28 -37.5 -84h222
q-6 55 -36.5 83.5t-74.5 28.5t-73.5 -28zM116 592v120h123v-120h-123zM333 592v120h123v-120h-123z" />
    <glyph glyph-name="igrave" unicode="&#xec;" horiz-adv-x="276" 
d="M68 0v508h140v-508h-140zM223 566h-110l-140 146h173z" />
    <glyph glyph-name="iacute" unicode="&#xed;" horiz-adv-x="276" 
d="M68 0v508h140v-508h-140zM53 566l77 146h173l-140 -146h-110z" />
    <glyph glyph-name="icircumflex" unicode="&#xee;" horiz-adv-x="276" 
d="M68 0v508h140v-508h-140zM191 567l-53 77l-53 -77h-121l103 145h141l103 -145h-120z" />
    <glyph glyph-name="idieresis" unicode="&#xef;" horiz-adv-x="276" 
d="M68 0v508h140v-508h-140zM-10 592v120h123v-120h-123zM163 592v120h123v-120h-123z" />
    <glyph glyph-name="eth" unicode="&#xf0;" horiz-adv-x="590" 
d="M533 398q22 -64 22 -138q0 -83 -31.5 -145.5t-89.5 -96.5t-137 -34t-138.5 32t-91.5 90.5t-32 137.5q0 80 27.5 139.5t78.5 92t119 32.5q40 0 74 -16v2q-33 41 -82 83l-127 -51l-24 60l95 38q-35 28 -63 47l110 57q45 -30 76 -55l127 51l24 -60l-96 -39q55 -50 91 -100
q46 -63 68 -127zM377.5 136q30.5 44 30.5 118t-30.5 118t-82.5 44t-82.5 -44t-30.5 -118t30.5 -118t82.5 -44t82.5 44z" />
    <glyph glyph-name="ntilde" unicode="&#xf1;" 
d="M487 466.5q50 -53.5 50 -154.5v-312h-140v298q0 56 -23.5 84t-65.5 28q-45 0 -72.5 -35.5t-27.5 -102.5v-272h-140v508h131v-64h2q26 35 64 55.5t85 20.5q87 0 137 -53.5zM457 613q-31 -36 -84 -36q-24 0 -42 7t-40 20q-18 10 -28.5 14.5t-23.5 4.5q-21 0 -32 -11
t-14 -35h-78q3 63 34 99t84 36q24 0 42.5 -7t40.5 -20q16 -9 27.5 -14t23.5 -5q21 0 32 11t14 35h78q-3 -63 -34 -99z" />
    <glyph glyph-name="ograve" unicode="&#xf2;" horiz-adv-x="590" 
d="M432.5 491q58.5 -33 90.5 -94t32 -143t-32 -143t-90.5 -94t-137.5 -33t-137.5 33t-90.5 94t-32 143t32 143t90.5 94t137.5 33t137.5 -33zM212.5 372q-30.5 -44 -30.5 -118t30.5 -118t82.5 -44t82.5 44t30.5 118t-30.5 118t-82.5 44t-82.5 -44zM380 566h-110l-140 146h173
z" />
    <glyph glyph-name="oacute" unicode="&#xf3;" horiz-adv-x="590" 
d="M432.5 491q58.5 -33 90.5 -94t32 -143t-32 -143t-90.5 -94t-137.5 -33t-137.5 33t-90.5 94t-32 143t32 143t90.5 94t137.5 33t137.5 -33zM212.5 372q-30.5 -44 -30.5 -118t30.5 -118t82.5 -44t82.5 44t30.5 118t-30.5 118t-82.5 44t-82.5 -44zM210 566l77 146h173
l-140 -146h-110z" />
    <glyph glyph-name="ocircumflex" unicode="&#xf4;" horiz-adv-x="590" 
d="M432.5 491q58.5 -33 90.5 -94t32 -143t-32 -143t-90.5 -94t-137.5 -33t-137.5 33t-90.5 94t-32 143t32 143t90.5 94t137.5 33t137.5 -33zM212.5 372q-30.5 -44 -30.5 -118t30.5 -118t82.5 -44t82.5 44t30.5 118t-30.5 118t-82.5 44t-82.5 -44zM295 642l-61 -76h-128
l114 146h149l114 -146h-128z" />
    <glyph glyph-name="otilde" unicode="&#xf5;" horiz-adv-x="590" 
d="M432.5 491q58.5 -33 90.5 -94t32 -143t-32 -143t-90.5 -94t-137.5 -33t-137.5 33t-90.5 94t-32 143t32 143t90.5 94t137.5 33t137.5 -33zM212.5 372q-30.5 -44 -30.5 -118t30.5 -118t82.5 -44t82.5 44t30.5 118t-30.5 118t-82.5 44t-82.5 -44zM449 613q-31 -36 -84 -36
q-24 0 -42 7t-40 20q-18 10 -28.5 14.5t-23.5 4.5q-21 0 -32 -11t-14 -35h-78q3 63 34 99t84 36q24 0 42.5 -7t40.5 -20q16 -9 27.5 -14t23.5 -5q21 0 32 11t14 35h78q-3 -63 -34 -99z" />
    <glyph glyph-name="odieresis" unicode="&#xf6;" horiz-adv-x="590" 
d="M432.5 491q58.5 -33 90.5 -94t32 -143t-32 -143t-90.5 -94t-137.5 -33t-137.5 33t-90.5 94t-32 143t32 143t90.5 94t137.5 33t137.5 -33zM212.5 372q-30.5 -44 -30.5 -118t30.5 -118t82.5 -44t82.5 44t30.5 118t-30.5 118t-82.5 44t-82.5 -44zM125 592v120h123v-120h-123
zM342 592v120h123v-120h-123z" />
    <glyph glyph-name="divide" unicode="&#xf7;" horiz-adv-x="566" 
d="M224 441v110h118v-110h-118zM64 262v109h438v-109h-438zM224 82v110h118v-110h-118z" />
    <glyph glyph-name="oslash" unicode="&#xf8;" horiz-adv-x="590" 
d="M555 254q0 -82 -32 -143t-90.5 -94t-137.5 -33q-78 0 -137 33l-51 -69l-53 39l52 69q-34 36 -52.5 86.5t-18.5 111.5q0 82 32 143t90.5 94t137.5 33q78 0 138 -33l52 69l52 -41l-52 -69q70 -73 70 -196zM207 376.5q-33 -45.5 -33 -122.5q0 -52 15 -88l174 232
q-29 24 -68 24q-55 0 -88 -45.5zM383.5 131.5q32.5 45.5 32.5 122.5q0 49 -14 86l-174 -231q28 -23 67 -23q56 0 88.5 45.5z" />
    <glyph glyph-name="ugrave" unicode="&#xf9;" 
d="M113 41.5q-50 53.5 -50 154.5v312h140v-298q0 -56 23.5 -84t65.5 -28q45 0 72.5 35.5t27.5 102.5v272h140v-508h-131v64h-2q-26 -35 -64 -55.5t-85 -20.5q-87 0 -137 53.5zM385 566h-110l-140 146h173z" />
    <glyph glyph-name="uacute" unicode="&#xfa;" 
d="M113 41.5q-50 53.5 -50 154.5v312h140v-298q0 -56 23.5 -84t65.5 -28q45 0 72.5 35.5t27.5 102.5v272h140v-508h-131v64h-2q-26 -35 -64 -55.5t-85 -20.5q-87 0 -137 53.5zM215 566l77 146h173l-140 -146h-110z" />
    <glyph glyph-name="ucircumflex" unicode="&#xfb;" 
d="M113 41.5q-50 53.5 -50 154.5v312h140v-298q0 -56 23.5 -84t65.5 -28q45 0 72.5 35.5t27.5 102.5v272h140v-508h-131v64h-2q-26 -35 -64 -55.5t-85 -20.5q-87 0 -137 53.5zM300 642l-61 -76h-128l114 146h149l114 -146h-128z" />
    <glyph glyph-name="udieresis" unicode="&#xfc;" 
d="M113 41.5q-50 53.5 -50 154.5v312h140v-298q0 -56 23.5 -84t65.5 -28q45 0 72.5 35.5t27.5 102.5v272h140v-508h-131v64h-2q-26 -35 -64 -55.5t-85 -20.5q-87 0 -137 53.5zM130 592v120h123v-120h-123zM347 592v120h123v-120h-123z" />
    <glyph glyph-name="yacute" unicode="&#xfd;" horiz-adv-x="504" 
d="M271.5 -115.5q-31.5 -40.5 -75.5 -58t-109 -17.5q-39 0 -73 8v112q22 -8 54 -8q42 0 67.5 22.5t25.5 59.5q0 14 -4.5 32t-19.5 60l-144 413h150l52 -170q32 -107 56 -213h2q30 123 59 213l55 170h144l-182 -511q-26 -72 -57.5 -112.5zM167 566l77 146h173l-140 -146h-110
z" />
    <glyph glyph-name="thorn" unicode="&#xfe;" horiz-adv-x="598" 
d="M210 447q23 35 60.5 54.5t81.5 19.5q63 0 111 -33t74 -93.5t26 -140.5t-25.5 -140.5t-73 -93.5t-110.5 -33q-44 0 -82.5 19.5t-61.5 54.5h-2v-246h-140v897h140v-265h2zM230 371.5q-29 -42.5 -29 -117.5t29 -117.5t77 -42.5q50 0 80 43.5t30 116.5t-30 116.5t-80 43.5
q-48 0 -77 -42.5z" />
    <glyph glyph-name="ydieresis" unicode="&#xff;" horiz-adv-x="504" 
d="M271.5 -115.5q-31.5 -40.5 -75.5 -58t-109 -17.5q-39 0 -73 8v112q22 -8 54 -8q42 0 67.5 22.5t25.5 59.5q0 14 -4.5 32t-19.5 60l-144 413h150l52 -170q32 -107 56 -213h2q30 123 59 213l55 170h144l-182 -511q-26 -72 -57.5 -112.5zM82 592v120h123v-120h-123zM299 592
v120h123v-120h-123z" />
    <glyph glyph-name="Amacron" unicode="&#x100;" horiz-adv-x="698" 
d="M213 174l-56 -174h-154l247 712h198l247 -712h-154l-55 174h-273zM431 347q-49 156 -81 278h-2q-37 -140 -80 -278l-15 -47h193zM186 778v91h326v-91h-326z" />
    <glyph glyph-name="amacron" unicode="&#x101;" horiz-adv-x="547" 
d="M430 473.5q55 -50.5 55 -150.5v-184q0 -86 14 -139h-126q-7 29 -7 68h-2q-56 -80 -165 -80q-79 0 -126 43.5t-47 110.5q0 65 45.5 105t151.5 57q64 10 127 14v18q0 46 -22 68t-61 22t-60.5 -20.5t-23.5 -56.5h-136q4 77 60 126t160 49q108 0 163 -50.5zM248 222
q-44 -8 -63 -24t-19 -46q0 -29 19.5 -46.5t55.5 -17.5q23 0 44.5 7.5t35.5 21.5q17 17 23 38.5t6 58.5v19q-60 -4 -102 -11zM98 598v91h326v-91h-326z" />
    <glyph glyph-name="Abreve" unicode="&#x102;" horiz-adv-x="698" 
d="M213 174l-56 -174h-154l247 712h198l247 -712h-154l-55 174h-273zM431 347q-49 156 -81 278h-2q-37 -140 -80 -278l-15 -47h193zM473.5 794.5q-46.5 -39.5 -124.5 -39.5t-124.5 39.5t-50.5 111.5h95q2 -30 23.5 -47t56.5 -17t56.5 17t23.5 47h95q-4 -72 -50.5 -111.5z
" />
    <glyph glyph-name="abreve" unicode="&#x103;" horiz-adv-x="547" 
d="M430 473.5q55 -50.5 55 -150.5v-184q0 -86 14 -139h-126q-7 29 -7 68h-2q-56 -80 -165 -80q-79 0 -126 43.5t-47 110.5q0 65 45.5 105t151.5 57q64 10 127 14v18q0 46 -22 68t-61 22t-60.5 -20.5t-23.5 -56.5h-136q4 77 60 126t160 49q108 0 163 -50.5zM248 222
q-44 -8 -63 -24t-19 -46q0 -29 19.5 -46.5t55.5 -17.5q23 0 44.5 7.5t35.5 21.5q17 17 23 38.5t6 58.5v19q-60 -4 -102 -11zM385.5 600.5q-46.5 -39.5 -124.5 -39.5t-124.5 39.5t-50.5 111.5h95q2 -30 23.5 -47t56.5 -17t56.5 17t23.5 47h95q-4 -72 -50.5 -111.5z" />
    <glyph glyph-name="Aogonek" unicode="&#x104;" horiz-adv-x="698" 
d="M213 174l-56 -174h-154l247 712h198l247 -712h-154l-55 174h-273zM431 347q-49 156 -81 278h-2q-37 -140 -80 -278l-15 -47h193zM642 -46.5q-15 -20.5 -15 -41.5q0 -31 35 -31q21 0 36 6v-71q-33 -13 -78 -13q-56 0 -84.5 23t-28.5 64q0 32 19 57.5t59 52.5h110
q-38 -26 -53 -46.5z" />
    <glyph glyph-name="aogonek" unicode="&#x105;" horiz-adv-x="547" 
d="M502 -113v-71q-32 -13 -78 -13q-56 0 -84.5 23t-28.5 64q0 32 19 57.5t59 52.5h-16q-7 29 -7 68h-2q-56 -80 -165 -80q-79 0 -126 43.5t-47 110.5q0 65 45.5 105t151.5 57q64 10 127 14v18q0 46 -22 68t-61 22t-60.5 -20.5t-23.5 -56.5h-136q4 77 60 126t160 49
q108 0 163 -50.5t55 -150.5v-184q0 -86 14 -139q-38 -26 -53 -46.5t-15 -41.5q0 -31 35 -31q21 0 36 6zM248 222q-44 -8 -63 -24t-19 -46q0 -29 19.5 -46.5t55.5 -17.5q23 0 44.5 7.5t35.5 21.5q17 17 23 38.5t6 58.5v19q-60 -4 -102 -11z" />
    <glyph glyph-name="Cacute" unicode="&#x106;" horiz-adv-x="701" 
d="M515.5 695q65.5 -33 102.5 -93t40 -137h-148q-7 62 -46 97.5t-101 35.5q-81 0 -127.5 -64.5t-46.5 -177.5t45.5 -177.5t125.5 -64.5q63 0 102.5 35.5t47.5 100.5h151q-10 -126 -90 -196t-211 -70q-99 0 -172 45t-112 128.5t-39 198.5q0 114 39.5 198t113 129t173.5 45
q87 0 152.5 -33zM278 760l77 146h173l-140 -146h-110z" />
    <glyph glyph-name="cacute" unicode="&#x107;" horiz-adv-x="562" 
d="M410.5 498q52.5 -26 84 -73t36.5 -106h-146q-4 45 -29.5 71t-65.5 26q-51 0 -80 -43.5t-29 -118.5t29 -118.5t80 -43.5q40 0 65.5 28.5t28.5 78.5h147q-8 -97 -73 -156t-167 -59q-77 0 -135 33.5t-89.5 94.5t-31.5 142t31.5 142t89.5 94.5t135 33.5q67 0 119.5 -26z
M206 566l77 146h173l-140 -146h-110z" />
    <glyph glyph-name="Ccircumflex" unicode="&#x108;" horiz-adv-x="701" 
d="M515.5 695q65.5 -33 102.5 -93t40 -137h-148q-7 62 -46 97.5t-101 35.5q-81 0 -127.5 -64.5t-46.5 -177.5t45.5 -177.5t125.5 -64.5q63 0 102.5 35.5t47.5 100.5h151q-10 -126 -90 -196t-211 -70q-99 0 -172 45t-112 128.5t-39 198.5q0 114 39.5 198t113 129t173.5 45
q87 0 152.5 -33zM437 906l114 -146h-128l-61 76l-60 -76h-128l114 146h149z" />
    <glyph glyph-name="ccircumflex" unicode="&#x109;" horiz-adv-x="562" 
d="M410.5 498q52.5 -26 84 -73t36.5 -106h-146q-4 45 -29.5 71t-65.5 26q-51 0 -80 -43.5t-29 -118.5t29 -118.5t80 -43.5q40 0 65.5 28.5t28.5 78.5h147q-8 -97 -73 -156t-167 -59q-77 0 -135 33.5t-89.5 94.5t-31.5 142t31.5 142t89.5 94.5t135 33.5q67 0 119.5 -26z
M291 642l-61 -76h-128l114 146h149l114 -146h-128z" />
    <glyph glyph-name="Cdotaccent" unicode="&#x10a;" horiz-adv-x="701" 
d="M515.5 695q65.5 -33 102.5 -93t40 -137h-148q-7 62 -46 97.5t-101 35.5q-81 0 -127.5 -64.5t-46.5 -177.5t45.5 -177.5t125.5 -64.5q63 0 102.5 35.5t47.5 100.5h151q-10 -126 -90 -196t-211 -70q-99 0 -172 45t-112 128.5t-39 198.5q0 114 39.5 198t113 129t173.5 45
q87 0 152.5 -33zM293 769v120h140v-120h-140z" />
    <glyph glyph-name="cdotaccent" unicode="&#x10b;" horiz-adv-x="562" 
d="M410.5 498q52.5 -26 84 -73t36.5 -106h-146q-4 45 -29.5 71t-65.5 26q-51 0 -80 -43.5t-29 -118.5t29 -118.5t80 -43.5q40 0 65.5 28.5t28.5 78.5h147q-8 -97 -73 -156t-167 -59q-77 0 -135 33.5t-89.5 94.5t-31.5 142t31.5 142t89.5 94.5t135 33.5q67 0 119.5 -26z
M221 592v120h140v-120h-140z" />
    <glyph glyph-name="Ccaron" unicode="&#x10c;" horiz-adv-x="701" 
d="M515.5 695q65.5 -33 102.5 -93t40 -137h-148q-7 62 -46 97.5t-101 35.5q-81 0 -127.5 -64.5t-46.5 -177.5t45.5 -177.5t125.5 -64.5q63 0 102.5 35.5t47.5 100.5h151q-10 -126 -90 -196t-211 -70q-99 0 -172 45t-112 128.5t-39 198.5q0 114 39.5 198t113 129t173.5 45
q87 0 152.5 -33zM288 760l-114 146h128l61 -76l60 76h128l-114 -146h-149z" />
    <glyph glyph-name="ccaron" unicode="&#x10d;" horiz-adv-x="562" 
d="M410.5 498q52.5 -26 84 -73t36.5 -106h-146q-4 45 -29.5 71t-65.5 26q-51 0 -80 -43.5t-29 -118.5t29 -118.5t80 -43.5q40 0 65.5 28.5t28.5 78.5h147q-8 -97 -73 -156t-167 -59q-77 0 -135 33.5t-89.5 94.5t-31.5 142t31.5 142t89.5 94.5t135 33.5q67 0 119.5 -26z
M216 566l-114 146h128l61 -76l60 76h128l-114 -146h-149z" />
    <glyph glyph-name="Dcaron" unicode="&#x10e;" horiz-adv-x="734" 
d="M599 619.5q98 -92.5 98 -263.5t-98 -263.5t-280 -92.5h-237v712h237q182 0 280 -92.5zM228 126h89q115 0 171.5 57t56.5 173t-56.5 173t-171.5 57h-89v-460zM259 760l-114 146h128l61 -76l60 76h128l-114 -146h-149z" />
    <glyph glyph-name="dcaron" unicode="&#x10f;" horiz-adv-x="598" 
d="M394 0v67h-2q-23 -38 -62 -59t-84 -21q-63 0 -111 33t-74 93.5t-26 140.5t25.5 140.5t73 93.5t110.5 33q44 0 82.5 -19.5t61.5 -54.5h2v265h140v-712h-136zM211 370.5q-30 -43.5 -30 -116.5t30 -116.5t80 -43.5q48 0 77 42.5t29 117.5t-29 117.5t-77 42.5
q-50 0 -80 -43.5zM558 535l26 177h111l-58 -177h-79z" />
    <glyph glyph-name="Dcroat" unicode="&#x110;" horiz-adv-x="734" 
d="M599 619.5q98 -92.5 98 -263.5t-98 -263.5t-280 -92.5h-237v307h-64v106h64v299h237q182 0 280 -92.5zM488.5 183q56.5 57 56.5 173t-56.5 173t-171.5 57h-89v-173h166v-106h-166v-181h89q115 0 171.5 57z" />
    <glyph glyph-name="dcroat" unicode="&#x111;" horiz-adv-x="590" 
d="M530 576v-576h-136v67h-2q-23 -38 -62 -59t-84 -21q-63 0 -111 33t-74 93.5t-26 140.5t25.5 140.5t73 93.5t110.5 33q44 0 82.5 -19.5t61.5 -54.5h2v129h-120v72h120v64h140v-64h66v-72h-66zM368 136.5q29 42.5 29 117.5t-29 117.5t-77 42.5q-50 0 -80 -43.5t-30 -116.5
t30 -116.5t80 -43.5q48 0 77 42.5z" />
    <glyph glyph-name="Emacron" unicode="&#x112;" horiz-adv-x="633" 
d="M229 586v-161h322v-125h-322v-174h354v-126h-501v712h492v-126h-345zM165 778v91h326v-91h-326z" />
    <glyph glyph-name="emacron" unicode="&#x113;" horiz-adv-x="573" 
d="M356 102.5q27 19.5 32 51.5h143q-10 -47 -42.5 -86t-84 -61.5t-116.5 -22.5q-79 0 -136 34.5t-87 96.5t-30 143q0 76 30 136t87 95t135 35q87 0 149 -45.5t86 -123.5q16 -51 16 -130h-365q3 -74 34.5 -108t80.5 -34q41 0 68 19.5zM213.5 397q-29.5 -28 -37.5 -84h222
q-6 55 -36.5 83.5t-74.5 28.5t-73.5 -28zM123 598v91h326v-91h-326z" />
    <glyph glyph-name="Ebreve" unicode="&#x114;" horiz-adv-x="633" 
d="M229 586v-161h322v-125h-322v-174h354v-126h-501v712h492v-126h-345zM452.5 794.5q-46.5 -39.5 -124.5 -39.5t-124.5 39.5t-50.5 111.5h95q2 -30 23.5 -47t56.5 -17t56.5 17t23.5 47h95q-4 -72 -50.5 -111.5z" />
    <glyph glyph-name="ebreve" unicode="&#x115;" horiz-adv-x="573" 
d="M356 102.5q27 19.5 32 51.5h143q-10 -47 -42.5 -86t-84 -61.5t-116.5 -22.5q-79 0 -136 34.5t-87 96.5t-30 143q0 76 30 136t87 95t135 35q87 0 149 -45.5t86 -123.5q16 -51 16 -130h-365q3 -74 34.5 -108t80.5 -34q41 0 68 19.5zM213.5 397q-29.5 -28 -37.5 -84h222
q-6 55 -36.5 83.5t-74.5 28.5t-73.5 -28zM410.5 600.5q-46.5 -39.5 -124.5 -39.5t-124.5 39.5t-50.5 111.5h95q2 -30 23.5 -47t56.5 -17t56.5 17t23.5 47h95q-4 -72 -50.5 -111.5z" />
    <glyph glyph-name="Edotaccent" unicode="&#x116;" horiz-adv-x="633" 
d="M229 586v-161h322v-125h-322v-174h354v-126h-501v712h492v-126h-345zM258 769v120h140v-120h-140z" />
    <glyph glyph-name="edotaccent" unicode="&#x117;" horiz-adv-x="573" 
d="M356 102.5q27 19.5 32 51.5h143q-10 -47 -42.5 -86t-84 -61.5t-116.5 -22.5q-79 0 -136 34.5t-87 96.5t-30 143q0 76 30 136t87 95t135 35q87 0 149 -45.5t86 -123.5q16 -51 16 -130h-365q3 -74 34.5 -108t80.5 -34q41 0 68 19.5zM213.5 397q-29.5 -28 -37.5 -84h222
q-6 55 -36.5 83.5t-74.5 28.5t-73.5 -28zM216 592v120h140v-120h-140z" />
    <glyph glyph-name="Eogonek" unicode="&#x118;" horiz-adv-x="633" 
d="M229 586v-161h322v-125h-322v-174h354v-126h-501v712h492v-126h-345zM530 -46.5q-15 -20.5 -15 -41.5q0 -31 35 -31q21 0 36 6v-71q-33 -13 -78 -13q-56 0 -84.5 23t-28.5 64q0 32 19 57.5t59 52.5h110q-38 -26 -53 -46.5z" />
    <glyph glyph-name="eogonek" unicode="&#x119;" horiz-adv-x="573" 
d="M400 -35q-15 -24 -15 -48q0 -36 35 -36q21 0 36 6v-71q-32 -13 -78 -13q-56 0 -84.5 23t-28.5 64q0 53 55 94v2q-18 -2 -32 -2q-79 0 -136 34.5t-87 96.5t-30 143q0 76 30 136t87 95t135 35q87 0 149 -45.5t86 -123.5q16 -51 16 -130h-365q3 -74 34.5 -108t80.5 -34
q41 0 68 19.5t32 51.5h143q-13 -64 -80 -130q-36 -35 -51 -59zM213.5 397q-29.5 -28 -37.5 -84h222q-6 55 -36.5 83.5t-74.5 28.5t-73.5 -28z" />
    <glyph glyph-name="Ecaron" unicode="&#x11a;" horiz-adv-x="633" 
d="M229 586v-161h322v-125h-322v-174h354v-126h-501v712h492v-126h-345zM253 760l-114 146h128l61 -76l60 76h128l-114 -146h-149z" />
    <glyph glyph-name="ecaron" unicode="&#x11b;" horiz-adv-x="573" 
d="M356 102.5q27 19.5 32 51.5h143q-10 -47 -42.5 -86t-84 -61.5t-116.5 -22.5q-79 0 -136 34.5t-87 96.5t-30 143q0 76 30 136t87 95t135 35q87 0 149 -45.5t86 -123.5q16 -51 16 -130h-365q3 -74 34.5 -108t80.5 -34q41 0 68 19.5zM213.5 397q-29.5 -28 -37.5 -84h222
q-6 55 -36.5 83.5t-74.5 28.5t-73.5 -28zM211 566l-114 146h128l61 -76l60 76h128l-114 -146h-149z" />
    <glyph glyph-name="Gcircumflex" unicode="&#x11c;" horiz-adv-x="744" 
d="M583 664.5q78 -63.5 89 -174.5h-158q-10 53 -45 80.5t-94 27.5q-86 0 -136 -65.5t-50 -179.5q0 -117 49 -184t134 -67q77 0 118 43.5t42 125.5h-169v120h306v-391h-124v77h-2q-31 -43 -84.5 -67t-123.5 -24q-91 0 -158 44.5t-103.5 127t-36.5 195.5q0 115 41 200
t117.5 130t179.5 45q130 0 208 -63.5zM441 906l114 -146h-128l-61 76l-60 -76h-128l114 146h149z" />
    <glyph glyph-name="gcircumflex" unicode="&#x11d;" horiz-adv-x="591" 
d="M326 502.5q34 -19.5 63 -62.5h2v68h132v-476q0 -112 -64 -169t-177 -57q-103 0 -161 43t-64 119h140q2 -29 25 -45.5t63 -16.5q50 0 76 30t26 101v45h-2q-28 -40 -62 -58t-80 -18q-63 0 -110 31.5t-72.5 90t-25.5 136.5t26 136.5t73.5 90t110.5 31.5q47 0 81 -19.5z
M208.5 368.5q-27.5 -38.5 -27.5 -104.5t27.5 -104.5t74.5 -38.5q49 0 78.5 39t29.5 104t-29.5 104t-78.5 39q-47 0 -74.5 -38.5zM277 642l-61 -76h-128l114 146h149l114 -146h-128z" />
    <glyph glyph-name="Gbreve" unicode="&#x11e;" horiz-adv-x="744" 
d="M583 664.5q78 -63.5 89 -174.5h-158q-10 53 -45 80.5t-94 27.5q-86 0 -136 -65.5t-50 -179.5q0 -117 49 -184t134 -67q77 0 118 43.5t42 125.5h-169v120h306v-391h-124v77h-2q-31 -43 -84.5 -67t-123.5 -24q-91 0 -158 44.5t-103.5 127t-36.5 195.5q0 115 41 200
t117.5 130t179.5 45q130 0 208 -63.5zM491.5 794.5q-46.5 -39.5 -124.5 -39.5t-124.5 39.5t-50.5 111.5h95q2 -30 23.5 -47t56.5 -17t56.5 17t23.5 47h95q-4 -72 -50.5 -111.5z" />
    <glyph glyph-name="gbreve" unicode="&#x11f;" horiz-adv-x="591" 
d="M326 502.5q34 -19.5 63 -62.5h2v68h132v-476q0 -112 -64 -169t-177 -57q-103 0 -161 43t-64 119h140q2 -29 25 -45.5t63 -16.5q50 0 76 30t26 101v45h-2q-28 -40 -62 -58t-80 -18q-63 0 -110 31.5t-72.5 90t-25.5 136.5t26 136.5t73.5 90t110.5 31.5q47 0 81 -19.5z
M208.5 368.5q-27.5 -38.5 -27.5 -104.5t27.5 -104.5t74.5 -38.5q49 0 78.5 39t29.5 104t-29.5 104t-78.5 39q-47 0 -74.5 -38.5zM401.5 600.5q-46.5 -39.5 -124.5 -39.5t-124.5 39.5t-50.5 111.5h95q2 -30 23.5 -47t56.5 -17t56.5 17t23.5 47h95q-4 -72 -50.5 -111.5z" />
    <glyph glyph-name="Gdotaccent" unicode="&#x120;" horiz-adv-x="744" 
d="M583 664.5q78 -63.5 89 -174.5h-158q-10 53 -45 80.5t-94 27.5q-86 0 -136 -65.5t-50 -179.5q0 -117 49 -184t134 -67q77 0 118 43.5t42 125.5h-169v120h306v-391h-124v77h-2q-31 -43 -84.5 -67t-123.5 -24q-91 0 -158 44.5t-103.5 127t-36.5 195.5q0 115 41 200
t117.5 130t179.5 45q130 0 208 -63.5zM297 769v120h140v-120h-140z" />
    <glyph glyph-name="gdotaccent" unicode="&#x121;" horiz-adv-x="591" 
d="M326 502.5q34 -19.5 63 -62.5h2v68h132v-476q0 -112 -64 -169t-177 -57q-103 0 -161 43t-64 119h140q2 -29 25 -45.5t63 -16.5q50 0 76 30t26 101v45h-2q-28 -40 -62 -58t-80 -18q-63 0 -110 31.5t-72.5 90t-25.5 136.5t26 136.5t73.5 90t110.5 31.5q47 0 81 -19.5z
M208.5 368.5q-27.5 -38.5 -27.5 -104.5t27.5 -104.5t74.5 -38.5q49 0 78.5 39t29.5 104t-29.5 104t-78.5 39q-47 0 -74.5 -38.5zM207 592v120h140v-120h-140z" />
    <glyph glyph-name="Gcommaaccent" unicode="&#x122;" horiz-adv-x="744" 
d="M583 664.5q78 -63.5 89 -174.5h-158q-10 53 -45 80.5t-94 27.5q-86 0 -136 -65.5t-50 -179.5q0 -117 49 -184t134 -67q77 0 118 43.5t42 125.5h-169v120h306v-391h-124v77h-2q-31 -43 -84.5 -67t-123.5 -24q-91 0 -158 44.5t-103.5 127t-36.5 195.5q0 115 41 200
t117.5 130t179.5 45q130 0 208 -63.5zM360 -270h-56l45 107h-45v104h124v-104z" />
    <glyph glyph-name="gcommaaccent" unicode="&#x123;" horiz-adv-x="591" 
d="M326 502.5q34 -19.5 63 -62.5h2v68h132v-476q0 -112 -64 -169t-177 -57q-103 0 -161 43t-64 119h140q2 -29 25 -45.5t63 -16.5q50 0 76 30t26 101v45h-2q-28 -40 -62 -58t-80 -18q-63 0 -110 31.5t-72.5 90t-25.5 136.5t26 136.5t73.5 90t110.5 31.5q47 0 81 -19.5z
M208.5 368.5q-27.5 -38.5 -27.5 -104.5t27.5 -104.5t74.5 -38.5q49 0 78.5 39t29.5 104t-29.5 104t-78.5 39q-47 0 -74.5 -38.5zM339 681v-104h-124v104l68 107h56l-45 -107h45z" />
    <glyph glyph-name="Hcircumflex" unicode="&#x124;" horiz-adv-x="750" 
d="M521 0v307h-292v-307h-147v712h147v-279h292v279h147v-712h-147zM449 906l114 -146h-128l-61 76l-60 -76h-128l114 146h149z" />
    <glyph glyph-name="hcircumflex" unicode="&#x125;" 
d="M210 452q26 34 62.5 51t77.5 17q87 0 137 -53.5t50 -154.5v-312h-140v298q0 56 -23.5 84t-65.5 28q-45 0 -72.5 -35.5t-27.5 -102.5v-272h-140v712h140v-260h2zM373 906l114 -146h-128l-61 76l-60 -76h-128l114 146h149z" />
    <glyph glyph-name="Hbar" unicode="&#x126;" horiz-adv-x="750" 
d="M668 568v-568h-147v307h-292v-307h-147v568h-55v72h55v72h147v-72h292v72h147v-72h55v-72h-55zM229 568v-135h292v135h-292z" />
    <glyph glyph-name="hbar" unicode="&#x127;" 
d="M487 466.5q50 -53.5 50 -154.5v-312h-140v298q0 56 -23.5 84t-65.5 28q-45 0 -72.5 -35.5t-27.5 -102.5v-272h-140v576h-74v64h74v72h140v-72h112v-64h-112v-124h2q26 34 62.5 51t77.5 17q87 0 137 -53.5z" />
    <glyph glyph-name="Itilde" unicode="&#x128;" horiz-adv-x="311" 
d="M82 0v712h147v-712h-147zM310 807q-31 -36 -84 -36q-24 0 -42 7t-40 20q-18 10 -28.5 14.5t-23.5 4.5q-21 0 -32 -11t-14 -35h-78q3 63 34 99t84 36q24 0 42.5 -7t40.5 -20q16 -9 27.5 -14t23.5 -5q21 0 32 11t14 35h78q-3 -63 -34 -99z" />
    <glyph glyph-name="itilde" unicode="&#x129;" horiz-adv-x="276" 
d="M68 0v508h140v-508h-140zM273 613q-28 -36 -77 -36q-22 0 -37 7t-34 21q-17 11 -25.5 15.5t-19.5 4.5q-19 0 -28.5 -12t-11.5 -36h-67q3 64 30.5 99.5t76.5 35.5q22 0 37.5 -7.5t34.5 -20.5q14 -10 23.5 -15t20.5 -5q19 0 28.5 11.5t11.5 36.5h68q-3 -63 -31 -99z" />
    <glyph glyph-name="Imacron" unicode="&#x12a;" horiz-adv-x="311" 
d="M82 0v712h147v-712h-147zM-7 778v91h326v-91h-326z" />
    <glyph glyph-name="imacron" unicode="&#x12b;" horiz-adv-x="276" 
d="M68 0v508h140v-508h-140zM-5 603v91h286v-91h-286z" />
    <glyph glyph-name="Ibreve" unicode="&#x12c;" horiz-adv-x="311" 
d="M82 0v712h147v-712h-147zM280.5 794.5q-46.5 -39.5 -124.5 -39.5t-124.5 39.5t-50.5 111.5h95q2 -30 23.5 -47t56.5 -17t56.5 17t23.5 47h95q-4 -72 -50.5 -111.5z" />
    <glyph glyph-name="ibreve" unicode="&#x12d;" horiz-adv-x="276" 
d="M68 0v508h140v-508h-140zM251.5 601q-41.5 -40 -113.5 -40t-113.5 39.5t-45.5 111.5h88q2 -32 21 -50t50 -18t50 18t21 50h88q-4 -71 -45.5 -111z" />
    <glyph glyph-name="Iogonek" unicode="&#x12e;" horiz-adv-x="311" 
d="M82 0v712h147v-712h-147zM176 -46.5q-15 -20.5 -15 -41.5q0 -31 35 -31q21 0 36 6v-71q-33 -13 -78 -13q-56 0 -84.5 23t-28.5 64q0 32 19 57.5t59 52.5h110q-38 -26 -53 -46.5z" />
    <glyph glyph-name="iogonek" unicode="&#x12f;" horiz-adv-x="276" 
d="M68 592v120h140v-120h-140zM211 -113v-71q-33 -13 -78 -13q-56 0 -84.5 23t-28.5 64q0 32 19 57.5t59 52.5h-30v508h140v-508q-38 -26 -53 -46.5t-15 -41.5q0 -31 35 -31q21 0 36 6z" />
    <glyph glyph-name="Idotaccent" unicode="&#x130;" horiz-adv-x="311" 
d="M82 0v712h147v-712h-147zM86 769v120h140v-120h-140z" />
    <glyph glyph-name="dotlessi" unicode="&#x131;" horiz-adv-x="276" 
d="M68 0v508h140v-508h-140z" />
    <glyph glyph-name="IJ" unicode="&#x132;" horiz-adv-x="703" 
d="M82 0v712h147v-712h-147zM569.5 49.5q-56.5 -56.5 -178.5 -56.5q-38 0 -65 8v125q27 -5 47 -5q38 0 60.5 11.5t34 41t11.5 84.5v454h147v-485q0 -121 -56.5 -177.5z" />
    <glyph glyph-name="ij" unicode="&#x133;" horiz-adv-x="554" 
d="M68 592v120h140v-120h-140zM346 592v120h140v-120h-140zM68 0v508h140v-508h-140zM439.5 -146.5q-46.5 -43.5 -126.5 -43.5q-37 0 -69 8v101q12 -3 27 -3q39 0 57 20.5t18 73.5v498h140v-519q0 -92 -46.5 -135.5z" />
    <glyph glyph-name="Jcircumflex" unicode="&#x134;" horiz-adv-x="392" 
d="M258.5 49.5q-56.5 -56.5 -178.5 -56.5q-38 0 -65 8v125q27 -5 47 -5q38 0 60.5 11.5t34 41t11.5 84.5v454h147v-485q0 -121 -56.5 -177.5zM316 906l114 -146h-128l-61 76l-60 -76h-128l114 146h149z" />
    <glyph glyph-name="jcircumflex" unicode="&#x135;" horiz-adv-x="278" 
d="M163.5 -146.5q-46.5 -43.5 -126.5 -43.5q-37 0 -69 8v101q12 -3 27 -3q39 0 57 20.5t18 73.5v498h140v-519q0 -92 -46.5 -135.5zM193 567l-53 77l-53 -77h-121l103 145h141l103 -145h-120z" />
    <glyph glyph-name="Kcommaaccent" unicode="&#x136;" horiz-adv-x="663" 
d="M659 0h-187l-241 336h-2v-336h-147v712h147v-313h2l233 313h172l-271 -338zM326 -270h-56l45 107h-45v104h124v-104z" />
    <glyph glyph-name="kcommaaccent" unicode="&#x137;" horiz-adv-x="543" 
d="M380 0l-170 238h-2v-238h-140v712h140v-409h2l164 205h158l-193 -234l214 -274h-173zM285 -270h-56l45 107h-45v104h124v-104z" />
    <glyph glyph-name="kgreenlandic" unicode="&#x138;" horiz-adv-x="560" 
d="M380 0l-170 238h-2v-238h-140v508h140v-205h2l164 205h158l-193 -234l214 -274h-173z" />
    <glyph glyph-name="Lacute" unicode="&#x139;" horiz-adv-x="575" 
d="M565 126v-126h-483v712h147v-586h336zM100 760l77 146h173l-140 -146h-110z" />
    <glyph glyph-name="lacute" unicode="&#x13a;" horiz-adv-x="276" 
d="M68 0v712h140v-712h-140zM68 770l77 146h173l-140 -146h-110z" />
    <glyph glyph-name="Lcommaaccent" unicode="&#x13b;" horiz-adv-x="575" 
d="M565 126v-126h-483v712h147v-586h336zM318 -270h-56l45 107h-45v104h124v-104z" />
    <glyph glyph-name="lcommaaccent" unicode="&#x13c;" horiz-adv-x="276" 
d="M68 0v712h140v-712h-140zM132 -270h-56l45 107h-45v104h124v-104z" />
    <glyph glyph-name="Lcaron" unicode="&#x13d;" horiz-adv-x="575" 
d="M565 126v-126h-483v712h147v-586h336zM269 488l26 224h111l-58 -224h-79z" />
    <glyph glyph-name="lcaron" unicode="&#x13e;" horiz-adv-x="276" 
d="M68 0v712h140v-712h-140zM236 535l26 177h111l-58 -177h-79z" />
    <glyph glyph-name="Ldot" unicode="&#x13f;" horiz-adv-x="655" 
d="M565 126v-126h-483v712h147v-586h336zM399 348v167h154v-167h-154z" />
    <glyph glyph-name="ldot" unicode="&#x140;" horiz-adv-x="484" 
d="M68 0v712h140v-712h-140zM303 272v167h154v-167h-154z" />
    <glyph glyph-name="Lslash" unicode="&#x141;" horiz-adv-x="575" 
d="M565 0h-483v280l-69 -41v122l69 41v310h147v-232l139 83v-122l-139 -83v-232h336v-126z" />
    <glyph glyph-name="lslash" unicode="&#x142;" horiz-adv-x="332" 
d="M236 345v-345h-140v279l-86 -51v116l86 51v317h140v-251l86 51v-116z" />
    <glyph glyph-name="Nacute" unicode="&#x143;" horiz-adv-x="776" 
d="M485 0l-138 289q-76 161 -130 294h-2q8 -165 8 -309v-274h-141v712h209l138 -289q76 -161 130 -294h2q-8 165 -8 309v274h141v-712h-209zM303 760l77 146h173l-140 -146h-110z" />
    <glyph glyph-name="nacute" unicode="&#x144;" 
d="M487 466.5q50 -53.5 50 -154.5v-312h-140v298q0 56 -23.5 84t-65.5 28q-45 0 -72.5 -35.5t-27.5 -102.5v-272h-140v508h131v-64h2q26 35 64 55.5t85 20.5q87 0 137 -53.5zM218 566l77 146h173l-140 -146h-110z" />
    <glyph glyph-name="Ncommaaccent" unicode="&#x145;" horiz-adv-x="776" 
d="M485 0l-138 289q-76 161 -130 294h-2q8 -165 8 -309v-274h-141v712h209l138 -289q76 -161 130 -294h2q-8 165 -8 309v274h141v-712h-209zM382 -270h-56l45 107h-45v104h124v-104z" />
    <glyph glyph-name="ncommaaccent" unicode="&#x146;" 
d="M487 466.5q50 -53.5 50 -154.5v-312h-140v298q0 56 -23.5 84t-65.5 28q-45 0 -72.5 -35.5t-27.5 -102.5v-272h-140v508h131v-64h2q26 35 64 55.5t85 20.5q87 0 137 -53.5zM297 -270h-56l45 107h-45v104h124v-104z" />
    <glyph glyph-name="Ncaron" unicode="&#x147;" horiz-adv-x="776" 
d="M485 0l-138 289q-76 161 -130 294h-2q8 -165 8 -309v-274h-141v712h209l138 -289q76 -161 130 -294h2q-8 165 -8 309v274h141v-712h-209zM313 760l-114 146h128l61 -76l60 76h128l-114 -146h-149z" />
    <glyph glyph-name="ncaron" unicode="&#x148;" 
d="M487 466.5q50 -53.5 50 -154.5v-312h-140v298q0 56 -23.5 84t-65.5 28q-45 0 -72.5 -35.5t-27.5 -102.5v-272h-140v508h131v-64h2q26 35 64 55.5t85 20.5q87 0 137 -53.5zM228 566l-114 146h128l61 -76l60 76h128l-114 -146h-149z" />
    <glyph glyph-name="napostrophe" unicode="&#x149;" horiz-adv-x="750" 
d="M129 424h-71l47 146h-44v142h131v-142zM637 466.5q50 -53.5 50 -154.5v-312h-140v298q0 56 -23.5 84t-65.5 28q-45 0 -72.5 -35.5t-27.5 -102.5v-272h-140v508h131v-64h2q26 35 64 55.5t85 20.5q87 0 137 -53.5z" />
    <glyph glyph-name="Eng" unicode="&#x14a;" horiz-adv-x="746" 
d="M617.5 -149.5q-46.5 -43.5 -126.5 -43.5q-37 0 -69 8v101q14 -3 30 -3q34 0 51.5 15.5t17.5 49.5q0 18 -7 34.5t-35 65.5l-139 241q-69 121 -123 236h-2q8 -113 8 -254v-301h-141v712h183l141 -246q69 -121 123 -236h2q-8 113 -8 254v228h141v-726q0 -92 -46.5 -135.5z
" />
    <glyph glyph-name="eng" unicode="&#x14b;" 
d="M484 473q28 -28 40.5 -68t12.5 -107v-308q0 -92 -46.5 -135.5t-126.5 -43.5q-37 0 -69 8v101q12 -3 27 -3q39 0 57 20.5t18 73.5v274q0 42 -6 64.5t-20 37.5q-23 24 -62 24q-45 0 -73 -35.5t-28 -102.5v-273h-140v508h132v-65h2q28 40 67.5 59t85.5 19q83 0 129 -48z" />
    <glyph glyph-name="Omacron" unicode="&#x14c;" horiz-adv-x="748" 
d="M554 683q76 -45 116.5 -128.5t40.5 -198.5t-40.5 -198.5t-116.5 -128.5t-180 -45t-180 45t-116.5 128.5t-40.5 198.5t40.5 198.5t116.5 128.5t180 45t180 -45zM238.5 533.5q-49.5 -64.5 -49.5 -177.5t49.5 -177.5t135.5 -64.5t135.5 64.5t49.5 177.5t-49.5 177.5
t-135.5 64.5t-135.5 -64.5zM211 778v91h326v-91h-326z" />
    <glyph glyph-name="omacron" unicode="&#x14d;" horiz-adv-x="590" 
d="M432.5 491q58.5 -33 90.5 -94t32 -143t-32 -143t-90.5 -94t-137.5 -33t-137.5 33t-90.5 94t-32 143t32 143t90.5 94t137.5 33t137.5 -33zM212.5 372q-30.5 -44 -30.5 -118t30.5 -118t82.5 -44t82.5 44t30.5 118t-30.5 118t-82.5 44t-82.5 -44zM132 598v91h326v-91h-326z
" />
    <glyph glyph-name="Obreve" unicode="&#x14e;" horiz-adv-x="748" 
d="M554 683q76 -45 116.5 -128.5t40.5 -198.5t-40.5 -198.5t-116.5 -128.5t-180 -45t-180 45t-116.5 128.5t-40.5 198.5t40.5 198.5t116.5 128.5t180 45t180 -45zM238.5 533.5q-49.5 -64.5 -49.5 -177.5t49.5 -177.5t135.5 -64.5t135.5 64.5t49.5 177.5t-49.5 177.5
t-135.5 64.5t-135.5 -64.5zM498.5 794.5q-46.5 -39.5 -124.5 -39.5t-124.5 39.5t-50.5 111.5h95q2 -30 23.5 -47t56.5 -17t56.5 17t23.5 47h95q-4 -72 -50.5 -111.5z" />
    <glyph glyph-name="obreve" unicode="&#x14f;" horiz-adv-x="590" 
d="M432.5 491q58.5 -33 90.5 -94t32 -143t-32 -143t-90.5 -94t-137.5 -33t-137.5 33t-90.5 94t-32 143t32 143t90.5 94t137.5 33t137.5 -33zM212.5 372q-30.5 -44 -30.5 -118t30.5 -118t82.5 -44t82.5 44t30.5 118t-30.5 118t-82.5 44t-82.5 -44zM419.5 600.5
q-46.5 -39.5 -124.5 -39.5t-124.5 39.5t-50.5 111.5h95q2 -30 23.5 -47t56.5 -17t56.5 17t23.5 47h95q-4 -72 -50.5 -111.5z" />
    <glyph glyph-name="Ohungarumlaut" unicode="&#x150;" horiz-adv-x="748" 
d="M554 683q76 -45 116.5 -128.5t40.5 -198.5t-40.5 -198.5t-116.5 -128.5t-180 -45t-180 45t-116.5 128.5t-40.5 198.5t40.5 198.5t116.5 128.5t180 45t180 -45zM238.5 533.5q-49.5 -64.5 -49.5 -177.5t49.5 -177.5t135.5 -64.5t135.5 64.5t49.5 177.5t-49.5 177.5
t-135.5 64.5t-135.5 -64.5zM181 760l97 146h153l-140 -146h-110zM371 760l97 146h153l-140 -146h-110z" />
    <glyph glyph-name="ohungarumlaut" unicode="&#x151;" horiz-adv-x="590" 
d="M432.5 491q58.5 -33 90.5 -94t32 -143t-32 -143t-90.5 -94t-137.5 -33t-137.5 33t-90.5 94t-32 143t32 143t90.5 94t137.5 33t137.5 -33zM212.5 372q-30.5 -44 -30.5 -118t30.5 -118t82.5 -44t82.5 44t30.5 118t-30.5 118t-82.5 44t-82.5 -44zM122 566l97 146h153
l-140 -146h-110zM312 566l97 146h153l-140 -146h-110z" />
    <glyph glyph-name="OE" unicode="&#x152;" horiz-adv-x="1020" 
d="M616 586v-161h322v-125h-322v-174h354v-126h-551q-183 0 -282.5 92.5t-99.5 263.5t99.5 263.5t282.5 92.5h542v-126h-345zM189 356q0 -230 230 -230h50v460h-50q-230 0 -230 -230z" />
    <glyph glyph-name="oe" unicode="&#x153;" horiz-adv-x="928" 
d="M712.5 102.5q25.5 19.5 30.5 51.5h143q-10 -47 -41.5 -86t-82 -61.5t-114.5 -22.5q-55 0 -100 19.5t-75 56.5q-32 -37 -77 -56.5t-101 -19.5q-79 0 -137.5 33t-90.5 94t-32 143t32 143t90.5 94t137.5 33q56 0 101 -19.5t77 -56.5q31 36 75 56t99 20q85 0 146 -45.5
t85 -123.5q15 -52 15 -130h-355q3 -74 33 -108t77 -34q39 0 64.5 19.5zM576.5 397q-27.5 -28 -35.5 -84h212q-6 56 -34.5 84t-71.5 28t-70.5 -28zM377.5 136q30.5 44 30.5 118t-30.5 118t-82.5 44t-82.5 -44t-30.5 -118t30.5 -118t82.5 -44t82.5 44z" />
    <glyph glyph-name="Racute" unicode="&#x154;" horiz-adv-x="666" 
d="M540 660q64 -52 64 -149q0 -65 -35 -111t-95 -63v-2q38 -14 60 -42.5t47 -95.5l71 -197h-160l-57 169q-20 58 -46.5 80.5t-78.5 22.5h-81v-272h-147v712h262q132 0 196 -52zM229 389h104q123 0 123 105q0 99 -131 99h-96v-204zM240 760l77 146h173l-140 -146h-110z" />
    <glyph glyph-name="racute" unicode="&#x155;" horiz-adv-x="392" 
d="M384 510v-121q-27 5 -44 5q-64 0 -98 -39.5t-34 -114.5v-240h-140v508h129v-72h2q25 41 59.5 60.5t79.5 19.5q25 0 46 -6zM124 566l77 146h173l-140 -146h-110z" />
    <glyph glyph-name="Rcommaaccent" unicode="&#x156;" horiz-adv-x="666" 
d="M540 660q64 -52 64 -149q0 -65 -35 -111t-95 -63v-2q38 -14 60 -42.5t47 -95.5l71 -197h-160l-57 169q-20 58 -46.5 80.5t-78.5 22.5h-81v-272h-147v712h262q132 0 196 -52zM229 389h104q123 0 123 105q0 99 -131 99h-96v-204zM341 -270h-56l45 107h-45v104h124v-104z
" />
    <glyph glyph-name="rcommaaccent" unicode="&#x157;" horiz-adv-x="392" 
d="M384 510v-121q-27 5 -44 5q-64 0 -98 -39.5t-34 -114.5v-240h-140v508h129v-72h2q25 41 59.5 60.5t79.5 19.5q25 0 46 -6zM132 -270h-56l45 107h-45v104h124v-104z" />
    <glyph glyph-name="Rcaron" unicode="&#x158;" horiz-adv-x="666" 
d="M540 660q64 -52 64 -149q0 -65 -35 -111t-95 -63v-2q38 -14 60 -42.5t47 -95.5l71 -197h-160l-57 169q-20 58 -46.5 80.5t-78.5 22.5h-81v-272h-147v712h262q132 0 196 -52zM229 389h104q123 0 123 105q0 99 -131 99h-96v-204zM250 760l-114 146h128l61 -76l60 76h128
l-114 -146h-149z" />
    <glyph glyph-name="rcaron" unicode="&#x159;" horiz-adv-x="392" 
d="M384 510v-121q-27 5 -44 5q-64 0 -98 -39.5t-34 -114.5v-240h-140v508h129v-72h2q25 41 59.5 60.5t79.5 19.5q25 0 46 -6zM134 566l-114 146h128l61 -76l60 76h128l-114 -146h-149z" />
    <glyph glyph-name="Sacute" unicode="&#x15a;" horiz-adv-x="630" 
d="M502.5 668.5q68.5 -59.5 68.5 -174.5h-149q0 56 -32 86.5t-92 30.5q-49 0 -79 -21.5t-30 -56.5q0 -27 15 -44t47 -29.5t93 -27.5q83 -21 134 -42.5t83.5 -64.5t32.5 -116q0 -67 -35 -118t-98 -79t-145 -28q-135 0 -211.5 65t-76.5 185h152q0 -65 35 -98t103 -33
q56 0 89.5 24.5t33.5 66.5q0 30 -15 47.5t-43 27.5t-89 26q-87 22 -138 43t-84.5 63.5t-33.5 115.5q0 62 33 110t93 74.5t137 26.5q133 0 201.5 -59.5zM216 760l77 146h173l-140 -146h-110z" />
    <glyph glyph-name="sacute" unicode="&#x15b;" horiz-adv-x="524" 
d="M414 480q56 -44 56 -128h-134q0 74 -80 74q-33 0 -51 -12.5t-18 -34.5q0 -18 11 -28.5t32 -17.5t66 -19q64 -17 101 -32t63.5 -48t26.5 -91q0 -72 -60.5 -115.5t-163.5 -43.5q-108 0 -168 45.5t-60 135.5h142q0 -38 23 -59t66 -21q36 0 55 13t19 36q0 21 -12 33.5
t-33.5 20t-71.5 20.5q-60 16 -93.5 29.5t-58 44.5t-24.5 86q0 45 26.5 80.5t74 55.5t109.5 20q101 0 157 -44zM172 566l77 146h173l-140 -146h-110z" />
    <glyph glyph-name="Scircumflex" unicode="&#x15c;" horiz-adv-x="630" 
d="M502.5 668.5q68.5 -59.5 68.5 -174.5h-149q0 56 -32 86.5t-92 30.5q-49 0 -79 -21.5t-30 -56.5q0 -27 15 -44t47 -29.5t93 -27.5q83 -21 134 -42.5t83.5 -64.5t32.5 -116q0 -67 -35 -118t-98 -79t-145 -28q-135 0 -211.5 65t-76.5 185h152q0 -65 35 -98t103 -33
q56 0 89.5 24.5t33.5 66.5q0 30 -15 47.5t-43 27.5t-89 26q-87 22 -138 43t-84.5 63.5t-33.5 115.5q0 62 33 110t93 74.5t137 26.5q133 0 201.5 -59.5zM375 906l114 -146h-128l-61 76l-60 -76h-128l114 146h149z" />
    <glyph glyph-name="scircumflex" unicode="&#x15d;" horiz-adv-x="524" 
d="M414 480q56 -44 56 -128h-134q0 74 -80 74q-33 0 -51 -12.5t-18 -34.5q0 -18 11 -28.5t32 -17.5t66 -19q64 -17 101 -32t63.5 -48t26.5 -91q0 -72 -60.5 -115.5t-163.5 -43.5q-108 0 -168 45.5t-60 135.5h142q0 -38 23 -59t66 -21q36 0 55 13t19 36q0 21 -12 33.5
t-33.5 20t-71.5 20.5q-60 16 -93.5 29.5t-58 44.5t-24.5 86q0 45 26.5 80.5t74 55.5t109.5 20q101 0 157 -44zM257 642l-61 -76h-128l114 146h149l114 -146h-128z" />
    <glyph glyph-name="Scedilla" unicode="&#x15e;" horiz-adv-x="630" 
d="M562 95.5q-32 -49.5 -90 -78.5t-135 -32l-28 -46q13 5 32 5q35 0 60 -20.5t25 -55.5q0 -41 -32 -67.5t-90 -26.5q-60 0 -114 30l22 45q41 -22 80 -22q23 0 36 9t13 26t-13 27.5t-35 10.5q-17 0 -32 -6l-21 23l43 68q-120 8 -187.5 72.5t-67.5 176.5h152q0 -65 35 -98
t103 -33q56 0 89.5 24.5t33.5 66.5q0 30 -15 47.5t-43 27.5t-89 26q-87 22 -138 43t-84.5 63.5t-33.5 115.5q0 62 33 110t93 74.5t137 26.5q133 0 201.5 -59.5t68.5 -174.5h-149q0 56 -32 86.5t-92 30.5q-49 0 -79 -21.5t-30 -56.5q0 -27 15 -44t47 -29.5t93 -27.5
q83 -21 134 -42.5t83.5 -64.5t32.5 -116q0 -64 -32 -113.5z" />
    <glyph glyph-name="scedilla" unicode="&#x15f;" horiz-adv-x="524" 
d="M434 34q-53 -43 -143 -49l-29 -46q13 5 32 5q35 0 60 -20.5t25 -55.5q0 -41 -32 -67.5t-90 -26.5q-60 0 -114 30l22 45q41 -22 80 -22q23 0 36 9t13 26t-13 27.5t-35 10.5q-17 0 -32 -6l-21 23l42 68q-95 5 -147.5 50.5t-52.5 129.5h142q0 -38 23 -59t66 -21q36 0 55 13
t19 36q0 21 -12 33.5t-33.5 20t-71.5 20.5q-60 16 -93.5 29.5t-58 44.5t-24.5 86q0 45 26.5 80.5t74 55.5t109.5 20q101 0 157 -44t56 -128h-134q0 74 -80 74q-33 0 -51 -12.5t-18 -34.5q0 -18 11 -28.5t32 -17.5t66 -19q64 -17 101 -32t63.5 -48t26.5 -91q0 -66 -53 -109z
" />
    <glyph glyph-name="Scaron" unicode="&#x160;" horiz-adv-x="630" 
d="M502.5 668.5q68.5 -59.5 68.5 -174.5h-149q0 56 -32 86.5t-92 30.5q-49 0 -79 -21.5t-30 -56.5q0 -27 15 -44t47 -29.5t93 -27.5q83 -21 134 -42.5t83.5 -64.5t32.5 -116q0 -67 -35 -118t-98 -79t-145 -28q-135 0 -211.5 65t-76.5 185h152q0 -65 35 -98t103 -33
q56 0 89.5 24.5t33.5 66.5q0 30 -15 47.5t-43 27.5t-89 26q-87 22 -138 43t-84.5 63.5t-33.5 115.5q0 62 33 110t93 74.5t137 26.5q133 0 201.5 -59.5zM226 760l-114 146h128l61 -76l60 76h128l-114 -146h-149z" />
    <glyph glyph-name="scaron" unicode="&#x161;" horiz-adv-x="524" 
d="M414 480q56 -44 56 -128h-134q0 74 -80 74q-33 0 -51 -12.5t-18 -34.5q0 -18 11 -28.5t32 -17.5t66 -19q64 -17 101 -32t63.5 -48t26.5 -91q0 -72 -60.5 -115.5t-163.5 -43.5q-108 0 -168 45.5t-60 135.5h142q0 -38 23 -59t66 -21q36 0 55 13t19 36q0 21 -12 33.5
t-33.5 20t-71.5 20.5q-60 16 -93.5 29.5t-58 44.5t-24.5 86q0 45 26.5 80.5t74 55.5t109.5 20q101 0 157 -44zM182 566l-114 146h128l61 -76l60 76h128l-114 -146h-149z" />
    <glyph glyph-name="Tcommaaccent" unicode="&#x162;" horiz-adv-x="615" 
d="M381 586v-586h-147v586h-224v126h595v-126h-224zM302 -270h-56l45 107h-45v104h124v-104z" />
    <glyph glyph-name="tcommaaccent" unicode="&#x163;" horiz-adv-x="357" 
d="M332 110v-107q-32 -10 -74 -10q-88 0 -128 38.5t-40 126.5v246h-82v104h82v132h140v-132h97v-104h-97v-221q0 -42 15 -60t51 -18q21 0 36 5zM261 -59v-104l-68 -107h-56l45 107h-45v104h124z" />
    <glyph glyph-name="Tcaron" unicode="&#x164;" horiz-adv-x="615" 
d="M381 586v-586h-147v586h-224v126h595v-126h-224zM233 760l-114 146h128l61 -76l60 76h128l-114 -146h-149z" />
    <glyph glyph-name="tcaron" unicode="&#x165;" horiz-adv-x="357" 
d="M332 110v-107q-32 -10 -74 -10q-88 0 -128 38.5t-40 126.5v246h-82v104h82v132h140v-132h97v-104h-97v-221q0 -42 15 -60t51 -18q21 0 36 5zM258 535l26 177h111l-58 -177h-79z" />
    <glyph glyph-name="Tbar" unicode="&#x166;" horiz-adv-x="615" 
d="M381 400h135v-106h-135v-294h-147v294h-135v106h135v186h-224v126h595v-126h-224v-186z" />
    <glyph glyph-name="tbar" unicode="&#x167;" horiz-adv-x="357" 
d="M332 110v-107q-32 -10 -74 -10q-88 0 -127.5 38.5t-39.5 126.5v67h-80v83h80v96h-83v104h83v132h139v-132h97v-104h-97v-96h94v-83h-94v-42q0 -42 15 -60t51 -18q21 0 36 5z" />
    <glyph glyph-name="Utilde" unicode="&#x168;" horiz-adv-x="718" 
d="M568.5 58q-73.5 -74 -209.5 -74t-209.5 74t-73.5 214v440h147v-435q0 -79 35 -121t101 -42t101 42t35 121v435h147v-440q0 -140 -73.5 -214zM513 807q-31 -36 -84 -36q-24 0 -42 7t-40 20q-18 10 -28.5 14.5t-23.5 4.5q-21 0 -32 -11t-14 -35h-78q3 63 34 99t84 36
q24 0 42.5 -7t40.5 -20q16 -9 27.5 -14t23.5 -5q21 0 32 11t14 35h78q-3 -63 -34 -99z" />
    <glyph glyph-name="utilde" unicode="&#x169;" 
d="M113 41.5q-50 53.5 -50 154.5v312h140v-298q0 -56 23.5 -84t65.5 -28q45 0 72.5 35.5t27.5 102.5v272h140v-508h-131v64h-2q-26 -35 -64 -55.5t-85 -20.5q-87 0 -137 53.5zM454 613q-31 -36 -84 -36q-24 0 -42 7t-40 20q-18 10 -28.5 14.5t-23.5 4.5q-21 0 -32 -11
t-14 -35h-78q3 63 34 99t84 36q24 0 42.5 -7t40.5 -20q16 -9 27.5 -14t23.5 -5q21 0 32 11t14 35h78q-3 -63 -34 -99z" />
    <glyph glyph-name="Umacron" unicode="&#x16a;" horiz-adv-x="718" 
d="M568.5 58q-73.5 -74 -209.5 -74t-209.5 74t-73.5 214v440h147v-435q0 -79 35 -121t101 -42t101 42t35 121v435h147v-440q0 -140 -73.5 -214zM196 778v91h326v-91h-326z" />
    <glyph glyph-name="umacron" unicode="&#x16b;" 
d="M113 41.5q-50 53.5 -50 154.5v312h140v-298q0 -56 23.5 -84t65.5 -28q45 0 72.5 35.5t27.5 102.5v272h140v-508h-131v64h-2q-26 -35 -64 -55.5t-85 -20.5q-87 0 -137 53.5zM137 598v91h326v-91h-326z" />
    <glyph glyph-name="Ubreve" unicode="&#x16c;" horiz-adv-x="718" 
d="M568.5 58q-73.5 -74 -209.5 -74t-209.5 74t-73.5 214v440h147v-435q0 -79 35 -121t101 -42t101 42t35 121v435h147v-440q0 -140 -73.5 -214zM483.5 794.5q-46.5 -39.5 -124.5 -39.5t-124.5 39.5t-50.5 111.5h95q2 -30 23.5 -47t56.5 -17t56.5 17t23.5 47h95
q-4 -72 -50.5 -111.5z" />
    <glyph glyph-name="ubreve" unicode="&#x16d;" 
d="M113 41.5q-50 53.5 -50 154.5v312h140v-298q0 -56 23.5 -84t65.5 -28q45 0 72.5 35.5t27.5 102.5v272h140v-508h-131v64h-2q-26 -35 -64 -55.5t-85 -20.5q-87 0 -137 53.5zM424.5 600.5q-46.5 -39.5 -124.5 -39.5t-124.5 39.5t-50.5 111.5h95q2 -30 23.5 -47t56.5 -17
t56.5 17t23.5 47h95q-4 -72 -50.5 -111.5z" />
    <glyph glyph-name="Uring" unicode="&#x16e;" horiz-adv-x="718" 
d="M568.5 58q-73.5 -74 -209.5 -74t-209.5 74t-73.5 214v440h147v-435q0 -79 35 -121t101 -42t101 42t35 121v435h147v-440q0 -140 -73.5 -214zM435.5 934.5q31.5 -31.5 31.5 -76.5t-31.5 -76.5t-76.5 -31.5t-76.5 31.5t-31.5 76.5t31.5 76.5t76.5 31.5t76.5 -31.5z
M321 896.5q-16 -15.5 -16 -38.5q0 -22 16 -38t38 -16q23 0 38.5 16t15.5 38q0 23 -15.5 38.5t-38.5 15.5q-22 0 -38 -15.5z" />
    <glyph glyph-name="uring" unicode="&#x16f;" 
d="M113 41.5q-50 53.5 -50 154.5v312h140v-298q0 -56 23.5 -84t65.5 -28q45 0 72.5 35.5t27.5 102.5v272h140v-508h-131v64h-2q-26 -35 -64 -55.5t-85 -20.5q-87 0 -137 53.5zM376.5 740.5q31.5 -31.5 31.5 -76.5t-31.5 -76.5t-76.5 -31.5t-76.5 31.5t-31.5 76.5t31.5 76.5
t76.5 31.5t76.5 -31.5zM262 702.5q-16 -15.5 -16 -38.5q0 -22 16 -38t38 -16q23 0 38.5 16t15.5 38q0 23 -15.5 38.5t-38.5 15.5q-22 0 -38 -15.5z" />
    <glyph glyph-name="Uhungarumlaut" unicode="&#x170;" horiz-adv-x="718" 
d="M568.5 58q-73.5 -74 -209.5 -74t-209.5 74t-73.5 214v440h147v-435q0 -79 35 -121t101 -42t101 42t35 121v435h147v-440q0 -140 -73.5 -214zM166 760l97 146h153l-140 -146h-110zM356 760l97 146h153l-140 -146h-110z" />
    <glyph glyph-name="uhungarumlaut" unicode="&#x171;" 
d="M113 41.5q-50 53.5 -50 154.5v312h140v-298q0 -56 23.5 -84t65.5 -28q45 0 72.5 35.5t27.5 102.5v272h140v-508h-131v64h-2q-26 -35 -64 -55.5t-85 -20.5q-87 0 -137 53.5zM127 566l97 146h153l-140 -146h-110zM317 566l97 146h153l-140 -146h-110z" />
    <glyph glyph-name="Uogonek" unicode="&#x172;" horiz-adv-x="718" 
d="M613 122.5q-29 -62.5 -86 -106.5q-37 -29 -51.5 -51t-14.5 -45q0 -39 35 -39q21 0 36 6v-71q-32 -13 -78 -13q-56 0 -84.5 23.5t-28.5 67.5q0 27 13 48t41 43v2q-17 -3 -36 -3q-136 0 -209.5 74t-73.5 214v440h147v-435q0 -79 35 -121t101 -42t101 42t35 121v435h147
v-440q0 -87 -29 -149.5z" />
    <glyph glyph-name="uogonek" unicode="&#x173;" 
d="M535 -113v-71q-32 -13 -78 -13q-56 0 -84.5 23t-28.5 64q0 32 19 57.5t59 52.5h-21v64h-2q-26 -35 -64 -55.5t-85 -20.5q-87 0 -137 53.5t-50 154.5v312h140v-298q0 -56 23.5 -84t65.5 -28q45 0 72.5 35.5t27.5 102.5v272h140v-508q-38 -26 -53 -46.5t-15 -41.5
q0 -31 35 -31q21 0 36 6z" />
    <glyph glyph-name="Wcircumflex" unicode="&#x174;" horiz-adv-x="956" 
d="M607 0l-66 282q-37 157 -62 305h-2q-25 -148 -62 -305l-66 -282h-191l-149 712h144l51 -259q32 -162 52 -308h2q27 151 65 308l62 259h186l62 -259q38 -157 65 -308h2q20 146 52 308l51 259h144l-149 -712h-191zM550 906l114 -146h-128l-61 76l-60 -76h-128l114 146h149z
" />
    <glyph glyph-name="wcircumflex" unicode="&#x175;" horiz-adv-x="810" 
d="M493 0l-45 200q-23 104 -42 217h-2q-19 -113 -42 -217l-45 -200h-200l-112 508h139l38 -196q24 -123 37 -221h2q18 112 43 219l45 198h192l45 -198q25 -107 43 -219h2q13 98 37 221l38 196h139l-112 -508h-200zM405 642l-61 -76h-128l114 146h149l114 -146h-128z" />
    <glyph glyph-name="Ycircumflex" unicode="&#x176;" horiz-adv-x="638" 
d="M392 0h-147v277l-243 435h165l68 -134q45 -89 83 -181h2q38 92 83 181l68 134h164l-243 -435v-277zM393 906l114 -146h-128l-61 76l-60 -76h-128l114 146h149z" />
    <glyph glyph-name="ycircumflex" unicode="&#x177;" horiz-adv-x="504" 
d="M271.5 -115.5q-31.5 -40.5 -75.5 -58t-109 -17.5q-39 0 -73 8v112q22 -8 54 -8q42 0 67.5 22.5t25.5 59.5q0 14 -4.5 32t-19.5 60l-144 413h150l52 -170q32 -107 56 -213h2q30 123 59 213l55 170h144l-182 -511q-26 -72 -57.5 -112.5zM252 642l-61 -76h-128l114 146h149
l114 -146h-128z" />
    <glyph glyph-name="Ydieresis" unicode="&#x178;" horiz-adv-x="638" 
d="M392 0h-147v277l-243 435h165l68 -134q45 -89 83 -181h2q38 92 83 181l68 134h164l-243 -435v-277zM149 769v120h123v-120h-123zM366 769v120h123v-120h-123z" />
    <glyph glyph-name="Zacute" unicode="&#x179;" horiz-adv-x="582" 
d="M195 126v-2h367v-124h-542v129l350 457v2h-334v124h509v-129zM206 760l77 146h173l-140 -146h-110z" />
    <glyph glyph-name="zacute" unicode="&#x17a;" horiz-adv-x="484" 
d="M197 112v-2h259v-110h-428v114l249 282v2h-239v110h408v-114zM150 566l77 146h173l-140 -146h-110z" />
    <glyph glyph-name="Zdotaccent" unicode="&#x17b;" horiz-adv-x="582" 
d="M195 126v-2h367v-124h-542v129l350 457v2h-334v124h509v-129zM221 769v120h140v-120h-140z" />
    <glyph glyph-name="zdotaccent" unicode="&#x17c;" horiz-adv-x="484" 
d="M197 112v-2h259v-110h-428v114l249 282v2h-239v110h408v-114zM165 592v120h140v-120h-140z" />
    <glyph glyph-name="Zcaron" unicode="&#x17d;" horiz-adv-x="582" 
d="M195 126v-2h367v-124h-542v129l350 457v2h-334v124h509v-129zM216 760l-114 146h128l61 -76l60 76h128l-114 -146h-149z" />
    <glyph glyph-name="zcaron" unicode="&#x17e;" horiz-adv-x="484" 
d="M197 112v-2h259v-110h-428v114l249 282v2h-239v110h408v-114zM160 566l-114 146h128l61 -76l60 76h128l-114 -146h-149z" />
    <glyph glyph-name="longs" unicode="&#x17f;" horiz-adv-x="341" 
d="M331 712v-99q-9 3 -25 3q-38 0 -56 -18.5t-18 -60.5v-537h-138v404h-84v104h84v46q0 83 43 124.5t125 41.5q35 0 69 -8z" />
    <glyph glyph-name="uni018F" unicode="&#x18f;" horiz-adv-x="764" 
d="M561.5 682.5q80.5 -45.5 123 -129.5t42.5 -196q0 -106 -42 -191t-121.5 -133.5t-185.5 -48.5q-104 0 -181 45.5t-118.5 129t-41.5 196.5q0 33 3 51h534q-6 99 -62.5 147t-141.5 48q-65 0 -106 -29.5t-51 -76.5h-157q15 65 55 117.5t106.5 84t154.5 31.5
q109 0 189.5 -45.5zM505.5 158q50.5 44 63.5 126h-378q12 -83 63 -126.5t124 -43.5q77 0 127.5 44z" />
    <glyph glyph-name="florin" unicode="&#x192;" 
d="M579 713v-107q-21 6 -50 6q-41 0 -64 -20.5t-36 -71.5l-13 -52h110v-104h-135l-91 -358q-27 -108 -75 -152.5t-137 -44.5q-40 0 -67 8v108q21 -6 49 -6q39 0 59 20t35 78l88 347h-101v104h126l16 63q26 101 74.5 146.5t131.5 45.5q43 0 80 -10z" />
    <glyph glyph-name="Aringacute" unicode="&#x1fa;" horiz-adv-x="698" 
d="M213 174l-56 -174h-154l247 712h198l247 -712h-154l-55 174h-273zM431 347q-49 156 -81 278h-2q-37 -140 -80 -278l-15 -47h193zM425.5 917.5q31.5 -31.5 31.5 -76.5t-31.5 -76.5t-76.5 -31.5t-76.5 31.5t-31.5 76.5t31.5 76.5t76.5 31.5t76.5 -31.5zM311 879.5
q-16 -15.5 -16 -38.5q0 -22 16 -38t38 -16q23 0 38.5 16t15.5 38q0 23 -15.5 38.5t-38.5 15.5q-22 0 -38 -15.5zM264 970l77 146h173l-140 -146h-110z" />
    <glyph glyph-name="aringacute" unicode="&#x1fb;" horiz-adv-x="547" 
d="M430 473.5q55 -50.5 55 -150.5v-184q0 -86 14 -139h-126q-7 29 -7 68h-2q-56 -80 -165 -80q-79 0 -126 43.5t-47 110.5q0 65 45.5 105t151.5 57q64 10 127 14v18q0 46 -22 68t-61 22t-60.5 -20.5t-23.5 -56.5h-136q4 77 60 126t160 49q108 0 163 -50.5zM248 222
q-44 -8 -63 -24t-19 -46q0 -29 19.5 -46.5t55.5 -17.5q23 0 44.5 7.5t35.5 21.5q17 17 23 38.5t6 58.5v19q-60 -4 -102 -11zM337.5 729.5q31.5 -31.5 31.5 -76.5t-31.5 -76.5t-76.5 -31.5t-76.5 31.5t-31.5 76.5t31.5 76.5t76.5 31.5t76.5 -31.5zM223 691.5
q-16 -15.5 -16 -38.5q0 -22 16 -38t38 -16q23 0 38.5 16t15.5 38q0 23 -15.5 38.5t-38.5 15.5q-22 0 -38 -15.5zM176 782l77 146h173l-140 -146h-110z" />
    <glyph glyph-name="AEacute" unicode="&#x1fc;" horiz-adv-x="965" 
d="M915 0h-398l-26 179h-254l-77 -179h-166l332 712h580v-126h-332l23 -161h286v-125h-268l25 -174h275v-126zM431 595h-14l-126 -292h182zM433 760l77 146h173l-140 -146h-110z" />
    <glyph glyph-name="aeacute" unicode="&#x1fd;" horiz-adv-x="880" 
d="M664.5 102.5q25.5 19.5 30.5 51.5h143q-10 -47 -41.5 -86t-82 -61.5t-114.5 -22.5q-60 0 -107 23t-78 66q-30 -44 -80 -66.5t-112 -22.5q-60 0 -104.5 20.5t-68.5 56.5t-24 81q0 80 60.5 123t195.5 43h78v28q0 47 -22 68.5t-66 21.5q-41 0 -63.5 -20.5t-24.5 -56.5h-136
q4 77 61 126t163 49q115 0 168 -60q63 60 159 60q85 0 146 -45.5t85 -123.5q15 -52 15 -130h-355q3 -74 33 -108t77 -34q39 0 64.5 19.5zM527 395.5q-28 -29.5 -35 -87.5h213q-5 58 -34 87.5t-72 29.5q-44 0 -72 -29.5zM297 225q-72 0 -101.5 -18t-29.5 -55q0 -31 21 -49.5
t58 -18.5q24 0 46.5 8t37.5 23q18 18 24.5 40t6.5 59v11h-63zM351 566l77 146h173l-140 -146h-110z" />
    <glyph glyph-name="Oslashacute" unicode="&#x1fe;" horiz-adv-x="748" 
d="M688.5 508.5q22.5 -68.5 22.5 -152.5q0 -115 -40.5 -198.5t-116.5 -128.5t-180 -45q-111 0 -190 51l-59 -78l-62 48l61 82q-87 99 -87 269q0 115 40.5 198.5t116.5 128.5t180 45q111 0 191 -52l59 79l61 -48l-61 -82q42 -48 64.5 -116.5zM213 206l272 363q-46 37 -111 37
q-89 0 -140 -67t-51 -183q0 -87 30 -150zM514 173q51 67 51 183q0 88 -31 150l-271 -364q47 -36 111 -36q89 0 140 67zM289 760l77 146h173l-140 -146h-110z" />
    <glyph glyph-name="oslashacute" unicode="&#x1ff;" horiz-adv-x="590" 
d="M555 254q0 -82 -32 -143t-90.5 -94t-137.5 -33q-78 0 -137 33l-51 -69l-53 39l52 69q-34 36 -52.5 86.5t-18.5 111.5q0 82 32 143t90.5 94t137.5 33q78 0 138 -33l52 69l52 -41l-52 -69q70 -73 70 -196zM207 376.5q-33 -45.5 -33 -122.5q0 -52 15 -88l174 232
q-29 24 -68 24q-55 0 -88 -45.5zM383.5 131.5q32.5 45.5 32.5 122.5q0 49 -14 86l-174 -231q28 -23 67 -23q56 0 88.5 45.5zM210 566l77 146h173l-140 -146h-110z" />
    <glyph glyph-name="Scommaaccent" unicode="&#x218;" horiz-adv-x="630" 
d="M502.5 668.5q68.5 -59.5 68.5 -174.5h-149q0 56 -32 86.5t-92 30.5q-49 0 -79 -21.5t-30 -56.5q0 -27 15 -44t47 -29.5t93 -27.5q83 -21 134 -42.5t83.5 -64.5t32.5 -116q0 -67 -35 -118t-98 -79t-145 -28q-135 0 -211.5 65t-76.5 185h152q0 -65 35 -98t103 -33
q56 0 89.5 24.5t33.5 66.5q0 30 -15 47.5t-43 27.5t-89 26q-87 22 -138 43t-84.5 63.5t-33.5 115.5q0 62 33 110t93 74.5t137 26.5q133 0 201.5 -59.5zM302 -270h-56l45 107h-45v104h124v-104z" />
    <glyph glyph-name="scommaaccent" unicode="&#x219;" horiz-adv-x="524" 
d="M414 480q56 -44 56 -128h-134q0 74 -80 74q-33 0 -51 -12.5t-18 -34.5q0 -18 11 -28.5t32 -17.5t66 -19q64 -17 101 -32t63.5 -48t26.5 -91q0 -72 -60.5 -115.5t-163.5 -43.5q-108 0 -168 45.5t-60 135.5h142q0 -38 23 -59t66 -21q36 0 55 13t19 36q0 21 -12 33.5
t-33.5 20t-71.5 20.5q-60 16 -93.5 29.5t-58 44.5t-24.5 86q0 45 26.5 80.5t74 55.5t109.5 20q101 0 157 -44zM255 -270h-56l45 107h-45v104h124v-104z" />
    <glyph glyph-name="uni021A" unicode="&#x21a;" horiz-adv-x="615" 
d="M381 586v-586h-147v586h-224v126h595v-126h-224zM302 -270h-56l45 107h-45v104h124v-104z" />
    <glyph glyph-name="uni021B" unicode="&#x21b;" horiz-adv-x="357" 
d="M332 110v-107q-32 -10 -74 -10q-88 0 -128 38.5t-40 126.5v246h-82v104h82v132h140v-132h97v-104h-97v-221q0 -42 15 -60t51 -18q21 0 36 5zM193 -270h-56l45 107h-45v104h124v-104z" />
    <glyph glyph-name="uni0237" unicode="&#x237;" horiz-adv-x="278" 
d="M163.5 -146.5q-46.5 -43.5 -126.5 -43.5q-37 0 -69 8v101q12 -3 27 -3q39 0 57 20.5t18 73.5v498h140v-519q0 -92 -46.5 -135.5z" />
    <glyph glyph-name="uni0259" unicode="&#x259;" horiz-adv-x="573" 
d="M419 490q58 -34 88.5 -95t30.5 -141q0 -77 -30 -138t-87.5 -96.5t-134.5 -35.5q-76 0 -133 33t-87.5 94t-30.5 143q0 18 2 34h363q-3 71 -35.5 104t-83.5 33q-37 0 -61 -18.5t-29 -47.5h-143q16 71 77.5 118t155.5 47q80 0 138 -34zM359.5 112.5q29.5 29.5 37.5 87.5
h-222q6 -58 36 -87.5t75 -29.5q44 0 73.5 29.5z" />
    <glyph glyph-name="afii57929" unicode="&#x2bc;" horiz-adv-x="254" 
d="M129 424h-71l47 146h-44v142h131v-142z" />
    <glyph glyph-name="circumflex" unicode="&#x2c6;" horiz-adv-x="477" 
d="M239 642l-61 -76h-128l114 146h149l114 -146h-128z" />
    <glyph glyph-name="caron" unicode="&#x2c7;" horiz-adv-x="477" 
d="M164 566l-114 146h128l61 -76l60 76h128l-114 -146h-149z" />
    <glyph glyph-name="uni02C9" unicode="&#x2c9;" horiz-adv-x="426" 
d="M50 598v91h326v-91h-326z" />
    <glyph glyph-name="breve" unicode="&#x2d8;" horiz-adv-x="450" 
d="M349.5 600.5q-46.5 -39.5 -124.5 -39.5t-124.5 39.5t-50.5 111.5h95q2 -30 23.5 -47t56.5 -17t56.5 17t23.5 47h95q-4 -72 -50.5 -111.5z" />
    <glyph glyph-name="dotaccent" unicode="&#x2d9;" horiz-adv-x="240" 
d="M50 592v120h140v-120h-140z" />
    <glyph glyph-name="ring" unicode="&#x2da;" horiz-adv-x="316" 
d="M234.5 740.5q31.5 -31.5 31.5 -76.5t-31.5 -76.5t-76.5 -31.5t-76.5 31.5t-31.5 76.5t31.5 76.5t76.5 31.5t76.5 -31.5zM120 702.5q-16 -15.5 -16 -38.5q0 -22 16 -38t38 -16q23 0 38.5 16t15.5 38q0 23 -15.5 38.5t-38.5 15.5q-22 0 -38 -15.5z" />
    <glyph glyph-name="ogonek" unicode="&#x2db;" horiz-adv-x="291" 
d="M185 -46.5q-15 -20.5 -15 -41.5q0 -31 35 -31q21 0 36 6v-71q-33 -13 -78 -13q-56 0 -84.5 23t-28.5 64q0 32 19 57.5t59 52.5h110q-38 -26 -53 -46.5z" />
    <glyph glyph-name="tilde" unicode="&#x2dc;" horiz-adv-x="476" 
d="M392 613q-31 -36 -84 -36q-24 0 -42 7t-40 20q-18 10 -28.5 14.5t-23.5 4.5q-21 0 -32 -11t-14 -35h-78q3 63 34 99t84 36q24 0 42.5 -7t40.5 -20q16 -9 27.5 -14t23.5 -5q21 0 32 11t14 35h78q-3 -63 -34 -99z" />
    <glyph glyph-name="hungarumlaut" unicode="&#x2dd;" horiz-adv-x="540" 
d="M50 566l97 146h153l-140 -146h-110zM240 566l97 146h153l-140 -146h-110z" />
    <glyph glyph-name="uni0312" unicode="&#x312;" horiz-adv-x="0" 
d="M174 681v-104h-124v104l68 107h56l-45 -107h45z" />
    <glyph glyph-name="uni0326" unicode="&#x326;" horiz-adv-x="0" 
d="M106 -270h-56l45 107h-45v104h124v-104z" />
    <glyph glyph-name="uni0333" unicode="&#x333;" horiz-adv-x="0" 
d="M-500 -121v71h500v-71h-500zM-500 -266v71h500v-71h-500z" />
    <glyph glyph-name="uni0374" unicode="&#x374;" horiz-adv-x="215" 
d="M30 508l30 204h125l-67 -204h-88z" />
    <glyph glyph-name="uni0375" unicode="&#x375;" horiz-adv-x="215" 
d="M30 -92l30 204h125l-67 -204h-88z" />
    <glyph glyph-name="uni037E" unicode="&#x37e;" horiz-adv-x="258" 
d="M52 341v167h154v-167h-154zM132 -172h-84l55 172h-51v167h154v-167z" />
    <glyph glyph-name="tonos" unicode="&#x384;" horiz-adv-x="272" 
d="M50 568l35 164h137l-68 -164h-104z" />
    <glyph glyph-name="dieresistonos" unicode="&#x385;" horiz-adv-x="540" 
d="M200 568l33 156h116l-54 -156h-95zM50 580v117h113v-117h-113zM377 580v117h113v-117h-113z" />
    <glyph glyph-name="Alphatonos" unicode="&#x386;" horiz-adv-x="698" 
d="M213 174l-56 -174h-154l247 712h198l247 -712h-154l-55 174h-273zM431 347q-49 156 -81 278h-2q-37 -140 -80 -278l-15 -47h193zM3 508l35 204h137l-68 -204h-104z" />
    <glyph glyph-name="anoteleia" unicode="&#x387;" horiz-adv-x="258" 
d="M52 341v167h154v-167h-154z" />
    <glyph glyph-name="Epsilontonos" unicode="&#x388;" horiz-adv-x="633" 
d="M229 586v-161h322v-125h-322v-174h354v-126h-501v712h492v-126h-345zM-133 508l35 204h137l-68 -204h-104z" />
    <glyph glyph-name="Etatonos" unicode="&#x389;" horiz-adv-x="750" 
d="M521 0v307h-292v-307h-147v712h147v-279h292v279h147v-712h-147zM-133 508l35 204h137l-68 -204h-104z" />
    <glyph glyph-name="Iotatonos" unicode="&#x38a;" horiz-adv-x="311" 
d="M82 0v712h147v-712h-147zM-133 508l35 204h137l-68 -204h-104z" />
    <glyph glyph-name="Omicrontonos" unicode="&#x38c;" horiz-adv-x="748" 
d="M554 683q76 -45 116.5 -128.5t40.5 -198.5t-40.5 -198.5t-116.5 -128.5t-180 -45t-180 45t-116.5 128.5t-40.5 198.5t40.5 198.5t116.5 128.5t180 45t180 -45zM238.5 533.5q-49.5 -64.5 -49.5 -177.5t49.5 -177.5t135.5 -64.5t135.5 64.5t49.5 177.5t-49.5 177.5
t-135.5 64.5t-135.5 -64.5zM-90 508l35 204h137l-68 -204h-104z" />
    <glyph glyph-name="Upsilontonos" unicode="&#x38e;" horiz-adv-x="638" 
d="M392 0h-147v277l-243 435h165l68 -134q45 -89 83 -181h2q38 92 83 181l68 134h164l-243 -435v-277zM-191 508l35 204h137l-68 -204h-104z" />
    <glyph glyph-name="Omegatonos" unicode="&#x38f;" horiz-adv-x="734" 
d="M603.5 648q88.5 -80 88.5 -234q0 -87 -36.5 -154.5t-102.5 -133.5v-2h150v-124h-286v130q59 60 91 121t32 141q0 100 -47 153t-126 53t-126 -53t-47 -153q0 -80 32 -141t91 -121v-130h-286v124h150v2q-66 66 -102.5 133.5t-36.5 154.5q0 154 88.5 234t236.5 80t236.5 -80
zM-99 508l35 204h137l-68 -204h-104z" />
    <glyph glyph-name="iotadieresistonos" unicode="&#x390;" horiz-adv-x="316" 
d="M218 127.5q15 -22.5 51 -22.5q21 0 36 5v-108q-30 -9 -74 -9q-88 0 -128 43.5t-40 141.5v330h140v-305q0 -53 15 -75.5zM63 568l33 156h116l-54 -156h-95zM-87 580v117h113v-117h-113zM240 580v117h113v-117h-113z" />
    <glyph glyph-name="Alpha" unicode="&#x391;" horiz-adv-x="698" 
d="M213 174l-56 -174h-154l247 712h198l247 -712h-154l-55 174h-273zM431 347q-49 156 -81 278h-2q-37 -140 -80 -278l-15 -47h193z" />
    <glyph glyph-name="Beta" unicode="&#x392;" horiz-adv-x="650" 
d="M532 663q65 -49 65 -134q0 -61 -30.5 -102t-93.5 -64v-2q73 -16 107 -56.5t34 -109.5q0 -90 -67.5 -142.5t-186.5 -52.5h-278v712h256q129 0 194 -49zM229 419h104q64 0 93.5 21t29.5 67q0 44 -27.5 64.5t-88.5 20.5h-111v-173zM229 121h109q67 0 97 21.5t30 67.5
q0 49 -30.5 71t-100.5 22h-105v-182z" />
    <glyph glyph-name="Gamma" unicode="&#x393;" horiz-adv-x="508" 
d="M82 712h416v-126h-269v-586h-147v712z" />
    <glyph glyph-name="Delta" unicode="&#x394;" horiz-adv-x="698" 
d="M3 0l249 712h198l245 -712h-692zM429 347q-43 138 -80 278h-2q-32 -122 -81 -278l-71 -221h304z" />
    <glyph glyph-name="Epsilon" unicode="&#x395;" horiz-adv-x="633" 
d="M229 586v-161h322v-125h-322v-174h354v-126h-501v712h492v-126h-345z" />
    <glyph glyph-name="Zeta" unicode="&#x396;" horiz-adv-x="582" 
d="M195 126v-2h367v-124h-542v129l350 457v2h-334v124h509v-129z" />
    <glyph glyph-name="Eta" unicode="&#x397;" horiz-adv-x="750" 
d="M521 0v307h-292v-307h-147v712h147v-279h292v279h147v-712h-147z" />
    <glyph glyph-name="Theta" unicode="&#x398;" horiz-adv-x="748" 
d="M554 683q76 -45 116.5 -128.5t40.5 -197.5q0 -115 -40.5 -199t-116.5 -129t-180 -45t-180 45t-116.5 129t-40.5 199q0 114 40.5 197.5t116.5 128.5t180 45t180 -45zM234 538q-51 -66 -51 -181t51 -181t140 -66t140 66t51 181t-51 181t-140 66t-140 -66zM241 300v113h266
v-113h-266z" />
    <glyph glyph-name="Iota" unicode="&#x399;" horiz-adv-x="311" 
d="M82 0v712h147v-712h-147z" />
    <glyph glyph-name="Kappa" unicode="&#x39a;" horiz-adv-x="663" 
d="M659 0h-187l-241 336h-2v-336h-147v712h147v-313h2l233 313h172l-271 -338z" />
    <glyph glyph-name="Lambda" unicode="&#x39b;" horiz-adv-x="684" 
d="M522 0l-104 342q-40 129 -75 275h-2q-35 -146 -75 -275l-104 -342h-159l239 712h200l239 -712h-159z" />
    <glyph glyph-name="Mu" unicode="&#x39c;" horiz-adv-x="984" 
d="M761 0v354q0 134 6 267h-2q-33 -126 -76 -262l-113 -359h-168l-113 359q-43 136 -76 262h-2q6 -133 6 -267v-354h-141v712h236l103 -327q42 -134 70 -262h2q28 128 70 262l103 327h236v-712h-141z" />
    <glyph glyph-name="Nu" unicode="&#x39d;" horiz-adv-x="776" 
d="M485 0l-138 289q-76 161 -130 294h-2q8 -165 8 -309v-274h-141v712h209l138 -289q76 -161 130 -294h2q-8 165 -8 309v274h141v-712h-209z" />
    <glyph glyph-name="Xi" unicode="&#x39e;" horiz-adv-x="675" 
d="M64 565v147h547v-147h-547zM81 285v147h513v-147h-513zM50 0v147h575v-147h-575z" />
    <glyph glyph-name="Omicron" unicode="&#x39f;" horiz-adv-x="748" 
d="M554 683q76 -45 116.5 -128.5t40.5 -198.5t-40.5 -198.5t-116.5 -128.5t-180 -45t-180 45t-116.5 128.5t-40.5 198.5t40.5 198.5t116.5 128.5t180 45t180 -45zM238.5 533.5q-49.5 -64.5 -49.5 -177.5t49.5 -177.5t135.5 -64.5t135.5 64.5t49.5 177.5t-49.5 177.5
t-135.5 64.5t-135.5 -64.5z" />
    <glyph glyph-name="Pi" unicode="&#x3a0;" horiz-adv-x="739" 
d="M511 0v586h-282v-586h-147v712h575v-712h-146z" />
    <glyph glyph-name="Rho" unicode="&#x3a1;" horiz-adv-x="636" 
d="M545 650q67 -62 67 -168t-67 -168t-194 -62h-122v-252h-147v712h269q127 0 194 -62zM229 374h102q131 0 131 108t-131 108h-102v-216z" />
    <glyph glyph-name="Sigma" unicode="&#x3a3;" horiz-adv-x="585" 
d="M212 588v-2l168 -224l-183 -236v-2h368v-124h-542v129l181 233l-170 226v124h517v-124h-339z" />
    <glyph glyph-name="Tau" unicode="&#x3a4;" horiz-adv-x="615" 
d="M381 586v-586h-147v586h-224v126h595v-126h-224z" />
    <glyph glyph-name="Upsilon" unicode="&#x3a5;" horiz-adv-x="638" 
d="M392 0h-147v277l-243 435h165l68 -134q45 -89 83 -181h2q38 92 83 181l68 134h164l-243 -435v-277z" />
    <glyph glyph-name="Phi" unicode="&#x3a6;" horiz-adv-x="833" 
d="M715 584q81 -79 81 -225q0 -145 -81 -224t-228 -90v-75h-141v75q-147 11 -228 91.5t-81 227.5q0 144 81 221.5t228 87.5v69h141v-69q147 -10 228 -89zM228 499q-41 -47 -41 -135q0 -92 41 -142t118 -56v386q-77 -6 -118 -53zM604.5 221q41.5 49 41.5 138
q0 90 -41.5 138.5t-117.5 54.5v-386q76 6 117.5 55z" />
    <glyph glyph-name="Chi" unicode="&#x3a7;" horiz-adv-x="630" 
d="M627 0h-171l-140 252h-2l-140 -252h-171l223 362l-212 350h168l132 -246h2l132 246h168l-212 -350z" />
    <glyph glyph-name="Psi" unicode="&#x3a8;" horiz-adv-x="841" 
d="M726.5 251q-74.5 -77 -232.5 -88v-163h-147v163q-158 11 -232.5 88t-74.5 233v228h147v-224q0 -99 36.5 -145t123.5 -53v422h147v-422q87 7 123.5 53t36.5 145v224h147v-228q0 -156 -74.5 -233z" />
    <glyph glyph-name="Omega" unicode="&#x3a9;" horiz-adv-x="734" 
d="M603.5 648q88.5 -80 88.5 -234q0 -87 -36.5 -154.5t-102.5 -133.5v-2h150v-124h-286v130q59 60 91 121t32 141q0 100 -47 153t-126 53t-126 -53t-47 -153q0 -80 32 -141t91 -121v-130h-286v124h150v2q-66 66 -102.5 133.5t-36.5 154.5q0 154 88.5 234t236.5 80t236.5 -80
z" />
    <glyph glyph-name="Iotadieresis" unicode="&#x3aa;" horiz-adv-x="311" 
d="M82 0v712h147v-712h-147zM-14 796v120h123v-120h-123zM203 796v120h123v-120h-123z" />
    <glyph glyph-name="Upsilondieresis" unicode="&#x3ab;" horiz-adv-x="638" 
d="M392 0h-147v277l-243 435h165l68 -134q45 -89 83 -181h2q38 92 83 181l68 134h164l-243 -435v-277zM149 769v120h123v-120h-123zM366 769v120h123v-120h-123z" />
    <glyph glyph-name="alphatonos" unicode="&#x3ac;" horiz-adv-x="613" 
d="M331 499.5q39 -21.5 63 -61.5h2q2 37 8 70h136q-10 -72 -10 -180v-160q0 -38 10.5 -52.5t33.5 -14.5q12 0 24 3v-100q-36 -12 -85 -12q-97 0 -115 79h-2q-23 -40 -64 -62t-88 -22q-63 0 -110.5 33t-73 93.5t-25.5 140.5t26 140.5t74 93.5t111 33q46 0 85 -21.5z
M211 370.5q-30 -43.5 -30 -116.5t30 -116.5t80 -43.5q48 0 77 42.5t29 117.5t-29 117.5t-77 42.5q-50 0 -80 -43.5zM234 568l35 164h137l-68 -164h-104z" />
    <glyph glyph-name="epsilontonos" unicode="&#x3ad;" horiz-adv-x="518" 
d="M417.5 477q59.5 -47 59.5 -132h-139q0 37 -21.5 56.5t-60.5 19.5q-33 0 -52.5 -15t-19.5 -41q0 -28 22.5 -44t61.5 -16h50v-101h-50q-94 0 -94 -61q0 -26 22 -41t58 -15q93 0 93 80h140q0 -90 -60 -136.5t-173 -46.5q-100 0 -159 40.5t-59 112.5q0 49 24.5 79t78.5 46v2
q-48 17 -69.5 44t-21.5 69q0 69 55.5 108t149.5 39q105 0 164.5 -47zM198 568l35 164h137l-68 -164h-104z" />
    <glyph glyph-name="etatonos" unicode="&#x3ae;" horiz-adv-x="616" 
d="M505.5 467.5q47.5 -53.5 47.5 -156.5v-496h-140v479q0 58 -22.5 88t-65.5 30q-45 0 -73 -36.5t-28 -101.5v-274h-140v337q0 41 -10.5 57.5t-33.5 16.5q-15 0 -25 -3v95q42 13 81 13q48 0 75 -21.5t37 -70.5h2q25 46 67.5 71.5t95.5 25.5q85 0 132.5 -53.5zM219 568
l35 164h137l-68 -164h-104z" />
    <glyph glyph-name="iotatonos" unicode="&#x3af;" horiz-adv-x="316" 
d="M218 127.5q15 -22.5 51 -22.5q21 0 36 5v-108q-30 -9 -74 -9q-88 0 -128 43.5t-40 141.5v330h140v-305q0 -53 15 -75.5zM80 568l35 164h137l-68 -164h-104z" />
    <glyph glyph-name="upsilondieresistonos" unicode="&#x3b0;" horiz-adv-x="602" 
d="M191.5 481q31.5 -35 31.5 -121v-167q0 -53 21.5 -76.5t64.5 -23.5q105 0 105 168q0 136 -35 247h136q38 -116 38 -258q0 -129 -60 -197.5t-182 -68.5q-114 0 -171.5 47.5t-57.5 149.5v146q0 46 -10 63t-34 17q-14 0 -25 -3v99q42 13 81 13q66 0 97.5 -35zM219 568l33 156
h116l-54 -156h-95zM69 580v117h113v-117h-113zM396 580v117h113v-117h-113z" />
    <glyph glyph-name="alpha" unicode="&#x3b1;" horiz-adv-x="613" 
d="M331 499.5q39 -21.5 63 -61.5h2q2 37 8 70h136q-10 -72 -10 -180v-160q0 -38 10.5 -52.5t33.5 -14.5q12 0 24 3v-100q-36 -12 -85 -12q-97 0 -115 79h-2q-23 -40 -64 -62t-88 -22q-63 0 -110.5 33t-73 93.5t-25.5 140.5t26 140.5t74 93.5t111 33q46 0 85 -21.5z
M211 370.5q-30 -43.5 -30 -116.5t30 -116.5t80 -43.5q48 0 77 42.5t29 117.5t-29 117.5t-77 42.5q-50 0 -80 -43.5z" />
    <glyph glyph-name="beta" unicode="&#x3b2;" horiz-adv-x="606" 
d="M475 679q62 -49 62 -132q0 -127 -128 -162v-2q164 -34 164 -188q0 -95 -60.5 -150t-165.5 -55q-48 0 -83 14.5t-54 41.5h-2v-231h-140l1 666q0 118 62 182.5t176 64.5q106 0 168 -49zM232.5 590.5q-24.5 -33.5 -24.5 -105.5v-291q0 -47 26.5 -73.5t79.5 -26.5
q54 0 85 30.5t31 84.5q0 59 -37.5 87.5t-111.5 28.5h-14v109h14q61 0 92.5 25.5t31.5 73.5q0 43 -24.5 67t-69.5 24q-54 0 -78.5 -33.5z" />
    <glyph glyph-name="gamma" unicode="&#x3b3;" horiz-adv-x="556" 
d="M484 251q-47 -114 -140 -245v-12q0 -37 -3 -89.5t-8 -89.5h-140q5 37 8 89.5t3 89.5q0 68 -22.5 162t-62.5 174q-23 47 -43 64t-45 17q-9 0 -23 -2v97q35 11 73 11q50 0 83 -25t64 -91q26 -56 44 -120.5t26 -122.5h2q44 86 68.5 169t32.5 181h145q-15 -143 -62 -257z" />
    <glyph glyph-name="delta" unicode="&#x3b4;" horiz-adv-x="590" 
d="M499 696v-115q-46 19 -96 29t-94 10q-34 0 -46.5 -7t-12.5 -21q0 -17 24.5 -34t87.5 -50q95 -49 144 -115t49 -163q0 -75 -32 -130.5t-91 -85.5t-137 -30t-136.5 30t-91 85t-32.5 130q0 85 46.5 145t132.5 89v2q-59 38 -85.5 69t-26.5 71q0 117 189 117q113 0 208 -26z
M211 337.5q-29 -43.5 -29 -108.5q0 -63 31 -100.5t82 -37.5t82 38t31 103q0 118 -116 170q-52 -21 -81 -64.5z" />
    <glyph glyph-name="epsilon" unicode="&#x3b5;" horiz-adv-x="518" 
d="M417.5 477q59.5 -47 59.5 -132h-139q0 37 -21.5 56.5t-60.5 19.5q-33 0 -52.5 -15t-19.5 -41q0 -28 22.5 -44t61.5 -16h50v-101h-50q-94 0 -94 -61q0 -26 22 -41t58 -15q93 0 93 80h140q0 -90 -60 -136.5t-173 -46.5q-100 0 -159 40.5t-59 112.5q0 49 24.5 79t78.5 46v2
q-48 17 -69.5 44t-21.5 69q0 69 55.5 108t149.5 39q105 0 164.5 -47z" />
    <glyph glyph-name="zeta" unicode="&#x3b6;" horiz-adv-x="482" 
d="M181 240q0 -59 34 -89.5t119 -43.5q76 -12 105 -47.5t29 -97.5q0 -56 -28 -107h-111q16 35 16 71q0 34 -20.5 52.5t-79.5 25.5q-115 14 -162.5 62.5t-47.5 142.5q0 117 70.5 219.5t193.5 180.5v2h-238v101h401v-101q-281 -159 -281 -371z" />
    <glyph glyph-name="eta" unicode="&#x3b7;" horiz-adv-x="616" 
d="M505.5 467.5q47.5 -53.5 47.5 -156.5v-496h-140v479q0 58 -22.5 88t-65.5 30q-45 0 -73 -36.5t-28 -101.5v-274h-140v337q0 41 -10.5 57.5t-33.5 16.5q-15 0 -25 -3v95q42 13 81 13q48 0 75 -21.5t37 -70.5h2q25 46 67.5 71.5t95.5 25.5q85 0 132.5 -53.5z" />
    <glyph glyph-name="theta" unicode="&#x3b8;" horiz-adv-x="623" 
d="M515.5 629.5q71.5 -96.5 71.5 -273.5t-71.5 -273.5t-204.5 -96.5q-132 0 -203.5 96.5t-71.5 273.5t71.5 273.5t203.5 96.5q133 0 204.5 -96.5zM219 567.5q-34 -56.5 -40 -162.5h263q-6 106 -40 162.5t-91 56.5q-58 0 -92 -56.5zM402 144.5q34 56.5 40 162.5h-263
q6 -106 40 -162.5t92 -56.5q57 0 91 56.5z" />
    <glyph glyph-name="iota" unicode="&#x3b9;" horiz-adv-x="316" 
d="M218 127.5q15 -22.5 51 -22.5q21 0 36 5v-108q-30 -9 -74 -9q-88 0 -128 43.5t-40 141.5v330h140v-305q0 -53 15 -75.5z" />
    <glyph glyph-name="kappa" unicode="&#x3ba;" horiz-adv-x="560" 
d="M247 183l-43 -48v-135h-140v508h140v-217h2l90 105q58 68 102.5 93.5t101.5 25.5q24 0 48 -7v-115q-15 5 -33 5q-43 0 -84 -27t-99 -91l241 -280h-168z" />
    <glyph glyph-name="lambda" unicode="&#x3bb;" horiz-adv-x="597" 
d="M241 703.5q37 -17.5 67.5 -62t61.5 -127.5l119 -315q23 -61 42.5 -81.5t44.5 -20.5q6 0 14 2v-99q-26 -8 -58 -8q-42 0 -70 12t-50.5 43.5t-42.5 90.5q-27 73 -79 223h-1q-39 -102 -83 -208l-63 -153h-150l227 503q-22 62 -45 85.5t-59 23.5q-28 0 -49 -8v104
q32 13 83 13q54 0 91 -17.5z" />
    <glyph glyph-name="mu" unicode="&#x3bc;" horiz-adv-x="613" 
d="M545.5 115.5q10.5 -14.5 33.5 -14.5q12 0 24 3v-100q-36 -12 -85 -12q-93 0 -111 81h-2q-14 -37 -46.5 -58t-74.5 -21q-49 0 -76 21v-200h-140v693h140v-298q0 -56 22.5 -84t64.5 -28q45 0 72.5 35.5t27.5 102.5v272h140v-340q0 -38 10.5 -52.5z" />
    <glyph glyph-name="nu" unicode="&#x3bd;" horiz-adv-x="542" 
d="M168 480q36 -36 54 -117l58 -257h2q59 134 81.5 214t22.5 149q0 21 -3 39h138q5 -20 5 -47q0 -57 -13 -113t-46 -135.5t-98 -212.5h-186l-92 323q-14 51 -28.5 69.5t-37.5 18.5q-12 0 -19 -3v95q29 13 69 13q57 0 93 -36z" />
    <glyph glyph-name="xi" unicode="&#x3be;" horiz-adv-x="487" 
d="M375 611q-83 0 -125.5 -28t-42.5 -81q0 -42 33.5 -64t89.5 -22h103v-100h-91q-82 0 -121.5 -29.5t-39.5 -79.5q0 -45 35 -67.5t125 -33.5q76 -10 105 -45.5t29 -98.5q0 -56 -28 -107h-111q17 37 17 71q0 35 -25 54.5t-94 26.5q-103 10 -151 54t-48 121q0 144 152 181v2
q-51 14 -78.5 46t-27.5 81q0 91 80 117v2h-104v101h415v-101h-97z" />
    <glyph glyph-name="omicron" unicode="&#x3bf;" horiz-adv-x="590" 
d="M432.5 491q58.5 -33 90.5 -94t32 -143t-32 -143t-90.5 -94t-137.5 -33t-137.5 33t-90.5 94t-32 143t32 143t90.5 94t137.5 33t137.5 -33zM212.5 372q-30.5 -44 -30.5 -118t30.5 -118t82.5 -44t82.5 44t30.5 118t-30.5 118t-82.5 44t-82.5 -44z" />
    <glyph glyph-name="pi" unicode="&#x3c0;" horiz-adv-x="672" 
d="M554 404v-231q0 -43 14 -59.5t43 -16.5q19 0 28 4v-99q-33 -10 -80 -10q-74 0 -109.5 37t-35.5 125v250h-172v-404h-140v404h-93v104h645v-104h-100z" />
    <glyph glyph-name="rho" unicode="&#x3c1;" horiz-adv-x="602" 
d="M447 490.5q58 -33.5 89 -96t31 -146.5q0 -79 -29 -137.5t-82.5 -90.5t-126.5 -32q-42 0 -74.5 13.5t-49.5 37.5h-2v-224h-140v439q0 82 30.5 143t87 94t131.5 33q77 0 135 -33.5zM224.5 371.5q-29.5 -43.5 -29.5 -117.5q0 -73 29.5 -116t79.5 -43q55 0 85.5 42.5
t30.5 116.5q0 75 -30.5 118t-85.5 43q-50 0 -79.5 -43.5z" />
    <glyph glyph-name="sigma1" unicode="&#x3c2;" horiz-adv-x="552" 
d="M461 465.5q63 -58.5 70 -158.5h-145q-4 51 -30.5 80.5t-71.5 29.5q-50 0 -78 -37t-28 -104q0 -68 39 -106t123 -50q82 -12 113.5 -50.5t31.5 -107.5q0 -56 -28 -107h-112q17 34 17 71q0 39 -24.5 59.5t-94.5 28.5q-106 11 -159 73.5t-53 174.5q0 123 67.5 192.5
t185.5 69.5q114 0 177 -58.5z" />
    <glyph glyph-name="sigma" unicode="&#x3c3;" horiz-adv-x="620" 
d="M480 407v-2q35 -26 53.5 -68t18.5 -97q0 -78 -31.5 -136t-89.5 -89t-136 -31q-79 0 -137.5 32t-90.5 91.5t-32 139.5t32 139t90.5 90.5t137.5 31.5h315v-101h-130zM211.5 367.5q-29.5 -41.5 -29.5 -117.5q0 -75 29.5 -116.5t82.5 -41.5q55 0 84.5 41.5t29.5 116.5
q0 76 -29.5 117.5t-84.5 41.5q-53 0 -82.5 -41.5z" />
    <glyph glyph-name="tau" unicode="&#x3c4;" horiz-adv-x="468" 
d="M298 407v-234q0 -43 14 -59.5t43 -16.5q19 0 28 4v-99q-33 -10 -80 -10q-74 0 -109.5 37t-35.5 125v253h-149v101h450v-101h-161z" />
    <glyph glyph-name="upsilon" unicode="&#x3c5;" horiz-adv-x="602" 
d="M191.5 481q31.5 -35 31.5 -121v-167q0 -53 21.5 -76.5t64.5 -23.5q105 0 105 168q0 136 -35 247h136q38 -116 38 -258q0 -129 -60 -197.5t-182 -68.5q-114 0 -171.5 47.5t-57.5 149.5v146q0 46 -10 63t-34 17q-14 0 -25 -3v99q42 13 81 13q66 0 97.5 -35z" />
    <glyph glyph-name="phi" unicode="&#x3c6;" horiz-adv-x="795" 
d="M680.5 60.5q-79.5 -71.5 -216.5 -76.5v-169h-133v169q-137 5 -216.5 76.5t-79.5 193.5t79.5 193.5t216.5 76.5v138h133v-138q137 -5 216.5 -76.5t79.5 -193.5t-79.5 -193.5zM217 132q40 -44 114 -48v340q-74 -4 -114 -48t-40 -122t40 -122zM577.5 132q39.5 44 39.5 122
t-39.5 122t-113.5 48v-340q74 4 113.5 48z" />
    <glyph glyph-name="chi" unicode="&#x3c7;" horiz-adv-x="601" 
d="M187.5 493.5q35.5 -27.5 65.5 -96.5l53 -120h2l136 231h154l-216 -348l77 -163q24 -51 45.5 -68t52.5 -17q17 0 32 3v-95q-36 -13 -80 -13q-60 0 -95.5 27.5t-67.5 97.5l-48 107h-2l-143 -224h-154l226 338l-82 175q-24 52 -45.5 70t-54.5 18q-18 0 -35 -5v95q16 7 38 11
t43 4q63 0 98.5 -27.5z" />
    <glyph glyph-name="psi" unicode="&#x3c8;" horiz-adv-x="823" 
d="M701.5 66.5q-71.5 -68.5 -216.5 -75.5v-176h-140v176q-140 5 -211 63t-71 176v278h140v-264q0 -71 35.5 -106.5t106.5 -41.5v566h140v-565q148 15 148 173q0 133 -39 238h138q41 -111 41 -249q0 -124 -71.5 -192.5z" />
    <glyph glyph-name="omega" unicode="&#x3c9;" horiz-adv-x="832" 
d="M765.5 372.5q16.5 -72.5 16.5 -148.5q0 -115 -50 -176.5t-151 -61.5q-134 0 -164 105h-2q-30 -105 -164 -105q-101 0 -151 61.5t-50 176.5q0 76 16.5 148.5t48.5 135.5h146q-32 -59 -49 -128t-17 -140q0 -73 20 -111t63 -38q68 0 68 92v204h140v-204q0 -92 68 -92
q83 0 83 149q0 71 -17 140t-49 128h146q32 -63 48.5 -135.5z" />
    <glyph glyph-name="iotadieresis" unicode="&#x3ca;" horiz-adv-x="316" 
d="M218 127.5q15 -22.5 51 -22.5q21 0 36 5v-108q-30 -9 -74 -9q-88 0 -128 43.5t-40 141.5v330h140v-305q0 -53 15 -75.5zM-37 592v120h123v-120h-123zM180 592v120h123v-120h-123z" />
    <glyph glyph-name="upsilondieresis" unicode="&#x3cb;" horiz-adv-x="602" 
d="M191.5 481q31.5 -35 31.5 -121v-167q0 -53 21.5 -76.5t64.5 -23.5q105 0 105 168q0 136 -35 247h136q38 -116 38 -258q0 -129 -60 -197.5t-182 -68.5q-114 0 -171.5 47.5t-57.5 149.5v146q0 46 -10 63t-34 17q-14 0 -25 -3v99q42 13 81 13q66 0 97.5 -35zM119 592v120
h123v-120h-123zM336 592v120h123v-120h-123z" />
    <glyph glyph-name="omicrontonos" unicode="&#x3cc;" horiz-adv-x="590" 
d="M432.5 491q58.5 -33 90.5 -94t32 -143t-32 -143t-90.5 -94t-137.5 -33t-137.5 33t-90.5 94t-32 143t32 143t90.5 94t137.5 33t137.5 -33zM212.5 372q-30.5 -44 -30.5 -118t30.5 -118t82.5 -44t82.5 44t30.5 118t-30.5 118t-82.5 44t-82.5 -44zM242 568l35 164h137
l-68 -164h-104z" />
    <glyph glyph-name="upsilontonos" unicode="&#x3cd;" horiz-adv-x="602" 
d="M191.5 481q31.5 -35 31.5 -121v-167q0 -53 21.5 -76.5t64.5 -23.5q105 0 105 168q0 136 -35 247h136q38 -116 38 -258q0 -129 -60 -197.5t-182 -68.5q-114 0 -171.5 47.5t-57.5 149.5v146q0 46 -10 63t-34 17q-14 0 -25 -3v99q42 13 81 13q66 0 97.5 -35zM236 568l35 164
h137l-68 -164h-104z" />
    <glyph glyph-name="omegatonos" unicode="&#x3ce;" horiz-adv-x="832" 
d="M765.5 372.5q16.5 -72.5 16.5 -148.5q0 -115 -50 -176.5t-151 -61.5q-134 0 -164 105h-2q-30 -105 -164 -105q-101 0 -151 61.5t-50 176.5q0 76 16.5 148.5t48.5 135.5h146q-32 -59 -49 -128t-17 -140q0 -73 20 -111t63 -38q68 0 68 92v204h140v-204q0 -92 68 -92
q83 0 83 149q0 71 -17 140t-49 128h146q32 -63 48.5 -135.5zM363 568l35 164h137l-68 -164h-104z" />
    <glyph glyph-name="uni0400" unicode="&#x400;" horiz-adv-x="633" 
d="M229 586v-161h322v-125h-322v-174h354v-126h-501v712h492v-126h-345zM413 760h-110l-140 146h173z" />
    <glyph glyph-name="afii10023" unicode="&#x401;" horiz-adv-x="633" 
d="M229 586v-161h322v-125h-322v-174h354v-126h-501v712h492v-126h-345zM158 769v120h123v-120h-123zM375 769v120h123v-120h-123z" />
    <glyph glyph-name="afii10051" unicode="&#x402;" horiz-adv-x="802" 
d="M381 586v-157q66 33 152 33q116 0 180.5 -63t64.5 -176q0 -108 -64 -172t-176 -64q-54 0 -93 13v122q32 -9 71 -9q115 0 115 109q0 114 -125 114q-71 0 -125 -29v-307h-147v586h-224v126h595v-126h-224z" />
    <glyph glyph-name="afii10052" unicode="&#x403;" horiz-adv-x="508" 
d="M82 712h416v-126h-269v-586h-147v712zM205 760l77 146h173l-140 -146h-110z" />
    <glyph glyph-name="afii10053" unicode="&#x404;" horiz-adv-x="711" 
d="M579.5 54q-80.5 -70 -213.5 -70q-101 0 -175.5 45t-114 128.5t-39.5 198.5q0 114 40 198t115 129t177 45q88 0 154 -33t104 -93t41 -137h-148q-8 62 -47.5 97.5t-103.5 35.5q-71 0 -117 -47.5t-59 -131.5h248v-126h-248q13 -85 58 -132t115 -47q65 0 105 35.5t49 100.5
h151q-11 -126 -91.5 -196z" />
    <glyph glyph-name="afii10054" unicode="&#x405;" horiz-adv-x="630" 
d="M502.5 668.5q68.5 -59.5 68.5 -174.5h-149q0 56 -32 86.5t-92 30.5q-49 0 -79 -21.5t-30 -56.5q0 -27 15 -44t47 -29.5t93 -27.5q83 -21 134 -42.5t83.5 -64.5t32.5 -116q0 -67 -35 -118t-98 -79t-145 -28q-135 0 -211.5 65t-76.5 185h152q0 -65 35 -98t103 -33
q56 0 89.5 24.5t33.5 66.5q0 30 -15 47.5t-43 27.5t-89 26q-87 22 -138 43t-84.5 63.5t-33.5 115.5q0 62 33 110t93 74.5t137 26.5q133 0 201.5 -59.5z" />
    <glyph glyph-name="afii10055" unicode="&#x406;" horiz-adv-x="311" 
d="M82 0v712h147v-712h-147z" />
    <glyph glyph-name="afii10056" unicode="&#x407;" horiz-adv-x="311" 
d="M82 0v712h147v-712h-147zM-14 769v120h123v-120h-123zM203 769v120h123v-120h-123z" />
    <glyph glyph-name="afii10057" unicode="&#x408;" horiz-adv-x="392" 
d="M258.5 49.5q-56.5 -56.5 -178.5 -56.5q-38 0 -65 8v125q27 -5 47 -5q38 0 60.5 11.5t34 41t11.5 84.5v454h147v-485q0 -121 -56.5 -177.5z" />
    <glyph glyph-name="afii10058" unicode="&#x409;" horiz-adv-x="1060" 
d="M775 460q127 0 194 -62t67 -168t-67 -168t-194 -62h-269v586h-200q-8 -250 -34 -376t-74.5 -171t-137.5 -45q-29 0 -49 6v120q8 -2 18 -2q50 0 76 43.5t39.5 168t20.5 382.5h488v-252h122zM653 122h102q131 0 131 108t-131 108h-102v-216z" />
    <glyph glyph-name="afii10059" unicode="&#x40a;" horiz-adv-x="1075" 
d="M984 398q67 -62 67 -168t-67 -168t-194 -62h-269v307h-292v-307h-147v712h147v-279h292v279h147v-252h122q127 0 194 -62zM901 230q0 108 -131 108h-102v-216h102q131 0 131 108z" />
    <glyph glyph-name="afii10060" unicode="&#x40b;" horiz-adv-x="801" 
d="M710.5 381.5q57.5 -56.5 57.5 -162.5v-219h-147v190q0 59 -29.5 90.5t-85.5 31.5q-72 0 -125 -18v-294h-147v586h-224v126h595v-126h-224v-171q71 23 164 23q108 0 165.5 -56.5z" />
    <glyph glyph-name="afii10061" unicode="&#x40c;" horiz-adv-x="663" 
d="M659 0h-187l-241 336h-2v-336h-147v712h147v-313h2l233 313h172l-271 -338zM247 760l77 146h173l-140 -146h-110z" />
    <glyph glyph-name="uni040D" unicode="&#x40d;" horiz-adv-x="776" 
d="M223 438q0 -144 -8 -309h2q54 133 130 294l138 289h209v-712h-141v274q0 144 8 309h-2q-54 -133 -130 -294l-138 -289h-209v712h141v-274zM463 760h-110l-140 146h173z" />
    <glyph glyph-name="afii10062" unicode="&#x40e;" horiz-adv-x="682" 
d="M311.5 25q-50.5 -34 -119.5 -34q-50 0 -82 9v123q19 -6 49 -6q40 0 64 19t24 55q0 20 -6.5 36.5t-40.5 84.5l-198 400h159l91 -205q50 -111 89 -206h2q42 106 87 206l91 205h159l-278 -572q-40 -81 -90.5 -115zM465.5 794.5q-46.5 -39.5 -124.5 -39.5t-124.5 39.5
t-50.5 111.5h95q2 -30 23.5 -47t56.5 -17t56.5 17t23.5 47h95q-4 -72 -50.5 -111.5z" />
    <glyph glyph-name="afii10145" unicode="&#x40f;" horiz-adv-x="740" 
d="M435 0v-160h-140v160h-213v712h147v-586h282v586h147v-712h-223z" />
    <glyph glyph-name="afii10017" unicode="&#x410;" horiz-adv-x="698" 
d="M213 174l-56 -174h-154l247 712h198l247 -712h-154l-55 174h-273zM431 347q-49 156 -81 278h-2q-37 -140 -80 -278l-15 -47h193z" />
    <glyph glyph-name="afii10018" unicode="&#x411;" horiz-adv-x="665" 
d="M229 590v-147h147q118 0 185 -59.5t67 -162.5t-66.5 -162t-185.5 -59h-294v712h501v-122h-354zM229 122h118q130 0 130 99q0 49 -32.5 74.5t-97.5 25.5h-118v-199z" />
    <glyph glyph-name="afii10019" unicode="&#x412;" horiz-adv-x="650" 
d="M532 663q65 -49 65 -134q0 -61 -30.5 -102t-93.5 -64v-2q73 -16 107 -56.5t34 -109.5q0 -90 -67.5 -142.5t-186.5 -52.5h-278v712h256q129 0 194 -49zM229 419h104q64 0 93.5 21t29.5 67q0 44 -27.5 64.5t-88.5 20.5h-111v-173zM229 121h109q67 0 97 21.5t30 67.5
q0 49 -30.5 71t-100.5 22h-105v-182z" />
    <glyph glyph-name="afii10020" unicode="&#x413;" horiz-adv-x="508" 
d="M82 712h416v-126h-269v-586h-147v712z" />
    <glyph glyph-name="afii10021" unicode="&#x414;" horiz-adv-x="794" 
d="M780 -160h-140v160h-480v-160h-140v286h85q31 64 48.5 193.5t21.5 392.5h515v-586h90v-286zM316 586q-9 -314 -58 -460h285v460h-227z" />
    <glyph glyph-name="afii10022" unicode="&#x415;" horiz-adv-x="633" 
d="M229 586v-161h322v-125h-322v-174h354v-126h-501v712h492v-126h-345z" />
    <glyph glyph-name="afii10024" unicode="&#x416;" horiz-adv-x="918" 
d="M914 0h-174l-207 356h-2v-356h-144v356h-2l-207 -356h-174l245 374l-220 338h169l187 -333h2v333h144v-333h2l187 333h169l-220 -338z" />
    <glyph glyph-name="afii10025" unicode="&#x417;" horiz-adv-x="636" 
d="M517 674q71 -53 71 -147q0 -60 -30 -98t-95 -61v-2q71 -23 104 -65t33 -110q0 -63 -35 -109.5t-98 -72t-146 -25.5q-143 0 -219 63.5t-76 184.5h156q0 -61 35 -92.5t104 -31.5q55 0 88 24.5t33 65.5q0 49 -37 73t-114 24h-46v121h46q66 0 104 26t38 70q0 41 -32 66
t-86 25q-122 0 -122 -118h-158q0 115 74.5 178.5t210.5 63.5q126 0 197 -53z" />
    <glyph glyph-name="afii10026" unicode="&#x418;" horiz-adv-x="776" 
d="M223 438q0 -144 -8 -309h2q54 133 130 294l138 289h209v-712h-141v274q0 144 8 309h-2q-54 -133 -130 -294l-138 -289h-209v712h141v-274z" />
    <glyph glyph-name="afii10027" unicode="&#x419;" horiz-adv-x="776" 
d="M223 438q0 -144 -8 -309h2q54 133 130 294l138 289h209v-712h-141v274q0 144 8 309h-2q-54 -133 -130 -294l-138 -289h-209v712h141v-274zM502.5 794.5q-46.5 -39.5 -124.5 -39.5t-124.5 39.5t-50.5 111.5h95q2 -30 23.5 -47t56.5 -17t56.5 17t23.5 47h95
q-4 -72 -50.5 -111.5z" />
    <glyph glyph-name="afii10028" unicode="&#x41a;" horiz-adv-x="663" 
d="M659 0h-187l-241 336h-2v-336h-147v712h147v-313h2l233 313h172l-271 -338z" />
    <glyph glyph-name="afii10029" unicode="&#x41b;" horiz-adv-x="735" 
d="M506 0v586h-200q-8 -250 -34 -376t-74.5 -171t-137.5 -45q-29 0 -49 6v120q8 -2 18 -2q50 0 76 43.5t39.5 168t20.5 382.5h488v-712h-147z" />
    <glyph glyph-name="afii10030" unicode="&#x41c;" horiz-adv-x="984" 
d="M761 0v354q0 134 6 267h-2q-33 -126 -76 -262l-113 -359h-168l-113 359q-43 136 -76 262h-2q6 -133 6 -267v-354h-141v712h236l103 -327q42 -134 70 -262h2q28 128 70 262l103 327h236v-712h-141z" />
    <glyph glyph-name="afii10031" unicode="&#x41d;" horiz-adv-x="750" 
d="M521 0v307h-292v-307h-147v712h147v-279h292v279h147v-712h-147z" />
    <glyph glyph-name="afii10032" unicode="&#x41e;" horiz-adv-x="748" 
d="M554 683q76 -45 116.5 -128.5t40.5 -198.5t-40.5 -198.5t-116.5 -128.5t-180 -45t-180 45t-116.5 128.5t-40.5 198.5t40.5 198.5t116.5 128.5t180 45t180 -45zM238.5 533.5q-49.5 -64.5 -49.5 -177.5t49.5 -177.5t135.5 -64.5t135.5 64.5t49.5 177.5t-49.5 177.5
t-135.5 64.5t-135.5 -64.5z" />
    <glyph glyph-name="afii10033" unicode="&#x41f;" horiz-adv-x="739" 
d="M511 0v586h-282v-586h-147v712h575v-712h-146z" />
    <glyph glyph-name="afii10034" unicode="&#x420;" horiz-adv-x="636" 
d="M545 650q67 -62 67 -168t-67 -168t-194 -62h-122v-252h-147v712h269q127 0 194 -62zM229 374h102q131 0 131 108t-131 108h-102v-216z" />
    <glyph glyph-name="afii10035" unicode="&#x421;" horiz-adv-x="701" 
d="M515.5 695q65.5 -33 102.5 -93t40 -137h-148q-7 62 -46 97.5t-101 35.5q-81 0 -127.5 -64.5t-46.5 -177.5t45.5 -177.5t125.5 -64.5q63 0 102.5 35.5t47.5 100.5h151q-10 -126 -90 -196t-211 -70q-99 0 -172 45t-112 128.5t-39 198.5q0 114 39.5 198t113 129t173.5 45
q87 0 152.5 -33z" />
    <glyph glyph-name="afii10036" unicode="&#x422;" horiz-adv-x="615" 
d="M381 586v-586h-147v586h-224v126h595v-126h-224z" />
    <glyph glyph-name="afii10037" unicode="&#x423;" horiz-adv-x="682" 
d="M311.5 25q-50.5 -34 -119.5 -34q-50 0 -82 9v123q19 -6 49 -6q40 0 64 19t24 55q0 20 -6.5 36.5t-40.5 84.5l-198 400h159l91 -205q50 -111 89 -206h2q42 106 87 206l91 205h159l-278 -572q-40 -81 -90.5 -115z" />
    <glyph glyph-name="afii10038" unicode="&#x424;" horiz-adv-x="862" 
d="M741.5 139q-83.5 -79 -239.5 -88v-77h-143v77q-155 9 -238.5 88t-83.5 217t83.5 217t238.5 88v77h143v-77q156 -9 239.5 -88t83.5 -217t-83.5 -217zM628.5 229.5q44.5 47.5 44.5 126.5t-44.5 126.5t-126.5 56.5v-366q82 9 126.5 56.5zM233 230q44 -47 126 -57v366
q-82 -10 -126 -57t-44 -126t44 -126z" />
    <glyph glyph-name="afii10039" unicode="&#x425;" horiz-adv-x="630" 
d="M627 0h-171l-140 252h-2l-140 -252h-171l223 362l-212 350h168l132 -246h2l132 246h168l-212 -350z" />
    <glyph glyph-name="afii10040" unicode="&#x426;" horiz-adv-x="770" 
d="M748 126v-286h-140v160h-526v712h147v-586h282v586h147v-586h90z" />
    <glyph glyph-name="afii10041" unicode="&#x427;" horiz-adv-x="679" 
d="M450 0v269q-37 -10 -83.5 -16t-90.5 -6q-118 0 -180.5 56.5t-62.5 162.5v246h147v-217q0 -59 34.5 -90.5t100.5 -31.5q34 0 70 5t65 13v321h147v-712h-147z" />
    <glyph glyph-name="afii10042" unicode="&#x428;" horiz-adv-x="1028" 
d="M82 0v712h147v-586h212v586h147v-586h212v586h146v-712h-864z" />
    <glyph glyph-name="afii10043" unicode="&#x429;" horiz-adv-x="1050" 
d="M1036 126v-286h-140v160h-814v712h147v-586h212v586h147v-586h212v586h146v-586h90z" />
    <glyph glyph-name="afii10044" unicode="&#x42a;" horiz-adv-x="758" 
d="M473 460q127 0 194 -62t67 -168t-67 -168t-194 -62h-269v586h-194v126h341v-252h122zM351 122h102q131 0 131 108t-131 108h-102v-216z" />
    <glyph glyph-name="afii10045" unicode="&#x42b;" horiz-adv-x="947" 
d="M82 712h147v-252h122q127 0 194 -62t67 -168t-67 -168t-194 -62h-269v712zM718 0v712h147v-712h-147zM462 230q0 108 -131 108h-102v-216h102q131 0 131 108z" />
    <glyph glyph-name="afii10046" unicode="&#x42c;" horiz-adv-x="636" 
d="M82 712h147v-252h122q127 0 194 -62t67 -168t-67 -168t-194 -62h-269v712zM462 230q0 108 -131 108h-102v-216h102q131 0 131 108z" />
    <glyph glyph-name="afii10047" unicode="&#x42d;" horiz-adv-x="711" 
d="M519 683q75 -45 115 -129t40 -198q0 -115 -39.5 -198.5t-114 -128.5t-175.5 -45q-133 0 -213.5 70t-91.5 196h151q9 -65 49 -100.5t105 -35.5q70 0 115 47t58 132h-248v126h248q-13 84 -59 131.5t-117 47.5q-64 0 -103.5 -35.5t-47.5 -97.5h-148q3 77 41 137t104 93
t154 33q102 0 177 -45z" />
    <glyph glyph-name="afii10048" unicode="&#x42e;" horiz-adv-x="1035" 
d="M846.5 683q73.5 -45 112.5 -128.5t39 -198.5t-39 -198.5t-112.5 -128.5t-173.5 -45q-136 0 -221 82t-101 227h-122v-293h-147v712h147v-293h122q16 145 101 227t221 82q100 0 173.5 -45zM800 178.5q46 64.5 46 177.5t-46 177.5t-127 64.5q-80 0 -126.5 -65t-46.5 -177
t46.5 -177t126.5 -65q81 0 127 64.5z" />
    <glyph glyph-name="afii10049" unicode="&#x42f;" horiz-adv-x="662" 
d="M580 0h-147v264h-133h-11l-128 -264h-160l153 291q-57 27 -85.5 77.5t-28.5 121.5q0 107 65.5 164.5t194.5 57.5h280v-712zM319 593q-131 0 -131 -103q0 -109 123 -109h122v212h-114z" />
    <glyph glyph-name="afii10065" unicode="&#x430;" horiz-adv-x="547" 
d="M430 473.5q55 -50.5 55 -150.5v-184q0 -86 14 -139h-126q-7 29 -7 68h-2q-56 -80 -165 -80q-79 0 -126 43.5t-47 110.5q0 65 45.5 105t151.5 57q64 10 127 14v18q0 46 -22 68t-61 22t-60.5 -20.5t-23.5 -56.5h-136q4 77 60 126t160 49q108 0 163 -50.5zM248 222
q-44 -8 -63 -24t-19 -46q0 -29 19.5 -46.5t55.5 -17.5q23 0 44.5 7.5t35.5 21.5q17 17 23 38.5t6 58.5v19q-60 -4 -102 -11z" />
    <glyph glyph-name="afii10066" unicode="&#x431;" 
d="M368 591q-82 -4 -128 -25t-67.5 -61t-29.5 -108h2q43 97 177 97q71 0 124 -29.5t82 -84t29 -128.5q0 -82 -32 -142.5t-90.5 -93t-137.5 -32.5q-125 0 -192.5 77t-67.5 221q0 157 32.5 246t97.5 128.5t173 47.5q138 10 191 24v-117q-48 -14 -163 -20zM209 353.5
q-27 -38.5 -27 -106.5q0 -74 29.5 -114.5t84.5 -40.5t84.5 39t29.5 110t-30.5 111t-85.5 40q-58 0 -85 -38.5z" />
    <glyph glyph-name="afii10067" unicode="&#x432;" horiz-adv-x="549" 
d="M501 371q0 -44 -23 -70.5t-71 -38.5v-2q106 -19 106 -118q0 -68 -53 -105t-150 -37h-242v508h228q205 0 205 -137zM203 299h76q85 0 85 59t-85 59h-76v-118zM203 91h75q95 0 95 62t-95 62h-75v-124z" />
    <glyph glyph-name="afii10068" unicode="&#x433;" horiz-adv-x="441" 
d="M208 404v-404h-140v508h363v-104h-223z" />
    <glyph glyph-name="afii10069" unicode="&#x434;" horiz-adv-x="640" 
d="M632 -160h-140v160h-344v-160h-140v264h64q27 45 43.5 133t24.5 271h422v-404h70v-264zM274 404q-11 -198 -43 -300h191v300h-148z" />
    <glyph glyph-name="afii10070" unicode="&#x435;" horiz-adv-x="573" 
d="M356 102.5q27 19.5 32 51.5h143q-10 -47 -42.5 -86t-84 -61.5t-116.5 -22.5q-79 0 -136 34.5t-87 96.5t-30 143q0 76 30 136t87 95t135 35q87 0 149 -45.5t86 -123.5q16 -51 16 -130h-365q3 -74 34.5 -108t80.5 -34q41 0 68 19.5zM213.5 397q-29.5 -28 -37.5 -84h222
q-6 55 -36.5 83.5t-74.5 28.5t-73.5 -28z" />
    <glyph glyph-name="afii10072" unicode="&#x436;" horiz-adv-x="760" 
d="M604 0l-154 259h-2v-259h-136v259h-2l-154 -259h-168l188 274l-168 234h153l149 -226h2v226h136v-226h2l149 226h153l-168 -234l188 -274h-168z" />
    <glyph glyph-name="afii10073" unicode="&#x437;" horiz-adv-x="516" 
d="M412.5 485q55.5 -39 55.5 -108q0 -42 -21.5 -69t-69.5 -44v-2q54 -16 78.5 -46t24.5 -79q0 -72 -59 -112.5t-159 -40.5q-113 0 -173 46.5t-60 136.5h140q0 -80 93 -80q36 0 58 15t22 41q0 61 -94 61h-50v101h50q39 0 61.5 16t22.5 44q0 26 -19.5 41t-52.5 15
q-39 0 -60.5 -19.5t-21.5 -56.5h-139q0 85 59.5 132t164.5 47q94 0 149.5 -39z" />
    <glyph glyph-name="afii10074" unicode="&#x438;" horiz-adv-x="670" 
d="M462 0v189q0 93 8 199h-2q-37 -97 -87 -188l-109 -200h-204v508h140v-190q0 -92 -8 -198h2q37 97 87 188l109 200h204v-508h-140z" />
    <glyph glyph-name="afii10075" unicode="&#x439;" horiz-adv-x="670" 
d="M462 0v189q0 93 8 199h-2q-37 -97 -87 -188l-109 -200h-204v508h140v-190q0 -92 -8 -198h2q37 97 87 188l109 200h204v-508h-140zM460.5 600.5q-46.5 -39.5 -124.5 -39.5t-124.5 39.5t-50.5 111.5h95q2 -30 23.5 -47t56.5 -17t56.5 17t23.5 47h95q-4 -72 -50.5 -111.5z
" />
    <glyph glyph-name="afii10076" unicode="&#x43a;" horiz-adv-x="560" 
d="M380 0l-170 238h-2v-238h-140v508h140v-205h2l164 205h158l-193 -234l214 -274h-173z" />
    <glyph glyph-name="afii10077" unicode="&#x43b;" horiz-adv-x="574" 
d="M366 0v404h-119q-4 -170 -25.5 -258.5t-60.5 -120t-105 -31.5q-27 0 -50 6v99q10 -2 19 -2q33 0 51 30.5t28 118.5t13 262h389v-508h-140z" />
    <glyph glyph-name="afii10078" unicode="&#x43c;" horiz-adv-x="834" 
d="M636 0v233q0 81 5 183h-1q-23 -80 -58 -181l-82 -235h-166l-83 235q-38 114 -57 181h-2q5 -102 5 -183v-233h-129v508h220l76 -217q29 -84 52 -186h2q19 89 52 186l75 217h221v-508h-130z" />
    <glyph glyph-name="afii10079" unicode="&#x43d;" horiz-adv-x="613" 
d="M405 0v206h-197v-206h-140v508h140v-198h197v198h140v-508h-140z" />
    <glyph glyph-name="afii10080" unicode="&#x43e;" horiz-adv-x="590" 
d="M432.5 491q58.5 -33 90.5 -94t32 -143t-32 -143t-90.5 -94t-137.5 -33t-137.5 33t-90.5 94t-32 143t32 143t90.5 94t137.5 33t137.5 -33zM212.5 372q-30.5 -44 -30.5 -118t30.5 -118t82.5 -44t82.5 44t30.5 118t-30.5 118t-82.5 44t-82.5 -44z" />
    <glyph glyph-name="afii10081" unicode="&#x43f;" horiz-adv-x="605" 
d="M397 0v404h-189v-404h-140v508h469v-508h-140z" />
    <glyph glyph-name="afii10082" unicode="&#x440;" horiz-adv-x="598" 
d="M463 488q48 -33 74 -93.5t26 -140.5t-25.5 -140.5t-73 -93.5t-110.5 -33q-44 0 -82.5 19.5t-61.5 54.5h-2v-246h-140v693h136v-67h2q23 38 62 59t84 21q63 0 111 -33zM230 371.5q-29 -42.5 -29 -117.5t29 -117.5t77 -42.5q50 0 80 43.5t30 116.5t-30 116.5t-80 43.5
q-48 0 -77 -42.5z" />
    <glyph glyph-name="afii10083" unicode="&#x441;" horiz-adv-x="562" 
d="M410.5 498q52.5 -26 84 -73t36.5 -106h-146q-4 45 -29.5 71t-65.5 26q-51 0 -80 -43.5t-29 -118.5t29 -118.5t80 -43.5q40 0 65.5 28.5t28.5 78.5h147q-8 -97 -73 -156t-167 -59q-77 0 -135 33.5t-89.5 94.5t-31.5 142t31.5 142t89.5 94.5t135 33.5q67 0 119.5 -26z" />
    <glyph glyph-name="afii10084" unicode="&#x442;" horiz-adv-x="474" 
d="M307 404v-404h-140v404h-161v104h462v-104h-161z" />
    <glyph glyph-name="afii10085" unicode="&#x443;" horiz-adv-x="504" 
d="M271.5 -115.5q-31.5 -40.5 -75.5 -58t-109 -17.5q-39 0 -73 8v112q22 -8 54 -8q42 0 67.5 22.5t25.5 59.5q0 14 -4.5 32t-19.5 60l-144 413h150l52 -170q32 -107 56 -213h2q30 123 59 213l55 170h144l-182 -511q-26 -72 -57.5 -112.5z" />
    <glyph glyph-name="afii10086" unicode="&#x444;" horiz-adv-x="820" 
d="M582 521q61 0 107 -33t71 -93.5t25 -140.5t-25 -140.5t-71.5 -93.5t-108.5 -33q-55 0 -100 36v-208h-140v208q-45 -36 -100 -36q-62 0 -108.5 33t-71.5 93.5t-25 140.5t25 140.5t71 93.5t107 33q57 0 102 -37v228h140v-228q45 37 102 37zM209 370.5q-28 -43.5 -28 -116.5
t28 -116.5t76 -43.5q31 0 55 24v272q-24 24 -55 24q-48 0 -76 -43.5zM480 390v-272q24 -24 55 -24q47 0 75.5 43.5t28.5 116.5t-28.5 116.5t-75.5 43.5q-31 0 -55 -24z" />
    <glyph glyph-name="afii10087" unicode="&#x445;" horiz-adv-x="508" 
d="M514 0h-163l-96 172h-2l-96 -172h-163l174 261l-163 247h161l87 -149h2l87 149h161l-163 -247z" />
    <glyph glyph-name="afii10088" unicode="&#x446;" horiz-adv-x="615" 
d="M607 104v-264h-140v160h-399v508h140v-404h189v404h140v-404h70z" />
    <glyph glyph-name="afii10089" unicode="&#x447;" horiz-adv-x="558" 
d="M350 0v184q-64 -18 -141 -18q-87 0 -133.5 40.5t-46.5 115.5v186h140v-157q0 -39 23 -60t68 -21q48 0 90 14v224h140v-508h-140z" />
    <glyph glyph-name="afii10090" unicode="&#x448;" horiz-adv-x="854" 
d="M68 0v508h140v-404h149v404h140v-404h149v404h140v-508h-718z" />
    <glyph glyph-name="afii10091" unicode="&#x449;" horiz-adv-x="864" 
d="M856 104v-264h-140v160h-648v508h140v-404h149v404h140v-404h149v404h140v-404h70z" />
    <glyph glyph-name="afii10092" unicode="&#x44a;" horiz-adv-x="625" 
d="M389 344q100 0 152.5 -44.5t52.5 -127.5q0 -84 -52.5 -128t-152.5 -44h-252v404h-131v104h271v-164h112zM277 101h93q84 0 84 71t-84 71h-93v-142z" />
    <glyph glyph-name="afii10093" unicode="&#x44b;" horiz-adv-x="802" 
d="M320 344q100 0 152.5 -44.5t52.5 -127.5q0 -84 -52.5 -128t-152.5 -44h-252v508h140v-164h112zM208 101h93q84 0 84 71t-84 71h-93v-142zM594 0v508h140v-508h-140z" />
    <glyph glyph-name="afii10094" unicode="&#x44c;" horiz-adv-x="556" 
d="M320 344q100 0 152.5 -44.5t52.5 -127.5q0 -84 -52.5 -128t-152.5 -44h-252v508h140v-164h112zM208 101h93q84 0 84 71t-84 71h-93v-142z" />
    <glyph glyph-name="afii10095" unicode="&#x44d;" horiz-adv-x="562" 
d="M406 490.5q58 -33.5 89.5 -94.5t31.5 -142t-31.5 -142t-89.5 -94.5t-135 -33.5q-102 0 -167 57t-73 152h143q3 -48 29.5 -76.5t68.5 -28.5q44 0 73 32t37 89h-168v100h166q-9 52 -37.5 81.5t-70.5 29.5t-68.5 -25.5t-30.5 -69.5h-142q6 58 37 103t83.5 70.5t119.5 25.5
q77 0 135 -33.5z" />
    <glyph glyph-name="afii10096" unicode="&#x44e;" horiz-adv-x="846" 
d="M688.5 491q58.5 -33 90.5 -94t32 -143t-32 -143t-90.5 -94t-137.5 -33q-106 0 -174 58t-82 160h-87v-202h-140v508h140v-202h87q14 102 82 160t174 58q79 0 137.5 -33zM633.5 136q30.5 44 30.5 118t-30.5 118t-82.5 44t-82.5 -44t-30.5 -118t30.5 -118t82.5 -44t82.5 44z
" />
    <glyph glyph-name="afii10097" unicode="&#x44f;" horiz-adv-x="563" 
d="M495 0h-135v166h-102h-14l-90 -166h-146l114 192q-84 42 -84 148q0 82 55 125t165 43h237v-508zM275 405q-51 0 -77 -16.5t-26 -52.5q0 -71 97 -71h91v140h-85z" />
    <glyph glyph-name="uni0450" unicode="&#x450;" horiz-adv-x="573" 
d="M356 102.5q27 19.5 32 51.5h143q-10 -47 -42.5 -86t-84 -61.5t-116.5 -22.5q-79 0 -136 34.5t-87 96.5t-30 143q0 76 30 136t87 95t135 35q87 0 149 -45.5t86 -123.5q16 -51 16 -130h-365q3 -74 34.5 -108t80.5 -34q41 0 68 19.5zM213.5 397q-29.5 -28 -37.5 -84h222
q-6 55 -36.5 83.5t-74.5 28.5t-73.5 -28zM371 566h-110l-140 146h173z" />
    <glyph glyph-name="afii10071" unicode="&#x451;" horiz-adv-x="573" 
d="M356 102.5q27 19.5 32 51.5h143q-10 -47 -42.5 -86t-84 -61.5t-116.5 -22.5q-79 0 -136 34.5t-87 96.5t-30 143q0 76 30 136t87 95t135 35q87 0 149 -45.5t86 -123.5q16 -51 16 -130h-365q3 -74 34.5 -108t80.5 -34q41 0 68 19.5zM213.5 397q-29.5 -28 -37.5 -84h222
q-6 55 -36.5 83.5t-74.5 28.5t-73.5 -28zM116 592v120h123v-120h-123zM333 592v120h123v-120h-123z" />
    <glyph glyph-name="afii10099" unicode="&#x452;" 
d="M487 412.5q50 -53.5 50 -154.5v-269q0 -92 -46.5 -135.5t-126.5 -43.5q-37 0 -69 8v101q12 -3 27 -3q39 0 57 20.5t18 73.5v234q0 56 -23.5 84t-65.5 28q-45 0 -72.5 -35.5t-27.5 -102.5v-218h-140v544h-74v88h74v80h140v-80h212v-88h-212v-146h2q26 34 62.5 51t77.5 17
q87 0 137 -53.5z" />
    <glyph glyph-name="afii10100" unicode="&#x453;" horiz-adv-x="441" 
d="M208 404v-404h-140v508h363v-104h-223zM165 566l77 146h173l-140 -146h-110z" />
    <glyph glyph-name="afii10101" unicode="&#x454;" horiz-adv-x="562" 
d="M358.5 116.5q26.5 28.5 29.5 76.5h143q-8 -95 -73 -152t-167 -57q-77 0 -135 33.5t-89.5 94.5t-31.5 142t31.5 142t89.5 94.5t135 33.5q67 0 119.5 -25.5t83.5 -70.5t37 -103h-142q-4 44 -30.5 69.5t-68.5 25.5t-70.5 -29.5t-37.5 -81.5h166v-100h-168q8 -57 37 -89
t73 -32q42 0 68.5 28.5z" />
    <glyph glyph-name="afii10102" unicode="&#x455;" horiz-adv-x="524" 
d="M414 480q56 -44 56 -128h-134q0 74 -80 74q-33 0 -51 -12.5t-18 -34.5q0 -18 11 -28.5t32 -17.5t66 -19q64 -17 101 -32t63.5 -48t26.5 -91q0 -72 -60.5 -115.5t-163.5 -43.5q-108 0 -168 45.5t-60 135.5h142q0 -38 23 -59t66 -21q36 0 55 13t19 36q0 21 -12 33.5
t-33.5 20t-71.5 20.5q-60 16 -93.5 29.5t-58 44.5t-24.5 86q0 45 26.5 80.5t74 55.5t109.5 20q101 0 157 -44z" />
    <glyph glyph-name="afii10103" unicode="&#x456;" horiz-adv-x="276" 
d="M68 592v120h140v-120h-140zM68 0v508h140v-508h-140z" />
    <glyph glyph-name="afii10104" unicode="&#x457;" horiz-adv-x="276" 
d="M68 0v508h140v-508h-140zM-10 592v120h123v-120h-123zM163 592v120h123v-120h-123z" />
    <glyph glyph-name="afii10105" unicode="&#x458;" horiz-adv-x="278" 
d="M70 592v120h140v-120h-140zM163.5 -146.5q-46.5 -43.5 -126.5 -43.5q-37 0 -69 8v101q12 -3 27 -3q39 0 57 20.5t18 73.5v498h140v-519q0 -92 -46.5 -135.5z" />
    <glyph glyph-name="afii10106" unicode="&#x459;" horiz-adv-x="854" 
d="M618 344q100 0 152.5 -44.5t52.5 -127.5q0 -84 -52.5 -128t-152.5 -44h-252v404h-119q-4 -170 -25.5 -258.5t-60.5 -120t-105 -31.5q-27 0 -50 6v99q10 -2 19 -2q33 0 51 30.5t28 118.5t13 262h389v-164h112zM506 101h93q84 0 84 71t-84 71h-93v-142z" />
    <glyph glyph-name="afii10107" unicode="&#x45a;" horiz-adv-x="893" 
d="M657 344q100 0 152.5 -44.5t52.5 -127.5q0 -84 -52.5 -128t-152.5 -44h-252v206h-197v-206h-140v508h140v-198h197v198h140v-164h112zM545 101h93q84 0 84 71t-84 71h-93v-142z" />
    <glyph glyph-name="afii10108" unicode="&#x45b;" 
d="M487 412.5q50 -53.5 50 -154.5v-258h-140v244q0 56 -23.5 84t-65.5 28q-45 0 -72.5 -35.5t-27.5 -102.5v-218h-140v544h-74v88h74v80h140v-80h212v-88h-212v-146h2q26 34 62.5 51t77.5 17q87 0 137 -53.5z" />
    <glyph glyph-name="afii10109" unicode="&#x45c;" horiz-adv-x="560" 
d="M380 0l-170 238h-2v-238h-140v508h140v-205h2l164 205h158l-193 -234l214 -274h-173zM206 566l77 146h173l-140 -146h-110z" />
    <glyph glyph-name="uni045D" unicode="&#x45d;" horiz-adv-x="670" 
d="M462 0v189q0 93 8 199h-2q-37 -97 -87 -188l-109 -200h-204v508h140v-190q0 -92 -8 -198h2q37 97 87 188l109 200h204v-508h-140zM421 566h-110l-140 146h173z" />
    <glyph glyph-name="afii10110" unicode="&#x45e;" horiz-adv-x="504" 
d="M271.5 -115.5q-31.5 -40.5 -75.5 -58t-109 -17.5q-39 0 -73 8v112q22 -8 54 -8q42 0 67.5 22.5t25.5 59.5q0 14 -4.5 32t-19.5 60l-144 413h150l52 -170q32 -107 56 -213h2q30 123 59 213l55 170h144l-182 -511q-26 -72 -57.5 -112.5zM376.5 600.5
q-46.5 -39.5 -124.5 -39.5t-124.5 39.5t-50.5 111.5h95q2 -30 23.5 -47t56.5 -17t56.5 17t23.5 47h95q-4 -72 -50.5 -111.5z" />
    <glyph glyph-name="afii10193" unicode="&#x45f;" horiz-adv-x="605" 
d="M370 0v-160h-140v160h-162v508h140v-404h189v404h140v-508h-167z" />
    <glyph glyph-name="afii10050" unicode="&#x490;" horiz-adv-x="508" 
d="M229 586v-586h-147v712h276v138h140v-264h-269z" />
    <glyph glyph-name="afii10098" unicode="&#x491;" horiz-adv-x="441" 
d="M208 404v-404h-140v508h233v160h130v-264h-223z" />
    <glyph glyph-name="uni0492" unicode="&#x492;" horiz-adv-x="508" 
d="M229 378h145v-106h-145v-272h-147v272h-64v106h64v334h416v-126h-269v-208z" />
    <glyph glyph-name="uni0493" unicode="&#x493;" horiz-adv-x="446" 
d="M213 278h126v-96h-126v-182h-140v182h-60v96h60v230h363v-104h-223v-126z" />
    <glyph glyph-name="uni0496" unicode="&#x496;" horiz-adv-x="918" 
d="M914 -160h-140v160h-34l-207 356h-2v-356h-144v356h-2l-207 -356h-174l245 374l-220 338h169l187 -333h2v333h144v-333h2l187 333h169l-220 -338l162 -248h83v-286z" />
    <glyph glyph-name="uni0497" unicode="&#x497;" horiz-adv-x="760" 
d="M772 -160h-140v160h-28l-154 259h-2v-259h-136v259h-2l-154 -259h-168l188 274l-168 234h153l149 -226h2v226h136v-226h2l149 226h153l-168 -234l117 -170h71v-264z" />
    <glyph glyph-name="uni049A" unicode="&#x49a;" horiz-adv-x="663" 
d="M659 -160h-140v160h-47l-241 336h-2v-336h-147v712h147v-313h2l233 313h172l-271 -338l195 -248h99v-286z" />
    <glyph glyph-name="uni049B" unicode="&#x49b;" horiz-adv-x="560" 
d="M553 -160h-140v160h-33l-170 238h-2v-238h-140v508h140v-205h2l164 205h158l-193 -234l133 -170h81v-264z" />
    <glyph glyph-name="uni049C" unicode="&#x49c;" horiz-adv-x="737" 
d="M380 307v-155h-110v155h-44v-307h-144v712h144v-279h44v155h110v-155h2l157 279h169l-219 -337l244 -375h-174l-177 307h-2z" />
    <glyph glyph-name="uni049D" unicode="&#x49d;" horiz-adv-x="618" 
d="M328 219v-119h-87v119h-37v-219h-136v508h136v-185h37v119h87v-119h5l122 185h153l-168 -234l188 -274h-168l-130 219h-2z" />
    <glyph glyph-name="uni04A2" unicode="&#x4a2;" horiz-adv-x="780" 
d="M618 -160v160h-97v307h-292v-307h-147v712h147v-279h292v279h147v-586h90v-286h-140z" />
    <glyph glyph-name="uni04A3" unicode="&#x4a3;" horiz-adv-x="623" 
d="M475 -160v160h-70v206h-197v-206h-140v508h140v-198h197v198h140v-404h70v-264h-140z" />
    <glyph glyph-name="uni04AE" unicode="&#x4ae;" horiz-adv-x="638" 
d="M392 0h-147v277l-243 435h165l68 -134q45 -89 83 -181h2q38 92 83 181l68 134h164l-243 -435v-277z" />
    <glyph glyph-name="uni04AF" unicode="&#x4af;" horiz-adv-x="510" 
d="M325 -13v-172h-140v172l-192 521h146l59 -176q29 -84 56 -196h2q27 112 56 196l59 176h146z" />
    <glyph glyph-name="uni04B2" unicode="&#x4b2;" horiz-adv-x="630" 
d="M627 -160h-140v160h-31l-140 252h-2l-140 -252h-171l223 362l-212 350h168l132 -246h2l132 246h168l-212 -350l145 -236h78v-286z" />
    <glyph glyph-name="uni04B3" unicode="&#x4b3;" horiz-adv-x="508" 
d="M514 -160h-140v160h-23l-96 172h-2l-96 -172h-163l174 261l-163 247h161l87 -149h2l87 149h161l-163 -247l105 -157h69v-264z" />
    <glyph glyph-name="uni04B8" unicode="&#x4b8;" horiz-adv-x="679" 
d="M597 0h-147v269q-31 -9 -75 -15v-134h-120v127q-108 5 -165 61.5t-57 157.5v246h147v-217q0 -89 75 -113v186h120v-191q40 4 75 14v321h147v-712z" />
    <glyph glyph-name="uni04B9" unicode="&#x4b9;" horiz-adv-x="558" 
d="M490 0h-140v184q-29 -8 -47 -10v-95h-87v87h-7q-87 0 -133.5 40.5t-46.5 115.5v186h140v-157q0 -31 11.5 -50t35.5 -26v146h87v-148q26 5 47 11v224h140v-508z" />
    <glyph glyph-name="uni04BA" unicode="&#x4ba;" horiz-adv-x="679" 
d="M229 712v-269q37 10 83.5 16t90.5 6q118 0 180.5 -56.5t62.5 -162.5v-246h-147v217q0 59 -34.5 90.5t-100.5 31.5q-34 0 -70 -5t-65 -13v-321h-147v712h147z" />
    <glyph glyph-name="uni04BB" unicode="&#x4bb;" 
d="M210 452q26 34 62.5 51t77.5 17q87 0 137 -53.5t50 -154.5v-312h-140v298q0 56 -23.5 84t-65.5 28q-45 0 -72.5 -35.5t-27.5 -102.5v-272h-140v712h140v-260h2z" />
    <glyph glyph-name="uni04C0" unicode="&#x4c0;" horiz-adv-x="311" 
d="M82 0v712h147v-712h-147z" />
    <glyph glyph-name="uni04CF" unicode="&#x4cf;" horiz-adv-x="276" 
d="M68 0v712h140v-712h-140z" />
    <glyph glyph-name="uni04D8" unicode="&#x4d8;" horiz-adv-x="764" 
d="M561.5 682.5q80.5 -45.5 123 -129.5t42.5 -196q0 -106 -42 -191t-121.5 -133.5t-185.5 -48.5q-104 0 -181 45.5t-118.5 129t-41.5 196.5q0 33 3 51h534q-6 99 -62.5 147t-141.5 48q-65 0 -106 -29.5t-51 -76.5h-157q15 65 55 117.5t106.5 84t154.5 31.5
q109 0 189.5 -45.5zM505.5 158q50.5 44 63.5 126h-378q12 -83 63 -126.5t124 -43.5q77 0 127.5 44z" />
    <glyph glyph-name="afii10846" unicode="&#x4d9;" horiz-adv-x="573" 
d="M419 490q58 -34 88.5 -95t30.5 -141q0 -77 -30 -138t-87.5 -96.5t-134.5 -35.5q-76 0 -133 33t-87.5 94t-30.5 143q0 18 2 34h363q-3 71 -35.5 104t-83.5 33q-37 0 -61 -18.5t-29 -47.5h-143q16 71 77.5 118t155.5 47q80 0 138 -34zM359.5 112.5q29.5 29.5 37.5 87.5
h-222q6 -58 36 -87.5t75 -29.5q44 0 73.5 29.5z" />
    <glyph glyph-name="uni04E8" unicode="&#x4e8;" horiz-adv-x="748" 
d="M554 683q76 -45 116.5 -128.5t40.5 -198.5t-40.5 -198.5t-116.5 -128.5t-180 -45t-180 45t-116.5 128.5t-40.5 198.5t40.5 198.5t116.5 128.5t180 45t180 -45zM247.5 556.5q-49.5 -49.5 -63.5 -137.5h381q-14 88 -63.5 137.5t-127.5 49.5q-77 0 -126.5 -49.5z
M501.5 155.5q49.5 49.5 63.5 137.5h-381q14 -88 63.5 -137.5t126.5 -49.5q78 0 127.5 49.5z" />
    <glyph glyph-name="uni04E9" unicode="&#x4e9;" horiz-adv-x="590" 
d="M432.5 491q58.5 -33 90.5 -94t32 -143t-32 -143t-90.5 -94t-137.5 -33t-137.5 33t-90.5 94t-32 143t32 143t90.5 94t137.5 33t137.5 -33zM217 389q-31 -33 -40 -90h235q-9 57 -40 90t-77 33q-47 0 -78 -33zM372 118.5q31 32.5 40 90.5h-235q9 -58 40 -90.5t78 -32.5
q46 0 77 32.5z" />
    <glyph glyph-name="Wgrave" unicode="&#x1e80;" horiz-adv-x="956" 
d="M607 0l-66 282q-37 157 -62 305h-2q-25 -148 -62 -305l-66 -282h-191l-149 712h144l51 -259q32 -162 52 -308h2q27 151 65 308l62 259h186l62 -259q38 -157 65 -308h2q20 146 52 308l51 259h144l-149 -712h-191zM561 760h-110l-140 146h173z" />
    <glyph glyph-name="wgrave" unicode="&#x1e81;" horiz-adv-x="810" 
d="M493 0l-45 200q-23 104 -42 217h-2q-19 -113 -42 -217l-45 -200h-200l-112 508h139l38 -196q24 -123 37 -221h2q18 112 43 219l45 198h192l45 -198q25 -107 43 -219h2q13 98 37 221l38 196h139l-112 -508h-200zM490 566h-110l-140 146h173z" />
    <glyph glyph-name="Wacute" unicode="&#x1e82;" horiz-adv-x="956" 
d="M607 0l-66 282q-37 157 -62 305h-2q-25 -148 -62 -305l-66 -282h-191l-149 712h144l51 -259q32 -162 52 -308h2q27 151 65 308l62 259h186l62 -259q38 -157 65 -308h2q20 146 52 308l51 259h144l-149 -712h-191zM391 760l77 146h173l-140 -146h-110z" />
    <glyph glyph-name="wacute" unicode="&#x1e83;" horiz-adv-x="810" 
d="M493 0l-45 200q-23 104 -42 217h-2q-19 -113 -42 -217l-45 -200h-200l-112 508h139l38 -196q24 -123 37 -221h2q18 112 43 219l45 198h192l45 -198q25 -107 43 -219h2q13 98 37 221l38 196h139l-112 -508h-200zM320 566l77 146h173l-140 -146h-110z" />
    <glyph glyph-name="Wdieresis" unicode="&#x1e84;" horiz-adv-x="956" 
d="M607 0l-66 282q-37 157 -62 305h-2q-25 -148 -62 -305l-66 -282h-191l-149 712h144l51 -259q32 -162 52 -308h2q27 151 65 308l62 259h186l62 -259q38 -157 65 -308h2q20 146 52 308l51 259h144l-149 -712h-191zM306 769v120h123v-120h-123zM523 769v120h123v-120h-123z
" />
    <glyph glyph-name="wdieresis" unicode="&#x1e85;" horiz-adv-x="810" 
d="M493 0l-45 200q-23 104 -42 217h-2q-19 -113 -42 -217l-45 -200h-200l-112 508h139l38 -196q24 -123 37 -221h2q18 112 43 219l45 198h192l45 -198q25 -107 43 -219h2q13 98 37 221l38 196h139l-112 -508h-200zM235 592v120h123v-120h-123zM452 592v120h123v-120h-123z
" />
    <glyph glyph-name="uni1E9E" unicode="&#x1e9e;" horiz-adv-x="801" 
d="M711 343.5q52 -57.5 52 -148.5q0 -100 -66.5 -154.5t-179.5 -54.5q-115 0 -175.5 52t-60.5 154h141q0 -42 23 -64t69 -22q45 0 70 23.5t25 67.5q0 63 -51.5 95t-153.5 39v100l121 133q-23 20 -55 31t-69 11q-90 0 -136 -49t-46 -145v-412h-147v409q0 156 87 236.5
t252 80.5q93 0 170.5 -37t127.5 -100l-149 -163q99 -25 151 -82.5z" />
    <glyph glyph-name="Ygrave" unicode="&#x1ef2;" horiz-adv-x="638" 
d="M392 0h-147v277l-243 435h165l68 -134q45 -89 83 -181h2q38 92 83 181l68 134h164l-243 -435v-277zM404 760h-110l-140 146h173z" />
    <glyph glyph-name="ygrave" unicode="&#x1ef3;" horiz-adv-x="504" 
d="M271.5 -115.5q-31.5 -40.5 -75.5 -58t-109 -17.5q-39 0 -73 8v112q22 -8 54 -8q42 0 67.5 22.5t25.5 59.5q0 14 -4.5 32t-19.5 60l-144 413h150l52 -170q32 -107 56 -213h2q30 123 59 213l55 170h144l-182 -511q-26 -72 -57.5 -112.5zM337 566h-110l-140 146h173z" />
    <glyph glyph-name="uni2010" unicode="&#x2010;" horiz-adv-x="320" 
d="M30 237v110h260v-110h-260z" />
    <glyph glyph-name="endash" unicode="&#x2013;" horiz-adv-x="500" 
d="M20 237v110h460v-110h-460z" />
    <glyph glyph-name="emdash" unicode="&#x2014;" horiz-adv-x="1000" 
d="M20 237v110h960v-110h-960z" />
    <glyph glyph-name="afii00208" unicode="&#x2015;" horiz-adv-x="1000" 
d="M20 237v110h960v-110h-960z" />
    <glyph glyph-name="underscoredbl" unicode="&#x2017;" horiz-adv-x="500" 
d="M0 -121v71h500v-71h-500zM0 -266v71h500v-71h-500z" />
    <glyph glyph-name="quoteleft" unicode="&#x2018;" horiz-adv-x="254" 
d="M125 712h71l-47 -146h44v-142h-131v142z" />
    <glyph glyph-name="quoteright" unicode="&#x2019;" horiz-adv-x="254" 
d="M129 424h-71l47 146h-44v142h131v-142z" />
    <glyph glyph-name="quotesinglbase" unicode="&#x201a;" horiz-adv-x="254" 
d="M129 -146h-71l47 146h-44v142h131v-142z" />
    <glyph glyph-name="quotereversed" unicode="&#x201b;" horiz-adv-x="254" 
d="M193 570h-44l47 -146h-71l-63 146v142h131v-142z" />
    <glyph glyph-name="quotedblleft" unicode="&#x201c;" horiz-adv-x="436" 
d="M125 712h71l-47 -146h44v-142h-131v142zM307 712h71l-47 -146h44v-142h-131v142z" />
    <glyph glyph-name="quotedblright" unicode="&#x201d;" horiz-adv-x="436" 
d="M129 424h-71l47 146h-44v142h131v-142zM311 424h-71l47 146h-44v142h131v-142z" />
    <glyph glyph-name="quotedblbase" unicode="&#x201e;" horiz-adv-x="436" 
d="M129 -146h-71l47 146h-44v142h131v-142zM311 -146h-71l47 146h-44v142h131v-142z" />
    <glyph glyph-name="dagger" unicode="&#x2020;" horiz-adv-x="564" 
d="M510 536v-111h-158v-545h-140v545h-158v111h158v176h140v-176h158z" />
    <glyph glyph-name="daggerdbl" unicode="&#x2021;" horiz-adv-x="564" 
d="M510 536v-111h-158v-258h158v-111h-158v-176h-140v176h-158v111h158v258h-158v111h158v176h140v-176h158z" />
    <glyph glyph-name="bullet" unicode="&#x2022;" horiz-adv-x="360" 
d="M110 235q-32 19 -51 51t-19 70t19 70.5t51 51t70 18.5t70.5 -18.5t51 -51t18.5 -70.5t-18.5 -70t-51 -51t-70.5 -19t-70 19z" />
    <glyph glyph-name="ellipsis" unicode="&#x2026;" horiz-adv-x="898" 
d="M52 0v167h154v-167h-154zM372 0v167h154v-167h-154zM692 0v167h154v-167h-154z" />
    <glyph glyph-name="perthousand" unicode="&#x2030;" horiz-adv-x="1091" 
d="M119 -30l420 734h84l-420 -734h-84zM284 645.5q38 -44.5 38 -126.5t-38 -126.5t-108 -44.5t-108 44.5t-38 126.5t38 126.5t108 44.5t108 -44.5zM139 590q-13 -25 -13 -71t13 -71t37 -25t37 25t13 71t-13 71t-37 25t-37 -25zM674 281.5q38 -44.5 38 -126.5t-38 -126.5
t-108 -44.5t-108 44.5t-38 126.5t38 126.5t108 44.5t108 -44.5zM1023 281.5q38 -44.5 38 -126.5t-38 -126.5t-108 -44.5t-108 44.5t-38 126.5t38 126.5t108 44.5t108 -44.5zM529 226q-13 -25 -13 -71t13 -71t37 -25t37 25t13 71t-13 71t-37 25t-37 -25zM878 226
q-13 -25 -13 -71t13 -71t37 -25t37 25t13 71t-13 71t-37 25t-37 -25z" />
    <glyph glyph-name="minute" unicode="&#x2032;" horiz-adv-x="215" 
d="M30 439l30 235h125l-67 -235h-88z" />
    <glyph glyph-name="second" unicode="&#x2033;" horiz-adv-x="399" 
d="M214 439l30 235h125l-67 -235h-88zM30 439l30 235h125l-67 -235h-88z" />
    <glyph glyph-name="guilsinglleft" unicode="&#x2039;" horiz-adv-x="324" 
d="M280 54h-122l-114 200l114 200h122l-108 -200z" />
    <glyph glyph-name="guilsinglright" unicode="&#x203a;" horiz-adv-x="324" 
d="M280 254l-114 -200h-122l108 200l-108 200h122z" />
    <glyph glyph-name="exclamdbl" unicode="&#x203c;" horiz-adv-x="574" 
d="M358 198l-31 514h170l-31 -514h-108zM335 0v132h154v-132h-154zM108 198l-31 514h170l-31 -514h-108zM85 0v132h154v-132h-154z" />
    <glyph glyph-name="uni203D" unicode="&#x203d;" horiz-adv-x="547" 
d="M468 586q42 -49 42 -123q0 -60 -22.5 -98.5t-85.5 -79.5q-48 -32 -63.5 -50t-15.5 -49h-119q-1 9 -1 25q0 37 7.5 60.5t27 43.5t60.5 50t53.5 49t12.5 49q0 34 -22.5 54t-64.5 20q-49 0 -74 -22t-27 -70h-146q2 84 44 136t120 69l-3 62h162l-4 -61q77 -16 119 -65z
M339 132v-132h-154v132h154z" />
    <glyph glyph-name="uni203E" unicode="&#x203e;" horiz-adv-x="500" 
d="M0 778v91h500v-91h-500z" />
    <glyph glyph-name="fraction" unicode="&#x2044;" horiz-adv-x="148" 
d="M-156 0l369 674h91l-369 -674h-91z" />
    <glyph glyph-name="uni2070" unicode="&#x2070;" horiz-adv-x="469" 
d="M385 748.5q53 -64.5 53 -182.5q0 -119 -53 -183t-150 -64q-99 0 -151.5 64t-52.5 183q0 118 52.5 182.5t151.5 64.5q97 0 150 -64.5zM177 678.5q-20 -39.5 -20 -112.5t20 -113t58 -40q37 0 56.5 40t19.5 113t-19.5 112.5t-56.5 39.5q-38 0 -58 -39.5z" />
    <glyph glyph-name="uni2074" unicode="&#x2074;" horiz-adv-x="449" 
d="M362 427v-97h-121v97h-230v97l190 278h161v-283h76v-92h-76zM245 519v52q0 64 5 144h-1q-37 -63 -84 -130l-46 -66h126z" />
    <glyph glyph-name="uni2075" unicode="&#x2075;" horiz-adv-x="452" 
d="M166 703l-9 -92h2q18 17 43 26t53 9q72 0 117.5 -43.5t45.5 -112.5q0 -78 -53.5 -124.5t-140.5 -46.5t-138.5 39t-51.5 107h124q1 -25 19 -39t46 -14q33 0 51 18.5t18 53.5q0 34 -18.5 53t-49.5 19q-25 0 -41 -12.5t-22 -32.5l-121 7l27 284h323v-99h-224z" />
    <glyph glyph-name="uni2076" unicode="&#x2076;" horiz-adv-x="448" 
d="M362.5 775q46.5 -38 51.5 -107h-125q-6 53 -56 53q-80 0 -84 -129h2q41 45 110 45q70 0 114.5 -42t44.5 -109q0 -49 -24 -87t-67.5 -59t-99.5 -21q-95 0 -146.5 60t-51.5 176q0 122 55 190t153 68q77 0 123.5 -38zM183 531q-18 -19 -18 -51q0 -30 18 -48.5t47 -18.5
t47 18.5t18 49.5t-17.5 50t-47.5 19q-29 0 -47 -19z" />
    <glyph glyph-name="uni2077" unicode="&#x2077;" horiz-adv-x="400" 
d="M295 531.5q-40 -97.5 -59 -201.5h-134q24 110 69.5 208.5t96.5 160.5h-257v103h378v-99q-54 -74 -94 -171.5z" />
    <glyph glyph-name="uni2078" unicode="&#x2078;" horiz-adv-x="451" 
d="M358 777q51 -36 51 -96q0 -38 -24 -66t-65 -39v-2q45 -10 72.5 -41t27.5 -75q0 -65 -52.5 -102t-142.5 -37t-142 37t-52 102q0 44 27 75t72 41v2q-41 11 -65 39t-24 66q0 60 51 96t133 36t133 -36zM176 707q-18 -14 -18 -37q0 -25 18 -39.5t49 -14.5t49 14.5t18 39.5
q0 23 -18 37t-49 14t-49 -14zM173.5 510.5q-19.5 -15.5 -19.5 -41.5t19.5 -41.5t51.5 -15.5q33 0 52 15.5t19 41.5t-19 41.5t-52 15.5q-32 0 -51.5 -15.5z" />
    <glyph glyph-name="uni2079" unicode="&#x2079;" horiz-adv-x="448" 
d="M85.5 357q-46.5 38 -51.5 107h125q6 -53 56 -53q80 0 84 129h-2q-40 -45 -110 -45t-114.5 42t-44.5 109q0 49 24 87t67.5 59t99.5 21q95 0 146.5 -60t51.5 -176q0 -122 -55 -190t-153 -68q-77 0 -123.5 38zM265 601.5q18 19.5 18 50.5q0 30 -18 48.5t-47 18.5t-47 -18.5
t-18 -49.5t17.5 -50t47.5 -19q29 0 47 19.5z" />
    <glyph glyph-name="uni207A" unicode="&#x207a;" horiz-adv-x="413" 
d="M368 598v-93h-114v-111h-95v111h-114v93h114v111h95v-111h114z" />
    <glyph glyph-name="uni207B" unicode="&#x207b;" horiz-adv-x="413" 
d="M45 505v93h323v-93h-323z" />
    <glyph glyph-name="uni207C" unicode="&#x207c;" horiz-adv-x="413" 
d="M45 579v89h323v-89h-323zM45 435v89h323v-89h-323z" />
    <glyph glyph-name="uni207D" unicode="&#x207d;" horiz-adv-x="251" 
d="M174 693q-17 -74 -17 -155t17 -154.5t56 -156.5h-97q-54 75 -79 149.5t-25 161.5t25 162t79 149h97q-39 -82 -56 -156z" />
    <glyph glyph-name="uni207E" unicode="&#x207e;" horiz-adv-x="251" 
d="M77 383q17 74 17 155t-17 154.5t-56 156.5h97q54 -75 79 -149.5t25 -161.5t-25 -162t-79 -149h-97q39 82 56 156z" />
    <glyph glyph-name="uni2080" unicode="&#x2080;" horiz-adv-x="469" 
d="M385 246.5q53 -64.5 53 -182.5q0 -119 -53 -183t-150 -64q-99 0 -151.5 64t-52.5 183q0 118 52.5 182.5t151.5 64.5q97 0 150 -64.5zM177 176.5q-20 -39.5 -20 -112.5t20 -113t58 -40q37 0 56.5 40t19.5 113t-19.5 112.5t-56.5 39.5q-38 0 -58 -39.5z" />
    <glyph glyph-name="uni2081" unicode="&#x2081;" horiz-adv-x="326" 
d="M138 -172v301h-128v89q67 0 100 19t41 63h111v-472h-124z" />
    <glyph glyph-name="uni2082" unicode="&#x2082;" horiz-adv-x="458" 
d="M363 272q50 -39 50 -102q0 -57 -32 -92t-95 -66q-62 -30 -82.5 -47.5t-22.5 -37.5h244v-99h-389q-1 7 -1 23q0 75 30 123.5t110 90.5q60 31 85 52.5t25 51.5q0 21 -14.5 34t-40.5 13q-63 0 -65 -69h-124q1 79 51 121.5t138 42.5q83 0 133 -39z" />
    <glyph glyph-name="uni2083" unicode="&#x2083;" horiz-adv-x="452" 
d="M362.5 275q49.5 -36 49.5 -98q0 -39 -20.5 -63.5t-64.5 -40.5v-2q47 -15 69 -42t22 -70q0 -65 -51.5 -103.5t-137.5 -38.5q-97 0 -148.5 43t-51.5 125h125q0 -36 19 -54.5t56 -18.5q29 0 47 14t18 37q0 56 -87 56h-14v92h16q37 0 58.5 14.5t21.5 39.5q0 23 -17 37t-46 14
q-67 0 -67 -70h-123q0 78 50.5 121.5t141.5 43.5q85 0 134.5 -36z" />
    <glyph glyph-name="uni2084" unicode="&#x2084;" horiz-adv-x="449" 
d="M361 -75v-97h-121v97h-230v97l190 278h161v-283h76v-92h-76zM244 17v52q0 64 5 144h-1q-37 -63 -84 -130l-46 -66h126z" />
    <glyph glyph-name="uni2085" unicode="&#x2085;" horiz-adv-x="452" 
d="M166 201l-9 -92h2q18 17 43 26t53 9q72 0 117.5 -43.5t45.5 -112.5q0 -78 -53.5 -124.5t-140.5 -46.5t-138.5 39t-51.5 107h124q1 -25 19 -39t46 -14q33 0 51 18.5t18 53.5q0 34 -18.5 53t-49.5 19q-25 0 -41 -12.5t-22 -32.5l-121 7l27 284h323v-99h-224z" />
    <glyph glyph-name="uni2086" unicode="&#x2086;" horiz-adv-x="448" 
d="M362.5 273q46.5 -38 51.5 -107h-125q-6 53 -56 53q-80 0 -84 -129h2q41 45 110 45q70 0 114.5 -42t44.5 -109q0 -49 -24 -87t-67.5 -59t-99.5 -21q-95 0 -146.5 60t-51.5 176q0 122 55 190t153 68q77 0 123.5 -38zM183 29q-18 -19 -18 -51q0 -30 18 -48.5t47 -18.5
t47 18.5t18 49.5t-17.5 50t-47.5 19q-29 0 -47 -19z" />
    <glyph glyph-name="uni2087" unicode="&#x2087;" horiz-adv-x="400" 
d="M294 29.5q-40 -97.5 -59 -201.5h-134q24 110 69.5 208.5t96.5 160.5h-257v103h378v-99q-54 -74 -94 -171.5z" />
    <glyph glyph-name="uni2088" unicode="&#x2088;" horiz-adv-x="451" 
d="M358 275q51 -36 51 -96q0 -38 -24 -66t-65 -39v-2q45 -10 72.5 -41t27.5 -75q0 -65 -52.5 -102t-142.5 -37t-142 37t-52 102q0 44 27 75t72 41v2q-41 11 -65 39t-24 66q0 60 51 96t133 36t133 -36zM176 205q-18 -14 -18 -37q0 -25 18 -39.5t49 -14.5t49 14.5t18 39.5
q0 23 -18 37t-49 14t-49 -14zM173.5 8.5q-19.5 -15.5 -19.5 -41.5t19.5 -41.5t51.5 -15.5q33 0 52 15.5t19 41.5t-19 41.5t-52 15.5q-32 0 -51.5 -15.5z" />
    <glyph glyph-name="uni2089" unicode="&#x2089;" horiz-adv-x="448" 
d="M85.5 -145q-46.5 38 -51.5 107h125q6 -53 56 -53q80 0 84 129h-2q-40 -45 -110 -45t-114.5 42t-44.5 109q0 49 24 87t67.5 59t99.5 21q95 0 146.5 -60t51.5 -176q0 -122 -55 -190t-153 -68q-77 0 -123.5 38zM265 99.5q18 19.5 18 50.5q0 30 -18 48.5t-47 18.5t-47 -18.5
t-18 -49.5t17.5 -50t47.5 -19q29 0 47 19.5z" />
    <glyph glyph-name="uni208A" unicode="&#x208a;" horiz-adv-x="413" 
d="M368 96v-93h-114v-111h-95v111h-114v93h114v111h95v-111h114z" />
    <glyph glyph-name="uni208B" unicode="&#x208b;" horiz-adv-x="413" 
d="M45 3v93h323v-93h-323z" />
    <glyph glyph-name="uni208C" unicode="&#x208c;" horiz-adv-x="413" 
d="M45 77v89h323v-89h-323zM45 -67v89h323v-89h-323z" />
    <glyph glyph-name="uni208D" unicode="&#x208d;" horiz-adv-x="251" 
d="M174 191q-17 -74 -17 -155t17 -154.5t56 -156.5h-97q-54 75 -79 149.5t-25 161.5t25 162t79 149h97q-39 -82 -56 -156z" />
    <glyph glyph-name="uni208E" unicode="&#x208e;" horiz-adv-x="251" 
d="M77 -119q17 74 17 155t-17 154.5t-56 156.5h97q54 -75 79 -149.5t25 -161.5t-25 -162t-79 -149h-97q39 82 56 156z" />
    <glyph glyph-name="uni2099" unicode="&#x2099;" horiz-adv-x="446" 
d="M366.5 155.5q35.5 -37.5 35.5 -108.5v-219h-120v205q0 33 -13.5 50t-39.5 17q-29 0 -45 -22.5t-16 -66.5v-183h-120v356h112v-43h1q40 52 107 52q63 0 98.5 -37.5z" />
    <glyph glyph-name="franc" unicode="&#x20a3;" 
d="M249 422h299v-126h-299v-92h164v-107h-164v-97h-147v97h-78v107h78v470h471v-126h-324v-126z" />
    <glyph glyph-name="lira" unicode="&#x20a4;" 
d="M565 116v-116h-541v118q43 0 65.5 27t24.5 90h-90v70h90v40h-90v70h90v36q0 120 60 179.5t176 59.5q104 0 163 -58t59 -159h-141q0 47 -21 72t-60 25q-89 0 -89 -119v-36h122v-70h-122v-40h122v-70h-122q-2 -46 -16 -73t-46 -44v-2h366z" />
    <glyph glyph-name="peseta" unicode="&#x20a7;" horiz-adv-x="895" 
d="M870 110v-107q-32 -10 -74 -10q-88 0 -128 38.5t-40 126.5v246h-49q-12 -89 -78 -139.5t-180 -50.5h-92v-214h-147v674h239q106 0 171 -44t83 -122h53v132h140v-132h97v-104h-97v-221q0 -42 15 -60t51 -18q21 0 36 5zM432 444q0 108 -131 108h-72v-216h72q131 0 131 108z
" />
    <glyph glyph-name="Euro" unicode="&#x20ac;" 
d="M509 44.5q-68 -60.5 -177 -60.5q-114 0 -183.5 66.5t-87.5 192.5h-60l13 70h40v24v16h-53l13 70h45q18 129 88.5 198t187.5 69q110 0 175.5 -59.5t72.5 -163.5h-138q-8 49 -36 76.5t-74 27.5q-53 0 -87 -37.5t-46 -110.5h219l-13 -70h-212v-16v-24h204l-13 -70h-183
q12 -69 44.5 -104.5t83.5 -35.5q46 0 75.5 28.5t37.5 78.5h141q-9 -105 -77 -165.5z" />
    <glyph glyph-name="uni20B9" unicode="&#x20b9;" 
d="M459 520h114l-24 -86h-88q-12 -51 -52.5 -84t-105.5 -45v-2q34 -13 60.5 -41.5t52.5 -81.5l88 -180h-168l-78 170q-25 55 -57.5 79t-79.5 24h-16v93h47q54 0 90 18t51 50h-265l24 86h247q-22 68 -138 68h-133l24 86h521l-24 -86h-150v-2q46 -20 60 -66z" />
    <glyph glyph-name="uni20BA" unicode="&#x20ba;" 
d="M494 76q-89 -84 -254 -84q-70 0 -140 8v243l-87 -47v90l87 47v67l-87 -47v90l87 47v184h147v-113l166 90v-90l-166 -90v-67l166 90v-90l-166 -90v-193q89 0 136.5 51t47.5 150h152q0 -162 -89 -246z" />
    <glyph glyph-name="uni20BC" unicode="&#x20bc;" horiz-adv-x="716" 
d="M101.5 531q61.5 77 190.5 88v93h132v-93q129 -11 190.5 -88t61.5 -233v-298h-132v294q0 100 -27 145.5t-93 52.5v-492h-132v492q-65 -7 -92.5 -53t-27.5 -145v-294h-132v298q0 156 61.5 233z" />
    <glyph glyph-name="uni20BD" unicode="&#x20bd;" 
d="M517.5 618q61.5 -56 61.5 -153q0 -98 -61.5 -154t-178.5 -56h-104v-54h181v-106h-181v-95h-147v95h-79v106h79v54h-79v112h79v307h251q117 0 178.5 -56zM235 367h83q110 0 110 98q0 46 -26.5 71.5t-83.5 25.5h-83v-195z" />
    <glyph glyph-name="afii61248" unicode="&#x2105;" horiz-adv-x="946" 
d="M342 649.5q50 -40.5 56 -107.5h-124q-2 26 -17.5 41.5t-40.5 15.5q-30 0 -48 -26t-18 -71q0 -47 18 -73.5t49 -26.5q23 0 39 18t17 47h125q-5 -71 -54.5 -113t-128.5 -42q-87 0 -139 51.5t-52 138.5q0 86 52 137t139 51q77 0 127 -40.5zM235 0l369 674h91l-369 -674h-91z
M869.5 310.5q52.5 -51.5 52.5 -137.5q0 -87 -52.5 -138t-141.5 -51t-141.5 51t-52.5 138q0 86 52.5 137.5t141.5 51.5t141.5 -51.5zM678 245q-18 -26 -18 -72t18.5 -72.5t49.5 -26.5t49.5 26.5t18.5 72.5t-18 72t-50 26t-50 -26z" />
    <glyph glyph-name="afii61289" unicode="&#x2113;" horiz-adv-x="450" 
d="M239 108q16 -19 52 -19q22 0 47 7v-95q-39 -11 -83 -11q-88 0 -129.5 42.5t-41.5 132.5v22q-29 2 -49 6v77q22 -4 49 -6v203q0 85 17 133.5t50.5 69t87.5 20.5q71 0 114.5 -47.5t43.5 -149.5q0 -119 -46 -190.5t-128 -98.5v-36q0 -41 16 -60zM232.5 579.5
q-9.5 -21.5 -9.5 -82.5v-206q91 55 91 202q0 108 -49 108q-23 0 -32.5 -21.5z" />
    <glyph glyph-name="afii61352" unicode="&#x2116;" horiz-adv-x="1183" 
d="M485 0l-138 289q-76 161 -130 294h-2q8 -165 8 -309v-274h-141v712h209l138 -289q76 -161 130 -294h2q-8 165 -8 309v274h141v-712h-209zM1106.5 569.5q52.5 -51.5 52.5 -137.5q0 -87 -52.5 -138t-141.5 -51t-141.5 51t-52.5 138q0 86 52.5 137.5t141.5 51.5t141.5 -51.5
zM915 504q-18 -26 -18 -72t18.5 -72.5t49.5 -26.5t49.5 26.5t18.5 72.5t-18 72t-50 26t-50 -26zM788 89v105h351v-105h-351z" />
    <glyph glyph-name="uni2117" unicode="&#x2117;" horiz-adv-x="802" 
d="M589.5 680q81.5 -46 126.5 -130t45 -194t-45 -194t-126.5 -130t-188.5 -46t-188.5 46t-126.5 130t-45 194t45 194t126.5 130t188.5 46t188.5 -46zM240.5 631.5q-69.5 -39.5 -107.5 -110.5t-38 -165t38 -165t107.5 -110.5t160.5 -39.5t160.5 39.5t108 110.5t38.5 165
t-38.5 165t-108 110.5t-160.5 39.5t-160.5 -39.5zM563 537.5q43 -39.5 43 -108.5t-43 -108.5t-127 -39.5h-84v-155h-94v451h178q84 0 127 -39.5zM352 360h71q86 0 86 69q0 33 -21 51.5t-65 18.5h-71v-139z" />
    <glyph glyph-name="trademark" unicode="&#x2122;" horiz-adv-x="829" 
d="M210 629v-273h-99v273h-106v83h311v-83h-106zM698 356v163q0 65 3 129h-2l-30 -127l-41 -165h-114l-41 165l-30 127h-2q3 -64 3 -129v-163h-90v356h152l36 -141q18 -72 28 -131h2q10 59 28 131l36 141h152v-356h-90z" />
    <glyph glyph-name="uni2126" unicode="&#x2126;" horiz-adv-x="734" 
d="M603.5 648q88.5 -80 88.5 -234q0 -87 -36.5 -154.5t-102.5 -133.5v-2h150v-124h-286v130q59 60 91 121t32 141q0 100 -47 153t-126 53t-126 -53t-47 -153q0 -80 32 -141t91 -121v-130h-286v124h150v2q-66 66 -102.5 133.5t-36.5 154.5q0 154 88.5 234t236.5 80t236.5 -80
z" />
    <glyph glyph-name="estimated" unicode="&#x212e;" horiz-adv-x="863" 
d="M636.5 641q86.5 -49 132.5 -132t46 -181h-612q-6 0 -10 -4t-4 -9v-167q0 -16 3.5 -25.5t12.5 -18.5q93 -91 227 -91q72 0 135.5 30.5t103.5 79.5h69q-40 -56 -118 -95.5t-190 -39.5q-114 0 -201.5 45t-135.5 124t-48 180q0 100 46.5 180.5t134 126.5t204.5 46
q118 0 204.5 -49zM205 570q-9 -8 -12.5 -17t-3.5 -24v-167q0 -5 4 -8.5t10 -3.5h456q6 0 9.5 3.5t3.5 8.5v167q0 15 -3 24t-12 17q-95 94 -225 94q-133 0 -227 -94z" />
    <glyph glyph-name="oneeighth" unicode="&#x215b;" horiz-adv-x="822" 
d="M112 270v252h-103v81q50 0 77.5 18t36.5 53h106v-404h-117zM121 0l369 674h91l-369 -674h-91zM741.5 382q44.5 -32 44.5 -84q0 -32 -20.5 -55.5t-56.5 -31.5v-2q40 -7 63.5 -33.5t23.5 -63.5q0 -57 -46 -89.5t-127 -32.5t-126.5 32t-45.5 90q0 37 24 63t64 34v2
q-36 8 -57 31.5t-21 55.5q0 52 45 84t117 32q74 0 118.5 -32zM583 320.5q-15 -11.5 -15 -30.5t15 -31t40 -12q26 0 41.5 11.5t15.5 31.5q0 19 -15.5 30.5t-41.5 11.5q-25 0 -40 -11.5zM581 153.5q-16 -12.5 -16 -33.5t15.5 -33.5t42.5 -12.5q28 0 44 12.5t16 33.5
t-16.5 33.5t-43.5 12.5q-26 0 -42 -12.5z" />
    <glyph glyph-name="threeeighths" unicode="&#x215c;" horiz-adv-x="945" 
d="M321 652.5q45 -31.5 45 -84.5q0 -33 -17.5 -53.5t-56.5 -34.5v-1q41 -13 60 -36.5t19 -61.5q0 -57 -44.5 -89t-123.5 -32q-85 0 -131.5 37t-46.5 107h114q0 -58 64 -58q25 0 40.5 11t15.5 30q0 22 -18.5 33.5t-53.5 11.5h-14v82h13q32 0 50.5 12.5t18.5 33.5q0 17 -15 28
t-40 11q-28 0 -43 -14.5t-15 -40.5h-111q0 66 45 103t124 37q76 0 121 -31.5zM244 0l369 674h91l-369 -674h-91zM864.5 382q44.5 -32 44.5 -84q0 -32 -20.5 -55.5t-56.5 -31.5v-2q40 -7 63.5 -33.5t23.5 -63.5q0 -57 -46 -89.5t-127 -32.5t-126.5 32t-45.5 90q0 37 24 63
t64 34v2q-36 8 -57 31.5t-21 55.5q0 52 45 84t117 32q74 0 118.5 -32zM706 320.5q-15 -11.5 -15 -30.5t15 -31t40 -12q26 0 41.5 11.5t15.5 31.5q0 19 -15.5 30.5t-41.5 11.5q-25 0 -40 -11.5zM704 153.5q-16 -12.5 -16 -33.5t15.5 -33.5t42.5 -12.5q28 0 44 12.5t16 33.5
t-16.5 33.5t-43.5 12.5q-26 0 -42 -12.5z" />
    <glyph glyph-name="fiveeighths" unicode="&#x215d;" horiz-adv-x="944" 
d="M150 584l-8 -71h2q32 28 85 28q63 0 102.5 -38t39.5 -99q0 -65 -47 -104.5t-124 -39.5q-78 0 -124 34t-46 93h115q1 -21 15.5 -32.5t38.5 -11.5q28 0 43.5 16t15.5 44q0 27 -15.5 42.5t-41.5 15.5q-23 0 -37 -10t-18 -28l-111 7l24 244h287v-90h-196zM243 0l369 674h91
l-369 -674h-91zM863.5 382q44.5 -32 44.5 -84q0 -32 -20.5 -55.5t-56.5 -31.5v-2q40 -7 63.5 -33.5t23.5 -63.5q0 -57 -46 -89.5t-127 -32.5t-126.5 32t-45.5 90q0 37 24 63t64 34v2q-36 8 -57 31.5t-21 55.5q0 52 45 84t117 32q74 0 118.5 -32zM705 320.5
q-15 -11.5 -15 -30.5t15 -31t40 -12q26 0 41.5 11.5t15.5 31.5q0 19 -15.5 30.5t-41.5 11.5q-25 0 -40 -11.5zM703 153.5q-16 -12.5 -16 -33.5t15.5 -33.5t42.5 -12.5q28 0 44 12.5t16 33.5t-16.5 33.5t-43.5 12.5q-26 0 -42 -12.5z" />
    <glyph glyph-name="seveneighths" unicode="&#x215e;" horiz-adv-x="848" 
d="M262.5 441.5q-34.5 -82.5 -52.5 -171.5h-122q20 92 59.5 175t84.5 138h-223v91h334v-89q-46 -61 -80.5 -143.5zM147 0l369 674h91l-369 -674h-91zM767.5 382q44.5 -32 44.5 -84q0 -32 -20.5 -55.5t-56.5 -31.5v-2q40 -7 63.5 -33.5t23.5 -63.5q0 -57 -46 -89.5
t-127 -32.5t-126.5 32t-45.5 90q0 37 24 63t64 34v2q-36 8 -57 31.5t-21 55.5q0 52 45 84t117 32q74 0 118.5 -32zM609 320.5q-15 -11.5 -15 -30.5t15 -31t40 -12q26 0 41.5 11.5t15.5 31.5q0 19 -15.5 30.5t-41.5 11.5q-25 0 -40 -11.5zM607 153.5q-16 -12.5 -16 -33.5
t15.5 -33.5t42.5 -12.5q28 0 44 12.5t16 33.5t-16.5 33.5t-43.5 12.5q-26 0 -42 -12.5z" />
    <glyph glyph-name="uni2166" unicode="&#x2166;" horiz-adv-x="1240" 
d="M227 0l-221 712h150l85 -277q46 -146 77 -291h2q28 127 77 291l85 277h150l-221 -712h-184zM700 0v712h147v-712h-147zM1011 0v712h147v-712h-147z" />
    <glyph glyph-name="partialdiff" unicode="&#x2202;" horiz-adv-x="625" 
d="M489.5 639q69.5 -89 69.5 -259q0 -135 -35.5 -223.5t-97.5 -130.5t-141 -42q-119 0 -183 66t-64 175q0 73 29.5 130.5t85 90.5t131.5 33q45 0 79 -14.5t55 -37.5h2q1 7 1 23q0 48 -17 84.5t-46 56.5t-65 20q-76 0 -87 -75h-145q9 89 65.5 140.5t158.5 51.5
q135 0 204.5 -89zM214.5 332q-31.5 -42 -31.5 -108q0 -58 27.5 -90.5t79.5 -32.5q54 0 86 39.5t32 104.5q0 60 -29 94.5t-80 34.5q-53 0 -84.5 -42z" />
    <glyph glyph-name="uni2206" unicode="&#x2206;" horiz-adv-x="698" 
d="M3 0l249 712h198l245 -712h-692zM429 347q-43 138 -80 278h-2q-32 -122 -81 -278l-71 -221h304z" />
    <glyph glyph-name="product" unicode="&#x220f;" horiz-adv-x="679" 
d="M451 -120v706h-222v-706h-147v832h515v-832h-146z" />
    <glyph glyph-name="summation" unicode="&#x2211;" horiz-adv-x="515" 
d="M197 584l173 -289l-173 -286h283v-129h-445v129l176 286l-176 289v128h445v-128h-283z" />
    <glyph glyph-name="minus" unicode="&#x2212;" horiz-adv-x="566" 
d="M64 262v109h438v-109h-438z" />
    <glyph glyph-name="uni2215" unicode="&#x2215;" horiz-adv-x="488" 
d="M30 -89l298 834h109l-298 -834h-109z" />
    <glyph glyph-name="uni2219" unicode="&#x2219;" horiz-adv-x="362" 
d="M104 222v167h154v-167h-154z" />
    <glyph glyph-name="radical" unicode="&#x221a;" horiz-adv-x="641" 
d="M198 -120l-90 385h-83v112h177l91 -380h2l204 715h122l-238 -832h-185z" />
    <glyph glyph-name="infinity" unicode="&#x221e;" horiz-adv-x="674" 
d="M616 431.5q43 -46.5 43 -123.5t-43 -123.5t-114 -46.5q-54 0 -93 24.5t-72 66.5q-34 -43 -72.5 -67t-92.5 -24q-71 0 -114 46.5t-43 123.5t43 123.5t114 46.5q54 0 92.5 -24t72.5 -67q33 42 72 66.5t93 24.5q71 0 114 -46.5zM234 257.5q22 17.5 46 50.5q-24 33 -46 50.5
t-50 17.5q-30 0 -47 -18.5t-17 -49.5t17 -49.5t47 -18.5q28 0 50 17.5zM537 258.5q17 18.5 17 49.5t-17 49.5t-47 18.5q-28 0 -50.5 -17.5t-46.5 -50.5q24 -33 46.5 -50.5t50.5 -17.5q30 0 47 18.5z" />
    <glyph glyph-name="integral" unicode="&#x222b;" horiz-adv-x="352" 
d="M344 712v-99q-9 3 -25 3q-38 0 -56 -18.5t-18 -60.5v-564q0 -83 -43 -124.5t-125 -41.5q-35 0 -69 8v99q9 -3 25 -3q38 0 56 18.5t18 60.5v564q0 83 43 124.5t125 41.5q35 0 69 -8z" />
    <glyph glyph-name="approxequal" unicode="&#x2248;" horiz-adv-x="566" 
d="M246 499.5q23 -11.5 53 -32.5q22 -16 37.5 -24.5t31.5 -8.5q24 0 38 17.5t14 46.5h86q0 -75 -36.5 -120.5t-97.5 -45.5q-29 0 -52.5 11.5t-52.5 32.5q-24 17 -39 25t-30 8q-25 0 -38.5 -17t-13.5 -47h-86q0 75 36.5 120.5t97.5 45.5q29 0 52 -11.5zM246 290.5
q23 -11.5 53 -32.5q22 -16 37.5 -24.5t31.5 -8.5q25 0 38.5 17t13.5 47h86q0 -75 -36.5 -120.5t-97.5 -45.5q-29 0 -52.5 11.5t-52.5 32.5q-24 17 -39 25t-30 8q-24 0 -38 -17.5t-14 -46.5h-86q0 75 36.5 120.5t97.5 45.5q29 0 52 -11.5z" />
    <glyph glyph-name="notequal" unicode="&#x2260;" horiz-adv-x="566" 
d="M309 276h193v-109h-255l-67 -117h-98l67 117h-85v109h146l47 81h-193v109h254l67 117h99l-67 -117h85v-109h-147z" />
    <glyph glyph-name="lessequal" unicode="&#x2264;" horiz-adv-x="566" 
d="M193 345v-2l309 -104v-110l-438 148v134l438 148v-110zM502 0h-438v105h438v-105z" />
    <glyph glyph-name="greaterequal" unicode="&#x2265;" horiz-adv-x="566" 
d="M502 277l-438 -148v110l309 104v2l-309 104v110l438 -148v-134zM64 0v105h438v-105h-438z" />
    <glyph glyph-name="lozenge" unicode="&#x25ca;" horiz-adv-x="644" 
d="M415 0h-186l-189 356l189 356h186l189 -356zM322 100l138 256l-138 256l-138 -256z" />
    <glyph glyph-name="uniF8FF" unicode="&#xf8ff;" horiz-adv-x="642" 
d="M589.5 740.5q36.5 -36.5 36.5 -98.5v-572q0 -62 -36.5 -98.5t-98.5 -36.5h-340q-62 0 -98.5 36.5t-36.5 98.5v572q0 62 36.5 98.5t98.5 36.5h340q62 0 98.5 -36.5zM99 694q-19 -19 -19 -52v-572q0 -33 19 -52t52 -19h340q33 0 52 19t19 52v572q0 33 -19 52t-52 19h-340
q-33 0 -52 -19zM455 606.5q48 -40.5 48 -110.5q0 -41 -15 -69.5t-57 -67.5q-40 -37 -52.5 -64t-12.5 -76h-102q-1 11 -1 31q0 55 13 85t54 72q30 30 38.5 46.5t8.5 40.5t-14 38t-40 14q-32 0 -47.5 -19t-16.5 -61h-125q1 88 50.5 134.5t138.5 46.5q84 0 132 -40.5zM251 65
v112h128v-112h-128z" />
    <glyph glyph-name="uniFB00" unicode="&#xfb00;" horiz-adv-x="652" 
d="M561 597.5q-18 -18.5 -18 -60.5v-29h96v-104h-96v-404h-138v404h-173v-404h-138v404h-84v104h84v46q0 83 43 124.5t125 41.5q35 0 69 -8v-99q-9 3 -25 3q-38 0 -56 -18.5t-18 -60.5v-29h173v46q0 83 43 124.5t125 41.5q35 0 69 -8v-99q-9 3 -25 3q-38 0 -56 -18.5z" />
    <glyph glyph-name="uniFB01" unicode="&#xfb01;" horiz-adv-x="617" 
d="M137 678.5q43 41.5 125 41.5q35 0 69 -8v-99q-9 3 -25 3q-38 0 -56 -18.5t-18 -60.5v-29h96v-104h-96v-404h-138v404h-84v104h84v46q0 83 43 124.5zM549 592h-140v120h140v-120zM549 508v-508h-140v508h140z" />
    <glyph glyph-name="uniFB02" unicode="&#xfb02;" horiz-adv-x="617" 
d="M250 597.5q-18 -18.5 -18 -60.5v-29h96v-104h-96v-404h-138v404h-84v104h84v46q0 83 43 124.5t125 41.5q35 0 69 -8v-99q-9 3 -25 3q-38 0 -56 -18.5zM409 0v712h140v-712h-140z" />
    <glyph glyph-name="uniFB03" unicode="&#xfb03;" horiz-adv-x="928" 
d="M448 678.5q43 41.5 125 41.5q35 0 69 -8v-99q-9 3 -25 3q-38 0 -56 -18.5t-18 -60.5v-29h96v-104h-96v-404h-138v404h-173v-404h-138v404h-84v104h84v46q0 83 43 124.5t125 41.5q35 0 69 -8v-99q-9 3 -25 3q-38 0 -56 -18.5t-18 -60.5v-29h173v46q0 83 43 124.5zM860 592
h-140v120h140v-120zM860 508v-508h-140v508h140z" />
    <glyph glyph-name="uniFB04" unicode="&#xfb04;" horiz-adv-x="928" 
d="M448 678.5q43 41.5 125 41.5q35 0 69 -8v-99q-9 3 -25 3q-38 0 -56 -18.5t-18 -60.5v-29h96v-104h-96v-404h-138v404h-173v-404h-138v404h-84v104h84v46q0 83 43 124.5t125 41.5q35 0 69 -8v-99q-9 3 -25 3q-38 0 -56 -18.5t-18 -60.5v-29h173v46q0 83 43 124.5zM860 0
h-140v712h140v-712z" />
    <glyph glyph-name="uniFEFF" unicode="&#xfeff;" horiz-adv-x="0" 
 />
    <glyph glyph-name="glyph202" horiz-adv-x="392" 
d="M258.5 49.5q-56.5 -56.5 -178.5 -56.5q-38 0 -65 8v125q27 -5 47 -5q38 0 60.5 11.5t34 41t11.5 84.5v454h147v-485q0 -121 -56.5 -177.5zM157 770l77 146h173l-140 -146h-110z" />
    <glyph glyph-name="Ccedilla.salt" horiz-adv-x="701" 
d="M515.5 695q65.5 -33 102.5 -93t40 -137h-148q-7 62 -46 97.5t-101 35.5q-81 0 -127.5 -64.5t-46.5 -177.5t45.5 -177.5t125.5 -64.5q63 0 102.5 35.5t47.5 100.5h151q-10 -126 -90 -196t-211 -70q-99 0 -172 45t-112 128.5t-39 198.5q0 114 39.5 198t113 129t173.5 45
q87 0 152.5 -33zM176 -217l140 168h120l-97 -168h-163z" />
    <glyph glyph-name="Scedilla.salt" horiz-adv-x="630" 
d="M502.5 668.5q68.5 -59.5 68.5 -174.5h-149q0 56 -32 86.5t-92 30.5q-49 0 -79 -21.5t-30 -56.5q0 -27 15 -44t47 -29.5t93 -27.5q83 -21 134 -42.5t83.5 -64.5t32.5 -116q0 -67 -35 -118t-98 -79t-145 -28q-135 0 -211.5 65t-76.5 185h152q0 -65 35 -98t103 -33
q56 0 89.5 24.5t33.5 66.5q0 30 -15 47.5t-43 27.5t-89 26q-87 22 -138 43t-84.5 63.5t-33.5 115.5q0 62 33 110t93 74.5t137 26.5q133 0 201.5 -59.5zM121 -217l140 168h120l-97 -168h-163z" />
    <glyph glyph-name="Tcommaaccent.salt" horiz-adv-x="615" 
d="M381 586v-586h-147v586h-224v126h595v-126h-224zM121 -217l140 168h120l-97 -168h-163z" />
    <glyph glyph-name="i.locl" horiz-adv-x="276" 
d="M68 0v508h140v-508h-140zM68 592v120h140v-120h-140z" />
    <glyph glyph-name="glyph314" horiz-adv-x="278" 
d="M163.5 -146.5q-46.5 -43.5 -126.5 -43.5q-37 0 -69 8v101q12 -3 27 -3q39 0 57 20.5t18 73.5v498h140v-519q0 -92 -46.5 -135.5zM55 566l77 146h173l-140 -146h-110z" />
    <glyph glyph-name="ccedilla.salt" horiz-adv-x="562" 
d="M410.5 498q52.5 -26 84 -73t36.5 -106h-146q-4 45 -29.5 71t-65.5 26q-51 0 -80 -43.5t-29 -118.5t29 -118.5t80 -43.5q40 0 65.5 28.5t28.5 78.5h147q-8 -97 -73 -156t-167 -59q-77 0 -135 33.5t-89.5 94.5t-31.5 142t31.5 142t89.5 94.5t135 33.5q67 0 119.5 -26z
M104 -217l140 168h120l-97 -168h-163z" />
    <glyph glyph-name="scedilla.salt" horiz-adv-x="524" 
d="M414 480q56 -44 56 -128h-134q0 74 -80 74q-33 0 -51 -12.5t-18 -34.5q0 -18 11 -28.5t32 -17.5t66 -19q64 -17 101 -32t63.5 -48t26.5 -91q0 -72 -60.5 -115.5t-163.5 -43.5q-108 0 -168 45.5t-60 135.5h142q0 -38 23 -59t66 -21q36 0 55 13t19 36q0 21 -12 33.5
t-33.5 20t-71.5 20.5q-60 16 -93.5 29.5t-58 44.5t-24.5 86q0 45 26.5 80.5t74 55.5t109.5 20q101 0 157 -44zM74 -217l140 168h120l-97 -168h-163z" />
    <glyph glyph-name="tcommaaccent.salt" horiz-adv-x="357" 
d="M332 110v-107q-32 -10 -74 -10q-88 0 -128 38.5t-40 126.5v246h-82v104h82v132h140v-132h97v-104h-97v-221q0 -42 15 -60t51 -18q21 0 36 5zM12 -217l140 168h120l-97 -168h-163z" />
    <glyph glyph-name="a.superior" horiz-adv-x="412" 
d="M325.5 660q41.5 -37 41.5 -108v-121q0 -62 11 -101h-108q-6 21 -6 46h-1q-42 -55 -119 -55q-58 0 -92 31t-34 79q0 47 34 75t112 40q49 7 87 9v13q0 54 -51 54q-24 0 -37 -12.5t-14 -36.5h-116q3 54 45 89t123 35q83 0 124.5 -37zM187 483q-27 -5 -38.5 -15.5
t-11.5 -28.5t12 -29t34 -11q33 0 50 18q11 11 14.5 24.5t3.5 36.5v13q-35 -2 -64 -8z" />
    <glyph glyph-name="b.superior" horiz-adv-x="447" 
d="M170 648q16 23 42.5 35.5t56.5 12.5q70 0 111.5 -51t41.5 -137t-42.5 -137t-112.5 -51q-32 0 -59 13.5t-43 39.5h-1v-43h-116v498h120v-180h2zM180 579q-18 -26 -18 -71t18 -71t48 -26q31 0 50 26.5t19 70.5t-19 70.5t-50 26.5q-30 0 -48 -26z" />
    <glyph glyph-name="c.superior" horiz-adv-x="420" 
d="M342 656.5q50 -40.5 56 -107.5h-124q-2 26 -17.5 41.5t-40.5 15.5q-30 0 -48 -26t-18 -71q0 -47 18 -73.5t49 -26.5q23 0 39 18t17 47h125q-5 -71 -54.5 -113t-128.5 -42q-87 0 -139 51.5t-52 138.5q0 86 52 137t139 51q77 0 127 -40.5z" />
    <glyph glyph-name="d.superior" horiz-adv-x="447" 
d="M399 330h-116v43h-1q-16 -26 -43 -39.5t-59 -13.5q-70 0 -112.5 51t-42.5 137t41.5 137t111.5 51q30 0 56.5 -12.5t42.5 -35.5h2v180h120v-498zM169 578.5q-19 -26.5 -19 -70.5t19 -70.5t50 -26.5q30 0 48 26t18 71t-18 71t-48 26q-31 0 -50 -26.5z" />
    <glyph glyph-name="e.superior" horiz-adv-x="426" 
d="M254.5 410q16.5 11 19.5 29h122q-12 -52 -61 -86t-121 -34q-89 0 -139.5 53t-50.5 138q0 53 22.5 95.5t65.5 67t101 24.5q64 0 109.5 -30t65.5 -83q7 -20 10 -43t3 -58h-259q2 -45 21.5 -64.5t49.5 -19.5q25 0 41.5 11zM144 550h137q-4 35 -22.5 52t-45.5 17
q-58 0 -69 -69z" />
    <glyph glyph-name="egrave.superior" horiz-adv-x="426" 
d="M61 828h151l72 -104h-106zM254.5 410q16.5 11 19.5 29h122q-12 -52 -61 -86t-121 -34q-89 0 -139.5 53t-50.5 138q0 53 22.5 95.5t65.5 67t101 24.5q64 0 109.5 -30t65.5 -83q7 -20 10 -43t3 -58h-259q2 -45 21.5 -64.5t49.5 -19.5q25 0 41.5 11zM144 550h137
q-4 35 -22.5 52t-45.5 17q-58 0 -69 -69z" />
    <glyph glyph-name="f.superior" horiz-adv-x="262" 
d="M197.5 736q-12.5 -12 -12.5 -39v-11h67v-87h-67v-269h-120v269h-58v87h58v24q0 62 34 93.5t99 31.5q31 0 57 -7v-82q-8 2 -18 2q-27 0 -39.5 -12z" />
    <glyph glyph-name="g.superior" horiz-adv-x="440" 
d="M279 639h1v47h112v-332q0 -81 -47.5 -121t-136.5 -40q-76 0 -119.5 30t-48.5 85h116q1 -18 15.5 -28t38.5 -10q33 0 49.5 19t16.5 64v38h-2q-37 -51 -101 -51q-68 0 -108.5 48t-40.5 130t41 130t110 48q64 0 104 -57zM165.5 581q-17.5 -23 -17.5 -63t17.5 -63t47.5 -23
q31 0 48.5 23.5t17.5 62.5t-17.5 62.5t-48.5 23.5q-30 0 -47.5 -23z" />
    <glyph glyph-name="h.superior" horiz-adv-x="446" 
d="M170 651q36 44 98 44q63 0 98.5 -37.5t35.5 -108.5v-219h-120v205q0 33 -13.5 50t-39.5 17q-29 0 -45 -22.5t-16 -66.5v-183h-120v498h120v-177h2z" />
    <glyph glyph-name="i.superior" horiz-adv-x="216" 
d="M48 735v93h120v-93h-120zM48 330v356h120v-356h-120z" />
    <glyph glyph-name="j.superior" horiz-adv-x="219" 
d="M51 735v93h120v-93h-120zM134.5 230q-36.5 -33 -98.5 -33q-34 0 -58 6v84q12 -2 19 -2q28 0 41 15t13 53v333h120v-353q0 -70 -36.5 -103z" />
    <glyph glyph-name="k.superior" horiz-adv-x="412" 
d="M272 330l-102 160h-2v-160h-120v499h120v-282h2l97 139h139l-130 -167l143 -189h-147z" />
    <glyph glyph-name="l.superior" horiz-adv-x="216" 
d="M48 330v498h120v-498h-120z" />
    <glyph glyph-name="m.superior" horiz-adv-x="662" 
d="M584 657.5q34 -37.5 34 -108.5v-219h-120v205q0 33 -12.5 50t-35.5 17q-27 0 -42 -23t-15 -69v-180h-120v210q0 62 -48 62q-28 0 -42.5 -23t-14.5 -69v-180h-120v356h112v-41h2q39 50 103 50q77 0 108 -61q43 61 117 61q60 0 94 -37.5z" />
    <glyph glyph-name="n.superior" horiz-adv-x="446" 
d="M366.5 657.5q35.5 -37.5 35.5 -108.5v-219h-120v205q0 33 -13.5 50t-39.5 17q-29 0 -45 -22.5t-16 -66.5v-183h-120v356h112v-43h1q40 52 107 52q63 0 98.5 -37.5z" />
    <glyph glyph-name="o.superior" horiz-adv-x="438" 
d="M360.5 645.5q52.5 -51.5 52.5 -137.5q0 -87 -52.5 -138t-141.5 -51t-141.5 51t-52.5 138q0 86 52.5 137.5t141.5 51.5t141.5 -51.5zM169 580q-18 -26 -18 -72t18.5 -72.5t49.5 -26.5t49.5 26.5t18.5 72.5t-18 72t-50 26t-50 -26z" />
    <glyph glyph-name="p.superior" horiz-adv-x="447" 
d="M379.5 645q42.5 -51 42.5 -137t-41.5 -137t-111.5 -51q-30 0 -56.5 12t-42.5 35h-2v-166h-120v485h116v-44h1q16 26 43 40t59 14q70 0 112.5 -51zM180 579q-18 -26 -18 -71t18 -71t48 -26q31 0 50 26.5t19 70.5t-19 70.5t-50 26.5q-30 0 -48 -26z" />
    <glyph glyph-name="q.superior" horiz-adv-x="447" 
d="M239 682q27 -14 43 -40h1v44h116v-485h-120v166h-2q-16 -23 -42.5 -35t-56.5 -12q-70 0 -111.5 51t-41.5 137t42.5 137t112.5 51q32 0 59 -14zM169 578.5q-19 -26.5 -19 -70.5t19 -70.5t50 -26.5q30 0 48 26t18 71t-18 71t-48 26q-31 0 -50 -26.5z" />
    <glyph glyph-name="r.superior" horiz-adv-x="305" 
d="M299 687v-103q-16 4 -37 4q-46 0 -70 -27t-24 -78v-153h-120v356h111v-49h2q19 28 44 41t59 13q20 0 35 -4z" />
    <glyph glyph-name="s.superior" horiz-adv-x="396" 
d="M315.5 667q42.5 -30 42.5 -89h-115q0 44 -48 44q-42 0 -42 -27q0 -15 15 -22.5t60 -18.5q46 -12 74.5 -23.5t48 -35t19.5 -62.5q0 -52 -45 -83t-124 -31q-86 0 -131 31.5t-45 95.5h121q0 -49 56 -49q22 0 34 7.5t12 20.5q0 18 -17 26.5t-67 20.5q-43 11 -68.5 21
t-43.5 32t-18 60q0 50 42.5 81t119.5 31t119.5 -30z" />
    <glyph glyph-name="t.superior" horiz-adv-x="274" 
d="M256 422v-90q-32 -8 -61 -8q-69 0 -100 28t-31 91v156h-58v87h58v96h119v-96h69v-87h-69v-127q0 -29 10.5 -41t35.5 -12q16 0 27 3z" />
    <glyph glyph-name="u.superior" horiz-adv-x="446" 
d="M79.5 358.5q-35.5 37.5 -35.5 108.5v219h120v-205q0 -33 13.5 -50t39.5 -17q29 0 45 22.5t16 66.5v183h120v-356h-112v43h-1q-40 -52 -107 -52q-63 0 -98.5 37.5z" />
    <glyph glyph-name="v.superior" horiz-adv-x="386" 
d="M113 330l-118 356h128l35 -128q23 -88 34 -151h2q11 63 34 151l35 128h128l-118 -356h-160z" />
    <glyph glyph-name="w.superior" horiz-adv-x="613" 
d="M364 330l-29 132q-14 65 -28 149h-1q-12 -77 -27 -149l-30 -132h-164l-81 356h117l24 -130q16 -87 22 -150h2q14 90 29 151l30 129h157l30 -129q18 -73 30 -151h1q8 67 23 150l23 130h117l-81 -356h-164z" />
    <glyph glyph-name="x.superior" horiz-adv-x="386" 
d="M390 330h-137l-59 113h-2l-59 -113h-137l122 183l-114 173h136l52 -101h2l52 101h136l-114 -173z" />
    <glyph glyph-name="y.superior" horiz-adv-x="385" 
d="M227 254.5q-23 -31.5 -55 -45t-80 -13.5q-36 0 -61 6v90q17 -5 36 -5q26 0 41 11.5t15 32.5q0 10 -3.5 22.5t-16.5 46.5l-108 286h130l34 -119q24 -83 37 -148h2q16 77 36 148l33 119h123l-120 -344q-20 -56 -43 -87.5z" />
    <glyph glyph-name="z.superior" horiz-adv-x="360" 
d="M168 424v-2h172v-92h-320v95l166 167v2h-160v92h308v-95z" />
    <glyph glyph-name="A.aalt" horiz-adv-x="586" 
d="M189 107l-33 -107h-153l194 548h192l194 -548h-153l-33 107h-208zM350 260q-35 111 -56 194h-2q-24 -98 -55 -194l-11 -34h134z" />
    <glyph glyph-name="Aacute.aalt" horiz-adv-x="586" 
d="M189 107l-33 -107h-153l194 548h192l194 -548h-153l-33 107h-208zM350 260q-35 111 -56 194h-2q-24 -98 -55 -194l-11 -34h134zM208 606l77 146h173l-140 -146h-110z" />
    <glyph glyph-name="Abreve.aalt" horiz-adv-x="586" 
d="M189 107l-33 -107h-153l194 548h192l194 -548h-153l-33 107h-208zM350 260q-35 111 -56 194h-2q-24 -98 -55 -194l-11 -34h134zM417.5 640.5q-46.5 -39.5 -124.5 -39.5t-124.5 39.5t-50.5 111.5h95q2 -30 23.5 -47t56.5 -17t56.5 17t23.5 47h95q-4 -72 -50.5 -111.5z" />
    <glyph glyph-name="Acircumflex.aalt" horiz-adv-x="586" 
d="M189 107l-33 -107h-153l194 548h192l194 -548h-153l-33 107h-208zM350 260q-35 111 -56 194h-2q-24 -98 -55 -194l-11 -34h134zM293 682l-61 -76h-128l114 146h149l114 -146h-128z" />
    <glyph glyph-name="Adieresis.aalt" horiz-adv-x="586" 
d="M189 107l-33 -107h-153l194 548h192l194 -548h-153l-33 107h-208zM350 260q-35 111 -56 194h-2q-24 -98 -55 -194l-11 -34h134zM123 632v120h123v-120h-123zM340 632v120h123v-120h-123z" />
    <glyph glyph-name="Agrave.aalt" horiz-adv-x="586" 
d="M189 107l-33 -107h-153l194 548h192l194 -548h-153l-33 107h-208zM350 260q-35 111 -56 194h-2q-24 -98 -55 -194l-11 -34h134zM378 606h-110l-140 146h173z" />
    <glyph glyph-name="Amacron.aalt" horiz-adv-x="586" 
d="M189 107l-33 -107h-153l194 548h192l194 -548h-153l-33 107h-208zM350 260q-35 111 -56 194h-2q-24 -98 -55 -194l-11 -34h134zM130 638v91h326v-91h-326z" />
    <glyph glyph-name="Aogonek.aalt" horiz-adv-x="586" 
d="M189 107l-33 -107h-153l194 548h192l194 -548h-153l-33 107h-208zM350 260q-35 111 -56 194h-2q-24 -98 -55 -194l-11 -34h134zM530 -46.5q-15 -20.5 -15 -41.5q0 -31 35 -31q21 0 36 6v-71q-33 -13 -78 -13q-56 0 -84.5 23t-28.5 64q0 32 19 57.5t59 52.5h110
q-38 -26 -53 -46.5z" />
    <glyph glyph-name="Aring.aalt" horiz-adv-x="586" 
d="M189 107l-33 -107h-153l194 548h192l194 -548h-153l-33 107h-208zM350 260q-35 111 -56 194h-2q-24 -98 -55 -194l-11 -34h134zM369.5 780.5q31.5 -31.5 31.5 -76.5t-31.5 -76.5t-76.5 -31.5t-76.5 31.5t-31.5 76.5t31.5 76.5t76.5 31.5t76.5 -31.5zM255 742.5
q-16 -15.5 -16 -38.5q0 -22 16 -38t38 -16q23 0 38.5 16t15.5 38q0 23 -15.5 38.5t-38.5 15.5q-22 0 -38 -15.5z" />
    <glyph glyph-name="Atilde.aalt" horiz-adv-x="586" 
d="M189 107l-33 -107h-153l194 548h192l194 -548h-153l-33 107h-208zM350 260q-35 111 -56 194h-2q-24 -98 -55 -194l-11 -34h134zM447 653q-31 -36 -84 -36q-24 0 -42 7t-40 20q-18 10 -28.5 14.5t-23.5 4.5q-21 0 -32 -11t-14 -35h-78q3 63 34 99t84 36q24 0 42.5 -7
t40.5 -20q16 -9 27.5 -14t23.5 -5q21 0 32 11t14 35h78q-3 -63 -34 -99z" />
    <glyph glyph-name="AE.aalt" horiz-adv-x="804" 
d="M759 0h-339l-18 115h-199l-50 -115h-158l258 548h501v-120h-258l14 -92h224v-118h-205l15 -98h215v-120zM353 432h-11l-87 -199h129z" />
    <glyph glyph-name="B.aalt" horiz-adv-x="566" 
d="M456.5 510q53.5 -38 53.5 -103q0 -51 -25 -81.5t-78 -43.5v-2q60 -10 88.5 -42t28.5 -86q0 -70 -56.5 -111t-154.5 -41h-239v548h224q105 0 158.5 -38zM217 330h63q47 0 68.5 13t21.5 41t-20 40.5t-63 12.5h-70v-107zM217 112h66q52 0 72 11.5t20 42.5q0 32 -21 45
t-72 13h-65v-112z" />
    <glyph glyph-name="C.aalt" horiz-adv-x="608" 
d="M484 507q68 -57 72 -156h-149q-5 42 -32 65t-71 23q-55 0 -87 -44.5t-32 -120.5q0 -77 32 -121t87 -44q43 0 70 23.5t33 66.5h152q-9 -103 -76.5 -159t-178.5 -56q-126 0 -198 77t-72 213q0 89 32.5 154.5t93.5 100.5t144 35q112 0 180 -57z" />
    <glyph glyph-name="Cacute.aalt" horiz-adv-x="608" 
d="M484 507q68 -57 72 -156h-149q-5 42 -32 65t-71 23q-55 0 -87 -44.5t-32 -120.5q0 -77 32 -121t87 -44q43 0 70 23.5t33 66.5h152q-9 -103 -76.5 -159t-178.5 -56q-126 0 -198 77t-72 213q0 89 32.5 154.5t93.5 100.5t144 35q112 0 180 -57zM218 606l77 146h173
l-140 -146h-110z" />
    <glyph glyph-name="Ccaron.aalt" horiz-adv-x="608" 
d="M484 507q68 -57 72 -156h-149q-5 42 -32 65t-71 23q-55 0 -87 -44.5t-32 -120.5q0 -77 32 -121t87 -44q43 0 70 23.5t33 66.5h152q-9 -103 -76.5 -159t-178.5 -56q-126 0 -198 77t-72 213q0 89 32.5 154.5t93.5 100.5t144 35q112 0 180 -57zM228 606l-114 146h128l61 -76
l60 76h128l-114 -146h-149z" />
    <glyph glyph-name="Ccedilla.c2sc" horiz-adv-x="608" 
d="M491.5 48q-59.5 -55 -157.5 -63l-29 -46q13 5 32 5q35 0 60 -20.5t25 -55.5q0 -41 -32 -67.5t-90 -26.5q-60 0 -114 30l22 45q41 -22 80 -22q23 0 36 9t13 26t-13 27.5t-35 10.5q-17 0 -32 -6l-21 23l43 68q-115 8 -180 84t-65 205q0 89 32.5 154.5t93.5 100.5t144 35
q112 0 180 -57t72 -156h-149q-5 42 -32 65t-71 23q-55 0 -87 -44.5t-32 -120.5q0 -77 32 -121t87 -44q43 0 70 23.5t33 66.5h152q-8 -96 -67.5 -151z" />
    <glyph glyph-name="Ccircumflex.aalt" horiz-adv-x="608" 
d="M484 507q68 -57 72 -156h-149q-5 42 -32 65t-71 23q-55 0 -87 -44.5t-32 -120.5q0 -77 32 -121t87 -44q43 0 70 23.5t33 66.5h152q-9 -103 -76.5 -159t-178.5 -56q-126 0 -198 77t-72 213q0 89 32.5 154.5t93.5 100.5t144 35q112 0 180 -57zM303 682l-61 -76h-128
l114 146h149l114 -146h-128z" />
    <glyph glyph-name="Cdotaccent.aalt" horiz-adv-x="608" 
d="M484 507q68 -57 72 -156h-149q-5 42 -32 65t-71 23q-55 0 -87 -44.5t-32 -120.5q0 -77 32 -121t87 -44q43 0 70 23.5t33 66.5h152q-9 -103 -76.5 -159t-178.5 -56q-126 0 -198 77t-72 213q0 89 32.5 154.5t93.5 100.5t144 35q112 0 180 -57zM233 632v120h140v-120h-140z
" />
    <glyph glyph-name="D.aalt" horiz-adv-x="621" 
d="M508 477q80 -71 80 -203t-80 -203t-229 -71h-205v548h205q149 0 229 -71zM218 123h59q160 0 160 151t-160 151h-59v-302z" />
    <glyph glyph-name="Eth.aalt" horiz-adv-x="625" 
d="M512 477q80 -71 80 -203t-80 -203t-229 -71h-205v231h-62v92h62v225h205q149 0 229 -71zM441 274q0 151 -160 151h-59v-102h109v-92h-109v-108h59q160 0 160 151z" />
    <glyph glyph-name="Dcaron.aalt" horiz-adv-x="621" 
d="M508 477q80 -71 80 -203t-80 -203t-229 -71h-205v548h205q149 0 229 -71zM218 123h59q160 0 160 151t-160 151h-59v-302zM211 606l-114 146h128l61 -76l60 76h128l-114 -146h-149z" />
    <glyph glyph-name="Dcroat.aalt" horiz-adv-x="625" 
d="M512 477q80 -71 80 -203t-80 -203t-229 -71h-205v231h-62v92h62v225h205q149 0 229 -71zM441 274q0 151 -160 151h-59v-102h109v-92h-109v-108h59q160 0 160 151z" />
    <glyph glyph-name="E.aalt" horiz-adv-x="536" 
d="M218 428v-92h248v-118h-248v-98h273v-120h-417v548h412v-120h-268z" />
    <glyph glyph-name="Eacute.aalt" horiz-adv-x="536" 
d="M218 428v-92h248v-118h-248v-98h273v-120h-417v548h412v-120h-268zM195 606l77 146h173l-140 -146h-110z" />
    <glyph glyph-name="Ebreve.aalt" horiz-adv-x="536" 
d="M218 428v-92h248v-118h-248v-98h273v-120h-417v548h412v-120h-268zM404.5 640.5q-46.5 -39.5 -124.5 -39.5t-124.5 39.5t-50.5 111.5h95q2 -30 23.5 -47t56.5 -17t56.5 17t23.5 47h95q-4 -72 -50.5 -111.5z" />
    <glyph glyph-name="Ecaron.aalt" horiz-adv-x="536" 
d="M218 428v-92h248v-118h-248v-98h273v-120h-417v548h412v-120h-268zM205 606l-114 146h128l61 -76l60 76h128l-114 -146h-149z" />
    <glyph glyph-name="Ecircumflex.aalt" horiz-adv-x="536" 
d="M218 428v-92h248v-118h-248v-98h273v-120h-417v548h412v-120h-268zM280 682l-61 -76h-128l114 146h149l114 -146h-128z" />
    <glyph glyph-name="Edieresis.aalt" horiz-adv-x="536" 
d="M218 428v-92h248v-118h-248v-98h273v-120h-417v548h412v-120h-268zM110 632v120h123v-120h-123zM327 632v120h123v-120h-123z" />
    <glyph glyph-name="Edotaccent.aalt" horiz-adv-x="536" 
d="M218 428v-92h248v-118h-248v-98h273v-120h-417v548h412v-120h-268zM210 632v120h140v-120h-140z" />
    <glyph glyph-name="Egrave.aalt" horiz-adv-x="536" 
d="M218 428v-92h248v-118h-248v-98h273v-120h-417v548h412v-120h-268zM365 606h-110l-140 146h173z" />
    <glyph glyph-name="Emacron.aalt" horiz-adv-x="536" 
d="M218 428v-92h248v-118h-248v-98h273v-120h-417v548h412v-120h-268zM117 638v91h326v-91h-326z" />
    <glyph glyph-name="Eogonek.aalt" horiz-adv-x="536" 
d="M218 428v-92h248v-118h-248v-98h273v-120h-417v548h412v-120h-268zM438 -46.5q-15 -20.5 -15 -41.5q0 -31 35 -31q21 0 36 6v-71q-33 -13 -78 -13q-56 0 -84.5 23t-28.5 64q0 32 19 57.5t59 52.5h110q-38 -26 -53 -46.5z" />
    <glyph glyph-name="F.aalt" horiz-adv-x="491" 
d="M218 426v-116h235v-122h-235v-188h-144v548h398v-122h-254z" />
    <glyph glyph-name="uniFB01.aalt" horiz-adv-x="783" 
d="M218 426v-116h235v-122h-235v-188h-144v548h398v-122h-254zM565 0v548h144v-548h-144z" />
    <glyph glyph-name="uniFB02.aalt" horiz-adv-x="978" 
d="M218 426v-116h235v-122h-235v-188h-144v548h398v-122h-254zM968 122v-122h-403v548h144v-426h259z" />
    <glyph glyph-name="G.aalt" horiz-adv-x="629" 
d="M486 514q65 -50 78 -139h-153q-16 68 -95 68q-60 0 -95.5 -45.5t-35.5 -125.5q0 -82 34.5 -128.5t94.5 -46.5q53 0 81.5 27.5t30.5 76.5h-122v110h258v-311h-123v48h-2q-26 -29 -66.5 -45t-92.5 -16q-75 0 -130 34.5t-84.5 98.5t-29.5 152q0 90 34.5 155.5t98 101
t149.5 35.5q105 0 170 -50z" />
    <glyph glyph-name="Gbreve.aalt" horiz-adv-x="629" 
d="M486 514q65 -50 78 -139h-153q-16 68 -95 68q-60 0 -95.5 -45.5t-35.5 -125.5q0 -82 34.5 -128.5t94.5 -46.5q53 0 81.5 27.5t30.5 76.5h-122v110h258v-311h-123v48h-2q-26 -29 -66.5 -45t-92.5 -16q-75 0 -130 34.5t-84.5 98.5t-29.5 152q0 90 34.5 155.5t98 101
t149.5 35.5q105 0 170 -50zM433.5 640.5q-46.5 -39.5 -124.5 -39.5t-124.5 39.5t-50.5 111.5h95q2 -30 23.5 -47t56.5 -17t56.5 17t23.5 47h95q-4 -72 -50.5 -111.5z" />
    <glyph glyph-name="Gcircumflex.aalt" horiz-adv-x="629" 
d="M486 514q65 -50 78 -139h-153q-16 68 -95 68q-60 0 -95.5 -45.5t-35.5 -125.5q0 -82 34.5 -128.5t94.5 -46.5q53 0 81.5 27.5t30.5 76.5h-122v110h258v-311h-123v48h-2q-26 -29 -66.5 -45t-92.5 -16q-75 0 -130 34.5t-84.5 98.5t-29.5 152q0 90 34.5 155.5t98 101
t149.5 35.5q105 0 170 -50zM309 682l-61 -76h-128l114 146h149l114 -146h-128z" />
    <glyph glyph-name="Gcommaaccent.aalt" horiz-adv-x="629" 
d="M486 514q65 -50 78 -139h-153q-16 68 -95 68q-60 0 -95.5 -45.5t-35.5 -125.5q0 -82 34.5 -128.5t94.5 -46.5q53 0 81.5 27.5t30.5 76.5h-122v110h258v-311h-123v48h-2q-26 -29 -66.5 -45t-92.5 -16q-75 0 -130 34.5t-84.5 98.5t-29.5 152q0 90 34.5 155.5t98 101
t149.5 35.5q105 0 170 -50zM304 -270h-56l45 107h-45v104h124v-104z" />
    <glyph glyph-name="Gdotaccent.aalt" horiz-adv-x="629" 
d="M486 514q65 -50 78 -139h-153q-16 68 -95 68q-60 0 -95.5 -45.5t-35.5 -125.5q0 -82 34.5 -128.5t94.5 -46.5q53 0 81.5 27.5t30.5 76.5h-122v110h258v-311h-123v48h-2q-26 -29 -66.5 -45t-92.5 -16q-75 0 -130 34.5t-84.5 98.5t-29.5 152q0 90 34.5 155.5t98 101
t149.5 35.5q105 0 170 -50zM239 632v120h140v-120h-140z" />
    <glyph glyph-name="H.aalt" horiz-adv-x="642" 
d="M424 0v222h-206v-222h-144v548h144v-204h206v204h144v-548h-144z" />
    <glyph glyph-name="Hbar.aalt" horiz-adv-x="642" 
d="M568 434v-434h-144v222h-206v-222h-144v434h-40v62h40v52h144v-52h206v52h144v-52h40v-62h-40zM218 434v-90h206v90h-206z" />
    <glyph glyph-name="Hcircumflex.aalt" horiz-adv-x="642" 
d="M424 0v222h-206v-222h-144v548h144v-204h206v204h144v-548h-144zM321 682l-61 -76h-128l114 146h149l114 -146h-128z" />
    <glyph glyph-name="I.aalt" horiz-adv-x="292" 
d="M74 0v548h144v-548h-144z" />
    <glyph glyph-name="Iacute.aalt" horiz-adv-x="292" 
d="M74 0v548h144v-548h-144zM61 606l77 146h173l-140 -146h-110z" />
    <glyph glyph-name="Ibreve.aalt" horiz-adv-x="292" 
d="M74 0v548h144v-548h-144zM259.5 641q-41.5 -40 -113.5 -40t-113.5 39.5t-45.5 111.5h88q2 -32 21 -50t50 -18t50 18t21 50h88q-4 -71 -45.5 -111z" />
    <glyph glyph-name="Icircumflex.aalt" horiz-adv-x="292" 
d="M74 0v548h144v-548h-144zM199 607l-53 77l-53 -77h-121l103 145h141l103 -145h-120z" />
    <glyph glyph-name="Idieresis.aalt" horiz-adv-x="292" 
d="M74 0v548h144v-548h-144zM-2 632v120h123v-120h-123zM171 632v120h123v-120h-123z" />
    <glyph glyph-name="Idotaccent.aalt" horiz-adv-x="292" 
d="M74 0v548h144v-548h-144zM76 632v120h140v-120h-140z" />
    <glyph glyph-name="Igrave.aalt" horiz-adv-x="292" 
d="M74 0v548h144v-548h-144zM231 606h-110l-140 146h173z" />
    <glyph glyph-name="IJ.aalt" horiz-adv-x="634" 
d="M74 0v548h144v-548h-144zM517.5 41q-47.5 -47 -150.5 -47q-33 0 -61 7l-1 118q18 -3 37 -3q44 0 62 22t18 84v326h143v-359q0 -101 -47.5 -148z" />
    <glyph glyph-name="Imacron.aalt" horiz-adv-x="292" 
d="M74 0v548h144v-548h-144zM3 643v91h286v-91h-286z" />
    <glyph glyph-name="Iogonek.aalt" horiz-adv-x="292" 
d="M74 0v548h144v-548h-144zM165 -46.5q-15 -20.5 -15 -41.5q0 -31 35 -31q21 0 36 6v-71q-33 -13 -78 -13q-56 0 -84.5 23t-28.5 64q0 32 19 57.5t59 52.5h110q-38 -26 -53 -46.5z" />
    <glyph glyph-name="Itilde.aalt" horiz-adv-x="292" 
d="M74 0v548h144v-548h-144zM281 653q-28 -36 -77 -36q-22 0 -37 7t-34 21q-17 11 -25.5 15.5t-19.5 4.5q-19 0 -28.5 -12t-11.5 -36h-67q3 64 30.5 99.5t76.5 35.5q22 0 37.5 -7.5t34.5 -20.5q14 -10 23.5 -15t20.5 -5q19 0 28.5 11.5t11.5 36.5h68q-3 -63 -31 -99z" />
    <glyph glyph-name="J.c2sc" horiz-adv-x="342" 
d="M225.5 41q-47.5 -47 -150.5 -47q-33 0 -61 7l-1 118q18 -3 37 -3q44 0 62 22t18 84v326h143v-359q0 -101 -47.5 -148z" />
    <glyph glyph-name="Jcircumflex.aalt" horiz-adv-x="342" 
d="M225.5 41q-47.5 -47 -150.5 -47q-33 0 -61 7l-1 118q18 -3 37 -3q44 0 62 22t18 84v326h143v-359q0 -101 -47.5 -148zM256 607l-53 77l-53 -77h-121l103 145h141l103 -145h-120z" />
    <glyph glyph-name="K.aalt" horiz-adv-x="571" 
d="M567 0h-182l-164 250h-3v-250h-144v548h144v-234h3l160 234h170l-200 -259z" />
    </font>
</defs>
</svg>
