<?xml version="1.0" standalone="no"?>
<!DOCTYPE svg PUBLIC "-//W3C//DTD SVG 1.1//EN" "http://www.w3.org/Graphics/SVG/1.1/DTD/svg11.dtd" >
<svg xmlns="http://www.w3.org/2000/svg" xmlns:xlink="http://www.w3.org/1999/xlink" version="1.1">
<metadata>
Created by FontForge 20170731 at Thu Feb  5 13:06:52 2015
 By Aleksey,,,
Copyright (c) 2015 Monotype Imaging Inc.  All rights reserved.
</metadata>
<defs>
<font id="NeueHaasUnicaW06-Black" horiz-adv-x="616" >
  <font-face 
    font-family="NeueHaasUnicaW06-Black"
    font-weight="900"
    font-stretch="normal"
    units-per-em="1000"
    panose-1="2 11 10 4 3 2 6 2 2 3"
    ascent="800"
    descent="-200"
    x-height="508"
    cap-height="712"
    bbox="-500 -315 1275 1149"
    underline-thickness="50"
    underline-position="-175"
    unicode-range="U+0020-FEFF"
  />
<missing-glyph horiz-adv-x="654" 
d="M605 740q37 -37 37 -101v-566q0 -64 -37 -101t-101 -37h-354q-64 0 -101 37t-37 101v566q0 64 37 101t101 37h354q64 0 101 -37zM104 685q-17 -17 -17 -46v-566q0 -29 17 -46t46 -17h354q29 0 46 17t17 46v566q0 29 -17 46t-46 17h-354q-29 0 -46 -17zM465.5 606
q50.5 -41 50.5 -113q0 -40 -15 -68.5t-54 -65.5t-52.5 -62.5t-13.5 -64.5h-118q-3 21 -3 44q0 43 11.5 69t48.5 64q29 30 38 46t9 37q0 20 -11 31.5t-30 11.5q-50 0 -50 -74h-145q1 90 52 138t143 48q89 0 139.5 -41zM250 65v126h144v-126h-144z" />
    <glyph glyph-name="f_f.liga" unicode="ff" horiz-adv-x="727" 
d="M641.5 568.5q-17.5 -16.5 -17.5 -53.5v-7h92v-137h-92v-371h-192v371h-155v-371h-192v371h-78v137h78v29q0 92 51 138.5t149 46.5q43 0 89 -10v-130q-7 3 -25 3q-37 0 -54.5 -16.5t-17.5 -53.5v-7h155v29q0 92 51 138.5t149 46.5q43 0 89 -10v-130q-7 3 -25 3
q-37 0 -54.5 -16.5z" />
    <glyph glyph-name="f_f_i.liga" unicode="ffi" horiz-adv-x="1027" 
d="M483 675.5q51 46.5 149 46.5q43 0 89 -10v-130q-7 3 -25 3q-37 0 -54.5 -16.5t-17.5 -53.5v-7h92v-137h-92v-371h-192v371h-155v-371h-192v371h-78v137h78v29q0 92 51 138.5t149 46.5q43 0 89 -10v-130q-7 3 -25 3q-37 0 -54.5 -16.5t-17.5 -53.5v-7h155v29
q0 92 51 138.5zM973 571h-192v141h192v-141zM973 508v-508h-192v508h192z" />
    <glyph glyph-name="f_f_l.liga" unicode="ffl" horiz-adv-x="1027" 
d="M641.5 568.5q-17.5 -16.5 -17.5 -53.5v-7h92v-137h-92v-371h-192v371h-155v-371h-192v371h-78v137h78v29q0 92 51 138.5t149 46.5q43 0 89 -10v-130q-7 3 -25 3q-37 0 -54.5 -16.5t-17.5 -53.5v-7h155v29q0 92 51 138.5t149 46.5q43 0 89 -10v-130q-7 3 -25 3
q-37 0 -54.5 -16.5zM781 0v712h192v-712h-192z" />
    <glyph glyph-name="f_i.liga" unicode="fi" horiz-adv-x="680" 
d="M136 675.5q51 46.5 149 46.5q43 0 89 -10v-130q-7 3 -25 3q-37 0 -54.5 -16.5t-17.5 -53.5v-7h92v-137h-92v-371h-192v371h-78v137h78v29q0 92 51 138.5zM626 571h-192v141h192v-141zM626 508v-508h-192v508h192z" />
    <glyph glyph-name="f_l.liga" unicode="fl" horiz-adv-x="680" 
d="M294.5 568.5q-17.5 -16.5 -17.5 -53.5v-7h92v-137h-92v-371h-192v371h-78v137h78v29q0 92 51 138.5t149 46.5q43 0 89 -10v-130q-7 3 -25 3q-37 0 -54.5 -16.5zM434 0v712h192v-712h-192z" />
    <glyph glyph-name=".notdef" horiz-adv-x="654" 
d="M605 740q37 -37 37 -101v-566q0 -64 -37 -101t-101 -37h-354q-64 0 -101 37t-37 101v566q0 64 37 101t101 37h354q64 0 101 -37zM104 685q-17 -17 -17 -46v-566q0 -29 17 -46t46 -17h354q29 0 46 17t17 46v566q0 29 -17 46t-46 17h-354q-29 0 -46 -17zM465.5 606
q50.5 -41 50.5 -113q0 -40 -15 -68.5t-54 -65.5t-52.5 -62.5t-13.5 -64.5h-118q-3 21 -3 44q0 43 11.5 69t48.5 64q29 30 38 46t9 37q0 20 -11 31.5t-30 11.5q-50 0 -50 -74h-145q1 90 52 138t143 48q89 0 139.5 -41zM250 65v126h144v-126h-144z" />
    <glyph glyph-name="glyph1" horiz-adv-x="600" 
 />
    <glyph glyph-name="glyph1" horiz-adv-x="600" 
 />
    <glyph glyph-name="nonmarkingreturn" horiz-adv-x="333" 
 />
    <glyph glyph-name="space" unicode=" " horiz-adv-x="230" 
 />
    <glyph glyph-name="exclam" unicode="!" horiz-adv-x="367" 
d="M104 223l-30 489h220l-30 -489h-160zM84 0v161h200v-161h-200z" />
    <glyph glyph-name="quotedbl" unicode="&#x22;" horiz-adv-x="491" 
d="M66 425l-22 287h183l-22 -287h-139zM285 425l-22 287h183l-22 -287h-139z" />
    <glyph glyph-name="numbersign" unicode="#" horiz-adv-x="719" 
d="M550 283h96l-22 -129h-95l-24 -154h-149l24 154h-101l-24 -154h-149l24 154h-96l21 129h96l17 109h-96l21 129h96l24 153h149l-24 -153h101l24 153h149l-24 -153h96l-22 -129h-95zM317 392l-17 -109h101l17 109h-101z" />
    <glyph glyph-name="dollar" unicode="$" horiz-adv-x="656" 
d="M556.5 56q-59.5 -55 -166.5 -68v-87h-130v87q-106 14 -163.5 73t-57.5 156h201q0 -44 23.5 -65t70.5 -21q42 0 64 15.5t22 42.5q0 20 -13 32.5t-37 21t-77 23.5q-77 21 -126 42.5t-82 62.5t-33 107q0 84 54 138.5t154 68.5v79h130v-77q101 -12 156 -67.5t55 -150.5h-195
q0 80 -84 80q-38 0 -58 -14.5t-20 -41.5q0 -20 12 -32t35.5 -20t73.5 -21q80 -19 131.5 -41t85.5 -65t34 -114q0 -89 -59.5 -144z" />
    <glyph glyph-name="percent" unicode="%" horiz-adv-x="956" 
d="M237 -30l364 734h118l-364 -734h-118zM361 640.5q47 -54.5 47 -155.5t-47 -155.5t-134 -54.5t-134.5 55t-47.5 155q0 101 47.5 155.5t134.5 54.5t134 -54.5zM179 485q0 -56 11.5 -83t36.5 -27q48 0 48 110q0 111 -48 111t-48 -111zM864 344.5q47 -54.5 47 -155.5
t-47 -155.5t-134 -54.5t-134.5 54.5t-47.5 155.5q0 100 47.5 155t134.5 55t134 -54.5zM682 189q0 -56 11.5 -83.5t36.5 -27.5q48 0 48 111q0 110 -48 110t-48 -110z" />
    <glyph glyph-name="ampersand" unicode="&#x26;" horiz-adv-x="790" 
d="M523 48q-86 -64 -208 -64q-133 0 -205.5 57t-72.5 154q0 65 34.5 114.5t105.5 85.5q-42 42 -58 76t-16 77q0 53 28 94t78.5 63.5t115.5 22.5q67 0 118 -21t79 -59.5t28 -89.5q0 -112 -128 -184l96 -94q17 37 17 101h182q-1 -68 -18.5 -122.5t-54.5 -101.5l161 -157h-234z
M288 585.5q-14 -14.5 -14 -38.5q0 -22 9.5 -40.5t34.5 -45.5q58 44 58 88q0 22 -14.5 36.5t-36.5 14.5q-23 0 -37 -14.5zM418 151l-138 137q-26 -19 -37.5 -39.5t-11.5 -47.5q0 -36 27 -58t72 -22q49 0 88 30z" />
    <glyph glyph-name="quotesingle" unicode="'" horiz-adv-x="271" 
d="M66 425l-22 287h183l-22 -287h-139z" />
    <glyph glyph-name="parenleft" unicode="(" horiz-adv-x="370" 
d="M262.5 516.5q-23.5 -105.5 -23.5 -219.5t23.5 -219t77.5 -225h-153q-78 109 -112.5 215.5t-34.5 228.5t35 229t112 215h153q-54 -119 -77.5 -224.5z" />
    <glyph glyph-name="parenright" unicode=")" horiz-adv-x="370" 
d="M295 526q35 -107 35 -229t-34.5 -228.5t-112.5 -215.5h-153q54 120 77.5 225t23.5 219t-23.5 219.5t-77.5 224.5h153q77 -108 112 -215z" />
    <glyph glyph-name="asterisk" unicode="*" horiz-adv-x="470" 
d="M406 640l43 -136l-145 -16l108 -101l-116 -83l-61 133l-61 -133l-115 83l108 101l-146 16l44 136l127 -72l-28 144h143l-29 -144z" />
    <glyph glyph-name="plus" unicode="+" horiz-adv-x="566" 
d="M511 392v-149h-151v-155h-154v155h-151v149h151v154h154v-154h151z" />
    <glyph glyph-name="comma" unicode="," horiz-adv-x="291" 
d="M138 -185h-113l84 185h-64v200h200v-200z" />
    <glyph glyph-name="hyphen" unicode="-" horiz-adv-x="353" 
d="M30 225v134h293v-134h-293z" />
    <glyph glyph-name="period" unicode="." horiz-adv-x="290" 
d="M45 0v200h200v-200h-200z" />
    <glyph glyph-name="slash" unicode="/" horiz-adv-x="519" 
d="M30 -89l297 834h141l-298 -834h-140z" />
    <glyph glyph-name="zero" unicode="0" horiz-adv-x="645" 
d="M541.5 598q76.5 -92 76.5 -261t-76.5 -261t-218.5 -92t-218.5 92t-76.5 261t76.5 261t218.5 92t218.5 -92zM251.5 490q-24.5 -54 -24.5 -153q0 -100 24.5 -153.5t71.5 -53.5t71 53.5t24 153.5q0 99 -24 153t-71 54t-71.5 -54z" />
    <glyph glyph-name="one" unicode="1" horiz-adv-x="645" 
d="M257 0v413h-164v142q89 0 132 28t53 91h178v-674h-199z" />
    <glyph glyph-name="two" unicode="2" horiz-adv-x="645" 
d="M461.5 663.5q60.5 -26.5 93 -74t32.5 -107.5q0 -81 -45.5 -130t-134.5 -88q-57 -26 -86.5 -44t-40.5 -32.5t-13 -31.5h339v-156h-568q-2 22 -2 39q0 74 18 128t60 97.5t116 81.5q58 29 88.5 48t49 41t18.5 49t-17 43.5t-47 16.5q-37 0 -58 -24t-22 -70h-197
q1 115 73 177.5t202 62.5q81 0 141.5 -26.5z" />
    <glyph glyph-name="three" unicode="3" horiz-adv-x="645" 
d="M462 666.5q61 -23.5 93.5 -66.5t32.5 -101q0 -56 -27.5 -91t-88.5 -57v-2q65 -21 95 -59t30 -99q0 -63 -34 -109.5t-96.5 -72t-145.5 -25.5q-142 0 -217.5 63t-75.5 181h200q0 -48 23.5 -73t68.5 -25q37 0 58 18t21 48q0 36 -26 54t-81 18h-17v142h23q44 0 69.5 18.5
t25.5 50.5q0 30 -20 47.5t-55 17.5q-42 0 -64 -24t-22 -69h-194q0 113 74 176t206 63q83 0 144 -23.5z" />
    <glyph glyph-name="four" unicode="4" horiz-adv-x="645" 
d="M517 130v-130h-192v130h-315v152l255 392h252v-399h113v-145h-113zM333 275v68q0 104 7 195h-2q-44 -84 -101 -170l-61 -93h157z" />
    <glyph glyph-name="five" unicode="5" horiz-adv-x="645" 
d="M250 518l-11 -113h2q57 48 136 48q66 0 117.5 -28t80 -78.5t28.5 -114.5q0 -75 -35.5 -131t-100 -86.5t-149.5 -30.5q-126 0 -200.5 57t-74.5 157h199q1 -33 22.5 -52t56.5 -19q40 0 62.5 24t22.5 71q0 45 -22.5 69t-60.5 24q-32 0 -52 -16.5t-26 -44.5l-192 12l37 408
h470v-156h-310z" />
    <glyph glyph-name="six" unicode="6" horiz-adv-x="645" 
d="M522.5 634.5q68.5 -55.5 75.5 -155.5h-197q-4 34 -21.5 52t-47.5 18q-43 0 -69.5 -41t-29.5 -127h2q57 60 151 60q64 0 114 -27.5t78.5 -77t28.5 -112.5q0 -70 -35 -124.5t-97.5 -85t-142.5 -30.5q-138 0 -214 87t-76 253q0 114 36 196t103.5 126t159.5 44
q113 0 181.5 -55.5zM277 282q-21 -25 -21 -65t21.5 -64t56.5 -24q34 0 55.5 24.5t21.5 62.5q0 41 -21.5 66t-56.5 25t-56 -25z" />
    <glyph glyph-name="seven" unicode="7" horiz-adv-x="645" 
d="M461.5 282.5q-54.5 -136.5 -82.5 -282.5h-212q32 150 94 286t135 226h-352v162h546v-153q-74 -102 -128.5 -238.5z" />
    <glyph glyph-name="eight" unicode="8" horiz-adv-x="645" 
d="M462 666.5q60 -23.5 93 -67t33 -99.5q0 -55 -33 -95t-91 -54v-2q64 -14 102 -58.5t38 -106.5q0 -94 -74.5 -147t-206.5 -53q-133 0 -207.5 53t-74.5 147q0 62 38 106.5t102 58.5v2q-58 14 -91 54t-33 95q0 56 33 99.5t93.5 67t139.5 23.5t139 -23.5zM263.5 531.5
q-22.5 -18.5 -22.5 -50.5q0 -31 22.5 -50t59.5 -19t59 19t22 50t-22 50t-59 19t-59.5 -18.5zM260 254.5q-23 -19.5 -23 -53.5t23.5 -54.5t62.5 -20.5t62 20.5t23 54.5t-23 53.5t-62 19.5q-40 0 -63 -19.5z" />
    <glyph glyph-name="nine" unicode="9" horiz-adv-x="645" 
d="M123 40.5q-69 55.5 -76 154.5h197q4 -34 21.5 -52t47.5 -18q43 0 70 41.5t30 127.5h-2q-58 -60 -152 -60q-64 0 -114 27.5t-78 77t-28 112.5q0 70 34.5 124.5t97 85t142.5 30.5q138 0 214 -87t76 -253q0 -114 -36 -196t-103.5 -126t-159.5 -44q-112 0 -181 55.5z
M368.5 393q21.5 25 21.5 65q0 39 -21.5 63.5t-56.5 24.5t-56.5 -24.5t-21.5 -63.5q0 -41 21.5 -65.5t56.5 -24.5t56.5 25z" />
    <glyph glyph-name="colon" unicode=":" horiz-adv-x="290" 
d="M45 0v200h200v-200h-200zM45 308v200h200v-200h-200z" />
    <glyph glyph-name="semicolon" unicode=";" horiz-adv-x="291" 
d="M138 -185h-113l84 185h-64v200h200v-200zM45 308v200h200v-200h-200z" />
    <glyph glyph-name="less" unicode="&#x3c;" horiz-adv-x="566" 
d="M232 318v-2l279 -104v-156l-456 171v180l456 171v-156z" />
    <glyph glyph-name="equal" unicode="=" horiz-adv-x="566" 
d="M55 355v140h456v-140h-456zM55 138v140h456v-140h-456z" />
    <glyph glyph-name="greater" unicode="&#x3e;" horiz-adv-x="566" 
d="M511 227l-456 -171v156l279 104v2l-279 104v156l456 -171v-180z" />
    <glyph glyph-name="question" unicode="?" horiz-adv-x="592" 
d="M489.5 676.5q69.5 -51.5 69.5 -141.5q0 -51 -20.5 -86t-76.5 -82q-55 -45 -73 -76t-18 -80h-162q-3 27 -3 54q0 38 7 62.5t25 48.5t55 58q40 36 52 54.5t12 44.5q0 25 -16 40t-44 15q-37 0 -55.5 -23t-18.5 -73h-198q1 115 72 175.5t200 60.5q123 0 192.5 -51.5zM190 0
v161h200v-161h-200z" />
    <glyph glyph-name="at" unicode="@" horiz-adv-x="867" 
d="M654.5 664.5q89.5 -47.5 138.5 -134t49 -200.5q0 -87 -29.5 -146.5t-78 -89t-107.5 -29.5q-53 0 -87 20t-46 58h-2q-41 -78 -126 -78q-72 0 -112.5 51t-41.5 148q1 75 26.5 132.5t70 89.5t100.5 32q71 0 99 -60h2q5 30 10 50h136q-17 -82 -29 -163t-12 -120q0 -26 9 -38
t28 -12q38 0 64 39.5t26 115.5q0 84 -36.5 148t-103 99t-155.5 35q-102 0 -174.5 -43.5t-110 -119t-37.5 -170.5q0 -94 37.5 -162.5t107 -105t162.5 -36.5q128 0 216 51l45 -89q-110 -62 -261 -62q-124 0 -215.5 48.5t-141.5 139.5t-50 216q0 119 51 218t147 157t224 58
q118 0 207.5 -47.5zM380.5 360.5q-21.5 -31.5 -21.5 -90.5q0 -38 13.5 -59t37.5 -21q31 0 53 34.5t22 93.5q0 35 -13.5 54.5t-36.5 19.5q-33 0 -54.5 -31.5z" />
    <glyph glyph-name="A" unicode="A" horiz-adv-x="731" 
d="M245 128l-36 -128h-211l239 712h257l239 -712h-211l-36 128h-241zM428 334q-31 109 -61 240h-2q-32 -137 -62 -240l-14 -49h153z" />
    <glyph glyph-name="B" unicode="B" horiz-adv-x="677" 
d="M565 662.5q65 -49.5 65 -134.5q0 -61 -28.5 -100t-89.5 -60v-2q67 -15 101.5 -57.5t34.5 -108.5q0 -92 -71 -146t-196 -54h-312v712h302q129 0 194 -49.5zM262 430h77q50 0 73.5 16.5t23.5 51.5q0 34 -22 50.5t-69 16.5h-83v-135zM262 148h81q53 0 76 16.5t23 53.5
q0 38 -24.5 55t-78.5 17h-77v-142z" />
    <glyph glyph-name="C" unicode="C" horiz-adv-x="730" 
d="M538.5 694.5q71.5 -33.5 112.5 -97t45 -150.5h-210q-6 53 -35.5 82t-79.5 29q-60 0 -95.5 -54t-35.5 -148q0 -93 35.5 -147.5t95.5 -54.5q49 0 80 31t36 86h213q-11 -138 -98.5 -212.5t-230.5 -74.5q-105 0 -181.5 45t-117.5 128.5t-41 198.5t41 198.5t117.5 128.5
t181.5 45q96 0 167.5 -33.5z" />
    <glyph glyph-name="D" unicode="D" horiz-adv-x="751" 
d="M620.5 619.5q99.5 -92.5 99.5 -263.5t-99.5 -263.5t-282.5 -92.5h-269v712h269q183 0 282.5 -92.5zM269 168h63q87 0 133 48.5t46 139.5t-46 139.5t-133 48.5h-63v-376z" />
    <glyph glyph-name="E" unicode="E" horiz-adv-x="635" 
d="M269 547v-107h293v-161h-293v-114h321v-165h-521v712h515v-165h-315z" />
    <glyph glyph-name="F" unicode="F" horiz-adv-x="597" 
d="M269 542v-134h286v-169h-286v-239h-200v712h506v-170h-306z" />
    <glyph glyph-name="G" unicode="G" horiz-adv-x="758" 
d="M544.5 697.5q69.5 -30.5 109.5 -87t45 -130.5h-212q-7 42 -33.5 64.5t-70.5 22.5q-66 0 -104.5 -57.5t-38.5 -156.5q0 -101 38.5 -160t105.5 -59q57 0 90.5 34.5t36.5 93.5h-137v146h323v-408h-171v68h-2q-32 -41 -80 -62t-110 -21q-93 0 -161.5 44.5t-105 127.5
t-36.5 196q0 116 42.5 200.5t122 129.5t188.5 45q91 0 160.5 -30.5z" />
    <glyph glyph-name="H" unicode="H" horiz-adv-x="771" 
d="M502 0v282h-233v-282h-200v712h200v-262h233v262h200v-712h-200z" />
    <glyph glyph-name="I" unicode="I" horiz-adv-x="338" 
d="M69 0v712h200v-712h-200z" />
    <glyph glyph-name="J" unicode="J" horiz-adv-x="428" 
d="M301 54q-63 -64 -195 -64q-43 0 -91 11v163q26 -4 44 -4q40 0 62.5 12.5t32.5 43t10 85.5v411h200v-458q0 -136 -63 -200z" />
    <glyph glyph-name="K" unicode="K" horiz-adv-x="716" 
d="M713 0h-250l-192 319h-2v-319h-200v712h200v-300h2l186 300h241l-247 -336z" />
    <glyph glyph-name="L" unicode="L" horiz-adv-x="586" 
d="M578 168v-168h-509v712h200v-544h309z" />
    <glyph glyph-name="M" unicode="M" horiz-adv-x="1042" 
d="M787 0v341q0 131 6 261h-2q-30 -144 -60 -258l-89 -344h-242l-89 344q-30 114 -60 258h-2q6 -130 6 -261v-341h-186v712h318l79 -306q34 -126 54 -262h2q18 122 54 262l79 306h318v-712h-186z" />
    <glyph glyph-name="N" unicode="N" horiz-adv-x="827" 
d="M467 0l-111 273q-57 143 -102 276h-2q8 -129 8 -291v-258h-191v712h291l110 -273q58 -141 102 -276h2q-8 155 -8 291v258h191v-712h-290z" />
    <glyph glyph-name="O" unicode="O" horiz-adv-x="767" 
d="M570 682.5q80 -45.5 123 -129.5t43 -197t-43 -197t-123 -129.5t-187 -45.5t-186.5 45.5t-122.5 129.5t-43 197t43 197t122.5 129.5t186.5 45.5t187 -45.5zM278 505.5q-37 -52.5 -37 -149.5t37 -149.5t105 -52.5q69 0 106 52.5t37 149.5t-37 149.5t-106 52.5
q-68 0 -105 -52.5z" />
    <glyph glyph-name="P" unicode="P" horiz-adv-x="673" 
d="M581.5 647.5q71.5 -64.5 71.5 -178.5t-71.5 -179t-211.5 -65h-101v-225h-200v712h301q140 0 211.5 -64.5zM269 382h73q105 0 105 87q0 86 -105 86h-73v-173z" />
    <glyph glyph-name="Q" unicode="Q" horiz-adv-x="767" 
d="M713 208q-23 -67 -66 -116l76 -84l-100 -90l-86 96q-67 -30 -154 -30q-107 0 -186.5 45.5t-122.5 129.5t-43 197t43 197t122.5 129.5t186.5 45.5t186.5 -45.5t123 -130t43.5 -196.5q0 -81 -23 -148zM420 144l-80 90l100 90l79 -88q17 48 17 114q0 100 -38.5 154
t-109.5 54q-70 0 -108.5 -54.5t-38.5 -153.5q0 -100 38.5 -154.5t108.5 -54.5q17 0 32 3z" />
    <glyph glyph-name="R" unicode="R" horiz-adv-x="705" 
d="M650 508q0 -65 -35 -110t-98 -64v-2q39 -14 62.5 -45.5t50.5 -102.5l66 -184h-212l-51 153q-18 53 -42.5 73.5t-71.5 20.5h-50v-247h-200v712h317q264 0 264 -204zM269 392h85q101 0 101 88q0 43 -27 62.5t-79 19.5h-80v-170z" />
    <glyph glyph-name="S" unicode="S" horiz-adv-x="661" 
d="M540.5 668.5q75.5 -59.5 75.5 -172.5h-210q0 39 -22.5 60t-65.5 21q-37 0 -58 -15t-21 -40q0 -20 12 -32.5t38 -21.5t79 -22q85 -21 139.5 -44.5t89 -68.5t34.5 -119q0 -71 -36.5 -122.5t-104.5 -79.5t-162 -28q-145 0 -226 65t-81 182h216q0 -91 98 -91q40 0 62.5 16.5
t22.5 44.5q0 22 -12 34.5t-36 21.5t-77 22q-88 24 -140 46t-86 65t-34 115q0 67 35 117.5t101 78t157 27.5q137 0 212.5 -59.5z" />
    <glyph glyph-name="T" unicode="T" horiz-adv-x="638" 
d="M419 544v-544h-200v544h-211v168h622v-168h-211z" />
    <glyph glyph-name="U" unicode="U" horiz-adv-x="731" 
d="M589.5 61.5q-78.5 -77.5 -223.5 -77.5t-224 77t-79 220v431h200v-428q0 -61 26.5 -93.5t76.5 -32.5t76 32.5t26 93.5v428h200v-431q0 -142 -78.5 -219.5z" />
    <glyph glyph-name="V" unicode="V" horiz-adv-x="687" 
d="M210 0l-207 712h211l70 -273q38 -147 59 -269h2q21 122 59 269l69 273h212l-207 -712h-268z" />
    <glyph glyph-name="W" unicode="W" horiz-adv-x="1025" 
d="M610 0l-54 287q-29 164 -42 269h-2q-14 -117 -43 -269l-54 -287h-270l-139 712h194l43 -254q23 -133 42 -288h2q18 141 47 288l50 254h257l50 -254q28 -139 48 -288h2q17 144 41 288l44 254h193l-139 -712h-270z" />
    <glyph glyph-name="X" unicode="X" horiz-adv-x="709" 
d="M708 0h-235l-118 239h-2l-117 -239h-236l220 369l-205 343h230l108 -229h2l109 229h230l-205 -343z" />
    <glyph glyph-name="Y" unicode="Y" horiz-adv-x="689" 
d="M444 0h-200v260l-244 452h220l56 -125q42 -94 67 -176h2q27 85 68 176l56 125h219l-244 -452v-260z" />
    <glyph glyph-name="Z" unicode="Z" horiz-adv-x="605" 
d="M260 166v-2h323v-164h-563v172l307 374v2h-293v164h532v-172z" />
    <glyph glyph-name="bracketleft" unicode="[" horiz-adv-x="388" 
d="M240 612v-639h122v-127h-302v895h303v-129h-123z" />
    <glyph glyph-name="backslash" unicode="\" horiz-adv-x="519" 
d="M489 -89h-141l-297 834h140z" />
    <glyph glyph-name="bracketright" unicode="]" horiz-adv-x="388" 
d="M328 -154h-302v127h122v639h-123v129h303v-895z" />
    <glyph glyph-name="asciicircum" unicode="^" horiz-adv-x="543" 
d="M362 371l-89 192h-2l-89 -192h-177l166 341h201l166 -341h-176z" />
    <glyph glyph-name="underscore" unicode="_" horiz-adv-x="500" 
d="M0 -155v105h500v-105h-500z" />
    <glyph glyph-name="grave" unicode="`" horiz-adv-x="388" 
d="M338 562h-146l-142 150h208z" />
    <glyph glyph-name="a" unicode="a" horiz-adv-x="576" 
d="M467 470q60 -54 60 -157v-165q0 -94 16 -148h-173q-8 29 -8 64h-2q-60 -78 -165 -78q-81 0 -129 45t-48 114t48 109t159 57q54 9 117 13v18q0 70 -60 70q-28 0 -43.5 -16.5t-16.5 -48.5h-183q5 77 65 127t180 50q123 0 183 -54zM264 217q-31 -7 -44.5 -21t-13.5 -38
t14.5 -38.5t41.5 -14.5q17 0 32.5 6t25.5 18q13 14 17.5 32t4.5 48v19q-49 -5 -78 -11z" />
    <glyph glyph-name="b" unicode="b" horiz-adv-x="622" 
d="M248 460q22 31 57.5 47t75.5 16q65 0 114 -33t75.5 -94t26.5 -142t-27.5 -142t-77.5 -94t-116 -33q-42 0 -77.5 18.5t-58.5 54.5h-2v-58h-184v712h192v-252h2zM257.5 344.5q-21.5 -33.5 -21.5 -90.5t21.5 -90.5t57.5 -33.5q37 0 59 33.5t22 90.5t-22 90.5t-59 33.5
q-36 0 -57.5 -33.5z" />
    <glyph glyph-name="c" unicode="c" horiz-adv-x="589" 
d="M485.5 465.5q72.5 -58.5 82.5 -157.5h-199q-3 35 -20.5 54t-45.5 19q-36 0 -56 -32.5t-20 -92.5q0 -63 20 -96t56 -33q29 0 47 21.5t19 60.5h199q-8 -105 -80.5 -165t-187.5 -60q-83 0 -145 33t-96 94.5t-34 144.5q0 81 33.5 141.5t96 93.5t145.5 33q113 0 185.5 -58.5z
" />
    <glyph glyph-name="d" unicode="d" horiz-adv-x="622" 
d="M384 0v58h-2q-23 -36 -58.5 -54.5t-77.5 -18.5q-66 0 -116 33t-77.5 94t-27.5 142t26.5 142t75.5 94t114 33q40 0 75.5 -16t57.5 -47h2v252h192v-712h-184zM248 344.5q-22 -33.5 -22 -90.5t22 -90.5t59 -33.5q36 0 57.5 33.5t21.5 90.5t-21.5 90.5t-57.5 33.5
q-37 0 -59 -33.5z" />
    <glyph glyph-name="e" unicode="e" horiz-adv-x="594" 
d="M344.5 121.5q18.5 13.5 21.5 35.5h196q-11 -49 -47 -88.5t-92 -62t-124 -22.5q-87 0 -148.5 35.5t-93.5 97.5t-32 140q0 76 32 136.5t93.5 95.5t145.5 35q92 0 156.5 -41t94.5 -116q12 -30 17 -65t5 -87h-355q3 -59 24.5 -83t58.5 -24q29 0 47.5 13.5zM215 316h161
q-4 46 -25 67t-55 21q-68 0 -81 -88z" />
    <glyph glyph-name="f" unicode="f" horiz-adv-x="380" 
d="M294.5 568.5q-17.5 -16.5 -17.5 -53.5v-7h92v-137h-92v-371h-192v371h-78v137h78v29q0 92 51 138.5t149 46.5q43 0 89 -10v-130q-7 3 -25 3q-37 0 -54.5 -16.5z" />
    <glyph glyph-name="g" unicode="g" horiz-adv-x="613" 
d="M317 501q38 -22 61 -61h2v68h179v-473q0 -232 -270 -232q-107 0 -170 43.5t-72 121.5h182q2 -23 18.5 -36t44.5 -13q39 0 59.5 25.5t20.5 84.5v49h-2q-22 -34 -59 -52.5t-80 -18.5q-63 0 -109.5 31.5t-71.5 90t-25 136.5t25.5 136.5t73.5 90t112 31.5q43 0 81 -22z
M243.5 347q-21.5 -31 -21.5 -82t21 -81.5t58 -30.5q35 0 56 30.5t21 81.5t-21 82t-56 31q-36 0 -57.5 -31z" />
    <glyph glyph-name="h" unicode="h" 
d="M248 462q23 29 57 44.5t76 15.5q87 0 136.5 -54t49.5 -155v-313h-192v289q0 85 -60 85q-69 0 -69 -119v-255h-192v712h192v-250h2z" />
    <glyph glyph-name="i" unicode="i" horiz-adv-x="300" 
d="M54 0v508h192v-508h-192zM54 571v141h192v-141h-192z" />
    <glyph glyph-name="j" unicode="j" horiz-adv-x="300" 
d="M191.5 -140q-54.5 -51 -145.5 -51q-53 0 -92 11v132q11 -3 25 -3q39 0 57 21t18 77v461h192v-494q0 -103 -54.5 -154zM54 571v141h192v-141h-192z" />
    <glyph glyph-name="k" unicode="k" horiz-adv-x="589" 
d="M364 0l-116 222h-2v-222h-192v712h192v-398h2l107 194h227l-170 -240l187 -268h-235z" />
    <glyph glyph-name="l" unicode="l" horiz-adv-x="300" 
d="M54 0v712h192v-712h-192z" />
    <glyph glyph-name="m" unicode="m" horiz-adv-x="919" 
d="M822.5 468q47.5 -54 47.5 -155v-313h-192v289q0 41 -13.5 63t-39.5 22q-67 0 -67 -120v-254h-192v294q0 80 -54 80q-66 0 -66 -120v-254h-192v508h178v-58h2q25 35 62 53.5t83 18.5q105 0 150 -89q56 89 163 89q83 0 130.5 -54z" />
    <glyph glyph-name="n" unicode="n" 
d="M517.5 468q49.5 -54 49.5 -155v-313h-192v289q0 85 -60 85q-69 0 -69 -119v-255h-192v508h178v-58h2q26 34 63 53t84 19q87 0 136.5 -54z" />
    <glyph glyph-name="o" unicode="o" horiz-adv-x="618" 
d="M459 491q64 -33 99 -94t35 -143t-35 -143t-99 -94t-150 -33t-150 33t-99 94t-35 143t35 143t99 94t150 33t150 -33zM248.5 347.5q-21.5 -33.5 -21.5 -93.5t21.5 -93.5t60.5 -33.5t60.5 33.5t21.5 93.5t-21.5 93.5t-60.5 33.5t-60.5 -33.5z" />
    <glyph glyph-name="p" unicode="p" horiz-adv-x="622" 
d="M492 490q50 -33 77.5 -94t27.5 -142t-26.5 -142t-75.5 -94t-114 -33q-40 0 -75.5 16t-57.5 47h-2v-233h-192v693h184v-58h2q23 36 58.5 54.5t77.5 18.5q66 0 116 -33zM257.5 344.5q-21.5 -33.5 -21.5 -90.5t21.5 -90.5t57.5 -33.5q37 0 59 33.5t22 90.5t-22 90.5
t-59 33.5q-36 0 -57.5 -33.5z" />
    <glyph glyph-name="q" unicode="q" horiz-adv-x="622" 
d="M323.5 504.5q35.5 -18.5 58.5 -54.5h2v58h184v-693h-192v233h-2q-22 -31 -57.5 -47t-75.5 -16q-65 0 -114 33t-75.5 94t-26.5 142t27.5 142t77.5 94t116 33q42 0 77.5 -18.5zM248 344.5q-22 -33.5 -22 -90.5t22 -90.5t59 -33.5q36 0 57.5 33.5t21.5 90.5t-21.5 90.5
t-57.5 33.5q-37 0 -59 -33.5z" />
    <glyph glyph-name="r" unicode="r" horiz-adv-x="437" 
d="M432 510v-164q-26 6 -58 6q-62 0 -95 -38t-33 -109v-205h-192v508h178v-69h2q27 40 63.5 58.5t84.5 18.5q28 0 50 -6z" />
    <glyph glyph-name="s" unicode="s" horiz-adv-x="559" 
d="M452 482q62 -42 62 -126h-182q0 56 -57 56q-47 0 -47 -34q0 -13 8 -20.5t28 -15t63 -18.5q64 -17 106 -34.5t70.5 -51.5t28.5 -88q0 -76 -65 -121t-182 -45q-259 0 -259 181h192q0 -32 16.5 -47.5t51.5 -15.5q27 0 40.5 9t13.5 26q0 15 -10.5 24.5t-33.5 17t-73 20.5
q-58 15 -95.5 31t-63 48t-25.5 85q0 73 60.5 117t178.5 44q112 0 174 -42z" />
    <glyph glyph-name="t" unicode="t" horiz-adv-x="398" 
d="M373 146v-142q-18 -6 -44.5 -9.5t-48.5 -3.5q-104 0 -151 41t-47 132v207h-77v137h77v142h192v-142h94v-137h-94v-155q0 -41 14.5 -58t48.5 -17q21 0 36 5z" />
    <glyph glyph-name="u" unicode="u" 
d="M98.5 40q-49.5 54 -49.5 155v313h192v-289q0 -85 60 -85q69 0 69 119v255h192v-508h-178v58h-2q-26 -34 -63 -53t-84 -19q-87 0 -136.5 54z" />
    <glyph glyph-name="v" unicode="v" horiz-adv-x="555" 
d="M147 0l-156 508h207l39 -171q26 -113 40 -212h2q16 110 39 212l40 171h206l-156 -508h-261z" />
    <glyph glyph-name="w" unicode="w" horiz-adv-x="886" 
d="M514 0l-36 181q-19 95 -34 211h-2q-15 -116 -34 -211l-36 -181h-254l-114 508h185l27 -177q17 -113 26 -211h2q13 90 39 213l39 175h242l39 -175q26 -123 39 -213h2q9 98 26 211l27 177h185l-114 -508h-254z" />
    <glyph glyph-name="x" unicode="x" horiz-adv-x="561" 
d="M567 0h-215l-70 155h-2l-70 -155h-216l165 261l-154 247h216l59 -140h2l59 140h215l-154 -247z" />
    <glyph glyph-name="y" unicode="y" horiz-adv-x="557" 
d="M351.5 -106q-31.5 -46 -76 -66t-111.5 -20q-60 0 -100 10v138q23 -6 47 -6q30 0 46.5 12.5t16.5 37.5q0 11 -5 28t-27 76l-154 404h208l45 -169q27 -104 47 -211h2q15 96 41 212l39 168h196l-157 -486q-26 -82 -57.5 -128z" />
    <glyph glyph-name="z" unicode="z" horiz-adv-x="521" 
d="M270 147v-2h221v-145h-461v149l214 212v2h-207v145h446v-149z" />
    <glyph glyph-name="braceleft" unicode="{" horiz-adv-x="383" 
d="M297 613q-17 -17 -17 -59v-120q0 -60 -26.5 -93t-81.5 -46v-3q55 -13 81.5 -46t26.5 -93v-119q0 -43 17 -60t56 -18v-110h-26q-85 0 -132 19.5t-66.5 61t-19.5 112.5v111q0 40 -14.5 58.5t-54.5 28.5v113q40 10 54.5 28.5t14.5 58.5v111q0 71 19.5 112.5t66.5 61
t132 19.5h26v-109q-39 -2 -56 -19z" />
    <glyph glyph-name="bar" unicode="|" horiz-adv-x="299" 
d="M71 -205v937h158v-937h-158z" />
    <glyph glyph-name="braceright" unicode="}" horiz-adv-x="383" 
d="M189 721.5q47 -19.5 66.5 -61t19.5 -112.5v-111q0 -40 14.5 -58.5t53.5 -28.5v-113q-39 -10 -53.5 -28.5t-14.5 -58.5v-111q0 -71 -19.5 -112.5t-66.5 -61t-133 -19.5h-26v110q39 1 56 18t17 60v119q0 60 26.5 93t81.5 46v3q-55 13 -81.5 46t-26.5 93v120q0 42 -17 59
t-56 19v109h26q86 0 133 -19.5z" />
    <glyph glyph-name="asciitilde" unicode="~" horiz-adv-x="606" 
d="M267.5 419.5q26.5 -11.5 63.5 -34.5q24 -16 39.5 -23.5t31.5 -7.5q25 0 40.5 19.5t15.5 50.5h123q0 -65 -23.5 -114.5t-65 -77t-94.5 -27.5q-33 0 -60.5 11.5t-62.5 33.5q-24 16 -40 23.5t-32 7.5q-25 0 -40 -18.5t-15 -50.5h-123q0 65 23.5 114.5t65 77t94.5 27.5
q33 0 59.5 -11.5z" />
    <glyph glyph-name="uni00A0" unicode="&#xa0;" horiz-adv-x="230" 
 />
    <glyph glyph-name="exclamdown" unicode="&#xa1;" horiz-adv-x="367" 
d="M283 508v-161h-199v161h199zM263 285l31 -489h-220l29 489h160z" />
    <glyph glyph-name="cent" unicode="&#xa2;" horiz-adv-x="656" 
d="M383 225.5q18 21.5 19 60.5h199q-7 -88 -60.5 -145.5t-142.5 -73.5v-96h-129v96q-98 17 -154.5 87.5t-56.5 178.5q0 106 56 175.5t155 87.5v96h129v-97q87 -15 141 -70.5t62 -139.5h-199q-3 35 -20.5 54t-45.5 19q-36 0 -56 -32.5t-20 -92.5q0 -63 20 -96t56 -33
q29 0 47 21.5z" />
    <glyph glyph-name="sterling" unicode="&#xa3;" horiz-adv-x="656" 
d="M615 155v-155h-592v155q44 0 65 25t21 87v2h-86v140h86v25q0 122 69 189t193 67q74 0 130.5 -28t87 -79.5t30.5 -120.5h-185q0 37 -16 56.5t-47 19.5q-37 0 -54 -25t-17 -79v-25h130v-140h-130q0 -42 -12.5 -69.5t-40.5 -42.5v-2h368z" />
    <glyph glyph-name="currency" unicode="&#xa4;" horiz-adv-x="656" 
d="M421 99q-43 -17 -93 -17q-51 0 -93 17l-81 -86l-96 88l79 84q-25 47 -25 106q0 58 25 105l-79 85l96 88l81 -86q42 17 93 17q50 0 93 -17l80 86l96 -88l-79 -84q24 -50 24 -106q0 -60 -24 -105l80 -85l-97 -88zM393.5 222q25.5 26 25.5 69t-25.5 69t-66.5 26t-66 -26
t-25 -69t25 -69t66 -26t66.5 26z" />
    <glyph glyph-name="yen" unicode="&#xa5;" horiz-adv-x="656" 
d="M581 337v-77h-153v-36h153v-76h-153v-148h-200v148h-153v76h153v36h-153v77h114l-169 337h217l31 -79q34 -84 59 -175h2q25 91 59 175l31 79h217l-169 -337h114z" />
    <glyph glyph-name="brokenbar" unicode="&#xa6;" horiz-adv-x="299" 
d="M71 382v350h158v-350h-158zM71 -205v350h158v-350h-158z" />
    <glyph glyph-name="section" unicode="&#xa7;" horiz-adv-x="665" 
d="M501 679q61 -49 67 -140h-183q-1 26 -15 40.5t-40 14.5q-22 0 -34.5 -11t-12.5 -29q0 -16 8 -25.5t30.5 -20t72.5 -27.5q66 -24 107.5 -46t70.5 -62t29 -103q0 -92 -77 -141v-2q52 -41 52 -112q0 -56 -29.5 -98.5t-84 -65.5t-126.5 -23q-116 0 -178.5 49.5t-66.5 146.5
h184q3 -60 58 -60q24 0 37.5 11t13.5 30q0 17 -9 28t-33 23t-82 37q-70 30 -108.5 52t-63 59.5t-24.5 95.5q0 45 20.5 80t57.5 54v2q-47 39 -47 108q0 85 63.5 134.5t169.5 49.5q112 0 173 -49zM225 323q0 -19 7.5 -31.5t27 -25.5t59.5 -30l101 -45q26 20 26 55
q0 27 -19 45.5t-74 40.5q-47 18 -102 43q-26 -21 -26 -52z" />
    <glyph glyph-name="dieresis" unicode="&#xa8;" horiz-adv-x="499" 
d="M50 571v141h162v-141h-162zM286 571v141h163v-141h-163z" />
    <glyph glyph-name="copyright" unicode="&#xa9;" horiz-adv-x="794" 
d="M586.5 681.5q82.5 -46.5 127.5 -131t45 -194.5t-45 -194.5t-127.5 -131t-189.5 -46.5t-189.5 46.5t-127.5 131t-45 194.5t45 194.5t127.5 131t189.5 46.5t189.5 -46.5zM244 618.5q-66 -37.5 -102.5 -105.5t-36.5 -157t36.5 -157t102.5 -105.5t153 -37.5t153 37.5
t102.5 105.5t36.5 157t-36.5 157t-102.5 105.5t-153 37.5t-153 -37.5zM539 531.5q52 -44.5 56 -124.5h-131q-3 31 -20 48t-45 17q-33 0 -52.5 -31t-19.5 -85q0 -53 20 -84.5t52 -31.5q28 0 45 18t20 50h133q-6 -83 -59 -127.5t-139 -44.5q-94 0 -148 58.5t-54 161.5
t54 161.5t148 58.5q88 0 140 -44.5z" />
    <glyph glyph-name="ordfeminine" unicode="&#xaa;" horiz-adv-x="427" 
d="M347 658q45 -39 45 -112v-110q0 -67 12 -106h-137q-6 18 -6 43h-1q-44 -53 -119 -53q-59 0 -93.5 31.5t-34.5 80.5q0 50 35.5 78t116.5 40q39 6 81 8v13q0 43 -37 43t-37 -42h-144q3 54 47.5 89.5t134.5 35.5q92 0 137 -39zM196 480q-36 -8 -36 -38q0 -15 9 -24t26 -9
q25 0 37 15q8 10 11 21t3 30v13q-31 -3 -50 -8z" />
    <glyph glyph-name="guillemotleft" unicode="&#xab;" horiz-adv-x="609" 
d="M567 54h-163l-114 200l114 200h163l-104 -200zM318 54h-163l-114 200l114 200h163l-104 -200z" />
    <glyph glyph-name="logicalnot" unicode="&#xac;" horiz-adv-x="566" 
d="M363 120v204h-308v150h456v-354h-148z" />
    <glyph glyph-name="uni00AD" unicode="&#xad;" horiz-adv-x="353" 
d="M30 225v134h293v-134h-293z" />
    <glyph glyph-name="registered" unicode="&#xae;" horiz-adv-x="592" 
d="M428 696q57 -32 88 -90.5t31 -135.5t-31 -135.5t-88 -90.5t-132 -32t-132 32t-88 90.5t-31 135.5t31 135.5t88 90.5t132 32t132 -32zM186 661q-48 -27 -74.5 -76.5t-26.5 -114.5t26.5 -114.5t74.5 -76.5t110 -27t110 27t74.5 76.5t26.5 114.5t-26.5 114.5t-74.5 76.5
t-110 27t-110 -27zM395 606.5q28 -23.5 28 -64.5q0 -29 -16 -48.5t-45 -28.5v-2q17 -5 28 -18.5t23 -43.5l31 -81h-91l-26 68q-8 23 -19.5 32t-33.5 9h-22v-109h-87v310h149q53 0 81 -23.5zM252 491h36q51 0 51 40q0 16 -12.5 25.5t-35.5 9.5h-39v-75z" />
    <glyph glyph-name="macron" unicode="&#xaf;" horiz-adv-x="493" 
d="M50 581v115h393v-115h-393z" />
    <glyph glyph-name="degree" unicode="&#xb0;" horiz-adv-x="356" 
d="M252.5 702.5q33.5 -19.5 53.5 -53.5t20 -75q0 -40 -20 -73.5t-53.5 -53.5t-73.5 -20t-74 20t-54 53.5t-20 73.5q0 41 20 75t54 53.5t74 19.5t73.5 -19.5zM136 617.5q-18 -17.5 -18 -43.5q0 -25 18 -43t43 -18t43 18t18 43q0 26 -17.5 43.5t-43.5 17.5q-25 0 -43 -17.5z
" />
    <glyph glyph-name="plusminus" unicode="&#xb1;" horiz-adv-x="566" 
d="M511 455v-145h-153v-130h-150v130h-153v145h153v130h150v-130h153zM55 0v145h456v-145h-456z" />
    <glyph glyph-name="uni00B2" unicode="&#xb2;" horiz-adv-x="484" 
d="M349 793.5q46 -19.5 70 -54t24 -76.5q0 -56 -34.5 -90.5t-98.5 -57.5q-58 -22 -77.5 -35t-22.5 -29h246v-121h-425q-1 8 -1 33q0 80 31 129.5t109 84.5q62 28 88.5 46t26.5 42q0 17 -11 27t-31 10q-23 0 -37.5 -15.5t-14.5 -44.5h-155q0 82 54 126.5t152 44.5
q61 0 107 -19.5z" />
    <glyph glyph-name="uni00B3" unicode="&#xb3;" horiz-adv-x="476" 
d="M386 776.5q55 -36.5 55 -98.5q0 -38 -20 -62t-64 -40v-2q47 -15 68.5 -40.5t21.5 -66.5q0 -68 -56.5 -108t-150.5 -40q-107 0 -163.5 44t-56.5 129h158q0 -65 61 -65q24 0 38 11t14 30q0 23 -17 34.5t-54 11.5h-12v108h18q28 0 45 11.5t17 30.5t-13 30t-37 11
q-28 0 -43 -16.5t-15 -45.5h-153q0 80 55.5 125t154.5 45q94 0 149 -36.5z" />
    <glyph glyph-name="acute" unicode="&#xb4;" horiz-adv-x="388" 
d="M50 562l80 150h208l-142 -150h-146z" />
    <glyph glyph-name="uni00B5" unicode="&#xb5;" horiz-adv-x="640" 
d="M575 145.5q10 -12.5 31 -12.5q13 0 25 3v-130q-48 -17 -111 -17q-97 0 -130 70h-2q-14 -31 -39.5 -47.5t-59.5 -16.5q-26 0 -43 9v-189h-192v693h192v-283q0 -91 59 -91q68 0 68 111v263h192v-320q0 -30 10 -42.5z" />
    <glyph glyph-name="paragraph" unicode="&#xb6;" horiz-adv-x="713" 
d="M599 588v-708h-133v708h-71v-708h-133v395h-14q-95 0 -151.5 59.5t-56.5 159.5t56.5 159t151.5 59h431v-124h-80z" />
    <glyph glyph-name="periodcentered" unicode="&#xb7;" horiz-adv-x="290" 
d="M45 205v201h200v-201h-200z" />
    <glyph glyph-name="cedilla" unicode="&#xb8;" horiz-adv-x="361" 
d="M220 -54q43 0 67 -21.5t24 -58.5q0 -46 -35 -75.5t-99 -29.5q-33 0 -66 9t-61 26l30 62q48 -23 82 -23q19 0 29 7t10 19q0 13 -10 21t-29 8q-16 0 -30 -7l-39 32l51 85h80l-36 -59q17 5 32 5z" />
    <glyph glyph-name="uni00B9" unicode="&#xb9;" horiz-adv-x="343" 
d="M132 330v275h-121v112q66 0 98.5 20t39.5 65h140v-472h-157z" />
    <glyph glyph-name="ordmasculine" unicode="&#xba;" horiz-adv-x="450" 
d="M376 646q56 -51 56 -138t-56 -138t-151 -51t-151 51t-56 138t56 138t151 51t151 -51zM187 565q-13 -20 -13 -57q0 -38 13 -58t38 -20t38 20t13 58q0 37 -13 57t-38 20t-38 -20z" />
    <glyph glyph-name="guillemotright" unicode="&#xbb;" horiz-adv-x="609" 
d="M318 254l-114 -200h-163l104 200l-104 200h163zM567 254l-114 -200h-162l104 200l-104 200h162z" />
    <glyph glyph-name="onequarter" unicode="&#xbc;" horiz-adv-x="847" 
d="M111 270v235h-102v97q51 0 79.5 18t37.5 54h128v-404h-143zM141 0l356 674h110l-356 -674h-110zM763 71v-71h-131v71h-194v101l154 232h171v-236h75v-97h-75zM640 168v34q0 66 4 115h-2q-21 -43 -57 -98l-33 -51h88z" />
    <glyph glyph-name="onehalf" unicode="&#xbd;" horiz-adv-x="868" 
d="M111 270v235h-102v97q51 0 79.5 18t37.5 54h128v-404h-143zM141 0l356 674h110l-356 -674h-110zM785.5 377.5q46.5 -36.5 46.5 -92.5q0 -48 -29.5 -77.5t-84.5 -50.5q-52 -19 -68.5 -29.5t-18.5 -23.5h213v-104h-369q-1 9 -1 29q0 67 27 108.5t95 73.5q57 28 78 42.5
t21 34.5q0 14 -9 22t-26 8q-21 0 -33 -13t-12 -39h-135q1 71 48 109.5t132 38.5q79 0 125.5 -36.5z" />
    <glyph glyph-name="threequarters" unicode="&#xbe;" horiz-adv-x="960" 
d="M332.5 651.5q48.5 -32.5 48.5 -85.5q0 -33 -17.5 -53.5t-55.5 -31.5v-2q41 -12 59.5 -34.5t18.5 -58.5q0 -61 -46 -93.5t-133 -32.5q-91 0 -141 38t-50 111h136q0 -53 55 -53q21 0 34 9.5t13 25.5q0 36 -60 36h-14v92h13q57 0 57 36q0 15 -12 24t-34 9q-24 0 -37.5 -13
t-13.5 -36h-130q0 68 48.5 106.5t133.5 38.5q79 0 127.5 -32.5zM254 0l356 674h110l-356 -674h-110zM876 71v-71h-131v71h-194v101l154 232h171v-236h75v-97h-75zM753 168v34q0 66 4 115h-2q-21 -43 -57 -98l-33 -51h88z" />
    <glyph glyph-name="questiondown" unicode="&#xbf;" horiz-adv-x="567" 
d="M402 508v-161h-199v161h199zM102.5 -168.5q-69.5 51.5 -69.5 141.5q0 51 20.5 86t76.5 82q55 45 73 76t18 80h162q3 -27 3 -54q0 -38 -6.5 -63t-25 -48.5t-55.5 -57.5q-40 -36 -52 -54.5t-12 -44.5q0 -25 16 -40t44 -15q37 0 55.5 23t18.5 73h198q-1 -115 -72 -175.5
t-200 -60.5q-123 0 -192.5 51.5z" />
    <glyph glyph-name="Agrave" unicode="&#xc0;" horiz-adv-x="731" 
d="M245 128l-36 -128h-211l239 712h257l239 -712h-211l-36 128h-241zM428 334q-31 109 -61 240h-2q-32 -137 -62 -240l-14 -49h153zM472 760h-146l-142 156h208z" />
    <glyph glyph-name="Aacute" unicode="&#xc1;" horiz-adv-x="731" 
d="M245 128l-36 -128h-211l239 712h257l239 -712h-211l-36 128h-241zM428 334q-31 109 -61 240h-2q-32 -137 -62 -240l-14 -49h153zM259 760l80 156h208l-142 -156h-146z" />
    <glyph glyph-name="Acircumflex" unicode="&#xc2;" horiz-adv-x="731" 
d="M245 128l-36 -128h-211l239 712h257l239 -712h-211l-36 128h-241zM428 334q-31 109 -61 240h-2q-32 -137 -62 -240l-14 -49h153zM446 916l128 -156h-149l-60 81l-59 -81h-149l127 156h162z" />
    <glyph glyph-name="Atilde" unicode="&#xc3;" horiz-adv-x="731" 
d="M245 128l-36 -128h-211l239 712h257l239 -712h-211l-36 128h-241zM428 334q-31 109 -61 240h-2q-32 -137 -62 -240l-14 -49h153zM530.5 804.5q-33.5 -40.5 -93.5 -40.5q-23 0 -41 6t-43 18q-18 9 -28.5 13t-21.5 4q-18 0 -27.5 -10t-12.5 -31h-99q4 72 37.5 112t93.5 40
q23 0 41 -6t43 -18q3 -1 19.5 -8.5t30.5 -7.5q18 0 27.5 9.5t11.5 30.5h99q-3 -71 -36.5 -111.5z" />
    <glyph glyph-name="Adieresis" unicode="&#xc4;" horiz-adv-x="731" 
d="M245 128l-36 -128h-211l239 712h257l239 -712h-211l-36 128h-241zM428 334q-31 109 -61 240h-2q-32 -137 -62 -240l-14 -49h153zM166 769v141h162v-141h-162zM402 769v141h163v-141h-163z" />
    <glyph glyph-name="Aring" unicode="&#xc5;" horiz-adv-x="731" 
d="M245 128l-36 -128h-211l239 712h257l239 -712h-211l-36 128h-241zM428 334q-31 109 -61 240h-2q-32 -137 -62 -240l-14 -49h153zM450.5 958q34.5 -35 34.5 -85t-34.5 -85t-84.5 -35q-49 0 -84.5 35.5t-35.5 84.5q0 50 35.5 85t84.5 35q50 0 84.5 -35zM325 914
q-17 -17 -17 -41t17 -41t41 -17t41 17t17 41t-17 41t-41 17t-41 -17z" />
    <glyph glyph-name="AE" unicode="&#xc6;" horiz-adv-x="989" 
d="M944 0h-421l-20 142h-236l-57 -142h-216l304 712h643v-165h-308l16 -107h267v-161h-245l17 -114h256v-165zM445 549h-14l-99 -247h149z" />
    <glyph glyph-name="Ccedilla" unicode="&#xc7;" horiz-adv-x="730" 
d="M612 68q-78 -74 -206 -83l-27 -44q17 5 32 5q43 0 67 -21.5t24 -58.5q0 -46 -35 -75.5t-99 -29.5q-33 0 -66 9t-61 26l30 62q48 -23 82 -23q19 0 29 7t10 19q0 13 -10 21t-29 8q-16 0 -30 -7l-39 32l43 71q-140 14 -218 112t-78 258q0 115 41 198.5t117.5 128.5t181.5 45
q96 0 167.5 -33.5t112.5 -97t45 -150.5h-210q-6 53 -35.5 82t-79.5 29q-60 0 -95.5 -54t-35.5 -148q0 -93 35.5 -147.5t95.5 -54.5q49 0 80 31t36 86h213q-10 -129 -88 -203z" />
    <glyph glyph-name="Egrave" unicode="&#xc8;" horiz-adv-x="635" 
d="M269 547v-107h293v-161h-293v-114h321v-165h-521v712h515v-165h-315zM435 760h-146l-142 156h208z" />
    <glyph glyph-name="Eacute" unicode="&#xc9;" horiz-adv-x="635" 
d="M269 547v-107h293v-161h-293v-114h321v-165h-521v712h515v-165h-315zM222 760l80 156h208l-142 -156h-146z" />
    <glyph glyph-name="Ecircumflex" unicode="&#xca;" horiz-adv-x="635" 
d="M269 547v-107h293v-161h-293v-114h321v-165h-521v712h515v-165h-315zM409 916l128 -156h-149l-60 81l-59 -81h-149l127 156h162z" />
    <glyph glyph-name="Edieresis" unicode="&#xcb;" horiz-adv-x="635" 
d="M269 547v-107h293v-161h-293v-114h321v-165h-521v712h515v-165h-315zM129 769v141h162v-141h-162zM365 769v141h163v-141h-163z" />
    <glyph glyph-name="Igrave" unicode="&#xcc;" horiz-adv-x="338" 
d="M69 0v712h200v-712h-200zM275 760h-146l-142 156h208z" />
    <glyph glyph-name="Iacute" unicode="&#xcd;" horiz-adv-x="338" 
d="M69 0v712h200v-712h-200zM62 760l80 156h208l-142 -156h-146z" />
    <glyph glyph-name="Icircumflex" unicode="&#xce;" horiz-adv-x="338" 
d="M69 0v712h200v-712h-200zM249 916l128 -156h-149l-60 81l-59 -81h-149l127 156h162z" />
    <glyph glyph-name="Idieresis" unicode="&#xcf;" horiz-adv-x="338" 
d="M69 0v712h200v-712h-200zM-31 769v141h162v-141h-162zM205 769v141h163v-141h-163z" />
    <glyph glyph-name="Eth" unicode="&#xd0;" horiz-adv-x="754" 
d="M624 619.5q99 -92.5 99 -263.5t-99 -263.5t-283 -92.5h-268v298h-60v122h60v292h268q184 0 283 -92.5zM468 216.5q46 48.5 46 139.5t-46 139.5t-133 48.5h-63v-124h140v-122h-140v-130h63q87 0 133 48.5z" />
    <glyph glyph-name="Ntilde" unicode="&#xd1;" horiz-adv-x="827" 
d="M467 0l-111 273q-57 143 -102 276h-2q8 -129 8 -291v-258h-191v712h291l110 -273q58 -141 102 -276h2q-8 155 -8 291v258h191v-712h-290zM577.5 804.5q-33.5 -40.5 -93.5 -40.5q-23 0 -41 6t-43 18q-18 9 -28.5 13t-21.5 4q-18 0 -27.5 -10t-12.5 -31h-99q4 72 37.5 112
t93.5 40q23 0 41 -6t43 -18q3 -1 19.5 -8.5t30.5 -7.5q18 0 27.5 9.5t11.5 30.5h99q-3 -71 -36.5 -111.5z" />
    <glyph glyph-name="Ograve" unicode="&#xd2;" horiz-adv-x="767" 
d="M570 682.5q80 -45.5 123 -129.5t43 -197t-43 -197t-123 -129.5t-187 -45.5t-186.5 45.5t-122.5 129.5t-43 197t43 197t122.5 129.5t186.5 45.5t187 -45.5zM278 505.5q-37 -52.5 -37 -149.5t37 -149.5t105 -52.5q69 0 106 52.5t37 149.5t-37 149.5t-106 52.5
q-68 0 -105 -52.5zM490 760h-146l-142 156h208z" />
    <glyph glyph-name="Oacute" unicode="&#xd3;" horiz-adv-x="767" 
d="M570 682.5q80 -45.5 123 -129.5t43 -197t-43 -197t-123 -129.5t-187 -45.5t-186.5 45.5t-122.5 129.5t-43 197t43 197t122.5 129.5t186.5 45.5t187 -45.5zM278 505.5q-37 -52.5 -37 -149.5t37 -149.5t105 -52.5q69 0 106 52.5t37 149.5t-37 149.5t-106 52.5
q-68 0 -105 -52.5zM277 760l80 156h208l-142 -156h-146z" />
    <glyph glyph-name="Ocircumflex" unicode="&#xd4;" horiz-adv-x="767" 
d="M570 682.5q80 -45.5 123 -129.5t43 -197t-43 -197t-123 -129.5t-187 -45.5t-186.5 45.5t-122.5 129.5t-43 197t43 197t122.5 129.5t186.5 45.5t187 -45.5zM278 505.5q-37 -52.5 -37 -149.5t37 -149.5t105 -52.5q69 0 106 52.5t37 149.5t-37 149.5t-106 52.5
q-68 0 -105 -52.5zM464 916l128 -156h-149l-60 81l-59 -81h-149l127 156h162z" />
    <glyph glyph-name="Otilde" unicode="&#xd5;" horiz-adv-x="767" 
d="M570 682.5q80 -45.5 123 -129.5t43 -197t-43 -197t-123 -129.5t-187 -45.5t-186.5 45.5t-122.5 129.5t-43 197t43 197t122.5 129.5t186.5 45.5t187 -45.5zM278 505.5q-37 -52.5 -37 -149.5t37 -149.5t105 -52.5q69 0 106 52.5t37 149.5t-37 149.5t-106 52.5
q-68 0 -105 -52.5zM547.5 804.5q-33.5 -40.5 -93.5 -40.5q-23 0 -41 6t-43 18q-18 9 -28.5 13t-21.5 4q-18 0 -27.5 -10t-12.5 -31h-99q4 72 37.5 112t93.5 40q23 0 41 -6t43 -18q3 -1 19.5 -8.5t30.5 -7.5q18 0 27.5 9.5t11.5 30.5h99q-3 -71 -36.5 -111.5z" />
    <glyph glyph-name="Odieresis" unicode="&#xd6;" horiz-adv-x="767" 
d="M570 682.5q80 -45.5 123 -129.5t43 -197t-43 -197t-123 -129.5t-187 -45.5t-186.5 45.5t-122.5 129.5t-43 197t43 197t122.5 129.5t186.5 45.5t187 -45.5zM278 505.5q-37 -52.5 -37 -149.5t37 -149.5t105 -52.5q69 0 106 52.5t37 149.5t-37 149.5t-106 52.5
q-68 0 -105 -52.5zM184 769v141h162v-141h-162zM420 769v141h163v-141h-163z" />
    <glyph glyph-name="multiply" unicode="&#xd7;" horiz-adv-x="566" 
d="M389 318l166 -166l-105 -106l-166 166l-166 -166l-106 106l167 166l-167 165l106 106l166 -166l166 166l105 -106z" />
    <glyph glyph-name="Oslash" unicode="&#xd8;" horiz-adv-x="767" 
d="M712 508.5q24 -68.5 24 -152.5q0 -113 -43 -197t-123 -129.5t-187 -45.5q-102 0 -181 42l-59 -80l-79 58l61 82q-46 49 -70 117.5t-24 152.5q0 113 43 197t122.5 129.5t186.5 45.5q104 0 182 -43l60 81l79 -58l-61 -83q45 -48 69 -116.5zM245 250l218 296q-35 22 -80 22
q-73 0 -113 -55.5t-40 -156.5q0 -62 15 -106zM497 199.5q40 55.5 40 156.5q0 60 -14 105l-218 -295q32 -22 78 -22q74 0 114 55.5z" />
    <glyph glyph-name="Ugrave" unicode="&#xd9;" horiz-adv-x="731" 
d="M589.5 61.5q-78.5 -77.5 -223.5 -77.5t-224 77t-79 220v431h200v-428q0 -61 26.5 -93.5t76.5 -32.5t76 32.5t26 93.5v428h200v-431q0 -142 -78.5 -219.5zM471 760h-146l-142 156h208z" />
    <glyph glyph-name="Uacute" unicode="&#xda;" horiz-adv-x="731" 
d="M589.5 61.5q-78.5 -77.5 -223.5 -77.5t-224 77t-79 220v431h200v-428q0 -61 26.5 -93.5t76.5 -32.5t76 32.5t26 93.5v428h200v-431q0 -142 -78.5 -219.5zM259 760l80 156h208l-142 -156h-146z" />
    <glyph glyph-name="Ucircumflex" unicode="&#xdb;" horiz-adv-x="731" 
d="M589.5 61.5q-78.5 -77.5 -223.5 -77.5t-224 77t-79 220v431h200v-428q0 -61 26.5 -93.5t76.5 -32.5t76 32.5t26 93.5v428h200v-431q0 -142 -78.5 -219.5zM445 916l128 -156h-149l-60 81l-59 -81h-149l127 156h162z" />
    <glyph glyph-name="Udieresis" unicode="&#xdc;" horiz-adv-x="731" 
d="M589.5 61.5q-78.5 -77.5 -223.5 -77.5t-224 77t-79 220v431h200v-428q0 -61 26.5 -93.5t76.5 -32.5t76 32.5t26 93.5v428h200v-431q0 -142 -78.5 -219.5zM166 769v141h162v-141h-162zM402 769v141h163v-141h-163z" />
    <glyph glyph-name="Yacute" unicode="&#xdd;" horiz-adv-x="689" 
d="M444 0h-200v260l-244 452h220l56 -125q42 -94 67 -176h2q27 85 68 176l56 125h219l-244 -452v-260zM238 760l80 156h208l-142 -156h-146z" />
    <glyph glyph-name="Thorn" unicode="&#xde;" horiz-adv-x="673" 
d="M370 613q139 0 211 -65.5t72 -181.5q0 -117 -72 -183t-211 -66h-100v-117h-201v712h201v-99h100zM270 279h64q60 0 86.5 20.5t26.5 65.5t-27 66t-86 21h-64v-173z" />
    <glyph glyph-name="germandbls" unicode="&#xdf;" horiz-adv-x="599" 
d="M482 679.5q67 -48.5 67 -130.5q0 -60 -30 -97.5t-93 -57.5v-2q76 -20 113 -66.5t37 -121.5q0 -103 -64.5 -155t-189.5 -52q-22 0 -37 3v144q7 -2 18 -2q37 0 56.5 21.5t19.5 63.5q0 41 -21.5 63t-62.5 22h-10v151q42 0 62.5 16.5t20.5 49.5q0 28 -16 43t-43 15
q-33 0 -48 -22t-15 -69v-496h-192v509q0 102 66.5 160.5t182.5 58.5q112 0 179 -48.5z" />
    <glyph glyph-name="agrave" unicode="&#xe0;" horiz-adv-x="576" 
d="M467 470q60 -54 60 -157v-165q0 -94 16 -148h-173q-8 29 -8 64h-2q-60 -78 -165 -78q-81 0 -129 45t-48 114t48 109t159 57q54 9 117 13v18q0 70 -60 70q-28 0 -43.5 -16.5t-16.5 -48.5h-183q5 77 65 127t180 50q123 0 183 -54zM264 217q-31 -7 -44.5 -21t-13.5 -38
t14.5 -38.5t41.5 -14.5q17 0 32.5 6t25.5 18q13 14 17.5 32t4.5 48v19q-49 -5 -78 -11zM384 562h-146l-142 150h208z" />
    <glyph glyph-name="aacute" unicode="&#xe1;" horiz-adv-x="576" 
d="M467 470q60 -54 60 -157v-165q0 -94 16 -148h-173q-8 29 -8 64h-2q-60 -78 -165 -78q-81 0 -129 45t-48 114t48 109t159 57q54 9 117 13v18q0 70 -60 70q-28 0 -43.5 -16.5t-16.5 -48.5h-183q5 77 65 127t180 50q123 0 183 -54zM264 217q-31 -7 -44.5 -21t-13.5 -38
t14.5 -38.5t41.5 -14.5q17 0 32.5 6t25.5 18q13 14 17.5 32t4.5 48v19q-49 -5 -78 -11zM171 562l80 150h208l-142 -150h-146z" />
    <glyph glyph-name="acircumflex" unicode="&#xe2;" horiz-adv-x="576" 
d="M467 470q60 -54 60 -157v-165q0 -94 16 -148h-173q-8 29 -8 64h-2q-60 -78 -165 -78q-81 0 -129 45t-48 114t48 109t159 57q54 9 117 13v18q0 70 -60 70q-28 0 -43.5 -16.5t-16.5 -48.5h-183q5 77 65 127t180 50q123 0 183 -54zM264 217q-31 -7 -44.5 -21t-13.5 -38
t14.5 -38.5t41.5 -14.5q17 0 32.5 6t25.5 18q13 14 17.5 32t4.5 48v19q-49 -5 -78 -11zM278 637l-55 -75h-149l123 150h162l123 -150h-149z" />
    <glyph glyph-name="atilde" unicode="&#xe3;" horiz-adv-x="576" 
d="M467 470q60 -54 60 -157v-165q0 -94 16 -148h-173q-8 29 -8 64h-2q-60 -78 -165 -78q-81 0 -129 45t-48 114t48 109t159 57q54 9 117 13v18q0 70 -60 70q-28 0 -43.5 -16.5t-16.5 -48.5h-183q5 77 65 127t180 50q123 0 183 -54zM264 217q-31 -7 -44.5 -21t-13.5 -38
t14.5 -38.5t41.5 -14.5q17 0 32.5 6t25.5 18q13 14 17.5 32t4.5 48v19q-49 -5 -78 -11zM442.5 600.5q-33.5 -40.5 -93.5 -40.5q-23 0 -41 6t-43 18q-18 9 -28.5 13t-21.5 4q-18 0 -27.5 -10t-12.5 -31h-99q4 72 37.5 112t93.5 40q23 0 41 -6t43 -18q3 -1 19.5 -8.5
t30.5 -7.5q18 0 27.5 9.5t11.5 30.5h99q-3 -71 -36.5 -111.5z" />
    <glyph glyph-name="adieresis" unicode="&#xe4;" horiz-adv-x="576" 
d="M467 470q60 -54 60 -157v-165q0 -94 16 -148h-173q-8 29 -8 64h-2q-60 -78 -165 -78q-81 0 -129 45t-48 114t48 109t159 57q54 9 117 13v18q0 70 -60 70q-28 0 -43.5 -16.5t-16.5 -48.5h-183q5 77 65 127t180 50q123 0 183 -54zM264 217q-31 -7 -44.5 -21t-13.5 -38
t14.5 -38.5t41.5 -14.5q17 0 32.5 6t25.5 18q13 14 17.5 32t4.5 48v19q-49 -5 -78 -11zM78 571v141h162v-141h-162zM314 571v141h163v-141h-163z" />
    <glyph glyph-name="aring" unicode="&#xe5;" horiz-adv-x="576" 
d="M467 470q60 -54 60 -157v-165q0 -94 16 -148h-173q-8 29 -8 64h-2q-60 -78 -165 -78q-81 0 -129 45t-48 114t48 109t159 57q54 9 117 13v18q0 70 -60 70q-28 0 -43.5 -16.5t-16.5 -48.5h-183q5 77 65 127t180 50q123 0 183 -54zM264 217q-31 -7 -44.5 -21t-13.5 -38
t14.5 -38.5t41.5 -14.5q17 0 32.5 6t25.5 18q13 14 17.5 32t4.5 48v19q-49 -5 -78 -11zM362.5 754q34.5 -35 34.5 -85t-34.5 -85t-84.5 -35q-49 0 -84.5 35.5t-35.5 84.5q0 50 35.5 85t84.5 35q50 0 84.5 -35zM237 710q-17 -17 -17 -41t17 -41t41 -17t41 17t17 41t-17 41
t-41 17t-41 -17z" />
    <glyph glyph-name="ae" unicode="&#xe6;" horiz-adv-x="911" 
d="M661.5 121.5q18.5 13.5 20.5 35.5h196q-11 -49 -47 -88.5t-91.5 -62t-122.5 -22.5q-62 0 -111 21t-82 60q-59 -81 -192 -81q-102 0 -158 45t-56 116q0 93 73 132t231 39h32v26q0 36 -15.5 53t-49.5 17q-65 0 -66 -65h-183q5 77 66 127t183 50q110 0 168 -49q63 49 157 49
q92 0 156 -41t93 -116q12 -30 17.5 -65.5t5.5 -86.5h-353q3 -59 24.5 -83t57.5 -24q28 0 46.5 13.5zM536 314h157q-3 47 -24.5 68.5t-54.5 21.5q-66 0 -78 -90zM323 223q-117 0 -117 -66q0 -26 15 -41.5t43 -15.5q41 0 64 24q14 14 20 34t6 52v13h-31z" />
    <glyph glyph-name="ccedilla" unicode="&#xe7;" horiz-adv-x="589" 
d="M350 148.5q18 21.5 19 60.5h199q-7 -96 -69.5 -155t-163.5 -68l-27 -45q17 5 32 5q43 0 67 -21.5t24 -58.5q0 -46 -35 -75.5t-99 -29.5q-33 0 -66 9t-61 26l30 62q48 -23 82 -23q19 0 29 7t10 19q0 13 -10 21t-29 8q-16 0 -30 -7l-39 32l43 72q-107 13 -169 84.5
t-62 184.5q0 81 33.5 141.5t96 93.5t145.5 33q113 0 185.5 -58.5t82.5 -157.5h-199q-3 35 -20.5 54t-45.5 19q-36 0 -56 -32.5t-20 -92.5q0 -63 20 -96t56 -33q29 0 47 21.5z" />
    <glyph glyph-name="egrave" unicode="&#xe8;" horiz-adv-x="594" 
d="M344.5 121.5q18.5 13.5 21.5 35.5h196q-11 -49 -47 -88.5t-92 -62t-124 -22.5q-87 0 -148.5 35.5t-93.5 97.5t-32 140q0 76 32 136.5t93.5 95.5t145.5 35q92 0 156.5 -41t94.5 -116q12 -30 17 -65t5 -87h-355q3 -59 24.5 -83t58.5 -24q29 0 47.5 13.5zM215 316h161
q-4 46 -25 67t-55 21q-68 0 -81 -88zM403 562h-146l-142 150h208z" />
    <glyph glyph-name="eacute" unicode="&#xe9;" horiz-adv-x="594" 
d="M344.5 121.5q18.5 13.5 21.5 35.5h196q-11 -49 -47 -88.5t-92 -62t-124 -22.5q-87 0 -148.5 35.5t-93.5 97.5t-32 140q0 76 32 136.5t93.5 95.5t145.5 35q92 0 156.5 -41t94.5 -116q12 -30 17 -65t5 -87h-355q3 -59 24.5 -83t58.5 -24q29 0 47.5 13.5zM215 316h161
q-4 46 -25 67t-55 21q-68 0 -81 -88zM190 562l80 150h208l-142 -150h-146z" />
    <glyph glyph-name="ecircumflex" unicode="&#xea;" horiz-adv-x="594" 
d="M344.5 121.5q18.5 13.5 21.5 35.5h196q-11 -49 -47 -88.5t-92 -62t-124 -22.5q-87 0 -148.5 35.5t-93.5 97.5t-32 140q0 76 32 136.5t93.5 95.5t145.5 35q92 0 156.5 -41t94.5 -116q12 -30 17 -65t5 -87h-355q3 -59 24.5 -83t58.5 -24q29 0 47.5 13.5zM215 316h161
q-4 46 -25 67t-55 21q-68 0 -81 -88zM297 637l-55 -75h-149l123 150h162l123 -150h-149z" />
    <glyph glyph-name="edieresis" unicode="&#xeb;" horiz-adv-x="594" 
d="M344.5 121.5q18.5 13.5 21.5 35.5h196q-11 -49 -47 -88.5t-92 -62t-124 -22.5q-87 0 -148.5 35.5t-93.5 97.5t-32 140q0 76 32 136.5t93.5 95.5t145.5 35q92 0 156.5 -41t94.5 -116q12 -30 17 -65t5 -87h-355q3 -59 24.5 -83t58.5 -24q29 0 47.5 13.5zM215 316h161
q-4 46 -25 67t-55 21q-68 0 -81 -88zM97 571v141h162v-141h-162zM333 571v141h163v-141h-163z" />
    <glyph glyph-name="igrave" unicode="&#xec;" horiz-adv-x="300" 
d="M54 0v508h192v-508h-192zM256 562h-146l-142 150h208z" />
    <glyph glyph-name="iacute" unicode="&#xed;" horiz-adv-x="300" 
d="M54 0v508h192v-508h-192zM44 562l80 150h208l-142 -150h-146z" />
    <glyph glyph-name="icircumflex" unicode="&#xee;" horiz-adv-x="300" 
d="M54 0v508h192v-508h-192zM198 565l-48 64l-47 -64h-142l113 147h152l113 -147h-141z" />
    <glyph glyph-name="idieresis" unicode="&#xef;" horiz-adv-x="300" 
d="M54 0v508h192v-508h-192zM-15 571v141h142v-141h-142zM173 571v141h143v-141h-143z" />
    <glyph glyph-name="eth" unicode="&#xf0;" horiz-adv-x="605" 
d="M561 396q19 -61 19 -132q0 -87 -34.5 -150.5t-98 -96.5t-149.5 -33q-82 0 -144 31t-95.5 88t-33.5 133q0 79 28 138.5t79.5 91.5t120.5 32q34 0 58 -9v2q-27 31 -65 66l-130 -46l-28 77l85 30q-23 18 -59 43l165 67q38 -24 67 -48l124 44l28 -77l-82 -29q51 -50 86 -101
q40 -60 59 -121zM362 156.5q20 33.5 20 94.5q0 60 -20 94t-57 34t-57 -34t-20 -94q0 -61 20 -94.5t57 -33.5t57 33.5z" />
    <glyph glyph-name="ntilde" unicode="&#xf1;" 
d="M517.5 468q49.5 -54 49.5 -155v-313h-192v289q0 85 -60 85q-69 0 -69 -119v-255h-192v508h178v-58h2q26 34 63 53t84 19q87 0 136.5 -54zM475.5 600.5q-33.5 -40.5 -93.5 -40.5q-23 0 -41 6t-43 18q-18 9 -28.5 13t-21.5 4q-18 0 -27.5 -10t-12.5 -31h-99q4 72 37.5 112
t93.5 40q23 0 41 -6t43 -18q3 -1 19.5 -8.5t30.5 -7.5q18 0 27.5 9.5t11.5 30.5h99q-3 -71 -36.5 -111.5z" />
    <glyph glyph-name="ograve" unicode="&#xf2;" horiz-adv-x="618" 
d="M459 491q64 -33 99 -94t35 -143t-35 -143t-99 -94t-150 -33t-150 33t-99 94t-35 143t35 143t99 94t150 33t150 -33zM248.5 347.5q-21.5 -33.5 -21.5 -93.5t21.5 -93.5t60.5 -33.5t60.5 33.5t21.5 93.5t-21.5 93.5t-60.5 33.5t-60.5 -33.5zM415 562h-146l-142 150h208z
" />
    <glyph glyph-name="oacute" unicode="&#xf3;" horiz-adv-x="618" 
d="M459 491q64 -33 99 -94t35 -143t-35 -143t-99 -94t-150 -33t-150 33t-99 94t-35 143t35 143t99 94t150 33t150 -33zM248.5 347.5q-21.5 -33.5 -21.5 -93.5t21.5 -93.5t60.5 -33.5t60.5 33.5t21.5 93.5t-21.5 93.5t-60.5 33.5t-60.5 -33.5zM203 562l80 150h208l-142 -150
h-146z" />
    <glyph glyph-name="ocircumflex" unicode="&#xf4;" horiz-adv-x="618" 
d="M459 491q64 -33 99 -94t35 -143t-35 -143t-99 -94t-150 -33t-150 33t-99 94t-35 143t35 143t99 94t150 33t150 -33zM248.5 347.5q-21.5 -33.5 -21.5 -93.5t21.5 -93.5t60.5 -33.5t60.5 33.5t21.5 93.5t-21.5 93.5t-60.5 33.5t-60.5 -33.5zM309 637l-55 -75h-149l123 150
h162l123 -150h-149z" />
    <glyph glyph-name="otilde" unicode="&#xf5;" horiz-adv-x="618" 
d="M459 491q64 -33 99 -94t35 -143t-35 -143t-99 -94t-150 -33t-150 33t-99 94t-35 143t35 143t99 94t150 33t150 -33zM248.5 347.5q-21.5 -33.5 -21.5 -93.5t21.5 -93.5t60.5 -33.5t60.5 33.5t21.5 93.5t-21.5 93.5t-60.5 33.5t-60.5 -33.5zM473.5 600.5
q-33.5 -40.5 -93.5 -40.5q-23 0 -41 6t-43 18q-18 9 -28.5 13t-21.5 4q-18 0 -27.5 -10t-12.5 -31h-99q4 72 37.5 112t93.5 40q23 0 41 -6t43 -18q3 -1 19.5 -8.5t30.5 -7.5q18 0 27.5 9.5t11.5 30.5h99q-3 -71 -36.5 -111.5z" />
    <glyph glyph-name="odieresis" unicode="&#xf6;" horiz-adv-x="618" 
d="M459 491q64 -33 99 -94t35 -143t-35 -143t-99 -94t-150 -33t-150 33t-99 94t-35 143t35 143t99 94t150 33t150 -33zM248.5 347.5q-21.5 -33.5 -21.5 -93.5t21.5 -93.5t60.5 -33.5t60.5 33.5t21.5 93.5t-21.5 93.5t-60.5 33.5t-60.5 -33.5zM110 571v141h162v-141h-162z
M346 571v141h163v-141h-163z" />
    <glyph glyph-name="divide" unicode="&#xf7;" horiz-adv-x="566" 
d="M201 440v126h164v-126h-164zM55 243v149h456v-149h-456zM201 68v126h164v-126h-164z" />
    <glyph glyph-name="oslash" unicode="&#xf8;" horiz-adv-x="618" 
d="M571.5 369q21.5 -51 21.5 -115q0 -82 -35 -143t-99 -94t-150 -33q-71 0 -128 23l-52 -71l-68 50l48 65q-41 36 -62.5 87.5t-21.5 115.5q0 82 35 143t99 94t150 33q71 0 129 -23l52 71l68 -50l-48 -66q40 -36 61.5 -87zM239 353q-25 -37 -25 -99q0 -32 8 -61l134 183
q-20 14 -47 14q-45 0 -70 -37zM379 155q25 37 25 99q0 36 -7 60l-134 -183q21 -13 46 -13q45 0 70 37z" />
    <glyph glyph-name="ugrave" unicode="&#xf9;" 
d="M98.5 40q-49.5 54 -49.5 155v313h192v-289q0 -85 60 -85q69 0 69 119v255h192v-508h-178v58h-2q-26 -34 -63 -53t-84 -19q-87 0 -136.5 54zM415 562h-146l-142 150h208z" />
    <glyph glyph-name="uacute" unicode="&#xfa;" 
d="M98.5 40q-49.5 54 -49.5 155v313h192v-289q0 -85 60 -85q69 0 69 119v255h192v-508h-178v58h-2q-26 -34 -63 -53t-84 -19q-87 0 -136.5 54zM202 562l80 150h208l-142 -150h-146z" />
    <glyph glyph-name="ucircumflex" unicode="&#xfb;" 
d="M98.5 40q-49.5 54 -49.5 155v313h192v-289q0 -85 60 -85q69 0 69 119v255h192v-508h-178v58h-2q-26 -34 -63 -53t-84 -19q-87 0 -136.5 54zM309 637l-55 -75h-149l123 150h162l123 -150h-149z" />
    <glyph glyph-name="udieresis" unicode="&#xfc;" 
d="M98.5 40q-49.5 54 -49.5 155v313h192v-289q0 -85 60 -85q69 0 69 119v255h192v-508h-178v58h-2q-26 -34 -63 -53t-84 -19q-87 0 -136.5 54zM109 571v141h162v-141h-162zM345 571v141h163v-141h-163z" />
    <glyph glyph-name="yacute" unicode="&#xfd;" horiz-adv-x="557" 
d="M351.5 -106q-31.5 -46 -76 -66t-111.5 -20q-60 0 -100 10v138q23 -6 47 -6q30 0 46.5 12.5t16.5 37.5q0 11 -5 28t-27 76l-154 404h208l45 -169q27 -104 47 -211h2q15 96 41 212l39 168h196l-157 -486q-26 -82 -57.5 -128zM176 562l80 150h208l-142 -150h-146z" />
    <glyph glyph-name="thorn" unicode="&#xfe;" horiz-adv-x="622" 
d="M248 460q22 31 57.5 47t75.5 16q65 0 114 -33t75.5 -94t26.5 -142t-26.5 -142t-75.5 -94t-114 -33q-40 0 -75.5 16t-57.5 47h-2v-233h-192v897h192v-252h2zM257.5 344.5q-21.5 -33.5 -21.5 -90.5t21.5 -90.5t57.5 -33.5q37 0 59 33.5t22 90.5t-22 90.5t-59 33.5
q-36 0 -57.5 -33.5z" />
    <glyph glyph-name="ydieresis" unicode="&#xff;" horiz-adv-x="557" 
d="M351.5 -106q-31.5 -46 -76 -66t-111.5 -20q-60 0 -100 10v138q23 -6 47 -6q30 0 46.5 12.5t16.5 37.5q0 11 -5 28t-27 76l-154 404h208l45 -169q27 -104 47 -211h2q15 96 41 212l39 168h196l-157 -486q-26 -82 -57.5 -128zM83 571v141h162v-141h-162zM319 571v141h163
v-141h-163z" />
    <glyph glyph-name="Amacron" unicode="&#x100;" horiz-adv-x="731" 
d="M245 128l-36 -128h-211l239 712h257l239 -712h-211l-36 128h-241zM428 334q-31 109 -61 240h-2q-32 -137 -62 -240l-14 -49h153zM169 775v115h393v-115h-393z" />
    <glyph glyph-name="amacron" unicode="&#x101;" horiz-adv-x="576" 
d="M467 470q60 -54 60 -157v-165q0 -94 16 -148h-173q-8 29 -8 64h-2q-60 -78 -165 -78q-81 0 -129 45t-48 114t48 109t159 57q54 9 117 13v18q0 70 -60 70q-28 0 -43.5 -16.5t-16.5 -48.5h-183q5 77 65 127t180 50q123 0 183 -54zM264 217q-31 -7 -44.5 -21t-13.5 -38
t14.5 -38.5t41.5 -14.5q17 0 32.5 6t25.5 18q13 14 17.5 32t4.5 48v19q-49 -5 -78 -11zM81 581v115h393v-115h-393z" />
    <glyph glyph-name="Abreve" unicode="&#x102;" horiz-adv-x="731" 
d="M245 128l-36 -128h-211l239 712h257l239 -712h-211l-36 128h-241zM428 334q-31 109 -61 240h-2q-32 -137 -62 -240l-14 -49h153zM497 800q-47 -41 -131 -41t-131 41t-50 116h117q3 -51 64 -51t64 51h117q-3 -75 -50 -116z" />
    <glyph glyph-name="abreve" unicode="&#x103;" horiz-adv-x="576" 
d="M467 470q60 -54 60 -157v-165q0 -94 16 -148h-173q-8 29 -8 64h-2q-60 -78 -165 -78q-81 0 -129 45t-48 114t48 109t159 57q54 9 117 13v18q0 70 -60 70q-28 0 -43.5 -16.5t-16.5 -48.5h-183q5 77 65 127t180 50q123 0 183 -54zM264 217q-31 -7 -44.5 -21t-13.5 -38
t14.5 -38.5t41.5 -14.5q17 0 32.5 6t25.5 18q13 14 17.5 32t4.5 48v19q-49 -5 -78 -11zM409 596q-47 -41 -131 -41t-131 41t-50 116h117q3 -51 64 -51t64 51h117q-3 -75 -50 -116z" />
    <glyph glyph-name="Aogonek" unicode="&#x104;" horiz-adv-x="731" 
d="M245 128l-36 -128h-211l239 712h257l239 -712h-211l-36 128h-241zM428 334q-31 109 -61 240h-2q-32 -137 -62 -240l-14 -49h153zM686.5 -37.5q-13.5 -16.5 -13.5 -33.5q0 -27 31 -27q19 0 32 6v-93q-45 -16 -106 -16q-67 0 -100.5 25t-33.5 71q0 32 22.5 57t67.5 48h147
q-33 -21 -46.5 -37.5z" />
    <glyph glyph-name="aogonek" unicode="&#x105;" horiz-adv-x="576" 
d="M546 -92v-93q-45 -16 -106 -16q-67 0 -100.5 25t-33.5 71q0 32 22.5 57t67.5 48h-26q-8 29 -8 64h-2q-60 -78 -165 -78q-81 0 -129 45t-48 114t48 109t159 57q54 9 117 13v18q0 70 -60 70q-28 0 -43.5 -16.5t-16.5 -48.5h-183q5 77 65 127t180 50q123 0 183 -54t60 -157
v-165q0 -94 16 -148q-33 -21 -46.5 -37.5t-13.5 -33.5q0 -27 31 -27q19 0 32 6zM264 217q-31 -7 -44.5 -21t-13.5 -38t14.5 -38.5t41.5 -14.5q17 0 32.5 6t25.5 18q13 14 17.5 32t4.5 48v19q-49 -5 -78 -11z" />
    <glyph glyph-name="Cacute" unicode="&#x106;" horiz-adv-x="730" 
d="M538.5 694.5q71.5 -33.5 112.5 -97t45 -150.5h-210q-6 53 -35.5 82t-79.5 29q-60 0 -95.5 -54t-35.5 -148q0 -93 35.5 -147.5t95.5 -54.5q49 0 80 31t36 86h213q-11 -138 -98.5 -212.5t-230.5 -74.5q-105 0 -181.5 45t-117.5 128.5t-41 198.5t41 198.5t117.5 128.5
t181.5 45q96 0 167.5 -33.5zM265 760l80 156h208l-142 -156h-146z" />
    <glyph glyph-name="cacute" unicode="&#x107;" horiz-adv-x="589" 
d="M485.5 465.5q72.5 -58.5 82.5 -157.5h-199q-3 35 -20.5 54t-45.5 19q-36 0 -56 -32.5t-20 -92.5q0 -63 20 -96t56 -33q29 0 47 21.5t19 60.5h199q-8 -105 -80.5 -165t-187.5 -60q-83 0 -145 33t-96 94.5t-34 144.5q0 81 33.5 141.5t96 93.5t145.5 33q113 0 185.5 -58.5z
M193 562l80 150h208l-142 -150h-146z" />
    <glyph glyph-name="Ccircumflex" unicode="&#x108;" horiz-adv-x="730" 
d="M538.5 694.5q71.5 -33.5 112.5 -97t45 -150.5h-210q-6 53 -35.5 82t-79.5 29q-60 0 -95.5 -54t-35.5 -148q0 -93 35.5 -147.5t95.5 -54.5q49 0 80 31t36 86h213q-11 -138 -98.5 -212.5t-230.5 -74.5q-105 0 -181.5 45t-117.5 128.5t-41 198.5t41 198.5t117.5 128.5
t181.5 45q96 0 167.5 -33.5zM451 916l128 -156h-149l-60 81l-59 -81h-149l127 156h162z" />
    <glyph glyph-name="ccircumflex" unicode="&#x109;" horiz-adv-x="589" 
d="M485.5 465.5q72.5 -58.5 82.5 -157.5h-199q-3 35 -20.5 54t-45.5 19q-36 0 -56 -32.5t-20 -92.5q0 -63 20 -96t56 -33q29 0 47 21.5t19 60.5h199q-8 -105 -80.5 -165t-187.5 -60q-83 0 -145 33t-96 94.5t-34 144.5q0 81 33.5 141.5t96 93.5t145.5 33q113 0 185.5 -58.5z
M300 637l-55 -75h-149l123 150h162l123 -150h-149z" />
    <glyph glyph-name="Cdotaccent" unicode="&#x10a;" horiz-adv-x="730" 
d="M538.5 694.5q71.5 -33.5 112.5 -97t45 -150.5h-210q-6 53 -35.5 82t-79.5 29q-60 0 -95.5 -54t-35.5 -148q0 -93 35.5 -147.5t95.5 -54.5q49 0 80 31t36 86h213q-11 -138 -98.5 -212.5t-230.5 -74.5q-105 0 -181.5 45t-117.5 128.5t-41 198.5t41 198.5t117.5 128.5
t181.5 45q96 0 167.5 -33.5zM274 769v141h192v-141h-192z" />
    <glyph glyph-name="cdotaccent" unicode="&#x10b;" horiz-adv-x="589" 
d="M485.5 465.5q72.5 -58.5 82.5 -157.5h-199q-3 35 -20.5 54t-45.5 19q-36 0 -56 -32.5t-20 -92.5q0 -63 20 -96t56 -33q29 0 47 21.5t19 60.5h199q-8 -105 -80.5 -165t-187.5 -60q-83 0 -145 33t-96 94.5t-34 144.5q0 81 33.5 141.5t96 93.5t145.5 33q113 0 185.5 -58.5z
M204 571v141h192v-141h-192z" />
    <glyph glyph-name="Ccaron" unicode="&#x10c;" horiz-adv-x="730" 
d="M538.5 694.5q71.5 -33.5 112.5 -97t45 -150.5h-210q-6 53 -35.5 82t-79.5 29q-60 0 -95.5 -54t-35.5 -148q0 -93 35.5 -147.5t95.5 -54.5q49 0 80 31t36 86h213q-11 -138 -98.5 -212.5t-230.5 -74.5q-105 0 -181.5 45t-117.5 128.5t-41 198.5t41 198.5t117.5 128.5
t181.5 45q96 0 167.5 -33.5zM290 760l-128 156h149l60 -81l59 81h149l-127 -156h-162z" />
    <glyph glyph-name="ccaron" unicode="&#x10d;" horiz-adv-x="589" 
d="M485.5 465.5q72.5 -58.5 82.5 -157.5h-199q-3 35 -20.5 54t-45.5 19q-36 0 -56 -32.5t-20 -92.5q0 -63 20 -96t56 -33q29 0 47 21.5t19 60.5h199q-8 -105 -80.5 -165t-187.5 -60q-83 0 -145 33t-96 94.5t-34 144.5q0 81 33.5 141.5t96 93.5t145.5 33q113 0 185.5 -58.5z
M219 562l-123 150h149l55 -75l55 75h149l-123 -150h-162z" />
    <glyph glyph-name="Dcaron" unicode="&#x10e;" horiz-adv-x="751" 
d="M620.5 619.5q99.5 -92.5 99.5 -263.5t-99.5 -263.5t-282.5 -92.5h-269v712h269q183 0 282.5 -92.5zM269 168h63q87 0 133 48.5t46 139.5t-46 139.5t-133 48.5h-63v-376zM267 760l-128 156h149l60 -81l59 81h149l-127 -156h-162z" />
    <glyph glyph-name="dcaron" unicode="&#x10f;" horiz-adv-x="622" 
d="M384 0v58h-2q-23 -36 -58.5 -54.5t-77.5 -18.5q-66 0 -116 33t-77.5 94t-27.5 142t26.5 142t75.5 94t114 33q40 0 75.5 -16t57.5 -47h2v252h192v-712h-184zM248 344.5q-22 -33.5 -22 -90.5t22 -90.5t59 -33.5q36 0 57.5 33.5t21.5 90.5t-21.5 90.5t-57.5 33.5
q-37 0 -59 -33.5zM596 534l21 178h151l-64 -178h-108z" />
    <glyph glyph-name="Dcroat" unicode="&#x110;" horiz-adv-x="754" 
d="M624 619.5q99 -92.5 99 -263.5t-99 -263.5t-283 -92.5h-268v298h-60v122h60v292h268q184 0 283 -92.5zM468 216.5q46 48.5 46 139.5t-46 139.5t-133 48.5h-63v-124h140v-122h-140v-130h63q87 0 133 48.5z" />
    <glyph glyph-name="dcroat" unicode="&#x111;" horiz-adv-x="619" 
d="M568 568v-568h-184v58h-2q-23 -36 -58.5 -54.5t-77.5 -18.5q-66 0 -116 33t-77.5 94t-27.5 142t26.5 142t75.5 94t114 33q40 0 75.5 -16t57.5 -47h2v108h-135v85h135v59h192v-59h65v-85h-65zM364.5 163.5q21.5 33.5 21.5 90.5t-21.5 90.5t-57.5 33.5q-37 0 -59 -33.5
t-22 -90.5t22 -90.5t59 -33.5q36 0 57.5 33.5z" />
    <glyph glyph-name="Emacron" unicode="&#x112;" horiz-adv-x="635" 
d="M269 547v-107h293v-161h-293v-114h321v-165h-521v712h515v-165h-315zM132 775v115h393v-115h-393z" />
    <glyph glyph-name="emacron" unicode="&#x113;" horiz-adv-x="594" 
d="M344.5 121.5q18.5 13.5 21.5 35.5h196q-11 -49 -47 -88.5t-92 -62t-124 -22.5q-87 0 -148.5 35.5t-93.5 97.5t-32 140q0 76 32 136.5t93.5 95.5t145.5 35q92 0 156.5 -41t94.5 -116q12 -30 17 -65t5 -87h-355q3 -59 24.5 -83t58.5 -24q29 0 47.5 13.5zM215 316h161
q-4 46 -25 67t-55 21q-68 0 -81 -88zM100 581v115h393v-115h-393z" />
    <glyph glyph-name="Ebreve" unicode="&#x114;" horiz-adv-x="635" 
d="M269 547v-107h293v-161h-293v-114h321v-165h-521v712h515v-165h-315zM460 800q-47 -41 -131 -41t-131 41t-50 116h117q3 -51 64 -51t64 51h117q-3 -75 -50 -116z" />
    <glyph glyph-name="ebreve" unicode="&#x115;" horiz-adv-x="594" 
d="M344.5 121.5q18.5 13.5 21.5 35.5h196q-11 -49 -47 -88.5t-92 -62t-124 -22.5q-87 0 -148.5 35.5t-93.5 97.5t-32 140q0 76 32 136.5t93.5 95.5t145.5 35q92 0 156.5 -41t94.5 -116q12 -30 17 -65t5 -87h-355q3 -59 24.5 -83t58.5 -24q29 0 47.5 13.5zM215 316h161
q-4 46 -25 67t-55 21q-68 0 -81 -88zM428 596q-47 -41 -131 -41t-131 41t-50 116h117q3 -51 64 -51t64 51h117q-3 -75 -50 -116z" />
    <glyph glyph-name="Edotaccent" unicode="&#x116;" horiz-adv-x="635" 
d="M269 547v-107h293v-161h-293v-114h321v-165h-521v712h515v-165h-315zM232 769v141h192v-141h-192z" />
    <glyph glyph-name="edotaccent" unicode="&#x117;" horiz-adv-x="594" 
d="M344.5 121.5q18.5 13.5 21.5 35.5h196q-11 -49 -47 -88.5t-92 -62t-124 -22.5q-87 0 -148.5 35.5t-93.5 97.5t-32 140q0 76 32 136.5t93.5 95.5t145.5 35q92 0 156.5 -41t94.5 -116q12 -30 17 -65t5 -87h-355q3 -59 24.5 -83t58.5 -24q29 0 47.5 13.5zM215 316h161
q-4 46 -25 67t-55 21q-68 0 -81 -88zM201 571v141h192v-141h-192z" />
    <glyph glyph-name="Eogonek" unicode="&#x118;" horiz-adv-x="635" 
d="M269 547v-107h293v-161h-293v-114h321v-165h-521v712h515v-165h-315zM544.5 -37.5q-13.5 -16.5 -13.5 -33.5q0 -27 31 -27q19 0 32 6v-93q-45 -16 -106 -16q-67 0 -100.5 25t-33.5 71q0 32 22.5 57t67.5 48h147q-33 -21 -46.5 -37.5z" />
    <glyph glyph-name="eogonek" unicode="&#x119;" horiz-adv-x="594" 
d="M441.5 -20q-11.5 -22 -11.5 -44q0 -34 34 -34q18 0 32 6v-93q-46 -16 -107 -16q-66 0 -99.5 25t-33.5 71q0 27 15.5 48t46.5 40v2q-7 -1 -19 -1q-87 0 -148.5 35.5t-93.5 97.5t-32 140q0 76 32 136.5t93.5 95.5t145.5 35q92 0 156.5 -41t94.5 -116q12 -30 17 -65t5 -87
h-355q3 -59 24.5 -83t58.5 -24q29 0 47.5 13.5t21.5 35.5h196q-15 -64 -80 -128q-29 -27 -40.5 -49zM215 316h161q-4 46 -25 67t-55 21q-68 0 -81 -88z" />
    <glyph glyph-name="Ecaron" unicode="&#x11a;" horiz-adv-x="635" 
d="M269 547v-107h293v-161h-293v-114h321v-165h-521v712h515v-165h-315zM248 760l-128 156h149l60 -81l59 81h149l-127 -156h-162z" />
    <glyph glyph-name="ecaron" unicode="&#x11b;" horiz-adv-x="594" 
d="M344.5 121.5q18.5 13.5 21.5 35.5h196q-11 -49 -47 -88.5t-92 -62t-124 -22.5q-87 0 -148.5 35.5t-93.5 97.5t-32 140q0 76 32 136.5t93.5 95.5t145.5 35q92 0 156.5 -41t94.5 -116q12 -30 17 -65t5 -87h-355q3 -59 24.5 -83t58.5 -24q29 0 47.5 13.5zM215 316h161
q-4 46 -25 67t-55 21q-68 0 -81 -88zM216 562l-123 150h149l55 -75l55 75h149l-123 -150h-162z" />
    <glyph glyph-name="Gcircumflex" unicode="&#x11c;" horiz-adv-x="758" 
d="M544.5 697.5q69.5 -30.5 109.5 -87t45 -130.5h-212q-7 42 -33.5 64.5t-70.5 22.5q-66 0 -104.5 -57.5t-38.5 -156.5q0 -101 38.5 -160t105.5 -59q57 0 90.5 34.5t36.5 93.5h-137v146h323v-408h-171v68h-2q-32 -41 -80 -62t-110 -21q-93 0 -161.5 44.5t-105 127.5
t-36.5 196q0 116 42.5 200.5t122 129.5t188.5 45q91 0 160.5 -30.5zM457 916l128 -156h-149l-60 81l-59 -81h-149l127 156h162z" />
    <glyph glyph-name="gcircumflex" unicode="&#x11d;" horiz-adv-x="613" 
d="M317 501q38 -22 61 -61h2v68h179v-473q0 -232 -270 -232q-107 0 -170 43.5t-72 121.5h182q2 -23 18.5 -36t44.5 -13q39 0 59.5 25.5t20.5 84.5v49h-2q-22 -34 -59 -52.5t-80 -18.5q-63 0 -109.5 31.5t-71.5 90t-25 136.5t25.5 136.5t73.5 90t112 31.5q43 0 81 -22z
M243.5 347q-21.5 -31 -21.5 -82t21 -81.5t58 -30.5q35 0 56 30.5t21 81.5t-21 82t-56 31q-36 0 -57.5 -31zM290 637l-55 -75h-149l123 150h162l123 -150h-149z" />
    <glyph glyph-name="Gbreve" unicode="&#x11e;" horiz-adv-x="758" 
d="M544.5 697.5q69.5 -30.5 109.5 -87t45 -130.5h-212q-7 42 -33.5 64.5t-70.5 22.5q-66 0 -104.5 -57.5t-38.5 -156.5q0 -101 38.5 -160t105.5 -59q57 0 90.5 34.5t36.5 93.5h-137v146h323v-408h-171v68h-2q-32 -41 -80 -62t-110 -21q-93 0 -161.5 44.5t-105 127.5
t-36.5 196q0 116 42.5 200.5t122 129.5t188.5 45q91 0 160.5 -30.5zM508 800q-47 -41 -131 -41t-131 41t-50 116h117q3 -51 64 -51t64 51h117q-3 -75 -50 -116z" />
    <glyph glyph-name="gbreve" unicode="&#x11f;" horiz-adv-x="613" 
d="M317 501q38 -22 61 -61h2v68h179v-473q0 -232 -270 -232q-107 0 -170 43.5t-72 121.5h182q2 -23 18.5 -36t44.5 -13q39 0 59.5 25.5t20.5 84.5v49h-2q-22 -34 -59 -52.5t-80 -18.5q-63 0 -109.5 31.5t-71.5 90t-25 136.5t25.5 136.5t73.5 90t112 31.5q43 0 81 -22z
M243.5 347q-21.5 -31 -21.5 -82t21 -81.5t58 -30.5q35 0 56 30.5t21 81.5t-21 82t-56 31q-36 0 -57.5 -31zM421 596q-47 -41 -131 -41t-131 41t-50 116h117q3 -51 64 -51t64 51h117q-3 -75 -50 -116z" />
    <glyph glyph-name="Gdotaccent" unicode="&#x120;" horiz-adv-x="758" 
d="M544.5 697.5q69.5 -30.5 109.5 -87t45 -130.5h-212q-7 42 -33.5 64.5t-70.5 22.5q-66 0 -104.5 -57.5t-38.5 -156.5q0 -101 38.5 -160t105.5 -59q57 0 90.5 34.5t36.5 93.5h-137v146h323v-408h-171v68h-2q-32 -41 -80 -62t-110 -21q-93 0 -161.5 44.5t-105 127.5
t-36.5 196q0 116 42.5 200.5t122 129.5t188.5 45q91 0 160.5 -30.5zM280 769v141h192v-141h-192z" />
    <glyph glyph-name="gdotaccent" unicode="&#x121;" horiz-adv-x="613" 
d="M317 501q38 -22 61 -61h2v68h179v-473q0 -232 -270 -232q-107 0 -170 43.5t-72 121.5h182q2 -23 18.5 -36t44.5 -13q39 0 59.5 25.5t20.5 84.5v49h-2q-22 -34 -59 -52.5t-80 -18.5q-63 0 -109.5 31.5t-71.5 90t-25 136.5t25.5 136.5t73.5 90t112 31.5q43 0 81 -22z
M243.5 347q-21.5 -31 -21.5 -82t21 -81.5t58 -30.5q35 0 56 30.5t21 81.5t-21 82t-56 31q-36 0 -57.5 -31zM194 571v141h192v-141h-192z" />
    <glyph glyph-name="Gcommaaccent" unicode="&#x122;" horiz-adv-x="758" 
d="M544.5 697.5q69.5 -30.5 109.5 -87t45 -130.5h-212q-7 42 -33.5 64.5t-70.5 22.5q-66 0 -104.5 -57.5t-38.5 -156.5q0 -101 38.5 -160t105.5 -59q57 0 90.5 34.5t36.5 93.5h-137v146h323v-408h-171v68h-2q-32 -41 -80 -62t-110 -21q-93 0 -161.5 44.5t-105 127.5
t-36.5 196q0 116 42.5 200.5t122 129.5t188.5 45q91 0 160.5 -30.5zM379 -280h-70l47 110h-47v121h143v-121z" />
    <glyph glyph-name="gcommaaccent" unicode="&#x123;" horiz-adv-x="613" 
d="M317 501q38 -22 61 -61h2v68h179v-473q0 -232 -270 -232q-107 0 -170 43.5t-72 121.5h182q2 -23 18.5 -36t44.5 -13q39 0 59.5 25.5t20.5 84.5v49h-2q-22 -34 -59 -52.5t-80 -18.5q-63 0 -109.5 31.5t-71.5 90t-25 136.5t25.5 136.5t73.5 90t112 31.5q43 0 81 -22z
M243.5 347q-21.5 -31 -21.5 -82t21 -81.5t58 -30.5q35 0 56 30.5t21 81.5t-21 82t-56 31q-36 0 -57.5 -31zM361 688v-121h-143v121l73 110h70l-47 -110h47z" />
    <glyph glyph-name="Hcircumflex" unicode="&#x124;" horiz-adv-x="771" 
d="M502 0v282h-233v-282h-200v712h200v-262h233v262h200v-712h-200zM466 916l128 -156h-149l-60 81l-59 -81h-149l127 156h162z" />
    <glyph glyph-name="hcircumflex" unicode="&#x125;" 
d="M248 462q23 29 57 44.5t76 15.5q87 0 136.5 -54t49.5 -155v-313h-192v289q0 85 -60 85q-69 0 -69 -119v-255h-192v712h192v-250h2zM387 916l128 -156h-149l-60 81l-59 -81h-149l127 156h162z" />
    <glyph glyph-name="Hbar" unicode="&#x126;" horiz-adv-x="771" 
d="M702 559v-559h-200v282h-233v-282h-200v559h-50v90h50v63h200v-63h233v63h200v-63h50v-90h-50zM269 559v-109h233v109h-233z" />
    <glyph glyph-name="hbar" unicode="&#x127;" 
d="M517.5 468q49.5 -54 49.5 -155v-313h-192v289q0 85 -60 85q-69 0 -69 -119v-255h-192v568h-69v82h69v62h192v-62h132v-82h-132v-106h2q23 29 57 44.5t76 15.5q87 0 136.5 -54z" />
    <glyph glyph-name="Itilde" unicode="&#x128;" horiz-adv-x="338" 
d="M69 0v712h200v-712h-200zM333.5 804.5q-33.5 -40.5 -93.5 -40.5q-23 0 -41 6t-43 18q-18 9 -28.5 13t-21.5 4q-18 0 -27.5 -10t-12.5 -31h-99q4 72 37.5 112t93.5 40q23 0 41 -6t43 -18q3 -1 19.5 -8.5t30.5 -7.5q18 0 27.5 9.5t11.5 30.5h99q-3 -71 -36.5 -111.5z" />
    <glyph glyph-name="itilde" unicode="&#x129;" horiz-adv-x="300" 
d="M54 0v508h192v-508h-192zM295 599q-31 -41 -86 -41q-20 0 -36 6.5t-36 18.5q-2 1 -12 7t-18.5 8.5t-15.5 2.5q-30 0 -34 -43h-86q4 73 34 113.5t86 40.5q21 0 37 -6.5t36 -18.5q14 -9 24 -13t21 -4q30 0 33 42h87q-3 -72 -34 -113z" />
    <glyph glyph-name="Imacron" unicode="&#x12a;" horiz-adv-x="338" 
d="M69 0v712h200v-712h-200zM-28 775v115h393v-115h-393z" />
    <glyph glyph-name="imacron" unicode="&#x12b;" horiz-adv-x="300" 
d="M54 0v508h192v-508h-192zM-7 580v116h313v-116h-313z" />
    <glyph glyph-name="Ibreve" unicode="&#x12c;" horiz-adv-x="338" 
d="M69 0v712h200v-712h-200zM300 800q-47 -41 -131 -41t-131 41t-50 116h117q3 -51 64 -51t64 51h117q-3 -75 -50 -116z" />
    <glyph glyph-name="ibreve" unicode="&#x12d;" horiz-adv-x="300" 
d="M54 0v508h192v-508h-192zM270.5 595.5q-42.5 -40.5 -120.5 -40.5t-120.5 40.5t-44.5 116.5h113q1 -53 52 -53q25 0 37.5 13t14.5 40h113q-2 -76 -44.5 -116.5z" />
    <glyph glyph-name="Iogonek" unicode="&#x12e;" horiz-adv-x="338" 
d="M69 0v712h200v-712h-200zM222.5 -37.5q-13.5 -16.5 -13.5 -33.5q0 -27 31 -27q19 0 32 6v-93q-45 -16 -106 -16q-67 0 -100.5 25t-33.5 71q0 32 22.5 57t67.5 48h147q-33 -21 -46.5 -37.5z" />
    <glyph glyph-name="iogonek" unicode="&#x12f;" horiz-adv-x="300" 
d="M54 571v141h192v-141h-192zM249 -92v-93q-45 -16 -106 -16q-67 0 -100.5 25t-33.5 71q0 32 22.5 57t67.5 48h-45v508h192v-508q-33 -21 -46.5 -37.5t-13.5 -33.5q0 -27 31 -27q19 0 32 6z" />
    <glyph glyph-name="Idotaccent" unicode="&#x130;" horiz-adv-x="338" 
d="M69 0v712h200v-712h-200zM72 769v141h192v-141h-192z" />
    <glyph glyph-name="dotlessi" unicode="&#x131;" horiz-adv-x="300" 
d="M54 0v508h192v-508h-192z" />
    <glyph glyph-name="IJ" unicode="&#x132;" horiz-adv-x="766" 
d="M69 0v712h200v-712h-200zM639 54q-63 -64 -195 -64q-43 0 -91 11v163q26 -4 44 -4q40 0 62.5 12.5t32.5 43t10 85.5v411h200v-458q0 -136 -63 -200z" />
    <glyph glyph-name="ij" unicode="&#x133;" horiz-adv-x="600" 
d="M54 571v141h192v-141h-192zM354 571v141h192v-141h-192zM54 0v508h192v-508h-192zM491.5 -140q-54.5 -51 -145.5 -51q-53 0 -92 11v132q11 -3 25 -3q39 0 57 21t18 77v461h192v-494q0 -103 -54.5 -154z" />
    <glyph glyph-name="Jcircumflex" unicode="&#x134;" horiz-adv-x="428" 
d="M301 54q-63 -64 -195 -64q-43 0 -91 11v163q26 -4 44 -4q40 0 62.5 12.5t32.5 43t10 85.5v411h200v-458q0 -136 -63 -200zM346 916l128 -156h-149l-60 81l-59 -81h-149l127 156h162z" />
    <glyph glyph-name="jcircumflex" unicode="&#x135;" horiz-adv-x="300" 
d="M191.5 -140q-54.5 -51 -145.5 -51q-53 0 -92 11v132q11 -3 25 -3q39 0 57 21t18 77v461h192v-494q0 -103 -54.5 -154zM198 565l-48 64l-47 -64h-142l113 147h152l113 -147h-141z" />
    <glyph glyph-name="Kcommaaccent" unicode="&#x136;" horiz-adv-x="716" 
d="M713 0h-250l-192 319h-2v-319h-200v712h200v-300h2l186 300h241l-247 -336zM357 -280h-70l47 110h-47v121h143v-121z" />
    <glyph glyph-name="kcommaaccent" unicode="&#x137;" horiz-adv-x="589" 
d="M364 0l-116 222h-2v-222h-192v712h192v-398h2l107 194h227l-170 -240l187 -268h-235zM301 -280h-70l47 110h-47v121h143v-121z" />
    <glyph glyph-name="kgreenlandic" unicode="&#x138;" horiz-adv-x="595" 
d="M364 0l-116 222h-2v-222h-192v508h192v-194h2l107 194h227l-170 -240l187 -268h-235z" />
    <glyph glyph-name="Lacute" unicode="&#x139;" horiz-adv-x="586" 
d="M578 168v-168h-509v712h200v-544h309zM93 760l80 156h208l-142 -156h-146z" />
    <glyph glyph-name="lacute" unicode="&#x13a;" horiz-adv-x="300" 
d="M54 0v712h192v-712h-192zM55 766l80 150h208l-142 -150h-146z" />
    <glyph glyph-name="Lcommaaccent" unicode="&#x13b;" horiz-adv-x="586" 
d="M578 168v-168h-509v712h200v-544h309zM322 -280h-70l47 110h-47v121h143v-121z" />
    <glyph glyph-name="lcommaaccent" unicode="&#x13c;" horiz-adv-x="300" 
d="M54 0v712h192v-712h-192zM149 -280h-70l47 110h-47v121h143v-121z" />
    <glyph glyph-name="Lcaron" unicode="&#x13d;" horiz-adv-x="586" 
d="M578 168v-168h-509v712h200v-544h309zM302 478l21 234h151l-64 -234h-108z" />
    <glyph glyph-name="lcaron" unicode="&#x13e;" horiz-adv-x="300" 
d="M54 0v712h192v-712h-192zM274 534l21 178h151l-64 -178h-108z" />
    <glyph glyph-name="Ldot" unicode="&#x13f;" horiz-adv-x="671" 
d="M578 168v-168h-509v712h200v-544h309zM406 341v201h200v-201h-200z" />
    <glyph glyph-name="ldot" unicode="&#x140;" horiz-adv-x="543" 
d="M54 0v712h192v-712h-192zM321 255v201h200v-201h-200z" />
    <glyph glyph-name="Lslash" unicode="&#x141;" horiz-adv-x="600" 
d="M592 0h-509v276l-73 -43v145l73 43v291h200v-192l148 88v-146l-148 -87v-207h309v-168z" />
    <glyph glyph-name="lslash" unicode="&#x142;" horiz-adv-x="372" 
d="M282 350v-350h-192v260l-80 -48v138l80 48v314h192v-225l80 48v-137z" />
    <glyph glyph-name="Nacute" unicode="&#x143;" horiz-adv-x="827" 
d="M467 0l-111 273q-57 143 -102 276h-2q8 -129 8 -291v-258h-191v712h291l110 -273q58 -141 102 -276h2q-8 155 -8 291v258h191v-712h-290zM307 760l80 156h208l-142 -156h-146z" />
    <glyph glyph-name="nacute" unicode="&#x144;" 
d="M517.5 468q49.5 -54 49.5 -155v-313h-192v289q0 85 -60 85q-69 0 -69 -119v-255h-192v508h178v-58h2q26 34 63 53t84 19q87 0 136.5 -54zM205 562l80 150h208l-142 -150h-146z" />
    <glyph glyph-name="Ncommaaccent" unicode="&#x145;" horiz-adv-x="827" 
d="M467 0l-111 273q-57 143 -102 276h-2q8 -129 8 -291v-258h-191v712h291l110 -273q58 -141 102 -276h2q-8 155 -8 291v258h191v-712h-290zM411 -280h-70l47 110h-47v121h143v-121z" />
    <glyph glyph-name="ncommaaccent" unicode="&#x146;" 
d="M517.5 468q49.5 -54 49.5 -155v-313h-192v289q0 85 -60 85q-69 0 -69 -119v-255h-192v508h178v-58h2q26 34 63 53t84 19q87 0 136.5 -54zM309 -280h-70l47 110h-47v121h143v-121z" />
    <glyph glyph-name="Ncaron" unicode="&#x147;" horiz-adv-x="827" 
d="M467 0l-111 273q-57 143 -102 276h-2q8 -129 8 -291v-258h-191v712h291l110 -273q58 -141 102 -276h2q-8 155 -8 291v258h191v-712h-290zM333 760l-128 156h149l60 -81l59 81h149l-127 -156h-162z" />
    <glyph glyph-name="ncaron" unicode="&#x148;" 
d="M517.5 468q49.5 -54 49.5 -155v-313h-192v289q0 85 -60 85q-69 0 -69 -119v-255h-192v508h178v-58h2q26 34 63 53t84 19q87 0 136.5 -54zM230 562l-123 150h149l55 -75l55 75h149l-123 -150h-162z" />
    <glyph glyph-name="napostrophe" unicode="&#x149;" horiz-adv-x="805" 
d="M131 385h-96l72 156h-55v171h170v-171zM706.5 468q49.5 -54 49.5 -155v-313h-192v289q0 85 -60 85q-69 0 -69 -119v-255h-192v508h178v-58h2q26 34 63 53t84 19q87 0 136.5 -54z" />
    <glyph glyph-name="Eng" unicode="&#x14a;" horiz-adv-x="773" 
d="M649 -146q-55 -49 -148 -49q-54 0 -88 10v127q11 -3 26 -3q33 0 49 12t16 40q0 17 -7 34t-35 70l-107 197q-65 123 -103 219h-2q10 -119 10 -251v-260h-191v712h247l101 -189q49 -88 105 -220h2q-11 114 -11 250v159h191v-707q0 -102 -55 -151z" />
    <glyph glyph-name="eng" unicode="&#x14b;" 
d="M511 477q29 -28 42.5 -69t13.5 -111v-282q0 -103 -54.5 -153.5t-145.5 -50.5q-53 0 -92 11v131q11 -3 25 -3q39 0 57 21.5t18 77.5v229q0 33 -5 51.5t-16 30.5q-15 15 -38 15q-70 0 -70 -121v-254h-192v508h192v-46h2q55 61 136 61t127 -46z" />
    <glyph glyph-name="Omacron" unicode="&#x14c;" horiz-adv-x="767" 
d="M570 682.5q80 -45.5 123 -129.5t43 -197t-43 -197t-123 -129.5t-187 -45.5t-186.5 45.5t-122.5 129.5t-43 197t43 197t122.5 129.5t186.5 45.5t187 -45.5zM278 505.5q-37 -52.5 -37 -149.5t37 -149.5t105 -52.5q69 0 106 52.5t37 149.5t-37 149.5t-106 52.5
q-68 0 -105 -52.5zM187 775v115h393v-115h-393z" />
    <glyph glyph-name="omacron" unicode="&#x14d;" horiz-adv-x="618" 
d="M459 491q64 -33 99 -94t35 -143t-35 -143t-99 -94t-150 -33t-150 33t-99 94t-35 143t35 143t99 94t150 33t150 -33zM248.5 347.5q-21.5 -33.5 -21.5 -93.5t21.5 -93.5t60.5 -33.5t60.5 33.5t21.5 93.5t-21.5 93.5t-60.5 33.5t-60.5 -33.5zM113 581v115h393v-115h-393z
" />
    <glyph glyph-name="Obreve" unicode="&#x14e;" horiz-adv-x="767" 
d="M570 682.5q80 -45.5 123 -129.5t43 -197t-43 -197t-123 -129.5t-187 -45.5t-186.5 45.5t-122.5 129.5t-43 197t43 197t122.5 129.5t186.5 45.5t187 -45.5zM278 505.5q-37 -52.5 -37 -149.5t37 -149.5t105 -52.5q69 0 106 52.5t37 149.5t-37 149.5t-106 52.5
q-68 0 -105 -52.5zM514 800q-47 -41 -131 -41t-131 41t-50 116h117q3 -51 64 -51t64 51h117q-3 -75 -50 -116z" />
    <glyph glyph-name="obreve" unicode="&#x14f;" horiz-adv-x="618" 
d="M459 491q64 -33 99 -94t35 -143t-35 -143t-99 -94t-150 -33t-150 33t-99 94t-35 143t35 143t99 94t150 33t150 -33zM248.5 347.5q-21.5 -33.5 -21.5 -93.5t21.5 -93.5t60.5 -33.5t60.5 33.5t21.5 93.5t-21.5 93.5t-60.5 33.5t-60.5 -33.5zM440 596q-47 -41 -131 -41
t-131 41t-50 116h117q3 -51 64 -51t64 51h117q-3 -75 -50 -116z" />
    <glyph glyph-name="Ohungarumlaut" unicode="&#x150;" horiz-adv-x="767" 
d="M570 682.5q80 -45.5 123 -129.5t43 -197t-43 -197t-123 -129.5t-187 -45.5t-186.5 45.5t-122.5 129.5t-43 197t43 197t122.5 129.5t186.5 45.5t187 -45.5zM278 505.5q-37 -52.5 -37 -149.5t37 -149.5t105 -52.5q69 0 106 52.5t37 149.5t-37 149.5t-106 52.5
q-68 0 -105 -52.5zM176 760l100 156h179l-142 -156h-137zM397 760l99 156h179l-142 -156h-136z" />
    <glyph glyph-name="ohungarumlaut" unicode="&#x151;" horiz-adv-x="618" 
d="M459 491q64 -33 99 -94t35 -143t-35 -143t-99 -94t-150 -33t-150 33t-99 94t-35 143t35 143t99 94t150 33t150 -33zM248.5 347.5q-21.5 -33.5 -21.5 -93.5t21.5 -93.5t60.5 -33.5t60.5 33.5t21.5 93.5t-21.5 93.5t-60.5 33.5t-60.5 -33.5zM101 562l100 150h179l-142 -150
h-137zM322 562l99 150h179l-142 -150h-136z" />
    <glyph glyph-name="OE" unicode="&#x152;" horiz-adv-x="1022" 
d="M656 547v-107h293v-161h-293v-114h321v-165h-559q-184 0 -285.5 93t-101.5 263t101.5 263t285.5 93h555v-165h-317zM285.5 498q-45.5 -49 -45.5 -142t45.5 -142t134.5 -49h43v382h-43q-89 0 -134.5 -49z" />
    <glyph glyph-name="oe" unicode="&#x153;" horiz-adv-x="948" 
d="M698.5 121.5q18.5 13.5 21.5 35.5h195q-11 -49 -46.5 -88.5t-91 -62t-122.5 -22.5q-110 0 -178 65q-67 -65 -175 -65q-84 0 -146.5 33t-96.5 94t-34 143t34 143t96.5 94t146.5 33q108 0 175 -65q67 65 175 65q91 0 155 -41t94 -116q12 -30 17 -65t5 -87h-352
q3 -59 24 -83t57 -24q28 0 46.5 13.5zM572 316h158q-4 45 -25 66.5t-53 21.5q-68 0 -80 -88zM369.5 160.5q21.5 33.5 21.5 93.5t-21.5 93.5t-60.5 33.5t-60.5 -33.5t-21.5 -93.5t21.5 -93.5t60.5 -33.5t60.5 33.5z" />
    <glyph glyph-name="Racute" unicode="&#x154;" horiz-adv-x="705" 
d="M650 508q0 -65 -35 -110t-98 -64v-2q39 -14 62.5 -45.5t50.5 -102.5l66 -184h-212l-51 153q-18 53 -42.5 73.5t-71.5 20.5h-50v-247h-200v712h317q264 0 264 -204zM269 392h85q101 0 101 88q0 43 -27 62.5t-79 19.5h-80v-170zM235 760l80 156h208l-142 -156h-146z" />
    <glyph glyph-name="racute" unicode="&#x155;" horiz-adv-x="437" 
d="M432 510v-164q-26 6 -58 6q-62 0 -95 -38t-33 -109v-205h-192v508h178v-69h2q27 40 63.5 58.5t84.5 18.5q28 0 50 -6zM124 562l80 150h208l-142 -150h-146z" />
    <glyph glyph-name="Rcommaaccent" unicode="&#x156;" horiz-adv-x="705" 
d="M650 508q0 -65 -35 -110t-98 -64v-2q39 -14 62.5 -45.5t50.5 -102.5l66 -184h-212l-51 153q-18 53 -42.5 73.5t-71.5 20.5h-50v-247h-200v712h317q264 0 264 -204zM269 392h85q101 0 101 88q0 43 -27 62.5t-79 19.5h-80v-170zM360 -280h-70l47 110h-47v121h143v-121z" />
    <glyph glyph-name="rcommaaccent" unicode="&#x157;" horiz-adv-x="437" 
d="M432 510v-164q-26 6 -58 6q-62 0 -95 -38t-33 -109v-205h-192v508h178v-69h2q27 40 63.5 58.5t84.5 18.5q28 0 50 -6zM149 -280h-70l47 110h-47v121h143v-121z" />
    <glyph glyph-name="Rcaron" unicode="&#x158;" horiz-adv-x="705" 
d="M650 508q0 -65 -35 -110t-98 -64v-2q39 -14 62.5 -45.5t50.5 -102.5l66 -184h-212l-51 153q-18 53 -42.5 73.5t-71.5 20.5h-50v-247h-200v712h317q264 0 264 -204zM269 392h85q101 0 101 88q0 43 -27 62.5t-79 19.5h-80v-170zM261 760l-128 156h149l60 -81l59 81h149
l-127 -156h-162z" />
    <glyph glyph-name="rcaron" unicode="&#x159;" horiz-adv-x="437" 
d="M432 510v-164q-26 6 -58 6q-62 0 -95 -38t-33 -109v-205h-192v508h178v-69h2q27 40 63.5 58.5t84.5 18.5q28 0 50 -6zM150 562l-123 150h149l55 -75l55 75h149l-123 -150h-162z" />
    <glyph glyph-name="Sacute" unicode="&#x15a;" horiz-adv-x="661" 
d="M540.5 668.5q75.5 -59.5 75.5 -172.5h-210q0 39 -22.5 60t-65.5 21q-37 0 -58 -15t-21 -40q0 -20 12 -32.5t38 -21.5t79 -22q85 -21 139.5 -44.5t89 -68.5t34.5 -119q0 -71 -36.5 -122.5t-104.5 -79.5t-162 -28q-145 0 -226 65t-81 182h216q0 -91 98 -91q40 0 62.5 16.5
t22.5 44.5q0 22 -12 34.5t-36 21.5t-77 22q-88 24 -140 46t-86 65t-34 115q0 67 35 117.5t101 78t157 27.5q137 0 212.5 -59.5zM222 760l80 156h208l-142 -156h-146z" />
    <glyph glyph-name="sacute" unicode="&#x15b;" horiz-adv-x="559" 
d="M452 482q62 -42 62 -126h-182q0 56 -57 56q-47 0 -47 -34q0 -13 8 -20.5t28 -15t63 -18.5q64 -17 106 -34.5t70.5 -51.5t28.5 -88q0 -76 -65 -121t-182 -45q-259 0 -259 181h192q0 -32 16.5 -47.5t51.5 -15.5q27 0 40.5 9t13.5 26q0 15 -10.5 24.5t-33.5 17t-73 20.5
q-58 15 -95.5 31t-63 48t-25.5 85q0 73 60.5 117t178.5 44q112 0 174 -42zM171 562l80 150h208l-142 -150h-146z" />
    <glyph glyph-name="Scircumflex" unicode="&#x15c;" horiz-adv-x="661" 
d="M540.5 668.5q75.5 -59.5 75.5 -172.5h-210q0 39 -22.5 60t-65.5 21q-37 0 -58 -15t-21 -40q0 -20 12 -32.5t38 -21.5t79 -22q85 -21 139.5 -44.5t89 -68.5t34.5 -119q0 -71 -36.5 -122.5t-104.5 -79.5t-162 -28q-145 0 -226 65t-81 182h216q0 -91 98 -91q40 0 62.5 16.5
t22.5 44.5q0 22 -12 34.5t-36 21.5t-77 22q-88 24 -140 46t-86 65t-34 115q0 67 35 117.5t101 78t157 27.5q137 0 212.5 -59.5zM409 916l128 -156h-149l-60 81l-59 -81h-149l127 156h162z" />
    <glyph glyph-name="scircumflex" unicode="&#x15d;" horiz-adv-x="559" 
d="M452 482q62 -42 62 -126h-182q0 56 -57 56q-47 0 -47 -34q0 -13 8 -20.5t28 -15t63 -18.5q64 -17 106 -34.5t70.5 -51.5t28.5 -88q0 -76 -65 -121t-182 -45q-259 0 -259 181h192q0 -32 16.5 -47.5t51.5 -15.5q27 0 40.5 9t13.5 26q0 15 -10.5 24.5t-33.5 17t-73 20.5
q-58 15 -95.5 31t-63 48t-25.5 85q0 73 60.5 117t178.5 44q112 0 174 -42zM278 637l-55 -75h-149l123 150h162l123 -150h-149z" />
    <glyph glyph-name="Scedilla" unicode="&#x15e;" horiz-adv-x="661" 
d="M559.5 53.5q-71.5 -60.5 -198.5 -68.5l-27 -44q17 5 32 5q43 0 67 -21.5t24 -58.5q0 -46 -35 -75.5t-99 -29.5q-33 0 -66 9t-61 26l30 62q48 -23 82 -23q19 0 29 7t10 19q0 13 -10 21t-29 8q-16 0 -30 -7l-39 32l43 71q-124 10 -192.5 73.5t-68.5 171.5h216q0 -91 98 -91
q40 0 62.5 16.5t22.5 44.5q0 22 -12 34.5t-36 21.5t-77 22q-88 24 -140 46t-86 65t-34 115q0 67 35 117.5t101 78t157 27.5q137 0 212.5 -59.5t75.5 -172.5h-210q0 39 -22.5 60t-65.5 21q-37 0 -58 -15t-21 -40q0 -20 12 -32.5t38 -21.5t79 -22q85 -21 139.5 -44.5t89 -68.5
t34.5 -119q0 -100 -71.5 -160.5z" />
    <glyph glyph-name="scedilla" unicode="&#x15f;" horiz-adv-x="559" 
d="M476.5 35.5q-55.5 -43.5 -157.5 -50.5l-27 -44q17 5 32 5q43 0 67 -21.5t24 -58.5q0 -46 -35 -75.5t-99 -29.5q-33 0 -66 9t-61 26l30 62q48 -23 82 -23q19 0 29 7t10 19q0 13 -10 21t-29 8q-16 0 -30 -7l-39 32l42 71q-213 15 -213 179h192q0 -32 16.5 -47.5t51.5 -15.5
q27 0 40.5 9t13.5 26q0 15 -10.5 24.5t-33.5 17t-73 20.5q-58 15 -95.5 31t-63 48t-25.5 85q0 73 60.5 117t178.5 44q112 0 174 -42t62 -126h-182q0 56 -57 56q-47 0 -47 -34q0 -13 8 -20.5t28 -15t63 -18.5q64 -17 106 -34.5t70.5 -51.5t28.5 -88q0 -71 -55.5 -114.5z" />
    <glyph glyph-name="Scaron" unicode="&#x160;" horiz-adv-x="661" 
d="M540.5 668.5q75.5 -59.5 75.5 -172.5h-210q0 39 -22.5 60t-65.5 21q-37 0 -58 -15t-21 -40q0 -20 12 -32.5t38 -21.5t79 -22q85 -21 139.5 -44.5t89 -68.5t34.5 -119q0 -71 -36.5 -122.5t-104.5 -79.5t-162 -28q-145 0 -226 65t-81 182h216q0 -91 98 -91q40 0 62.5 16.5
t22.5 44.5q0 22 -12 34.5t-36 21.5t-77 22q-88 24 -140 46t-86 65t-34 115q0 67 35 117.5t101 78t157 27.5q137 0 212.5 -59.5zM248 760l-128 156h149l60 -81l59 81h149l-127 -156h-162z" />
    <glyph glyph-name="scaron" unicode="&#x161;" horiz-adv-x="559" 
d="M452 482q62 -42 62 -126h-182q0 56 -57 56q-47 0 -47 -34q0 -13 8 -20.5t28 -15t63 -18.5q64 -17 106 -34.5t70.5 -51.5t28.5 -88q0 -76 -65 -121t-182 -45q-259 0 -259 181h192q0 -32 16.5 -47.5t51.5 -15.5q27 0 40.5 9t13.5 26q0 15 -10.5 24.5t-33.5 17t-73 20.5
q-58 15 -95.5 31t-63 48t-25.5 85q0 73 60.5 117t178.5 44q112 0 174 -42zM197 562l-123 150h149l55 -75l55 75h149l-123 -150h-162z" />
    <glyph glyph-name="Tcommaaccent" unicode="&#x162;" horiz-adv-x="638" 
d="M419 544v-544h-200v544h-211v168h622v-168h-211zM317 -280h-70l47 110h-47v121h143v-121z" />
    <glyph glyph-name="tcommaaccent" unicode="&#x163;" horiz-adv-x="398" 
d="M373 146v-142q-18 -6 -44.5 -9.5t-48.5 -3.5q-104 0 -151 41t-47 132v207h-77v137h77v142h192v-142h94v-137h-94v-155q0 -41 14.5 -58t48.5 -17q21 0 36 5zM295 -49v-121l-73 -110h-70l47 110h-47v121h143z" />
    <glyph glyph-name="Tcaron" unicode="&#x164;" horiz-adv-x="638" 
d="M419 544v-544h-200v544h-211v168h622v-168h-211zM239 760l-128 156h149l60 -81l59 81h149l-127 -156h-162z" />
    <glyph glyph-name="tcaron" unicode="&#x165;" horiz-adv-x="398" 
d="M373 146v-142q-18 -6 -44.5 -9.5t-48.5 -3.5q-104 0 -151 41t-47 132v207h-77v137h77v142h192v-142h94v-137h-94v-155q0 -41 14.5 -58t48.5 -17q21 0 36 5zM301 534l21 178h151l-64 -178h-108z" />
    <glyph glyph-name="Tbar" unicode="&#x166;" horiz-adv-x="638" 
d="M419 384h128v-122h-128v-262h-200v262h-128v122h128v160h-211v168h622v-168h-211v-160z" />
    <glyph glyph-name="tbar" unicode="&#x167;" horiz-adv-x="398" 
d="M373 139v-135q-18 -6 -44.5 -9.5t-48.5 -3.5q-104 0 -151 41t-47 132v50h-72v95h72v68h-77v131h77v142h192v-142h94v-131h-94v-68h89v-95h-89v-5q0 -40 14.5 -57.5t48.5 -17.5q21 0 36 5z" />
    <glyph glyph-name="Utilde" unicode="&#x168;" horiz-adv-x="731" 
d="M589.5 61.5q-78.5 -77.5 -223.5 -77.5t-224 77t-79 220v431h200v-428q0 -61 26.5 -93.5t76.5 -32.5t76 32.5t26 93.5v428h200v-431q0 -142 -78.5 -219.5zM529.5 804.5q-33.5 -40.5 -93.5 -40.5q-23 0 -41 6t-43 18q-18 9 -28.5 13t-21.5 4q-18 0 -27.5 -10t-12.5 -31h-99
q4 72 37.5 112t93.5 40q23 0 41 -6t43 -18q3 -1 19.5 -8.5t30.5 -7.5q18 0 27.5 9.5t11.5 30.5h99q-3 -71 -36.5 -111.5z" />
    <glyph glyph-name="utilde" unicode="&#x169;" 
d="M98.5 40q-49.5 54 -49.5 155v313h192v-289q0 -85 60 -85q69 0 69 119v255h192v-508h-178v58h-2q-26 -34 -63 -53t-84 -19q-87 0 -136.5 54zM473.5 600.5q-33.5 -40.5 -93.5 -40.5q-23 0 -41 6t-43 18q-18 9 -28.5 13t-21.5 4q-18 0 -27.5 -10t-12.5 -31h-99
q4 72 37.5 112t93.5 40q23 0 41 -6t43 -18q3 -1 19.5 -8.5t30.5 -7.5q18 0 27.5 9.5t11.5 30.5h99q-3 -71 -36.5 -111.5z" />
    <glyph glyph-name="Umacron" unicode="&#x16a;" horiz-adv-x="731" 
d="M589.5 61.5q-78.5 -77.5 -223.5 -77.5t-224 77t-79 220v431h200v-428q0 -61 26.5 -93.5t76.5 -32.5t76 32.5t26 93.5v428h200v-431q0 -142 -78.5 -219.5zM169 775v115h393v-115h-393z" />
    <glyph glyph-name="umacron" unicode="&#x16b;" 
d="M98.5 40q-49.5 54 -49.5 155v313h192v-289q0 -85 60 -85q69 0 69 119v255h192v-508h-178v58h-2q-26 -34 -63 -53t-84 -19q-87 0 -136.5 54zM112 581v115h393v-115h-393z" />
    <glyph glyph-name="Ubreve" unicode="&#x16c;" horiz-adv-x="731" 
d="M589.5 61.5q-78.5 -77.5 -223.5 -77.5t-224 77t-79 220v431h200v-428q0 -61 26.5 -93.5t76.5 -32.5t76 32.5t26 93.5v428h200v-431q0 -142 -78.5 -219.5zM496 800q-47 -41 -131 -41t-131 41t-50 116h117q3 -51 64 -51t64 51h117q-3 -75 -50 -116z" />
    <glyph glyph-name="ubreve" unicode="&#x16d;" 
d="M98.5 40q-49.5 54 -49.5 155v313h192v-289q0 -85 60 -85q69 0 69 119v255h192v-508h-178v58h-2q-26 -34 -63 -53t-84 -19q-87 0 -136.5 54zM440 596q-47 -41 -131 -41t-131 41t-50 116h117q3 -51 64 -51t64 51h117q-3 -75 -50 -116z" />
    <glyph glyph-name="Uring" unicode="&#x16e;" horiz-adv-x="731" 
d="M589.5 61.5q-78.5 -77.5 -223.5 -77.5t-224 77t-79 220v431h200v-428q0 -61 26.5 -93.5t76.5 -32.5t76 32.5t26 93.5v428h200v-431q0 -142 -78.5 -219.5zM449.5 958q34.5 -35 34.5 -85t-34.5 -85t-84.5 -35q-49 0 -84.5 35.5t-35.5 84.5q0 50 35.5 85t84.5 35
q50 0 84.5 -35zM324 914q-17 -17 -17 -41t17 -41t41 -17t41 17t17 41t-17 41t-41 17t-41 -17z" />
    <glyph glyph-name="uring" unicode="&#x16f;" 
d="M98.5 40q-49.5 54 -49.5 155v313h192v-289q0 -85 60 -85q69 0 69 119v255h192v-508h-178v58h-2q-26 -34 -63 -53t-84 -19q-87 0 -136.5 54zM393.5 754q34.5 -35 34.5 -85t-34.5 -85t-84.5 -35q-49 0 -84.5 35.5t-35.5 84.5q0 50 35.5 85t84.5 35q50 0 84.5 -35zM268 710
q-17 -17 -17 -41t17 -41t41 -17t41 17t17 41t-17 41t-41 17t-41 -17z" />
    <glyph glyph-name="Uhungarumlaut" unicode="&#x170;" horiz-adv-x="731" 
d="M589.5 61.5q-78.5 -77.5 -223.5 -77.5t-224 77t-79 220v431h200v-428q0 -61 26.5 -93.5t76.5 -32.5t76 32.5t26 93.5v428h200v-431q0 -142 -78.5 -219.5zM157 760l100 156h179l-142 -156h-137zM378 760l99 156h179l-142 -156h-136z" />
    <glyph glyph-name="uhungarumlaut" unicode="&#x171;" 
d="M98.5 40q-49.5 54 -49.5 155v313h192v-289q0 -85 60 -85q69 0 69 119v255h192v-508h-178v58h-2q-26 -34 -63 -53t-84 -19q-87 0 -136.5 54zM101 562l100 150h179l-142 -150h-137zM322 562l99 150h179l-142 -150h-136z" />
    <glyph glyph-name="Uogonek" unicode="&#x172;" horiz-adv-x="731" 
d="M639.5 134q-28.5 -61 -86.5 -109q-34 -28 -48.5 -50.5t-14.5 -43.5q0 -33 32 -33q17 0 33 7v-90q-47 -15 -102 -15q-65 0 -97.5 24.5t-32.5 70.5q0 27 15 48t46 40v2q-6 -1 -18 -1q-145 0 -224 77t-79 220v431h200v-428q0 -61 26.5 -93.5t76.5 -32.5t76 32.5t26 93.5v428
h200v-431q0 -86 -28.5 -147z" />
    <glyph glyph-name="uogonek" unicode="&#x173;" 
d="M565 -92v-93q-45 -16 -106 -16q-67 0 -100.5 25t-33.5 71q0 32 22.5 57t67.5 48h-31v58h-2q-26 -34 -63 -53t-84 -19q-87 0 -136.5 54t-49.5 155v313h192v-289q0 -85 60 -85q69 0 69 119v255h192v-508q-33 -21 -46.5 -37.5t-13.5 -33.5q0 -27 31 -27q19 0 32 6z" />
    <glyph glyph-name="Wcircumflex" unicode="&#x174;" horiz-adv-x="1025" 
d="M610 0l-54 287q-29 164 -42 269h-2q-14 -117 -43 -269l-54 -287h-270l-139 712h194l43 -254q23 -133 42 -288h2q18 141 47 288l50 254h257l50 -254q28 -139 48 -288h2q17 144 41 288l44 254h193l-139 -712h-270zM592 916l128 -156h-149l-60 81l-59 -81h-149l127 156h162z
" />
    <glyph glyph-name="wcircumflex" unicode="&#x175;" horiz-adv-x="886" 
d="M514 0l-36 181q-19 95 -34 211h-2q-15 -116 -34 -211l-36 -181h-254l-114 508h185l27 -177q17 -113 26 -211h2q13 90 39 213l39 175h242l39 -175q26 -123 39 -213h2q9 98 26 211l27 177h185l-114 -508h-254zM443 637l-55 -75h-149l123 150h162l123 -150h-149z" />
    <glyph glyph-name="Ycircumflex" unicode="&#x176;" horiz-adv-x="689" 
d="M444 0h-200v260l-244 452h220l56 -125q42 -94 67 -176h2q27 85 68 176l56 125h219l-244 -452v-260zM425 916l128 -156h-149l-60 81l-59 -81h-149l127 156h162z" />
    <glyph glyph-name="ycircumflex" unicode="&#x177;" horiz-adv-x="557" 
d="M351.5 -106q-31.5 -46 -76 -66t-111.5 -20q-60 0 -100 10v138q23 -6 47 -6q30 0 46.5 12.5t16.5 37.5q0 11 -5 28t-27 76l-154 404h208l45 -169q27 -104 47 -211h2q15 96 41 212l39 168h196l-157 -486q-26 -82 -57.5 -128zM282 637l-55 -75h-149l123 150h162l123 -150
h-149z" />
    <glyph glyph-name="Ydieresis" unicode="&#x178;" horiz-adv-x="689" 
d="M444 0h-200v260l-244 452h220l56 -125q42 -94 67 -176h2q27 85 68 176l56 125h219l-244 -452v-260zM145 769v141h162v-141h-162zM381 769v141h163v-141h-163z" />
    <glyph glyph-name="Zacute" unicode="&#x179;" horiz-adv-x="605" 
d="M260 166v-2h323v-164h-563v172l307 374v2h-293v164h532v-172zM195 760l80 156h208l-142 -156h-146z" />
    <glyph glyph-name="zacute" unicode="&#x17a;" horiz-adv-x="521" 
d="M270 147v-2h221v-145h-461v149l214 212v2h-207v145h446v-149zM157 562l80 150h208l-142 -150h-146z" />
    <glyph glyph-name="Zdotaccent" unicode="&#x17b;" horiz-adv-x="605" 
d="M260 166v-2h323v-164h-563v172l307 374v2h-293v164h532v-172zM204 769v141h192v-141h-192z" />
    <glyph glyph-name="zdotaccent" unicode="&#x17c;" horiz-adv-x="521" 
d="M270 147v-2h221v-145h-461v149l214 212v2h-207v145h446v-149zM168 571v141h192v-141h-192z" />
    <glyph glyph-name="Zcaron" unicode="&#x17d;" horiz-adv-x="605" 
d="M260 166v-2h323v-164h-563v172l307 374v2h-293v164h532v-172zM220 760l-128 156h149l60 -81l59 81h149l-127 -156h-162z" />
    <glyph glyph-name="zcaron" unicode="&#x17e;" horiz-adv-x="521" 
d="M270 147v-2h221v-145h-461v149l214 212v2h-207v145h446v-149zM183 562l-123 150h149l55 -75l55 75h149l-123 -150h-162z" />
    <glyph glyph-name="longs" unicode="&#x17f;" horiz-adv-x="380" 
d="M374 712v-130q-7 3 -25 3q-37 0 -54.5 -16.5t-17.5 -53.5v-515h-192v371h-78v137h78v29q0 92 51 138.5t149 46.5q43 0 89 -10z" />
    <glyph glyph-name="uni018F" unicode="&#x18f;" horiz-adv-x="787" 
d="M585.5 681.5q83.5 -46.5 127 -130.5t43.5 -193q0 -106 -44 -191t-126.5 -134t-194.5 -49q-110 0 -191 45t-125 128.5t-44 196.5q0 40 4 59h512q-6 85 -49.5 123t-110.5 38q-51 0 -83.5 -23.5t-39.5 -60.5h-215q15 66 60 120.5t116 86t161 31.5q116 0 199.5 -46.5z
M492 171.5q40 34.5 52 105.5h-303q9 -70 49.5 -105t100.5 -35q61 0 101 34.5z" />
    <glyph glyph-name="florin" unicode="&#x192;" horiz-adv-x="656" 
d="M628 714v-132q-24 6 -57 6q-39 0 -60.5 -18.5t-31.5 -57.5l-11 -44h111v-132h-143l-78 -310q-29 -113 -90 -165.5t-158 -52.5q-48 0 -82 10v132q24 -6 51 -6q41 0 63 21t37 78l74 293h-100v132h132l16 61q25 99 83.5 147.5t155.5 48.5q50 0 88 -11z" />
    <glyph glyph-name="Aringacute" unicode="&#x1fa;" horiz-adv-x="731" 
d="M245 128l-36 -128h-211l239 712h257l239 -712h-211l-36 128h-241zM428 334q-31 109 -61 240h-2q-32 -137 -62 -240l-14 -49h153zM450.5 938q34.5 -35 34.5 -85t-34.5 -85t-84.5 -35q-49 0 -84.5 35.5t-35.5 84.5q0 50 35.5 85t84.5 35q50 0 84.5 -35zM325 894
q-17 -17 -17 -41t17 -41t41 -17t41 17t17 41t-17 41t-41 17t-41 -17zM259 993l80 156h208l-142 -156h-146z" />
    <glyph glyph-name="aringacute" unicode="&#x1fb;" horiz-adv-x="576" 
d="M467 470q60 -54 60 -157v-165q0 -94 16 -148h-173q-8 29 -8 64h-2q-60 -78 -165 -78q-81 0 -129 45t-48 114t48 109t159 57q54 9 117 13v18q0 70 -60 70q-28 0 -43.5 -16.5t-16.5 -48.5h-183q5 77 65 127t180 50q123 0 183 -54zM264 217q-31 -7 -44.5 -21t-13.5 -38
t14.5 -38.5t41.5 -14.5q17 0 32.5 6t25.5 18q13 14 17.5 32t4.5 48v19q-49 -5 -78 -11zM362.5 750q34.5 -35 34.5 -85t-34.5 -85t-84.5 -35q-49 0 -84.5 35.5t-35.5 84.5q0 50 35.5 85t84.5 35q50 0 84.5 -35zM237 706q-17 -17 -17 -41t17 -41t41 -17t41 17t17 41t-17 41
t-41 17t-41 -17zM171 805l80 150h208l-142 -150h-146z" />
    <glyph glyph-name="AEacute" unicode="&#x1fc;" horiz-adv-x="989" 
d="M944 0h-421l-20 142h-236l-57 -142h-216l304 712h643v-165h-308l16 -107h267v-161h-245l17 -114h256v-165zM445 549h-14l-99 -247h149zM408 760l80 156h208l-142 -156h-146z" />
    <glyph glyph-name="aeacute" unicode="&#x1fd;" horiz-adv-x="911" 
d="M661.5 121.5q18.5 13.5 20.5 35.5h196q-11 -49 -47 -88.5t-91.5 -62t-122.5 -22.5q-62 0 -111 21t-82 60q-59 -81 -192 -81q-102 0 -158 45t-56 116q0 93 73 132t231 39h32v26q0 36 -15.5 53t-49.5 17q-65 0 -66 -65h-183q5 77 66 127t183 50q110 0 168 -49q63 49 157 49
q92 0 156 -41t93 -116q12 -30 17.5 -65.5t5.5 -86.5h-353q3 -59 24.5 -83t57.5 -24q28 0 46.5 13.5zM536 314h157q-3 47 -24.5 68.5t-54.5 21.5q-66 0 -78 -90zM323 223q-117 0 -117 -66q0 -26 15 -41.5t43 -15.5q41 0 64 24q14 14 20 34t6 52v13h-31zM346 562l80 150h208
l-142 -150h-146z" />
    <glyph glyph-name="Oslashacute" unicode="&#x1fe;" horiz-adv-x="767" 
d="M712 508.5q24 -68.5 24 -152.5q0 -113 -43 -197t-123 -129.5t-187 -45.5q-102 0 -181 42l-59 -80l-79 58l61 82q-46 49 -70 117.5t-24 152.5q0 113 43 197t122.5 129.5t186.5 45.5q104 0 182 -43l60 81l79 -58l-61 -83q45 -48 69 -116.5zM245 250l218 296q-35 22 -80 22
q-73 0 -113 -55.5t-40 -156.5q0 -62 15 -106zM497 199.5q40 55.5 40 156.5q0 60 -14 105l-218 -295q32 -22 78 -22q74 0 114 55.5zM277 760l80 156h208l-142 -156h-146z" />
    <glyph glyph-name="oslashacute" unicode="&#x1ff;" horiz-adv-x="618" 
d="M571.5 369q21.5 -51 21.5 -115q0 -82 -35 -143t-99 -94t-150 -33q-71 0 -128 23l-52 -71l-68 50l48 65q-41 36 -62.5 87.5t-21.5 115.5q0 82 35 143t99 94t150 33q71 0 129 -23l52 71l68 -50l-48 -66q40 -36 61.5 -87zM239 353q-25 -37 -25 -99q0 -32 8 -61l134 183
q-20 14 -47 14q-45 0 -70 -37zM379 155q25 37 25 99q0 36 -7 60l-134 -183q21 -13 46 -13q45 0 70 37zM203 562l80 150h208l-142 -150h-146z" />
    <glyph glyph-name="Scommaaccent" unicode="&#x218;" horiz-adv-x="661" 
d="M540.5 668.5q75.5 -59.5 75.5 -172.5h-210q0 39 -22.5 60t-65.5 21q-37 0 -58 -15t-21 -40q0 -20 12 -32.5t38 -21.5t79 -22q85 -21 139.5 -44.5t89 -68.5t34.5 -119q0 -71 -36.5 -122.5t-104.5 -79.5t-162 -28q-145 0 -226 65t-81 182h216q0 -91 98 -91q40 0 62.5 16.5
t22.5 44.5q0 22 -12 34.5t-36 21.5t-77 22q-88 24 -140 46t-86 65t-34 115q0 67 35 117.5t101 78t157 27.5q137 0 212.5 -59.5zM324 -280h-70l47 110h-47v121h143v-121z" />
    <glyph glyph-name="scommaaccent" unicode="&#x219;" horiz-adv-x="559" 
d="M452 482q62 -42 62 -126h-182q0 56 -57 56q-47 0 -47 -34q0 -13 8 -20.5t28 -15t63 -18.5q64 -17 106 -34.5t70.5 -51.5t28.5 -88q0 -76 -65 -121t-182 -45q-259 0 -259 181h192q0 -32 16.5 -47.5t51.5 -15.5q27 0 40.5 9t13.5 26q0 15 -10.5 24.5t-33.5 17t-73 20.5
q-58 15 -95.5 31t-63 48t-25.5 85q0 73 60.5 117t178.5 44q112 0 174 -42zM282 -280h-70l47 110h-47v121h143v-121z" />
    <glyph glyph-name="uni021A" unicode="&#x21a;" horiz-adv-x="638" 
d="M419 544v-544h-200v544h-211v168h622v-168h-211zM317 -280h-70l47 110h-47v121h143v-121z" />
    <glyph glyph-name="uni021B" unicode="&#x21b;" horiz-adv-x="398" 
d="M373 146v-142q-18 -6 -44.5 -9.5t-48.5 -3.5q-104 0 -151 41t-47 132v207h-77v137h77v142h192v-142h94v-137h-94v-155q0 -41 14.5 -58t48.5 -17q21 0 36 5zM222 -280h-70l47 110h-47v121h143v-121z" />
    <glyph glyph-name="uni0237" unicode="&#x237;" horiz-adv-x="300" 
d="M191.5 -140q-54.5 -51 -145.5 -51q-53 0 -92 11v132q11 -3 25 -3q39 0 57 21t18 77v461h192v-494q0 -103 -54.5 -154z" />
    <glyph glyph-name="uni0259" unicode="&#x259;" horiz-adv-x="594" 
d="M443 489.5q62 -34.5 94 -95.5t32 -138t-32 -139t-93.5 -97.5t-146.5 -35.5q-83 0 -144.5 33t-94.5 93.5t-33 141.5q0 26 3 43h353q-3 58 -25.5 81.5t-59.5 23.5q-26 0 -42.5 -13.5t-19.5 -34.5h-196q11 49 46 88t89.5 61.5t120.5 22.5q87 0 149 -34.5zM380 194h-162
q4 -46 25.5 -68t53.5 -22q70 0 83 90z" />
    <glyph glyph-name="afii57929" unicode="&#x2bc;" horiz-adv-x="277" 
d="M131 385h-96l72 156h-55v171h170v-171z" />
    <glyph glyph-name="circumflex" unicode="&#x2c6;" horiz-adv-x="508" 
d="M254 637l-55 -75h-149l123 150h162l123 -150h-149z" />
    <glyph glyph-name="caron" unicode="&#x2c7;" horiz-adv-x="508" 
d="M173 562l-123 150h149l55 -75l55 75h149l-123 -150h-162z" />
    <glyph glyph-name="uni02C9" unicode="&#x2c9;" horiz-adv-x="493" 
d="M50 581v115h393v-115h-393z" />
    <glyph glyph-name="breve" unicode="&#x2d8;" horiz-adv-x="462" 
d="M362 596q-47 -41 -131 -41t-131 41t-50 116h117q3 -51 64 -51t64 51h117q-3 -75 -50 -116z" />
    <glyph glyph-name="dotaccent" unicode="&#x2d9;" horiz-adv-x="292" 
d="M50 571v141h192v-141h-192z" />
    <glyph glyph-name="ring" unicode="&#x2da;" horiz-adv-x="339" 
d="M254.5 754q34.5 -35 34.5 -85t-34.5 -85t-84.5 -35q-49 0 -84.5 35.5t-35.5 84.5q0 50 35.5 85t84.5 35q50 0 84.5 -35zM129 710q-17 -17 -17 -41t17 -41t41 -17t41 17t17 41t-17 41t-41 17t-41 -17z" />
    <glyph glyph-name="ogonek" unicode="&#x2db;" horiz-adv-x="340" 
d="M240.5 -37.5q-13.5 -16.5 -13.5 -33.5q0 -27 31 -27q19 0 32 6v-93q-45 -16 -106 -16q-67 0 -100.5 25t-33.5 71q0 32 22.5 57t67.5 48h147q-33 -21 -46.5 -37.5z" />
    <glyph glyph-name="tilde" unicode="&#x2dc;" horiz-adv-x="503" 
d="M416.5 600.5q-33.5 -40.5 -93.5 -40.5q-23 0 -41 6t-43 18q-18 9 -28.5 13t-21.5 4q-18 0 -27.5 -10t-12.5 -31h-99q4 72 37.5 112t93.5 40q23 0 41 -6t43 -18q3 -1 19.5 -8.5t30.5 -7.5q18 0 27.5 9.5t11.5 30.5h99q-3 -71 -36.5 -111.5z" />
    <glyph glyph-name="hungarumlaut" unicode="&#x2dd;" horiz-adv-x="599" 
d="M50 562l100 150h179l-142 -150h-137zM271 562l99 150h179l-142 -150h-136z" />
    <glyph glyph-name="uni0312" unicode="&#x312;" horiz-adv-x="0" 
d="M193 688v-121h-143v121l73 110h70l-47 -110h47z" />
    <glyph glyph-name="uni0326" unicode="&#x326;" horiz-adv-x="0" 
d="M120 -280h-70l47 110h-47v121h143v-121z" />
    <glyph glyph-name="uni0333" unicode="&#x333;" horiz-adv-x="0" 
d="M-500 -147v97h500v-97h-500zM-500 -315v97h500v-97h-500z" />
    <glyph glyph-name="uni0374" unicode="&#x374;" horiz-adv-x="253" 
d="M30 508l25 204h168l-72 -204h-121z" />
    <glyph glyph-name="uni0375" unicode="&#x375;" horiz-adv-x="253" 
d="M30 -92l25 204h168l-72 -204h-121z" />
    <glyph glyph-name="uni037E" unicode="&#x37e;" horiz-adv-x="291" 
d="M45 308v200h200v-200h-200zM138 -185h-113l84 185h-64v200h200v-200z" />
    <glyph glyph-name="tonos" unicode="&#x384;" horiz-adv-x="317" 
d="M50 564l30 168h187l-76 -168h-141z" />
    <glyph glyph-name="dieresistonos" unicode="&#x385;" horiz-adv-x="612" 
d="M220 564l29 165h153l-57 -165h-125zM50 573v134h146v-134h-146zM416 573v134h146v-134h-146z" />
    <glyph glyph-name="Alphatonos" unicode="&#x386;" horiz-adv-x="731" 
d="M245 128l-36 -128h-211l239 712h257l239 -712h-211l-36 128h-241zM428 334q-31 109 -61 240h-2q-32 -137 -62 -240l-14 -49h153zM-37 504l30 208h187l-76 -208h-141z" />
    <glyph glyph-name="anoteleia" unicode="&#x387;" horiz-adv-x="290" 
d="M45 307v201h200v-201h-200z" />
    <glyph glyph-name="Epsilontonos" unicode="&#x388;" horiz-adv-x="635" 
d="M269 547v-107h293v-161h-293v-114h321v-165h-521v712h515v-165h-315zM-172 504l30 208h187l-76 -208h-141z" />
    <glyph glyph-name="Etatonos" unicode="&#x389;" horiz-adv-x="771" 
d="M502 0v282h-233v-282h-200v712h200v-262h233v262h200v-712h-200zM-172 504l30 208h187l-76 -208h-141z" />
    <glyph glyph-name="Iotatonos" unicode="&#x38a;" horiz-adv-x="338" 
d="M69 0v712h200v-712h-200zM-172 504l30 208h187l-76 -208h-141z" />
    <glyph glyph-name="Omicrontonos" unicode="&#x38c;" horiz-adv-x="767" 
d="M570 682.5q80 -45.5 123 -129.5t43 -197t-43 -197t-123 -129.5t-187 -45.5t-186.5 45.5t-122.5 129.5t-43 197t43 197t122.5 129.5t186.5 45.5t187 -45.5zM278 505.5q-37 -52.5 -37 -149.5t37 -149.5t105 -52.5q69 0 106 52.5t37 149.5t-37 149.5t-106 52.5
q-68 0 -105 -52.5zM-126 504l30 208h187l-76 -208h-141z" />
    <glyph glyph-name="Upsilontonos" unicode="&#x38e;" horiz-adv-x="689" 
d="M444 0h-200v260l-244 452h220l56 -125q42 -94 67 -176h2q27 85 68 176l56 125h219l-244 -452v-260zM-230 504l30 208h187l-76 -208h-141z" />
    <glyph glyph-name="Omegatonos" unicode="&#x38f;" horiz-adv-x="759" 
d="M629.5 649q93.5 -79 93.5 -230q0 -77 -32.5 -135.5t-91.5 -114.5v-2h135v-167h-312v173q43 44 67 94.5t24 117.5q0 84 -36.5 128t-96.5 44q-61 0 -97.5 -44t-36.5 -128q0 -67 24 -117.5t67 -94.5v-173h-312v167h135v2q-59 56 -91.5 114.5t-32.5 135.5q0 151 93.5 230
t250.5 79q156 0 249.5 -79zM-140 504l30 208h187l-76 -208h-141z" />
    <glyph glyph-name="iotadieresistonos" unicode="&#x390;" horiz-adv-x="351" 
d="M255.5 155.5q14.5 -19.5 48.5 -19.5q21 0 36 5v-139q-18 -5 -45 -8t-48 -3q-104 0 -151 46.5t-47 149.5v321h192v-288q0 -45 14.5 -64.5zM59 564l29 165h153l-57 -165h-125zM-111 573v134h146v-134h-146zM255 573v134h146v-134h-146z" />
    <glyph glyph-name="Alpha" unicode="&#x391;" horiz-adv-x="731" 
d="M245 128l-36 -128h-211l239 712h257l239 -712h-211l-36 128h-241zM428 334q-31 109 -61 240h-2q-32 -137 -62 -240l-14 -49h153z" />
    <glyph glyph-name="Beta" unicode="&#x392;" horiz-adv-x="677" 
d="M565 662.5q65 -49.5 65 -134.5q0 -61 -28.5 -100t-89.5 -60v-2q67 -15 101.5 -57.5t34.5 -108.5q0 -92 -71 -146t-196 -54h-312v712h302q129 0 194 -49.5zM262 430h77q50 0 73.5 16.5t23.5 51.5q0 34 -22 50.5t-69 16.5h-83v-135zM262 148h81q53 0 76 16.5t23 53.5
q0 38 -24.5 55t-78.5 17h-77v-142z" />
    <glyph glyph-name="Gamma" unicode="&#x393;" horiz-adv-x="530" 
d="M69 712h453v-168h-253v-544h-200v712z" />
    <glyph glyph-name="Delta" unicode="&#x394;" horiz-adv-x="730" 
d="M-2 0l243 712h250l241 -712h-734zM428 334q-33 114 -62 242h-2q-25 -113 -63 -242l-50 -177h227z" />
    <glyph glyph-name="Epsilon" unicode="&#x395;" horiz-adv-x="635" 
d="M269 547v-107h293v-161h-293v-114h321v-165h-521v712h515v-165h-315z" />
    <glyph glyph-name="Zeta" unicode="&#x396;" horiz-adv-x="605" 
d="M260 166v-2h323v-164h-563v172l307 374v2h-293v164h532v-172z" />
    <glyph glyph-name="Eta" unicode="&#x397;" horiz-adv-x="771" 
d="M502 0v282h-233v-282h-200v712h200v-262h233v262h200v-712h-200z" />
    <glyph glyph-name="Theta" unicode="&#x398;" horiz-adv-x="767" 
d="M569.5 682.5q79.5 -45.5 123 -129.5t43.5 -197t-43.5 -197t-123 -129.5t-186.5 -45.5t-186.5 45.5t-122.5 129.5t-43 197t43 197t122.5 129.5t186.5 45.5t186.5 -45.5zM269.5 512q-39.5 -55 -39.5 -156q0 -100 39.5 -155.5t113.5 -55.5t114 55.5t40 155.5q0 101 -40 156
t-114 55t-113.5 -55zM266 292v128h234v-128h-234z" />
    <glyph glyph-name="Iota" unicode="&#x399;" horiz-adv-x="338" 
d="M69 0v712h200v-712h-200z" />
    <glyph glyph-name="Kappa" unicode="&#x39a;" horiz-adv-x="716" 
d="M713 0h-250l-192 319h-2v-319h-200v712h200v-300h2l186 300h241l-247 -336z" />
    <glyph glyph-name="Lambda" unicode="&#x39b;" horiz-adv-x="718" 
d="M505 0l-90 329q-32 122 -55 237h-2q-25 -123 -56 -237l-89 -329h-215l231 712h260l231 -712h-215z" />
    <glyph glyph-name="Mu" unicode="&#x39c;" horiz-adv-x="1042" 
d="M787 0v341q0 131 6 261h-2q-30 -144 -60 -258l-89 -344h-242l-89 344q-30 114 -60 258h-2q6 -130 6 -261v-341h-186v712h318l79 -306q34 -126 54 -262h2q18 122 54 262l79 306h318v-712h-186z" />
    <glyph glyph-name="Nu" unicode="&#x39d;" horiz-adv-x="827" 
d="M467 0l-111 273q-57 143 -102 276h-2q8 -129 8 -291v-258h-191v712h291l110 -273q58 -141 102 -276h2q-8 155 -8 291v258h191v-712h-290z" />
    <glyph glyph-name="Xi" unicode="&#x39e;" horiz-adv-x="677" 
d="M59 538v174h559v-174h-559zM76 272v174h525v-174h-525zM45 0v174h587v-174h-587z" />
    <glyph glyph-name="Omicron" unicode="&#x39f;" horiz-adv-x="767" 
d="M570 682.5q80 -45.5 123 -129.5t43 -197t-43 -197t-123 -129.5t-187 -45.5t-186.5 45.5t-122.5 129.5t-43 197t43 197t122.5 129.5t186.5 45.5t187 -45.5zM278 505.5q-37 -52.5 -37 -149.5t37 -149.5t105 -52.5q69 0 106 52.5t37 149.5t-37 149.5t-106 52.5
q-68 0 -105 -52.5z" />
    <glyph glyph-name="Pi" unicode="&#x3a0;" horiz-adv-x="761" 
d="M492 0v544h-223v-544h-200v712h623v-712h-200z" />
    <glyph glyph-name="Rho" unicode="&#x3a1;" horiz-adv-x="673" 
d="M581.5 647.5q71.5 -64.5 71.5 -178.5t-71.5 -179t-211.5 -65h-101v-225h-200v712h301q140 0 211.5 -64.5zM269 382h73q105 0 105 87q0 86 -105 86h-73v-173z" />
    <glyph glyph-name="Sigma" unicode="&#x3a3;" horiz-adv-x="602" 
d="M260 545v-2l148 -181l-160 -193v-2h332v-167h-555v172l151 191l-140 179v170h530v-167h-306z" />
    <glyph glyph-name="Tau" unicode="&#x3a4;" horiz-adv-x="638" 
d="M419 544v-544h-200v544h-211v168h622v-168h-211z" />
    <glyph glyph-name="Upsilon" unicode="&#x3a5;" horiz-adv-x="689" 
d="M444 0h-200v260l-244 452h220l56 -125q42 -94 67 -176h2q27 85 68 176l56 125h219l-244 -452v-260z" />
    <glyph glyph-name="Phi" unicode="&#x3a6;" horiz-adv-x="887" 
d="M772.5 588.5q83.5 -80.5 83.5 -230.5q0 -148 -83.5 -228.5t-234.5 -91.5v-72h-189v72q-152 11 -235 92t-83 230t83 229t235 91v66h189v-66q151 -11 234.5 -91.5zM264 482.5q-32 -43.5 -32 -122.5q0 -81 32 -124.5t91 -48.5v345q-59 -6 -91 -49.5zM623 235.5
q32 43.5 32 122.5q0 81 -32 124.5t-91 49.5v-345q59 5 91 48.5z" />
    <glyph glyph-name="Chi" unicode="&#x3a7;" horiz-adv-x="709" 
d="M708 0h-235l-118 239h-2l-117 -239h-236l220 369l-205 343h230l108 -229h2l109 229h230l-205 -343z" />
    <glyph glyph-name="Psi" unicode="&#x3a8;" horiz-adv-x="879" 
d="M769.5 242.5q-78.5 -79.5 -232.5 -90.5v-152h-195v152q-311 21 -311 319v241h195v-229q0 -86 26.5 -124.5t89.5 -43.5v397h195v-397q62 5 89 44t27 124v229h195v-241q0 -149 -78.5 -228.5z" />
    <glyph glyph-name="Omega" unicode="&#x3a9;" horiz-adv-x="759" 
d="M629.5 649q93.5 -79 93.5 -230q0 -77 -32.5 -135.5t-91.5 -114.5v-2h135v-167h-312v173q43 44 67 94.5t24 117.5q0 84 -36.5 128t-96.5 44q-61 0 -97.5 -44t-36.5 -128q0 -67 24 -117.5t67 -94.5v-173h-312v167h135v2q-59 56 -91.5 114.5t-32.5 135.5q0 151 93.5 230
t250.5 79q156 0 249.5 -79z" />
    <glyph glyph-name="Iotadieresis" unicode="&#x3aa;" horiz-adv-x="338" 
d="M69 0v712h200v-712h-200zM-31 775v141h162v-141h-162zM205 775v141h163v-141h-163z" />
    <glyph glyph-name="Upsilondieresis" unicode="&#x3ab;" horiz-adv-x="689" 
d="M444 0h-200v260l-244 452h220l56 -125q42 -94 67 -176h2q27 85 68 176l56 125h219l-244 -452v-260zM145 769v141h162v-141h-162zM381 769v141h163v-141h-163z" />
    <glyph glyph-name="alphatonos" unicode="&#x3ac;" horiz-adv-x="652" 
d="M324 504.5q36 -18.5 59 -55.5h2q2 36 6 59h192q-10 -72 -10 -180v-140q0 -30 10 -42.5t32 -12.5q12 0 24 3v-130q-46 -17 -111 -17q-102 0 -136 71h-2q-24 -37 -62.5 -56t-82.5 -19q-66 0 -116 33t-77 94t-27 142t27.5 142t77.5 94t116 33q42 0 78 -18.5zM248 344.5
q-22 -33.5 -22 -90.5t22 -90.5t59 -33.5q36 0 57.5 33.5t21.5 90.5t-21.5 90.5t-57.5 33.5q-37 0 -59 -33.5zM236 564l30 168h187l-76 -168h-141z" />
    <glyph glyph-name="epsilontonos" unicode="&#x3ad;" horiz-adv-x="549" 
d="M452 473.5q66 -50.5 66 -138.5h-170q0 29 -18 45t-53 16q-30 0 -45.5 -11t-15.5 -31t16.5 -31.5t47.5 -11.5h49v-109h-49q-72 0 -72 -45q0 -21 17.5 -32.5t47.5 -11.5q76 0 76 62h179q0 -94 -66.5 -142.5t-188.5 -48.5q-119 0 -182 40t-63 118q0 47 23 76.5t74 46.5v2
q-46 16 -65.5 41t-19.5 66q0 72 64 111t170 39q112 0 178 -50.5zM199 564l30 168h187l-76 -168h-141z" />
    <glyph glyph-name="etatonos" unicode="&#x3ae;" horiz-adv-x="642" 
d="M544.5 468q48.5 -54 48.5 -156v-497h-192v473q0 42 -14.5 64.5t-44.5 22.5q-70 0 -70 -120v-255h-192v312q0 34 -9.5 49t-32.5 15q-14 0 -25 -3v128q51 17 105 17q55 0 86.5 -19.5t45.5 -63.5h2q26 41 66.5 64t91.5 23q86 0 134.5 -54zM208 564l30 168h187l-76 -168h-141
z" />
    <glyph glyph-name="iotatonos" unicode="&#x3af;" horiz-adv-x="351" 
d="M255.5 155.5q14.5 -19.5 48.5 -19.5q21 0 36 5v-139q-18 -5 -45 -8t-48 -3q-104 0 -151 46.5t-47 149.5v321h192v-288q0 -45 14.5 -64.5zM74 564l30 168h187l-76 -168h-141z" />
    <glyph glyph-name="upsilondieresistonos" unicode="&#x3b0;" horiz-adv-x="623" 
d="M230 478.5q38 -39.5 38 -135.5v-142q0 -38 13.5 -55.5t40.5 -17.5q73 0 73 147q0 133 -32 233h186q37 -113 37 -249q0 -134 -65 -204.5t-196 -70.5q-124 0 -187 50t-63 158v108q0 42 -10 58t-32 16q-15 0 -25 -3v130q53 17 105 17q79 0 117 -39.5zM218 564l29 165h153
l-57 -165h-125zM48 573v134h146v-134h-146zM414 573v134h146v-134h-146z" />
    <glyph glyph-name="alpha" unicode="&#x3b1;" horiz-adv-x="652" 
d="M324 504.5q36 -18.5 59 -55.5h2q2 36 6 59h192q-10 -72 -10 -180v-140q0 -30 10 -42.5t32 -12.5q12 0 24 3v-130q-46 -17 -111 -17q-102 0 -136 71h-2q-24 -37 -62.5 -56t-82.5 -19q-66 0 -116 33t-77 94t-27 142t27.5 142t77.5 94t116 33q42 0 78 -18.5zM248 344.5
q-22 -33.5 -22 -90.5t22 -90.5t59 -33.5q36 0 57.5 33.5t21.5 90.5t-21.5 90.5t-57.5 33.5q-37 0 -59 -33.5z" />
    <glyph glyph-name="beta" unicode="&#x3b2;" horiz-adv-x="621" 
d="M496.5 678.5q68.5 -49.5 68.5 -134.5q0 -63 -29.5 -102t-90.5 -60v-2q76 -20 114.5 -64.5t38.5 -119.5q0 -95 -62 -150.5t-170 -55.5q-77 0 -118 36h-2v-211h-192v671q0 114 69 178t189 64q116 0 184.5 -49.5zM263 565.5q-17 -23.5 -17 -74.5v-290q0 -33 18 -51.5
t54 -18.5q39 0 61.5 22t22.5 63q0 43 -27 64.5t-79 21.5h-10v148h10q42 0 65 19.5t23 54.5q0 31 -17.5 48t-48.5 17q-38 0 -55 -23.5z" />
    <glyph glyph-name="gamma" unicode="&#x3b3;" horiz-adv-x="589" 
d="M521 250.5q-47 -114.5 -140 -245.5v-11q0 -37 -3 -89.5t-8 -89.5h-192q5 37 8 89.5t3 89.5q0 60 -19 143.5t-52 155.5q-23 49 -43 66t-45 17q-9 0 -23 -2v131q47 15 93 15q61 0 97.5 -27.5t66.5 -102.5q35 -86 53 -180h2q27 72 43 143.5t22 154.5h199
q-15 -143 -62 -257.5z" />
    <glyph glyph-name="delta" unicode="&#x3b4;" horiz-adv-x="607" 
d="M522 701v-145q-45 16 -93 24.5t-88 8.5q-24 0 -34 -5.5t-10 -15.5q0 -13 20.5 -26t75.5 -39q97 -45 143 -107.5t46 -162.5q0 -76 -34.5 -132t-97.5 -86t-146 -30q-84 0 -147 30t-97.5 85.5t-34.5 130.5q0 78 44.5 133.5t126.5 76.5v2q-52 36 -76.5 68.5t-24.5 74.5
q0 136 221 136q108 0 206 -21zM247.5 321q-20.5 -31 -20.5 -84t20.5 -84t56.5 -31q35 0 55.5 31t20.5 84t-20.5 84t-55.5 31q-36 0 -56.5 -31z" />
    <glyph glyph-name="epsilon" unicode="&#x3b5;" horiz-adv-x="549" 
d="M452 473.5q66 -50.5 66 -138.5h-170q0 29 -18 45t-53 16q-30 0 -45.5 -11t-15.5 -31t16.5 -31.5t47.5 -11.5h49v-109h-49q-72 0 -72 -45q0 -21 17.5 -32.5t47.5 -11.5q76 0 76 62h179q0 -94 -66.5 -142.5t-188.5 -48.5q-119 0 -182 40t-63 118q0 47 23 76.5t74 46.5v2
q-46 16 -65.5 41t-19.5 66q0 72 64 111t170 39q112 0 178 -50.5z" />
    <glyph glyph-name="zeta" unicode="&#x3b6;" horiz-adv-x="507" 
d="M294 423q-68 -81 -68 -180q0 -52 30 -78.5t106 -39.5t105 -50.5t29 -103.5q0 -60 -31 -116h-150q13 32 13 64q0 33 -19 51t-73 25q-115 14 -162.5 62t-47.5 142q0 108 67.5 204.5t190.5 170.5v2h-233v136h443v-136q-132 -72 -200 -153z" />
    <glyph glyph-name="eta" unicode="&#x3b7;" horiz-adv-x="642" 
d="M544.5 468q48.5 -54 48.5 -156v-497h-192v473q0 42 -14.5 64.5t-44.5 22.5q-70 0 -70 -120v-255h-192v312q0 34 -9.5 49t-32.5 15q-14 0 -25 -3v128q51 17 105 17q55 0 86.5 -19.5t45.5 -63.5h2q26 41 66.5 64t91.5 23q86 0 134.5 -54z" />
    <glyph glyph-name="theta" unicode="&#x3b8;" horiz-adv-x="653" 
d="M547.5 631.5q76.5 -95.5 76.5 -275.5t-76.5 -275.5t-221.5 -95.5q-144 0 -220.5 95.5t-76.5 275.5t76.5 275.5t220.5 95.5q145 0 221.5 -95.5zM227 419h198q-6 85 -31 128t-68 43q-85 0 -99 -171zM394 165q25 43 31 128h-198q14 -171 99 -171q43 0 68 43z" />
    <glyph glyph-name="iota" unicode="&#x3b9;" horiz-adv-x="351" 
d="M255.5 155.5q14.5 -19.5 48.5 -19.5q21 0 36 5v-139q-18 -5 -45 -8t-48 -3q-104 0 -151 46.5t-47 149.5v321h192v-288q0 -45 14.5 -64.5z" />
    <glyph glyph-name="kappa" unicode="&#x3ba;" horiz-adv-x="608" 
d="M282 146l-37 -42v-104h-192v508h192v-192h2l72 87q53 64 100 89t108 25q29 0 60 -9v-156q-18 5 -38 5q-37 0 -72.5 -18.5t-77.5 -59.5l220 -279h-227z" />
    <glyph glyph-name="lambda" unicode="&#x3bb;" horiz-adv-x="633" 
d="M281 706.5q42 -17.5 75.5 -63t64.5 -129.5l105 -280q23 -61 42.5 -81.5t44.5 -20.5q6 0 14 2v-134q-40 -11 -77 -11q-51 0 -84 13.5t-58 47.5t-46 99q-23 68 -51 159h-2q-33 -98 -63 -178l-49 -130h-206l224 500q-14 41 -34.5 58.5t-53.5 17.5q-27 0 -48 -8v140
q42 16 99 16q61 0 103 -17.5z" />
    <glyph glyph-name="mu" unicode="&#x3bc;" horiz-adv-x="640" 
d="M575 145.5q10 -12.5 31 -12.5q13 0 25 3v-130q-48 -17 -111 -17q-97 0 -130 70h-2q-14 -31 -39.5 -47.5t-59.5 -16.5q-26 0 -43 9v-189h-192v693h192v-283q0 -91 59 -91q68 0 68 111v263h192v-320q0 -30 10 -42.5z" />
    <glyph glyph-name="nu" unicode="&#x3bd;" horiz-adv-x="579" 
d="M202 477.5q40 -40.5 54 -129.5l36 -217h2q44 122 61.5 198t17.5 141q0 20 -3 38h189q6 -25 6 -50q0 -57 -12.5 -112.5t-43 -134t-91.5 -211.5h-263l-73 295q-12 47 -24.5 64t-33.5 17q-12 0 -21 -3v129q38 16 91 16q68 0 108 -40.5z" />
    <glyph glyph-name="xi" unicode="&#x3be;" horiz-adv-x="512" 
d="M384 576q-136 0 -136 -85q0 -32 25.5 -49t72.5 -17h114v-136h-105q-65 0 -97 -21.5t-32 -58.5q0 -38 30 -57t108 -29q77 -11 106.5 -48.5t29.5 -103.5q0 -57 -31 -116h-150q13 32 13 64q0 34 -25 53t-93 27q-100 11 -144 54t-44 120q0 72 38.5 118t116.5 62v2
q-50 11 -77.5 41.5t-27.5 76.5q0 78 70 101v2h-96v136h449v-136h-115z" />
    <glyph glyph-name="omicron" unicode="&#x3bf;" horiz-adv-x="618" 
d="M459 491q64 -33 99 -94t35 -143t-35 -143t-99 -94t-150 -33t-150 33t-99 94t-35 143t35 143t99 94t150 33t150 -33zM248.5 347.5q-21.5 -33.5 -21.5 -93.5t21.5 -93.5t60.5 -33.5t60.5 33.5t21.5 93.5t-21.5 93.5t-60.5 33.5t-60.5 -33.5z" />
    <glyph glyph-name="pi" unicode="&#x3c0;" horiz-adv-x="691" 
d="M591 371v-180q0 -34 11 -46.5t35 -12.5q18 0 27 4v-134q-20 -5 -48 -8.5t-53 -3.5q-86 0 -125 39.5t-39 134.5v207h-117v-371h-192v371h-83v137h668v-137h-84z" />
    <glyph glyph-name="rho" unicode="&#x3c1;" horiz-adv-x="621" 
d="M466 490q62 -34 96 -96.5t34 -147.5q0 -78 -30 -136.5t-85.5 -90.5t-129.5 -32q-34 0 -62.5 9.5t-45.5 26.5h-2v-208h-192v439q0 82 33.5 143t95 94t143.5 33q83 0 145 -34zM252 344.5q-22 -33.5 -22 -90.5q0 -56 22 -90t59 -34q38 0 60 33.5t22 90.5q0 58 -22 91t-60 33
q-37 0 -59 -33.5z" />
    <glyph glyph-name="sigma1" unicode="&#x3c2;" horiz-adv-x="588" 
d="M490.5 461.5q68.5 -62.5 75.5 -171.5h-198q-3 43 -21.5 67t-50.5 24t-51 -28t-19 -77q0 -61 34.5 -94.5t108.5 -43.5q88 -11 121.5 -52.5t33.5 -114.5q0 -57 -31 -116h-151q14 28 14 64t-25.5 55t-98.5 27q-104 11 -156 76t-52 180q0 126 72.5 196.5t199.5 70.5
q126 0 194.5 -62.5z" />
    <glyph glyph-name="sigma" unicode="&#x3c3;" horiz-adv-x="648" 
d="M536 372v-2q47 -53 47 -134q0 -76 -33.5 -133t-95.5 -88t-145 -31q-86 0 -150 32t-99 91.5t-35 138.5q0 80 35 139t99 91t150 32h332v-136h-105zM248 342q-21 -32 -21 -91t21 -91.5t61 -32.5t61 32.5t21 91.5t-21 91t-61 32t-61 -32z" />
    <glyph glyph-name="tau" unicode="&#x3c4;" horiz-adv-x="497" 
d="M339 372v-181q0 -34 11 -46.5t35 -12.5q18 0 27 4v-134q-20 -5 -48 -8.5t-53 -3.5q-86 0 -125 39.5t-39 134.5v208h-140v136h483v-136h-151z" />
    <glyph glyph-name="upsilon" unicode="&#x3c5;" horiz-adv-x="623" 
d="M230 478.5q38 -39.5 38 -135.5v-142q0 -38 13.5 -55.5t40.5 -17.5q73 0 73 147q0 133 -32 233h186q37 -113 37 -249q0 -134 -65 -204.5t-196 -70.5q-124 0 -187 50t-63 158v108q0 42 -10 58t-32 16q-15 0 -25 -3v130q53 17 105 17q79 0 117 -39.5z" />
    <glyph glyph-name="phi" unicode="&#x3c6;" horiz-adv-x="829" 
d="M723.5 61.5q-80.5 -71.5 -218.5 -77.5v-169h-181v169q-138 6 -218.5 77.5t-80.5 192.5t80.5 192.5t218.5 77.5v138h181v-138q138 -6 218.5 -77.5t80.5 -192.5t-80.5 -192.5zM246.5 158q26.5 -34 77.5 -39v270q-51 -5 -77.5 -39t-26.5 -96t26.5 -96zM608 254
q0 127 -103 134v-268q103 7 103 134z" />
    <glyph glyph-name="chi" unicode="&#x3c7;" horiz-adv-x="632" 
d="M214 494.5q39 -28.5 69 -100.5l38 -90h2l104 204h211l-202 -350l63 -133q22 -47 42.5 -62.5t50.5 -15.5q15 0 28 3v-129q-45 -16 -95 -16q-69 0 -109 29t-71 101l-32 74h-2l-113 -194h-210l215 333l-70 150q-23 49 -43.5 66t-51.5 17q-13 0 -31 -4v128q18 8 44.5 13
t52.5 5q71 0 110 -28.5z" />
    <glyph glyph-name="psi" unicode="&#x3c8;" horiz-adv-x="870" 
d="M758 70.5q-74 -70.5 -224 -79.5v-176h-192v176q-146 8 -219.5 68.5t-73.5 182.5v266h192v-246q0 -57 25 -88t76 -39v527h192v-526q106 20 106 145q0 127 -39 227h190q41 -108 41 -242q0 -125 -74 -195.5z" />
    <glyph glyph-name="omega" unicode="&#x3c9;" horiz-adv-x="873" 
d="M818.5 372.5q16.5 -72.5 16.5 -148.5q0 -116 -54 -177.5t-165 -61.5q-145 0 -178 106h-2q-33 -106 -178 -106q-112 0 -166 61.5t-54 177.5q0 76 16.5 148.5t48.5 135.5h200q-32 -58 -49 -124.5t-17 -136.5q0 -120 58 -120q46 0 46 68v197h192v-197q0 -68 45 -68
q58 0 58 120q0 70 -17 136.5t-49 124.5h200q32 -63 48.5 -135.5z" />
    <glyph glyph-name="iotadieresis" unicode="&#x3ca;" horiz-adv-x="351" 
d="M255.5 155.5q14.5 -19.5 48.5 -19.5q21 0 36 5v-139q-18 -5 -45 -8t-48 -3q-104 0 -151 46.5t-47 149.5v321h192v-288q0 -45 14.5 -64.5zM-54 571v141h162v-141h-162zM182 571v141h163v-141h-163z" />
    <glyph glyph-name="upsilondieresis" unicode="&#x3cb;" horiz-adv-x="623" 
d="M230 478.5q38 -39.5 38 -135.5v-142q0 -38 13.5 -55.5t40.5 -17.5q73 0 73 147q0 133 -32 233h186q37 -113 37 -249q0 -134 -65 -204.5t-196 -70.5q-124 0 -187 50t-63 158v108q0 42 -10 58t-32 16q-15 0 -25 -3v130q53 17 105 17q79 0 117 -39.5zM104 571v141h162v-141
h-162zM340 571v141h163v-141h-163z" />
    <glyph glyph-name="omicrontonos" unicode="&#x3cc;" horiz-adv-x="618" 
d="M459 491q64 -33 99 -94t35 -143t-35 -143t-99 -94t-150 -33t-150 33t-99 94t-35 143t35 143t99 94t150 33t150 -33zM248.5 347.5q-21.5 -33.5 -21.5 -93.5t21.5 -93.5t60.5 -33.5t60.5 33.5t21.5 93.5t-21.5 93.5t-60.5 33.5t-60.5 -33.5zM238 564l30 168h187l-76 -168
h-141z" />
    <glyph glyph-name="upsilontonos" unicode="&#x3cd;" horiz-adv-x="623" 
d="M230 478.5q38 -39.5 38 -135.5v-142q0 -38 13.5 -55.5t40.5 -17.5q73 0 73 147q0 133 -32 233h186q37 -113 37 -249q0 -134 -65 -204.5t-196 -70.5q-124 0 -187 50t-63 158v108q0 42 -10 58t-32 16q-15 0 -25 -3v130q53 17 105 17q79 0 117 -39.5zM233 564l30 168h187
l-76 -168h-141z" />
    <glyph glyph-name="omegatonos" unicode="&#x3ce;" horiz-adv-x="873" 
d="M818.5 372.5q16.5 -72.5 16.5 -148.5q0 -116 -54 -177.5t-165 -61.5q-145 0 -178 106h-2q-33 -106 -178 -106q-112 0 -166 61.5t-54 177.5q0 76 16.5 148.5t48.5 135.5h200q-32 -58 -49 -124.5t-17 -136.5q0 -120 58 -120q46 0 46 68v197h192v-197q0 -68 45 -68
q58 0 58 120q0 70 -17 136.5t-49 124.5h200q32 -63 48.5 -135.5zM366 564l30 168h187l-76 -168h-141z" />
    <glyph glyph-name="uni0400" unicode="&#x400;" horiz-adv-x="635" 
d="M269 547v-107h293v-161h-293v-114h321v-165h-521v712h515v-165h-315zM435 760h-146l-142 156h208z" />
    <glyph glyph-name="afii10023" unicode="&#x401;" horiz-adv-x="635" 
d="M269 547v-107h293v-161h-293v-114h321v-165h-521v712h515v-165h-315zM129 769v141h162v-141h-162zM365 769v141h163v-141h-163z" />
    <glyph glyph-name="afii10051" unicode="&#x402;" horiz-adv-x="835" 
d="M419 544v-112q63 31 144 31q121 0 186.5 -63t65.5 -179q0 -110 -63.5 -172t-182.5 -62q-56 0 -95 13v148q21 -6 51 -6q46 0 68.5 19t22.5 62q0 41 -25 62.5t-74 21.5q-54 0 -98 -25v-282h-200v544h-211v168h622v-168h-211z" />
    <glyph glyph-name="afii10052" unicode="&#x403;" horiz-adv-x="530" 
d="M69 712h453v-168h-253v-544h-200v712zM190 760l80 156h208l-142 -156h-146z" />
    <glyph glyph-name="afii10053" unicode="&#x404;" horiz-adv-x="744" 
d="M613 57q-89 -73 -234 -73q-108 0 -186.5 45t-120 128.5t-41.5 198.5t42 198.5t121 128.5t186 45q97 0 170 -32.5t114.5 -94.5t45.5 -147h-205q-7 53 -39 82t-86 29q-52 0 -87.5 -34.5t-49.5 -96.5h207v-155h-207q14 -63 49.5 -97.5t86.5 -34.5q53 0 86.5 30.5t41.5 86.5
h207q-12 -134 -101 -207z" />
    <glyph glyph-name="afii10054" unicode="&#x405;" horiz-adv-x="661" 
d="M540.5 668.5q75.5 -59.5 75.5 -172.5h-210q0 39 -22.5 60t-65.5 21q-37 0 -58 -15t-21 -40q0 -20 12 -32.5t38 -21.5t79 -22q85 -21 139.5 -44.5t89 -68.5t34.5 -119q0 -71 -36.5 -122.5t-104.5 -79.5t-162 -28q-145 0 -226 65t-81 182h216q0 -91 98 -91q40 0 62.5 16.5
t22.5 44.5q0 22 -12 34.5t-36 21.5t-77 22q-88 24 -140 46t-86 65t-34 115q0 67 35 117.5t101 78t157 27.5q137 0 212.5 -59.5z" />
    <glyph glyph-name="afii10055" unicode="&#x406;" horiz-adv-x="338" 
d="M69 0v712h200v-712h-200z" />
    <glyph glyph-name="afii10056" unicode="&#x407;" horiz-adv-x="338" 
d="M69 0v712h200v-712h-200zM-31 769v141h162v-141h-162zM205 769v141h163v-141h-163z" />
    <glyph glyph-name="afii10057" unicode="&#x408;" horiz-adv-x="428" 
d="M301 54q-63 -64 -195 -64q-43 0 -91 11v163q26 -4 44 -4q40 0 62.5 12.5t32.5 43t10 85.5v411h200v-458q0 -136 -63 -200z" />
    <glyph glyph-name="afii10058" unicode="&#x409;" horiz-adv-x="1089" 
d="M786 487q140 0 211.5 -65t71.5 -179t-71.5 -178.5t-211.5 -64.5h-301v545h-149q-10 -231 -39.5 -349.5t-81 -161t-141.5 -42.5q-34 0 -64 8v160q10 -2 18 -2q43 0 66 41t35.5 157.5t19.5 355.5h536v-225h101zM685 157h73q105 0 105 86q0 87 -105 87h-73v-173z" />
    <glyph glyph-name="afii10059" unicode="&#x40a;" horiz-adv-x="1106" 
d="M1014.5 422q71.5 -65 71.5 -179t-71.5 -178.5t-211.5 -64.5h-301v282h-233v-282h-200v712h200v-262h233v262h200v-225h101q140 0 211.5 -65zM880 243q0 87 -105 87h-73v-173h73q105 0 105 86z" />
    <glyph glyph-name="afii10060" unicode="&#x40b;" horiz-adv-x="837" 
d="M747 382q61 -59 61 -169v-213h-200v175q0 48 -24 73t-71 25q-54 0 -94 -14v-259h-200v544h-211v168h622v-168h-211v-122q63 19 153 19q114 0 175 -59z" />
    <glyph glyph-name="afii10061" unicode="&#x40c;" horiz-adv-x="716" 
d="M713 0h-250l-192 319h-2v-319h-200v712h200v-300h2l186 300h241l-247 -336zM252 760l80 156h208l-142 -156h-146z" />
    <glyph glyph-name="uni040D" unicode="&#x40d;" horiz-adv-x="827" 
d="M260 454q0 -162 -8 -291h2q45 133 102 276l111 273h290v-712h-191v258q0 136 8 291h-2q-44 -135 -102 -276l-110 -273h-291v712h191v-258zM502 760h-146l-142 156h208z" />
    <glyph glyph-name="afii10062" unicode="&#x40e;" horiz-adv-x="716" 
d="M346.5 24.5q-55.5 -34.5 -130.5 -34.5q-60 0 -96 10v162q23 -7 49 -7q33 0 51 13.5t18 40.5q0 17 -8 36t-46 96l-184 371h218l73 -178q34 -79 67 -173h2q33 95 66 174l72 177h218l-273 -568q-41 -85 -96.5 -119.5zM489 800q-47 -41 -131 -41t-131 41t-50 116h117
q3 -51 64 -51t64 51h117q-3 -75 -50 -116z" />
    <glyph glyph-name="afii10145" unicode="&#x40f;" horiz-adv-x="761" 
d="M474 0v-160h-192v160h-213v712h201v-544h221v544h201v-712h-218z" />
    <glyph glyph-name="afii10017" unicode="&#x410;" horiz-adv-x="731" 
d="M245 128l-36 -128h-211l239 712h257l239 -712h-211l-36 128h-241zM428 334q-31 109 -61 240h-2q-32 -137 -62 -240l-14 -49h153z" />
    <glyph glyph-name="afii10018" unicode="&#x411;" horiz-adv-x="686" 
d="M262 555v-111h125q125 0 195.5 -59.5t70.5 -162.5t-70.5 -162.5t-195.5 -59.5h-318v712h537v-157h-344zM262 145h83q52 0 76.5 18.5t24.5 58.5q0 39 -24.5 57.5t-76.5 18.5h-83v-153z" />
    <glyph glyph-name="afii10019" unicode="&#x412;" horiz-adv-x="677" 
d="M565 662.5q65 -49.5 65 -134.5q0 -61 -28.5 -100t-89.5 -60v-2q67 -15 101.5 -57.5t34.5 -108.5q0 -92 -71 -146t-196 -54h-312v712h302q129 0 194 -49.5zM262 430h77q50 0 73.5 16.5t23.5 51.5q0 34 -22 50.5t-69 16.5h-83v-135zM262 148h81q53 0 76 16.5t23 53.5
q0 38 -24.5 55t-78.5 17h-77v-142z" />
    <glyph glyph-name="afii10020" unicode="&#x413;" horiz-adv-x="530" 
d="M69 712h453v-168h-253v-544h-200v712z" />
    <glyph glyph-name="afii10021" unicode="&#x414;" horiz-adv-x="821" 
d="M812 -160h-192v160h-417v-160h-192v328h90q28 62 43 181t20 363h563v-544h85v-328zM351 545q-10 -245 -47 -377h223v377h-176z" />
    <glyph glyph-name="afii10022" unicode="&#x415;" horiz-adv-x="635" 
d="M269 547v-107h293v-161h-293v-114h321v-165h-521v712h515v-165h-315z" />
    <glyph glyph-name="afii10024" unicode="&#x416;" horiz-adv-x="988" 
d="M985 0h-235l-156 341h-2v-341h-196v341h-2l-155 -341h-236l213 371l-204 341h231l151 -315h2v315h196v-315h2l151 315h231l-203 -341z" />
    <glyph glyph-name="afii10025" unicode="&#x417;" horiz-adv-x="669" 
d="M549 673.5q80 -53.5 80 -150.5q0 -57 -29.5 -93.5t-95.5 -58.5v-2q70 -23 102.5 -64.5t32.5 -107.5q0 -102 -79.5 -157.5t-221.5 -55.5q-155 0 -239 64.5t-84 188.5h216q0 -48 27.5 -72t79.5 -24q41 0 66 18t25 49q0 36 -28.5 55t-82.5 19h-42v151h42q49 0 76.5 19.5
t27.5 52.5q0 31 -24 48.5t-66 17.5q-46 0 -71 -24t-25 -68h-210q0 77 37 133t106.5 85.5t163.5 29.5q136 0 216 -53.5z" />
    <glyph glyph-name="afii10026" unicode="&#x418;" horiz-adv-x="827" 
d="M260 454q0 -162 -8 -291h2q45 133 102 276l111 273h290v-712h-191v258q0 136 8 291h-2q-44 -135 -102 -276l-110 -273h-291v712h191v-258z" />
    <glyph glyph-name="afii10027" unicode="&#x419;" horiz-adv-x="827" 
d="M260 454q0 -162 -8 -291h2q45 133 102 276l111 273h290v-712h-191v258q0 136 8 291h-2q-44 -135 -102 -276l-110 -273h-291v712h191v-258zM526 800q-47 -41 -131 -41t-131 41t-50 116h117q3 -51 64 -51t64 51h117q-3 -75 -50 -116z" />
    <glyph glyph-name="afii10028" unicode="&#x41a;" horiz-adv-x="716" 
d="M713 0h-250l-192 319h-2v-319h-200v712h200v-300h2l186 300h241l-247 -336z" />
    <glyph glyph-name="afii10029" unicode="&#x41b;" horiz-adv-x="754" 
d="M485 0v545h-149q-10 -231 -39.5 -349.5t-81 -161t-141.5 -42.5q-34 0 -64 8v160q10 -2 18 -2q43 0 66 41t35.5 157.5t19.5 355.5h536v-712h-200z" />
    <glyph glyph-name="afii10030" unicode="&#x41c;" horiz-adv-x="1042" 
d="M787 0v341q0 131 6 261h-2q-30 -144 -60 -258l-89 -344h-242l-89 344q-30 114 -60 258h-2q6 -130 6 -261v-341h-186v712h318l79 -306q34 -126 54 -262h2q18 122 54 262l79 306h318v-712h-186z" />
    <glyph glyph-name="afii10031" unicode="&#x41d;" horiz-adv-x="771" 
d="M502 0v282h-233v-282h-200v712h200v-262h233v262h200v-712h-200z" />
    <glyph glyph-name="afii10032" unicode="&#x41e;" horiz-adv-x="767" 
d="M570 682.5q80 -45.5 123 -129.5t43 -197t-43 -197t-123 -129.5t-187 -45.5t-186.5 45.5t-122.5 129.5t-43 197t43 197t122.5 129.5t186.5 45.5t187 -45.5zM278 505.5q-37 -52.5 -37 -149.5t37 -149.5t105 -52.5q69 0 106 52.5t37 149.5t-37 149.5t-106 52.5
q-68 0 -105 -52.5z" />
    <glyph glyph-name="afii10033" unicode="&#x41f;" horiz-adv-x="761" 
d="M492 0v544h-223v-544h-200v712h623v-712h-200z" />
    <glyph glyph-name="afii10034" unicode="&#x420;" horiz-adv-x="673" 
d="M581.5 647.5q71.5 -64.5 71.5 -178.5t-71.5 -179t-211.5 -65h-101v-225h-200v712h301q140 0 211.5 -64.5zM269 382h73q105 0 105 87q0 86 -105 86h-73v-173z" />
    <glyph glyph-name="afii10035" unicode="&#x421;" horiz-adv-x="730" 
d="M538.5 694.5q71.5 -33.5 112.5 -97t45 -150.5h-210q-6 53 -35.5 82t-79.5 29q-60 0 -95.5 -54t-35.5 -148q0 -93 35.5 -147.5t95.5 -54.5q49 0 80 31t36 86h213q-11 -138 -98.5 -212.5t-230.5 -74.5q-105 0 -181.5 45t-117.5 128.5t-41 198.5t41 198.5t117.5 128.5
t181.5 45q96 0 167.5 -33.5z" />
    <glyph glyph-name="afii10036" unicode="&#x422;" horiz-adv-x="638" 
d="M419 544v-544h-200v544h-211v168h622v-168h-211z" />
    <glyph glyph-name="afii10037" unicode="&#x423;" horiz-adv-x="716" 
d="M346.5 24.5q-55.5 -34.5 -130.5 -34.5q-60 0 -96 10v162q23 -7 49 -7q33 0 51 13.5t18 40.5q0 17 -8 36t-46 96l-184 371h218l73 -178q34 -79 67 -173h2q33 95 66 174l72 177h218l-273 -568q-41 -85 -96.5 -119.5z" />
    <glyph glyph-name="afii10038" unicode="&#x424;" horiz-adv-x="898" 
d="M784.5 138q-82.5 -79 -239.5 -90v-74h-192v74q-157 11 -239.5 90t-82.5 218t82.5 218t239.5 90v74h192v-74q157 -11 239.5 -90t82.5 -218t-82.5 -218zM360 201v310q-126 -21 -126 -155q0 -135 126 -155zM664 356q0 134 -126 155v-310q126 20 126 155z" />
    <glyph glyph-name="afii10039" unicode="&#x425;" horiz-adv-x="709" 
d="M708 0h-235l-118 239h-2l-117 -239h-236l220 369l-205 343h230l108 -229h2l109 229h230l-205 -343z" />
    <glyph glyph-name="afii10040" unicode="&#x426;" horiz-adv-x="789" 
d="M777 168v-328h-192v160h-516v712h201v-544h221v544h201v-544h85z" />
    <glyph glyph-name="afii10041" unicode="&#x427;" horiz-adv-x="714" 
d="M445 0v247q-74 -19 -163 -19q-123 0 -188 59t-65 170v255h200v-217q0 -48 27.5 -73.5t80.5 -25.5q61 0 108 14v302h200v-712h-200z" />
    <glyph glyph-name="afii10042" unicode="&#x428;" horiz-adv-x="1059" 
d="M69 0v712h201v-544h159v544h201v-544h159v544h201v-712h-921z" />
    <glyph glyph-name="afii10043" unicode="&#x429;" horiz-adv-x="1084" 
d="M1075 168v-328h-192v160h-814v712h201v-544h159v544h201v-544h159v544h201v-544h85z" />
    <glyph glyph-name="afii10044" unicode="&#x42a;" horiz-adv-x="793" 
d="M490 487q140 0 211.5 -65t71.5 -179t-71.5 -178.5t-211.5 -64.5h-301v544h-181v168h381v-225h101zM389 157h73q105 0 105 86q0 87 -105 87h-73v-173z" />
    <glyph glyph-name="afii10045" unicode="&#x42b;" horiz-adv-x="1011" 
d="M69 712h200v-225h101q140 0 211.5 -65t71.5 -179t-71.5 -178.5t-211.5 -64.5h-301v712zM742 0v712h200v-712h-200zM447 243q0 87 -105 87h-73v-173h73q105 0 105 86z" />
    <glyph glyph-name="afii10046" unicode="&#x42c;" horiz-adv-x="673" 
d="M69 712h200v-225h101q140 0 211.5 -65t71.5 -179t-71.5 -178.5t-211.5 -64.5h-301v712zM447 243q0 87 -105 87h-73v-173h73q105 0 105 86z" />
    <glyph glyph-name="afii10047" unicode="&#x42d;" horiz-adv-x="744" 
d="M550 683q79 -45 121 -128.5t42 -198.5t-42 -198.5t-120.5 -128.5t-186.5 -45q-144 0 -233 73t-101 207h207q7 -55 40.5 -86t86.5 -31q52 0 87.5 35t49.5 97h-207v155h207q-14 62 -49.5 96.5t-87.5 34.5q-54 0 -86 -29t-40 -82h-204q4 85 45.5 147t114.5 94.5t170 32.5
q107 0 186 -45z" />
    <glyph glyph-name="afii10048" unicode="&#x42e;" horiz-adv-x="1073" 
d="M884 682.5q76 -45.5 117 -130t41 -198.5q0 -112 -41 -195.5t-117 -129t-178 -45.5q-134 0 -221.5 76.5t-109.5 211.5h-106v-272h-200v712h200v-272h106q22 135 109.5 211.5t221.5 76.5q102 0 178 -45.5zM801.5 206q33.5 52 33.5 148q0 98 -33.5 151t-95.5 53t-95.5 -52.5
t-33.5 -149.5t33.5 -149.5t95.5 -52.5t95.5 52z" />
    <glyph glyph-name="afii10049" unicode="&#x42f;" horiz-adv-x="697" 
d="M627 0h-199v239h-109l-109 -239h-212l140 278q-104 59 -104 203q0 113 69.5 172t207.5 59h316v-712zM335 562q-106 0 -106 -88q0 -90 101 -90h98v178h-93z" />
    <glyph glyph-name="afii10065" unicode="&#x430;" horiz-adv-x="576" 
d="M467 470q60 -54 60 -157v-165q0 -94 16 -148h-173q-8 29 -8 64h-2q-60 -78 -165 -78q-81 0 -129 45t-48 114t48 109t159 57q54 9 117 13v18q0 70 -60 70q-28 0 -43.5 -16.5t-16.5 -48.5h-183q5 77 65 127t180 50q123 0 183 -54zM264 217q-31 -7 -44.5 -21t-13.5 -38
t14.5 -38.5t41.5 -14.5q17 0 32.5 6t25.5 18q13 14 17.5 32t4.5 48v19q-49 -5 -78 -11z" />
    <glyph glyph-name="afii10066" unicode="&#x431;" horiz-adv-x="613" 
d="M392 559q-82 -2 -127.5 -18.5t-66 -47.5t-26.5 -84h2q45 80 171 80q110 0 175.5 -63.5t65.5 -172.5q0 -82 -34 -142.5t-97.5 -93.5t-147.5 -33q-136 0 -207.5 77.5t-71.5 227.5q0 154 35.5 242.5t106 127.5t184.5 46q132 7 201 23v-151q-54 -14 -163 -18zM246.5 330
q-19.5 -31 -19.5 -88q0 -58 20 -89.5t58 -31.5t58 31t20 88q0 58 -20 89.5t-58 31.5q-39 0 -58.5 -31z" />
    <glyph glyph-name="afii10067" unicode="&#x432;" horiz-adv-x="588" 
d="M491.5 474q52.5 -34 52.5 -104q0 -43 -23 -68.5t-73 -39.5v-2q52 -9 82 -40t30 -77q0 -69 -57.5 -106t-163.5 -37h-285v508h279q106 0 158.5 -34zM236 307h57q66 0 66 45q0 46 -66 46h-57v-91zM236 110h55q77 0 77 49q0 48 -77 48h-55v-97z" />
    <glyph glyph-name="afii10068" unicode="&#x433;" horiz-adv-x="462" 
d="M246 371v-371h-192v508h401v-137h-209z" />
    <glyph glyph-name="afii10069" unicode="&#x434;" horiz-adv-x="697" 
d="M689 -160h-189v160h-303v-160h-189v297h58q26 43 41 122t24 249h491v-371h67v-297zM309 371q-10 -148 -34 -234h158v234h-124z" />
    <glyph glyph-name="afii10070" unicode="&#x435;" horiz-adv-x="594" 
d="M344.5 121.5q18.5 13.5 21.5 35.5h196q-11 -49 -47 -88.5t-92 -62t-124 -22.5q-87 0 -148.5 35.5t-93.5 97.5t-32 140q0 76 32 136.5t93.5 95.5t145.5 35q92 0 156.5 -41t94.5 -116q12 -30 17 -65t5 -87h-355q3 -59 24.5 -83t58.5 -24q29 0 47.5 13.5zM215 316h161
q-4 46 -25 67t-55 21q-68 0 -81 -88z" />
    <glyph glyph-name="afii10072" unicode="&#x436;" horiz-adv-x="829" 
d="M617 0l-108 244h-2v-244h-185v244h-2l-107 -244h-224l167 268l-151 240h215l100 -216h2v216h185v-216h2l100 216h215l-151 -240l167 -268h-223z" />
    <glyph glyph-name="afii10073" unicode="&#x437;" horiz-adv-x="549" 
d="M445 485q64 -39 64 -111q0 -41 -20 -66t-65 -41v-2q50 -17 73.5 -46.5t23.5 -76.5q0 -77 -63 -117.5t-182 -40.5q-122 0 -189 48.5t-67 142.5h180q0 -62 75 -62q30 0 48 11.5t18 32.5q0 45 -72 45h-50v109h50q31 0 47.5 11.5t16.5 31.5t-16 31t-45 11q-35 0 -53 -16
t-18 -45h-171q0 88 66.5 138.5t178.5 50.5q106 0 170 -39z" />
    <glyph glyph-name="afii10074" unicode="&#x438;" horiz-adv-x="704" 
d="M467 0v172q0 86 12 201h-2q-27 -94 -65 -186l-83 -187h-275v508h182v-171q0 -101 -12 -202h2q26 94 65 186l82 187h277v-508h-183z" />
    <glyph glyph-name="afii10075" unicode="&#x439;" horiz-adv-x="704" 
d="M467 0v172q0 86 12 201h-2q-27 -94 -65 -186l-83 -187h-275v508h182v-171q0 -101 -12 -202h2q26 94 65 186l82 187h277v-508h-183zM484 596q-47 -41 -131 -41t-131 41t-50 116h117q3 -51 64 -51t64 51h117q-3 -75 -50 -116z" />
    <glyph glyph-name="afii10076" unicode="&#x43a;" horiz-adv-x="595" 
d="M364 0l-116 222h-2v-222h-192v508h192v-194h2l107 194h227l-170 -240l187 -268h-235z" />
    <glyph glyph-name="afii10077" unicode="&#x43b;" horiz-adv-x="615" 
d="M369 0v371h-91q-5 -156 -29 -238t-66.5 -111.5t-113.5 -29.5q-35 0 -62 8v134q10 -2 19 -2q32 0 50 28t27.5 108t12.5 240h445v-508h-192z" />
    <glyph glyph-name="afii10078" unicode="&#x43c;" horiz-adv-x="861" 
d="M639 0v219q0 80 5 178h-2q-14 -69 -41 -176l-57 -221h-227l-57 221q-14 53 -41 176h-2q5 -98 5 -178v-219h-168v508h287l53 -205q26 -93 35 -186h2q13 98 36 186l53 205h287v-508h-168z" />
    <glyph glyph-name="afii10079" unicode="&#x43d;" horiz-adv-x="630" 
d="M384 0v189h-138v-189h-192v508h192v-181h138v181h192v-508h-192z" />
    <glyph glyph-name="afii10080" unicode="&#x43e;" horiz-adv-x="618" 
d="M459 491q64 -33 99 -94t35 -143t-35 -143t-99 -94t-150 -33t-150 33t-99 94t-35 143t35 143t99 94t150 33t150 -33zM248.5 347.5q-21.5 -33.5 -21.5 -93.5t21.5 -93.5t60.5 -33.5t60.5 33.5t21.5 93.5t-21.5 93.5t-60.5 33.5t-60.5 -33.5z" />
    <glyph glyph-name="afii10081" unicode="&#x43f;" horiz-adv-x="625" 
d="M379 0v371h-133v-371h-192v508h517v-508h-192z" />
    <glyph glyph-name="afii10082" unicode="&#x440;" horiz-adv-x="622" 
d="M492 490q50 -33 77.5 -94t27.5 -142t-26.5 -142t-75.5 -94t-114 -33q-40 0 -75.5 16t-57.5 47h-2v-233h-192v693h184v-58h2q23 36 58.5 54.5t77.5 18.5q66 0 116 -33zM257.5 344.5q-21.5 -33.5 -21.5 -90.5t21.5 -90.5t57.5 -33.5q37 0 59 33.5t22 90.5t-22 90.5
t-59 33.5q-36 0 -57.5 -33.5z" />
    <glyph glyph-name="afii10083" unicode="&#x441;" horiz-adv-x="589" 
d="M485.5 465.5q72.5 -58.5 82.5 -157.5h-199q-3 35 -20.5 54t-45.5 19q-36 0 -56 -32.5t-20 -92.5q0 -63 20 -96t56 -33q29 0 47 21.5t19 60.5h199q-8 -105 -80.5 -165t-187.5 -60q-83 0 -145 33t-96 94.5t-34 144.5q0 81 33.5 141.5t96 93.5t145.5 33q113 0 185.5 -58.5z
" />
    <glyph glyph-name="afii10084" unicode="&#x442;" horiz-adv-x="500" 
d="M346 371v-371h-192v371h-151v137h494v-137h-151z" />
    <glyph glyph-name="afii10085" unicode="&#x443;" horiz-adv-x="557" 
d="M351.5 -106q-31.5 -46 -76 -66t-111.5 -20q-60 0 -100 10v138q23 -6 47 -6q30 0 46.5 12.5t16.5 37.5q0 11 -5 28t-27 76l-154 404h208l45 -169q27 -104 47 -211h2q15 96 41 212l39 168h196l-157 -486q-26 -82 -57.5 -128z" />
    <glyph glyph-name="afii10086" unicode="&#x444;" horiz-adv-x="863" 
d="M627 523q64 0 111.5 -33t73.5 -94t26 -142t-26 -142t-74 -94t-112 -33q-58 0 -101 38v-208h-187v208q-43 -38 -101 -38q-64 0 -112 33t-74 94t-26 142t26 142t73.5 94t111.5 33q59 0 102 -38v227h187v-227q43 38 102 38zM241.5 347q-20.5 -34 -20.5 -93t20.5 -93
t57.5 -34q24 0 39 16v222q-15 16 -39 16q-37 0 -57.5 -34zM525 365v-222q15 -16 39 -16q36 0 57 34t21 93t-21 93t-57 34q-24 0 -39 -16z" />
    <glyph glyph-name="afii10087" unicode="&#x445;" horiz-adv-x="561" 
d="M567 0h-215l-70 155h-2l-70 -155h-216l165 261l-154 247h216l59 -140h2l59 140h215l-154 -247z" />
    <glyph glyph-name="afii10088" unicode="&#x446;" horiz-adv-x="642" 
d="M634 137v-297h-192v160h-388v508h192v-371h129v371h192v-371h67z" />
    <glyph glyph-name="afii10089" unicode="&#x447;" horiz-adv-x="587" 
d="M341 0v169q-62 -16 -134 -16q-89 0 -136.5 42t-47.5 119v194h192v-157q0 -60 64 -60q33 0 62 9v208h192v-508h-192z" />
    <glyph glyph-name="afii10090" unicode="&#x448;" horiz-adv-x="902" 
d="M54 0v508h192v-371h109v371h192v-371h109v371h192v-508h-794z" />
    <glyph glyph-name="afii10091" unicode="&#x449;" horiz-adv-x="923" 
d="M915 137v-297h-192v160h-669v508h192v-371h109v371h192v-371h109v371h192v-371h67z" />
    <glyph glyph-name="afii10092" unicode="&#x44a;" horiz-adv-x="674" 
d="M415 363q113 0 173.5 -45t60.5 -137t-60.5 -136.5t-173.5 -44.5h-285v371h-127v137h319v-145h93zM322 126h69q64 0 64 55q0 56 -64 56h-69v-111z" />
    <glyph glyph-name="afii10093" unicode="&#x44b;" horiz-adv-x="875" 
d="M339 363q113 0 173.5 -45t60.5 -137t-60.5 -136.5t-173.5 -44.5h-285v508h192v-145h93zM246 126h69q64 0 64 55q0 56 -64 56h-69v-111zM629 0v508h192v-508h-192z" />
    <glyph glyph-name="afii10094" unicode="&#x44c;" horiz-adv-x="597" 
d="M339 363q113 0 173.5 -45t60.5 -137t-60.5 -136.5t-173.5 -44.5h-285v508h192v-145h93zM246 126h69q64 0 64 55q0 56 -64 56h-69v-111z" />
    <glyph glyph-name="afii10095" unicode="&#x44d;" horiz-adv-x="589" 
d="M434.5 491q62.5 -33 96 -93.5t33.5 -141.5q0 -83 -34 -144.5t-96.5 -94.5t-145.5 -33q-115 0 -187 57t-80 155h182q1 -38 24 -60t58 -22t58.5 23.5t31.5 68.5h-144v106h143q-9 41 -31.5 63t-56.5 22t-56.5 -19.5t-27.5 -56.5h-181q9 93 82 148t186 55q83 0 145.5 -33z
" />
    <glyph glyph-name="afii10096" unicode="&#x44e;" horiz-adv-x="887" 
d="M731 491q63 -33 97 -94t34 -143t-34 -143t-97 -94t-147 -33q-109 0 -181 54t-91 149h-66v-187h-192v508h192v-183h66q21 93 92.5 146t179.5 53q84 0 147 -33zM642.5 160.5q20.5 33.5 20.5 93.5t-20.5 93.5t-58.5 33.5t-58.5 -33.5t-20.5 -93.5t20.5 -93.5t58.5 -33.5
t58.5 33.5z" />
    <glyph glyph-name="afii10097" unicode="&#x44f;" horiz-adv-x="602" 
d="M548 0h-191v149h-77l-73 -149h-207l106 185q-77 45 -77 150q0 173 234 173h285v-508zM298 381q-80 0 -80 -54q0 -27 18.5 -41t59.5 -14h61v109h-59z" />
    <glyph glyph-name="uni0450" unicode="&#x450;" horiz-adv-x="594" 
d="M344.5 121.5q18.5 13.5 21.5 35.5h196q-11 -49 -47 -88.5t-92 -62t-124 -22.5q-87 0 -148.5 35.5t-93.5 97.5t-32 140q0 76 32 136.5t93.5 95.5t145.5 35q92 0 156.5 -41t94.5 -116q12 -30 17 -65t5 -87h-355q3 -59 24.5 -83t58.5 -24q29 0 47.5 13.5zM215 316h161
q-4 46 -25 67t-55 21q-68 0 -81 -88zM403 562h-146l-142 150h208z" />
    <glyph glyph-name="afii10071" unicode="&#x451;" horiz-adv-x="594" 
d="M344.5 121.5q18.5 13.5 21.5 35.5h196q-11 -49 -47 -88.5t-92 -62t-124 -22.5q-87 0 -148.5 35.5t-93.5 97.5t-32 140q0 76 32 136.5t93.5 95.5t145.5 35q92 0 156.5 -41t94.5 -116q12 -30 17 -65t5 -87h-355q3 -59 24.5 -83t58.5 -24q29 0 47.5 13.5zM215 316h161
q-4 46 -25 67t-55 21q-68 0 -81 -88zM97 571v141h162v-141h-162zM333 571v141h163v-141h-163z" />
    <glyph glyph-name="afii10099" unicode="&#x452;" horiz-adv-x="620" 
d="M521 412q50 -54 50 -155v-243q0 -103 -54.5 -154t-145.5 -51q-53 0 -92 11v132q11 -3 25 -3q39 0 57 21t18 77v186q0 41 -15.5 63t-46.5 22q-71 0 -71 -119v-199h-192v530h-69v109h69v73h192v-73h217v-109h-217v-124h2q50 60 135 60q88 0 138 -54z" />
    <glyph glyph-name="afii10100" unicode="&#x453;" horiz-adv-x="462" 
d="M246 371v-371h-192v508h401v-137h-209zM148 562l80 150h208l-142 -150h-146z" />
    <glyph glyph-name="afii10101" unicode="&#x454;" horiz-adv-x="589" 
d="M362 136q23 22 24 60h182q-8 -98 -80.5 -155t-187.5 -57q-83 0 -145 33t-96 94.5t-34 144.5q0 81 33.5 141.5t96 93.5t145.5 33q113 0 185.5 -55t82.5 -148h-182q-4 37 -26.5 56.5t-56.5 19.5t-56.5 -22t-31.5 -63h143v-106h-144q7 -45 30.5 -68.5t58.5 -23.5q36 0 59 22
z" />
    <glyph glyph-name="afii10102" unicode="&#x455;" horiz-adv-x="559" 
d="M452 482q62 -42 62 -126h-182q0 56 -57 56q-47 0 -47 -34q0 -13 8 -20.5t28 -15t63 -18.5q64 -17 106 -34.5t70.5 -51.5t28.5 -88q0 -76 -65 -121t-182 -45q-259 0 -259 181h192q0 -32 16.5 -47.5t51.5 -15.5q27 0 40.5 9t13.5 26q0 15 -10.5 24.5t-33.5 17t-73 20.5
q-58 15 -95.5 31t-63 48t-25.5 85q0 73 60.5 117t178.5 44q112 0 174 -42z" />
    <glyph glyph-name="afii10103" unicode="&#x456;" horiz-adv-x="300" 
d="M54 571v141h192v-141h-192zM54 0v508h192v-508h-192z" />
    <glyph glyph-name="afii10104" unicode="&#x457;" horiz-adv-x="300" 
d="M54 0v508h192v-508h-192zM-15 571v141h142v-141h-142zM173 571v141h143v-141h-143z" />
    <glyph glyph-name="afii10105" unicode="&#x458;" horiz-adv-x="300" 
d="M54 571v141h192v-141h-192zM191.5 -140q-54.5 -51 -145.5 -51q-53 0 -92 11v132q11 -3 25 -3q39 0 57 21t18 77v461h192v-494q0 -103 -54.5 -154z" />
    <glyph glyph-name="afii10106" unicode="&#x459;" horiz-adv-x="912" 
d="M653 363q113 0 174 -45t61 -137t-61 -136.5t-174 -44.5h-284v371h-91q-5 -156 -29 -238t-66.5 -111.5t-113.5 -29.5q-35 0 -62 8v134q10 -2 19 -2q32 0 50 28t27.5 108t12.5 240h445v-145h92zM561 126h69q64 0 64 55q0 56 -64 56h-69v-111z" />
    <glyph glyph-name="afii10107" unicode="&#x45a;" horiz-adv-x="924" 
d="M666 363q113 0 173.5 -45t60.5 -137t-60.5 -136.5t-173.5 -44.5h-285v189h-135v-189h-192v508h192v-181h135v181h192v-145h93zM573 126h69q64 0 64 55q0 56 -64 56h-69v-111z" />
    <glyph glyph-name="afii10108" unicode="&#x45b;" horiz-adv-x="620" 
d="M521 412q50 -54 50 -155v-257h-192v233q0 41 -15.5 63t-46.5 22q-71 0 -71 -119v-199h-192v530h-69v109h69v73h192v-73h217v-109h-217v-124h2q50 60 135 60q88 0 138 -54z" />
    <glyph glyph-name="afii10109" unicode="&#x45c;" horiz-adv-x="595" 
d="M364 0l-116 222h-2v-222h-192v508h192v-194h2l107 194h227l-170 -240l187 -268h-235zM195 562l80 150h208l-142 -150h-146z" />
    <glyph glyph-name="uni045D" unicode="&#x45d;" horiz-adv-x="704" 
d="M467 0v172q0 86 12 201h-2q-27 -94 -65 -186l-83 -187h-275v508h182v-171q0 -101 -12 -202h2q26 94 65 186l82 187h277v-508h-183zM459 562h-146l-142 150h208z" />
    <glyph glyph-name="afii10110" unicode="&#x45e;" horiz-adv-x="557" 
d="M351.5 -106q-31.5 -46 -76 -66t-111.5 -20q-60 0 -100 10v138q23 -6 47 -6q30 0 46.5 12.5t16.5 37.5q0 11 -5 28t-27 76l-154 404h208l45 -169q27 -104 47 -211h2q15 96 41 212l39 168h196l-157 -486q-26 -82 -57.5 -128zM413 596q-47 -41 -131 -41t-131 41t-50 116h117
q3 -51 64 -51t64 51h117q-3 -75 -50 -116z" />
    <glyph glyph-name="afii10193" unicode="&#x45f;" horiz-adv-x="625" 
d="M407 0v-160h-192v160h-161v508h192v-371h133v371h192v-508h-164z" />
    <glyph glyph-name="afii10050" unicode="&#x490;" horiz-adv-x="530" 
d="M269 544v-544h-200v712h261v129h192v-297h-253z" />
    <glyph glyph-name="afii10098" unicode="&#x491;" horiz-adv-x="462" 
d="M246 371v-371h-192v508h226v160h175v-297h-209z" />
    <glyph glyph-name="uni0492" unicode="&#x492;" horiz-adv-x="533" 
d="M272 369h123v-122h-123v-247h-199v247h-60v122h60v343h452v-168h-253v-175z" />
    <glyph glyph-name="uni0493" unicode="&#x493;" horiz-adv-x="471" 
d="M254 269h120v-106h-120v-163h-192v163h-51v106h51v239h401v-137h-209v-102z" />
    <glyph glyph-name="uni0496" unicode="&#x496;" horiz-adv-x="988" 
d="M985 -160h-192v160h-43l-156 341h-2v-341h-196v341h-2l-155 -341h-236l213 371l-204 341h231l151 -315h2v315h196v-315h2l151 315h231l-203 -341l116 -203h96v-328z" />
    <glyph glyph-name="uni0497" unicode="&#x497;" horiz-adv-x="829" 
d="M840 -160h-192v160h-31l-108 244h-2v-244h-185v244h-2l-107 -244h-224l167 268l-151 240h215l100 -216h2v216h185v-216h2l100 216h215l-151 -240l82 -131h85v-297z" />
    <glyph glyph-name="uni049A" unicode="&#x49a;" horiz-adv-x="716" 
d="M713 -160h-192v160h-58l-192 319h-2v-319h-200v712h200v-300h2l186 300h241l-247 -336l145 -208h117v-328z" />
    <glyph glyph-name="uni049B" unicode="&#x49b;" horiz-adv-x="595" 
d="M599 -160h-192v160h-43l-116 222h-2v-222h-192v508h192v-194h2l107 194h227l-170 -240l91 -131h96v-297z" />
    <glyph glyph-name="uni049C" unicode="&#x49c;" horiz-adv-x="782" 
d="M413 282v-145h-103v145h-45v-282h-196v712h196v-262h45v146h103v-146h2l125 262h230l-201 -339l210 -373h-235l-128 282h-3z" />
    <glyph glyph-name="uni049D" unicode="&#x49d;" horiz-adv-x="669" 
d="M359 200v-103h-87v103h-33v-200h-185v508h185v-171h33v109h87v-109h10l79 171h215l-151 -240l167 -268h-224l-88 200h-8z" />
    <glyph glyph-name="uni04A2" unicode="&#x4a2;" horiz-adv-x="799" 
d="M595 -160v160h-93v282h-233v-282h-200v712h200v-262h233v262h200v-544h85v-328h-192z" />
    <glyph glyph-name="uni04A3" unicode="&#x4a3;" horiz-adv-x="651" 
d="M451 -160v160h-67v189h-138v-189h-192v508h192v-181h138v181h192v-371h67v-297h-192z" />
    <glyph glyph-name="uni04AE" unicode="&#x4ae;" horiz-adv-x="689" 
d="M444 0h-200v260l-244 452h220l56 -125q42 -94 67 -176h2q27 85 68 176l56 125h219l-244 -452v-260z" />
    <glyph glyph-name="uni04AF" unicode="&#x4af;" horiz-adv-x="555" 
d="M374 -18v-167h-192v167l-191 526h207l39 -150q24 -89 40 -190h2q18 110 39 190l40 150h206z" />
    <glyph glyph-name="uni04B2" unicode="&#x4b2;" horiz-adv-x="709" 
d="M708 -160h-192v160h-43l-118 239h-2l-117 -239h-236l220 369l-205 343h230l108 -229h2l109 229h230l-205 -343l119 -201h100v-328z" />
    <glyph glyph-name="uni04B3" unicode="&#x4b3;" horiz-adv-x="561" 
d="M567 -160h-192v160h-23l-70 155h-2l-70 -155h-216l165 261l-154 247h216l59 -140h2l59 140h215l-154 -247l78 -124h87v-297z" />
    <glyph glyph-name="uni04B8" unicode="&#x4b8;" horiz-adv-x="714" 
d="M645 0h-200v247q-28 -7 -55 -11v-123h-106v115h-2q-123 0 -188 59t-65 170v255h200v-217q0 -69 55 -90v165h106v-171q38 6 55 11v302h200v-712z" />
    <glyph glyph-name="uni04B9" unicode="&#x4b9;" horiz-adv-x="607" 
d="M553 0h-185v173l-36 -9v-85h-87v75l-25 -1q-94 0 -145.5 45.5t-51.5 128.5v181h185v-144q0 -28 8.5 -44.5t28.5 -23.5v125h87v-126q19 3 36 9v204h185v-508z" />
    <glyph glyph-name="uni04BA" unicode="&#x4ba;" horiz-adv-x="714" 
d="M269 712v-247q74 19 163 19q123 0 188 -59t65 -170v-255h-199v217q0 48 -28 73.5t-81 25.5q-60 0 -108 -14v-302h-200v712h200z" />
    <glyph glyph-name="uni04BB" unicode="&#x4bb;" 
d="M248 462q23 29 57 44.5t76 15.5q87 0 136.5 -54t49.5 -155v-313h-192v289q0 85 -60 85q-69 0 -69 -119v-255h-192v712h192v-250h2z" />
    <glyph glyph-name="uni04C0" unicode="&#x4c0;" horiz-adv-x="338" 
d="M69 0v712h200v-712h-200z" />
    <glyph glyph-name="uni04CF" unicode="&#x4cf;" horiz-adv-x="300" 
d="M54 0v712h192v-712h-192z" />
    <glyph glyph-name="uni04D8" unicode="&#x4d8;" horiz-adv-x="787" 
d="M585.5 681.5q83.5 -46.5 127 -130.5t43.5 -193q0 -106 -44 -191t-126.5 -134t-194.5 -49q-110 0 -191 45t-125 128.5t-44 196.5q0 40 4 59h512q-6 85 -49.5 123t-110.5 38q-51 0 -83.5 -23.5t-39.5 -60.5h-215q15 66 60 120.5t116 86t161 31.5q116 0 199.5 -46.5z
M492 171.5q40 34.5 52 105.5h-303q9 -70 49.5 -105t100.5 -35q61 0 101 34.5z" />
    <glyph glyph-name="afii10846" unicode="&#x4d9;" horiz-adv-x="594" 
d="M443 489.5q62 -34.5 94 -95.5t32 -138t-32 -139t-93.5 -97.5t-146.5 -35.5q-83 0 -144.5 33t-94.5 93.5t-33 141.5q0 26 3 43h353q-3 58 -25.5 81.5t-59.5 23.5q-26 0 -42.5 -13.5t-19.5 -34.5h-196q11 49 46 88t89.5 61.5t120.5 22.5q87 0 149 -34.5zM380 194h-162
q4 -46 25.5 -68t53.5 -22q70 0 83 90z" />
    <glyph glyph-name="uni04E8" unicode="&#x4e8;" horiz-adv-x="767" 
d="M570 682.5q80 -45.5 123 -129.5t43 -197t-43 -197t-123 -129.5t-187 -45.5t-186.5 45.5t-122.5 129.5t-43 197t43 197t122.5 129.5t186.5 45.5t187 -45.5zM285 531q-38 -37 -50 -107h298q-12 70 -50.5 107t-99.5 37q-60 0 -98 -37zM482.5 181.5q38.5 37.5 49.5 107.5
h-298q12 -70 50.5 -107.5t98.5 -37.5q61 0 99.5 37.5z" />
    <glyph glyph-name="uni04E9" unicode="&#x4e9;" horiz-adv-x="618" 
d="M459 491q64 -33 99 -94t35 -143t-35 -143t-99 -94t-150 -33t-150 33t-99 94t-35 143t35 143t99 94t150 33t150 -33zM244.5 371.5q-25.5 -25.5 -33.5 -71.5h196q-8 46 -33.5 71.5t-64.5 25.5t-64.5 -25.5zM373.5 136.5q25.5 25.5 33.5 71.5h-196q8 -46 33.5 -71.5
t64.5 -25.5t64.5 25.5z" />
    <glyph glyph-name="Wgrave" unicode="&#x1e80;" horiz-adv-x="1025" 
d="M610 0l-54 287q-29 164 -42 269h-2q-14 -117 -43 -269l-54 -287h-270l-139 712h194l43 -254q23 -133 42 -288h2q18 141 47 288l50 254h257l50 -254q28 -139 48 -288h2q17 144 41 288l44 254h193l-139 -712h-270zM618 760h-146l-142 156h208z" />
    <glyph glyph-name="wgrave" unicode="&#x1e81;" horiz-adv-x="886" 
d="M514 0l-36 181q-19 95 -34 211h-2q-15 -116 -34 -211l-36 -181h-254l-114 508h185l27 -177q17 -113 26 -211h2q13 90 39 213l39 175h242l39 -175q26 -123 39 -213h2q9 98 26 211l27 177h185l-114 -508h-254zM549 562h-146l-142 150h208z" />
    <glyph glyph-name="Wacute" unicode="&#x1e82;" horiz-adv-x="1025" 
d="M610 0l-54 287q-29 164 -42 269h-2q-14 -117 -43 -269l-54 -287h-270l-139 712h194l43 -254q23 -133 42 -288h2q18 141 47 288l50 254h257l50 -254q28 -139 48 -288h2q17 144 41 288l44 254h193l-139 -712h-270zM406 760l80 156h208l-142 -156h-146z" />
    <glyph glyph-name="wacute" unicode="&#x1e83;" horiz-adv-x="886" 
d="M514 0l-36 181q-19 95 -34 211h-2q-15 -116 -34 -211l-36 -181h-254l-114 508h185l27 -177q17 -113 26 -211h2q13 90 39 213l39 175h242l39 -175q26 -123 39 -213h2q9 98 26 211l27 177h185l-114 -508h-254zM337 562l80 150h208l-142 -150h-146z" />
    <glyph glyph-name="Wdieresis" unicode="&#x1e84;" horiz-adv-x="1025" 
d="M610 0l-54 287q-29 164 -42 269h-2q-14 -117 -43 -269l-54 -287h-270l-139 712h194l43 -254q23 -133 42 -288h2q18 141 47 288l50 254h257l50 -254q28 -139 48 -288h2q17 144 41 288l44 254h193l-139 -712h-270zM313 769v141h162v-141h-162zM549 769v141h163v-141h-163z
" />
    <glyph glyph-name="wdieresis" unicode="&#x1e85;" horiz-adv-x="886" 
d="M514 0l-36 181q-19 95 -34 211h-2q-15 -116 -34 -211l-36 -181h-254l-114 508h185l27 -177q17 -113 26 -211h2q13 90 39 213l39 175h242l39 -175q26 -123 39 -213h2q9 98 26 211l27 177h185l-114 -508h-254zM244 571v141h162v-141h-162zM480 571v141h163v-141h-163z" />
    <glyph glyph-name="uni1E9E" unicode="&#x1e9e;" horiz-adv-x="827" 
d="M800 197q0 -102 -70.5 -157.5t-191.5 -55.5q-118 0 -180 55t-62 166h171q0 -70 66 -70q31 0 48 16.5t17 47.5q0 51 -46.5 77.5t-138.5 32.5v132l96 107q-35 23 -90 23q-78 0 -119 -43.5t-41 -128.5v-399h-200v396q0 163 96 247.5t278 84.5q100 0 184 -39t137 -105
l-142 -160q188 -58 188 -227z" />
    <glyph glyph-name="Ygrave" unicode="&#x1ef2;" horiz-adv-x="689" 
d="M444 0h-200v260l-244 452h220l56 -125q42 -94 67 -176h2q27 85 68 176l56 125h219l-244 -452v-260zM451 760h-146l-142 156h208z" />
    <glyph glyph-name="ygrave" unicode="&#x1ef3;" horiz-adv-x="557" 
d="M351.5 -106q-31.5 -46 -76 -66t-111.5 -20q-60 0 -100 10v138q23 -6 47 -6q30 0 46.5 12.5t16.5 37.5q0 11 -5 28t-27 76l-154 404h208l45 -169q27 -104 47 -211h2q15 96 41 212l39 168h196l-157 -486q-26 -82 -57.5 -128zM388 562h-146l-142 150h208z" />
    <glyph glyph-name="uni2010" unicode="&#x2010;" horiz-adv-x="353" 
d="M30 225v134h293v-134h-293z" />
    <glyph glyph-name="endash" unicode="&#x2013;" horiz-adv-x="500" 
d="M20 225v134h460v-134h-460z" />
    <glyph glyph-name="emdash" unicode="&#x2014;" horiz-adv-x="1000" 
d="M20 225v134h960v-134h-960z" />
    <glyph glyph-name="afii00208" unicode="&#x2015;" horiz-adv-x="1000" 
d="M20 225v134h960v-134h-960z" />
    <glyph glyph-name="underscoredbl" unicode="&#x2017;" horiz-adv-x="500" 
d="M0 -147v97h500v-97h-500zM0 -315v97h500v-97h-500z" />
    <glyph glyph-name="quoteleft" unicode="&#x2018;" horiz-adv-x="277" 
d="M146 712h96l-72 -157h55v-170h-170v170z" />
    <glyph glyph-name="quoteright" unicode="&#x2019;" horiz-adv-x="277" 
d="M131 385h-96l72 156h-55v171h170v-171z" />
    <glyph glyph-name="quotesinglbase" unicode="&#x201a;" horiz-adv-x="277" 
d="M131 -156h-96l72 156h-55v171h170v-171z" />
    <glyph glyph-name="quotereversed" unicode="&#x201b;" horiz-adv-x="277" 
d="M225 541h-55l72 -156h-96l-91 156v171h170v-171z" />
    <glyph glyph-name="quotedblleft" unicode="&#x201c;" horiz-adv-x="495" 
d="M146 712h96l-72 -157h55v-170h-170v170zM364 712h96l-72 -157h55v-170h-170v170z" />
    <glyph glyph-name="quotedblright" unicode="&#x201d;" horiz-adv-x="495" 
d="M131 385h-96l72 156h-55v171h170v-171zM349 385h-96l72 156h-55v171h170v-171z" />
    <glyph glyph-name="quotedblbase" unicode="&#x201e;" horiz-adv-x="495" 
d="M131 -156h-96l72 156h-55v171h170v-171zM349 -156h-96l72 156h-55v171h170v-171z" />
    <glyph glyph-name="dagger" unicode="&#x2020;" horiz-adv-x="648" 
d="M588 557v-166h-167v-511h-194v511h-167v165h167v156h194v-155h167z" />
    <glyph glyph-name="daggerdbl" unicode="&#x2021;" horiz-adv-x="648" 
d="M588 557v-160h-167v-202h167v-160h-167v-155h-194v155h-167v160h167v202h-167v160h167v155h194v-155h167z" />
    <glyph glyph-name="bullet" unicode="&#x2022;" horiz-adv-x="419" 
d="M124.5 209.5q-38.5 22.5 -61.5 61.5t-23 85t23 85t61.5 61.5t84.5 22.5t85 -22.5t62 -61.5t23 -85t-23 -85t-62 -61.5t-85 -22.5t-84.5 22.5z" />
    <glyph glyph-name="ellipsis" unicode="&#x2026;" horiz-adv-x="989" 
d="M45 0v200h200v-200h-200zM394 0v200h200v-200h-200zM744 0v200h200v-200h-200z" />
    <glyph glyph-name="perthousand" unicode="&#x2030;" horiz-adv-x="1143" 
d="M142 -30l384 734h119l-384 -734h-119zM308.5 648q41.5 -47 41.5 -136q0 -88 -41.5 -135.5t-118.5 -47.5t-118.5 47.5t-41.5 135.5q0 89 41.5 136t118.5 47t118.5 -47zM149 512q0 -90 41 -90t41 90t-41 90t-41 -90zM719.5 296q41.5 -47 41.5 -136q0 -88 -41.5 -135.5
t-118.5 -47.5t-118.5 47.5t-41.5 135.5q0 89 41.5 136t118.5 47t118.5 -47zM1071.5 296q41.5 -47 41.5 -136q0 -88 -41.5 -135.5t-118.5 -47.5t-118.5 47.5t-41.5 135.5q0 89 41.5 136t118.5 47t118.5 -47zM570 228q-10 -22 -10 -68q0 -90 41 -90q40 0 40 90t-40 90
q-21 0 -31 -22zM912 160q0 -90 41 -90t41 90t-41 90t-41 -90z" />
    <glyph glyph-name="minute" unicode="&#x2032;" horiz-adv-x="260" 
d="M30 425l31 249h169l-79 -249h-121z" />
    <glyph glyph-name="second" unicode="&#x2033;" horiz-adv-x="461" 
d="M238 425l31 249h169l-79 -249h-121zM30 425l31 249h169l-79 -249h-121z" />
    <glyph glyph-name="guilsinglleft" unicode="&#x2039;" horiz-adv-x="359" 
d="M318 54h-163l-114 200l114 200h163l-104 -200z" />
    <glyph glyph-name="guilsinglright" unicode="&#x203a;" horiz-adv-x="359" 
d="M318 255l-114 -200h-163l104 200l-104 200h163z" />
    <glyph glyph-name="exclamdbl" unicode="&#x203c;" horiz-adv-x="651" 
d="M387 223l-30 489h220l-30 -489h-160zM367 0v161h200v-161h-200zM104 223l-30 489h220l-30 -489h-160zM84 0v161h200v-161h-200z" />
    <glyph glyph-name="uni203D" unicode="&#x203d;" horiz-adv-x="592" 
d="M517 581q42 -48 42 -119q0 -54 -22 -90t-82 -73q-51 -30 -67.5 -47t-16.5 -41h-162q-1 7 -1 24q0 30 6.5 50.5t24.5 40t54 46.5q40 30 52 47.5t12 42.5q0 26 -16 41.5t-44 15.5q-37 0 -55.5 -21t-19.5 -66h-197q1 85 43 139t120 75l-4 66h218l-4 -64q77 -19 119 -67z
M390 161v-161h-200v161h200z" />
    <glyph glyph-name="uni203E" unicode="&#x203e;" horiz-adv-x="500" 
d="M0 775v115h500v-115h-500z" />
    <glyph glyph-name="fraction" unicode="&#x2044;" horiz-adv-x="150" 
d="M-158 0l356 674h110l-356 -674h-110z" />
    <glyph glyph-name="uni2070" unicode="&#x2070;" horiz-adv-x="492" 
d="M409 748.5q57 -64.5 57 -182.5t-57 -182.5t-163 -64.5t-163 64.5t-57 182.5t57 182.5t163 64.5t163 -64.5zM198 667.5q-16 -35.5 -16 -101.5t16 -101.5t48 -35.5t48 35.5t16 101.5t-16 101.5t-48 35.5t-48 -35.5z" />
    <glyph glyph-name="uni2074" unicode="&#x2074;" horiz-adv-x="484" 
d="M386 414v-84h-150v84h-225v117l179 271h196v-276h87v-112h-87zM242 526v43q0 57 5 127h-1q-33 -58 -64 -105l-44 -65h104z" />
    <glyph glyph-name="uni2075" unicode="&#x2075;" horiz-adv-x="479" 
d="M191 680l-6 -65h2q42 30 99 30q72 0 118 -42t46 -109q0 -80 -58 -127.5t-154 -47.5t-152 40.5t-56 112.5h157q0 -21 14.5 -33t38.5 -12q27 0 41.5 15t14.5 44q0 28 -15 43.5t-40 15.5q-40 0 -53 -40l-150 9l27 288h352v-122h-226z" />
    <glyph glyph-name="uni2076" unicode="&#x2076;" horiz-adv-x="471" 
d="M384.5 773.5q51.5 -39.5 57.5 -111.5h-155q-5 46 -46 46q-28 0 -45 -26.5t-19 -81.5h2q40 36 109 36q71 0 115.5 -41t44.5 -107q0 -49 -26 -87.5t-72 -60t-106 -21.5q-103 0 -160.5 61.5t-57.5 178.5q0 118 59.5 186t162.5 68q85 0 136.5 -39.5zM207.5 523
q-14.5 -15 -14.5 -40t14.5 -40t37.5 -15t37 15t14 40t-14 40t-37 15t-37.5 -15z" />
    <glyph glyph-name="uni2077" unicode="&#x2077;" horiz-adv-x="428" 
d="M324 522q-39 -93 -59 -192h-166q22 97 66 189.5t98 156.5h-252v126h406v-116q-54 -71 -93 -164z" />
    <glyph glyph-name="uni2078" unicode="&#x2078;" horiz-adv-x="472" 
d="M380 776q54 -37 54 -97q0 -38 -24.5 -66t-66.5 -37v-2q46 -8 74.5 -39.5t28.5 -74.5q0 -67 -55 -104t-155 -37t-155 37t-55 104q0 43 28 74.5t74 39.5v2q-42 9 -66 37t-24 66q0 60 54 97t144 37t144 -37zM196 696.5q-15 -11.5 -15 -31.5t15 -32t40 -12t39.5 12t14.5 32
t-14.5 31.5t-39.5 11.5t-40 -11.5zM195 505q-15 -12 -15 -33q0 -22 15 -34t41 -12t40.5 12t14.5 34q0 21 -14.5 33t-40.5 12t-41 -12z" />
    <glyph glyph-name="uni2079" unicode="&#x2079;" horiz-adv-x="471" 
d="M87 358.5q-52 39.5 -58 111.5h155q6 -46 46 -46q28 0 45 26.5t19 81.5h-2q-40 -36 -109 -36q-71 0 -115.5 41t-44.5 107q0 49 26 87.5t72.5 60t105.5 21.5q103 0 160.5 -61.5t57.5 -178.5q0 -118 -59.5 -186t-162.5 -68q-84 0 -136 39.5zM264 609q14 15 14 40t-14 40
t-37 15t-37.5 -15t-14.5 -40t14 -40t38 -15q23 0 37 15z" />
    <glyph glyph-name="uni207A" unicode="&#x207a;" horiz-adv-x="411" 
d="M373 611v-117h-106v-105h-122v105h-107v117h107v104h122v-104h106z" />
    <glyph glyph-name="uni207B" unicode="&#x207b;" horiz-adv-x="411" 
d="M38 494v117h335v-117h-335z" />
    <glyph glyph-name="uni207C" unicode="&#x207c;" horiz-adv-x="411" 
d="M38 578v107h335v-107h-335zM38 418v107h335v-107h-335z" />
    <glyph glyph-name="uni207D" unicode="&#x207d;" horiz-adv-x="276" 
d="M200.5 689.5q-16.5 -74.5 -16.5 -151.5t16.5 -150.5t54.5 -160.5h-120q-57 78 -82 152.5t-25 158.5t25 159t82 152h120q-38 -85 -54.5 -159.5z" />
    <glyph glyph-name="uni207E" unicode="&#x207e;" horiz-adv-x="276" 
d="M74.5 385.5q16.5 74.5 16.5 152.5q0 77 -16.5 151t-53.5 160h120q57 -78 82 -153t25 -158q0 -84 -25 -159t-82 -152h-120q37 84 53.5 158.5z" />
    <glyph glyph-name="uni2080" unicode="&#x2080;" horiz-adv-x="492" 
d="M409 246.5q57 -64.5 57 -182.5t-57 -182.5t-163 -64.5t-163 64.5t-57 182.5t57 182.5t163 64.5t163 -64.5zM198 165.5q-16 -35.5 -16 -101.5t16 -101.5t48 -35.5t48 35.5t16 101.5t-16 101.5t-48 35.5t-48 -35.5z" />
    <glyph glyph-name="uni2081" unicode="&#x2081;" horiz-adv-x="343" 
d="M131 -172v275h-121v112q66 0 98.5 20t39.5 65h140v-472h-157z" />
    <glyph glyph-name="uni2082" unicode="&#x2082;" horiz-adv-x="484" 
d="M349 291.5q46 -19.5 70 -54t24 -76.5q0 -56 -34.5 -90.5t-98.5 -57.5q-58 -22 -77.5 -35t-22.5 -29h246v-121h-425q-1 8 -1 33q0 80 31 129.5t109 84.5q62 28 88.5 46t26.5 42q0 17 -11 27t-31 10q-23 0 -37.5 -15.5t-14.5 -44.5h-155q0 82 54 126.5t152 44.5
q61 0 107 -19.5z" />
    <glyph glyph-name="uni2083" unicode="&#x2083;" horiz-adv-x="476" 
d="M386 274.5q55 -36.5 55 -98.5q0 -38 -20 -62t-64 -40v-2q47 -15 68.5 -40.5t21.5 -66.5q0 -68 -56.5 -108t-150.5 -40q-107 0 -163.5 44t-56.5 129h158q0 -65 61 -65q24 0 38 11t14 30q0 23 -17 34.5t-54 11.5h-12v108h18q28 0 45 11.5t17 30.5t-13 30t-37 11
q-28 0 -43 -16.5t-15 -45.5h-153q0 80 55.5 125t154.5 45q94 0 149 -36.5z" />
    <glyph glyph-name="uni2084" unicode="&#x2084;" horiz-adv-x="484" 
d="M385 -88v-84h-150v84h-225v117l179 271h196v-276h87v-112h-87zM241 24v43q0 57 5 127h-1q-33 -58 -64 -105l-44 -65h104z" />
    <glyph glyph-name="uni2085" unicode="&#x2085;" horiz-adv-x="479" 
d="M191 178l-6 -65h2q42 30 99 30q72 0 118 -42t46 -109q0 -80 -58 -127.5t-154 -47.5t-152 40.5t-56 112.5h157q0 -21 14.5 -33t38.5 -12q27 0 41.5 15t14.5 44q0 28 -15 43.5t-40 15.5q-40 0 -53 -40l-150 9l27 288h352v-122h-226z" />
    <glyph glyph-name="uni2086" unicode="&#x2086;" horiz-adv-x="471" 
d="M384.5 271.5q51.5 -39.5 57.5 -111.5h-155q-5 46 -46 46q-28 0 -45 -26.5t-19 -81.5h2q40 36 109 36q71 0 115.5 -41t44.5 -107q0 -49 -26 -87.5t-72 -60t-106 -21.5q-103 0 -160.5 61.5t-57.5 178.5q0 118 59.5 186t162.5 68q85 0 136.5 -39.5zM207.5 21
q-14.5 -15 -14.5 -40t14.5 -40t37.5 -15t37 15t14 40t-14 40t-37 15t-37.5 -15z" />
    <glyph glyph-name="uni2087" unicode="&#x2087;" horiz-adv-x="428" 
d="M323 20q-39 -93 -59 -192h-166q22 97 66 189.5t98 156.5h-252v126h406v-116q-54 -71 -93 -164z" />
    <glyph glyph-name="uni2088" unicode="&#x2088;" horiz-adv-x="472" 
d="M380 274q54 -37 54 -97q0 -38 -24.5 -66t-66.5 -37v-2q46 -8 74.5 -39.5t28.5 -74.5q0 -67 -55 -104t-155 -37t-155 37t-55 104q0 43 28 74.5t74 39.5v2q-42 9 -66 37t-24 66q0 60 54 97t144 37t144 -37zM196 194.5q-15 -11.5 -15 -31.5t15 -32t40 -12t39.5 12t14.5 32
t-14.5 31.5t-39.5 11.5t-40 -11.5zM195 3q-15 -12 -15 -33q0 -22 15 -34t41 -12t40.5 12t14.5 34q0 21 -14.5 33t-40.5 12t-41 -12z" />
    <glyph glyph-name="uni2089" unicode="&#x2089;" horiz-adv-x="471" 
d="M87 -143.5q-52 39.5 -58 111.5h155q6 -46 46 -46q28 0 45 26.5t19 81.5h-2q-40 -36 -109 -36q-71 0 -115.5 41t-44.5 107q0 49 26 87.5t72.5 60t105.5 21.5q103 0 160.5 -61.5t57.5 -178.5q0 -118 -59.5 -186t-162.5 -68q-84 0 -136 39.5zM264 107q14 15 14 40t-14 40
t-37 15t-37.5 -15t-14.5 -40t14 -40t38 -15q23 0 37 15z" />
    <glyph glyph-name="uni208A" unicode="&#x208a;" horiz-adv-x="411" 
d="M373 109v-117h-106v-105h-122v105h-107v117h107v104h122v-104h106z" />
    <glyph glyph-name="uni208B" unicode="&#x208b;" horiz-adv-x="411" 
d="M38 -8v117h335v-117h-335z" />
    <glyph glyph-name="uni208C" unicode="&#x208c;" horiz-adv-x="411" 
d="M38 76v107h335v-107h-335zM38 -84v107h335v-107h-335z" />
    <glyph glyph-name="uni208D" unicode="&#x208d;" horiz-adv-x="276" 
d="M200.5 187.5q-16.5 -74.5 -16.5 -151.5t16.5 -150.5t54.5 -160.5h-120q-57 78 -82 152.5t-25 158.5t25 159t82 152h120q-38 -85 -54.5 -159.5z" />
    <glyph glyph-name="uni208E" unicode="&#x208e;" horiz-adv-x="276" 
d="M74.5 -116.5q16.5 74.5 16.5 152.5q0 77 -16.5 151t-53.5 160h120q57 -78 82 -153t25 -158q0 -84 -25 -159t-82 -152h-120q37 84 53.5 158.5z" />
    <glyph glyph-name="uni2099" unicode="&#x2099;" horiz-adv-x="453" 
d="M383.5 156q35.5 -38 35.5 -109v-219h-152v200q0 24 -8.5 37.5t-26.5 13.5q-22 0 -32.5 -18.5t-10.5 -59.5v-173h-151v356h140v-39h2q39 49 105 49q63 0 98.5 -38z" />
    <glyph glyph-name="franc" unicode="&#x20a3;" horiz-adv-x="656" 
d="M296 425h284v-162h-284v-66h164v-129h-164v-68h-200v68h-73v129h73v477h504v-163h-304v-86z" />
    <glyph glyph-name="lira" unicode="&#x20a4;" horiz-adv-x="656" 
d="M615 155v-155h-592v155q36 0 56 16t27 55h-83v77h86v36h-86v77h86v18q0 122 69 189t193 67q74 0 130.5 -28t87 -79.5t30.5 -120.5h-185q0 37 -16 56.5t-47 19.5q-37 0 -54 -25t-17 -79v-18h130v-77h-130v-36h130v-77h-134q-11 -48 -49 -69v-2h368z" />
    <glyph glyph-name="peseta" unicode="&#x20a7;" horiz-adv-x="978" 
d="M953 146v-142q-18 -6 -44.5 -9.5t-48.5 -3.5q-104 0 -151 41t-47 132v207h-39q-17 -87 -87 -135.5t-189 -48.5h-78v-187h-200v674h278q114 0 182 -43.5t90 -122.5h43v142h192v-142h94v-137h-94v-155q0 -41 14.5 -58t48.5 -17q21 0 36 5zM424 431q0 86 -105 86h-50v-173
h50q105 0 105 87z" />
    <glyph glyph-name="Euro" unicode="&#x20ac;" horiz-adv-x="656" 
d="M556.5 45q-74.5 -61 -194.5 -61t-197.5 66.5t-99.5 187.5h-64l15 77h40v22v14h-55l15 77h47q21 125 99 193.5t201 68.5q122 0 195 -62t81 -171h-193q-7 36 -29 55.5t-59 19.5q-83 0 -105 -104h199l-14 -77h-194v-14v-22h187l-14 -77h-163q25 -96 105 -96q37 0 60 19.5
t28 55.5h196q-12 -111 -86.5 -172z" />
    <glyph glyph-name="uni20B9" unicode="&#x20b9;" horiz-adv-x="656" 
d="M507 523h115l-28 -99h-81q-10 -51 -50.5 -83.5t-106.5 -46.5v-2q32 -12 57.5 -39.5t51.5 -79.5l84 -173h-229l-73 163q-21 47 -49 68t-67 21h-14v119h54q44 0 75 14t46 39h-257l27 99h233q-27 52 -119 52h-141l27 99h560l-28 -99h-134v-2q32 -16 47 -50z" />
    <glyph glyph-name="uni20BA" unicode="&#x20ba;" horiz-adv-x="656" 
d="M543 75q-93 -86 -264 -86q-93 0 -184 11v228l-82 -45v99l82 45v52l-82 -45v99l82 45v196h202v-104l157 86v-99l-157 -86v-51l157 86v-99l-157 -86v-163q63 0 96.5 43t33.5 126h209q0 -166 -93 -252z" />
    <glyph glyph-name="uni20BC" unicode="&#x20bc;" horiz-adv-x="801" 
d="M102.5 533q71.5 79 209.5 90v89h177v-89q281 -21 281 -318v-305h-177v293q0 85 -24 123.5t-80 44.5v-461h-177v461q-55 -6 -79 -45t-24 -123v-293h-178v305q0 149 71.5 228z" />
    <glyph glyph-name="uni20BD" unicode="&#x20bd;" horiz-adv-x="656" 
d="M562 619q66 -55 66 -154t-66 -154.5t-196 -55.5h-84v-47h169v-120h-169v-88h-199v88h-67v120h67v47h-67v132h67v287h283q130 0 196 -55zM282 387h55q43 0 64 20.5t21 57.5q0 77 -85 77h-55v-155z" />
    <glyph glyph-name="afii61248" unicode="&#x2105;" horiz-adv-x="983" 
d="M359 648.5q54 -41.5 60 -113.5h-156q-2 22 -13 33t-27 11q-46 0 -46 -76q0 -80 47 -80q17 0 28 13t12 36h155q-5 -75 -58.5 -117.5t-140.5 -42.5q-93 0 -148 51.5t-55 139.5q0 86 55 136.5t148 50.5q85 0 139 -41.5zM253 0l356 674h110l-356 -674h-110zM914 311
q56 -51 56 -138t-56 -138t-151 -51t-151 51t-56 138t56 138t151 51t151 -51zM725 230q-13 -20 -13 -57q0 -38 13 -58t38 -20t38 20t13 58q0 37 -13 57t-38 20t-38 -20z" />
    <glyph glyph-name="afii61289" unicode="&#x2113;" horiz-adv-x="455" 
d="M264.5 140q14.5 -16 47.5 -16q26 0 45 6v-130q-42 -11 -93 -11q-101 0 -149.5 47.5t-49.5 147.5q-32 4 -45 7v92q15 -3 45 -7v174q0 91 20.5 143.5t60.5 74.5t104 22q77 0 124.5 -48t47.5 -151q0 -112 -45 -182t-127 -101v-17q0 -35 14.5 -51zM257.5 564.5
q-7.5 -17.5 -7.5 -65.5v-181q73 56 73 177q0 46 -11 66.5t-28 20.5q-19 0 -26.5 -17.5z" />
    <glyph glyph-name="afii61352" unicode="&#x2116;" horiz-adv-x="1249" 
d="M467 0l-111 273q-57 143 -102 276h-2q8 -129 8 -291v-258h-191v712h291l110 -273q58 -141 102 -276h2q-8 155 -8 291v258h191v-712h-290zM1179.5 580.5q56.5 -51.5 56.5 -137.5q0 -87 -56.5 -138t-151.5 -51t-151 51t-56 138q0 86 56.5 137.5t150.5 51.5
q95 0 151.5 -51.5zM990.5 500q-12.5 -20 -12.5 -57q0 -38 12.5 -58t37.5 -20t38 20t13 58q0 37 -13 57t-38 20t-37.5 -20zM843 80v125h365v-125h-365z" />
    <glyph glyph-name="uni2117" unicode="&#x2117;" horiz-adv-x="794" 
d="M586.5 681.5q82.5 -46.5 127.5 -131t45 -194.5t-45 -194.5t-127.5 -131t-189.5 -46.5t-189.5 46.5t-127.5 131t-45 194.5t45 194.5t127.5 131t189.5 46.5t189.5 -46.5zM244 618.5q-66 -37.5 -102.5 -105.5t-36.5 -157t36.5 -157t102.5 -105.5t153 -37.5t153 37.5
t102.5 105.5t36.5 157t-36.5 157t-102.5 105.5t-153 37.5t-153 -37.5zM560 524.5q44 -39.5 44 -110.5t-44 -110.5t-131 -39.5h-61v-123h-126v423h187q87 0 131 -39.5zM368 366h44q62 0 62 48q0 49 -64 49h-42v-97z" />
    <glyph glyph-name="trademark" unicode="&#x2122;" horiz-adv-x="884" 
d="M231 608v-252h-125v252h-101v104h326v-104h-100zM741 356v160q0 84 1 125h-2l-16 -86q-6 -28 -8 -38l-36 -161h-147l-36 161q-7 33 -25 124h-2q1 -20 1 -62v-63v-160h-108v356h187l33 -144q15 -73 22 -131h2q6 47 23 131l32 144h187v-356h-108z" />
    <glyph glyph-name="uni2126" unicode="&#x2126;" horiz-adv-x="759" 
d="M629.5 649q93.5 -79 93.5 -230q0 -77 -32.5 -135.5t-91.5 -114.5v-2h135v-167h-312v173q43 44 67 94.5t24 117.5q0 84 -36.5 128t-96.5 44q-61 0 -97.5 -44t-36.5 -128q0 -67 24 -117.5t67 -94.5v-173h-312v167h135v2q-59 56 -91.5 114.5t-32.5 135.5q0 151 93.5 230
t250.5 79q156 0 249.5 -79z" />
    <glyph glyph-name="estimated" unicode="&#x212e;" horiz-adv-x="863" 
d="M636.5 641q86.5 -49 132.5 -132t46 -181h-612q-6 0 -10 -4t-4 -9v-167q0 -16 3.5 -25.5t12.5 -18.5q93 -91 227 -91q72 0 135.5 30.5t103.5 79.5h69q-40 -56 -118 -95.5t-190 -39.5q-114 0 -201.5 45t-135.5 124t-48 180q0 100 46.5 180.5t134 126.5t204.5 46
q118 0 204.5 -49zM205 570q-9 -8 -12.5 -17t-3.5 -24v-167q0 -5 4 -8.5t10 -3.5h456q6 0 9.5 3.5t3.5 8.5v167q0 15 -3 24t-12 17q-95 94 -225 94q-133 0 -227 -94z" />
    <glyph glyph-name="oneeighth" unicode="&#x215b;" horiz-adv-x="856" 
d="M111 270v235h-102v97q51 0 79.5 18t37.5 54h128v-404h-143zM141 0l356 674h110l-356 -674h-110zM776.5 381.5q46.5 -32.5 46.5 -85.5q0 -32 -21 -55t-57 -30v-2q40 -7 64.5 -33t24.5 -63q0 -58 -48 -90.5t-134 -32.5t-133.5 32t-47.5 91q0 37 24.5 63t64.5 33v2
q-36 7 -57 30t-21 55q0 53 46.5 85.5t123.5 32.5q78 0 124.5 -32.5zM619.5 313q-12.5 -10 -12.5 -26t12.5 -26t32.5 -10q21 0 34 10t13 26q0 17 -12.5 26.5t-34.5 9.5q-20 0 -32.5 -10zM618 150q-13 -10 -13 -28t13 -28.5t34 -10.5q22 0 35 10.5t13 28.5t-13 28t-35 10
q-21 0 -34 -10z" />
    <glyph glyph-name="threeeighths" unicode="&#x215c;" horiz-adv-x="969" 
d="M332.5 651.5q48.5 -32.5 48.5 -85.5q0 -33 -17.5 -53.5t-55.5 -31.5v-2q41 -12 59.5 -34.5t18.5 -58.5q0 -61 -46 -93.5t-133 -32.5q-91 0 -141 38t-50 111h136q0 -53 55 -53q21 0 34 9.5t13 25.5q0 36 -60 36h-14v92h13q57 0 57 36q0 15 -12 24t-34 9q-24 0 -37.5 -13
t-13.5 -36h-130q0 68 48.5 106.5t133.5 38.5q79 0 127.5 -32.5zM254 0l356 674h110l-356 -674h-110zM889.5 381.5q46.5 -32.5 46.5 -85.5q0 -32 -21 -55t-57 -30v-2q40 -7 64.5 -33t24.5 -63q0 -58 -48 -90.5t-134 -32.5t-133.5 32t-47.5 91q0 37 24.5 63t64.5 33v2
q-36 7 -57 30t-21 55q0 53 46.5 85.5t123.5 32.5q78 0 124.5 -32.5zM732.5 313q-12.5 -10 -12.5 -26t12.5 -26t32.5 -10q21 0 34 10t13 26q0 17 -12.5 26.5t-34.5 9.5q-20 0 -32.5 -10zM731 150q-13 -10 -13 -28t13 -28.5t34 -10.5q22 0 35 10.5t13 28.5t-13 28t-35 10
q-21 0 -34 -10z" />
    <glyph glyph-name="fiveeighths" unicode="&#x215d;" horiz-adv-x="971" 
d="M168 569l-6 -57h2q32 27 84 27q62 0 102 -37.5t40 -95.5q0 -67 -50 -106.5t-133 -39.5t-132 35t-49 97h137q0 -18 12.5 -29.5t33.5 -11.5q24 0 36.5 14.5t12.5 39.5q0 23 -13 36.5t-35 13.5q-18 0 -29.5 -9.5t-14.5 -25.5l-132 8l23 246h304v-105h-193zM256 0l356 674
h110l-356 -674h-110zM891.5 381.5q46.5 -32.5 46.5 -85.5q0 -32 -21 -55t-57 -30v-2q40 -7 64.5 -33t24.5 -63q0 -58 -48 -90.5t-134 -32.5t-133.5 32t-47.5 91q0 37 24.5 63t64.5 33v2q-36 7 -57 30t-21 55q0 53 46.5 85.5t123.5 32.5q78 0 124.5 -32.5zM734.5 313
q-12.5 -10 -12.5 -26t12.5 -26t32.5 -10q21 0 34 10t13 26q0 17 -12.5 26.5t-34.5 9.5q-20 0 -32.5 -10zM733 150q-13 -10 -13 -28t13 -28.5t34 -10.5q22 0 35 10.5t13 28.5t-13 28t-35 10q-21 0 -34 -10z" />
    <glyph glyph-name="seveneighths" unicode="&#x215e;" horiz-adv-x="871" 
d="M273 434q-34 -80 -51 -164h-145q20 84 58.5 164t84.5 135h-211v105h345v-100q-47 -60 -81 -140zM156 0l356 674h110l-356 -674h-110zM791.5 381.5q46.5 -32.5 46.5 -85.5q0 -32 -21 -55t-57 -30v-2q40 -7 64.5 -33t24.5 -63q0 -58 -48 -90.5t-134 -32.5t-133.5 32
t-47.5 91q0 37 24.5 63t64.5 33v2q-36 7 -57 30t-21 55q0 53 46.5 85.5t123.5 32.5q78 0 124.5 -32.5zM634.5 313q-12.5 -10 -12.5 -26t12.5 -26t32.5 -10q21 0 34 10t13 26q0 17 -12.5 26.5t-34.5 9.5q-20 0 -32.5 -10zM633 150q-13 -10 -13 -28t13 -28.5t34 -10.5
q22 0 35 10.5t13 28.5t-13 28t-35 10q-21 0 -34 -10z" />
    <glyph glyph-name="uni2166" unicode="&#x2166;" horiz-adv-x="1344" 
d="M210 0l-207 712h211l70 -273q38 -147 59 -269h2q21 122 59 269l69 273h212l-207 -712h-268zM736 0v712h200v-712h-200zM1075 0v712h200v-712h-200z" />
    <glyph glyph-name="partialdiff" unicode="&#x2202;" horiz-adv-x="640" 
d="M512.5 637.5q71.5 -90.5 71.5 -258.5q0 -199 -78 -297t-210 -98q-130 0 -199 66.5t-69 179.5q0 72 30 128.5t86 88.5t133 32q74 0 114 -35h2q1 5 1 17q0 57 -24 92t-64 35q-57 0 -63 -62h-194q10 94 73.5 148t175.5 54q143 0 214.5 -90.5zM247.5 323q-21.5 -34 -21.5 -94
q0 -51 19 -78t55 -27q40 0 61.5 33t21.5 93q0 51 -19 79t-56 28q-39 0 -60.5 -34z" />
    <glyph glyph-name="uni2206" unicode="&#x2206;" horiz-adv-x="730" 
d="M-2 0l243 712h250l241 -712h-734zM428 334q-33 114 -62 242h-2q-25 -113 -63 -242l-50 -177h227z" />
    <glyph glyph-name="product" unicode="&#x220f;" horiz-adv-x="726" 
d="M456 -120v664h-186v-664h-201v832h587v-832h-200z" />
    <glyph glyph-name="summation" unicode="&#x2211;" horiz-adv-x="540" 
d="M248 544l149 -247l-148 -248h256v-169h-470v169l153 248l-153 247v168h470v-168h-257z" />
    <glyph glyph-name="minus" unicode="&#x2212;" horiz-adv-x="566" 
d="M55 243v149h456v-149h-456z" />
    <glyph glyph-name="uni2215" unicode="&#x2215;" horiz-adv-x="519" 
d="M30 -89l297 834h141l-298 -834h-140z" />
    <glyph glyph-name="uni2219" unicode="&#x2219;" horiz-adv-x="381" 
d="M90 205v201h200v-201h-200z" />
    <glyph glyph-name="radical" unicode="&#x221a;" horiz-adv-x="707" 
d="M194 -120l-85 362h-84v152h212l87 -364h2l194 682h167l-238 -832h-255z" />
    <glyph glyph-name="infinity" unicode="&#x221e;" horiz-adv-x="739" 
d="M674.5 451.5q49.5 -53.5 49.5 -143.5t-49.5 -143.5t-132.5 -53.5q-56 0 -97 22.5t-76 62.5q-34 -40 -75 -62.5t-97 -22.5q-83 0 -132.5 53.5t-49.5 143.5t49.5 143.5t132.5 53.5q56 0 97 -22.5t75 -62.5q35 40 76 62.5t97 22.5q83 0 132.5 -53.5zM252 268.5
q18 13.5 37 39.5q-19 26 -37 39.5t-38 13.5q-25 0 -38.5 -14.5t-13.5 -38.5t13.5 -38.5t38.5 -14.5q20 0 38 13.5zM563 269.5q14 14.5 14 38.5t-14 38.5t-38 14.5q-21 0 -39 -13.5t-37 -39.5q19 -26 37 -39.5t39 -13.5q24 0 38 14.5z" />
    <glyph glyph-name="integral" unicode="&#x222b;" horiz-adv-x="392" 
d="M387 712v-130q-8 3 -23 3q-38 0 -56 -16.5t-18 -54.5v-524q0 -92 -50 -138.5t-146 -46.5q-43 0 -89 10v130q8 -3 23 -3q38 0 56 16.5t18 54.5v524q0 92 50 138.5t146 46.5q43 0 89 -10z" />
    <glyph glyph-name="approxequal" unicode="&#x2248;" horiz-adv-x="566" 
d="M249.5 520q22.5 -10 50.5 -28q23 -14 35 -19.5t24 -5.5q21 0 32 13.5t11 36.5h110q0 -83 -40 -134t-107 -51q-25 0 -46.5 9.5t-51.5 27.5q-20 13 -34 19.5t-26 6.5q-21 0 -32.5 -13.5t-11.5 -36.5h-109q0 83 40 134t107 51q26 0 48.5 -10zM249.5 292q22.5 -10 50.5 -28
q23 -14 35 -19.5t24 -5.5q21 0 32 13.5t11 36.5h110q0 -83 -40 -134t-107 -51q-25 0 -46.5 9.5t-51.5 27.5q-20 13 -34 19.5t-26 6.5q-21 0 -32.5 -13.5t-11.5 -36.5h-109q0 83 40 134t107 51q26 0 48.5 -10z" />
    <glyph glyph-name="notequal" unicode="&#x2260;" horiz-adv-x="566" 
d="M327 278h184v-140h-256l-56 -107h-130l55 107h-69v140h142l40 77h-182v140h255l56 109h131l-57 -109h71v-140h-143z" />
    <glyph glyph-name="lessequal" unicode="&#x2264;" horiz-adv-x="566" 
d="M232 368v-2l279 -84v-137l-456 141v161l456 141v-137zM511 0h-456v130h456v-130z" />
    <glyph glyph-name="greaterequal" unicode="&#x2265;" horiz-adv-x="566" 
d="M511 286l-456 -141v137l279 84v2l-279 83v137l456 -141v-161zM55 0v130h456v-130h-456z" />
    <glyph glyph-name="lozenge" unicode="&#x25ca;" horiz-adv-x="691" 
d="M474 0h-257l-177 356l177 356h257l177 -356zM345 136l109 220l-109 220l-108 -220z" />
    <glyph glyph-name="uniF8FF" unicode="&#xf8ff;" horiz-adv-x="654" 
d="M605 740q37 -37 37 -101v-566q0 -64 -37 -101t-101 -37h-354q-64 0 -101 37t-37 101v566q0 64 37 101t101 37h354q64 0 101 -37zM104 685q-17 -17 -17 -46v-566q0 -29 17 -46t46 -17h354q29 0 46 17t17 46v566q0 29 -17 46t-46 17h-354q-29 0 -46 -17zM465.5 606
q50.5 -41 50.5 -113q0 -40 -15 -68.5t-54 -65.5t-52.5 -62.5t-13.5 -64.5h-118q-3 21 -3 44q0 43 11.5 69t48.5 64q29 30 38 46t9 37q0 20 -11 31.5t-30 11.5q-50 0 -50 -74h-145q1 90 52 138t143 48q89 0 139.5 -41zM250 65v126h144v-126h-144z" />
    <glyph glyph-name="uniFB00" unicode="&#xfb00;" horiz-adv-x="727" 
d="M641.5 568.5q-17.5 -16.5 -17.5 -53.5v-7h92v-137h-92v-371h-192v371h-155v-371h-192v371h-78v137h78v29q0 92 51 138.5t149 46.5q43 0 89 -10v-130q-7 3 -25 3q-37 0 -54.5 -16.5t-17.5 -53.5v-7h155v29q0 92 51 138.5t149 46.5q43 0 89 -10v-130q-7 3 -25 3
q-37 0 -54.5 -16.5z" />
    <glyph glyph-name="uniFB01" unicode="&#xfb01;" horiz-adv-x="680" 
d="M136 675.5q51 46.5 149 46.5q43 0 89 -10v-130q-7 3 -25 3q-37 0 -54.5 -16.5t-17.5 -53.5v-7h92v-137h-92v-371h-192v371h-78v137h78v29q0 92 51 138.5zM626 571h-192v141h192v-141zM626 508v-508h-192v508h192z" />
    <glyph glyph-name="uniFB02" unicode="&#xfb02;" horiz-adv-x="680" 
d="M294.5 568.5q-17.5 -16.5 -17.5 -53.5v-7h92v-137h-92v-371h-192v371h-78v137h78v29q0 92 51 138.5t149 46.5q43 0 89 -10v-130q-7 3 -25 3q-37 0 -54.5 -16.5zM434 0v712h192v-712h-192z" />
    <glyph glyph-name="uniFB03" unicode="&#xfb03;" horiz-adv-x="1027" 
d="M483 675.5q51 46.5 149 46.5q43 0 89 -10v-130q-7 3 -25 3q-37 0 -54.5 -16.5t-17.5 -53.5v-7h92v-137h-92v-371h-192v371h-155v-371h-192v371h-78v137h78v29q0 92 51 138.5t149 46.5q43 0 89 -10v-130q-7 3 -25 3q-37 0 -54.5 -16.5t-17.5 -53.5v-7h155v29
q0 92 51 138.5zM973 571h-192v141h192v-141zM973 508v-508h-192v508h192z" />
    <glyph glyph-name="uniFB04" unicode="&#xfb04;" horiz-adv-x="1027" 
d="M483 675.5q51 46.5 149 46.5q43 0 89 -10v-130q-7 3 -25 3q-37 0 -54.5 -16.5t-17.5 -53.5v-7h92v-137h-92v-371h-192v371h-155v-371h-192v371h-78v137h78v29q0 92 51 138.5t149 46.5q43 0 89 -10v-130q-7 3 -25 3q-37 0 -54.5 -16.5t-17.5 -53.5v-7h155v29
q0 92 51 138.5zM973 0h-192v712h192v-712z" />
    <glyph glyph-name="uniFEFF" unicode="&#xfeff;" horiz-adv-x="0" 
 />
    <glyph glyph-name="glyph202" horiz-adv-x="428" 
d="M301 54q-63 -64 -195 -64q-43 0 -91 11v163q26 -4 44 -4q40 0 62.5 12.5t32.5 43t10 85.5v411h200v-458q0 -136 -63 -200zM160 766l80 150h208l-142 -150h-146z" />
    <glyph glyph-name="Ccedilla.salt" horiz-adv-x="730" 
d="M538.5 694.5q71.5 -33.5 112.5 -97t45 -150.5h-210q-6 53 -35.5 82t-79.5 29q-60 0 -95.5 -54t-35.5 -148q0 -93 35.5 -147.5t95.5 -54.5q49 0 80 31t36 86h213q-11 -138 -98.5 -212.5t-230.5 -74.5q-105 0 -181.5 45t-117.5 128.5t-41 198.5t41 198.5t117.5 128.5
t181.5 45q96 0 167.5 -33.5zM180 -217l142 168h147l-101 -168h-188z" />
    <glyph glyph-name="Scedilla.salt" horiz-adv-x="661" 
d="M540.5 668.5q75.5 -59.5 75.5 -172.5h-210q0 39 -22.5 60t-65.5 21q-37 0 -58 -15t-21 -40q0 -20 12 -32.5t38 -21.5t79 -22q85 -21 139.5 -44.5t89 -68.5t34.5 -119q0 -71 -36.5 -122.5t-104.5 -79.5t-162 -28q-145 0 -226 65t-81 182h216q0 -91 98 -91q40 0 62.5 16.5
t22.5 44.5q0 22 -12 34.5t-36 21.5t-77 22q-88 24 -140 46t-86 65t-34 115q0 67 35 117.5t101 78t157 27.5q137 0 212.5 -59.5zM135 -217l142 168h147l-101 -168h-188z" />
    <glyph glyph-name="Tcommaaccent.salt" horiz-adv-x="638" 
d="M419 544v-544h-200v544h-211v168h622v-168h-211zM128 -217l142 168h147l-101 -168h-188z" />
    <glyph glyph-name="i.locl" horiz-adv-x="300" 
d="M54 0v508h192v-508h-192zM54 571v141h192v-141h-192z" />
    <glyph glyph-name="glyph314" horiz-adv-x="300" 
d="M191.5 -140q-54.5 -51 -145.5 -51q-53 0 -92 11v132q11 -3 25 -3q39 0 57 21t18 77v461h192v-494q0 -103 -54.5 -154zM44 562l80 150h208l-142 -150h-146z" />
    <glyph glyph-name="ccedilla.salt" horiz-adv-x="589" 
d="M485.5 465.5q72.5 -58.5 82.5 -157.5h-199q-3 35 -20.5 54t-45.5 19q-36 0 -56 -32.5t-20 -92.5q0 -63 20 -96t56 -33q29 0 47 21.5t19 60.5h199q-8 -105 -80.5 -165t-187.5 -60q-83 0 -145 33t-96 94.5t-34 144.5q0 81 33.5 141.5t96 93.5t145.5 33q113 0 185.5 -58.5z
M109 -217l142 168h147l-101 -168h-188z" />
    <glyph glyph-name="scedilla.salt" horiz-adv-x="559" 
d="M452 482q62 -42 62 -126h-182q0 56 -57 56q-47 0 -47 -34q0 -13 8 -20.5t28 -15t63 -18.5q64 -17 106 -34.5t70.5 -51.5t28.5 -88q0 -76 -65 -121t-182 -45q-259 0 -259 181h192q0 -32 16.5 -47.5t51.5 -15.5q27 0 40.5 9t13.5 26q0 15 -10.5 24.5t-33.5 17t-73 20.5
q-58 15 -95.5 31t-63 48t-25.5 85q0 73 60.5 117t178.5 44q112 0 174 -42zM93 -217l142 168h147l-101 -168h-188z" />
    <glyph glyph-name="tcommaaccent.salt" horiz-adv-x="398" 
d="M373 146v-142q-18 -6 -44.5 -9.5t-48.5 -3.5q-104 0 -151 41t-47 132v207h-77v137h77v142h192v-142h94v-137h-94v-155q0 -41 14.5 -58t48.5 -17q21 0 36 5zM33 -217l142 168h147l-101 -168h-188z" />
    <glyph glyph-name="a.superior" horiz-adv-x="427" 
d="M347 658q45 -39 45 -112v-110q0 -67 12 -106h-137q-6 18 -6 43h-1q-44 -53 -119 -53q-59 0 -93.5 31.5t-34.5 80.5q0 50 35.5 78t116.5 40q39 6 81 8v13q0 43 -37 43t-37 -42h-144q3 54 47.5 89.5t134.5 35.5q92 0 137 -39zM196 480q-36 -8 -36 -38q0 -15 9 -24t26 -9
q25 0 37 15q8 10 11 21t3 30v13q-31 -3 -50 -8z" />
    <glyph glyph-name="b.superior" horiz-adv-x="458" 
d="M191 655q16 21 40.5 31.5t52.5 10.5q72 0 114.5 -51.5t42.5 -137.5t-44 -137.5t-117 -51.5q-29 0 -54 12.5t-42 36.5h-1v-38h-145v498h151v-173h2zM194.5 563q-13.5 -21 -13.5 -55t13.5 -55t36.5 -21q24 0 37.5 20.5t13.5 55.5t-13.5 55.5t-37.5 20.5q-23 0 -36.5 -21z
" />
    <glyph glyph-name="c.superior" horiz-adv-x="434" 
d="M359 655.5q54 -41.5 60 -113.5h-156q-2 22 -13 33t-27 11q-46 0 -46 -76q0 -80 47 -80q17 0 28 13t12 36h155q-5 -75 -58.5 -117.5t-140.5 -42.5q-93 0 -148 51.5t-55 139.5q0 86 55 136.5t148 50.5q85 0 139 -41.5z" />
    <glyph glyph-name="d.superior" horiz-adv-x="458" 
d="M420 330h-144v38h-2q-17 -24 -41.5 -36.5t-53.5 -12.5q-73 0 -117 51.5t-44 137.5q0 87 42.5 138t114.5 51q27 0 51.5 -11t40.5 -31h2v173h151v-498zM190 563.5q-14 -20.5 -14 -55.5t14 -55.5t37 -20.5t36.5 21t13.5 55t-13.5 55t-36.5 21t-37 -20.5z" />
    <glyph glyph-name="e.superior" horiz-adv-x="437" 
d="M247 421q11 8 13 20h154q-12 -53 -65.5 -87.5t-128.5 -34.5q-64 0 -110 25t-69.5 68.5t-23.5 97.5q0 53 23.5 95.5t69 67t108.5 24.5q67 0 114.5 -28t69.5 -78q10 -22 14 -48.5t4 -65.5h-254q2 -36 15.5 -50t36.5 -14q18 0 29 8zM184 594q-13 -12 -17 -42h100
q-2 28 -15.5 41t-33.5 13q-21 0 -34 -12z" />
    <glyph glyph-name="egrave.superior" horiz-adv-x="437" 
d="M52 828h176l76 -104h-133zM247 421q11 8 13 20h154q-12 -53 -65.5 -87.5t-128.5 -34.5q-64 0 -110 25t-69.5 68.5t-23.5 97.5q0 53 23.5 95.5t69 67t108.5 24.5q67 0 114.5 -28t69.5 -78q10 -22 14 -48.5t4 -65.5h-254q2 -36 15.5 -50t36.5 -14q18 0 29 8zM184 594
q-13 -12 -17 -42h100q-2 28 -15.5 41t-33.5 13q-21 0 -34 -12z" />
    <glyph glyph-name="f.superior" horiz-adv-x="285" 
d="M225.5 719q-12.5 -10 -13.5 -33h64v-107h-64v-249h-152v249h-55v107h55v14q0 68 38.5 102t112.5 34q40 0 69 -8v-100q-3 1 -17 1q-25 0 -37.5 -10z" />
    <glyph glyph-name="g.superior" horiz-adv-x="451" 
d="M227.5 680.5q27.5 -15.5 43.5 -41.5h2v47h140v-331q0 -84 -51 -123.5t-150 -39.5q-79 0 -125 31t-54 88h142q1 -16 11.5 -25t27.5 -9q53 0 53 71v40h-2q-15 -22 -42.5 -35t-57.5 -13q-68 0 -108 48.5t-40 129.5q0 82 41 130t111 48q31 0 58.5 -15.5zM185.5 568
q-13.5 -18 -13.5 -50t13.5 -50t36.5 -18t36 18.5t13 49.5t-13 49.5t-36 18.5t-36.5 -18z" />
    <glyph glyph-name="h.superior" horiz-adv-x="453" 
d="M191 656q35 40 94 40q63 0 98.5 -38t35.5 -109v-219h-152v200q0 24 -8.5 37.5t-26.5 13.5q-22 0 -32.5 -18.5t-10.5 -59.5v-173h-151v498h151v-172h2z" />
    <glyph glyph-name="i.superior" horiz-adv-x="227" 
d="M38 723v105h151v-105h-151zM38 330v356h151v-356h-151z" />
    <glyph glyph-name="j.superior" horiz-adv-x="229" 
d="M40 723v105h151v-105h-151zM150 233.5q-41 -37.5 -111 -37.5q-41 0 -71 8v102q10 -2 18 -2q28 0 41 15.5t13 55.5v311h151v-338q0 -77 -41 -114.5z" />
    <glyph glyph-name="k.superior" horiz-adv-x="439" 
d="M261 330l-70 151h-2v-151h-151v499h151v-276h2l63 133h181l-117 -171l128 -185h-185z" />
    <glyph glyph-name="l.superior" horiz-adv-x="227" 
d="M38 330v498h151v-498h-151z" />
    <glyph glyph-name="m.superior" horiz-adv-x="672" 
d="M604 658q34 -38 34 -109v-219h-151v200q0 24 -8 37.5t-24 13.5q-20 0 -30.5 -17.5t-10.5 -57.5v-176h-151v202q0 49 -33 49q-41 0 -41 -75v-176h-151v356h139v-41h2q18 24 45 37.5t61 13.5q76 0 108 -62q18 29 48 45.5t69 16.5q60 0 94 -38z" />
    <glyph glyph-name="n.superior" horiz-adv-x="453" 
d="M383.5 658q35.5 -38 35.5 -109v-219h-152v200q0 24 -8.5 37.5t-26.5 13.5q-22 0 -32.5 -18.5t-10.5 -59.5v-173h-151v356h140v-39h2q39 49 105 49q63 0 98.5 -38z" />
    <glyph glyph-name="o.superior" horiz-adv-x="450" 
d="M376 646q56 -51 56 -138t-56 -138t-151 -51t-151 51t-56 138t56 138t151 51t151 -51zM187 565q-13 -20 -13 -57q0 -38 13 -58t38 -20t38 20t13 58q0 37 -13 57t-38 20t-38 -20z" />
    <glyph glyph-name="p.superior" horiz-adv-x="458" 
d="M397 645.5q44 -51.5 44 -137.5t-42.5 -137.5t-114.5 -51.5q-28 0 -52.5 10.5t-40.5 30.5h-2v-159h-151v485h145v-39h1q16 25 41.5 37.5t54.5 12.5q73 0 117 -51.5zM194.5 563q-13.5 -21 -13.5 -55t13.5 -55t36.5 -21q24 0 37.5 20.5t13.5 55.5t-13.5 55.5t-37.5 20.5
q-23 0 -36.5 -21z" />
    <glyph glyph-name="q.superior" horiz-adv-x="458" 
d="M233 684.5q25 -12.5 41 -37.5h2v39h144v-485h-151v159h-2q-15 -20 -39.5 -30.5t-52.5 -10.5q-72 0 -114.5 51t-42.5 138q0 86 44 137.5t117 51.5q29 0 54 -12.5zM190 563.5q-14 -20.5 -14 -55.5t14 -55.5t37 -20.5t36.5 21t13.5 55t-13.5 55t-36.5 21t-37 -20.5z" />
    <glyph glyph-name="r.superior" horiz-adv-x="329" 
d="M326 687v-128q-17 4 -45 4q-44 0 -68 -25.5t-24 -74.5v-133h-151v356h141v-47h2q20 27 46 39.5t62 12.5q22 0 37 -4z" />
    <glyph glyph-name="s.superior" horiz-adv-x="415" 
d="M337 668q46 -29 46 -87h-143q0 33 -35 33q-29 0 -29 -20q0 -11 13 -17.5t56 -17.5q47 -13 78 -26t52 -36t21 -59q0 -56 -47.5 -87.5t-136.5 -31.5q-97 0 -145.5 31t-48.5 96h151q0 -20 10.5 -30t33.5 -10q16 0 25 6t9 15q0 14 -15.5 21t-69.5 20q-43 10 -70 21.5
t-46 33.5t-19 59q0 52 44.5 83.5t135.5 31.5q84 0 130 -29z" />
    <glyph glyph-name="t.superior" horiz-adv-x="298" 
d="M280 443v-110q-14 -4 -34.5 -7t-37.5 -3q-78 0 -114 29.5t-36 93.5v133h-54v107h54v102h151v-102h68v-107h-68v-88q0 -27 10 -39t34 -12q17 0 27 3z" />
    <glyph glyph-name="u.superior" horiz-adv-x="452" 
d="M69.5 358q-35.5 38 -35.5 109v219h151v-200q0 -51 36 -51q21 0 31.5 18.5t10.5 59.5v173h152v-356h-140v39h-2q-39 -49 -106 -49q-62 0 -97.5 38z" />
    <glyph glyph-name="v.superior" horiz-adv-x="414" 
d="M102 330l-108 356h164l23 -111q17 -85 25 -146h2q8 61 25 146l23 111h164l-108 -356h-210z" />
    <glyph glyph-name="w.superior" horiz-adv-x="658" 
d="M376 330l-24 121q-12 62 -22 145h-2q-6 -52 -22 -145l-24 -121h-197l-82 356h145l16 -119q12 -84 16 -144h2q11 76 27 148l27 115h186l26 -115q16 -67 28 -148h1q5 64 17 144l16 119h145l-82 -356h-197z" />
    <glyph glyph-name="x.superior" horiz-adv-x="418" 
d="M422 330h-168l-44 103h-2l-44 -103h-168l117 183l-109 173h169l35 -96h2l35 96h169l-109 -173z" />
    <glyph glyph-name="y.superior" horiz-adv-x="416" 
d="M275.5 261.5q-23.5 -35.5 -56 -51t-82.5 -15.5q-48 0 -77 7v105q13 -4 33 -4q37 0 37 27q0 8 -5.5 24.5t-19.5 50.5l-114 281h165l31 -119q20 -81 31 -147h2q11 77 25 148l24 118h154l-104 -325q-20 -64 -43.5 -99.5z" />
    <glyph glyph-name="z.superior" horiz-adv-x="382" 
d="M211 444v-2h150v-112h-340v115l145 127v2h-140v112h331v-116z" />
    <glyph glyph-name="A.aalt" horiz-adv-x="641" 
d="M226 87l-25 -87h-203l193 548h259l192 -548h-203l-25 87h-188zM367 253q-22 76 -46 170h-2q-11 -49 -45 -170l-11 -38h115z" />
    <glyph glyph-name="Aacute.aalt" horiz-adv-x="641" 
d="M226 87l-25 -87h-203l193 548h259l192 -548h-203l-25 87h-188zM367 253q-22 76 -46 170h-2q-11 -49 -45 -170l-11 -38h115zM214 602l80 150h208l-142 -150h-146z" />
    <glyph glyph-name="Abreve.aalt" horiz-adv-x="641" 
d="M226 87l-25 -87h-203l193 548h259l192 -548h-203l-25 87h-188zM367 253q-22 76 -46 170h-2q-11 -49 -45 -170l-11 -38h115zM451 636q-47 -41 -131 -41t-131 41t-50 116h117q3 -51 64 -51t64 51h117q-3 -75 -50 -116z" />
    <glyph glyph-name="Acircumflex.aalt" horiz-adv-x="641" 
d="M226 87l-25 -87h-203l193 548h259l192 -548h-203l-25 87h-188zM367 253q-22 76 -46 170h-2q-11 -49 -45 -170l-11 -38h115zM321 677l-55 -75h-149l123 150h162l123 -150h-149z" />
    <glyph glyph-name="Adieresis.aalt" horiz-adv-x="641" 
d="M226 87l-25 -87h-203l193 548h259l192 -548h-203l-25 87h-188zM367 253q-22 76 -46 170h-2q-11 -49 -45 -170l-11 -38h115zM121 611v141h162v-141h-162zM357 611v141h163v-141h-163z" />
    <glyph glyph-name="Agrave.aalt" horiz-adv-x="641" 
d="M226 87l-25 -87h-203l193 548h259l192 -548h-203l-25 87h-188zM367 253q-22 76 -46 170h-2q-11 -49 -45 -170l-11 -38h115zM427 602h-146l-142 150h208z" />
    <glyph glyph-name="Amacron.aalt" horiz-adv-x="641" 
d="M226 87l-25 -87h-203l193 548h259l192 -548h-203l-25 87h-188zM367 253q-22 76 -46 170h-2q-11 -49 -45 -170l-11 -38h115zM124 621v115h393v-115h-393z" />
    <glyph glyph-name="Aogonek.aalt" horiz-adv-x="641" 
d="M226 87l-25 -87h-203l193 548h259l192 -548h-203l-25 87h-188zM367 253q-22 76 -46 170h-2q-11 -49 -45 -170l-11 -38h115zM595.5 -37.5q-13.5 -16.5 -13.5 -33.5q0 -27 31 -27q19 0 32 6v-93q-45 -16 -106 -16q-67 0 -100.5 25t-33.5 71q0 32 22.5 57t67.5 48h147
q-33 -21 -46.5 -37.5z" />
    <glyph glyph-name="Aring.aalt" horiz-adv-x="641" 
d="M226 87l-25 -87h-203l193 548h259l192 -548h-203l-25 87h-188zM367 253q-22 76 -46 170h-2q-11 -49 -45 -170l-11 -38h115zM404.5 794q34.5 -35 34.5 -85t-34.5 -85t-84.5 -35q-49 0 -84.5 35.5t-35.5 84.5q0 50 35.5 85t84.5 35q50 0 84.5 -35zM279 750q-17 -17 -17 -41
t17 -41t41 -17t41 17t17 41t-17 41t-41 17t-41 -17z" />
    <glyph glyph-name="Atilde.aalt" horiz-adv-x="641" 
d="M226 87l-25 -87h-203l193 548h259l192 -548h-203l-25 87h-188zM367 253q-22 76 -46 170h-2q-11 -49 -45 -170l-11 -38h115zM484.5 640.5q-33.5 -40.5 -93.5 -40.5q-23 0 -41 6t-43 18q-18 9 -28.5 13t-21.5 4q-18 0 -27.5 -10t-12.5 -31h-99q4 72 37.5 112t93.5 40
q23 0 41 -6t43 -18q3 -1 19.5 -8.5t30.5 -7.5q18 0 27.5 9.5t11.5 30.5h99q-3 -71 -36.5 -111.5z" />
    <glyph glyph-name="AE.aalt" horiz-adv-x="819" 
d="M779 0h-350l-15 96h-193l-41 -96h-185l243 548h539v-140h-247l11 -65h216v-136h-195l11 -67h206v-140zM364 407h-11l-74 -175h113z" />
    <glyph glyph-name="B.aalt" horiz-adv-x="612" 
d="M512.5 510q54.5 -38 54.5 -104q0 -48 -23.5 -76.5t-73.5 -43.5v-2q54 -11 83 -44.5t29 -83.5q0 -72 -60 -114t-165 -42h-295v548h289q107 0 161.5 -38zM251 333h54q38 0 56 11.5t18 35.5t-17 35.5t-52 11.5h-59v-94zM251 121h57q40 0 57 11t17 37q0 27 -18 39t-58 12h-55
v-99z" />
    <glyph glyph-name="C.aalt" 
d="M504.5 504.5q73.5 -59.5 77.5 -168.5h-201q-9 76 -73 76q-38 0 -59.5 -35t-21.5 -104q0 -67 22 -102t60 -35q31 0 50 20.5t23 58.5h203q-9 -112 -82 -171.5t-194 -59.5q-132 0 -206.5 76.5t-74.5 212.5t74.5 213.5t205.5 77.5q123 0 196.5 -59.5z" />
    <glyph glyph-name="Cacute.aalt" 
d="M504.5 504.5q73.5 -59.5 77.5 -168.5h-201q-9 76 -73 76q-38 0 -59.5 -35t-21.5 -104q0 -67 22 -102t60 -35q31 0 50 20.5t23 58.5h203q-9 -112 -82 -171.5t-194 -59.5q-132 0 -206.5 76.5t-74.5 212.5t74.5 213.5t205.5 77.5q123 0 196.5 -59.5zM201 602l80 150h208
l-142 -150h-146z" />
    <glyph glyph-name="Ccaron.aalt" 
d="M504.5 504.5q73.5 -59.5 77.5 -168.5h-201q-9 76 -73 76q-38 0 -59.5 -35t-21.5 -104q0 -67 22 -102t60 -35q31 0 50 20.5t23 58.5h203q-9 -112 -82 -171.5t-194 -59.5q-132 0 -206.5 76.5t-74.5 212.5t74.5 213.5t205.5 77.5q123 0 196.5 -59.5zM227 602l-123 150h149
l55 -75l55 75h149l-123 -150h-162z" />
    <glyph glyph-name="Ccedilla.c2sc" 
d="M513.5 52.5q-63.5 -59.5 -169.5 -67.5l-27 -44q17 5 32 5q43 0 67 -21.5t24 -58.5q0 -46 -35 -75.5t-99 -29.5q-33 0 -66 9t-61 26l30 62q48 -23 82 -23q19 0 29 7t10 19q0 13 -10 21t-29 8q-16 0 -30 -7l-39 32l43 71q-112 13 -174.5 88.5t-62.5 198.5q0 136 74.5 213.5
t205.5 77.5q123 0 196.5 -59.5t77.5 -168.5h-201q-9 76 -73 76q-38 0 -59.5 -35t-21.5 -104q0 -67 22 -102t60 -35q31 0 50 20.5t23 58.5h203q-8 -103 -71.5 -162.5z" />
    <glyph glyph-name="Ccircumflex.aalt" 
d="M504.5 504.5q73.5 -59.5 77.5 -168.5h-201q-9 76 -73 76q-38 0 -59.5 -35t-21.5 -104q0 -67 22 -102t60 -35q31 0 50 20.5t23 58.5h203q-9 -112 -82 -171.5t-194 -59.5q-132 0 -206.5 76.5t-74.5 212.5t74.5 213.5t205.5 77.5q123 0 196.5 -59.5zM308 677l-55 -75h-149
l123 150h162l123 -150h-149z" />
    <glyph glyph-name="Cdotaccent.aalt" 
d="M504.5 504.5q73.5 -59.5 77.5 -168.5h-201q-9 76 -73 76q-38 0 -59.5 -35t-21.5 -104q0 -67 22 -102t60 -35q31 0 50 20.5t23 58.5h203q-9 -112 -82 -171.5t-194 -59.5q-132 0 -206.5 76.5t-74.5 212.5t74.5 213.5t205.5 77.5q123 0 196.5 -59.5zM212 611v141h192v-141
h-192z" />
    <glyph glyph-name="D.aalt" horiz-adv-x="650" 
d="M539 477q83 -71 83 -203q0 -131 -83 -202.5t-236 -71.5h-241v548h241q153 0 236 -71zM257 146h41q60 0 92.5 33.5t32.5 94.5t-32.5 94.5t-92.5 33.5h-41v-256z" />
    <glyph glyph-name="Eth.aalt" horiz-adv-x="656" 
d="M545 477q83 -71 83 -203q0 -131 -83 -202.5t-236 -71.5h-241v226h-56v100h56v222h241q153 0 236 -71zM401.5 175q34.5 35 34.5 99t-34.5 99t-97.5 35h-48v-82h94v-100h-94v-86h48q63 0 97.5 35z" />
    <glyph glyph-name="Dcaron.aalt" horiz-adv-x="650" 
d="M539 477q83 -71 83 -203q0 -131 -83 -202.5t-236 -71.5h-241v548h241q153 0 236 -71zM257 146h41q60 0 92.5 33.5t32.5 94.5t-32.5 94.5t-92.5 33.5h-41v-256zM234 602l-123 150h149l55 -75l55 75h149l-123 -150h-162z" />
    <glyph glyph-name="Dcroat.aalt" horiz-adv-x="656" 
d="M545 477q83 -71 83 -203q0 -131 -83 -202.5t-236 -71.5h-241v226h-56v100h56v222h241q153 0 236 -71zM401.5 175q34.5 35 34.5 99t-34.5 99t-97.5 35h-48v-82h94v-100h-94v-86h48q63 0 97.5 35z" />
    <glyph glyph-name="E.aalt" horiz-adv-x="534" 
d="M238 408v-65h233v-136h-233v-67h256v-140h-431v548h428v-140h-253z" />
    <glyph glyph-name="Eacute.aalt" horiz-adv-x="534" 
d="M238 408v-65h233v-136h-233v-67h256v-140h-431v548h428v-140h-253zM171 602l80 150h208l-142 -150h-146z" />
    <glyph glyph-name="Ebreve.aalt" horiz-adv-x="534" 
d="M238 408v-65h233v-136h-233v-67h256v-140h-431v548h428v-140h-253zM408 636q-47 -41 -131 -41t-131 41t-50 116h117q3 -51 64 -51t64 51h117q-3 -75 -50 -116z" />
    <glyph glyph-name="Ecaron.aalt" horiz-adv-x="534" 
d="M238 408v-65h233v-136h-233v-67h256v-140h-431v548h428v-140h-253zM197 602l-123 150h149l55 -75l55 75h149l-123 -150h-162z" />
    <glyph glyph-name="Ecircumflex.aalt" horiz-adv-x="534" 
d="M238 408v-65h233v-136h-233v-67h256v-140h-431v548h428v-140h-253zM278 677l-55 -75h-149l123 150h162l123 -150h-149z" />
    <glyph glyph-name="Edieresis.aalt" horiz-adv-x="534" 
d="M238 408v-65h233v-136h-233v-67h256v-140h-431v548h428v-140h-253zM78 611v141h162v-141h-162zM314 611v141h163v-141h-163z" />
    <glyph glyph-name="Edotaccent.aalt" horiz-adv-x="534" 
d="M238 408v-65h233v-136h-233v-67h256v-140h-431v548h428v-140h-253zM181 611v141h192v-141h-192z" />
    <glyph glyph-name="Egrave.aalt" horiz-adv-x="534" 
d="M238 408v-65h233v-136h-233v-67h256v-140h-431v548h428v-140h-253zM384 602h-146l-142 150h208z" />
    <glyph glyph-name="Emacron.aalt" horiz-adv-x="534" 
d="M238 408v-65h233v-136h-233v-67h256v-140h-431v548h428v-140h-253zM81 621v115h393v-115h-393z" />
    <glyph glyph-name="Eogonek.aalt" horiz-adv-x="534" 
d="M238 408v-65h233v-136h-233v-67h256v-140h-431v548h428v-140h-253zM446.5 -37.5q-13.5 -16.5 -13.5 -33.5q0 -27 31 -27q19 0 32 6v-93q-45 -16 -106 -16q-67 0 -100.5 25t-33.5 71q0 32 22.5 57t67.5 48h147q-33 -21 -46.5 -37.5z" />
    <glyph glyph-name="F.aalt" horiz-adv-x="500" 
d="M237 404v-86h229v-143h-229v-175h-175v548h420v-144h-245z" />
    <glyph glyph-name="uniFB01.aalt" horiz-adv-x="820" 
d="M237 404v-86h229v-143h-229v-175h-175v548h420v-144h-245zM563 0v548h194v-548h-194z" />
    <glyph glyph-name="uniFB02.aalt" horiz-adv-x="1011" 
d="M237 404v-86h229v-143h-229v-175h-175v548h420v-144h-245zM1003 159v-159h-440v548h194v-389h246z" />
    <glyph glyph-name="G.aalt" horiz-adv-x="649" 
d="M462.5 539.5q59.5 -24.5 94.5 -69.5t39 -104h-201q-5 27 -23 42t-47 15q-46 0 -72 -38t-26 -113t26.5 -114.5t75.5 -39.5q38 0 60.5 20t27.5 54h-99l-1 126h278v-318h-163v44h-2q-52 -58 -148 -58q-78 0 -135.5 34.5t-88 99t-30.5 152.5q0 89 36 155t103.5 101.5
t159.5 35.5q76 0 135.5 -24.5z" />
    <glyph glyph-name="Gbreve.aalt" horiz-adv-x="649" 
d="M462.5 539.5q59.5 -24.5 94.5 -69.5t39 -104h-201q-5 27 -23 42t-47 15q-46 0 -72 -38t-26 -113t26.5 -114.5t75.5 -39.5q38 0 60.5 20t27.5 54h-99l-1 126h278v-318h-163v44h-2q-52 -58 -148 -58q-78 0 -135.5 34.5t-88 99t-30.5 152.5q0 89 36 155t103.5 101.5
t159.5 35.5q76 0 135.5 -24.5zM453 636q-47 -41 -131 -41t-131 41t-50 116h117q3 -51 64 -51t64 51h117q-3 -75 -50 -116z" />
    <glyph glyph-name="Gcircumflex.aalt" horiz-adv-x="649" 
d="M462.5 539.5q59.5 -24.5 94.5 -69.5t39 -104h-201q-5 27 -23 42t-47 15q-46 0 -72 -38t-26 -113t26.5 -114.5t75.5 -39.5q38 0 60.5 20t27.5 54h-99l-1 126h278v-318h-163v44h-2q-52 -58 -148 -58q-78 0 -135.5 34.5t-88 99t-30.5 152.5q0 89 36 155t103.5 101.5
t159.5 35.5q76 0 135.5 -24.5zM323 677l-55 -75h-149l123 150h162l123 -150h-149z" />
    <glyph glyph-name="Gcommaaccent.aalt" horiz-adv-x="649" 
d="M462.5 539.5q59.5 -24.5 94.5 -69.5t39 -104h-201q-5 27 -23 42t-47 15q-46 0 -72 -38t-26 -113t26.5 -114.5t75.5 -39.5q38 0 60.5 20t27.5 54h-99l-1 126h278v-318h-163v44h-2q-52 -58 -148 -58q-78 0 -135.5 34.5t-88 99t-30.5 152.5q0 89 36 155t103.5 101.5
t159.5 35.5q76 0 135.5 -24.5zM317 -280h-70l47 110h-47v121h143v-121z" />
    <glyph glyph-name="Gdotaccent.aalt" horiz-adv-x="649" 
d="M462.5 539.5q59.5 -24.5 94.5 -69.5t39 -104h-201q-5 27 -23 42t-47 15q-46 0 -72 -38t-26 -113t26.5 -114.5t75.5 -39.5q38 0 60.5 20t27.5 54h-99l-1 126h278v-318h-163v44h-2q-52 -58 -148 -58q-78 0 -135.5 34.5t-88 99t-30.5 152.5q0 89 36 155t103.5 101.5
t159.5 35.5q76 0 135.5 -24.5zM226 611v141h192v-141h-192z" />
    <glyph glyph-name="H.aalt" horiz-adv-x="684" 
d="M427 0v201h-170v-201h-194v548h194v-187h170v187h194v-548h-194z" />
    <glyph glyph-name="Hbar.aalt" horiz-adv-x="684" 
d="M621 428v-428h-194v201h-170v-201h-194v428h-43v74h43v46h194v-46h170v46h194v-46h43v-74h-43zM257 428v-67h170v67h-170z" />
    <glyph glyph-name="Hcircumflex.aalt" horiz-adv-x="684" 
d="M427 0v201h-170v-201h-194v548h194v-187h170v187h194v-548h-194zM343 677l-55 -75h-149l123 150h162l123 -150h-149z" />
    <glyph glyph-name="I.aalt" horiz-adv-x="320" 
d="M63 0v548h194v-548h-194z" />
    <glyph glyph-name="Iacute.aalt" horiz-adv-x="320" 
d="M63 0v548h194v-548h-194zM54 602l80 150h208l-142 -150h-146z" />
    <glyph glyph-name="Ibreve.aalt" horiz-adv-x="320" 
d="M63 0v548h194v-548h-194zM280.5 635.5q-42.5 -40.5 -120.5 -40.5t-120.5 40.5t-44.5 116.5h113q1 -53 52 -53q25 0 37.5 13t14.5 40h113q-2 -76 -44.5 -116.5z" />
    <glyph glyph-name="Icircumflex.aalt" horiz-adv-x="320" 
d="M63 0v548h194v-548h-194zM208 605l-48 64l-47 -64h-142l113 147h152l113 -147h-141z" />
    <glyph glyph-name="Idieresis.aalt" horiz-adv-x="320" 
d="M63 0v548h194v-548h-194zM-5 611v141h142v-141h-142zM183 611v141h143v-141h-143z" />
    <glyph glyph-name="Idotaccent.aalt" horiz-adv-x="320" 
d="M63 0v548h194v-548h-194zM64 611v141h192v-141h-192z" />
    <glyph glyph-name="Igrave.aalt" horiz-adv-x="320" 
d="M63 0v548h194v-548h-194zM266 602h-146l-142 150h208z" />
    <glyph glyph-name="IJ.aalt" horiz-adv-x="705" 
d="M63 0v548h194v-548h-194zM591 43.5q-56 -51.5 -173 -51.5q-41 0 -84 9v153q15 -3 35 -3q47 0 65.5 24t18.5 86v287h194v-342q0 -111 -56 -162.5z" />
    <glyph glyph-name="Imacron.aalt" horiz-adv-x="320" 
d="M63 0v548h194v-548h-194zM3 620v116h313v-116h-313z" />
    <glyph glyph-name="Iogonek.aalt" horiz-adv-x="320" 
d="M63 0v548h194v-548h-194zM210.5 -37.5q-13.5 -16.5 -13.5 -33.5q0 -27 31 -27q19 0 32 6v-93q-45 -16 -106 -16q-67 0 -100.5 25t-33.5 71q0 32 22.5 57t67.5 48h147q-33 -21 -46.5 -37.5z" />
    <glyph glyph-name="Itilde.aalt" horiz-adv-x="320" 
d="M63 0v548h194v-548h-194zM305 639q-31 -41 -86 -41q-20 0 -36 6.5t-36 18.5q-2 1 -12 7t-18.5 8.5t-15.5 2.5q-30 0 -34 -43h-86q4 73 34 113.5t86 40.5q21 0 37 -6.5t36 -18.5q14 -9 24 -13t21 -4q30 0 33 42h87q-3 -72 -34 -113z" />
    <glyph glyph-name="J.c2sc" horiz-adv-x="385" 
d="M271 43.5q-56 -51.5 -173 -51.5q-41 0 -84 9v153q15 -3 35 -3q47 0 65.5 24t18.5 86v287h194v-342q0 -111 -56 -162.5z" />
    <glyph glyph-name="Jcircumflex.aalt" horiz-adv-x="385" 
d="M271 43.5q-56 -51.5 -173 -51.5q-41 0 -84 9v153q15 -3 35 -3q47 0 65.5 24t18.5 86v287h194v-342q0 -111 -56 -162.5zM271 605l-48 64l-47 -64h-142l113 147h152l113 -147h-141z" />
    <glyph glyph-name="K.aalt" horiz-adv-x="644" 
d="M641 0h-239l-142 240h-3v-240h-194v548h194v-226h3l138 226h232l-193 -258z" />
    <glyph glyph-name="Kcommaaccent.aalt" horiz-adv-x="644" 
d="M641 0h-239l-142 240h-3v-240h-194v548h194v-226h3l138 226h232l-193 -258zM324 -280h-70l47 110h-47v121h143v-121z" />
    <glyph glyph-name="L.aalt" horiz-adv-x="511" 
d="M503 159v-159h-440v548h194v-389h246z" />
    <glyph glyph-name="Lacute.aalt" horiz-adv-x="511" 
d="M503 159v-159h-440v548h194v-389h246zM89 602l80 150h208l-142 -150h-146z" />
    <glyph glyph-name="Lcaron.aalt" horiz-adv-x="511" 
d="M503 159v-159h-440v548h194v-389h246zM287 370l21 178h151l-64 -178h-108z" />
    <glyph glyph-name="Lcommaaccent.aalt" horiz-adv-x="511" 
d="M503 159v-159h-440v548h194v-389h246zM264 -280h-70l47 110h-47v121h143v-121z" />
    <glyph glyph-name="Ldot.aalt" horiz-adv-x="578" 
d="M503 159v-159h-440v548h194v-389h246zM363 283v172h171v-172h-171z" />
    <glyph glyph-name="glyph418" horiz-adv-x="385" 
d="M271 43.5q-56 -51.5 -173 -51.5q-41 0 -84 9v153q15 -3 35 -3q47 0 65.5 24t18.5 86v287h194v-342q0 -111 -56 -162.5zM116 602l80 150h208l-142 -150h-146z" />
    <glyph glyph-name="Lslash.aalt" horiz-adv-x="515" 
d="M507 0h-441v209l-57 -32v120l57 32v219h195v-123l104 59v-121l-104 -58v-146h246v-159z" />
    <glyph glyph-name="M.aalt" horiz-adv-x="951" 
d="M706 0v258q0 116 5 197h-2q-26 -118 -45 -196l-67 -259h-243l-67 259q-24 97 -44 196h-2q4 -87 4 -197v-258h-182v548h313l59 -227q24 -94 40 -200h2q13 93 40 200l58 227h314v-548h-183z" />
    <glyph glyph-name="N.aalt" horiz-adv-x="763" 
d="M404 0l-83 204q-46 115 -75 205h-2q6 -86 6 -217v-192h-187v548h296l83 -204q40 -95 75 -204h3q-7 99 -7 216v192h188v-548h-297z" />
    <glyph glyph-name="Nacute.aalt" horiz-adv-x="763" 
d="M404 0l-83 204q-46 115 -75 205h-2q6 -86 6 -217v-192h-187v548h296l83 -204q40 -95 75 -204h3q-7 99 -7 216v192h188v-548h-297zM276 602l80 150h208l-142 -150h-146z" />
    <glyph glyph-name="Ncaron.aalt" horiz-adv-x="763" 
d="M404 0l-83 204q-46 115 -75 205h-2q6 -86 6 -217v-192h-187v548h296l83 -204q40 -95 75 -204h3q-7 99 -7 216v192h188v-548h-297zM301 602l-123 150h149l55 -75l55 75h149l-123 -150h-162z" />
    </font>
</defs>
</svg>
