<?xml version="1.0" standalone="no"?>
<!DOCTYPE svg PUBLIC "-//W3C//DTD SVG 1.1//EN" "http://www.w3.org/Graphics/SVG/1.1/DTD/svg11.dtd" >
<svg xmlns="http://www.w3.org/2000/svg" xmlns:xlink="http://www.w3.org/1999/xlink" version="1.1">
<metadata>
Created by FontForge 20170731 at Thu Feb  5 13:06:52 2015
 By Aleksey,,,
Copyright (c) 2015 Monotype Imaging Inc.  All rights reserved.
</metadata>
<defs>
<font id="NeueHaasUnicaW06-Light" horiz-adv-x="563" >
  <font-face 
    font-family="NeueHaasUnicaW06-Light"
    font-weight="350"
    font-stretch="normal"
    units-per-em="1000"
    panose-1="2 11 4 4 3 2 6 2 2 3"
    ascent="800"
    descent="-200"
    x-height="508"
    cap-height="712"
    bbox="-500 -275 1089 1082"
    underline-thickness="50"
    underline-position="-175"
    unicode-range="U+0020-FEFF"
  />
<missing-glyph horiz-adv-x="614" 
d="M556.5 742.5q34.5 -34.5 34.5 -93.5v-586q0 -59 -34.5 -93.5t-93.5 -34.5h-312q-59 0 -93.5 34.5t-34.5 93.5v586q0 59 34.5 93.5t93.5 34.5h312q59 0 93.5 -34.5zM87.5 712.5q-23.5 -23.5 -23.5 -63.5v-586q0 -40 23.5 -63.5t63.5 -23.5h312q40 0 63.5 23.5t23.5 63.5
v586q0 40 -23.5 63.5t-63.5 23.5h-312q-40 0 -63.5 -23.5zM422 606q46 -40 46 -105q0 -44 -16 -73.5t-68 -73.5q-31 -26 -45 -45t-19 -43.5t-5 -71.5h-57v25q0 43 6.5 70t23 49.5t50.5 53.5q40 35 51 56t11 53q0 41 -26 64t-72 23q-50 0 -78 -27.5t-31 -79.5h-63
q4 81 48.5 123t123.5 42q74 0 120 -40zM248 65v81h77v-81h-77z" />
    <glyph glyph-name="f_f.liga" unicode="ff" horiz-adv-x="541" 
d="M440 642q-18 -21 -18 -69v-65h102v-52h-102v-456h-62v456h-192v-456h-62v456h-91v52h91v71q0 137 125 137q20 0 42 -4v-53q-14 4 -32 4q-37 0 -55 -21t-18 -69v-65h192v71q0 137 125 137q21 0 41 -4v-53q-14 4 -31 4q-37 0 -55 -21z" />
    <glyph glyph-name="f_f_i.liga" unicode="ffi" horiz-adv-x="769" 
d="M485 716q21 0 41 -4v-53q-14 4 -31 4q-37 0 -55 -21t-18 -69v-65h102v-52h-102v-456h-62v456h-192v-456h-62v456h-91v52h91v71q0 137 125 137q20 0 42 -4v-53q-14 4 -32 4q-37 0 -55 -21t-18 -69v-65h192v71q0 137 125 137zM686 624h-62v88h62v-88zM686 508v-508h-62v508
h62z" />
    <glyph glyph-name="f_f_l.liga" unicode="ffl" horiz-adv-x="769" 
d="M440 642q-18 -21 -18 -69v-65h102v-52h-102v-456h-62v456h-192v-456h-62v456h-91v52h91v71q0 137 125 137q20 0 42 -4v-53q-14 4 -32 4q-37 0 -55 -21t-18 -69v-65h192v71q0 137 125 137q21 0 41 -4v-53q-14 4 -31 4q-37 0 -55 -21zM624 0v712h62v-712h-62z" />
    <glyph glyph-name="f_i.liga" unicode="fi" horiz-adv-x="516" 
d="M231 716q20 0 42 -4v-53q-14 4 -32 4q-37 0 -55 -21t-18 -69v-65h103v-52h-103v-456h-62v456h-91v52h91v71q0 137 125 137zM432 624h-62v88h62v-88zM432 508v-508h-62v508h62z" />
    <glyph glyph-name="f_l.liga" unicode="fl" horiz-adv-x="516" 
d="M186 642q-18 -21 -18 -69v-65h103v-52h-103v-456h-62v456h-91v52h91v71q0 137 125 137q20 0 42 -4v-53q-14 4 -32 4q-37 0 -55 -21zM370 0v712h62v-712h-62z" />
    <glyph glyph-name=".notdef" horiz-adv-x="614" 
d="M556.5 742.5q34.5 -34.5 34.5 -93.5v-586q0 -59 -34.5 -93.5t-93.5 -34.5h-312q-59 0 -93.5 34.5t-34.5 93.5v586q0 59 34.5 93.5t93.5 34.5h312q59 0 93.5 -34.5zM87.5 712.5q-23.5 -23.5 -23.5 -63.5v-586q0 -40 23.5 -63.5t63.5 -23.5h312q40 0 63.5 23.5t23.5 63.5
v586q0 40 -23.5 63.5t-63.5 23.5h-312q-40 0 -63.5 -23.5zM422 606q46 -40 46 -105q0 -44 -16 -73.5t-68 -73.5q-31 -26 -45 -45t-19 -43.5t-5 -71.5h-57v25q0 43 6.5 70t23 49.5t50.5 53.5q40 35 51 56t11 53q0 41 -26 64t-72 23q-50 0 -78 -27.5t-31 -79.5h-63
q4 81 48.5 123t123.5 42q74 0 120 -40zM248 65v81h77v-81h-77z" />
    <glyph glyph-name="glyph1" horiz-adv-x="600" 
 />
    <glyph glyph-name="glyph1" horiz-adv-x="600" 
 />
    <glyph glyph-name="nonmarkingreturn" horiz-adv-x="333" 
 />
    <glyph glyph-name="space" unicode=" " horiz-adv-x="230" 
 />
    <glyph glyph-name="exclam" unicode="!" horiz-adv-x="251" 
d="M100 164l-16 548h83l-16 -548h-51zM86 0v93h79v-93h-79z" />
    <glyph glyph-name="quotedbl" unicode="&#x22;" horiz-adv-x="340" 
d="M81 454l-10 258h65l-10 -258h-45zM214 454l-10 258h65l-10 -258h-45z" />
    <glyph glyph-name="numbersign" unicode="#" horiz-adv-x="637" 
d="M439 248h127l-8 -49h-126l-32 -199h-54l32 199h-161l-32 -199h-55l32 199h-127l8 49h126l29 181h-127l8 49h127l31 196h55l-31 -196h161l31 196h54l-31 -196h126l-8 -49h-126zM253 429l-29 -181h161l29 181h-161z" />
    <glyph glyph-name="dollar" unicode="$" horiz-adv-x="544" 
d="M445 44.5q-53 -50.5 -146 -56.5v-87h-54v87q-97 8 -148 67t-52 165h68q0 -80 32.5 -122.5t99.5 -50.5v274q-59 17 -98 36t-64 56t-25 98q0 77 49.5 123.5t137.5 51.5v78h54v-78q188 -15 188 -220h-67q0 78 -29.5 116.5t-91.5 44.5v-251q67 -19 107 -38.5t66 -58
t26 -104.5q0 -80 -53 -130.5zM154 433q28 -25 91 -43v238q-119 -9 -119 -117q0 -53 28 -78zM396 84q34 33 34 90q0 41 -15.5 65.5t-42 38.5t-73.5 28v-260q63 5 97 38z" />
    <glyph glyph-name="percent" unicode="%" horiz-adv-x="841" 
d="M202 -30l377 734h61l-378 -734h-60zM301 638.5q38 -48.5 38 -138.5q0 -89 -38.5 -137t-108.5 -48t-108.5 48t-38.5 137q0 90 38 138.5t109 48.5t109 -48.5zM131.5 598.5q-21.5 -34.5 -21.5 -98.5t21.5 -98t60.5 -34t61 34.5t22 97.5q0 64 -22 98.5t-61 34.5t-60.5 -34.5z
M758 310.5q38 -48.5 38 -137.5t-38 -137.5t-109 -48.5t-109 48.5t-38 137.5t38 137.5t109 48.5t109 -48.5zM588.5 271.5q-21.5 -34.5 -21.5 -98.5t21.5 -98t60.5 -34t61 34t22 98q0 63 -22 98t-61 35t-60.5 -34.5z" />
    <glyph glyph-name="ampersand" unicode="&#x26;" horiz-adv-x="724" 
d="M533 93q-43 -51 -102.5 -79t-128.5 -28q-71 0 -126 26t-85.5 71.5t-30.5 104.5q0 68 40 121.5t124 93.5q-51 53 -69 88t-18 83q0 67 45.5 109t116.5 42q74 0 118.5 -42t44.5 -109q0 -62 -31 -103.5t-109 -80.5l204 -202q49 87 49 209h65q0 -72 -17.5 -137t-50.5 -117
l144 -143h-90zM225 643.5q-27 -25.5 -27 -70.5q0 -35 17 -64t68 -81q69 34 93.5 67.5t24.5 77.5q0 43 -27 69.5t-75 26.5q-47 0 -74 -25.5zM406.5 67.5q47.5 23.5 84.5 67.5l-229 229q-75 -37 -104.5 -77.5t-29.5 -97.5q0 -41 22 -74t61.5 -52t91.5 -19q56 0 103.5 23.5z
" />
    <glyph glyph-name="quotesingle" unicode="'" horiz-adv-x="207" 
d="M81 454l-10 258h65l-10 -258h-45z" />
    <glyph glyph-name="parenleft" unicode="(" horiz-adv-x="274" 
d="M153 526q-29 -105 -29 -229t29 -229t91 -215h-57q-66 101 -99 207.5t-33 236.5t33 236.5t99 207.5h57q-62 -110 -91 -215z" />
    <glyph glyph-name="parenright" unicode=")" horiz-adv-x="274" 
d="M186.5 533.5q32.5 -106.5 32.5 -236.5t-32.5 -236.5t-98.5 -207.5h-58q63 109 91.5 214t28.5 230t-28.5 230t-91.5 214h58q66 -101 98.5 -207.5z" />
    <glyph glyph-name="asterisk" unicode="*" horiz-adv-x="398" 
d="M342 630l22 -66l-134 -23l91 -98l-56 -43l-66 122l-66 -122l-57 43l91 98l-133 23l22 66l125 -56l-16 138h68l-16 -138z" />
    <glyph glyph-name="plus" unicode="+" horiz-adv-x="566" 
d="M492 345v-57h-181v-180h-56v180h-181v57h181v181h56v-181h181z" />
    <glyph glyph-name="comma" unicode="," horiz-adv-x="210" 
d="M107 -130h-45l30 130h-30v92h86v-92z" />
    <glyph glyph-name="hyphen" unicode="-" horiz-adv-x="290" 
d="M30 261v62h230v-62h-230z" />
    <glyph glyph-name="period" unicode="." horiz-adv-x="210" 
d="M62 0v92h86v-92h-86z" />
    <glyph glyph-name="slash" unicode="/" horiz-adv-x="442" 
d="M30 -89l297 834h64l-297 -834h-64z" />
    <glyph glyph-name="zero" unicode="0" horiz-adv-x="544" 
d="M444 597.5q59 -89.5 59 -260.5q0 -170 -59.5 -260t-171.5 -90q-113 0 -172.5 90t-59.5 260q0 171 59.5 260.5t172.5 89.5t172 -89.5zM150.5 552.5q-41.5 -73.5 -41.5 -215.5t41.5 -216.5t121.5 -74.5t121.5 74.5t41.5 216.5t-41.5 215.5t-121.5 73.5t-121.5 -73.5z" />
    <glyph glyph-name="one" unicode="1" horiz-adv-x="544" 
d="M254 0v509h-145v53q77 0 112.5 25.5t45.5 86.5h52v-674h-65z" />
    <glyph glyph-name="two" unicode="2" horiz-adv-x="544" 
d="M378.5 663.5q46.5 -23.5 72 -65.5t25.5 -96q0 -56 -23.5 -96.5t-63 -71t-106.5 -69.5q-69 -40 -105 -72.5t-49.5 -63t-13.5 -70.5h376v-59h-442q-1 7 -1 19q0 68 15 114t58 89.5t127 92.5q61 35 93 59t49.5 54t17.5 73q0 56 -37.5 90.5t-99.5 34.5q-69 0 -105 -37
t-41 -106h-68q4 95 62.5 149.5t152.5 54.5q60 0 106.5 -23.5z" />
    <glyph glyph-name="three" unicode="3" horiz-adv-x="544" 
d="M419.5 637.5q57.5 -49.5 57.5 -131.5q0 -61 -28.5 -99.5t-87.5 -60.5v-2q65 -22 96.5 -63t31.5 -106q0 -54 -28.5 -97t-79.5 -67t-116 -24q-103 0 -161 55.5t-58 152.5h68q0 -73 38.5 -110.5t112.5 -37.5q69 0 112.5 36t43.5 94q0 66 -45 101t-129 35h-29v59h29
q76 0 119.5 35t43.5 94q0 57 -41 91.5t-108 34.5q-68 0 -105.5 -36.5t-37.5 -107.5h-67q0 96 57.5 150t155.5 54t155.5 -49.5z" />
    <glyph glyph-name="four" unicode="4" horiz-adv-x="544" 
d="M399 185v-185h-64v185h-313v64l291 425h86v-432h119v-57h-119zM336 242v98v264h-2l-99 -145l-66 -97l-82 -120h249z" />
    <glyph glyph-name="five" unicode="5" horiz-adv-x="544" 
d="M155 615l-21 -233h2q22 28 59 43.5t79 15.5q98 0 156 -60t58 -162q0 -70 -27.5 -122.5t-78.5 -81t-118 -28.5q-94 0 -150.5 51t-56.5 139h67q1 -61 39.5 -95.5t99.5 -34.5q72 0 114.5 46t42.5 124q0 76 -40.5 120t-109.5 44q-55 0 -92 -27.5t-51 -80.5l-66 5l37 396h360
v-59h-303z" />
    <glyph glyph-name="six" unicode="6" horiz-adv-x="544" 
d="M425 639q52 -48 62 -133h-68q-11 59 -44 90t-87 31q-81 0 -127 -70.5t-49 -211.5h2q30 46 73.5 70t98.5 24q62 0 110 -27.5t74.5 -78t26.5 -116.5q0 -68 -27.5 -120t-77.5 -81t-114 -29q-111 0 -169.5 81t-58.5 241q0 184 62 281t176 97q85 0 137 -48zM169 334.5
q-43 -45.5 -43 -116.5q0 -78 41 -124.5t111 -46.5q68 0 109.5 46.5t41.5 123.5q0 73 -41.5 118t-108.5 45t-110 -45.5z" />
    <glyph glyph-name="seven" unicode="7" horiz-adv-x="544" 
d="M342.5 339.5q-65.5 -154.5 -103.5 -339.5h-74q86 363 255 615h-377v59h448v-60q-83 -120 -148.5 -274.5z" />
    <glyph glyph-name="eight" unicode="8" horiz-adv-x="544" 
d="M381 663.5q48 -23.5 75.5 -65.5t27.5 -95t-30.5 -91.5t-85.5 -61.5v-2q63 -21 96 -62.5t33 -102.5q0 -58 -28.5 -102.5t-80 -69t-116.5 -24.5q-66 0 -117 24.5t-79.5 69t-28.5 102.5q0 61 33 102.5t95 62.5v2q-55 23 -85 61.5t-30 91.5t27.5 95t75.5 65.5t109 23.5
t109 -23.5zM167 593q-40 -34 -40 -90q0 -57 39.5 -91.5t105.5 -34.5t105 34.5t39 91.5q0 56 -40 90t-104 34q-65 0 -105 -34zM159 280.5q-44 -37.5 -44 -95.5q0 -63 43 -100t114 -37q70 0 113.5 37.5t43.5 99.5q0 58 -44 95.5t-113 37.5t-113 -37.5z" />
    <glyph glyph-name="nine" unicode="9" horiz-adv-x="544" 
d="M117 35q-52 48 -62 133h68q11 -59 44 -90t88 -31q81 0 126.5 70.5t48.5 211.5h-2q-29 -46 -72.5 -70t-99.5 -24q-62 0 -110 28t-74.5 78t-26.5 116q0 68 27.5 120t77.5 81t115 29q111 0 169.5 -81t58.5 -241q0 -184 -62.5 -281t-176.5 -97q-85 0 -137 48zM373.5 339.5
q42.5 45.5 42.5 116.5q0 78 -40.5 124.5t-110.5 46.5q-68 0 -109.5 -46.5t-41.5 -123.5q0 -73 41 -118t109 -45q67 0 109.5 45.5z" />
    <glyph glyph-name="colon" unicode=":" horiz-adv-x="210" 
d="M62 0v92h86v-92h-86zM62 416v92h86v-92h-86z" />
    <glyph glyph-name="semicolon" unicode=";" horiz-adv-x="210" 
d="M107 -130h-45l30 130h-30v92h86v-92zM62 416v92h86v-92h-86z" />
    <glyph glyph-name="less" unicode="&#x3c;" horiz-adv-x="566" 
d="M133 318v-2l359 -151v-62l-418 176v76l418 176v-62z" />
    <glyph glyph-name="equal" unicode="=" horiz-adv-x="566" 
d="M74 365v56h418v-56h-418zM74 212v56h418v-56h-418z" />
    <glyph glyph-name="greater" unicode="&#x3e;" horiz-adv-x="566" 
d="M492 279l-418 -176v62l359 151v2l-359 151v62l418 -176v-76z" />
    <glyph glyph-name="question" unicode="?" horiz-adv-x="501" 
d="M360.5 702.5q47.5 -22.5 74 -63t26.5 -92.5q0 -37 -8.5 -63.5t-32 -54.5t-69.5 -66q-41 -34 -60 -58.5t-25.5 -57t-6.5 -92.5h-58v29q0 55 8.5 89t30.5 62.5t66 66.5q38 33 56 55t24.5 41.5t6.5 47.5q0 55 -38.5 87.5t-102.5 32.5q-70 0 -109.5 -36.5t-43.5 -106.5h-64
q5 98 61.5 150t155.5 52q61 0 108.5 -22.5zM191 0v93h78v-93h-78z" />
    <glyph glyph-name="at" unicode="@" horiz-adv-x="865" 
d="M637 643q84 -45 129.5 -127t45.5 -190q0 -81 -25 -137t-66.5 -83.5t-91.5 -27.5q-91 0 -104 93h-2q-43 -93 -141 -93q-67 0 -105.5 50t-39.5 142q0 73 24 129t66.5 87.5t96.5 31.5q89 0 121 -84h2q5 37 13 74h58q-18 -84 -30 -169.5t-12 -126.5q0 -81 62 -81
q50 0 83.5 49.5t33.5 145.5q0 93 -38.5 163t-109.5 108t-165 38q-103 0 -178 -47.5t-114 -129t-39 -183.5q0 -100 39 -173t110 -111.5t167 -38.5q130 0 221 57l25 -46q-104 -64 -246 -64q-113 0 -197.5 45t-130 130t-45.5 201q0 115 46.5 209t134.5 149t207 55
q111 0 195 -45zM364 440q-30 -24 -47 -68t-17 -102q0 -67 25.5 -102t72.5 -35q54 0 90.5 53t36.5 158q0 57 -24 88.5t-69 31.5q-38 0 -68 -24z" />
    <glyph glyph-name="A" unicode="A" horiz-adv-x="664" 
d="M165 230l-89 -230h-70l282 712h89l281 -712h-70l-89 230h-334zM447 364l-114 295h-2l-12 -31q-52 -137 -102 -264l-29 -74h287z" />
    <glyph glyph-name="B" unicode="B" horiz-adv-x="615" 
d="M494 663.5q58 -48.5 58 -131.5q0 -59 -30 -102.5t-86 -63.5v-2q60 -15 95.5 -60t35.5 -108q0 -90 -60.5 -143t-168.5 -53h-237v712h221q114 0 172 -48.5zM166 392h147q90 0 131.5 35t41.5 96q0 132 -170 132h-150v-263zM166 57h164q84 0 126.5 35.5t42.5 104.5
q0 66 -45 102t-141 36h-147v-278z" />
    <glyph glyph-name="C" unicode="C" horiz-adv-x="683" 
d="M494.5 692.5q61.5 -32.5 95.5 -89.5t38 -129h-68q-8 87 -64.5 138.5t-144.5 51.5q-73 0 -126.5 -37t-82 -106.5t-28.5 -164.5t28.5 -164.5t81.5 -106.5t125 -37q87 0 145 52.5t70 141.5h68q-8 -77 -44 -134.5t-97.5 -89t-141.5 -31.5q-93 0 -161.5 44.5t-105.5 127.5
t-37 197t37 197t106 127.5t163 44.5q82 0 143.5 -32.5z" />
    <glyph glyph-name="D" unicode="D" horiz-adv-x="718" 
d="M578 619.5q95 -92.5 95 -263.5t-95 -263.5t-269 -92.5h-208v712h208q174 0 269 -92.5zM166 59h143q142 0 218.5 77t76.5 220t-76.5 220t-218.5 77h-143v-594z" />
    <glyph glyph-name="E" unicode="E" horiz-adv-x="610" 
d="M166 653v-258h359v-59h-359v-277h390v-59h-455v712h443v-59h-378z" />
    <glyph glyph-name="F" unicode="F" horiz-adv-x="568" 
d="M166 653v-269h346v-59h-346v-325h-65v712h433v-59h-368z" />
    <glyph glyph-name="G" unicode="G" horiz-adv-x="724" 
d="M498 697.5q60 -27.5 96 -78t42 -117.5h-68q-13 77 -67 119.5t-141 42.5q-76 0 -131.5 -37.5t-85 -107.5t-29.5 -165t28.5 -164t81.5 -105.5t126 -36.5q101 0 162.5 63.5t61.5 201.5h-209v59h272v-372h-61v109h-2q-27 -55 -90 -88t-141 -33q-91 0 -158 44t-103.5 126.5
t-36.5 195.5q0 114 38 197.5t109 128.5t168 45q78 0 138 -27.5z" />
    <glyph glyph-name="H" unicode="H" horiz-adv-x="731" 
d="M565 0v340h-399v-340h-65v712h65v-313h399v313h65v-712h-65z" />
    <glyph glyph-name="I" unicode="I" horiz-adv-x="267" 
d="M101 0v712h65v-712h-65z" />
    <glyph glyph-name="J" unicode="J" horiz-adv-x="337" 
d="M194 45.5q-48 -49.5 -137 -49.5q-24 0 -42 5v60q21 -4 41 -4q60 0 90 33.5t30 104.5v517h66v-519q0 -98 -48 -147.5z" />
    <glyph glyph-name="K" unicode="K" horiz-adv-x="607" 
d="M602 0h-91l-343 357h-2v-357h-65v712h65v-325h2l314 325h88l-331 -340z" />
    <glyph glyph-name="L" unicode="L" horiz-adv-x="553" 
d="M543 59v-59h-442v712h65v-653h377z" />
    <glyph glyph-name="M" unicode="M" horiz-adv-x="909" 
d="M743 0v365q0 184 1 276h-2l-108 -278l-142 -363h-76l-141 363l-108 278h-2q1 -92 1 -276v-365h-65v712h105l141 -364l106 -278h2l107 278l141 364h105v-712h-65z" />
    <glyph glyph-name="N" unicode="N" horiz-adv-x="745" 
d="M545 0l-185 316l-105 179q-58 102 -88 152h-2l1 -356v-291h-65v712h99l185 -316l105 -179q58 -102 88 -152h2q-1 119 -1 356v291h65v-712h-99z" />
    <glyph glyph-name="O" unicode="O" horiz-adv-x="724" 
d="M529.5 679.5q71.5 -45.5 110 -128.5t38.5 -195t-38.5 -195t-110 -128.5t-167.5 -45.5t-167.5 45.5t-110.5 129t-39 194.5t39 194.5t110.5 129t167.5 45.5t167.5 -45.5zM231 626.5q-56 -37.5 -86.5 -107.5t-30.5 -163t30.5 -163t86.5 -107.5t131 -37.5t131 38t86.5 107.5
t30.5 162.5t-30.5 162.5t-86.5 107.5t-131 38t-131 -37.5z" />
    <glyph glyph-name="P" unicode="P" horiz-adv-x="606" 
d="M513 656.5q63 -55.5 63 -151.5t-63 -152t-180 -56h-167v-297h-65v712h232q117 0 180 -55.5zM166 356h166q86 0 131 39t45 110q0 70 -45 109t-131 39h-166v-297z" />
    <glyph glyph-name="Q" unicode="Q" horiz-adv-x="723" 
d="M654 201q-23 -70 -66 -119l79 -84l-45 -43l-79 86q-76 -54 -178 -54q-97 0 -169 45.5t-111.5 128.5t-39.5 195t39.5 195t111.5 128.5t169 45.5q95 0 165.5 -45.5t108.5 -128.5t38 -195q0 -85 -23 -155zM498 89l-91 98l45 42l91 -98q32 41 49 98t17 127q0 93 -30 162.5
t-85 107.5t-129 38q-76 0 -133 -38t-87.5 -107.5t-30.5 -162.5t30.5 -163t87.5 -107.5t133 -37.5q77 0 133 41z" />
    <glyph glyph-name="R" unicode="R" horiz-adv-x="627" 
d="M493.5 663q60.5 -49 60.5 -141q0 -69 -38 -117.5t-100 -61.5v-2q39 -12 60.5 -39.5t45.5 -93.5l75 -208h-71l-68 198q-23 66 -54 91t-91 25h-147v-314h-65v712h209q123 0 183.5 -49zM166 373h148q86 0 129.5 40t43.5 106q0 134 -178 134h-143v-280z" />
    <glyph glyph-name="S" unicode="S" horiz-adv-x="599" 
d="M467.5 666q62.5 -59 62.5 -175h-66q0 175 -182 175q-75 0 -116 -34.5t-41 -94.5q0 -41 19.5 -66.5t57 -41t103.5 -31.5q81 -20 130 -41t78.5 -60.5t29.5 -106.5q0 -93 -65.5 -148t-177.5 -55q-122 0 -188.5 64t-66.5 186h65q0 -97 50 -143.5t140 -46.5q86 0 131.5 37
t45.5 105q0 43 -20.5 68.5t-59 41t-108.5 33.5q-80 20 -127.5 41t-75 59.5t-27.5 103.5q0 56 26.5 98.5t77 66.5t119.5 24q123 0 185.5 -59z" />
    <glyph glyph-name="T" unicode="T" horiz-adv-x="592" 
d="M328 653v-653h-65v653h-253v59h572v-59h-254z" />
    <glyph glyph-name="U" unicode="U" horiz-adv-x="699" 
d="M539 57.5q-65 -70.5 -189 -70.5t-189.5 71t-65.5 206v448h65v-447q0 -108 49.5 -162.5t140.5 -54.5q90 0 139.5 54.5t49.5 162.5v447h65v-448q0 -136 -65 -206.5z" />
    <glyph glyph-name="V" unicode="V" horiz-adv-x="617" 
d="M265 0l-258 712h69l121 -337l111 -312h2l110 312l121 337h69l-257 -712h-88z" />
    <glyph glyph-name="W" unicode="W" horiz-adv-x="896" 
d="M609 0l-80 325q-54 218 -80 327h-2q-26 -109 -80 -327l-80 -325h-102l-174 712h66l74 -303q29 -116 85 -348h2l86 350l74 301h100l74 -301l86 -350h2l84 348l75 303h66l-174 -712h-102z" />
    <glyph glyph-name="X" unicode="X" horiz-adv-x="617" 
d="M607 0h-80l-218 313h-2l-218 -313h-79l258 367l-244 345h79l204 -292h2l205 292h79l-244 -345z" />
    <glyph glyph-name="Y" unicode="Y" horiz-adv-x="602" 
d="M334 0h-66v304l-263 408h77l98 -154l120 -191h2q80 128 121 191l97 154h77l-263 -408v-304z" />
    <glyph glyph-name="Z" unicode="Z" horiz-adv-x="558" 
d="M92 61v-2h448v-59h-523v68l429 583v2h-420v59h495v-68z" />
    <glyph glyph-name="bracketleft" unicode="[" horiz-adv-x="281" 
d="M140 693v-793h121v-48h-182v889h182v-48h-121z" />
    <glyph glyph-name="backslash" unicode="\" horiz-adv-x="442" 
d="M412 -89h-64l-297 834h64z" />
    <glyph glyph-name="bracketright" unicode="]" horiz-adv-x="281" 
d="M202 -148h-182v48h121v793h-121v48h182v-889z" />
    <glyph glyph-name="asciicircum" unicode="^" horiz-adv-x="426" 
d="M354 371l-140 290h-2l-140 -290h-59l166 341h68l166 -341h-59z" />
    <glyph glyph-name="underscore" unicode="_" horiz-adv-x="500" 
d="M0 -88v38h500v-38h-500z" />
    <glyph glyph-name="grave" unicode="`" horiz-adv-x="274" 
d="M224 571h-59l-115 141h84z" />
    <glyph glyph-name="a" unicode="a" horiz-adv-x="524" 
d="M395.5 472q50.5 -49 50.5 -146v-201q0 -72 11 -125h-58q-7 34 -7 77h-2q-52 -87 -181 -87q-77 0 -124.5 41t-47.5 105q0 65 43.5 102t149.5 54q73 12 156 18v24q0 68 -35 101t-95 33q-62 0 -96 -30.5t-37 -82.5h-65q5 74 56.5 120t141.5 46q89 0 139.5 -49zM238 240
q-75 -11 -105 -34t-30 -66q0 -45 31.5 -71.5t87.5 -26.5q35 0 65.5 11.5t51.5 33.5q27 28 37 55.5t10 76.5v39q-65 -5 -148 -18z" />
    <glyph glyph-name="b" unicode="b" horiz-adv-x="565" 
d="M147 433q20 40 63 64t97 24q65 0 113.5 -32.5t74.5 -93t26 -140.5t-26 -140.5t-74.5 -93t-113.5 -32.5q-54 0 -97 24t-63 64h-2v-77h-62v712h62v-279h2zM184 410.5q-42 -58.5 -42 -155.5t42 -155.5t113 -58.5q73 0 116 58t43 156t-43 156t-116 58q-71 0 -113 -58.5z" />
    <glyph glyph-name="c" unicode="c" horiz-adv-x="521" 
d="M416.5 469q56.5 -52 63.5 -136h-65q-5 59 -44 96.5t-97 37.5q-76 0 -119.5 -57t-43.5 -156q0 -100 43.5 -156.5t119.5 -56.5q57 0 96.5 40.5t44.5 99.5h65q-5 -55 -31.5 -99t-71.5 -69.5t-103 -25.5q-107 0 -168.5 71.5t-61.5 195.5t61.5 195.5t168.5 71.5
q86 0 142.5 -52z" />
    <glyph glyph-name="d" unicode="d" horiz-adv-x="565" 
d="M420 0v77h-2q-20 -40 -63 -64t-97 -24q-65 0 -113.5 32.5t-74.5 93t-26 140.5t26 140.5t74.5 93t113.5 32.5q54 0 97 -24t63 -64h2v279h62v-712h-62zM152 411q-43 -58 -43 -156t43 -156t116 -58q71 0 113 58.5t42 155.5t-42 155.5t-113 58.5q-73 0 -116 -58z" />
    <glyph glyph-name="e" unicode="e" horiz-adv-x="539" 
d="M376 70.5q39 30.5 51 80.5h64q-13 -70 -68.5 -117t-146.5 -47q-108 0 -170 74.5t-62 201.5q0 75 27.5 133.5t79 91.5t121.5 33q85 0 141.5 -48t73.5 -133q8 -36 8 -98h-388q2 -98 49 -150t120 -52q61 0 100 30.5zM157 421q-45 -47 -49 -128h327q-5 83 -49 129t-114 46
t-115 -47z" />
    <glyph glyph-name="f" unicode="f" horiz-adv-x="287" 
d="M186 642q-18 -21 -18 -69v-65h103v-52h-103v-456h-62v456h-91v52h91v71q0 137 125 137q20 0 42 -4v-53q-14 4 -32 4q-37 0 -55 -21z" />
    <glyph glyph-name="g" unicode="g" horiz-adv-x="565" 
d="M352.5 498q40.5 -23 65.5 -66h2v76h62v-477q0 -110 -54 -166.5t-159 -56.5q-95 0 -149 42.5t-55 117.5h63q1 -51 39 -79.5t102 -28.5q77 0 114 42.5t37 131.5v60h-2q-26 -43 -66.5 -66t-89.5 -23q-66 0 -115 32t-76 90.5t-27 135.5t27 135.5t76 90.5t115 32
q50 0 90.5 -23zM151 412q-42 -56 -42 -149t42 -149t113 -56q74 0 116.5 55t42.5 150t-42.5 150t-116.5 55q-71 0 -113 -56z" />
    <glyph glyph-name="h" unicode="h" 
d="M147 440q25 39 67 59t90 20q88 0 134.5 -53t46.5 -157v-309h-62v306q0 86 -33 122.5t-97 36.5q-40 0 -74 -19t-54 -56t-20 -89v-301h-62v712h62v-272h2z" />
    <glyph glyph-name="i" unicode="i" horiz-adv-x="228" 
d="M83 0v508h62v-508h-62zM83 624v88h62v-88h-62z" />
    <glyph glyph-name="j" unicode="j" horiz-adv-x="235" 
d="M19 -189q-19 0 -36 4v54q16 -3 30 -3q38 0 57.5 22.5t19.5 75.5v544h62v-545q0 -152 -133 -152zM90 624v88h62v-88h-62z" />
    <glyph glyph-name="k" unicode="k" horiz-adv-x="479" 
d="M400 0l-253 262h-2v-262h-62v712h62v-417h2l226 213h84l-246 -228l275 -280h-86z" />
    <glyph glyph-name="l" unicode="l" horiz-adv-x="228" 
d="M83 0v712h62v-712h-62z" />
    <glyph glyph-name="m" unicode="m" horiz-adv-x="845" 
d="M724.5 467.5q42.5 -51.5 42.5 -152.5v-315h-62v311q0 84 -28.5 119t-85.5 35q-61 0 -98 -45t-37 -119v-301h-62v327q0 65 -30 101.5t-84 36.5q-61 0 -98 -47t-37 -125v-293h-62v508h62v-66h2q55 77 142 77q52 0 92 -26.5t59 -74.5q24 49 65 75t96 26q81 0 123.5 -51.5z
" />
    <glyph glyph-name="n" unicode="n" 
d="M438.5 466q46.5 -53 46.5 -157v-309h-62v306q0 86 -33 122.5t-97 36.5q-40 0 -74 -19t-54 -56t-20 -89v-301h-62v508h61v-69h2q24 37 65.5 58.5t92.5 21.5q88 0 134.5 -53z" />
    <glyph glyph-name="o" unicode="o" horiz-adv-x="552" 
d="M446 449.5q62 -71.5 62 -195.5t-62 -195.5t-170 -71.5t-170 71.5t-62 195.5t62 195.5t170 71.5t170 -71.5zM153.5 410q-44.5 -57 -44.5 -156t44.5 -156t122.5 -57q79 0 123.5 57t44.5 156t-44.5 156t-123.5 57q-78 0 -122.5 -57z" />
    <glyph glyph-name="p" unicode="p" horiz-adv-x="565" 
d="M420.5 488.5q48.5 -32.5 74.5 -93t26 -140.5t-26 -140.5t-74.5 -93t-113.5 -32.5q-54 0 -97 24t-63 64h-2v-262h-62v693h62v-75h2q20 40 63 64t97 24q65 0 113.5 -32.5zM184 410.5q-42 -58.5 -42 -155.5t42 -155.5t113 -58.5q73 0 116 58t43 156t-43 156t-116 58
q-71 0 -113 -58.5z" />
    <glyph glyph-name="q" unicode="q" horiz-adv-x="565" 
d="M355 497q43 -24 63 -64h2v75h62v-693h-62v262h-2q-20 -40 -63 -64t-97 -24q-65 0 -113.5 32.5t-74.5 93t-26 140.5t26 140.5t74.5 93t113.5 32.5q54 0 97 -24zM152 411q-43 -58 -43 -156t43 -156t116 -58q71 0 113 58.5t42 155.5t-42 155.5t-113 58.5q-73 0 -116 -58z
" />
    <glyph glyph-name="r" unicode="r" horiz-adv-x="347" 
d="M335 509v-59q-16 2 -32 2q-76 0 -117 -48t-41 -136v-268h-62v508h61v-80h2q25 41 65 62.5t90 21.5q19 0 34 -3z" />
    <glyph glyph-name="s" unicode="s" horiz-adv-x="479" 
d="M370 475.5q50 -45.5 51 -128.5h-62q0 57 -34 88.5t-95 31.5q-52 0 -83.5 -23t-31.5 -61q0 -30 13 -46t36.5 -24t78.5 -21q66 -15 103 -28.5t63.5 -44t26.5 -84.5q0 -66 -52 -107t-138 -41q-96 0 -150 48t-55 136h63q0 -62 37 -96t105 -34q57 0 92.5 25t35.5 65
q0 33 -15 51t-44 28t-92 25q-59 14 -91.5 26t-55.5 40t-23 77q0 64 49.5 103.5t127.5 39.5q90 0 140 -45.5z" />
    <glyph glyph-name="t" unicode="t" horiz-adv-x="302" 
d="M273 55v-53q-22 -5 -46 -5q-66 0 -95 32t-29 105v322h-91v52h91v118h62v-118h103v-52h-103v-321q0 -45 16.5 -64.5t56.5 -19.5q19 0 35 4z" />
    <glyph glyph-name="u" unicode="u" 
d="M124.5 42q-46.5 53 -46.5 157v309h62v-306q0 -86 33 -122.5t97 -36.5q40 0 74 19t54 56t20 89v301h62v-508h-61v69h-2q-23 -37 -64.5 -58.5t-93.5 -21.5q-88 0 -134.5 53z" />
    <glyph glyph-name="v" unicode="v" horiz-adv-x="450" 
d="M185 0l-190 508h67l80 -220l82 -228h2l82 228l80 220h67l-190 -508h-80z" />
    <glyph glyph-name="w" unicode="w" horiz-adv-x="750" 
d="M506 0l-66 230q-40 138 -64 222h-2q-24 -84 -64 -222l-66 -230h-89l-147 508h64l62 -220l60 -212q1 -5 5 -20h2l63 225l64 227h94l64 -227l63 -225h2q4 15 5 20l60 212l62 220h64l-147 -508h-89z" />
    <glyph glyph-name="x" unicode="x" horiz-adv-x="467" 
d="M467 0h-77l-156 219h-2l-156 -219h-76l196 266l-178 242h76l138 -198h2l139 198h75l-178 -242z" />
    <glyph glyph-name="y" unicode="y" horiz-adv-x="456" 
d="M198 -126q-26 -35 -59 -49t-84 -14q-22 0 -37 4v55q15 -4 36 -4q38 0 61 10.5t40.5 38.5t39.5 85l-200 508h67l165 -429h2l165 429h67l-210 -532q-27 -67 -53 -102z" />
    <glyph glyph-name="z" unicode="z" horiz-adv-x="461" 
d="M102 56v-2h334v-54h-411v58l324 394v2h-314v54h391v-58z" />
    <glyph glyph-name="braceleft" unicode="{" horiz-adv-x="283" 
d="M188 672q-21 -24 -21 -81v-173q0 -51 -17.5 -78t-61.5 -42v-3q44 -15 61.5 -42t17.5 -78v-173q0 -57 21 -81t71 -25v-44h-22q-67 0 -98.5 37t-31.5 117v167q0 45 -15 67t-52 33v47q37 11 52 33t15 67v167q0 80 31.5 117t98.5 37h22v-44q-50 -1 -71 -25z" />
    <glyph glyph-name="bar" unicode="|" horiz-adv-x="262" 
d="M102 -205v937h58v-937h-58z" />
    <glyph glyph-name="braceright" unicode="}" horiz-adv-x="283" 
d="M144 704q32 -37 32 -117v-167q0 -45 14.5 -67t52.5 -33v-47q-38 -11 -52.5 -33t-14.5 -67v-167q0 -80 -32 -117t-99 -37h-22v44q50 1 71 25t21 81v173q0 51 17.5 78t61.5 42v3q-44 15 -61.5 42t-17.5 78v173q0 57 -21 81t-71 25v44h22q67 0 99 -37z" />
    <glyph glyph-name="asciitilde" unicode="~" horiz-adv-x="578" 
d="M234.5 389q29.5 -16 70.5 -49q34 -28 57.5 -41.5t51.5 -13.5q41 0 65.5 30t24.5 79h49q0 -74 -39 -120t-101 -46q-40 0 -70 16.5t-70 49.5q-36 29 -58.5 42t-50.5 13q-41 0 -65.5 -30t-24.5 -79h-49q0 74 39 119.5t102 45.5q39 0 68.5 -16z" />
    <glyph glyph-name="uni00A0" unicode="&#xa0;" horiz-adv-x="230" 
 />
    <glyph glyph-name="exclamdown" unicode="&#xa1;" horiz-adv-x="251" 
d="M165 508v-93h-79v93h79zM151 344l16 -548h-83l16 548h51z" />
    <glyph glyph-name="cent" unicode="&#xa2;" horiz-adv-x="544" 
d="M389.5 172.5q30.5 38.5 34.5 88.5h66q-6 -77 -54.5 -130t-123.5 -62v-92h-54v91q-96 9 -150 79t-54 187t54 187t150 79v87h54v-88q75 -8 123.5 -59t54.5 -127h-65q-4 51 -35 87t-78 44v-420q47 10 77.5 48.5zM156.5 188.5q36.5 -55.5 101.5 -65.5v422
q-65 -10 -101.5 -65.5t-36.5 -145.5t36.5 -145.5z" />
    <glyph glyph-name="sterling" unicode="&#xa3;" horiz-adv-x="544" 
d="M496 56v-56h-472v56q100 0 100 136v109h-100v56h100v122q0 102 49.5 155t140.5 53q87 0 136.5 -53t49.5 -147h-62q0 68 -33 104t-91 36q-62 0 -94.5 -38t-32.5 -110v-122h127v-56h-127v-109q0 -52 -11 -83t-37 -51v-2h357z" />
    <glyph glyph-name="currency" unicode="&#xa4;" horiz-adv-x="544" 
d="M438 154l79 -82l-45 -43l-77 83q-53 -36 -123 -36q-71 0 -123 36l-78 -83l-44 43l78 83q-41 57 -41 136t41 136l-78 83l44 43l78 -83q52 36 123 36q70 0 123 -36l77 83l45 -43l-79 -82q42 -56 42 -137t-42 -137zM378.5 177.5q39.5 42.5 39.5 113.5t-39.5 113.5
t-106.5 42.5t-107 -42.5t-40 -113.5t40 -113.5t107 -42.5t106.5 42.5z" />
    <glyph glyph-name="yen" unicode="&#xa5;" horiz-adv-x="544" 
d="M483 367v-53h-179v-65h179v-53h-179v-196h-65v196h-179v53h179v65h-179v53h145l-198 307h77l67 -106l120 -192h2l120 192l67 106h76l-198 -307h145z" />
    <glyph glyph-name="brokenbar" unicode="&#xa6;" horiz-adv-x="262" 
d="M102 382v350h58v-350h-58zM102 -205v350h58v-350h-58z" />
    <glyph glyph-name="section" unicode="&#xa7;" horiz-adv-x="545" 
d="M389.5 682.5q44.5 -42.5 45.5 -121.5h-63q-1 109 -109 109q-48 0 -75.5 -24t-27.5 -66q0 -30 11.5 -47.5t36 -31.5t90.5 -45q75 -35 113 -60t54 -54.5t16 -74.5q0 -94 -84 -144v-2q50 -41 50 -113q0 -73 -48 -114t-131 -41q-89 0 -136.5 44t-48.5 131h63q1 -60 30 -90
t92 -30q55 0 84.5 26.5t29.5 73.5q0 33 -13.5 53t-42 37.5t-93.5 48.5q-67 32 -101.5 56t-51 53.5t-16.5 75.5q0 44 20.5 80t59.5 60v2q-26 21 -37.5 46.5t-11.5 59.5q0 65 46.5 105t121.5 40q82 0 126.5 -42.5zM139 394.5q-15 -25.5 -15 -55.5q0 -42 29.5 -72.5
t109.5 -67.5q51 -22 92 -49q31 21 48.5 49t17.5 61q0 29 -11.5 50.5t-41 41.5t-85.5 45q-47 20 -97 48q-32 -25 -47 -50.5z" />
    <glyph glyph-name="dieresis" unicode="&#xa8;" horiz-adv-x="345" 
d="M50 624v88h61v-88h-61zM234 624v88h61v-88h-61z" />
    <glyph glyph-name="copyright" unicode="&#xa9;" horiz-adv-x="814" 
d="M594.5 677q81.5 -46 126 -129t44.5 -192t-44.5 -192t-126 -129t-187.5 -46t-187 46t-126 129t-45 192t45 192t126 129t187 46t187.5 -46zM241.5 639.5q-71.5 -40.5 -111 -113.5t-39.5 -170t39.5 -170t111 -113.5t165.5 -40.5t165.5 40.5t111 114t39.5 169.5t-39.5 169.5
t-111 114t-165.5 40.5t-165.5 -40.5zM541.5 557.5q49.5 -47.5 53.5 -121.5h-63q-5 51 -38 81t-86 30q-66 0 -103.5 -51t-37.5 -140t37.5 -140t102.5 -51q52 0 86 31t41 84h64q-8 -79 -58.5 -126t-132.5 -47q-95 0 -150 66.5t-55 182.5q0 115 55.5 182t150.5 67
q84 0 133.5 -47.5z" />
    <glyph glyph-name="ordfeminine" unicode="&#xaa;" horiz-adv-x="383" 
d="M291 660.5q37 -34.5 37 -103.5v-136q0 -53 9 -91h-49q-5 28 -5 53h-2q-38 -60 -129 -60q-57 0 -91.5 29t-34.5 75t32.5 72.5t110.5 38.5q62 9 107 12v14q0 45 -24 66t-65 21q-42 0 -65 -19.5t-25 -52.5h-56q3 51 41.5 83.5t104.5 32.5q67 0 104 -34.5zM176 494
q-52 -8 -72.5 -22t-20.5 -42q0 -29 21 -46t59 -17q24 0 45.5 7.5t34.5 20.5q19 19 26 37t7 51v23q-45 -3 -100 -12z" />
    <glyph glyph-name="guillemotleft" unicode="&#xab;" horiz-adv-x="430" 
d="M379 54h-62l-114 200l114 200h62l-112 -200zM226 54h-62l-114 200l114 200h62l-112 -200z" />
    <glyph glyph-name="logicalnot" unicode="&#xac;" horiz-adv-x="566" 
d="M436 144v249h-362v57h418v-306h-56z" />
    <glyph glyph-name="uni00AD" unicode="&#xad;" horiz-adv-x="290" 
d="M30 261v62h230v-62h-230z" />
    <glyph glyph-name="registered" unicode="&#xae;" horiz-adv-x="584" 
d="M421 693q56 -32 87 -89.5t31 -132.5t-31 -132.5t-87 -89.5t-129 -32t-129 32t-87 89.5t-31 132.5t31 132.5t87 89.5t129 32t129 -32zM179.5 665.5q-48.5 -27.5 -75.5 -78t-27 -116.5t27 -116.5t75.5 -78t112.5 -27.5t112.5 27.5t75.5 78t27 116.5t-27 116.5t-75.5 78
t-112.5 27.5t-112.5 -27.5zM375.5 611q27.5 -24 27.5 -68q0 -27 -15.5 -49.5t-40.5 -27.5v-2q15 -4 24.5 -14.5t17.5 -34.5l34 -100h-52l-27 85q-7 25 -21 35.5t-39 10.5h-53v-131h-47v320h112q52 0 79.5 -24zM231 488h53q70 0 70 55q0 50 -66 50h-57v-105z" />
    <glyph glyph-name="macron" unicode="&#xaf;" horiz-adv-x="363" 
d="M50 624v52h263v-52h-263z" />
    <glyph glyph-name="degree" unicode="&#xb0;" horiz-adv-x="309" 
d="M234 689q33 -33 33 -80t-33 -80t-80 -33q-46 0 -79 33t-33 80t33 80t79 33q47 0 80 -33zM106.5 657q-19.5 -20 -19.5 -48t19.5 -47.5t47.5 -19.5t48.5 19.5t20.5 47.5t-20.5 48t-48.5 20t-47.5 -20z" />
    <glyph glyph-name="plusminus" unicode="&#xb1;" horiz-adv-x="566" 
d="M492 366v-56h-181v-180h-56v180h-181v56h181v180h56v-180h181zM74 0v56h418v-56h-418z" />
    <glyph glyph-name="uni00B2" unicode="&#xb2;" horiz-adv-x="402" 
d="M312.5 775.5q41.5 -36.5 41.5 -95.5q0 -39 -17.5 -68.5t-46.5 -51t-75 -48.5q-69 -39 -93.5 -67.5t-24.5 -64.5h268v-50h-324q-2 5 -2 15q0 48 11 81.5t42 64t92 64.5t85.5 59t24.5 66q0 36 -24.5 58t-66.5 22q-92 0 -98 -94h-59q3 68 46 107t112 39q67 0 108.5 -36.5z
" />
    <glyph glyph-name="uni00B3" unicode="&#xb3;" horiz-adv-x="396" 
d="M307 776.5q42 -35.5 42 -93.5q0 -41 -19.5 -67.5t-61.5 -43.5v-2q47 -17 68 -44.5t21 -72.5q0 -58 -46 -95.5t-117 -37.5q-76 0 -119 40t-43 109h58q0 -98 104 -98q46 0 75 23t29 61q0 43 -30.5 66t-89.5 23h-18v50h18q52 0 82.5 22.5t30.5 62.5q0 37 -27 59t-73 22
q-97 0 -97 -95h-58q0 69 42.5 108t114.5 39t114 -35.5z" />
    <glyph glyph-name="acute" unicode="&#xb4;" horiz-adv-x="274" 
d="M50 571l90 141h84l-115 -141h-59z" />
    <glyph glyph-name="uni00B5" unicode="&#xb5;" horiz-adv-x="568" 
d="M491.5 66.5q10.5 -17.5 37.5 -17.5q13 0 24 4v-51q-20 -7 -47 -7q-40 0 -60 19t-24 63h-2q-20 -39 -61 -62t-92 -23q-86 0 -122 53v-230h-62v693h62v-303q0 -86 32 -123t95 -37q40 0 73.5 19.5t53.5 56.5t20 89v298h62v-375q0 -49 10.5 -66.5z" />
    <glyph glyph-name="paragraph" unicode="&#xb6;" horiz-adv-x="555" 
d="M453 667v-787h-48v787h-89v-787h-48v436h-40q-86 0 -137 54t-51 144q0 91 51 144.5t137 53.5h305v-45h-80z" />
    <glyph glyph-name="periodcentered" unicode="&#xb7;" horiz-adv-x="210" 
d="M62 260v91h86v-91h-86z" />
    <glyph glyph-name="cedilla" unicode="&#xb8;" horiz-adv-x="305" 
d="M177 -61q33 0 55.5 -19.5t22.5 -52.5q0 -36 -27 -60.5t-78 -24.5q-53 0 -100 27l15 32q37 -20 78 -20q29 0 44.5 11.5t15.5 32.5q0 20 -15 31.5t-41 11.5q-16 0 -31 -5l-16 18l53 79h43l-42 -63q10 2 23 2z" />
    <glyph glyph-name="uni00B9" unicode="&#xb9;" horiz-adv-x="248" 
d="M116 330v348h-105v45q56 0 82.5 18t33.5 61h45v-472h-56z" />
    <glyph glyph-name="ordmasculine" unicode="&#xba;" horiz-adv-x="405" 
d="M328.5 645q45.5 -50 45.5 -137q0 -88 -45.5 -138t-125.5 -50q-79 0 -125.5 50.5t-46.5 137.5t46.5 137t125.5 50q80 0 125.5 -50zM119.5 611q-30.5 -38 -30.5 -103t30.5 -103t83.5 -38q54 0 84.5 38t30.5 103t-30.5 103t-84.5 38q-53 0 -83.5 -38z" />
    <glyph glyph-name="guillemotright" unicode="&#xbb;" horiz-adv-x="430" 
d="M226 254l-114 -200h-62l112 200l-112 200h62zM380 254l-114 -200h-63l113 200l-113 200h63z" />
    <glyph glyph-name="onequarter" unicode="&#xbc;" horiz-adv-x="681" 
d="M99 270v291h-90v46q48 0 71.5 15.5t29.5 51.5h45v-404h-56zM65 0l392 674h65l-392 -674h-65zM605 103v-103h-56v103h-193v55l174 246h75v-251h67v-50h-67zM550 153v53v137h-2l-91 -128l-44 -62h137z" />
    <glyph glyph-name="onehalf" unicode="&#xbd;" horiz-adv-x="717" 
d="M99 270v291h-90v46q48 0 71.5 15.5t29.5 51.5h45v-404h-56zM65 0l392 674h65l-392 -674h-65zM640 381.5q36 -31.5 36 -82.5q0 -48 -31 -81t-89 -65q-56 -31 -76.5 -53.5t-20.5 -49.5h227v-50h-284q-1 4 -1 14q0 42 9.5 71t36.5 55.5t80 56.5q50 28 70.5 48.5t20.5 54.5
q0 27 -20 44t-54 17q-74 0 -79 -75h-57q2 59 40 93t97 34t95 -31.5z" />
    <glyph glyph-name="threequarters" unicode="&#xbe;" horiz-adv-x="808" 
d="M269 653q36 -30 36 -81q0 -34 -15 -56t-51 -38v-2q39 -16 56 -39.5t17 -60.5q0 -51 -39.5 -83t-102.5 -32q-67 0 -105 34.5t-38 96.5h57q0 -41 21.5 -60t64.5 -19q38 0 61 17.5t23 47.5q0 35 -26 53.5t-75 18.5h-13v50h13q43 0 68.5 18.5t25.5 49.5q0 29 -20.5 46
t-57.5 17q-40 0 -60.5 -18.5t-20.5 -57.5h-57q0 60 37.5 94t101.5 34q63 0 99 -30zM191 0l392 674h65l-392 -674h-65zM731 103v-103h-56v103h-193v55l174 246h75v-251h67v-50h-67zM676 153v53v137h-2l-91 -128l-44 -62h137z" />
    <glyph glyph-name="questiondown" unicode="&#xbf;" horiz-adv-x="466" 
d="M310 508v-93h-79v93h79zM140.5 -194.5q-47.5 22.5 -74 63t-26.5 92.5q0 37 8.5 63.5t32 54.5t69.5 66q41 34 60 58.5t25.5 57t6.5 92.5h58v-29q0 -55 -8.5 -89t-30.5 -62.5t-66 -66.5q-38 -33 -56 -55t-24.5 -41.5t-6.5 -47.5q0 -55 38.5 -87.5t102.5 -32.5
q70 0 109.5 36.5t43.5 106.5h64q-6 -98 -62 -150t-155 -52q-61 0 -108.5 22.5z" />
    <glyph glyph-name="Agrave" unicode="&#xc0;" horiz-adv-x="664" 
d="M165 230l-89 -230h-70l282 712h89l281 -712h-70l-89 230h-334zM447 364l-114 295h-2l-12 -31q-52 -137 -102 -264l-29 -74h287zM390 760h-59l-115 135h84z" />
    <glyph glyph-name="Aacute" unicode="&#xc1;" horiz-adv-x="664" 
d="M165 230l-89 -230h-70l282 712h89l281 -712h-70l-89 230h-334zM447 364l-114 295h-2l-12 -31q-52 -137 -102 -264l-29 -74h287zM274 760l90 135h84l-115 -135h-59z" />
    <glyph glyph-name="Acircumflex" unicode="&#xc2;" horiz-adv-x="664" 
d="M165 230l-89 -230h-70l282 712h89l281 -712h-70l-89 230h-334zM447 364l-114 295h-2l-12 -31q-52 -137 -102 -264l-29 -74h287zM368 895l114 -135h-69l-81 95l-80 -95h-69l114 135h71z" />
    <glyph glyph-name="Atilde" unicode="&#xc3;" horiz-adv-x="664" 
d="M165 230l-89 -230h-70l282 712h89l281 -712h-70l-89 230h-334zM447 364l-114 295h-2l-12 -31q-52 -137 -102 -264l-29 -74h287zM469.5 807q-24.5 -27 -65.5 -27q-21 0 -39.5 8t-41.5 22q-22 13 -35 18.5t-26 5.5q-20 0 -32 -14t-14 -40h-48q3 51 27.5 78t65.5 27
q21 0 38.5 -7t43.5 -22q19 -12 32.5 -18t27.5 -6q20 0 32 13.5t14 39.5h48q-3 -51 -27.5 -78z" />
    <glyph glyph-name="Adieresis" unicode="&#xc4;" horiz-adv-x="664" 
d="M165 230l-89 -230h-70l282 712h89l281 -712h-70l-89 230h-334zM447 364l-114 295h-2l-12 -31q-52 -137 -102 -264l-29 -74h287zM209 778v88h61v-88h-61zM393 778v88h61v-88h-61z" />
    <glyph glyph-name="Aring" unicode="&#xc5;" horiz-adv-x="664" 
d="M165 230l-89 -230h-70l282 712h89l281 -712h-70l-89 230h-334zM447 364l-114 295h-2l-12 -31q-52 -137 -102 -264l-29 -74h287zM400 918q28 -28 28 -68t-28 -68.5t-68 -28.5t-68.5 28.5t-28.5 68.5t28.5 68t68.5 28t68 -28zM289.5 891.5q-17.5 -17.5 -17.5 -41.5
q0 -25 17.5 -42.5t42.5 -17.5t42 17.5t17 42.5q0 24 -17 41.5t-42 17.5t-42.5 -17.5z" />
    <glyph glyph-name="AE" unicode="&#xc6;" horiz-adv-x="924" 
d="M869 0h-359l-37 247h-281l-124 -247h-74l357 712h506v-59h-380l39 -258h322v-59h-313l42 -277h302v-59zM412 653h-17l-174 -347h243z" />
    <glyph glyph-name="Ccedilla" unicode="&#xc7;" horiz-adv-x="683" 
d="M554 65.5q-67 -68.5 -175 -77.5l-34 -51q10 2 23 2q33 0 55.5 -19.5t22.5 -52.5q0 -36 -27 -60.5t-78 -24.5q-53 0 -100 27l15 32q37 -20 78 -20q29 0 44.5 11.5t15.5 32.5q0 20 -15 31.5t-41 11.5q-16 0 -31 -5l-16 18l44 66q-89 3 -154.5 48.5t-100.5 127.5t-35 193
q0 114 37 197t106 127.5t163 44.5q82 0 143.5 -32.5t95.5 -89.5t38 -129h-68q-8 87 -64.5 138.5t-144.5 51.5q-73 0 -126.5 -37t-82 -106.5t-28.5 -164.5t28.5 -164.5t81.5 -106.5t125 -37q87 0 145 52.5t70 141.5h68q-11 -108 -78 -176.5z" />
    <glyph glyph-name="Egrave" unicode="&#xc8;" horiz-adv-x="610" 
d="M166 653v-258h359v-59h-359v-277h390v-59h-455v712h443v-59h-378zM380 760h-59l-115 135h84z" />
    <glyph glyph-name="Eacute" unicode="&#xc9;" horiz-adv-x="610" 
d="M166 653v-258h359v-59h-359v-277h390v-59h-455v712h443v-59h-378zM265 760l90 135h84l-115 -135h-59z" />
    <glyph glyph-name="Ecircumflex" unicode="&#xca;" horiz-adv-x="610" 
d="M166 653v-258h359v-59h-359v-277h390v-59h-455v712h443v-59h-378zM358 895l114 -135h-69l-81 95l-80 -95h-69l114 135h71z" />
    <glyph glyph-name="Edieresis" unicode="&#xcb;" horiz-adv-x="610" 
d="M166 653v-258h359v-59h-359v-277h390v-59h-455v712h443v-59h-378zM199 778v88h61v-88h-61zM383 778v88h61v-88h-61z" />
    <glyph glyph-name="Igrave" unicode="&#xcc;" horiz-adv-x="267" 
d="M101 0v712h65v-712h-65zM191 760h-59l-115 135h84z" />
    <glyph glyph-name="Iacute" unicode="&#xcd;" horiz-adv-x="267" 
d="M101 0v712h65v-712h-65zM76 760l90 135h84l-115 -135h-59z" />
    <glyph glyph-name="Icircumflex" unicode="&#xce;" horiz-adv-x="267" 
d="M101 0v712h65v-712h-65zM169 895l114 -135h-69l-81 95l-80 -95h-69l114 135h71z" />
    <glyph glyph-name="Idieresis" unicode="&#xcf;" horiz-adv-x="267" 
d="M101 0v712h65v-712h-65zM10 778v88h61v-88h-61zM194 778v88h61v-88h-61z" />
    <glyph glyph-name="Eth" unicode="&#xd0;" horiz-adv-x="718" 
d="M578 619.5q95 -92.5 95 -263.5t-95 -263.5t-269 -92.5h-208v333h-66v55h66v324h208q174 0 269 -92.5zM527.5 136q76.5 77 76.5 220t-76.5 220t-218.5 77h-143v-265h220v-55h-220v-274h143q142 0 218.5 77z" />
    <glyph glyph-name="Ntilde" unicode="&#xd1;" horiz-adv-x="745" 
d="M545 0l-185 316l-105 179q-58 102 -88 152h-2l1 -356v-291h-65v712h99l185 -316l105 -179q58 -102 88 -152h2q-1 119 -1 356v291h65v-712h-99zM509.5 807q-24.5 -27 -65.5 -27q-21 0 -39.5 8t-41.5 22q-22 13 -35 18.5t-26 5.5q-20 0 -32 -14t-14 -40h-48q3 51 27.5 78
t65.5 27q21 0 38.5 -7t43.5 -22q19 -12 32.5 -18t27.5 -6q20 0 32 13.5t14 39.5h48q-3 -51 -27.5 -78z" />
    <glyph glyph-name="Ograve" unicode="&#xd2;" horiz-adv-x="724" 
d="M529.5 679.5q71.5 -45.5 110 -128.5t38.5 -195t-38.5 -195t-110 -128.5t-167.5 -45.5t-167.5 45.5t-110.5 129t-39 194.5t39 194.5t110.5 129t167.5 45.5t167.5 -45.5zM231 626.5q-56 -37.5 -86.5 -107.5t-30.5 -163t30.5 -163t86.5 -107.5t131 -37.5t131 38t86.5 107.5
t30.5 162.5t-30.5 162.5t-86.5 107.5t-131 38t-131 -37.5zM420 760h-59l-115 135h84z" />
    <glyph glyph-name="Oacute" unicode="&#xd3;" horiz-adv-x="724" 
d="M529.5 679.5q71.5 -45.5 110 -128.5t38.5 -195t-38.5 -195t-110 -128.5t-167.5 -45.5t-167.5 45.5t-110.5 129t-39 194.5t39 194.5t110.5 129t167.5 45.5t167.5 -45.5zM231 626.5q-56 -37.5 -86.5 -107.5t-30.5 -163t30.5 -163t86.5 -107.5t131 -37.5t131 38t86.5 107.5
t30.5 162.5t-30.5 162.5t-86.5 107.5t-131 38t-131 -37.5zM304 760l90 135h84l-115 -135h-59z" />
    <glyph glyph-name="Ocircumflex" unicode="&#xd4;" horiz-adv-x="724" 
d="M529.5 679.5q71.5 -45.5 110 -128.5t38.5 -195t-38.5 -195t-110 -128.5t-167.5 -45.5t-167.5 45.5t-110.5 129t-39 194.5t39 194.5t110.5 129t167.5 45.5t167.5 -45.5zM231 626.5q-56 -37.5 -86.5 -107.5t-30.5 -163t30.5 -163t86.5 -107.5t131 -37.5t131 38t86.5 107.5
t30.5 162.5t-30.5 162.5t-86.5 107.5t-131 38t-131 -37.5zM397 895l114 -135h-69l-81 95l-80 -95h-69l114 135h71z" />
    <glyph glyph-name="Otilde" unicode="&#xd5;" horiz-adv-x="724" 
d="M529.5 679.5q71.5 -45.5 110 -128.5t38.5 -195t-38.5 -195t-110 -128.5t-167.5 -45.5t-167.5 45.5t-110.5 129t-39 194.5t39 194.5t110.5 129t167.5 45.5t167.5 -45.5zM231 626.5q-56 -37.5 -86.5 -107.5t-30.5 -163t30.5 -163t86.5 -107.5t131 -37.5t131 38t86.5 107.5
t30.5 162.5t-30.5 162.5t-86.5 107.5t-131 38t-131 -37.5zM498.5 807q-24.5 -27 -65.5 -27q-21 0 -39.5 8t-41.5 22q-22 13 -35 18.5t-26 5.5q-20 0 -32 -14t-14 -40h-48q3 51 27.5 78t65.5 27q21 0 38.5 -7t43.5 -22q19 -12 32.5 -18t27.5 -6q20 0 32 13.5t14 39.5h48
q-3 -51 -27.5 -78z" />
    <glyph glyph-name="Odieresis" unicode="&#xd6;" horiz-adv-x="724" 
d="M529.5 679.5q71.5 -45.5 110 -128.5t38.5 -195t-38.5 -195t-110 -128.5t-167.5 -45.5t-167.5 45.5t-110.5 129t-39 194.5t39 194.5t110.5 129t167.5 45.5t167.5 -45.5zM231 626.5q-56 -37.5 -86.5 -107.5t-30.5 -163t30.5 -163t86.5 -107.5t131 -37.5t131 38t86.5 107.5
t30.5 162.5t-30.5 162.5t-86.5 107.5t-131 38t-131 -37.5zM239 778v88h61v-88h-61zM423 778v88h61v-88h-61z" />
    <glyph glyph-name="multiply" unicode="&#xd7;" horiz-adv-x="566" 
d="M321 306l197 -196l-39 -39l-196 197l-196 -197l-39 39l197 196l-197 196l39 39l196 -196l196 196l39 -39z" />
    <glyph glyph-name="Oslash" unicode="&#xd8;" horiz-adv-x="724" 
d="M657 504.5q21 -67.5 21 -148.5q0 -112 -38.5 -195t-110 -128.5t-167.5 -45.5q-115 0 -195 65l-60 -80l-45 35l65 85q-40 48 -61 115.5t-21 148.5q0 111 39 194.5t110.5 129t167.5 45.5q115 0 194 -65l61 80l45 -34l-65 -86q39 -48 60 -115.5zM169 148l348 460
q-64 56 -155 56q-75 0 -131.5 -38t-87 -107.5t-30.5 -162.5q0 -127 56 -208zM493 85.5q56 37.5 86.5 107.5t30.5 163q0 129 -55 208l-348 -460q64 -56 155 -56q75 0 131 37.5z" />
    <glyph glyph-name="Ugrave" unicode="&#xd9;" horiz-adv-x="699" 
d="M539 57.5q-65 -70.5 -189 -70.5t-189.5 71t-65.5 206v448h65v-447q0 -108 49.5 -162.5t140.5 -54.5q90 0 139.5 54.5t49.5 162.5v447h65v-448q0 -136 -65 -206.5zM407 760h-59l-115 135h84z" />
    <glyph glyph-name="Uacute" unicode="&#xda;" horiz-adv-x="699" 
d="M539 57.5q-65 -70.5 -189 -70.5t-189.5 71t-65.5 206v448h65v-447q0 -108 49.5 -162.5t140.5 -54.5q90 0 139.5 54.5t49.5 162.5v447h65v-448q0 -136 -65 -206.5zM292 760l90 135h84l-115 -135h-59z" />
    <glyph glyph-name="Ucircumflex" unicode="&#xdb;" horiz-adv-x="699" 
d="M539 57.5q-65 -70.5 -189 -70.5t-189.5 71t-65.5 206v448h65v-447q0 -108 49.5 -162.5t140.5 -54.5q90 0 139.5 54.5t49.5 162.5v447h65v-448q0 -136 -65 -206.5zM385 895l114 -135h-69l-81 95l-80 -95h-69l114 135h71z" />
    <glyph glyph-name="Udieresis" unicode="&#xdc;" horiz-adv-x="699" 
d="M539 57.5q-65 -70.5 -189 -70.5t-189.5 71t-65.5 206v448h65v-447q0 -108 49.5 -162.5t140.5 -54.5q90 0 139.5 54.5t49.5 162.5v447h65v-448q0 -136 -65 -206.5zM227 778v88h61v-88h-61zM411 778v88h61v-88h-61z" />
    <glyph glyph-name="Yacute" unicode="&#xdd;" horiz-adv-x="602" 
d="M334 0h-66v304l-263 408h77l98 -154l120 -191h2q80 128 121 191l97 154h77l-263 -408v-304zM243 760l90 135h84l-115 -135h-59z" />
    <glyph glyph-name="Thorn" unicode="&#xde;" horiz-adv-x="606" 
d="M333 576q117 0 180 -55.5t63 -151.5t-63 -152t-180 -56h-167v-161h-65v712h65v-136h167zM166 220h166q86 0 131 39t45 110q0 70 -45 109t-131 39h-166v-297z" />
    <glyph glyph-name="germandbls" unicode="&#xdf;" horiz-adv-x="548" 
d="M419 678.5q52 -46.5 52 -123.5q0 -118 -111 -154v-2q66 -13 105.5 -62.5t39.5 -129.5q0 -101 -61 -157t-171 -56q-28 0 -52 6v56q20 -6 49 -6q80 0 125.5 41.5t45.5 116.5t-44 118.5t-120 43.5h-15v58q72 0 109 32t37 91q0 55 -34.5 87t-92.5 32q-66 0 -101 -41.5
t-35 -121.5v-507h-62v510q0 102 51.5 158.5t146.5 56.5q86 0 138 -46.5z" />
    <glyph glyph-name="agrave" unicode="&#xe0;" horiz-adv-x="524" 
d="M395.5 472q50.5 -49 50.5 -146v-201q0 -72 11 -125h-58q-7 34 -7 77h-2q-52 -87 -181 -87q-77 0 -124.5 41t-47.5 105q0 65 43.5 102t149.5 54q73 12 156 18v24q0 68 -35 101t-95 33q-62 0 -96 -30.5t-37 -82.5h-65q5 74 56.5 120t141.5 46q89 0 139.5 -49zM238 240
q-75 -11 -105 -34t-30 -66q0 -45 31.5 -71.5t87.5 -26.5q35 0 65.5 11.5t51.5 33.5q27 28 37 55.5t10 76.5v39q-65 -5 -148 -18zM307 571h-59l-115 141h84z" />
    <glyph glyph-name="aacute" unicode="&#xe1;" horiz-adv-x="524" 
d="M395.5 472q50.5 -49 50.5 -146v-201q0 -72 11 -125h-58q-7 34 -7 77h-2q-52 -87 -181 -87q-77 0 -124.5 41t-47.5 105q0 65 43.5 102t149.5 54q73 12 156 18v24q0 68 -35 101t-95 33q-62 0 -96 -30.5t-37 -82.5h-65q5 74 56.5 120t141.5 46q89 0 139.5 -49zM238 240
q-75 -11 -105 -34t-30 -66q0 -45 31.5 -71.5t87.5 -26.5q35 0 65.5 11.5t51.5 33.5q27 28 37 55.5t10 76.5v39q-65 -5 -148 -18zM191 571l90 141h84l-115 -141h-59z" />
    <glyph glyph-name="acircumflex" unicode="&#xe2;" horiz-adv-x="524" 
d="M395.5 472q50.5 -49 50.5 -146v-201q0 -72 11 -125h-58q-7 34 -7 77h-2q-52 -87 -181 -87q-77 0 -124.5 41t-47.5 105q0 65 43.5 102t149.5 54q73 12 156 18v24q0 68 -35 101t-95 33q-62 0 -96 -30.5t-37 -82.5h-65q5 74 56.5 120t141.5 46q89 0 139.5 -49zM238 240
q-75 -11 -105 -34t-30 -66q0 -45 31.5 -71.5t87.5 -26.5q35 0 65.5 11.5t51.5 33.5q27 28 37 55.5t10 76.5v39q-65 -5 -148 -18zM249 672l-81 -101h-69l114 141h71l114 -141h-69z" />
    <glyph glyph-name="atilde" unicode="&#xe3;" horiz-adv-x="524" 
d="M395.5 472q50.5 -49 50.5 -146v-201q0 -72 11 -125h-58q-7 34 -7 77h-2q-52 -87 -181 -87q-77 0 -124.5 41t-47.5 105q0 65 43.5 102t149.5 54q73 12 156 18v24q0 68 -35 101t-95 33q-62 0 -96 -30.5t-37 -82.5h-65q5 74 56.5 120t141.5 46q89 0 139.5 -49zM238 240
q-75 -11 -105 -34t-30 -66q0 -45 31.5 -71.5t87.5 -26.5q35 0 65.5 11.5t51.5 33.5q27 28 37 55.5t10 76.5v39q-65 -5 -148 -18zM385.5 625q-24.5 -27 -65.5 -27q-21 0 -39 7.5t-42 21.5q-19 12 -33 18t-28 6q-20 0 -32 -13.5t-14 -39.5h-48q3 51 27.5 78t65.5 27
q20 0 37 -7t45 -23q23 -13 35 -18.5t25 -5.5q20 0 32 14t14 40h48q-3 -51 -27.5 -78z" />
    <glyph glyph-name="adieresis" unicode="&#xe4;" horiz-adv-x="524" 
d="M395.5 472q50.5 -49 50.5 -146v-201q0 -72 11 -125h-58q-7 34 -7 77h-2q-52 -87 -181 -87q-77 0 -124.5 41t-47.5 105q0 65 43.5 102t149.5 54q73 12 156 18v24q0 68 -35 101t-95 33q-62 0 -96 -30.5t-37 -82.5h-65q5 74 56.5 120t141.5 46q89 0 139.5 -49zM238 240
q-75 -11 -105 -34t-30 -66q0 -45 31.5 -71.5t87.5 -26.5q35 0 65.5 11.5t51.5 33.5q27 28 37 55.5t10 76.5v39q-65 -5 -148 -18zM126 624v88h61v-88h-61zM310 624v88h61v-88h-61z" />
    <glyph glyph-name="aring" unicode="&#xe5;" horiz-adv-x="524" 
d="M395.5 472q50.5 -49 50.5 -146v-201q0 -72 11 -125h-58q-7 34 -7 77h-2q-52 -87 -181 -87q-77 0 -124.5 41t-47.5 105q0 65 43.5 102t149.5 54q73 12 156 18v24q0 68 -35 101t-95 33q-62 0 -96 -30.5t-37 -82.5h-65q5 74 56.5 120t141.5 46q89 0 139.5 -49zM238 240
q-75 -11 -105 -34t-30 -66q0 -45 31.5 -71.5t87.5 -26.5q35 0 65.5 11.5t51.5 33.5q27 28 37 55.5t10 76.5v39q-65 -5 -148 -18zM317 735.5q28 -28.5 28 -68.5t-28 -68.5t-68 -28.5t-68.5 28.5t-28.5 68.5t28.5 68.5t68.5 28.5t68 -28.5zM206.5 709q-17.5 -17 -17.5 -42
t17.5 -42.5t42.5 -17.5t42 17.5t17 42.5t-17 42t-42 17t-42.5 -17z" />
    <glyph glyph-name="ae" unicode="&#xe6;" horiz-adv-x="854" 
d="M693.5 70.5q36.5 30.5 47.5 80.5h64q-11 -70 -64.5 -117t-140.5 -47q-64 0 -111 31.5t-74 89.5q-26 -57 -79 -89t-125 -32q-78 0 -126 42t-48 108q0 74 52 115t172 41h125v41q0 67 -34 100.5t-96 33.5q-61 0 -95.5 -31t-37.5 -82h-65q5 73 57.5 119.5t140.5 46.5
q61 0 104 -24t63 -74q27 47 71 72.5t102 25.5q79 0 134 -49t72 -132q7 -38 7 -99h-368q3 -98 46.5 -149.5t112.5 -51.5q57 0 93.5 30.5zM487 421q-42 -47 -46 -128h307q-4 83 -45.5 129t-106.5 46q-67 0 -109 -47zM269 241q-90 0 -128 -25t-38 -77q0 -46 31.5 -73t87.5 -27
q36 0 66.5 12t50.5 34q27 28 37 55.5t10 78.5v22h-117z" />
    <glyph glyph-name="ccedilla" unicode="&#xe7;" horiz-adv-x="521" 
d="M370.5 81.5q39.5 40.5 44.5 99.5h65q-6 -75 -52 -127.5t-118 -63.5l-35 -53q10 2 23 2q33 0 55.5 -19.5t22.5 -52.5q0 -36 -27 -60.5t-78 -24.5q-53 0 -100 27l15 32q37 -20 78 -20q29 0 44.5 11.5t15.5 32.5q0 20 -15 31.5t-41 11.5q-16 0 -31 -5l-16 18l44 66
q-103 3 -162 74t-59 193q0 124 61.5 195.5t168.5 71.5q86 0 142.5 -52t63.5 -136h-65q-5 59 -44 96.5t-97 37.5q-76 0 -119.5 -57t-43.5 -156q0 -100 43.5 -156.5t119.5 -56.5q57 0 96.5 40.5z" />
    <glyph glyph-name="egrave" unicode="&#xe8;" horiz-adv-x="539" 
d="M376 70.5q39 30.5 51 80.5h64q-13 -70 -68.5 -117t-146.5 -47q-108 0 -170 74.5t-62 201.5q0 75 27.5 133.5t79 91.5t121.5 33q85 0 141.5 -48t73.5 -133q8 -36 8 -98h-388q2 -98 49 -150t120 -52q61 0 100 30.5zM157 421q-45 -47 -49 -128h327q-5 83 -49 129t-114 46
t-115 -47zM327 571h-59l-115 141h84z" />
    <glyph glyph-name="eacute" unicode="&#xe9;" horiz-adv-x="539" 
d="M376 70.5q39 30.5 51 80.5h64q-13 -70 -68.5 -117t-146.5 -47q-108 0 -170 74.5t-62 201.5q0 75 27.5 133.5t79 91.5t121.5 33q85 0 141.5 -48t73.5 -133q8 -36 8 -98h-388q2 -98 49 -150t120 -52q61 0 100 30.5zM157 421q-45 -47 -49 -128h327q-5 83 -49 129t-114 46
t-115 -47zM211 571l90 141h84l-115 -141h-59z" />
    <glyph glyph-name="ecircumflex" unicode="&#xea;" horiz-adv-x="539" 
d="M376 70.5q39 30.5 51 80.5h64q-13 -70 -68.5 -117t-146.5 -47q-108 0 -170 74.5t-62 201.5q0 75 27.5 133.5t79 91.5t121.5 33q85 0 141.5 -48t73.5 -133q8 -36 8 -98h-388q2 -98 49 -150t120 -52q61 0 100 30.5zM157 421q-45 -47 -49 -128h327q-5 83 -49 129t-114 46
t-115 -47zM270 672l-81 -101h-69l114 141h71l114 -141h-69z" />
    <glyph glyph-name="edieresis" unicode="&#xeb;" horiz-adv-x="539" 
d="M376 70.5q39 30.5 51 80.5h64q-13 -70 -68.5 -117t-146.5 -47q-108 0 -170 74.5t-62 201.5q0 75 27.5 133.5t79 91.5t121.5 33q85 0 141.5 -48t73.5 -133q8 -36 8 -98h-388q2 -98 49 -150t120 -52q61 0 100 30.5zM157 421q-45 -47 -49 -128h327q-5 83 -49 129t-114 46
t-115 -47zM146 624v88h61v-88h-61zM330 624v88h61v-88h-61z" />
    <glyph glyph-name="igrave" unicode="&#xec;" horiz-adv-x="228" 
d="M83 0v508h62v-508h-62zM172 571h-59l-115 141h84z" />
    <glyph glyph-name="iacute" unicode="&#xed;" horiz-adv-x="228" 
d="M83 0v508h62v-508h-62zM57 571l90 141h84l-115 -141h-59z" />
    <glyph glyph-name="icircumflex" unicode="&#xee;" horiz-adv-x="228" 
d="M83 0v508h62v-508h-62zM182 572l-68 101l-67 -101h-68l98 140h74l98 -140h-67z" />
    <glyph glyph-name="idieresis" unicode="&#xef;" horiz-adv-x="228" 
d="M83 0v508h62v-508h-62zM12 624v88h61v-88h-61zM156 624v88h61v-88h-61z" />
    <glyph glyph-name="eth" unicode="&#xf0;" horiz-adv-x="553" 
d="M483 402q26 -68 26 -148q0 -124 -62.5 -195.5t-170.5 -71.5t-170 70.5t-62 194.5q0 121 60 191t164 70q70 0 120 -45v2q-47 66 -125 135l-136 -65l-20 43l116 55q-41 33 -73 53l41 34q28 -18 84 -62l120 58l20 -43l-101 -48q59 -54 89 -92q54 -68 80 -136zM400 97.5
q45 56.5 45 154.5t-45 154.5t-124 56.5q-78 0 -122.5 -56.5t-44.5 -154.5t44.5 -154.5t122.5 -56.5q79 0 124 56.5z" />
    <glyph glyph-name="ntilde" unicode="&#xf1;" 
d="M438.5 466q46.5 -53 46.5 -157v-309h-62v306q0 86 -33 122.5t-97 36.5q-40 0 -74 -19t-54 -56t-20 -89v-301h-62v508h61v-69h2q24 37 65.5 58.5t92.5 21.5q88 0 134.5 -53zM421.5 625q-24.5 -27 -65.5 -27q-21 0 -39 7.5t-42 21.5q-19 12 -33 18t-28 6q-20 0 -32 -13.5
t-14 -39.5h-48q3 51 27.5 78t65.5 27q20 0 37 -7t45 -23q23 -13 35 -18.5t25 -5.5q20 0 32 14t14 40h48q-3 -51 -27.5 -78z" />
    <glyph glyph-name="ograve" unicode="&#xf2;" horiz-adv-x="552" 
d="M446 449.5q62 -71.5 62 -195.5t-62 -195.5t-170 -71.5t-170 71.5t-62 195.5t62 195.5t170 71.5t170 -71.5zM153.5 410q-44.5 -57 -44.5 -156t44.5 -156t122.5 -57q79 0 123.5 57t44.5 156t-44.5 156t-123.5 57q-78 0 -122.5 -57zM334 571h-59l-115 141h84z" />
    <glyph glyph-name="oacute" unicode="&#xf3;" horiz-adv-x="552" 
d="M446 449.5q62 -71.5 62 -195.5t-62 -195.5t-170 -71.5t-170 71.5t-62 195.5t62 195.5t170 71.5t170 -71.5zM153.5 410q-44.5 -57 -44.5 -156t44.5 -156t122.5 -57q79 0 123.5 57t44.5 156t-44.5 156t-123.5 57q-78 0 -122.5 -57zM218 571l90 141h84l-115 -141h-59z" />
    <glyph glyph-name="ocircumflex" unicode="&#xf4;" horiz-adv-x="552" 
d="M446 449.5q62 -71.5 62 -195.5t-62 -195.5t-170 -71.5t-170 71.5t-62 195.5t62 195.5t170 71.5t170 -71.5zM153.5 410q-44.5 -57 -44.5 -156t44.5 -156t122.5 -57q79 0 123.5 57t44.5 156t-44.5 156t-123.5 57q-78 0 -122.5 -57zM277 672l-81 -101h-69l114 141h71
l114 -141h-69z" />
    <glyph glyph-name="otilde" unicode="&#xf5;" horiz-adv-x="552" 
d="M446 449.5q62 -71.5 62 -195.5t-62 -195.5t-170 -71.5t-170 71.5t-62 195.5t62 195.5t170 71.5t170 -71.5zM153.5 410q-44.5 -57 -44.5 -156t44.5 -156t122.5 -57q79 0 123.5 57t44.5 156t-44.5 156t-123.5 57q-78 0 -122.5 -57zM413.5 625q-24.5 -27 -65.5 -27
q-21 0 -39 7.5t-42 21.5q-19 12 -33 18t-28 6q-20 0 -32 -13.5t-14 -39.5h-48q3 51 27.5 78t65.5 27q20 0 37 -7t45 -23q23 -13 35 -18.5t25 -5.5q20 0 32 14t14 40h48q-3 -51 -27.5 -78z" />
    <glyph glyph-name="odieresis" unicode="&#xf6;" horiz-adv-x="552" 
d="M446 449.5q62 -71.5 62 -195.5t-62 -195.5t-170 -71.5t-170 71.5t-62 195.5t62 195.5t170 71.5t170 -71.5zM153.5 410q-44.5 -57 -44.5 -156t44.5 -156t122.5 -57q79 0 123.5 57t44.5 156t-44.5 156t-123.5 57q-78 0 -122.5 -57zM153 624v88h61v-88h-61zM337 624v88h61
v-88h-61z" />
    <glyph glyph-name="divide" unicode="&#xf7;" horiz-adv-x="566" 
d="M250 441v72h66v-72h-66zM74 288v57h418v-57h-418zM250 121v72h66v-72h-66z" />
    <glyph glyph-name="oslash" unicode="&#xf8;" horiz-adv-x="553" 
d="M509 254q0 -124 -62.5 -195.5t-170.5 -71.5q-81 0 -139 42l-51 -66l-39 31l54 70q-57 71 -57 190q0 124 62 195.5t170 71.5q82 0 140 -43l51 68l39 -31l-55 -71q58 -70 58 -190zM153 410q-45 -57 -45 -156q0 -84 32 -137l240 314q-42 36 -104 36q-78 0 -123 -57zM400 98
q45 57 45 156q0 85 -33 138l-239 -315q42 -36 103 -36q79 0 124 57z" />
    <glyph glyph-name="ugrave" unicode="&#xf9;" 
d="M124.5 42q-46.5 53 -46.5 157v309h62v-306q0 -86 33 -122.5t97 -36.5q40 0 74 19t54 56t20 89v301h62v-508h-61v69h-2q-23 -37 -64.5 -58.5t-93.5 -21.5q-88 0 -134.5 53zM340 571h-59l-115 141h84z" />
    <glyph glyph-name="uacute" unicode="&#xfa;" 
d="M124.5 42q-46.5 53 -46.5 157v309h62v-306q0 -86 33 -122.5t97 -36.5q40 0 74 19t54 56t20 89v301h62v-508h-61v69h-2q-23 -37 -64.5 -58.5t-93.5 -21.5q-88 0 -134.5 53zM224 571l90 141h84l-115 -141h-59z" />
    <glyph glyph-name="ucircumflex" unicode="&#xfb;" 
d="M124.5 42q-46.5 53 -46.5 157v309h62v-306q0 -86 33 -122.5t97 -36.5q40 0 74 19t54 56t20 89v301h62v-508h-61v69h-2q-23 -37 -64.5 -58.5t-93.5 -21.5q-88 0 -134.5 53zM283 672l-81 -101h-69l114 141h71l114 -141h-69z" />
    <glyph glyph-name="udieresis" unicode="&#xfc;" 
d="M124.5 42q-46.5 53 -46.5 157v309h62v-306q0 -86 33 -122.5t97 -36.5q40 0 74 19t54 56t20 89v301h62v-508h-61v69h-2q-23 -37 -64.5 -58.5t-93.5 -21.5q-88 0 -134.5 53zM159 624v88h61v-88h-61zM343 624v88h61v-88h-61z" />
    <glyph glyph-name="yacute" unicode="&#xfd;" horiz-adv-x="456" 
d="M198 -126q-26 -35 -59 -49t-84 -14q-22 0 -37 4v55q15 -4 36 -4q38 0 61 10.5t40.5 38.5t39.5 85l-200 508h67l165 -429h2l165 429h67l-210 -532q-27 -67 -53 -102zM171 571l90 141h84l-115 -141h-59z" />
    <glyph glyph-name="thorn" unicode="&#xfe;" horiz-adv-x="565" 
d="M147 433q20 40 63 64t97 24q65 0 113.5 -32.5t74.5 -93t26 -140.5t-26 -140.5t-74.5 -93t-113.5 -32.5q-54 0 -97 24t-63 64h-2v-262h-62v897h62v-279h2zM184 410.5q-42 -58.5 -42 -155.5t42 -155.5t113 -58.5q73 0 116 58t43 156t-43 156t-116 58q-71 0 -113 -58.5z" />
    <glyph glyph-name="ydieresis" unicode="&#xff;" horiz-adv-x="456" 
d="M198 -126q-26 -35 -59 -49t-84 -14q-22 0 -37 4v55q15 -4 36 -4q38 0 61 10.5t40.5 38.5t39.5 85l-200 508h67l165 -429h2l165 429h67l-210 -532q-27 -67 -53 -102zM105 624v88h61v-88h-61zM289 624v88h61v-88h-61z" />
    <glyph glyph-name="Amacron" unicode="&#x100;" horiz-adv-x="664" 
d="M165 230l-89 -230h-70l282 712h89l281 -712h-70l-89 230h-334zM447 364l-114 295h-2l-12 -31q-52 -137 -102 -264l-29 -74h287zM200 793v52h263v-52h-263z" />
    <glyph glyph-name="amacron" unicode="&#x101;" horiz-adv-x="524" 
d="M395.5 472q50.5 -49 50.5 -146v-201q0 -72 11 -125h-58q-7 34 -7 77h-2q-52 -87 -181 -87q-77 0 -124.5 41t-47.5 105q0 65 43.5 102t149.5 54q73 12 156 18v24q0 68 -35 101t-95 33q-62 0 -96 -30.5t-37 -82.5h-65q5 74 56.5 120t141.5 46q89 0 139.5 -49zM238 240
q-75 -11 -105 -34t-30 -66q0 -45 31.5 -71.5t87.5 -26.5q35 0 65.5 11.5t51.5 33.5q27 28 37 55.5t10 76.5v39q-65 -5 -148 -18zM117 624v52h263v-52h-263z" />
    <glyph glyph-name="Abreve" unicode="&#x102;" horiz-adv-x="664" 
d="M165 230l-89 -230h-70l282 712h89l281 -712h-70l-89 230h-334zM447 364l-114 295h-2l-12 -31q-52 -137 -102 -264l-29 -74h287zM434 792.5q-38 -36.5 -102 -36.5t-102 36.5t-44 102.5h51q6 -43 30.5 -66.5t64.5 -23.5t64 23t31 67h51q-6 -66 -44 -102.5z" />
    <glyph glyph-name="abreve" unicode="&#x103;" horiz-adv-x="524" 
d="M395.5 472q50.5 -49 50.5 -146v-201q0 -72 11 -125h-58q-7 34 -7 77h-2q-52 -87 -181 -87q-77 0 -124.5 41t-47.5 105q0 65 43.5 102t149.5 54q73 12 156 18v24q0 68 -35 101t-95 33q-62 0 -96 -30.5t-37 -82.5h-65q5 74 56.5 120t141.5 46q89 0 139.5 -49zM238 240
q-75 -11 -105 -34t-30 -66q0 -45 31.5 -71.5t87.5 -26.5q35 0 65.5 11.5t51.5 33.5q27 28 37 55.5t10 76.5v39q-65 -5 -148 -18zM351 609.5q-38 -36.5 -102 -36.5t-102 36.5t-44 102.5h51q6 -43 30.5 -66t64.5 -23t64 22.5t31 66.5h51q-6 -66 -44 -102.5z" />
    <glyph glyph-name="Aogonek" unicode="&#x104;" horiz-adv-x="664" 
d="M661 -140v-44q-19 -8 -49 -8q-46 0 -69 19.5t-23 55.5q0 32 18.5 58.5t59.5 58.5h-10l-89 230h-334l-89 -230h-70l282 712h89l281 -712q-45 -34 -62.5 -59t-17.5 -51q0 -18 11.5 -27.5t31.5 -9.5q22 0 40 7zM447 364l-114 295h-2l-12 -31q-52 -137 -102 -264l-29 -74h287
z" />
    <glyph glyph-name="aogonek" unicode="&#x105;" horiz-adv-x="524" 
d="M460 -140v-44q-19 -8 -49 -8q-46 0 -69 19.5t-23 55.5q0 32 19 59t61 59q-7 34 -7 76h-2q-52 -87 -181 -87q-77 0 -124.5 41t-47.5 105q0 65 43.5 102t149.5 54q73 12 156 18v24q0 68 -35 101t-95 33q-62 0 -96 -30.5t-37 -82.5h-65q5 74 56.5 120t141.5 46
q89 0 139.5 -49t50.5 -146v-201q0 -72 11 -125q-45 -34 -62.5 -59t-17.5 -51q0 -18 11.5 -27.5t31.5 -9.5q22 0 40 7zM238 240q-75 -11 -105 -34t-30 -66q0 -45 31.5 -71.5t87.5 -26.5q35 0 65.5 11.5t51.5 33.5q27 28 37 55.5t10 76.5v39q-66 -5 -148 -18z" />
    <glyph glyph-name="Cacute" unicode="&#x106;" horiz-adv-x="683" 
d="M494.5 692.5q61.5 -32.5 95.5 -89.5t38 -129h-68q-8 87 -64.5 138.5t-144.5 51.5q-73 0 -126.5 -37t-82 -106.5t-28.5 -164.5t28.5 -164.5t81.5 -106.5t125 -37q87 0 145 52.5t70 141.5h68q-8 -77 -44 -134.5t-97.5 -89t-141.5 -31.5q-93 0 -161.5 44.5t-105.5 127.5
t-37 197t37 197t106 127.5t163 44.5q82 0 143.5 -32.5zM293 760l90 135h84l-115 -135h-59z" />
    <glyph glyph-name="cacute" unicode="&#x107;" horiz-adv-x="521" 
d="M416.5 469q56.5 -52 63.5 -136h-65q-5 59 -44 96.5t-97 37.5q-76 0 -119.5 -57t-43.5 -156q0 -100 43.5 -156.5t119.5 -56.5q57 0 96.5 40.5t44.5 99.5h65q-5 -55 -31.5 -99t-71.5 -69.5t-103 -25.5q-107 0 -168.5 71.5t-61.5 195.5t61.5 195.5t168.5 71.5
q86 0 142.5 -52zM216 571l90 141h84l-115 -141h-59z" />
    <glyph glyph-name="Ccircumflex" unicode="&#x108;" horiz-adv-x="683" 
d="M494.5 692.5q61.5 -32.5 95.5 -89.5t38 -129h-68q-8 87 -64.5 138.5t-144.5 51.5q-73 0 -126.5 -37t-82 -106.5t-28.5 -164.5t28.5 -164.5t81.5 -106.5t125 -37q87 0 145 52.5t70 141.5h68q-8 -77 -44 -134.5t-97.5 -89t-141.5 -31.5q-93 0 -161.5 44.5t-105.5 127.5
t-37 197t37 197t106 127.5t163 44.5q82 0 143.5 -32.5zM386 895l114 -135h-69l-81 95l-80 -95h-69l114 135h71z" />
    <glyph glyph-name="ccircumflex" unicode="&#x109;" horiz-adv-x="521" 
d="M416.5 469q56.5 -52 63.5 -136h-65q-5 59 -44 96.5t-97 37.5q-76 0 -119.5 -57t-43.5 -156q0 -100 43.5 -156.5t119.5 -56.5q57 0 96.5 40.5t44.5 99.5h65q-5 -55 -31.5 -99t-71.5 -69.5t-103 -25.5q-107 0 -168.5 71.5t-61.5 195.5t61.5 195.5t168.5 71.5
q86 0 142.5 -52zM275 672l-81 -101h-69l114 141h71l114 -141h-69z" />
    <glyph glyph-name="Cdotaccent" unicode="&#x10a;" horiz-adv-x="683" 
d="M494.5 692.5q61.5 -32.5 95.5 -89.5t38 -129h-68q-8 87 -64.5 138.5t-144.5 51.5q-73 0 -126.5 -37t-82 -106.5t-28.5 -164.5t28.5 -164.5t81.5 -106.5t125 -37q87 0 145 52.5t70 141.5h68q-8 -77 -44 -134.5t-97.5 -89t-141.5 -31.5q-93 0 -161.5 44.5t-105.5 127.5
t-37 197t37 197t106 127.5t163 44.5q82 0 143.5 -32.5zM319 769v88h62v-88h-62z" />
    <glyph glyph-name="cdotaccent" unicode="&#x10b;" horiz-adv-x="521" 
d="M416.5 469q56.5 -52 63.5 -136h-65q-5 59 -44 96.5t-97 37.5q-76 0 -119.5 -57t-43.5 -156q0 -100 43.5 -156.5t119.5 -56.5q57 0 96.5 40.5t44.5 99.5h65q-5 -55 -31.5 -99t-71.5 -69.5t-103 -25.5q-107 0 -168.5 71.5t-61.5 195.5t61.5 195.5t168.5 71.5
q86 0 142.5 -52zM243 624v88h62v-88h-62z" />
    <glyph glyph-name="Ccaron" unicode="&#x10c;" horiz-adv-x="683" 
d="M494.5 692.5q61.5 -32.5 95.5 -89.5t38 -129h-68q-8 87 -64.5 138.5t-144.5 51.5q-73 0 -126.5 -37t-82 -106.5t-28.5 -164.5t28.5 -164.5t81.5 -106.5t125 -37q87 0 145 52.5t70 141.5h68q-8 -77 -44 -134.5t-97.5 -89t-141.5 -31.5q-93 0 -161.5 44.5t-105.5 127.5
t-37 197t37 197t106 127.5t163 44.5q82 0 143.5 -32.5zM315 760l-114 135h69l81 -95l80 95h69l-114 -135h-71z" />
    <glyph glyph-name="ccaron" unicode="&#x10d;" horiz-adv-x="521" 
d="M416.5 469q56.5 -52 63.5 -136h-65q-5 59 -44 96.5t-97 37.5q-76 0 -119.5 -57t-43.5 -156q0 -100 43.5 -156.5t119.5 -56.5q57 0 96.5 40.5t44.5 99.5h65q-5 -55 -31.5 -99t-71.5 -69.5t-103 -25.5q-107 0 -168.5 71.5t-61.5 195.5t61.5 195.5t168.5 71.5
q86 0 142.5 -52zM239 571l-114 141h69l81 -101l80 101h69l-114 -141h-71z" />
    <glyph glyph-name="Dcaron" unicode="&#x10e;" horiz-adv-x="718" 
d="M578 619.5q95 -92.5 95 -263.5t-95 -263.5t-269 -92.5h-208v712h208q174 0 269 -92.5zM166 59h143q142 0 218.5 77t76.5 220t-76.5 220t-218.5 77h-143v-594zM291 760l-114 135h69l81 -95l80 95h69l-114 -135h-71z" />
    <glyph glyph-name="dcaron" unicode="&#x10f;" horiz-adv-x="565" 
d="M420 0v77h-2q-20 -40 -63 -64t-97 -24q-65 0 -113.5 32.5t-74.5 93t-26 140.5t26 140.5t74.5 93t113.5 32.5q54 0 97 -24t63 -64h2v279h62v-712h-62zM152 411q-43 -58 -43 -156t43 -156t116 -58q71 0 113 58.5t42 155.5t-42 155.5t-113 58.5q-73 0 -116 -58zM519 536
l31 176h64l-54 -176h-41z" />
    <glyph glyph-name="Dcroat" unicode="&#x110;" horiz-adv-x="718" 
d="M578 619.5q95 -92.5 95 -263.5t-95 -263.5t-269 -92.5h-208v333h-66v55h66v324h208q174 0 269 -92.5zM527.5 136q76.5 77 76.5 220t-76.5 220t-218.5 77h-143v-265h220v-55h-220v-274h143q142 0 218.5 77z" />
    <glyph glyph-name="dcroat" unicode="&#x111;" horiz-adv-x="560" 
d="M482 583v-583h-62v77h-2q-20 -40 -63 -64t-97 -24q-65 0 -113.5 32.5t-74.5 93t-26 140.5t26 140.5t74.5 93t113.5 32.5q54 0 97 -24t63 -64h2v150h-137v46h137v83h62v-83h64v-46h-64zM381 99.5q42 58.5 42 155.5t-42 155.5t-113 58.5q-73 0 -116 -58t-43 -156t43 -156
t116 -58q71 0 113 58.5z" />
    <glyph glyph-name="Emacron" unicode="&#x112;" horiz-adv-x="610" 
d="M166 653v-258h359v-59h-359v-277h390v-59h-455v712h443v-59h-378zM190 793v52h263v-52h-263z" />
    <glyph glyph-name="emacron" unicode="&#x113;" horiz-adv-x="539" 
d="M376 70.5q39 30.5 51 80.5h64q-13 -70 -68.5 -117t-146.5 -47q-108 0 -170 74.5t-62 201.5q0 75 27.5 133.5t79 91.5t121.5 33q85 0 141.5 -48t73.5 -133q8 -36 8 -98h-388q2 -98 49 -150t120 -52q61 0 100 30.5zM157 421q-45 -47 -49 -128h327q-5 83 -49 129t-114 46
t-115 -47zM137 624v52h263v-52h-263z" />
    <glyph glyph-name="Ebreve" unicode="&#x114;" horiz-adv-x="610" 
d="M166 653v-258h359v-59h-359v-277h390v-59h-455v712h443v-59h-378zM424 792.5q-38 -36.5 -102 -36.5t-102 36.5t-44 102.5h51q6 -43 30.5 -66.5t64.5 -23.5t64 23t31 67h51q-6 -66 -44 -102.5z" />
    <glyph glyph-name="ebreve" unicode="&#x115;" horiz-adv-x="539" 
d="M376 70.5q39 30.5 51 80.5h64q-13 -70 -68.5 -117t-146.5 -47q-108 0 -170 74.5t-62 201.5q0 75 27.5 133.5t79 91.5t121.5 33q85 0 141.5 -48t73.5 -133q8 -36 8 -98h-388q2 -98 49 -150t120 -52q61 0 100 30.5zM157 421q-45 -47 -49 -128h327q-5 83 -49 129t-114 46
t-115 -47zM371 609.5q-38 -36.5 -102 -36.5t-102 36.5t-44 102.5h51q6 -43 30.5 -66t64.5 -23t64 22.5t31 66.5h51q-6 -66 -44 -102.5z" />
    <glyph glyph-name="Edotaccent" unicode="&#x116;" horiz-adv-x="610" 
d="M166 653v-258h359v-59h-359v-277h390v-59h-455v712h443v-59h-378zM291 769v88h62v-88h-62z" />
    <glyph glyph-name="edotaccent" unicode="&#x117;" horiz-adv-x="539" 
d="M376 70.5q39 30.5 51 80.5h64q-13 -70 -68.5 -117t-146.5 -47q-108 0 -170 74.5t-62 201.5q0 75 27.5 133.5t79 91.5t121.5 33q85 0 141.5 -48t73.5 -133q8 -36 8 -98h-388q2 -98 49 -150t120 -52q61 0 100 30.5zM157 421q-45 -47 -49 -128h327q-5 83 -49 129t-114 46
t-115 -47zM238 624v88h62v-88h-62z" />
    <glyph glyph-name="Eogonek" unicode="&#x118;" horiz-adv-x="610" 
d="M559 -140v-44q-19 -8 -49 -8q-46 0 -69 19.5t-23 55.5q0 32 18.5 58.5t59.5 58.5h-395v712h443v-59h-378v-258h359v-59h-359v-277h390v-59q-45 -34 -62.5 -59t-17.5 -51q0 -18 11.5 -27.5t31.5 -9.5q22 0 40 7z" />
    <glyph glyph-name="eogonek" unicode="&#x119;" horiz-adv-x="539" 
d="M376 70.5q39 30.5 51 80.5h64q-7 -37 -25.5 -67.5t-51.5 -59.5q-48 -42 -66.5 -70.5t-18.5 -59.5q0 -41 43 -41q22 0 40 7v-44q-21 -8 -49 -8q-47 0 -69.5 19.5t-22.5 55.5q0 29 12.5 54.5t39.5 52.5v2q-25 -5 -47 -5q-108 0 -170 74.5t-62 201.5q0 75 27.5 133.5
t79 91.5t121.5 33q85 0 141.5 -48t73.5 -133q8 -36 8 -98h-388q2 -98 49 -150t120 -52q61 0 100 30.5zM157 421q-45 -47 -49 -128h327q-5 83 -49 129t-114 46t-115 -47z" />
    <glyph glyph-name="Ecaron" unicode="&#x11a;" horiz-adv-x="610" 
d="M166 653v-258h359v-59h-359v-277h390v-59h-455v712h443v-59h-378zM287 760l-114 135h69l81 -95l80 95h69l-114 -135h-71z" />
    <glyph glyph-name="ecaron" unicode="&#x11b;" horiz-adv-x="539" 
d="M376 70.5q39 30.5 51 80.5h64q-13 -70 -68.5 -117t-146.5 -47q-108 0 -170 74.5t-62 201.5q0 75 27.5 133.5t79 91.5t121.5 33q85 0 141.5 -48t73.5 -133q8 -36 8 -98h-388q2 -98 49 -150t120 -52q61 0 100 30.5zM157 421q-45 -47 -49 -128h327q-5 83 -49 129t-114 46
t-115 -47zM234 571l-114 141h69l81 -101l80 101h69l-114 -141h-71z" />
    <glyph glyph-name="Gcircumflex" unicode="&#x11c;" horiz-adv-x="724" 
d="M498 697.5q60 -27.5 96 -78t42 -117.5h-68q-13 77 -67 119.5t-141 42.5q-76 0 -131.5 -37.5t-85 -107.5t-29.5 -165t28.5 -164t81.5 -105.5t126 -36.5q101 0 162.5 63.5t61.5 201.5h-209v59h272v-372h-61v109h-2q-27 -55 -90 -88t-141 -33q-91 0 -158 44t-103.5 126.5
t-36.5 195.5q0 114 38 197.5t109 128.5t168 45q78 0 138 -27.5zM391 895l114 -135h-69l-81 95l-80 -95h-69l114 135h71z" />
    <glyph glyph-name="gcircumflex" unicode="&#x11d;" horiz-adv-x="565" 
d="M352.5 498q40.5 -23 65.5 -66h2v76h62v-477q0 -110 -54 -166.5t-159 -56.5q-95 0 -149 42.5t-55 117.5h63q1 -51 39 -79.5t102 -28.5q77 0 114 42.5t37 131.5v60h-2q-26 -43 -66.5 -66t-89.5 -23q-66 0 -115 32t-76 90.5t-27 135.5t27 135.5t76 90.5t115 32
q50 0 90.5 -23zM151 412q-42 -56 -42 -149t42 -149t113 -56q74 0 116.5 55t42.5 150t-42.5 150t-116.5 55q-71 0 -113 -56zM274 672l-81 -101h-69l114 141h71l114 -141h-69z" />
    <glyph glyph-name="Gbreve" unicode="&#x11e;" horiz-adv-x="724" 
d="M498 697.5q60 -27.5 96 -78t42 -117.5h-68q-13 77 -67 119.5t-141 42.5q-76 0 -131.5 -37.5t-85 -107.5t-29.5 -165t28.5 -164t81.5 -105.5t126 -36.5q101 0 162.5 63.5t61.5 201.5h-209v59h272v-372h-61v109h-2q-27 -55 -90 -88t-141 -33q-91 0 -158 44t-103.5 126.5
t-36.5 195.5q0 114 38 197.5t109 128.5t168 45q78 0 138 -27.5zM458 792.5q-38 -36.5 -102 -36.5t-102 36.5t-44 102.5h51q6 -43 30.5 -66.5t64.5 -23.5t64 23t31 67h51q-6 -66 -44 -102.5z" />
    <glyph glyph-name="gbreve" unicode="&#x11f;" horiz-adv-x="565" 
d="M352.5 498q40.5 -23 65.5 -66h2v76h62v-477q0 -110 -54 -166.5t-159 -56.5q-95 0 -149 42.5t-55 117.5h63q1 -51 39 -79.5t102 -28.5q77 0 114 42.5t37 131.5v60h-2q-26 -43 -66.5 -66t-89.5 -23q-66 0 -115 32t-76 90.5t-27 135.5t27 135.5t76 90.5t115 32
q50 0 90.5 -23zM151 412q-42 -56 -42 -149t42 -149t113 -56q74 0 116.5 55t42.5 150t-42.5 150t-116.5 55q-71 0 -113 -56zM375 609.5q-38 -36.5 -102 -36.5t-102 36.5t-44 102.5h51q6 -43 30.5 -66t64.5 -23t64 22.5t31 66.5h51q-6 -66 -44 -102.5z" />
    <glyph glyph-name="Gdotaccent" unicode="&#x120;" horiz-adv-x="724" 
d="M498 697.5q60 -27.5 96 -78t42 -117.5h-68q-13 77 -67 119.5t-141 42.5q-76 0 -131.5 -37.5t-85 -107.5t-29.5 -165t28.5 -164t81.5 -105.5t126 -36.5q101 0 162.5 63.5t61.5 201.5h-209v59h272v-372h-61v109h-2q-27 -55 -90 -88t-141 -33q-91 0 -158 44t-103.5 126.5
t-36.5 195.5q0 114 38 197.5t109 128.5t168 45q78 0 138 -27.5zM324 769v88h62v-88h-62z" />
    <glyph glyph-name="gdotaccent" unicode="&#x121;" horiz-adv-x="565" 
d="M352.5 498q40.5 -23 65.5 -66h2v76h62v-477q0 -110 -54 -166.5t-159 -56.5q-95 0 -149 42.5t-55 117.5h63q1 -51 39 -79.5t102 -28.5q77 0 114 42.5t37 131.5v60h-2q-26 -43 -66.5 -66t-89.5 -23q-66 0 -115 32t-76 90.5t-27 135.5t27 135.5t76 90.5t115 32
q50 0 90.5 -23zM151 412q-42 -56 -42 -149t42 -149t113 -56q74 0 116.5 55t42.5 150t-42.5 150t-116.5 55q-71 0 -113 -56zM242 624v88h62v-88h-62z" />
    <glyph glyph-name="Gcommaaccent" unicode="&#x122;" horiz-adv-x="724" 
d="M498 697.5q60 -27.5 96 -78t42 -117.5h-68q-13 77 -67 119.5t-141 42.5q-76 0 -131.5 -37.5t-85 -107.5t-29.5 -165t28.5 -164t81.5 -105.5t126 -36.5q101 0 162.5 63.5t61.5 201.5h-209v59h272v-372h-61v109h-2q-27 -55 -90 -88t-141 -33q-91 0 -158 44t-103.5 126.5
t-36.5 195.5q0 114 38 197.5t109 128.5t168 45q78 0 138 -27.5zM342 -251h-29l35 102h-28v81h71v-81z" />
    <glyph glyph-name="gcommaaccent" unicode="&#x123;" horiz-adv-x="565" 
d="M352.5 498q40.5 -23 65.5 -66h2v76h62v-477q0 -110 -54 -166.5t-159 -56.5q-95 0 -149 42.5t-55 117.5h63q1 -51 39 -79.5t102 -28.5q77 0 114 42.5t37 131.5v60h-2q-26 -43 -66.5 -66t-89.5 -23q-66 0 -115 32t-76 90.5t-27 135.5t27 135.5t76 90.5t115 32
q50 0 90.5 -23zM151 412q-42 -56 -42 -149t42 -149t113 -56q74 0 116.5 55t42.5 150t-42.5 150t-116.5 55q-71 0 -113 -56zM305 667v-81h-71v81l49 102h29l-35 -102h28z" />
    <glyph glyph-name="Hcircumflex" unicode="&#x124;" horiz-adv-x="731" 
d="M565 0v340h-399v-340h-65v712h65v-313h399v313h65v-712h-65zM401 895l114 -135h-69l-81 95l-80 -95h-69l114 135h71z" />
    <glyph glyph-name="hcircumflex" unicode="&#x125;" 
d="M147 440q25 39 67 59t90 20q88 0 134.5 -53t46.5 -157v-309h-62v306q0 86 -33 122.5t-97 36.5q-40 0 -74 -19t-54 -56t-20 -89v-301h-62v712h62v-272h2zM318 895l114 -135h-69l-81 95l-80 -95h-69l114 135h71z" />
    <glyph glyph-name="Hbar" unicode="&#x126;" horiz-adv-x="731" 
d="M630 576v-576h-65v340h-399v-340h-65v576h-60v53h60v83h65v-83h399v83h65v-83h60v-53h-60zM166 576v-177h399v177h-399z" />
    <glyph glyph-name="hbar" unicode="&#x127;" 
d="M438.5 466q46.5 -53 46.5 -157v-309h-62v306q0 86 -33 122.5t-97 36.5q-40 0 -74 -19t-54 -56t-20 -89v-301h-62v583h-69v46h69v83h62v-83h132v-46h-132v-143h2q25 39 67 59t90 20q88 0 134.5 -53z" />
    <glyph glyph-name="Itilde" unicode="&#x128;" horiz-adv-x="267" 
d="M101 0v712h65v-712h-65zM270.5 807q-24.5 -27 -65.5 -27q-21 0 -39.5 8t-41.5 22q-22 13 -35 18.5t-26 5.5q-20 0 -32 -14t-14 -40h-48q3 51 27.5 78t65.5 27q21 0 38.5 -7t43.5 -22q19 -12 32.5 -18t27.5 -6q20 0 32 13.5t14 39.5h48q-3 -51 -27.5 -78z" />
    <glyph glyph-name="itilde" unicode="&#x129;" horiz-adv-x="228" 
d="M83 0v508h62v-508h-62zM233 625.5q-23 -27.5 -61 -27.5q-19 0 -33.5 7.5t-34.5 22.5q-16 12 -27 18t-22 6q-36 0 -41 -54h-44q2 51 24.5 78t60.5 27q19 0 33.5 -8t35.5 -23q17 -13 27 -18.5t21 -5.5q37 0 42 55h44q-2 -50 -25 -77.5z" />
    <glyph glyph-name="Imacron" unicode="&#x12a;" horiz-adv-x="267" 
d="M101 0v712h65v-712h-65zM1 793v52h263v-52h-263z" />
    <glyph glyph-name="imacron" unicode="&#x12b;" horiz-adv-x="228" 
d="M83 0v508h62v-508h-62zM-7 625v51h242v-51h-242z" />
    <glyph glyph-name="Ibreve" unicode="&#x12c;" horiz-adv-x="267" 
d="M101 0v712h65v-712h-65zM236 792.5q-38 -36.5 -102 -36.5t-102 36.5t-44 102.5h51q6 -43 30.5 -66.5t64.5 -23.5t64 23t31 67h51q-6 -66 -44 -102.5z" />
    <glyph glyph-name="ibreve" unicode="&#x12d;" horiz-adv-x="228" 
d="M83 0v508h62v-508h-62zM208.5 609.5q-33.5 -36.5 -93.5 -36.5t-93.5 36.5t-35.5 102.5h50q3 -44 23.5 -67t55.5 -23t55.5 23.5t22.5 66.5h51q-2 -66 -35.5 -102.5z" />
    <glyph glyph-name="Iogonek" unicode="&#x12e;" horiz-adv-x="267" 
d="M169 -140v-44q-19 -8 -49 -8q-46 0 -69 19.5t-23 55.5q0 32 18.5 58.5t59.5 58.5h-5v712h65v-712q-45 -34 -62.5 -59t-17.5 -51q0 -18 11.5 -27.5t31.5 -9.5q22 0 40 7z" />
    <glyph glyph-name="iogonek" unicode="&#x12f;" horiz-adv-x="228" 
d="M83 624v88h62v-88h-62zM148 -140v-44q-19 -8 -49 -8q-46 0 -69 19.5t-23 55.5q0 32 18.5 58.5t59.5 58.5h-2v508h62v-508q-45 -34 -62.5 -59t-17.5 -51q0 -18 11.5 -27.5t31.5 -9.5q22 0 40 7z" />
    <glyph glyph-name="Idotaccent" unicode="&#x130;" horiz-adv-x="267" 
d="M101 0v712h65v-712h-65zM102 769v88h62v-88h-62z" />
    <glyph glyph-name="dotlessi" unicode="&#x131;" horiz-adv-x="228" 
d="M83 0v508h62v-508h-62z" />
    <glyph glyph-name="IJ" unicode="&#x132;" horiz-adv-x="604" 
d="M101 0v712h65v-712h-65zM461 45.5q-48 -49.5 -137 -49.5q-24 0 -42 5v60q21 -4 41 -4q60 0 90 33.5t30 104.5v517h66v-519q0 -98 -48 -147.5z" />
    <glyph glyph-name="ij" unicode="&#x133;" horiz-adv-x="463" 
d="M83 624v88h62v-88h-62zM318 624v88h62v-88h-62zM83 0v508h62v-508h-62zM247 -189q-19 0 -36 4v54q17 -3 30 -3q38 0 57.5 22.5t19.5 75.5v544h62v-545q0 -152 -133 -152z" />
    <glyph glyph-name="Jcircumflex" unicode="&#x134;" horiz-adv-x="337" 
d="M194 45.5q-48 -49.5 -137 -49.5q-24 0 -42 5v60q21 -4 41 -4q60 0 90 33.5t30 104.5v517h66v-519q0 -98 -48 -147.5zM245 895l114 -135h-69l-81 95l-80 -95h-69l114 135h71z" />
    <glyph glyph-name="jcircumflex" unicode="&#x135;" horiz-adv-x="235" 
d="M19 -189q-19 0 -36 4v54q16 -3 30 -3q38 0 57.5 22.5t19.5 75.5v544h62v-545q0 -152 -133 -152zM189 572l-68 101l-67 -101h-68l98 140h74l98 -140h-67z" />
    <glyph glyph-name="Kcommaaccent" unicode="&#x136;" horiz-adv-x="607" 
d="M602 0h-91l-343 357h-2v-357h-65v712h65v-325h2l314 325h88l-331 -340zM312 -251h-29l35 102h-28v81h71v-81z" />
    <glyph glyph-name="kcommaaccent" unicode="&#x137;" horiz-adv-x="479" 
d="M400 0l-253 262h-2v-262h-62v712h62v-417h2l226 213h84l-246 -228l275 -280h-86zM252 -251h-29l35 102h-28v81h71v-81z" />
    <glyph glyph-name="kgreenlandic" unicode="&#x138;" horiz-adv-x="496" 
d="M400 0l-253 262h-2v-262h-62v508h62v-213h2l226 213h84l-246 -228l275 -280h-86z" />
    <glyph glyph-name="Lacute" unicode="&#x139;" horiz-adv-x="553" 
d="M543 59v-59h-442v712h65v-653h377zM108 760l90 135h84l-115 -135h-59z" />
    <glyph glyph-name="lacute" unicode="&#x13a;" horiz-adv-x="228" 
d="M83 0v712h62v-712h-62zM78 775l90 141h84l-115 -141h-59z" />
    <glyph glyph-name="Lcommaaccent" unicode="&#x13b;" horiz-adv-x="553" 
d="M543 59v-59h-442v712h65v-653h377zM309 -251h-29l35 102h-28v81h71v-81z" />
    <glyph glyph-name="lcommaaccent" unicode="&#x13c;" horiz-adv-x="228" 
d="M83 0v712h62v-712h-62zM101 -251h-29l35 102h-28v81h71v-81z" />
    <glyph glyph-name="Lcaron" unicode="&#x13d;" horiz-adv-x="553" 
d="M543 59v-59h-442v712h65v-653h377zM234 497l31 215h64l-54 -215h-41z" />
    <glyph glyph-name="lcaron" unicode="&#x13e;" horiz-adv-x="228" 
d="M83 0v712h62v-712h-62zM184 536l31 176h64l-54 -176h-41z" />
    <glyph glyph-name="Ldot" unicode="&#x13f;" horiz-adv-x="633" 
d="M543 59v-59h-442v712h65v-653h377zM407 358v91h86v-91h-86z" />
    <glyph glyph-name="ldot" unicode="&#x140;" horiz-adv-x="356" 
d="M83 0v712h62v-712h-62zM249 310v91h86v-91h-86z" />
    <glyph glyph-name="Lslash" unicode="&#x141;" horiz-adv-x="553" 
d="M543 0h-442v316l-84 -50v63l84 50v333h65v-301l152 91v-63l-152 -91v-289h377v-59z" />
    <glyph glyph-name="lslash" unicode="&#x142;" horiz-adv-x="262" 
d="M162 395v-395h-62v363l-90 -53v59l90 53v290h62v-258l90 53v-59z" />
    <glyph glyph-name="Nacute" unicode="&#x143;" horiz-adv-x="745" 
d="M545 0l-185 316l-105 179q-58 102 -88 152h-2l1 -356v-291h-65v712h99l185 -316l105 -179q58 -102 88 -152h2q-1 119 -1 356v291h65v-712h-99zM315 760l90 135h84l-115 -135h-59z" />
    <glyph glyph-name="nacute" unicode="&#x144;" 
d="M438.5 466q46.5 -53 46.5 -157v-309h-62v306q0 86 -33 122.5t-97 36.5q-40 0 -74 -19t-54 -56t-20 -89v-301h-62v508h61v-69h2q24 37 65.5 58.5t92.5 21.5q88 0 134.5 -53zM226 571l90 141h84l-115 -141h-59z" />
    <glyph glyph-name="Ncommaaccent" unicode="&#x145;" horiz-adv-x="745" 
d="M545 0l-185 316l-105 179q-58 102 -88 152h-2l1 -356v-291h-65v712h99l185 -316l105 -179q58 -102 88 -152h2q-1 119 -1 356v291h65v-712h-99zM360 -251h-29l35 102h-28v81h71v-81z" />
    <glyph glyph-name="ncommaaccent" unicode="&#x146;" 
d="M438.5 466q46.5 -53 46.5 -157v-309h-62v306q0 86 -33 122.5t-97 36.5q-40 0 -74 -19t-54 -56t-20 -89v-301h-62v508h61v-69h2q24 37 65.5 58.5t92.5 21.5q88 0 134.5 -53zM271 -251h-29l35 102h-28v81h71v-81z" />
    <glyph glyph-name="Ncaron" unicode="&#x147;" horiz-adv-x="745" 
d="M545 0l-185 316l-105 179q-58 102 -88 152h-2l1 -356v-291h-65v712h99l185 -316l105 -179q58 -102 88 -152h2q-1 119 -1 356v291h65v-712h-99zM337 760l-114 135h69l81 -95l80 95h69l-114 -135h-71z" />
    <glyph glyph-name="ncaron" unicode="&#x148;" 
d="M438.5 466q46.5 -53 46.5 -157v-309h-62v306q0 86 -33 122.5t-97 36.5q-40 0 -74 -19t-54 -56t-20 -89v-301h-62v508h61v-69h2q24 37 65.5 58.5t92.5 21.5q88 0 134.5 -53zM249 571l-114 141h69l81 -101l80 101h69l-114 -141h-71z" />
    <glyph glyph-name="napostrophe" unicode="&#x149;" horiz-adv-x="666" 
d="M116 494h-44l29 128h-29v90h84v-90zM541.5 466q46.5 -53 46.5 -157v-309h-62v306q0 86 -33 122.5t-97 36.5q-40 0 -74 -19t-54 -56t-20 -89v-301h-62v508h61v-69h2q24 37 65.5 58.5t92.5 21.5q88 0 134.5 -53z" />
    <glyph glyph-name="Eng" unicode="&#x14a;" horiz-adv-x="743" 
d="M642 -47q0 -142 -135 -142q-20 0 -36 4v54q17 -3 30 -3q39 0 58 20t19 68v46l-213 333l-198 312h-2l1 -346v-299h-65v712h97l180 -284l66 -104l132 -208h2v346v250h64v-759z" />
    <glyph glyph-name="eng" unicode="&#x14b;" 
d="M436 468q27 -29 38 -67.5t11 -101.5v-346q0 -142 -132 -142q-20 0 -36 4v54q15 -3 29 -3q39 0 58 20.5t19 68.5v340q0 54 -7.5 83t-25.5 50q-35 38 -97 38q-40 0 -74 -19.5t-54 -56.5t-20 -89v-301h-62v508h62v-69h2q25 40 66.5 60t90.5 20q83 0 132 -51z" />
    <glyph glyph-name="Omacron" unicode="&#x14c;" horiz-adv-x="724" 
d="M529.5 679.5q71.5 -45.5 110 -128.5t38.5 -195t-38.5 -195t-110 -128.5t-167.5 -45.5t-167.5 45.5t-110.5 129t-39 194.5t39 194.5t110.5 129t167.5 45.5t167.5 -45.5zM231 626.5q-56 -37.5 -86.5 -107.5t-30.5 -163t30.5 -163t86.5 -107.5t131 -37.5t131 38t86.5 107.5
t30.5 162.5t-30.5 162.5t-86.5 107.5t-131 38t-131 -37.5zM230 793v52h263v-52h-263z" />
    <glyph glyph-name="omacron" unicode="&#x14d;" horiz-adv-x="552" 
d="M446 449.5q62 -71.5 62 -195.5t-62 -195.5t-170 -71.5t-170 71.5t-62 195.5t62 195.5t170 71.5t170 -71.5zM153.5 410q-44.5 -57 -44.5 -156t44.5 -156t122.5 -57q79 0 123.5 57t44.5 156t-44.5 156t-123.5 57q-78 0 -122.5 -57zM144 624v52h263v-52h-263z" />
    <glyph glyph-name="Obreve" unicode="&#x14e;" horiz-adv-x="724" 
d="M529.5 679.5q71.5 -45.5 110 -128.5t38.5 -195t-38.5 -195t-110 -128.5t-167.5 -45.5t-167.5 45.5t-110.5 129t-39 194.5t39 194.5t110.5 129t167.5 45.5t167.5 -45.5zM231 626.5q-56 -37.5 -86.5 -107.5t-30.5 -163t30.5 -163t86.5 -107.5t131 -37.5t131 38t86.5 107.5
t30.5 162.5t-30.5 162.5t-86.5 107.5t-131 38t-131 -37.5zM464 792.5q-38 -36.5 -102 -36.5t-102 36.5t-44 102.5h51q6 -43 30.5 -66.5t64.5 -23.5t64 23t31 67h51q-6 -66 -44 -102.5z" />
    <glyph glyph-name="obreve" unicode="&#x14f;" horiz-adv-x="552" 
d="M446 449.5q62 -71.5 62 -195.5t-62 -195.5t-170 -71.5t-170 71.5t-62 195.5t62 195.5t170 71.5t170 -71.5zM153.5 410q-44.5 -57 -44.5 -156t44.5 -156t122.5 -57q79 0 123.5 57t44.5 156t-44.5 156t-123.5 57q-78 0 -122.5 -57zM378 609.5q-38 -36.5 -102 -36.5
t-102 36.5t-44 102.5h51q6 -43 30.5 -66t64.5 -23t64 22.5t31 66.5h51q-6 -66 -44 -102.5z" />
    <glyph glyph-name="Ohungarumlaut" unicode="&#x150;" horiz-adv-x="724" 
d="M529.5 679.5q71.5 -45.5 110 -128.5t38.5 -195t-38.5 -195t-110 -128.5t-167.5 -45.5t-167.5 45.5t-110.5 129t-39 194.5t39 194.5t110.5 129t167.5 45.5t167.5 -45.5zM231 626.5q-56 -37.5 -86.5 -107.5t-30.5 -163t30.5 -163t86.5 -107.5t131 -37.5t131 38t86.5 107.5
t30.5 162.5t-30.5 162.5t-86.5 107.5t-131 38t-131 -37.5zM239 753l110 142h80l-134 -142h-56zM384 753l110 142h80l-134 -142h-56z" />
    <glyph glyph-name="ohungarumlaut" unicode="&#x151;" horiz-adv-x="552" 
d="M446 449.5q62 -71.5 62 -195.5t-62 -195.5t-170 -71.5t-170 71.5t-62 195.5t62 195.5t170 71.5t170 -71.5zM153.5 410q-44.5 -57 -44.5 -156t44.5 -156t122.5 -57q79 0 123.5 57t44.5 156t-44.5 156t-123.5 57q-78 0 -122.5 -57zM155 571l110 141h80l-134 -141h-56z
M300 571l110 141h80l-134 -141h-56z" />
    <glyph glyph-name="OE" unicode="&#x152;" horiz-adv-x="989" 
d="M545 653v-258h358v-59h-358v-277h389v-59h-530q-172 0 -265.5 92.5t-93.5 263.5t93.5 263.5t265.5 92.5h518v-59h-377zM189 576q-75 -77 -75 -220t75 -220t215 -77h75v594h-75q-140 0 -215 -77z" />
    <glyph glyph-name="oe" unicode="&#x153;" horiz-adv-x="882" 
d="M722.5 70.5q36.5 30.5 46.5 80.5h64q-11 -70 -64.5 -117t-140.5 -47q-65 0 -112 32.5t-73 92.5q-25 -60 -71.5 -92.5t-110.5 -32.5q-101 0 -159 71.5t-58 195.5t58 195.5t159 71.5q63 0 109.5 -31.5t71.5 -90.5q25 58 71.5 90t110.5 32q79 0 134 -49t72 -132q8 -43 8 -98
h-369q2 -98 46 -150t113 -52q58 0 94.5 30.5zM515 421q-42 -47 -46 -128h307q-4 83 -45 129t-107 46q-67 0 -109 -47zM373.5 98q41.5 57 41.5 156t-41.5 156t-112.5 57t-111.5 -57t-40.5 -156t40.5 -156t111.5 -57t112.5 57z" />
    <glyph glyph-name="Racute" unicode="&#x154;" horiz-adv-x="627" 
d="M493.5 663q60.5 -49 60.5 -141q0 -69 -38 -117.5t-100 -61.5v-2q39 -12 60.5 -39.5t45.5 -93.5l75 -208h-71l-68 198q-23 66 -54 91t-91 25h-147v-314h-65v712h209q123 0 183.5 -49zM166 373h148q86 0 129.5 40t43.5 106q0 134 -178 134h-143v-280zM253 760l90 135h84
l-115 -135h-59z" />
    <glyph glyph-name="racute" unicode="&#x155;" horiz-adv-x="347" 
d="M335 509v-59q-16 2 -32 2q-76 0 -117 -48t-41 -136v-268h-62v508h61v-80h2q25 41 65 62.5t90 21.5q19 0 34 -3zM148 571l90 141h84l-115 -141h-59z" />
    <glyph glyph-name="Rcommaaccent" unicode="&#x156;" horiz-adv-x="627" 
d="M493.5 663q60.5 -49 60.5 -141q0 -69 -38 -117.5t-100 -61.5v-2q39 -12 60.5 -39.5t45.5 -93.5l75 -208h-71l-68 198q-23 66 -54 91t-91 25h-147v-314h-65v712h209q123 0 183.5 -49zM166 373h148q86 0 129.5 40t43.5 106q0 134 -178 134h-143v-280zM323 -251h-29l35 102
h-28v81h71v-81z" />
    <glyph glyph-name="rcommaaccent" unicode="&#x157;" horiz-adv-x="347" 
d="M335 509v-59q-16 2 -32 2q-76 0 -117 -48t-41 -136v-268h-62v508h61v-80h2q25 41 65 62.5t90 21.5q19 0 34 -3zM101 -251h-29l35 102h-28v81h71v-81z" />
    <glyph glyph-name="Rcaron" unicode="&#x158;" horiz-adv-x="627" 
d="M493.5 663q60.5 -49 60.5 -141q0 -69 -38 -117.5t-100 -61.5v-2q39 -12 60.5 -39.5t45.5 -93.5l75 -208h-71l-68 198q-23 66 -54 91t-91 25h-147v-314h-65v712h209q123 0 183.5 -49zM166 373h148q86 0 129.5 40t43.5 106q0 134 -178 134h-143v-280zM275 760l-114 135h69
l81 -95l80 95h69l-114 -135h-71z" />
    <glyph glyph-name="rcaron" unicode="&#x159;" horiz-adv-x="347" 
d="M335 509v-59q-16 2 -32 2q-76 0 -117 -48t-41 -136v-268h-62v508h61v-80h2q25 41 65 62.5t90 21.5q19 0 34 -3zM171 571l-114 141h69l81 -101l80 101h69l-114 -141h-71z" />
    <glyph glyph-name="Sacute" unicode="&#x15a;" horiz-adv-x="599" 
d="M467.5 666q62.5 -59 62.5 -175h-66q0 175 -182 175q-75 0 -116 -34.5t-41 -94.5q0 -41 19.5 -66.5t57 -41t103.5 -31.5q81 -20 130 -41t78.5 -60.5t29.5 -106.5q0 -93 -65.5 -148t-177.5 -55q-122 0 -188.5 64t-66.5 186h65q0 -97 50 -143.5t140 -46.5q86 0 131.5 37
t45.5 105q0 43 -20.5 68.5t-59 41t-108.5 33.5q-80 20 -127.5 41t-75 59.5t-27.5 103.5q0 56 26.5 98.5t77 66.5t119.5 24q123 0 185.5 -59zM224 760l90 135h84l-115 -135h-59z" />
    <glyph glyph-name="sacute" unicode="&#x15b;" horiz-adv-x="479" 
d="M370 475.5q50 -45.5 51 -128.5h-62q0 57 -34 88.5t-95 31.5q-52 0 -83.5 -23t-31.5 -61q0 -30 13 -46t36.5 -24t78.5 -21q66 -15 103 -28.5t63.5 -44t26.5 -84.5q0 -66 -52 -107t-138 -41q-96 0 -150 48t-55 136h63q0 -62 37 -96t105 -34q57 0 92.5 25t35.5 65
q0 33 -15 51t-44 28t-92 25q-59 14 -91.5 26t-55.5 40t-23 77q0 64 49.5 103.5t127.5 39.5q90 0 140 -45.5zM172 571l90 141h84l-115 -141h-59z" />
    <glyph glyph-name="Scircumflex" unicode="&#x15c;" horiz-adv-x="599" 
d="M467.5 666q62.5 -59 62.5 -175h-66q0 175 -182 175q-75 0 -116 -34.5t-41 -94.5q0 -41 19.5 -66.5t57 -41t103.5 -31.5q81 -20 130 -41t78.5 -60.5t29.5 -106.5q0 -93 -65.5 -148t-177.5 -55q-122 0 -188.5 64t-66.5 186h65q0 -97 50 -143.5t140 -46.5q86 0 131.5 37
t45.5 105q0 43 -20.5 68.5t-59 41t-108.5 33.5q-80 20 -127.5 41t-75 59.5t-27.5 103.5q0 56 26.5 98.5t77 66.5t119.5 24q123 0 185.5 -59zM318 895l114 -135h-69l-81 95l-80 -95h-69l114 135h71z" />
    <glyph glyph-name="scircumflex" unicode="&#x15d;" horiz-adv-x="479" 
d="M370 475.5q50 -45.5 51 -128.5h-62q0 57 -34 88.5t-95 31.5q-52 0 -83.5 -23t-31.5 -61q0 -30 13 -46t36.5 -24t78.5 -21q66 -15 103 -28.5t63.5 -44t26.5 -84.5q0 -66 -52 -107t-138 -41q-96 0 -150 48t-55 136h63q0 -62 37 -96t105 -34q57 0 92.5 25t35.5 65
q0 33 -15 51t-44 28t-92 25q-59 14 -91.5 26t-55.5 40t-23 77q0 64 49.5 103.5t127.5 39.5q90 0 140 -45.5zM230 672l-81 -101h-69l114 141h71l114 -141h-69z" />
    <glyph glyph-name="Scedilla" unicode="&#x15e;" horiz-adv-x="599" 
d="M487.5 51q-55.5 -54 -152.5 -62l-34 -52q10 2 23 2q33 0 55.5 -19.5t22.5 -52.5q0 -36 -27 -60.5t-78 -24.5q-53 0 -100 27l15 32q37 -20 78 -20q29 0 44.5 11.5t15.5 32.5q0 20 -15 31.5t-41 11.5q-16 0 -31 -5l-16 18l44 66q-118 2 -182 66t-64 184h65q0 -97 50 -143.5
t140 -46.5q86 0 131.5 37t45.5 105q0 43 -20.5 68.5t-59 41t-108.5 33.5q-80 20 -127.5 41t-75 59.5t-27.5 103.5q0 56 26.5 98.5t77 66.5t119.5 24q123 0 185.5 -59t62.5 -175h-66q0 175 -182 175q-75 0 -116 -34.5t-41 -94.5q0 -41 19.5 -66.5t57 -41t103.5 -31.5
q81 -20 130 -41t78.5 -60.5t29.5 -106.5q0 -85 -55.5 -139z" />
    <glyph glyph-name="scedilla" unicode="&#x15f;" horiz-adv-x="479" 
d="M394.5 36.5q-41.5 -39.5 -112.5 -47.5l-35 -52q10 2 23 2q33 0 55.5 -19.5t22.5 -52.5q0 -36 -27 -60.5t-78 -24.5q-53 0 -100 27l15 32q37 -20 78 -20q29 0 44.5 11.5t15.5 32.5q0 20 -15 31.5t-41 11.5q-16 0 -31 -5l-16 18l44 66q-92 2 -143.5 50t-52.5 134h63
q0 -62 37 -96t105 -34q57 0 92.5 25t35.5 65q0 33 -15 51t-44 28t-92 25q-59 14 -91.5 26t-55.5 40t-23 77q0 64 49.5 103.5t127.5 39.5q90 0 140 -45.5t51 -128.5h-62q0 57 -34 88.5t-95 31.5q-52 0 -83.5 -23t-31.5 -61q0 -30 13 -46t36.5 -24t78.5 -21q66 -15 103 -28.5
t63.5 -44t26.5 -84.5q0 -59 -41.5 -98.5z" />
    <glyph glyph-name="Scaron" unicode="&#x160;" horiz-adv-x="599" 
d="M467.5 666q62.5 -59 62.5 -175h-66q0 175 -182 175q-75 0 -116 -34.5t-41 -94.5q0 -41 19.5 -66.5t57 -41t103.5 -31.5q81 -20 130 -41t78.5 -60.5t29.5 -106.5q0 -93 -65.5 -148t-177.5 -55q-122 0 -188.5 64t-66.5 186h65q0 -97 50 -143.5t140 -46.5q86 0 131.5 37
t45.5 105q0 43 -20.5 68.5t-59 41t-108.5 33.5q-80 20 -127.5 41t-75 59.5t-27.5 103.5q0 56 26.5 98.5t77 66.5t119.5 24q123 0 185.5 -59zM247 760l-114 135h69l81 -95l80 95h69l-114 -135h-71z" />
    <glyph glyph-name="scaron" unicode="&#x161;" horiz-adv-x="479" 
d="M370 475.5q50 -45.5 51 -128.5h-62q0 57 -34 88.5t-95 31.5q-52 0 -83.5 -23t-31.5 -61q0 -30 13 -46t36.5 -24t78.5 -21q66 -15 103 -28.5t63.5 -44t26.5 -84.5q0 -66 -52 -107t-138 -41q-96 0 -150 48t-55 136h63q0 -62 37 -96t105 -34q57 0 92.5 25t35.5 65
q0 33 -15 51t-44 28t-92 25q-59 14 -91.5 26t-55.5 40t-23 77q0 64 49.5 103.5t127.5 39.5q90 0 140 -45.5zM194 571l-114 141h69l81 -101l80 101h69l-114 -141h-71z" />
    <glyph glyph-name="Tcommaaccent" unicode="&#x162;" horiz-adv-x="592" 
d="M328 653v-653h-65v653h-253v59h572v-59h-254zM283 -251h-29l35 102h-28v81h71v-81z" />
    <glyph glyph-name="tcommaaccent" unicode="&#x163;" horiz-adv-x="302" 
d="M273 55v-53q-22 -5 -46 -5q-66 0 -95 32t-29 105v322h-91v52h91v118h62v-118h103v-52h-103v-321q0 -45 16.5 -64.5t56.5 -19.5q19 0 35 4zM205 -68v-81l-49 -102h-29l35 102h-28v81h71z" />
    <glyph glyph-name="Tcaron" unicode="&#x164;" horiz-adv-x="592" 
d="M328 653v-653h-65v653h-253v59h572v-59h-254zM260 760l-114 135h69l81 -95l80 95h69l-114 -135h-71z" />
    <glyph glyph-name="tcaron" unicode="&#x165;" horiz-adv-x="302" 
d="M273 55v-53q-22 -5 -46 -5q-66 0 -95 32t-29 105v322h-91v52h91v118h62v-118h103v-52h-103v-321q0 -45 16.5 -64.5t56.5 -19.5q19 0 35 4zM203 536l31 176h64l-54 -176h-41z" />
    <glyph glyph-name="Tbar" unicode="&#x166;" horiz-adv-x="592" 
d="M328 413h145v-54h-145v-359h-65v359h-144v54h144v240h-253v59h572v-59h-254v-240z" />
    <glyph glyph-name="tbar" unicode="&#x167;" horiz-adv-x="298" 
d="M273 55v-53q-22 -5 -46 -5q-66 0 -95 32t-29 105v117h-88v48h88v157h-91v52h91v118h62v-118h103v-52h-103v-157h100v-48h-100v-116q0 -45 16.5 -64.5t56.5 -19.5q19 0 35 4z" />
    <glyph glyph-name="Utilde" unicode="&#x168;" horiz-adv-x="699" 
d="M539 57.5q-65 -70.5 -189 -70.5t-189.5 71t-65.5 206v448h65v-447q0 -108 49.5 -162.5t140.5 -54.5q90 0 139.5 54.5t49.5 162.5v447h65v-448q0 -136 -65 -206.5zM486.5 807q-24.5 -27 -65.5 -27q-21 0 -39.5 8t-41.5 22q-22 13 -35 18.5t-26 5.5q-20 0 -32 -14t-14 -40
h-48q3 51 27.5 78t65.5 27q21 0 38.5 -7t43.5 -22q19 -12 32.5 -18t27.5 -6q20 0 32 13.5t14 39.5h48q-3 -51 -27.5 -78z" />
    <glyph glyph-name="utilde" unicode="&#x169;" 
d="M124.5 42q-46.5 53 -46.5 157v309h62v-306q0 -86 33 -122.5t97 -36.5q40 0 74 19t54 56t20 89v301h62v-508h-61v69h-2q-23 -37 -64.5 -58.5t-93.5 -21.5q-88 0 -134.5 53zM419.5 625q-24.5 -27 -65.5 -27q-21 0 -39 7.5t-42 21.5q-19 12 -33 18t-28 6q-20 0 -32 -13.5
t-14 -39.5h-48q3 51 27.5 78t65.5 27q20 0 37 -7t45 -23q23 -13 35 -18.5t25 -5.5q20 0 32 14t14 40h48q-3 -51 -27.5 -78z" />
    <glyph glyph-name="Umacron" unicode="&#x16a;" horiz-adv-x="699" 
d="M539 57.5q-65 -70.5 -189 -70.5t-189.5 71t-65.5 206v448h65v-447q0 -108 49.5 -162.5t140.5 -54.5q90 0 139.5 54.5t49.5 162.5v447h65v-448q0 -136 -65 -206.5zM218 793v52h263v-52h-263z" />
    <glyph glyph-name="umacron" unicode="&#x16b;" 
d="M124.5 42q-46.5 53 -46.5 157v309h62v-306q0 -86 33 -122.5t97 -36.5q40 0 74 19t54 56t20 89v301h62v-508h-61v69h-2q-23 -37 -64.5 -58.5t-93.5 -21.5q-88 0 -134.5 53zM150 624v52h263v-52h-263z" />
    <glyph glyph-name="Ubreve" unicode="&#x16c;" horiz-adv-x="699" 
d="M539 57.5q-65 -70.5 -189 -70.5t-189.5 71t-65.5 206v448h65v-447q0 -108 49.5 -162.5t140.5 -54.5q90 0 139.5 54.5t49.5 162.5v447h65v-448q0 -136 -65 -206.5zM452 792.5q-38 -36.5 -102 -36.5t-102 36.5t-44 102.5h51q6 -43 30.5 -66.5t64.5 -23.5t64 23t31 67h51
q-6 -66 -44 -102.5z" />
    <glyph glyph-name="ubreve" unicode="&#x16d;" 
d="M124.5 42q-46.5 53 -46.5 157v309h62v-306q0 -86 33 -122.5t97 -36.5q40 0 74 19t54 56t20 89v301h62v-508h-61v69h-2q-23 -37 -64.5 -58.5t-93.5 -21.5q-88 0 -134.5 53zM384 609.5q-38 -36.5 -102 -36.5t-102 36.5t-44 102.5h51q6 -43 30.5 -66t64.5 -23t64 22.5
t31 66.5h51q-6 -66 -44 -102.5z" />
    <glyph glyph-name="Uring" unicode="&#x16e;" horiz-adv-x="699" 
d="M539 57.5q-65 -70.5 -189 -70.5t-189.5 71t-65.5 206v448h65v-447q0 -108 49.5 -162.5t140.5 -54.5q90 0 139.5 54.5t49.5 162.5v447h65v-448q0 -136 -65 -206.5zM418 918q28 -28 28 -68t-28 -68.5t-68 -28.5t-68.5 28.5t-28.5 68.5t28.5 68t68.5 28t68 -28zM307.5 891.5
q-17.5 -17.5 -17.5 -41.5q0 -25 17.5 -42.5t42.5 -17.5t42 17.5t17 42.5q0 24 -17 41.5t-42 17.5t-42.5 -17.5z" />
    <glyph glyph-name="uring" unicode="&#x16f;" 
d="M124.5 42q-46.5 53 -46.5 157v309h62v-306q0 -86 33 -122.5t97 -36.5q40 0 74 19t54 56t20 89v301h62v-508h-61v69h-2q-23 -37 -64.5 -58.5t-93.5 -21.5q-88 0 -134.5 53zM350 735.5q28 -28.5 28 -68.5t-28 -68.5t-68 -28.5t-68.5 28.5t-28.5 68.5t28.5 68.5t68.5 28.5
t68 -28.5zM239.5 709q-17.5 -17 -17.5 -42t17.5 -42.5t42.5 -17.5t42 17.5t17 42.5t-17 42t-42 17t-42.5 -17z" />
    <glyph glyph-name="Uhungarumlaut" unicode="&#x170;" horiz-adv-x="699" 
d="M539 57.5q-65 -70.5 -189 -70.5t-189.5 71t-65.5 206v448h65v-447q0 -108 49.5 -162.5t140.5 -54.5q90 0 139.5 54.5t49.5 162.5v447h65v-448q0 -136 -65 -206.5zM227 753l110 142h80l-134 -142h-56zM372 753l110 142h80l-134 -142h-56z" />
    <glyph glyph-name="uhungarumlaut" unicode="&#x171;" 
d="M124.5 42q-46.5 53 -46.5 157v309h62v-306q0 -86 33 -122.5t97 -36.5q40 0 74 19t54 56t20 89v301h62v-508h-61v69h-2q-23 -37 -64.5 -58.5t-93.5 -21.5q-88 0 -134.5 53zM161 571l110 141h80l-134 -141h-56zM306 571l110 141h80l-134 -141h-56z" />
    <glyph glyph-name="Uogonek" unicode="&#x172;" horiz-adv-x="699" 
d="M575.5 114q-28.5 -60 -85.5 -106q-45 -35 -62.5 -60t-17.5 -51q0 -22 11.5 -33t32.5 -11q22 0 39 7v-44q-19 -8 -48 -8q-47 0 -70 21t-23 60q0 29 15 53t49 53v2q-33 -10 -66 -10q-124 0 -189.5 71t-65.5 206v448h65v-447q0 -108 49.5 -162.5t140.5 -54.5
q90 0 139.5 54.5t49.5 162.5v447h65v-448q0 -90 -28.5 -150z" />
    <glyph glyph-name="uogonek" unicode="&#x173;" 
d="M483 -140v-44q-19 -8 -49 -8q-46 0 -69 19.5t-23 55.5q0 32 18.5 58.5t59.5 58.5h-1v69h-2q-23 -37 -64.5 -58.5t-93.5 -21.5q-88 0 -134.5 53t-46.5 157v309h62v-306q0 -86 33 -122.5t97 -36.5q40 0 74 19t54 56t20 89v301h62v-508q-45 -34 -62.5 -59t-17.5 -51
q0 -18 11.5 -27.5t31.5 -9.5q22 0 40 7z" />
    <glyph glyph-name="Wcircumflex" unicode="&#x174;" horiz-adv-x="896" 
d="M609 0l-80 325q-54 218 -80 327h-2q-26 -109 -80 -327l-80 -325h-102l-174 712h66l74 -303q29 -116 85 -348h2l86 350l74 301h100l74 -301l86 -350h2l84 348l75 303h66l-174 -712h-102zM484 895l114 -135h-69l-81 95l-80 -95h-69l114 135h71z" />
    <glyph glyph-name="wcircumflex" unicode="&#x175;" horiz-adv-x="750" 
d="M506 0l-66 230q-40 138 -64 222h-2q-24 -84 -64 -222l-66 -230h-89l-147 508h64l62 -220l60 -212q1 -5 5 -20h2l63 225l64 227h94l64 -227l63 -225h2q4 15 5 20l60 212l62 220h64l-147 -508h-89zM375 672l-81 -101h-69l114 141h71l114 -141h-69z" />
    <glyph glyph-name="Ycircumflex" unicode="&#x176;" horiz-adv-x="602" 
d="M334 0h-66v304l-263 408h77l98 -154l120 -191h2q80 128 121 191l97 154h77l-263 -408v-304zM337 895l114 -135h-69l-81 95l-80 -95h-69l114 135h71z" />
    <glyph glyph-name="ycircumflex" unicode="&#x177;" horiz-adv-x="456" 
d="M198 -126q-26 -35 -59 -49t-84 -14q-22 0 -37 4v55q15 -4 36 -4q38 0 61 10.5t40.5 38.5t39.5 85l-200 508h67l165 -429h2l165 429h67l-210 -532q-27 -67 -53 -102zM229 672l-81 -101h-69l114 141h71l114 -141h-69z" />
    <glyph glyph-name="Ydieresis" unicode="&#x178;" horiz-adv-x="602" 
d="M334 0h-66v304l-263 408h77l98 -154l120 -191h2q80 128 121 191l97 154h77l-263 -408v-304zM178 778v88h61v-88h-61zM362 778v88h61v-88h-61z" />
    <glyph glyph-name="Zacute" unicode="&#x179;" horiz-adv-x="558" 
d="M92 61v-2h448v-59h-523v68l429 583v2h-420v59h495v-68zM215 760l90 135h84l-115 -135h-59z" />
    <glyph glyph-name="zacute" unicode="&#x17a;" horiz-adv-x="461" 
d="M102 56v-2h334v-54h-411v58l324 394v2h-314v54h391v-58zM163 571l90 141h84l-115 -141h-59z" />
    <glyph glyph-name="Zdotaccent" unicode="&#x17b;" horiz-adv-x="558" 
d="M92 61v-2h448v-59h-523v68l429 583v2h-420v59h495v-68zM242 769v88h62v-88h-62z" />
    <glyph glyph-name="zdotaccent" unicode="&#x17c;" horiz-adv-x="461" 
d="M102 56v-2h334v-54h-411v58l324 394v2h-314v54h391v-58zM189 624v88h62v-88h-62z" />
    <glyph glyph-name="Zcaron" unicode="&#x17d;" horiz-adv-x="558" 
d="M92 61v-2h448v-59h-523v68l429 583v2h-420v59h495v-68zM238 760l-114 135h69l81 -95l80 95h69l-114 -135h-71z" />
    <glyph glyph-name="zcaron" unicode="&#x17e;" horiz-adv-x="461" 
d="M102 56v-2h334v-54h-411v58l324 394v2h-314v54h391v-58zM185 571l-114 141h69l81 -101l80 101h69l-114 -141h-71z" />
    <glyph glyph-name="longs" unicode="&#x17f;" horiz-adv-x="287" 
d="M273 712v-53q-14 4 -32 4q-37 0 -55 -21t-18 -69v-573h-62v456h-91v52h91v71q0 137 125 137q20 0 42 -4z" />
    <glyph glyph-name="uni018F" unicode="&#x18f;" horiz-adv-x="729" 
d="M528.5 679.5q75.5 -45.5 115.5 -129t40 -194.5q0 -109 -39.5 -192.5t-113 -130t-172.5 -46.5q-96 0 -167 45t-109 128t-38 196q0 10 2 24h568q-2 90 -36.5 154t-93 97t-134.5 33q-88 0 -145.5 -45t-72.5 -119h-72q11 64 48 115t98.5 80.5t143.5 29.5q102 0 177.5 -45.5z
M489.5 81.5q56.5 33.5 89 95t35.5 144.5h-500q4 -86 36 -147.5t86 -93.5t123 -32q74 0 130.5 33.5z" />
    <glyph glyph-name="florin" unicode="&#x192;" horiz-adv-x="544" 
d="M522 712v-57q-20 5 -40 5q-45 0 -70.5 -25t-39.5 -85l-21 -82h110v-50h-122l-109 -431q-17 -66 -38 -104t-52 -55t-78 -17q-22 0 -39 5v57q17 -5 35 -5q29 0 48 10.5t34.5 38t28.5 78.5l106 423h-101v50h113l23 90q22 88 59.5 123.5t108.5 35.5q22 0 44 -5z" />
    <glyph glyph-name="Aringacute" unicode="&#x1fa;" horiz-adv-x="664" 
d="M165 230l-89 -230h-70l282 712h89l281 -712h-70l-89 230h-334zM447 364l-114 295h-2l-12 -31q-52 -137 -102 -264l-29 -74h287zM400 898q28 -28 28 -68t-28 -68.5t-68 -28.5t-68.5 28.5t-28.5 68.5t28.5 68t68.5 28t68 -28zM289.5 871.5q-17.5 -17.5 -17.5 -41.5
q0 -25 17.5 -42.5t42.5 -17.5t42 17.5t17 42.5q0 24 -17 41.5t-42 17.5t-42.5 -17.5zM274 947l90 135h84l-115 -135h-59z" />
    <glyph glyph-name="aringacute" unicode="&#x1fb;" horiz-adv-x="524" 
d="M395.5 472q50.5 -49 50.5 -146v-201q0 -72 11 -125h-58q-7 34 -7 77h-2q-52 -87 -181 -87q-77 0 -124.5 41t-47.5 105q0 65 43.5 102t149.5 54q73 12 156 18v24q0 68 -35 101t-95 33q-62 0 -96 -30.5t-37 -82.5h-65q5 74 56.5 120t141.5 46q89 0 139.5 -49zM238 240
q-75 -11 -105 -34t-30 -66q0 -45 31.5 -71.5t87.5 -26.5q35 0 65.5 11.5t51.5 33.5q27 28 37 55.5t10 76.5v39q-65 -5 -148 -18zM317 713.5q28 -28.5 28 -68.5t-28 -68.5t-68 -28.5t-68.5 28.5t-28.5 68.5t28.5 68.5t68.5 28.5t68 -28.5zM206.5 687q-17.5 -17 -17.5 -42
t17.5 -42.5t42.5 -17.5t42 17.5t17 42.5t-17 42t-42 17t-42.5 -17zM191 768l90 141h84l-115 -141h-59z" />
    <glyph glyph-name="AEacute" unicode="&#x1fc;" horiz-adv-x="924" 
d="M869 0h-359l-37 247h-281l-124 -247h-74l357 712h506v-59h-380l39 -258h322v-59h-313l42 -277h302v-59zM412 653h-17l-174 -347h243zM444 760l90 135h84l-115 -135h-59z" />
    <glyph glyph-name="aeacute" unicode="&#x1fd;" horiz-adv-x="854" 
d="M693.5 70.5q36.5 30.5 47.5 80.5h64q-11 -70 -64.5 -117t-140.5 -47q-64 0 -111 31.5t-74 89.5q-26 -57 -79 -89t-125 -32q-78 0 -126 42t-48 108q0 74 52 115t172 41h125v41q0 67 -34 100.5t-96 33.5q-61 0 -95.5 -31t-37.5 -82h-65q5 73 57.5 119.5t140.5 46.5
q61 0 104 -24t63 -74q27 47 71 72.5t102 25.5q79 0 134 -49t72 -132q7 -38 7 -99h-368q3 -98 46.5 -149.5t112.5 -51.5q57 0 93.5 30.5zM487 421q-42 -47 -46 -128h307q-4 83 -45.5 129t-106.5 46q-67 0 -109 -47zM269 241q-90 0 -128 -25t-38 -77q0 -46 31.5 -73t87.5 -27
q36 0 66.5 12t50.5 34q27 28 37 55.5t10 78.5v22h-117zM367 571l90 141h84l-115 -141h-59z" />
    <glyph glyph-name="Oslashacute" unicode="&#x1fe;" horiz-adv-x="724" 
d="M657 504.5q21 -67.5 21 -148.5q0 -112 -38.5 -195t-110 -128.5t-167.5 -45.5q-115 0 -195 65l-60 -80l-45 35l65 85q-40 48 -61 115.5t-21 148.5q0 111 39 194.5t110.5 129t167.5 45.5q115 0 194 -65l61 80l45 -34l-65 -86q39 -48 60 -115.5zM169 148l348 460
q-64 56 -155 56q-75 0 -131.5 -38t-87 -107.5t-30.5 -162.5q0 -127 56 -208zM493 85.5q56 37.5 86.5 107.5t30.5 163q0 129 -55 208l-348 -460q64 -56 155 -56q75 0 131 37.5zM304 760l90 135h84l-115 -135h-59z" />
    <glyph glyph-name="oslashacute" unicode="&#x1ff;" horiz-adv-x="553" 
d="M509 254q0 -124 -62.5 -195.5t-170.5 -71.5q-81 0 -139 42l-51 -66l-39 31l54 70q-57 71 -57 190q0 124 62 195.5t170 71.5q82 0 140 -43l51 68l39 -31l-55 -71q58 -70 58 -190zM153 410q-45 -57 -45 -156q0 -84 32 -137l240 314q-42 36 -104 36q-78 0 -123 -57zM400 98
q45 57 45 156q0 85 -33 138l-239 -315q42 -36 103 -36q79 0 124 57zM219 571l90 141h84l-115 -141h-59z" />
    <glyph glyph-name="Scommaaccent" unicode="&#x218;" horiz-adv-x="599" 
d="M467.5 666q62.5 -59 62.5 -175h-66q0 175 -182 175q-75 0 -116 -34.5t-41 -94.5q0 -41 19.5 -66.5t57 -41t103.5 -31.5q81 -20 130 -41t78.5 -60.5t29.5 -106.5q0 -93 -65.5 -148t-177.5 -55q-122 0 -188.5 64t-66.5 186h65q0 -97 50 -143.5t140 -46.5q86 0 131.5 37
t45.5 105q0 43 -20.5 68.5t-59 41t-108.5 33.5q-80 20 -127.5 41t-75 59.5t-27.5 103.5q0 56 26.5 98.5t77 66.5t119.5 24q123 0 185.5 -59zM286 -251h-29l35 102h-28v81h71v-81z" />
    <glyph glyph-name="scommaaccent" unicode="&#x219;" horiz-adv-x="479" 
d="M370 475.5q50 -45.5 51 -128.5h-62q0 57 -34 88.5t-95 31.5q-52 0 -83.5 -23t-31.5 -61q0 -30 13 -46t36.5 -24t78.5 -21q66 -15 103 -28.5t63.5 -44t26.5 -84.5q0 -66 -52 -107t-138 -41q-96 0 -150 48t-55 136h63q0 -62 37 -96t105 -34q57 0 92.5 25t35.5 65
q0 33 -15 51t-44 28t-92 25q-59 14 -91.5 26t-55.5 40t-23 77q0 64 49.5 103.5t127.5 39.5q90 0 140 -45.5zM233 -251h-29l35 102h-28v81h71v-81z" />
    <glyph glyph-name="uni021A" unicode="&#x21a;" horiz-adv-x="592" 
d="M328 653v-653h-65v653h-253v59h572v-59h-254zM283 -251h-29l35 102h-28v81h71v-81z" />
    <glyph glyph-name="uni021B" unicode="&#x21b;" horiz-adv-x="302" 
d="M273 55v-53q-22 -5 -46 -5q-66 0 -95 32t-29 105v322h-91v52h91v118h62v-118h103v-52h-103v-321q0 -45 16.5 -64.5t56.5 -19.5q19 0 35 4zM156 -251h-29l35 102h-28v81h71v-81z" />
    <glyph glyph-name="uni0237" unicode="&#x237;" horiz-adv-x="235" 
d="M19 -189q-19 0 -36 4v54q16 -3 30 -3q38 0 57.5 22.5t19.5 75.5v544h62v-545q0 -152 -133 -152z" />
    <glyph glyph-name="uni0259" unicode="&#x259;" horiz-adv-x="539" 
d="M432 448.5q63 -72.5 63 -194.5q0 -78 -27.5 -138.5t-79.5 -94.5t-123 -34q-67 0 -117 32.5t-77 93t-27 141.5q0 14 1 20h387q-3 94 -50.5 144t-122.5 50q-57 0 -93.5 -30.5t-46.5 -80.5h-64q12 70 64.5 117t139.5 47q110 0 173 -72.5zM382 89q45 49 49 134h-327
q5 -87 48.5 -135t112.5 -48q72 0 117 49z" />
    <glyph glyph-name="afii57929" unicode="&#x2bc;" horiz-adv-x="229" 
d="M116 494h-44l29 128h-29v90h84v-90z" />
    <glyph glyph-name="circumflex" unicode="&#x2c6;" horiz-adv-x="399" 
d="M200 672l-81 -101h-69l114 141h71l114 -141h-69z" />
    <glyph glyph-name="caron" unicode="&#x2c7;" horiz-adv-x="399" 
d="M164 571l-114 141h69l81 -101l80 101h69l-114 -141h-71z" />
    <glyph glyph-name="uni02C9" unicode="&#x2c9;" horiz-adv-x="363" 
d="M50 624v52h263v-52h-263z" />
    <glyph glyph-name="breve" unicode="&#x2d8;" horiz-adv-x="392" 
d="M298 609.5q-38 -36.5 -102 -36.5t-102 36.5t-44 102.5h51q6 -43 30.5 -66t64.5 -23t64 22.5t31 66.5h51q-6 -66 -44 -102.5z" />
    <glyph glyph-name="dotaccent" unicode="&#x2d9;" horiz-adv-x="162" 
d="M50 624v88h62v-88h-62z" />
    <glyph glyph-name="ring" unicode="&#x2da;" horiz-adv-x="293" 
d="M215 735.5q28 -28.5 28 -68.5t-28 -68.5t-68 -28.5t-68.5 28.5t-28.5 68.5t28.5 68.5t68.5 28.5t68 -28.5zM104.5 709q-17.5 -17 -17.5 -42t17.5 -42.5t42.5 -17.5t42 17.5t17 42.5t-17 42t-42 17t-42.5 -17z" />
    <glyph glyph-name="ogonek" unicode="&#x2db;" horiz-adv-x="241" 
d="M125.5 -59q-17.5 -25 -17.5 -51q0 -18 11.5 -27.5t31.5 -9.5q22 0 40 7v-44q-19 -8 -49 -8q-46 0 -69 19.5t-23 55.5q0 33 19.5 60t62.5 60l56 -3q-45 -34 -62.5 -59z" />
    <glyph glyph-name="tilde" unicode="&#x2dc;" horiz-adv-x="429" 
d="M351.5 625q-24.5 -27 -65.5 -27q-21 0 -39 7.5t-42 21.5q-19 12 -33 18t-28 6q-20 0 -32 -13.5t-14 -39.5h-48q3 51 27.5 78t65.5 27q20 0 37 -7t45 -23q23 -13 35 -18.5t25 -5.5q20 0 32 14t14 40h48q-3 -51 -27.5 -78z" />
    <glyph glyph-name="hungarumlaut" unicode="&#x2dd;" horiz-adv-x="435" 
d="M50 571l110 141h80l-134 -141h-56zM195 571l110 141h80l-134 -141h-56z" />
    <glyph glyph-name="uni0312" unicode="&#x312;" horiz-adv-x="0" 
d="M121 667v-81h-71v81l49 102h29l-35 -102h28z" />
    <glyph glyph-name="uni0326" unicode="&#x326;" horiz-adv-x="0" 
d="M79 -251h-29l35 102h-28v81h71v-81z" />
    <glyph glyph-name="uni0333" unicode="&#x333;" horiz-adv-x="0" 
d="M-500 -88v38h500v-38h-500zM-500 -210v38h500v-38h-500z" />
    <glyph glyph-name="uni0374" unicode="&#x374;" horiz-adv-x="162" 
d="M30 508l38 204h64l-60 -204h-42z" />
    <glyph glyph-name="uni0375" unicode="&#x375;" horiz-adv-x="162" 
d="M30 -92l38 204h64l-60 -204h-42z" />
    <glyph glyph-name="uni037E" unicode="&#x37e;" horiz-adv-x="210" 
d="M62 416v92h86v-92h-86zM107 -130h-45l30 130h-30v92h86v-92z" />
    <glyph glyph-name="tonos" unicode="&#x384;" horiz-adv-x="205" 
d="M48 575l45 157h64l-58 -157h-51z" />
    <glyph glyph-name="dieresistonos" unicode="&#x385;" horiz-adv-x="417" 
d="M163 575l39 141h58l-48 -141h-49zM50 589v92h60v-92h-60zM307 589v92h60v-92h-60z" />
    <glyph glyph-name="Alphatonos" unicode="&#x386;" horiz-adv-x="664" 
d="M165 230l-89 -230h-70l282 712h89l281 -712h-70l-89 230h-334zM447 364l-114 295h-2l-12 -31q-52 -137 -102 -264l-29 -74h287zM66 515l45 197h64l-58 -197h-51z" />
    <glyph glyph-name="anoteleia" unicode="&#x387;" horiz-adv-x="210" 
d="M62 417v91h86v-91h-86z" />
    <glyph glyph-name="Epsilontonos" unicode="&#x388;" horiz-adv-x="610" 
d="M166 653v-258h359v-59h-359v-277h390v-59h-455v712h443v-59h-378zM-77 515l45 197h64l-58 -197h-51z" />
    <glyph glyph-name="Etatonos" unicode="&#x389;" horiz-adv-x="731" 
d="M565 0v340h-399v-340h-65v712h65v-313h399v313h65v-712h-65zM-77 515l45 197h64l-58 -197h-51z" />
    <glyph glyph-name="Iotatonos" unicode="&#x38a;" horiz-adv-x="267" 
d="M101 0v712h65v-712h-65zM-77 515l45 197h64l-58 -197h-51z" />
    <glyph glyph-name="Omicrontonos" unicode="&#x38c;" horiz-adv-x="724" 
d="M529.5 679.5q71.5 -45.5 110 -128.5t38.5 -195t-38.5 -195t-110 -128.5t-167.5 -45.5t-167.5 45.5t-110.5 129t-39 194.5t39 194.5t110.5 129t167.5 45.5t167.5 -45.5zM231 626.5q-56 -37.5 -86.5 -107.5t-30.5 -163t30.5 -163t86.5 -107.5t131 -37.5t131 38t86.5 107.5
t30.5 162.5t-30.5 162.5t-86.5 107.5t-131 38t-131 -37.5zM-46 515l45 197h64l-58 -197h-51z" />
    <glyph glyph-name="Upsilontonos" unicode="&#x38e;" horiz-adv-x="602" 
d="M334 0h-66v304l-263 408h77l98 -154l120 -191h2q80 128 121 191l97 154h77l-263 -408v-304zM-136 515l45 197h64l-58 -197h-51z" />
    <glyph glyph-name="Omegatonos" unicode="&#x38f;" horiz-adv-x="726" 
d="M589.5 644.5q84.5 -80.5 84.5 -235.5q0 -100 -44 -182.5t-125 -165.5v-2h180v-59h-253v61q85 87 129.5 166.5t44.5 177.5q0 127 -66 193t-177 66q-110 0 -176 -66t-66 -193q0 -99 44.5 -178t128.5 -166v-61h-253v59h180v2q-81 83 -125 165.5t-44 182.5q0 155 85 235.5
t226 80.5q142 0 226.5 -80.5zM-49 515l45 197h64l-58 -197h-51z" />
    <glyph glyph-name="iotadieresistonos" unicode="&#x390;" horiz-adv-x="259" 
d="M157 72q17 -22 56 -22q19 0 36 5v-53q-26 -6 -47 -6q-66 0 -95 34.5t-29 112.5v365h62v-363q0 -51 17 -73zM65 575l39 141h58l-48 -141h-49zM-48 589v92h60v-92h-60zM209 589v92h60v-92h-60z" />
    <glyph glyph-name="Alpha" unicode="&#x391;" horiz-adv-x="664" 
d="M165 230l-89 -230h-70l282 712h89l281 -712h-70l-89 230h-334zM447 364l-114 295h-2l-12 -31q-52 -137 -102 -264l-29 -74h287z" />
    <glyph glyph-name="Beta" unicode="&#x392;" horiz-adv-x="615" 
d="M494 663.5q58 -48.5 58 -131.5q0 -59 -30 -102.5t-86 -63.5v-2q60 -15 95.5 -60t35.5 -108q0 -90 -60.5 -143t-168.5 -53h-237v712h221q114 0 172 -48.5zM166 392h147q90 0 131.5 35t41.5 96q0 132 -170 132h-150v-263zM166 57h164q84 0 126.5 35.5t42.5 104.5
q0 66 -45 102t-141 36h-147v-278z" />
    <glyph glyph-name="Gamma" unicode="&#x393;" horiz-adv-x="478" 
d="M101 712h367v-59h-302v-653h-65v712z" />
    <glyph glyph-name="Delta" unicode="&#x394;" horiz-adv-x="664" 
d="M6 0l282 712h89l281 -712h-652zM447 364l-114 295h-2l-114 -295l-118 -305h466z" />
    <glyph glyph-name="Epsilon" unicode="&#x395;" horiz-adv-x="610" 
d="M166 653v-258h359v-59h-359v-277h390v-59h-455v712h443v-59h-378z" />
    <glyph glyph-name="Zeta" unicode="&#x396;" horiz-adv-x="558" 
d="M92 61v-2h448v-59h-523v68l429 583v2h-420v59h495v-68z" />
    <glyph glyph-name="Eta" unicode="&#x397;" horiz-adv-x="731" 
d="M565 0v340h-399v-340h-65v712h65v-313h399v313h65v-712h-65z" />
    <glyph glyph-name="Theta" unicode="&#x398;" horiz-adv-x="724" 
d="M529.5 679.5q71.5 -45.5 110 -128.5t38.5 -195t-38.5 -195t-110 -128.5t-167.5 -45.5t-167.5 45.5t-110.5 129t-39 194.5t39 194.5t110.5 129t167.5 45.5t167.5 -45.5zM230.5 626q-56.5 -38 -87 -107.5t-30.5 -162.5t30.5 -162.5t87 -107.5t131.5 -38t131 37.5
t86.5 107.5t30.5 163t-30.5 163t-86.5 107.5t-131 37.5t-131.5 -38zM213 325v64h297v-64h-297z" />
    <glyph glyph-name="Iota" unicode="&#x399;" horiz-adv-x="267" 
d="M101 0v712h65v-712h-65z" />
    <glyph glyph-name="Kappa" unicode="&#x39a;" horiz-adv-x="607" 
d="M602 0h-91l-343 357h-2v-357h-65v712h65v-325h2l314 325h88l-331 -340z" />
    <glyph glyph-name="Lambda" unicode="&#x39b;" horiz-adv-x="647" 
d="M569 0l-135 363l-109 293h-2l-109 -293l-136 -363h-72l272 712h92l272 -712h-73z" />
    <glyph glyph-name="Mu" unicode="&#x39c;" horiz-adv-x="909" 
d="M743 0v365q0 184 1 276h-2l-108 -278l-142 -363h-76l-141 363l-108 278h-2q1 -92 1 -276v-365h-65v712h105l141 -364l106 -278h2l107 278l141 364h105v-712h-65z" />
    <glyph glyph-name="Nu" unicode="&#x39d;" horiz-adv-x="745" 
d="M545 0l-185 316l-105 179q-58 102 -88 152h-2l1 -356v-291h-65v712h99l185 -316l105 -179q58 -102 88 -152h2q-1 119 -1 356v291h65v-712h-99z" />
    <glyph glyph-name="Xi" unicode="&#x39e;" horiz-adv-x="654" 
d="M73 647v65h508v-65h-508zM90 324v65h474v-65h-474zM59 0v65h536v-65h-536z" />
    <glyph glyph-name="Omicron" unicode="&#x39f;" horiz-adv-x="724" 
d="M529.5 679.5q71.5 -45.5 110 -128.5t38.5 -195t-38.5 -195t-110 -128.5t-167.5 -45.5t-167.5 45.5t-110.5 129t-39 194.5t39 194.5t110.5 129t167.5 45.5t167.5 -45.5zM231 626.5q-56 -37.5 -86.5 -107.5t-30.5 -163t30.5 -163t86.5 -107.5t131 -37.5t131 38t86.5 107.5
t30.5 162.5t-30.5 162.5t-86.5 107.5t-131 38t-131 -37.5z" />
    <glyph glyph-name="Pi" unicode="&#x3a0;" horiz-adv-x="721" 
d="M555 0v653h-389v-653h-65v712h519v-712h-65z" />
    <glyph glyph-name="Rho" unicode="&#x3a1;" horiz-adv-x="606" 
d="M513 656.5q63 -55.5 63 -151.5t-63 -152t-180 -56h-167v-297h-65v712h232q117 0 180 -55.5zM166 356h166q86 0 131 39t45 110q0 70 -45 109t-131 39h-166v-297z" />
    <glyph glyph-name="Sigma" unicode="&#x3a3;" horiz-adv-x="548" 
d="M113 653v-2l210 -289l-220 -300v-3h428v-59h-511v59l222 303l-211 291v59h486v-59h-404z" />
    <glyph glyph-name="Tau" unicode="&#x3a4;" horiz-adv-x="592" 
d="M328 653v-653h-65v653h-253v59h572v-59h-254z" />
    <glyph glyph-name="Upsilon" unicode="&#x3a5;" horiz-adv-x="602" 
d="M334 0h-66v304l-263 408h77l98 -154l120 -191h2q80 128 121 191l97 154h77l-263 -408v-304z" />
    <glyph glyph-name="Phi" unicode="&#x3a6;" horiz-adv-x="770" 
d="M643.5 581q81.5 -79 81.5 -222t-81.5 -222t-226.5 -84v-77h-64v77q-145 5 -226.5 84t-81.5 222t81.5 222t226.5 84v71h64v-71q145 -5 226.5 -84zM177 538.5q-63 -63.5 -63 -179.5t63 -179.5t176 -66.5v492q-113 -3 -176 -66.5zM593.5 179q62.5 63 62.5 180t-62.5 180
t-176.5 66v-492q114 3 176.5 66z" />
    <glyph glyph-name="Chi" unicode="&#x3a7;" horiz-adv-x="617" 
d="M607 0h-80l-218 313h-2l-218 -313h-79l258 367l-244 345h79l204 -292h2l205 292h79l-244 -345z" />
    <glyph glyph-name="Psi" unicode="&#x3a8;" horiz-adv-x="752" 
d="M631.5 265.5q-70.5 -71.5 -223.5 -76.5v-189h-65v189q-153 5 -223.5 76.5t-70.5 228.5v218h66v-217q0 -86 23 -138t72.5 -76.5t132.5 -27.5v459h65v-459q83 3 133 27.5t73 76.5t23 138v217h65v-218q0 -157 -70.5 -228.5z" />
    <glyph glyph-name="Omega" unicode="&#x3a9;" horiz-adv-x="726" 
d="M589.5 644.5q84.5 -80.5 84.5 -235.5q0 -100 -44 -182.5t-125 -165.5v-2h180v-59h-253v61q85 87 129.5 166.5t44.5 177.5q0 127 -66 193t-177 66q-110 0 -176 -66t-66 -193q0 -99 44.5 -178t128.5 -166v-61h-253v59h180v2q-81 83 -125 165.5t-44 182.5q0 155 85 235.5
t226 80.5q142 0 226.5 -80.5z" />
    <glyph glyph-name="Iotadieresis" unicode="&#x3aa;" horiz-adv-x="267" 
d="M101 0v712h65v-712h-65zM10 828v88h61v-88h-61zM194 828v88h61v-88h-61z" />
    <glyph glyph-name="Upsilondieresis" unicode="&#x3ab;" horiz-adv-x="602" 
d="M334 0h-66v304l-263 408h77l98 -154l120 -191h2q80 128 121 191l97 154h77l-263 -408v-304zM178 778v88h61v-88h-61zM362 778v88h61v-88h-61z" />
    <glyph glyph-name="alphatonos" unicode="&#x3ac;" horiz-adv-x="574" 
d="M357.5 495.5q43.5 -25.5 63.5 -68.5h2q2 42 8 81h62q-11 -68 -11 -180v-197q0 -49 10.5 -66.5t37.5 -17.5q13 0 24 4v-49q-21 -7 -48 -7q-39 0 -59 20t-25 67h-2q-20 -43 -63.5 -68t-98.5 -25q-65 0 -113.5 32.5t-74.5 93t-26 140.5t26 140.5t74.5 93t113.5 32.5
q56 0 99.5 -25.5zM152 411q-43 -58 -43 -156t43 -156t116 -58q71 0 113 58.5t42 155.5t-42 155.5t-113 58.5q-73 0 -116 -58zM249 575l45 157h64l-58 -157h-51z" />
    <glyph glyph-name="epsilontonos" unicode="&#x3ad;" horiz-adv-x="480" 
d="M378.5 478q51.5 -43 51.5 -118h-65q0 52 -31.5 78.5t-90.5 26.5q-54 0 -84 -23t-30 -67q0 -41 36.5 -66.5t95.5 -25.5h51v-52h-51q-71 0 -108.5 -25t-37.5 -73q0 -41 34 -65.5t95 -24.5q129 0 129 107h67q0 -77 -52 -120t-144 -43q-91 0 -143 39t-52 107q0 93 101 126v2
q-42 17 -64.5 45.5t-22.5 73.5q0 65 47.5 103t129.5 38q87 0 138.5 -43zM214 575l45 157h64l-58 -157h-51z" />
    <glyph glyph-name="etatonos" unicode="&#x3ae;" horiz-adv-x="572" 
d="M447.5 466q46.5 -53 46.5 -157v-494h-62v490q0 87 -33 124t-97 37q-40 0 -74 -19.5t-54 -56.5t-20 -89v-301h-62v370q0 51 -11.5 70t-36.5 19q-13 0 -24 -4v51q21 7 39 7q37 0 59 -19.5t28 -64.5h2q26 43 68.5 66.5t96.5 23.5q88 0 134.5 -53zM228 575l45 157h64
l-58 -157h-51z" />
    <glyph glyph-name="iotatonos" unicode="&#x3af;" horiz-adv-x="259" 
d="M157 72q17 -22 56 -22q19 0 36 5v-53q-26 -6 -47 -6q-66 0 -95 34.5t-29 112.5v365h62v-363q0 -51 17 -73zM82 575l45 157h64l-58 -157h-51z" />
    <glyph glyph-name="upsilondieresistonos" unicode="&#x3b0;" horiz-adv-x="564" 
d="M132 485q22 -28 22 -99v-207q0 -72 33.5 -105t101.5 -33q152 0 152 208q0 145 -39 259h61q40 -117 40 -260q0 -126 -53 -193.5t-161 -67.5q-98 0 -148 45.5t-50 143.5v200q0 49 -10.5 66t-36.5 17q-13 0 -24 -4v51q18 7 41 7q49 0 71 -28zM222 575l39 141h58l-48 -141
h-49zM109 589v92h60v-92h-60zM366 589v92h60v-92h-60z" />
    <glyph glyph-name="alpha" unicode="&#x3b1;" horiz-adv-x="574" 
d="M357.5 495.5q43.5 -25.5 63.5 -68.5h2q2 42 8 81h62q-11 -68 -11 -180v-197q0 -49 10.5 -66.5t37.5 -17.5q13 0 24 4v-49q-21 -7 -48 -7q-39 0 -59 20t-25 67h-2q-20 -43 -63.5 -68t-98.5 -25q-65 0 -113.5 32.5t-74.5 93t-26 140.5t26 140.5t74.5 93t113.5 32.5
q56 0 99.5 -25.5zM152 411q-43 -58 -43 -156t43 -156t116 -58q71 0 113 58.5t42 155.5t-42 155.5t-113 58.5q-73 0 -116 -58z" />
    <glyph glyph-name="beta" unicode="&#x3b2;" horiz-adv-x="572" 
d="M437 678.5q52 -46.5 52 -126.5q0 -63 -32 -105.5t-86 -57.5v-2q71 -11 115 -59t44 -135q0 -94 -61 -148.5t-166 -54.5q-60 0 -99 18t-57 51h-2v-244h-62v659q0 125 53 188t157 63q92 0 144 -46.5zM180.5 623.5q-35.5 -46.5 -35.5 -146.5v-288q0 -67 39 -105.5t117 -38.5
q77 0 121 40.5t44 113.5q0 82 -53 119.5t-162 37.5h-17v58h17q88 0 131.5 34.5t43.5 98.5q0 58 -34 90.5t-98 32.5q-78 0 -113.5 -46.5z" />
    <glyph glyph-name="gamma" unicode="&#x3b3;" horiz-adv-x="505" 
d="M427.5 252q-46.5 -114 -139.5 -245v-13q0 -37 -3 -89.5t-8 -89.5h-62q5 37 8 89.5t3 89.5q0 78 -28 188t-76 201q-24 45 -44 60.5t-46 15.5q-13 0 -23 -3v51q20 6 41 6q37 0 63.5 -20t55.5 -76q41 -78 67.5 -169.5t33.5 -167.5h2q69 110 105 208.5t48 219.5h64
q-15 -142 -61.5 -256z" />
    <glyph glyph-name="delta" unicode="&#x3b4;" horiz-adv-x="553" 
d="M459 689v-59q-99 38 -204 38q-46 0 -64.5 -11.5t-18.5 -32.5q0 -25 30.5 -47t107.5 -63q102 -54 150 -121.5t48 -167.5q0 -72 -28.5 -126t-81 -83t-121.5 -29q-70 0 -122.5 29t-81.5 83t-29 126q0 97 49 163.5t139 97.5v2q-49 28 -73 45.5t-37.5 39t-13.5 52.5
q0 97 141 97q111 0 210 -33zM155.5 372.5q-46.5 -58.5 -46.5 -147.5q0 -84 46 -134t122 -50q77 0 122.5 50t45.5 135q0 79 -38.5 133.5t-119.5 97.5q-85 -26 -131.5 -84.5z" />
    <glyph glyph-name="epsilon" unicode="&#x3b5;" horiz-adv-x="480" 
d="M378.5 478q51.5 -43 51.5 -118h-65q0 52 -31.5 78.5t-90.5 26.5q-54 0 -84 -23t-30 -67q0 -41 36.5 -66.5t95.5 -25.5h51v-52h-51q-71 0 -108.5 -25t-37.5 -73q0 -41 34 -65.5t95 -24.5q129 0 129 107h67q0 -77 -52 -120t-144 -43q-91 0 -143 39t-52 107q0 93 101 126v2
q-42 17 -64.5 45.5t-22.5 73.5q0 65 47.5 103t129.5 38q87 0 138.5 -43z" />
    <glyph glyph-name="zeta" unicode="&#x3b6;" horiz-adv-x="439" 
d="M187.5 467q-79.5 -108 -79.5 -232q0 -76 38.5 -114t127.5 -48q82 -9 117.5 -40t35.5 -84q0 -23 -6.5 -48t-18.5 -46h-57q21 40 21 80q0 35 -22 54t-82 25q-219 24 -219 216q0 126 76 236t203 192v2h-252v52h338v-52q-141 -85 -220.5 -193z" />
    <glyph glyph-name="eta" unicode="&#x3b7;" horiz-adv-x="572" 
d="M447.5 466q46.5 -53 46.5 -157v-494h-62v490q0 87 -33 124t-97 37q-40 0 -74 -19.5t-54 -56.5t-20 -89v-301h-62v370q0 51 -11.5 70t-36.5 19q-13 0 -24 -4v51q21 7 39 7q37 0 59 -19.5t28 -64.5h2q26 43 68.5 66.5t96.5 23.5q88 0 134.5 -53z" />
    <glyph glyph-name="theta" unicode="&#x3b8;" horiz-adv-x="579" 
d="M419 681q55 -44 84 -127t29 -198t-29 -198t-84 -127t-131 -44q-75 0 -129.5 44t-83.5 127t-29 198t29 198t83.5 127t129.5 44q76 0 131 -44zM161 595q-47 -76 -52 -213h359q-4 137 -51 213t-129 76q-80 0 -127 -76zM417 117q47 76 51 213h-359q5 -137 52 -213t127 -76
q82 0 129 76z" />
    <glyph glyph-name="iota" unicode="&#x3b9;" horiz-adv-x="259" 
d="M157 72q17 -22 56 -22q19 0 36 5v-53q-26 -6 -47 -6q-66 0 -95 34.5t-29 112.5v365h62v-363q0 -51 17 -73z" />
    <glyph glyph-name="kappa" unicode="&#x3ba;" horiz-adv-x="503" 
d="M196 233l-51 -57v-176h-62v508h62v-250h2l115 130q44 50 76 76.5t60 37t63 10.5q13 0 31 -4v-55q-12 3 -25 3q-41 0 -80.5 -26.5t-104.5 -99.5l-47 -53l270 -277h-86z" />
    <glyph glyph-name="lambda" unicode="&#x3bb;" horiz-adv-x="547" 
d="M177 699q33 -18 61 -61.5t59 -123.5l139 -368q21 -57 40 -76.5t44 -19.5q7 0 17 2v-52q-16 -4 -29 -4q-30 0 -51 10t-39.5 37t-37.5 78q-20 56 -84 224l-33 86h-2l-112 -244l-86 -187h-68l236 511q-22 59 -42.5 91.5t-43.5 46.5t-55 14q-28 0 -46 -7v52q19 9 53 9
q47 0 80 -18z" />
    <glyph glyph-name="mu" unicode="&#x3bc;" horiz-adv-x="568" 
d="M491.5 66.5q10.5 -17.5 37.5 -17.5q13 0 24 4v-51q-20 -7 -47 -7q-40 0 -60 19t-24 63h-2q-20 -39 -61 -62t-92 -23q-86 0 -122 53v-230h-62v693h62v-303q0 -86 32 -123t95 -37q40 0 73.5 19.5t53.5 56.5t20 89v298h62v-375q0 -49 10.5 -66.5z" />
    <glyph glyph-name="nu" unicode="&#x3bd;" horiz-adv-x="495" 
d="M112.5 484q25.5 -28 49.5 -100l106 -319h2q85 156 115.5 242.5t30.5 160.5q0 21 -3 40h61q4 -19 4 -42q0 -57 -15 -113.5t-52.5 -137.5t-111.5 -215h-74l-123 365q-18 54 -34 73.5t-41 19.5q-9 0 -17 -2v50q14 6 35 6q42 0 67.5 -28z" />
    <glyph glyph-name="xi" unicode="&#x3be;" horiz-adv-x="448" 
d="M360 660q-104 0 -160 -37t-56 -105q0 -55 45 -84t116 -29h83v-52h-71q-107 0 -157.5 -40t-50.5 -109q0 -61 40 -92t132 -39q81 -7 117 -38.5t36 -85.5q0 -23 -6.5 -48t-18.5 -46h-57q21 40 21 80q0 36 -22.5 55.5t-82.5 24.5q-114 10 -169.5 56t-55.5 130q0 69 37 114.5
t110 61.5v2q-49 14 -78 49.5t-29 86.5q0 49 24 86t69 57v2h-113v52h364v-52h-67z" />
    <glyph glyph-name="omicron" unicode="&#x3bf;" horiz-adv-x="552" 
d="M446 449.5q62 -71.5 62 -195.5t-62 -195.5t-170 -71.5t-170 71.5t-62 195.5t62 195.5t170 71.5t170 -71.5zM153.5 410q-44.5 -57 -44.5 -156t44.5 -156t122.5 -57q79 0 123.5 57t44.5 156t-44.5 156t-123.5 57q-78 0 -122.5 -57z" />
    <glyph glyph-name="pi" unicode="&#x3c0;" horiz-adv-x="642" 
d="M498 456v-306q0 -57 18.5 -79t55.5 -22q14 0 30 4v-51q-21 -7 -50 -7q-58 0 -87 34t-29 115v312h-252v-456h-62v456h-109v52h610v-52h-125z" />
    <glyph glyph-name="rho" unicode="&#x3c1;" horiz-adv-x="565" 
d="M459.5 449.5q61.5 -71.5 61.5 -195.5q0 -123 -61 -194t-165 -71q-56 0 -94.5 20.5t-58.5 58.5h-2v-253h-62v439q0 81 26.5 141.5t74.5 93t113 32.5q106 0 167.5 -71.5zM180.5 410q-40.5 -57 -40.5 -156q0 -98 40.5 -154.5t111.5 -56.5q77 0 121 56t44 155
q0 100 -44 156.5t-121 56.5q-71 0 -111.5 -57z" />
    <glyph glyph-name="sigma1" unicode="&#x3c2;" horiz-adv-x="497" 
d="M415 470q54 -51 61 -139h-64q-5 62 -43 99t-103 37q-75 0 -117.5 -50.5t-42.5 -140.5q0 -88 38.5 -133t127.5 -56q82 -10 118 -44.5t36 -93.5q0 -23 -6.5 -48t-17.5 -46h-58q21 40 21 80q0 42 -22 64t-83 29q-219 25 -219 243q0 117 60 183.5t165 66.5q95 0 149 -51z" />
    <glyph glyph-name="sigma" unicode="&#x3c3;" horiz-adv-x="581" 
d="M417 456v-2q43 -27 67 -80t24 -128q0 -120 -62.5 -189.5t-169.5 -69.5t-169.5 70t-62.5 191t62.5 190.5t169.5 69.5h292v-52h-151zM154 402q-44 -55 -44 -153t44 -153t122 -55q80 0 124.5 55t44.5 153t-44.5 153t-124.5 55q-78 0 -122 -55z" />
    <glyph glyph-name="tau" unicode="&#x3c4;" horiz-adv-x="466" 
d="M257 456v-306q0 -57 18.5 -79t55.5 -22q14 0 30 4v-51q-21 -7 -50 -7q-58 0 -87 34t-29 115v312h-182v52h440v-52h-196z" />
    <glyph glyph-name="upsilon" unicode="&#x3c5;" horiz-adv-x="564" 
d="M132 485q22 -28 22 -99v-207q0 -72 33.5 -105t101.5 -33q152 0 152 208q0 145 -39 259h61q40 -117 40 -260q0 -126 -53 -193.5t-161 -67.5q-98 0 -148 45.5t-50 143.5v200q0 49 -10.5 66t-36.5 17q-13 0 -24 -4v51q18 7 41 7q49 0 71 -28z" />
    <glyph glyph-name="phi" unicode="&#x3c6;" horiz-adv-x="735" 
d="M654.5 113.5q-35.5 -59.5 -101.5 -92.5t-155 -34v-172h-61v172q-89 1 -155.5 34t-102 92.5t-35.5 140.5t35.5 140.5t102 92.5t155.5 34v141h61v-141q89 -1 155 -34t101.5 -92.5t35.5 -140.5t-35.5 -140.5zM168.5 99q60.5 -56 168.5 -58v426q-108 -2 -168.5 -58
t-60.5 -155t60.5 -155zM566 98.5q60 56.5 60 155.5t-60 155.5t-168 57.5v-426q108 1 168 57.5z" />
    <glyph glyph-name="chi" unicode="&#x3c7;" horiz-adv-x="558" 
d="M146 492.5q32 -24.5 60 -90.5l77 -183h2l184 289h72l-224 -348l88 -204q17 -39 31.5 -59t30.5 -26.5t39 -6.5q19 0 41 5v-52q-22 -7 -51 -7q-52 0 -83.5 24t-60.5 93l-76 179h-2l-188 -291h-71l230 346l-92 211q-17 39 -31 58t-30.5 26t-41.5 7q-24 0 -41 -7v51
q20 10 50 10q55 0 87 -24.5z" />
    <glyph glyph-name="psi" unicode="&#x3c8;" horiz-adv-x="741" 
d="M611.5 60.5q-67.5 -66.5 -204.5 -70.5v-175h-62v175q-132 3 -199.5 56.5t-67.5 165.5v296h62v-287q0 -89 51 -131.5t154 -45.5v618h62v-618q210 9 210 208q0 142 -41 256h62q41 -115 41 -259q0 -122 -67.5 -188.5z" />
    <glyph glyph-name="omega" unicode="&#x3c9;" horiz-adv-x="756" 
d="M677.5 372.5q16.5 -72.5 16.5 -148.5q0 -237 -173 -237q-111 0 -143 91h-1q-16 -45 -50.5 -68t-91.5 -23q-173 0 -173 237q0 76 16.5 148.5t48.5 135.5h64q-32 -61 -49 -132.5t-17 -145.5q0 -189 119 -189q103 0 103 134v204h62v-204q0 -134 103 -134q118 0 118 189
q0 74 -17 145.5t-49 132.5h65q32 -63 48.5 -135.5z" />
    <glyph glyph-name="iotadieresis" unicode="&#x3ca;" horiz-adv-x="259" 
d="M157 72q17 -22 56 -22q19 0 36 5v-53q-26 -6 -47 -6q-66 0 -95 34.5t-29 112.5v365h62v-363q0 -51 17 -73zM-14 624v88h61v-88h-61zM170 624v88h61v-88h-61z" />
    <glyph glyph-name="upsilondieresis" unicode="&#x3cb;" horiz-adv-x="564" 
d="M132 485q22 -28 22 -99v-207q0 -72 33.5 -105t101.5 -33q152 0 152 208q0 145 -39 259h61q40 -117 40 -260q0 -126 -53 -193.5t-161 -67.5q-98 0 -148 45.5t-50 143.5v200q0 49 -10.5 66t-36.5 17q-13 0 -24 -4v51q18 7 41 7q49 0 71 -28zM144 624v88h61v-88h-61z
M328 624v88h61v-88h-61z" />
    <glyph glyph-name="omicrontonos" unicode="&#x3cc;" horiz-adv-x="552" 
d="M446 449.5q62 -71.5 62 -195.5t-62 -195.5t-170 -71.5t-170 71.5t-62 195.5t62 195.5t170 71.5t170 -71.5zM153.5 410q-44.5 -57 -44.5 -156t44.5 -156t122.5 -57q79 0 123.5 57t44.5 156t-44.5 156t-123.5 57q-78 0 -122.5 -57zM248 575l45 157h64l-58 -157h-51z" />
    <glyph glyph-name="upsilontonos" unicode="&#x3cd;" horiz-adv-x="564" 
d="M132 485q22 -28 22 -99v-207q0 -72 33.5 -105t101.5 -33q152 0 152 208q0 145 -39 259h61q40 -117 40 -260q0 -126 -53 -193.5t-161 -67.5q-98 0 -148 45.5t-50 143.5v200q0 49 -10.5 66t-36.5 17q-13 0 -24 -4v51q18 7 41 7q49 0 71 -28zM240 575l45 157h64l-58 -157
h-51z" />
    <glyph glyph-name="omegatonos" unicode="&#x3ce;" horiz-adv-x="756" 
d="M677.5 372.5q16.5 -72.5 16.5 -148.5q0 -237 -173 -237q-111 0 -143 91h-1q-16 -45 -50.5 -68t-91.5 -23q-173 0 -173 237q0 76 16.5 148.5t48.5 135.5h64q-32 -61 -49 -132.5t-17 -145.5q0 -189 119 -189q103 0 103 134v204h62v-204q0 -134 103 -134q118 0 118 189
q0 74 -17 145.5t-49 132.5h65q32 -63 48.5 -135.5zM351 575l45 157h64l-58 -157h-51z" />
    <glyph glyph-name="uni0400" unicode="&#x400;" horiz-adv-x="610" 
d="M166 653v-258h359v-59h-359v-277h390v-59h-455v712h443v-59h-378zM380 760h-59l-115 135h84z" />
    <glyph glyph-name="afii10023" unicode="&#x401;" horiz-adv-x="610" 
d="M166 653v-258h359v-59h-359v-277h390v-59h-455v712h443v-59h-378zM199 778v88h61v-88h-61zM383 778v88h61v-88h-61z" />
    <glyph glyph-name="afii10051" unicode="&#x402;" horiz-adv-x="760" 
d="M328 653v-243q75 39 162 39q115 0 177.5 -60.5t62.5 -169.5q0 -105 -65 -167t-175 -62q-53 0 -84 10v60q33 -11 83 -11q82 0 129 46t47 124q0 83 -45 127t-132 44q-86 0 -160 -41v-349h-65v653h-253v59h572v-59h-254z" />
    <glyph glyph-name="afii10052" unicode="&#x403;" horiz-adv-x="478" 
d="M101 712h367v-59h-302v-653h-65v712zM227 760l90 135h84l-115 -135h-59z" />
    <glyph glyph-name="afii10053" unicode="&#x404;" horiz-adv-x="684" 
d="M545.5 56.5q-75.5 -69.5 -196.5 -69.5q-93 0 -161.5 44.5t-105.5 127.5t-37 197t37 197t106 127.5t163 44.5q83 0 144.5 -32.5t95.5 -89.5t38 -129h-69q-8 87 -64.5 138.5t-144.5 51.5q-104 0 -166.5 -74t-69.5 -204h349v-59h-349q6 -131 68.5 -205t165.5 -74
q87 0 145 52.5t70 141.5h68q-11 -116 -86.5 -185.5z" />
    <glyph glyph-name="afii10054" unicode="&#x405;" horiz-adv-x="599" 
d="M467.5 666q62.5 -59 62.5 -175h-66q0 175 -182 175q-75 0 -116 -34.5t-41 -94.5q0 -41 19.5 -66.5t57 -41t103.5 -31.5q81 -20 130 -41t78.5 -60.5t29.5 -106.5q0 -93 -65.5 -148t-177.5 -55q-122 0 -188.5 64t-66.5 186h65q0 -97 50 -143.5t140 -46.5q86 0 131.5 37
t45.5 105q0 43 -20.5 68.5t-59 41t-108.5 33.5q-80 20 -127.5 41t-75 59.5t-27.5 103.5q0 56 26.5 98.5t77 66.5t119.5 24q123 0 185.5 -59z" />
    <glyph glyph-name="afii10055" unicode="&#x406;" horiz-adv-x="267" 
d="M101 0v712h65v-712h-65z" />
    <glyph glyph-name="afii10056" unicode="&#x407;" horiz-adv-x="267" 
d="M101 0v712h65v-712h-65zM10 778v88h61v-88h-61zM194 778v88h61v-88h-61z" />
    <glyph glyph-name="afii10057" unicode="&#x408;" horiz-adv-x="337" 
d="M194 45.5q-48 -49.5 -137 -49.5q-24 0 -42 5v60q21 -4 41 -4q60 0 90 33.5t30 104.5v517h66v-519q0 -98 -48 -147.5z" />
    <glyph glyph-name="afii10058" unicode="&#x409;" horiz-adv-x="1033" 
d="M760 415q117 0 180 -56t63 -152t-63 -151.5t-180 -55.5h-232v653h-286q-6 -278 -26.5 -417.5t-60.5 -189.5t-113 -50q-19 0 -30 4v56q10 -2 18 -2q56 0 85 48.5t43.5 186t20.5 423.5h414v-297h167zM593 59h166q86 0 131 39t45 109q0 71 -45 110t-131 39h-166v-297z" />
    <glyph glyph-name="afii10059" unicode="&#x40a;" horiz-adv-x="1070" 
d="M978 359q63 -56 63 -152t-63.5 -151.5t-179.5 -55.5h-233v354h-399v-354h-65v712h65v-299h399v299h65v-297h168q117 0 180 -56zM927 98q45 39 45 109q0 71 -45 110t-131 39h-166v-297h166q86 0 131 39z" />
    <glyph glyph-name="afii10060" unicode="&#x40b;" horiz-adv-x="758" 
d="M664.5 377q55.5 -55 55.5 -157v-220h-65v215q0 77 -40 117.5t-117 40.5q-92 0 -170 -26v-347h-65v653h-253v59h572v-59h-254v-247q84 26 177 26q104 0 159.5 -55z" />
    <glyph glyph-name="afii10061" unicode="&#x40c;" horiz-adv-x="607" 
d="M602 0h-91l-343 357h-2v-357h-65v712h65v-325h2l314 325h88l-331 -340zM258 760l90 135h84l-115 -135h-59z" />
    <glyph glyph-name="uni040D" unicode="&#x40d;" horiz-adv-x="745" 
d="M166 421l-1 -356h2q30 50 88 152l105 179l185 316h99v-712h-65v291q0 237 1 356h-2q-30 -50 -88 -152l-105 -179l-185 -316h-99v712h65v-291zM430 760h-59l-115 135h84z" />
    <glyph glyph-name="afii10062" unicode="&#x40e;" horiz-adv-x="633" 
d="M258 25.5q-45 -32.5 -105 -32.5q-35 0 -57 7v58q20 -6 49 -6q46 0 77.5 23t59.5 78l-276 559h72l116 -241q80 -168 121 -252h2l29 61l92 189l117 243h72l-286 -578q-38 -76 -83 -108.5zM419 792.5q-38 -36.5 -102 -36.5t-102 36.5t-44 102.5h51q6 -43 30.5 -66.5
t64.5 -23.5t64 23t31 67h51q-6 -66 -44 -102.5z" />
    <glyph glyph-name="afii10145" unicode="&#x40f;" horiz-adv-x="721" 
d="M391 0v-160h-62v160h-228v712h65v-653h389v653h65v-712h-229z" />
    <glyph glyph-name="afii10017" unicode="&#x410;" horiz-adv-x="664" 
d="M165 230l-89 -230h-70l282 712h89l281 -712h-70l-89 230h-334zM447 364l-114 295h-2l-12 -31q-52 -137 -102 -264l-29 -74h287z" />
    <glyph glyph-name="afii10018" unicode="&#x411;" horiz-adv-x="615" 
d="M166 653v-247h179q108 0 168.5 -54.5t60.5 -148.5t-60.5 -148.5t-168.5 -54.5h-244v712h433v-59h-368zM166 59h168q82 0 127 38t45 106t-45 106t-127 38h-168v-288z" />
    <glyph glyph-name="afii10019" unicode="&#x412;" horiz-adv-x="615" 
d="M494 663.5q58 -48.5 58 -131.5q0 -59 -30 -102.5t-86 -63.5v-2q60 -15 95.5 -60t35.5 -108q0 -90 -60.5 -143t-168.5 -53h-237v712h221q114 0 172 -48.5zM166 392h147q90 0 131.5 35t41.5 96q0 132 -170 132h-150v-263zM166 57h164q84 0 126.5 35.5t42.5 104.5
q0 66 -45 102t-141 36h-147v-278z" />
    <glyph glyph-name="afii10020" unicode="&#x413;" horiz-adv-x="478" 
d="M101 712h367v-59h-302v-653h-65v712z" />
    <glyph glyph-name="afii10021" unicode="&#x414;" horiz-adv-x="699" 
d="M675 -160h-62v160h-536v-160h-62v219h65q39 64 61 209t27 444h429v-653h78v-219zM231 653q-5 -242 -24.5 -382.5t-51.5 -211.5h377v594h-301z" />
    <glyph glyph-name="afii10022" unicode="&#x415;" horiz-adv-x="610" 
d="M166 653v-258h359v-59h-359v-277h390v-59h-455v712h443v-59h-378z" />
    <glyph glyph-name="afii10024" unicode="&#x416;" horiz-adv-x="856" 
d="M851 0h-84l-304 364h-2v-364h-66v364h-2l-304 -364h-84l314 372l-285 340h81l278 -333h2v333h66v-333h2l278 333h81l-286 -340z" />
    <glyph glyph-name="afii10025" unicode="&#x417;" horiz-adv-x="603" 
d="M474.5 672.5q65.5 -51.5 65.5 -138.5q0 -67 -34 -107t-98 -62v-2q72 -21 109.5 -63t37.5 -115q0 -59 -31.5 -103.5t-90 -69.5t-136.5 -25q-122 0 -191 58.5t-69 159.5h72q0 -77 48 -117t140 -40q88 0 137 37.5t49 101.5q0 69 -54.5 106.5t-153.5 37.5h-57v60h57
q90 0 142.5 37t52.5 100q0 62 -48 98.5t-130 36.5q-85 0 -131.5 -39.5t-46.5 -114.5h-71q0 101 68.5 158t183.5 57q114 0 179.5 -51.5z" />
    <glyph glyph-name="afii10026" unicode="&#x418;" horiz-adv-x="745" 
d="M166 421l-1 -356h2q30 50 88 152l105 179l185 316h99v-712h-65v291q0 237 1 356h-2q-30 -50 -88 -152l-105 -179l-185 -316h-99v712h65v-291z" />
    <glyph glyph-name="afii10027" unicode="&#x419;" horiz-adv-x="745" 
d="M166 421l-1 -356h2q30 50 88 152l105 179l185 316h99v-712h-65v291q0 237 1 356h-2q-30 -50 -88 -152l-105 -179l-185 -316h-99v712h65v-291zM474 792.5q-38 -36.5 -102 -36.5t-102 36.5t-44 102.5h51q6 -43 30.5 -66.5t64.5 -23.5t64 23t31 67h51q-6 -66 -44 -102.5z
" />
    <glyph glyph-name="afii10028" unicode="&#x41a;" horiz-adv-x="607" 
d="M602 0h-91l-343 357h-2v-357h-65v712h65v-325h2l314 325h88l-331 -340z" />
    <glyph glyph-name="afii10029" unicode="&#x41b;" horiz-adv-x="694" 
d="M528 0v653h-286q-6 -278 -26.5 -417.5t-60.5 -189.5t-113 -50q-19 0 -30 4v56q10 -2 18 -2q56 0 85 48.5t43.5 186t20.5 423.5h414v-712h-65z" />
    <glyph glyph-name="afii10030" unicode="&#x41c;" horiz-adv-x="909" 
d="M743 0v365q0 184 1 276h-2l-108 -278l-142 -363h-76l-141 363l-108 278h-2q1 -92 1 -276v-365h-65v712h105l141 -364l106 -278h2l107 278l141 364h105v-712h-65z" />
    <glyph glyph-name="afii10031" unicode="&#x41d;" horiz-adv-x="731" 
d="M565 0v340h-399v-340h-65v712h65v-313h399v313h65v-712h-65z" />
    <glyph glyph-name="afii10032" unicode="&#x41e;" horiz-adv-x="724" 
d="M529.5 679.5q71.5 -45.5 110 -128.5t38.5 -195t-38.5 -195t-110 -128.5t-167.5 -45.5t-167.5 45.5t-110.5 129t-39 194.5t39 194.5t110.5 129t167.5 45.5t167.5 -45.5zM231 626.5q-56 -37.5 -86.5 -107.5t-30.5 -163t30.5 -163t86.5 -107.5t131 -37.5t131 38t86.5 107.5
t30.5 162.5t-30.5 162.5t-86.5 107.5t-131 38t-131 -37.5z" />
    <glyph glyph-name="afii10033" unicode="&#x41f;" horiz-adv-x="721" 
d="M555 0v653h-389v-653h-65v712h519v-712h-65z" />
    <glyph glyph-name="afii10034" unicode="&#x420;" horiz-adv-x="606" 
d="M513 656.5q63 -55.5 63 -151.5t-63 -152t-180 -56h-167v-297h-65v712h232q117 0 180 -55.5zM166 356h166q86 0 131 39t45 110q0 70 -45 109t-131 39h-166v-297z" />
    <glyph glyph-name="afii10035" unicode="&#x421;" horiz-adv-x="683" 
d="M494.5 692.5q61.5 -32.5 95.5 -89.5t38 -129h-68q-8 87 -64.5 138.5t-144.5 51.5q-73 0 -126.5 -37t-82 -106.5t-28.5 -164.5t28.5 -164.5t81.5 -106.5t125 -37q87 0 145 52.5t70 141.5h68q-8 -77 -44 -134.5t-97.5 -89t-141.5 -31.5q-93 0 -161.5 44.5t-105.5 127.5
t-37 197t37 197t106 127.5t163 44.5q82 0 143.5 -32.5z" />
    <glyph glyph-name="afii10036" unicode="&#x422;" horiz-adv-x="592" 
d="M328 653v-653h-65v653h-253v59h572v-59h-254z" />
    <glyph glyph-name="afii10037" unicode="&#x423;" horiz-adv-x="633" 
d="M258 25.5q-45 -32.5 -105 -32.5q-35 0 -57 7v58q20 -6 49 -6q46 0 77.5 23t59.5 78l-276 559h72l116 -241q80 -168 121 -252h2l29 61l92 189l117 243h72l-286 -578q-38 -76 -83 -108.5z" />
    <glyph glyph-name="afii10038" unicode="&#x424;" horiz-adv-x="809" 
d="M725 200.5q-39 -66.5 -113 -103.5t-175 -40v-80h-65v80q-101 3 -175 40t-113 103.5t-39 155.5t39 155.5t113 103.5t175 40v80h65v-80q101 -3 175 -40t113 -103.5t39 -155.5t-39 -155.5zM183 186q69 -64 189 -69v478q-120 -5 -189 -69t-69 -170t69 -170zM626.5 186
q69.5 64 69.5 170t-69.5 170t-189.5 69v-478q120 5 189.5 69z" />
    <glyph glyph-name="afii10039" unicode="&#x425;" horiz-adv-x="617" 
d="M607 0h-80l-218 313h-2l-218 -313h-79l258 367l-244 345h79l204 -292h2l205 292h79l-244 -345z" />
    <glyph glyph-name="afii10040" unicode="&#x426;" horiz-adv-x="723" 
d="M698 59v-219h-62v160h-535v712h65v-653h389v653h65v-653h78z" />
    <glyph glyph-name="afii10041" unicode="&#x427;" horiz-adv-x="625" 
d="M459 0v309q-89 -26 -188 -26q-113 0 -173 54.5t-60 155.5v219h65v-212q0 -77 45 -117.5t132 -40.5q96 0 179 26v344h66v-712h-66z" />
    <glyph glyph-name="afii10042" unicode="&#x428;" horiz-adv-x="1017" 
d="M101 0v712h65v-653h310v653h65v-653h310v653h65v-712h-815z" />
    <glyph glyph-name="afii10043" unicode="&#x429;" horiz-adv-x="1018" 
d="M994 59v-219h-62v160h-831v712h65v-653h310v653h65v-653h310v653h65v-653h78z" />
    <glyph glyph-name="afii10044" unicode="&#x42a;" horiz-adv-x="738" 
d="M465 415q117 0 180.5 -56t63.5 -152t-63.5 -151.5t-180.5 -55.5h-232v653h-223v59h288v-297h167zM298 59h166q86 0 131 39t45 109q0 71 -45 110t-131 39h-166v-297z" />
    <glyph glyph-name="afii10045" unicode="&#x42b;" horiz-adv-x="873" 
d="M101 712h65v-297h167q117 0 180 -56t63 -152t-63 -151.5t-180 -55.5h-232v712zM707 0v712h65v-712h-65zM463 98q45 39 45 109q0 71 -45 110t-131 39h-166v-297h166q86 0 131 39z" />
    <glyph glyph-name="afii10046" unicode="&#x42c;" horiz-adv-x="606" 
d="M101 712h65v-297h167q117 0 180 -56t63 -152t-63 -151.5t-180 -55.5h-232v712zM463 98q45 39 45 109q0 71 -45 110t-131 39h-166v-297h166q86 0 131 39z" />
    <glyph glyph-name="afii10047" unicode="&#x42d;" horiz-adv-x="684" 
d="M495.5 680.5q68.5 -44.5 105.5 -127.5t37 -197t-36.5 -197t-105 -127.5t-161.5 -44.5q-121 0 -197 69.5t-87 185.5h69q11 -89 69 -141.5t146 -52.5q103 0 165.5 74t68.5 205h-350v59h350q-7 130 -70 204t-166 74q-88 0 -145 -52t-65 -138h-68q4 72 38 129t95.5 89.5
t144.5 32.5q94 0 162.5 -44.5z" />
    <glyph glyph-name="afii10048" unicode="&#x42e;" horiz-adv-x="959" 
d="M771.5 679.5q67.5 -45.5 104.5 -128.5t37 -195t-37 -195t-104.5 -128.5t-158.5 -45.5q-87 0 -153 41.5t-104.5 118.5t-42.5 180h-147v-327h-65v712h65v-326h147q5 103 43 179.5t104 118t153 41.5q91 0 158.5 -45.5zM735.5 86q52.5 38 81 107.5t28.5 162.5t-28.5 162.5
t-81 107.5t-122.5 38t-122.5 -38t-81 -107.5t-28.5 -162.5t28.5 -162.5t81 -107.5t122.5 -38t122.5 38z" />
    <glyph glyph-name="afii10049" unicode="&#x42f;" horiz-adv-x="613" 
d="M512 0h-65v314h-158q-18 0 -48 2l-157 -316h-75l169 329q-67 21 -100 68.5t-33 117.5q0 94 61.5 145.5t182.5 51.5h223v-712zM290 653q-178 0 -178 -140q0 -63 43.5 -101.5t129.5 -38.5h162v280h-157z" />
    <glyph glyph-name="afii10065" unicode="&#x430;" horiz-adv-x="524" 
d="M395.5 472q50.5 -49 50.5 -146v-201q0 -72 11 -125h-58q-7 34 -7 77h-2q-52 -87 -181 -87q-77 0 -124.5 41t-47.5 105q0 65 43.5 102t149.5 54q73 12 156 18v24q0 68 -35 101t-95 33q-62 0 -96 -30.5t-37 -82.5h-65q5 74 56.5 120t141.5 46q89 0 139.5 -49zM238 240
q-75 -11 -105 -34t-30 -66q0 -45 31.5 -71.5t87.5 -26.5q35 0 65.5 11.5t51.5 33.5q27 28 37 55.5t10 76.5v39q-65 -5 -148 -18z" />
    <glyph glyph-name="afii10066" unicode="&#x431;" horiz-adv-x="562" 
d="M402 650q-59 -6 -68 -7q-82 -8 -128 -35.5t-68.5 -78t-33.5 -138.5h2q21 54 64.5 85t112.5 31q71 0 124 -31t82 -89t29 -137q0 -123 -62 -193t-170 -70q-110 0 -171.5 75t-61.5 209q0 160 28 250t86 130t156 49q122 12 175 25v-59q-37 -10 -96 -16zM156 401
q-39 -54 -39 -145q0 -101 45 -158t124 -57t123 54t44 151q0 98 -46 153.5t-125 55.5q-87 0 -126 -54z" />
    <glyph glyph-name="afii10067" unicode="&#x432;" horiz-adv-x="516" 
d="M409.5 472.5q46.5 -35.5 46.5 -96.5q0 -88 -85 -115v-2q42 -9 69 -40t27 -77q0 -67 -46.5 -104.5t-129.5 -37.5h-208v508h191q89 0 135.5 -35.5zM145 284h120q125 0 125 86t-125 86h-120v-172zM145 52h127q129 0 129 91t-129 91h-127v-182z" />
    <glyph glyph-name="afii10068" unicode="&#x433;" horiz-adv-x="405" 
d="M145 456v-456h-62v508h308v-52h-246z" />
    <glyph glyph-name="afii10069" unicode="&#x434;" horiz-adv-x="556" 
d="M540 -160h-62v160h-403v-160h-62v212h57q30 43 48.5 142.5t26.5 313.5h328v-456h67v-212zM204 456q-14 -300 -64 -404h271v404h-207z" />
    <glyph glyph-name="afii10070" unicode="&#x435;" horiz-adv-x="539" 
d="M376 70.5q39 30.5 51 80.5h64q-13 -70 -68.5 -117t-146.5 -47q-108 0 -170 74.5t-62 201.5q0 75 27.5 133.5t79 91.5t121.5 33q85 0 141.5 -48t73.5 -133q8 -36 8 -98h-388q2 -98 49 -150t120 -52q61 0 100 30.5zM157 421q-45 -47 -49 -128h327q-5 83 -49 129t-114 46
t-115 -47z" />
    <glyph glyph-name="afii10072" unicode="&#x436;" horiz-adv-x="652" 
d="M573 0l-214 271h-2v-271h-62v271h-2l-214 -271h-86l233 280l-208 228h84l191 -222h2v222h62v-222h2l191 222h84l-208 -228l233 -280h-86z" />
    <glyph glyph-name="afii10073" unicode="&#x437;" horiz-adv-x="477" 
d="M366 483q47 -38 47 -103q0 -45 -22 -73.5t-65 -45.5v-2q101 -33 101 -126q0 -68 -52 -107t-142 -39q-93 0 -144.5 43t-51.5 120h66q0 -107 130 -107q61 0 95 24.5t34 65.5q0 48 -38 73t-109 25h-51v52h51q59 0 96 25.5t37 66.5q0 44 -30 67t-84 23q-60 0 -91.5 -26.5
t-31.5 -78.5h-64q0 75 51 118t139 43q82 0 129 -38z" />
    <glyph glyph-name="afii10074" unicode="&#x438;" horiz-adv-x="598" 
d="M450 0v199v243h-2q-21 -37 -40.5 -69t-36.5 -60l-57 -94l-132 -219h-99v508h65v-199q0 -162 -1 -243h2q21 37 40.5 69t36.5 60l57 94l133 219h99v-508h-65z" />
    <glyph glyph-name="afii10075" unicode="&#x439;" horiz-adv-x="598" 
d="M450 0v199v243h-2q-21 -37 -40.5 -69t-36.5 -60l-57 -94l-132 -219h-99v508h65v-199q0 -162 -1 -243h2q21 37 40.5 69t36.5 60l57 94l133 219h99v-508h-65zM401 609.5q-38 -36.5 -102 -36.5t-102 36.5t-44 102.5h51q6 -43 30.5 -66t64.5 -23t64 22.5t31 66.5h51
q-6 -66 -44 -102.5z" />
    <glyph glyph-name="afii10076" unicode="&#x43a;" horiz-adv-x="496" 
d="M400 0l-253 262h-2v-262h-62v508h62v-213h2l226 213h84l-246 -228l275 -280h-86z" />
    <glyph glyph-name="afii10077" unicode="&#x43b;" horiz-adv-x="540" 
d="M395 0v456h-200q-3 -191 -20 -289.5t-49.5 -134t-88.5 -35.5q-19 0 -31 3v51q10 -2 20 -2q41 0 63 34t33 131.5t14 293.5h321v-508h-62z" />
    <glyph glyph-name="afii10078" unicode="&#x43c;" horiz-adv-x="734" 
d="M590 0v255v191h-2l-79 -194l-104 -252h-76l-103 252q-42 99 -80 194h-2v-191v-255h-61v508h103l99 -242q27 -65 81 -200h2l81 200l100 242h102v-508h-61z" />
    <glyph glyph-name="afii10079" unicode="&#x43d;" horiz-adv-x="576" 
d="M431 0v228h-286v-228h-62v508h62v-228h286v228h62v-508h-62z" />
    <glyph glyph-name="afii10080" unicode="&#x43e;" horiz-adv-x="552" 
d="M446 449.5q62 -71.5 62 -195.5t-62 -195.5t-170 -71.5t-170 71.5t-62 195.5t62 195.5t170 71.5t170 -71.5zM153.5 410q-44.5 -57 -44.5 -156t44.5 -156t122.5 -57q79 0 123.5 57t44.5 156t-44.5 156t-123.5 57q-78 0 -122.5 -57z" />
    <glyph glyph-name="afii10081" unicode="&#x43f;" horiz-adv-x="568" 
d="M423 0v456h-278v-456h-62v508h402v-508h-62z" />
    <glyph glyph-name="afii10082" unicode="&#x440;" horiz-adv-x="565" 
d="M420.5 488.5q48.5 -32.5 74.5 -93t26 -140.5t-26 -140.5t-74.5 -93t-113.5 -32.5q-54 0 -97 24t-63 64h-2v-262h-62v693h62v-75h2q20 40 63 64t97 24q65 0 113.5 -32.5zM184 410.5q-42 -58.5 -42 -155.5t42 -155.5t113 -58.5q73 0 116 58t43 156t-43 156t-116 58
q-71 0 -113 -58.5z" />
    <glyph glyph-name="afii10083" unicode="&#x441;" horiz-adv-x="521" 
d="M416.5 469q56.5 -52 63.5 -136h-65q-5 59 -44 96.5t-97 37.5q-76 0 -119.5 -57t-43.5 -156q0 -100 43.5 -156.5t119.5 -56.5q57 0 96.5 40.5t44.5 99.5h65q-5 -55 -31.5 -99t-71.5 -69.5t-103 -25.5q-107 0 -168.5 71.5t-61.5 195.5t61.5 195.5t168.5 71.5
q86 0 142.5 -52z" />
    <glyph glyph-name="afii10084" unicode="&#x442;" horiz-adv-x="439" 
d="M252 456v-456h-64v456h-181v52l425 -1v-51h-180z" />
    <glyph glyph-name="afii10085" unicode="&#x443;" horiz-adv-x="456" 
d="M198 -126q-26 -35 -59 -49t-84 -14q-22 0 -37 4v55q15 -4 36 -4q38 0 61 10.5t40.5 38.5t39.5 85l-200 508h67l165 -429h2l165 429h67l-210 -532q-27 -67 -53 -102z" />
    <glyph glyph-name="afii10086" unicode="&#x444;" horiz-adv-x="770" 
d="M522 521q62 0 108 -32.5t71 -93t25 -140.5t-25 -140.5t-71 -93t-108 -32.5q-60 0 -106 38v-212h-62v212q-46 -38 -106 -38q-61 0 -107.5 32.5t-71.5 93t-25 140.5t25 140.5t71.5 93t107.5 32.5q60 0 106 -41v232h62v-232q46 41 106 41zM150 410.5q-41 -58.5 -41 -155.5
t41 -155.5t109 -58.5q55 0 95 42v341q-40 45 -95 45q-68 0 -109 -58.5zM416 424v-341q40 -42 96 -42q68 0 109 58.5t41 155.5t-41 155.5t-109 58.5q-56 0 -96 -45z" />
    <glyph glyph-name="afii10087" unicode="&#x445;" horiz-adv-x="467" 
d="M467 0h-77l-156 219h-2l-156 -219h-76l196 266l-178 242h76l138 -198h2l139 198h75l-178 -242z" />
    <glyph glyph-name="afii10088" unicode="&#x446;" horiz-adv-x="569" 
d="M552 52v-212h-62v160h-407v508h62v-456h278v456h62v-456h67z" />
    <glyph glyph-name="afii10089" unicode="&#x447;" horiz-adv-x="503" 
d="M358 0v211q-65 -20 -139 -20q-90 0 -138 41.5t-48 117.5v158h62v-152q0 -54 33.5 -83t97.5 -29q71 0 132 21v243h62v-508h-62z" />
    <glyph glyph-name="afii10090" unicode="&#x448;" horiz-adv-x="829" 
d="M83 0v508h62v-456h238v456h62v-456h239v456h62v-508h-663z" />
    <glyph glyph-name="afii10091" unicode="&#x449;" horiz-adv-x="829" 
d="M803 52v-212h-62v160h-658v508h62v-456h238v456h62v-456h239v456h62v-456h57z" />
    <glyph glyph-name="afii10092" unicode="&#x44a;" horiz-adv-x="577" 
d="M359 308q91 0 140.5 -41t49.5 -113t-49.5 -113t-140.5 -41h-192v456h-160v52h222v-200h130zM229 52h133q123 0 123 102t-123 102h-133v-204z" />
    <glyph glyph-name="afii10093" unicode="&#x44b;" horiz-adv-x="691" 
d="M275 308q91 0 140.5 -41t49.5 -113t-49.5 -113t-140.5 -41h-192v508h62v-200h130zM145 52h133q123 0 123 102t-123 102h-133v-204zM546 0v508h62v-508h-62z" />
    <glyph glyph-name="afii10094" unicode="&#x44c;" horiz-adv-x="502" 
d="M275 308q91 0 140.5 -41t49.5 -113t-49.5 -113t-140.5 -41h-192v508h62v-200h130zM145 52h133q123 0 123 102t-123 102h-133v-204z" />
    <glyph glyph-name="afii10095" unicode="&#x44d;" horiz-adv-x="521" 
d="M414.5 449.5q61.5 -71.5 61.5 -195.5t-61.5 -195.5t-167.5 -71.5q-58 0 -103 25.5t-72 69.5t-32 99h65q5 -59 45 -99.5t97 -40.5q72 0 114.5 51t47.5 140h-249v52h249q-7 86 -49.5 134.5t-112.5 48.5q-40 0 -71.5 -19t-49.5 -49.5t-21 -65.5h-65q5 51 31 93.5t71.5 68.5
t104.5 26q106 0 167.5 -71.5z" />
    <glyph glyph-name="afii10096" unicode="&#x44e;" horiz-adv-x="760" 
d="M654 449.5q62 -71.5 62 -195.5t-62 -195.5t-170 -71.5q-102 0 -163 63.5t-68 176.5h-108v-227h-62v508h62v-228l108 1q7 113 68 176.5t163 63.5q108 0 170 -71.5zM607.5 98q44.5 57 44.5 156t-44.5 156t-123.5 57q-78 0 -122.5 -57t-44.5 -156t44.5 -156t122.5 -57
q79 0 123.5 57z" />
    <glyph glyph-name="afii10097" unicode="&#x44f;" horiz-adv-x="511" 
d="M428 0h-64v202h-129h-16l-123 -202h-77l135 212q-54 16 -81 53.5t-27 91.5q0 71 49 111t144 40h189v-508zM240 456q-127 0 -127 -101q0 -46 30.5 -73.5t91.5 -27.5h129v202h-124z" />
    <glyph glyph-name="uni0450" unicode="&#x450;" horiz-adv-x="539" 
d="M376 70.5q39 30.5 51 80.5h64q-13 -70 -68.5 -117t-146.5 -47q-108 0 -170 74.5t-62 201.5q0 75 27.5 133.5t79 91.5t121.5 33q85 0 141.5 -48t73.5 -133q8 -36 8 -98h-388q2 -98 49 -150t120 -52q61 0 100 30.5zM157 421q-45 -47 -49 -128h327q-5 83 -49 129t-114 46
t-115 -47zM327 571h-59l-115 141h84z" />
    <glyph glyph-name="afii10071" unicode="&#x451;" horiz-adv-x="539" 
d="M376 70.5q39 30.5 51 80.5h64q-13 -70 -68.5 -117t-146.5 -47q-108 0 -170 74.5t-62 201.5q0 75 27.5 133.5t79 91.5t121.5 33q85 0 141.5 -48t73.5 -133q8 -36 8 -98h-388q2 -98 49 -150t120 -52q61 0 100 30.5zM157 421q-45 -47 -49 -128h327q-5 83 -49 129t-114 46
t-115 -47zM146 624v88h61v-88h-61zM330 624v88h61v-88h-61z" />
    <glyph glyph-name="afii10099" unicode="&#x452;" 
d="M438.5 412q46.5 -53 46.5 -157v-302q0 -142 -132 -142q-20 0 -36 4v54q15 -3 29 -3q39 0 58 20.5t19 68.5v297q0 86 -33 122.5t-97 36.5q-40 0 -74 -19t-54 -56t-20 -89v-247h-62v567h-69v48h69v97h62v-97h232v-48h-232v-181h2q25 39 67 59t90 20q88 0 134.5 -53z" />
    <glyph glyph-name="afii10100" unicode="&#x453;" horiz-adv-x="405" 
d="M145 456v-456h-62v508h308v-52h-246zM179 571l90 141h84l-115 -141h-59z" />
    <glyph glyph-name="afii10101" unicode="&#x454;" horiz-adv-x="521" 
d="M370.5 81.5q39.5 40.5 44.5 99.5h65q-5 -55 -31.5 -99t-71.5 -69.5t-103 -25.5q-107 0 -168.5 71.5t-61.5 195.5t61.5 195.5t168.5 71.5q59 0 104.5 -26t71.5 -68.5t30 -93.5h-65q-3 35 -21 65.5t-49 49.5t-71 19q-70 0 -113 -48.5t-50 -134.5h249v-52h-249
q5 -89 48 -140t115 -51q57 0 96.5 40.5z" />
    <glyph glyph-name="afii10102" unicode="&#x455;" horiz-adv-x="479" 
d="M370 475.5q50 -45.5 51 -128.5h-62q0 57 -34 88.5t-95 31.5q-52 0 -83.5 -23t-31.5 -61q0 -30 13 -46t36.5 -24t78.5 -21q66 -15 103 -28.5t63.5 -44t26.5 -84.5q0 -66 -52 -107t-138 -41q-96 0 -150 48t-55 136h63q0 -62 37 -96t105 -34q57 0 92.5 25t35.5 65
q0 33 -15 51t-44 28t-92 25q-59 14 -91.5 26t-55.5 40t-23 77q0 64 49.5 103.5t127.5 39.5q90 0 140 -45.5z" />
    <glyph glyph-name="afii10103" unicode="&#x456;" horiz-adv-x="228" 
d="M83 624v88h62v-88h-62zM83 0v508h62v-508h-62z" />
    <glyph glyph-name="afii10104" unicode="&#x457;" horiz-adv-x="228" 
d="M83 0v508h62v-508h-62zM12 624v88h61v-88h-61zM156 624v88h61v-88h-61z" />
    <glyph glyph-name="afii10105" unicode="&#x458;" horiz-adv-x="235" 
d="M90 624v88h62v-88h-62zM19 -189q-19 0 -36 4v54q16 -3 30 -3q38 0 57.5 22.5t19.5 75.5v544h62v-545q0 -152 -133 -152z" />
    <glyph glyph-name="afii10106" unicode="&#x459;" horiz-adv-x="814" 
d="M587 308q91 0 140.5 -41t49.5 -113t-49.5 -113t-140.5 -41h-192v456h-200q-3 -191 -20 -289.5t-49.5 -134t-88.5 -35.5q-19 0 -31 3v51q10 -2 20 -2q41 0 63 34t33 131.5t14 293.5h321v-200h130zM457 52h133q123 0 123 102t-123 102h-133v-204z" />
    <glyph glyph-name="afii10107" unicode="&#x45a;" horiz-adv-x="850" 
d="M623 308q91 0 140.5 -41t49.5 -113t-49.5 -113t-140.5 -41h-192v254h-286v-254h-62v508h62v-202h286v202h62v-200h130zM493 52h133q123 0 123 102t-123 102h-133v-204z" />
    <glyph glyph-name="afii10108" unicode="&#x45b;" 
d="M438.5 412q46.5 -53 46.5 -157v-255h-62v252q0 86 -33 122.5t-97 36.5q-40 0 -74 -19t-54 -56t-20 -89v-247h-62v567h-69v48h69v97h62v-97h232v-48h-232v-181h2q25 39 67 59t90 20q88 0 134.5 -53z" />
    <glyph glyph-name="afii10109" unicode="&#x45c;" horiz-adv-x="496" 
d="M400 0l-253 262h-2v-262h-62v508h62v-213h2l226 213h84l-246 -228l275 -280h-86zM201 571l90 141h84l-115 -141h-59z" />
    <glyph glyph-name="uni045D" unicode="&#x45d;" horiz-adv-x="598" 
d="M450 0v199v243h-2q-21 -37 -40.5 -69t-36.5 -60l-57 -94l-132 -219h-99v508h65v-199q0 -162 -1 -243h2q21 37 40.5 69t36.5 60l57 94l133 219h99v-508h-65zM357 571h-59l-115 141h84z" />
    <glyph glyph-name="afii10110" unicode="&#x45e;" horiz-adv-x="456" 
d="M198 -126q-26 -35 -59 -49t-84 -14q-22 0 -37 4v55q15 -4 36 -4q38 0 61 10.5t40.5 38.5t39.5 85l-200 508h67l165 -429h2l165 429h67l-210 -532q-27 -67 -53 -102zM331 609.5q-38 -36.5 -102 -36.5t-102 36.5t-44 102.5h51q6 -43 30.5 -66t64.5 -23t64 22.5t31 66.5h51
q-6 -66 -44 -102.5z" />
    <glyph glyph-name="afii10193" unicode="&#x45f;" horiz-adv-x="568" 
d="M315 0v-160h-62v160h-170v508h62v-456h278v456h62v-508h-170z" />
    <glyph glyph-name="afii10050" unicode="&#x490;" horiz-adv-x="478" 
d="M166 653v-653h-65v712h305v153h62v-212h-302z" />
    <glyph glyph-name="afii10098" unicode="&#x491;" horiz-adv-x="405" 
d="M145 456v-456h-62v508h246v160h62v-212h-246z" />
    <glyph glyph-name="uni0492" unicode="&#x492;" horiz-adv-x="478" 
d="M166 375h144v-54h-144v-321h-65v321h-66v54h66v337h367v-59h-302v-278z" />
    <glyph glyph-name="uni0493" unicode="&#x493;" horiz-adv-x="406" 
d="M145 275h135v-48h-135v-227h-62v227h-58v48h58v233h308v-52h-246v-181z" />
    <glyph glyph-name="uni0496" unicode="&#x496;" horiz-adv-x="856" 
d="M851 -160h-62v160h-22l-304 364h-2v-364h-66v364h-2l-304 -364h-84l314 372l-285 340h81l278 -333h2v333h66v-333h2l278 333h81l-286 -340l265 -313h50v-219z" />
    <glyph glyph-name="uni0497" unicode="&#x497;" horiz-adv-x="652" 
d="M659 -160h-62v160h-24l-214 271h-2v-271h-62v271h-2l-214 -271h-86l233 280l-208 228h84l191 -222h2v222h62v-222h2l191 222h84l-208 -228l190 -228h43v-212z" />
    <glyph glyph-name="uni049A" unicode="&#x49a;" horiz-adv-x="607" 
d="M602 -160h-62v160h-29l-343 357h-2v-357h-65v712h65v-325h2l314 325h88l-331 -340l305 -313h58v-219z" />
    <glyph glyph-name="uni049B" unicode="&#x49b;" horiz-adv-x="496" 
d="M486 -160h-62v160h-24l-253 262h-2v-262h-62v508h62v-213h2l226 213h84l-246 -228l224 -228h51v-212z" />
    <glyph glyph-name="uni049C" unicode="&#x49c;" horiz-adv-x="672" 
d="M294 340v-179h-63v179h-65v-340h-65v712h65v-313h65v179h63v-179h2l261 313h81l-287 -343l316 -369h-84l-288 340h-1z" />
    <glyph glyph-name="uni049D" unicode="&#x49d;" horiz-adv-x="542" 
d="M263 253v-145h-59v145h-59v-253h-62v508h62v-203h59v135h59v-135h2l175 203h83l-206 -227l232 -281h-86l-198 253h-2z" />
    <glyph glyph-name="uni04A2" unicode="&#x4a2;" horiz-adv-x="733" 
d="M646 -160v160h-81v340h-399v-340h-65v712h65v-313h399v313h65v-653h78v-219h-62z" />
    <glyph glyph-name="uni04A3" unicode="&#x4a3;" horiz-adv-x="576" 
d="M498 -160v160h-67v228h-286v-228h-62v508h62v-228h286v228h62v-456h67v-212h-62z" />
    <glyph glyph-name="uni04AE" unicode="&#x4ae;" horiz-adv-x="602" 
d="M334 0h-66v304l-263 408h77l98 -154l120 -191h2q80 128 121 191l97 154h77l-263 -408v-304z" />
    <glyph glyph-name="uni04AF" unicode="&#x4af;" horiz-adv-x="450" 
d="M255 -7v-178h-61v178l-199 515h67l80 -211l82 -219h2l82 219l80 211h67z" />
    <glyph glyph-name="uni04B2" unicode="&#x4b2;" horiz-adv-x="617" 
d="M612 -160h-62v160h-23l-218 313h-2l-218 -313h-79l258 367l-244 345h79l204 -292h2l205 292h79l-244 -345l217 -308h46v-219z" />
    <glyph glyph-name="uni04B3" unicode="&#x4b3;" horiz-adv-x="467" 
d="M467 -160h-62v160h-15l-156 219h-2l-156 -219h-76l196 266l-178 242h76l138 -198h2l139 198h75l-178 -242l158 -214h39v-212z" />
    <glyph glyph-name="uni04B8" unicode="&#x4b8;" horiz-adv-x="625" 
d="M525 0h-66v309q-70 -19 -142 -25v-153h-64v152q-105 4 -160 58.5t-55 151.5v219h65v-212q0 -71 38.5 -111t111.5 -46v221h64v-221q77 4 142 25v344h66v-712z" />
    <glyph glyph-name="uni04B9" unicode="&#x4b9;" horiz-adv-x="503" 
d="M420 0h-62v211q-47 -15 -103 -19v-104h-59v104q-79 5 -121 46t-42 112v158h62v-152q0 -48 25.5 -76t75.5 -34v166h59v-167q51 3 103 20v243h62v-508z" />
    <glyph glyph-name="uni04BA" unicode="&#x4ba;" horiz-adv-x="625" 
d="M166 712v-309q91 26 188 26q113 0 173.5 -54.5t60.5 -155.5v-219h-66v212q0 77 -45 117.5t-132 40.5q-96 0 -179 -26v-344h-65v712h65z" />
    <glyph glyph-name="uni04BB" unicode="&#x4bb;" 
d="M147 440q25 39 67 59t90 20q88 0 134.5 -53t46.5 -157v-309h-62v306q0 86 -33 122.5t-97 36.5q-40 0 -74 -19t-54 -56t-20 -89v-301h-62v712h62v-272h2z" />
    <glyph glyph-name="uni04C0" unicode="&#x4c0;" horiz-adv-x="267" 
d="M101 0v712h65v-712h-65z" />
    <glyph glyph-name="uni04CF" unicode="&#x4cf;" horiz-adv-x="228" 
d="M83 0v712h62v-712h-62z" />
    <glyph glyph-name="uni04D8" unicode="&#x4d8;" horiz-adv-x="729" 
d="M528.5 679.5q75.5 -45.5 115.5 -129t40 -194.5q0 -109 -39.5 -192.5t-113 -130t-172.5 -46.5q-96 0 -167 45t-109 128t-38 196q0 10 2 24h568q-2 90 -36.5 154t-93 97t-134.5 33q-88 0 -145.5 -45t-72.5 -119h-72q11 64 48 115t98.5 80.5t143.5 29.5q102 0 177.5 -45.5z
M489.5 81.5q56.5 33.5 89 95t35.5 144.5h-500q4 -86 36 -147.5t86 -93.5t123 -32q74 0 130.5 33.5z" />
    <glyph glyph-name="afii10846" unicode="&#x4d9;" horiz-adv-x="539" 
d="M432 448.5q63 -72.5 63 -194.5q0 -78 -27.5 -138.5t-79.5 -94.5t-123 -34q-67 0 -117 32.5t-77 93t-27 141.5q0 14 1 20h387q-3 94 -50.5 144t-122.5 50q-57 0 -93.5 -30.5t-46.5 -80.5h-64q12 70 64.5 117t139.5 47q110 0 173 -72.5zM382 89q45 49 49 134h-327
q5 -87 48.5 -135t112.5 -48q72 0 117 49z" />
    <glyph glyph-name="uni04E8" unicode="&#x4e8;" horiz-adv-x="724" 
d="M529.5 679.5q71.5 -45.5 110 -128.5t38.5 -195t-38.5 -195t-110 -128.5t-167.5 -45.5t-167.5 45.5t-110.5 129t-39 194.5t39 194.5t110.5 129t167.5 45.5t167.5 -45.5zM188 589.5q-66 -74.5 -74 -203.5h495q-7 128 -73 203t-174 75t-174 -74.5zM487.5 82q54.5 34 86 97
t35.5 148h-495q8 -129 74 -204t174 -75q71 0 125.5 34z" />
    <glyph glyph-name="uni04E9" unicode="&#x4e9;" horiz-adv-x="553" 
d="M446.5 449.5q62.5 -71.5 62.5 -195.5t-62.5 -195.5t-170.5 -71.5t-170 71.5t-62 195.5t62 195.5t170 71.5t170.5 -71.5zM159 417.5q-44 -49.5 -50 -137.5h335q-6 88 -50.5 137.5t-117.5 49.5t-117 -49.5zM394 91q45 50 50 138h-335q6 -88 50 -138t117 -50t118 50z" />
    <glyph glyph-name="Wgrave" unicode="&#x1e80;" horiz-adv-x="896" 
d="M609 0l-80 325q-54 218 -80 327h-2q-26 -109 -80 -327l-80 -325h-102l-174 712h66l74 -303q29 -116 85 -348h2l86 350l74 301h100l74 -301l86 -350h2l84 348l75 303h66l-174 -712h-102zM507 760h-59l-115 135h84z" />
    <glyph glyph-name="wgrave" unicode="&#x1e81;" horiz-adv-x="750" 
d="M506 0l-66 230q-40 138 -64 222h-2q-24 -84 -64 -222l-66 -230h-89l-147 508h64l62 -220l60 -212q1 -5 5 -20h2l63 225l64 227h94l64 -227l63 -225h2q4 15 5 20l60 212l62 220h64l-147 -508h-89zM433 571h-59l-115 141h84z" />
    <glyph glyph-name="Wacute" unicode="&#x1e82;" horiz-adv-x="896" 
d="M609 0l-80 325q-54 218 -80 327h-2q-26 -109 -80 -327l-80 -325h-102l-174 712h66l74 -303q29 -116 85 -348h2l86 350l74 301h100l74 -301l86 -350h2l84 348l75 303h66l-174 -712h-102zM391 760l90 135h84l-115 -135h-59z" />
    <glyph glyph-name="wacute" unicode="&#x1e83;" horiz-adv-x="750" 
d="M506 0l-66 230q-40 138 -64 222h-2q-24 -84 -64 -222l-66 -230h-89l-147 508h64l62 -220l60 -212q1 -5 5 -20h2l63 225l64 227h94l64 -227l63 -225h2q4 15 5 20l60 212l62 220h64l-147 -508h-89zM317 571l90 141h84l-115 -141h-59z" />
    <glyph glyph-name="Wdieresis" unicode="&#x1e84;" horiz-adv-x="896" 
d="M609 0l-80 325q-54 218 -80 327h-2q-26 -109 -80 -327l-80 -325h-102l-174 712h66l74 -303q29 -116 85 -348h2l86 350l74 301h100l74 -301l86 -350h2l84 348l75 303h66l-174 -712h-102zM326 778v88h61v-88h-61zM510 778v88h61v-88h-61z" />
    <glyph glyph-name="wdieresis" unicode="&#x1e85;" horiz-adv-x="750" 
d="M506 0l-66 230q-40 138 -64 222h-2q-24 -84 -64 -222l-66 -230h-89l-147 508h64l62 -220l60 -212q1 -5 5 -20h2l63 225l64 227h94l64 -227l63 -225h2q4 15 5 20l60 212l62 220h64l-147 -508h-89zM252 624v88h61v-88h-61zM436 624v88h61v-88h-61z" />
    <glyph glyph-name="uni1E9E" unicode="&#x1e9e;" horiz-adv-x="752" 
d="M644 343q59 -56 59 -153q0 -96 -61 -148.5t-165 -52.5q-101 0 -155.5 48t-54.5 139h67q0 -61 36 -94t107 -33q74 0 116 36.5t42 104.5q0 85 -60 128t-180 53v52l166 175q-32 31 -79 49t-101 18q-111 0 -168 -59t-57 -176v-430h-65v430q0 141 76 218t215 77
q82 0 150.5 -33t112.5 -89l-174 -183q114 -21 173 -77z" />
    <glyph glyph-name="Ygrave" unicode="&#x1ef2;" horiz-adv-x="602" 
d="M334 0h-66v304l-263 408h77l98 -154l120 -191h2q80 128 121 191l97 154h77l-263 -408v-304zM359 760h-59l-115 135h84z" />
    <glyph glyph-name="ygrave" unicode="&#x1ef3;" horiz-adv-x="456" 
d="M198 -126q-26 -35 -59 -49t-84 -14q-22 0 -37 4v55q15 -4 36 -4q38 0 61 10.5t40.5 38.5t39.5 85l-200 508h67l165 -429h2l165 429h67l-210 -532q-27 -67 -53 -102zM286 571h-59l-115 141h84z" />
    <glyph glyph-name="uni2010" unicode="&#x2010;" horiz-adv-x="290" 
d="M30 261v62h230v-62h-230z" />
    <glyph glyph-name="endash" unicode="&#x2013;" horiz-adv-x="500" 
d="M20 261v62h460v-62h-460z" />
    <glyph glyph-name="emdash" unicode="&#x2014;" horiz-adv-x="1000" 
d="M20 261v62h960v-62h-960z" />
    <glyph glyph-name="afii00208" unicode="&#x2015;" horiz-adv-x="1000" 
d="M20 261v62h960v-62h-960z" />
    <glyph glyph-name="underscoredbl" unicode="&#x2017;" horiz-adv-x="500" 
d="M0 -88v38h500v-38h-500zM0 -210v38h500v-38h-500z" />
    <glyph glyph-name="quoteleft" unicode="&#x2018;" horiz-adv-x="229" 
d="M113 712h44l-30 -128h29v-90h-84v90z" />
    <glyph glyph-name="quoteright" unicode="&#x2019;" horiz-adv-x="229" 
d="M116 494h-44l29 128h-29v90h84v-90z" />
    <glyph glyph-name="quotesinglbase" unicode="&#x201a;" horiz-adv-x="229" 
d="M116 -128h-44l29 128h-29v90h84v-90z" />
    <glyph glyph-name="quotereversed" unicode="&#x201b;" horiz-adv-x="229" 
d="M156 622h-29l30 -128h-44l-41 128v90h84v-90z" />
    <glyph glyph-name="quotedblleft" unicode="&#x201c;" horiz-adv-x="379" 
d="M113 712h44l-30 -128h29v-90h-84v90zM263 712h44l-30 -128h29v-90h-84v90z" />
    <glyph glyph-name="quotedblright" unicode="&#x201d;" horiz-adv-x="379" 
d="M116 494h-44l29 128h-29v90h84v-90zM266 494h-44l29 128h-29v90h84v-90z" />
    <glyph glyph-name="quotedblbase" unicode="&#x201e;" horiz-adv-x="379" 
d="M116 -128h-44l29 128h-29v90h84v-90zM266 -128h-44l29 128h-29v90h84v-90z" />
    <glyph glyph-name="dagger" unicode="&#x2020;" horiz-adv-x="523" 
d="M469 515v-55h-175v-580h-65v580h-175v55h175v197h65v-197h175z" />
    <glyph glyph-name="daggerdbl" unicode="&#x2021;" horiz-adv-x="523" 
d="M469 516v-55h-175v-268h175v-55h-175v-258h-65v258h-175v55h175v268h-175v55h175v196h65v-196h175z" />
    <glyph glyph-name="bullet" unicode="&#x2022;" horiz-adv-x="322" 
d="M89 284q-30 30 -30 72t30 72t72 30q43 0 73 -30t30 -72t-30 -72t-73 -30q-42 0 -72 30z" />
    <glyph glyph-name="ellipsis" unicode="&#x2026;" horiz-adv-x="681" 
d="M62 0v92h86v-92h-86zM297 0v92h86v-92h-86zM533 0v92h86v-92h-86z" />
    <glyph glyph-name="perthousand" unicode="&#x2030;" horiz-adv-x="975" 
d="M86 -30l423 734h63l-424 -734h-62zM254.5 645q33.5 -42 33.5 -120t-33.5 -120.5t-95.5 -42.5t-95.5 42.5t-33.5 120.5t33.5 120t95.5 42t95.5 -42zM108.5 607q-18.5 -29 -18.5 -82t18 -82t51 -29t51 29t18 82t-18.5 82t-50.5 29t-50.5 -29zM593.5 270.5
q33.5 -42.5 33.5 -120.5t-33.5 -120t-95.5 -42q-61 0 -95 42t-34 120t34 120.5t95 42.5q62 0 95.5 -42.5zM911.5 270.5q33.5 -42.5 33.5 -120.5t-33.5 -120t-95.5 -42q-61 0 -95 42t-34 120t34 120.5t95 42.5q62 0 95.5 -42.5zM448 232.5q-18 -28.5 -18 -82.5q0 -53 18 -82
t50 -29q33 0 51 29t18 82q0 54 -18 82.5t-51 28.5q-32 0 -50 -28.5zM766 232.5q-18 -28.5 -18 -82.5q0 -53 18 -82t50 -29q33 0 51 29t18 82q0 54 -18 82.5t-51 28.5q-32 0 -50 -28.5z" />
    <glyph glyph-name="minute" unicode="&#x2032;" horiz-adv-x="172" 
d="M30 454l47 220h65l-70 -220h-42z" />
    <glyph glyph-name="second" unicode="&#x2033;" horiz-adv-x="296" 
d="M163 454l47 220h65l-70 -220h-42zM30 454l47 220h65l-70 -220h-42z" />
    <glyph glyph-name="guilsinglleft" unicode="&#x2039;" horiz-adv-x="276" 
d="M226 54h-62l-114 200l114 200h62l-112 -200z" />
    <glyph glyph-name="guilsinglright" unicode="&#x203a;" horiz-adv-x="276" 
d="M226 254l-114 -200h-62l112 200l-112 200h62z" />
    <glyph glyph-name="exclamdbl" unicode="&#x203c;" horiz-adv-x="463" 
d="M312 164l-16 548h83l-16 -548h-51zM298 0v93h79v-93h-79zM100 164l-16 548h83l-16 -548h-51zM86 0v93h79v-93h-79z" />
    <glyph glyph-name="uni203D" unicode="&#x203d;" horiz-adv-x="501" 
d="M411.5 597.5q49.5 -43.5 49.5 -110.5q0 -38 -8.5 -64t-31.5 -53.5t-70 -64.5q-35 -27 -50.5 -45t-22 -41t-6.5 -64h-52l-11 427q-50 -11 -78 -44t-32 -86h-64q4 81 49 129.5t124 60.5l-2 70h76l-2 -67q82 -4 131.5 -47.5zM378 417q15 28 15 69q0 43 -30.5 69.5
t-83.5 30.5l-8 -282h2q14 15 41 39q49 46 64 74zM285 93v-93h-79v93h79z" />
    <glyph glyph-name="uni203E" unicode="&#x203e;" horiz-adv-x="500" 
d="M0 793v52h500v-52h-500z" />
    <glyph glyph-name="fraction" unicode="&#x2044;" horiz-adv-x="147" 
d="M-155 0l392 674h65l-392 -674h-65z" />
    <glyph glyph-name="uni2070" unicode="&#x2070;" horiz-adv-x="416" 
d="M334.5 749q43.5 -63 43.5 -183q0 -119 -44 -182.5t-126 -63.5t-125.5 63.5t-43.5 182.5q0 120 43.5 183t125.5 63q83 0 126.5 -63zM126 710q-29 -50 -29 -144q0 -95 29 -145.5t82 -50.5t82 50.5t29 145.5q0 94 -29 144t-82 50t-82 -50z" />
    <glyph glyph-name="uni2074" unicode="&#x2074;" horiz-adv-x="384" 
d="M291 454v-124h-55v124h-225v55l206 293h74v-298h82v-50h-82zM237 504v65v172h-2l-46 -66q-33 -45 -66 -93l-56 -78h170z" />
    <glyph glyph-name="uni2075" unicode="&#x2075;" horiz-adv-x="396" 
d="M120 752l-15 -148h2q16 17 41.5 26.5t52.5 9.5q72 0 114 -42t42 -113q0 -76 -44.5 -120.5t-119.5 -44.5q-69 0 -111 36.5t-42 98.5h58q1 -39 27 -61t68 -22q49 0 77.5 30t28.5 81q0 49 -27.5 78t-73.5 29q-37 0 -62.5 -18.5t-35.5 -52.5l-57 4l27 279h265v-50h-215z" />
    <glyph glyph-name="uni2076" unicode="&#x2076;" horiz-adv-x="401" 
d="M315 777q39 -35 44 -96h-58q-14 79 -89 79q-54 0 -85 -45t-34 -135h2q40 58 119 58q68 0 110 -43t42 -113q0 -72 -44.5 -117t-115.5 -45q-82 0 -124.5 57.5t-42.5 169.5q0 129 45 197t129 68q63 0 102 -35zM132 558q-29 -30 -29 -77q0 -51 28 -80t75 -29q45 0 73.5 30.5
t28.5 79.5q0 47 -27.5 76.5t-73.5 29.5t-75 -30z" />
    <glyph glyph-name="uni2077" unicode="&#x2077;" horiz-adv-x="348" 
d="M233 562.5q-46 -107.5 -71 -232.5h-64q60 248 178 422h-265v50h326v-51q-58 -81 -104 -188.5z" />
    <glyph glyph-name="uni2078" unicode="&#x2078;" horiz-adv-x="399" 
d="M311.5 775q43.5 -37 43.5 -94q0 -69 -79 -106v-2q89 -32 89 -114q0 -61 -46 -100t-119 -39t-119 38.5t-46 100.5q0 83 88 114v2q-79 37 -79 106q0 57 43.5 94t112.5 37q68 0 111.5 -37zM129 738.5q-27 -21.5 -27 -57.5q0 -38 26.5 -60.5t71.5 -22.5q44 0 71 22.5t27 60.5
q0 36 -27 57.5t-71 21.5t-71 -21.5zM123 524q-30 -25 -30 -63q0 -41 29.5 -65t77.5 -24t77 24t29 65q0 38 -30 63t-76 25q-47 0 -77 -25z" />
    <glyph glyph-name="uni2079" unicode="&#x2079;" horiz-adv-x="401" 
d="M86 355q-39 35 -44 96h58q14 -79 89 -79q54 0 85 45t34 135h-2q-40 -58 -119 -58q-68 0 -110 43t-42 113q0 72 44.5 117t116.5 45q81 0 123.5 -57.5t42.5 -169.5q0 -129 -45 -197t-129 -68q-63 0 -102 35zM269 574q29 30 29 77q0 51 -28 80t-75 29q-45 0 -73.5 -30.5
t-28.5 -79.5q0 -47 27.5 -76.5t73.5 -29.5t75 30z" />
    <glyph glyph-name="uni207A" unicode="&#x207a;" horiz-adv-x="405" 
d="M353 575v-47h-127v-123h-47v123h-127v47h127v124h47v-124h127z" />
    <glyph glyph-name="uni207B" unicode="&#x207b;" horiz-adv-x="405" 
d="M52 528v47h301v-47h-301z" />
    <glyph glyph-name="uni207C" unicode="&#x207c;" horiz-adv-x="405" 
d="M52 584v47h301v-47h-301zM52 472v47h301v-47h-301z" />
    <glyph glyph-name="uni207D" unicode="&#x207d;" horiz-adv-x="204" 
d="M118.5 697.5q-20.5 -73.5 -20.5 -159.5t20.5 -159.5t64.5 -151.5h-49q-48 70 -72 145.5t-24 165.5t24 165t72 146h49q-44 -78 -64.5 -151.5z" />
    <glyph glyph-name="uni207E" unicode="&#x207e;" horiz-adv-x="204" 
d="M85.5 378.5q20.5 73.5 20.5 159.5t-20.5 159.5t-64.5 151.5h49q48 -70 72 -145.5t24 -165.5t-24 -165t-72 -146h-49q44 78 64.5 151.5z" />
    <glyph glyph-name="uni2080" unicode="&#x2080;" horiz-adv-x="416" 
d="M333.5 247q43.5 -63 43.5 -183q0 -119 -44 -182.5t-126 -63.5t-125.5 63.5t-43.5 182.5q0 120 43.5 183t125.5 63q83 0 126.5 -63zM125 208q-29 -50 -29 -144q0 -95 29 -145.5t82 -50.5t82 50.5t29 145.5q0 94 -29 144t-82 50t-82 -50z" />
    <glyph glyph-name="uni2081" unicode="&#x2081;" horiz-adv-x="248" 
d="M115 -172v348h-105v45q56 0 82.5 18t33.5 61h45v-472h-56z" />
    <glyph glyph-name="uni2082" unicode="&#x2082;" horiz-adv-x="402" 
d="M312.5 273.5q41.5 -36.5 41.5 -95.5q0 -39 -17.5 -68.5t-46.5 -51t-75 -48.5q-69 -39 -93.5 -67.5t-24.5 -64.5h268v-50h-324q-2 5 -2 15q0 48 11 81.5t42 64t92 64.5t85.5 59t24.5 66q0 36 -24.5 58t-66.5 22q-92 0 -98 -94h-59q3 68 46 107t112 39q67 0 108.5 -36.5z
" />
    <glyph glyph-name="uni2083" unicode="&#x2083;" horiz-adv-x="396" 
d="M307 274.5q42 -35.5 42 -93.5q0 -41 -19.5 -67.5t-61.5 -43.5v-2q47 -17 68 -44.5t21 -72.5q0 -58 -46 -95.5t-117 -37.5q-76 0 -119 40t-43 109h58q0 -98 104 -98q46 0 75 23t29 61q0 43 -30.5 66t-89.5 23h-18v50h18q52 0 82.5 22.5t30.5 62.5q0 37 -27 59t-73 22
q-97 0 -97 -95h-58q0 69 42.5 108t114.5 39t114 -35.5z" />
    <glyph glyph-name="uni2084" unicode="&#x2084;" horiz-adv-x="384" 
d="M290 -48v-124h-55v124h-225v55l206 293h74v-298h82v-50h-82zM236 2v65v172h-2l-46 -66q-33 -45 -66 -93l-56 -78h170z" />
    <glyph glyph-name="uni2085" unicode="&#x2085;" horiz-adv-x="396" 
d="M120 250l-15 -148h2q16 17 41.5 26.5t52.5 9.5q72 0 114 -42t42 -113q0 -76 -44.5 -120.5t-119.5 -44.5q-69 0 -111 36.5t-42 98.5h58q1 -39 27 -61t68 -22q49 0 77.5 30t28.5 81q0 49 -27.5 78t-73.5 29q-37 0 -62.5 -18.5t-35.5 -52.5l-57 4l27 279h265v-50h-215z" />
    <glyph glyph-name="uni2086" unicode="&#x2086;" horiz-adv-x="401" 
d="M314 275q39 -35 44 -96h-58q-14 79 -89 79q-54 0 -85 -45t-34 -135h2q40 58 119 58q68 0 110 -43t42 -113q0 -72 -44.5 -117t-115.5 -45q-82 0 -124.5 57.5t-42.5 169.5q0 129 45 197t129 68q63 0 102 -35zM131 56q-29 -30 -29 -77q0 -51 28 -80t75 -29q45 0 73.5 30.5
t28.5 79.5q0 47 -27.5 76.5t-73.5 29.5t-75 -30z" />
    <glyph glyph-name="uni2087" unicode="&#x2087;" horiz-adv-x="348" 
d="M232 60.5q-46 -107.5 -71 -232.5h-64q60 248 178 422h-265v50h326v-51q-58 -81 -104 -188.5z" />
    <glyph glyph-name="uni2088" unicode="&#x2088;" horiz-adv-x="399" 
d="M311.5 273q43.5 -37 43.5 -94q0 -69 -79 -106v-2q89 -32 89 -114q0 -61 -46 -100t-119 -39t-119 38.5t-46 100.5q0 83 88 114v2q-79 37 -79 106q0 57 43.5 94t112.5 37q68 0 111.5 -37zM129 236.5q-27 -21.5 -27 -57.5q0 -38 26.5 -60.5t71.5 -22.5q44 0 71 22.5t27 60.5
q0 36 -27 57.5t-71 21.5t-71 -21.5zM123 22q-30 -25 -30 -63q0 -41 29.5 -65t77.5 -24t77 24t29 65q0 38 -30 63t-76 25q-47 0 -77 -25z" />
    <glyph glyph-name="uni2089" unicode="&#x2089;" horiz-adv-x="401" 
d="M86 -147q-39 35 -44 96h58q14 -79 89 -79q54 0 85 45t34 135h-2q-40 -58 -119 -58q-68 0 -110 43t-42 113q0 72 44.5 117t116.5 45q81 0 123.5 -57.5t42.5 -169.5q0 -129 -45 -197t-129 -68q-63 0 -102 35zM269 72q29 30 29 77q0 51 -28 80t-75 29q-45 0 -73.5 -30.5
t-28.5 -79.5q0 -47 27.5 -76.5t73.5 -29.5t75 30z" />
    <glyph glyph-name="uni208A" unicode="&#x208a;" horiz-adv-x="406" 
d="M354 73v-47h-127v-123h-47v123h-127v47h127v124h47v-124h127z" />
    <glyph glyph-name="uni208B" unicode="&#x208b;" horiz-adv-x="406" 
d="M53 26v47h301v-47h-301z" />
    <glyph glyph-name="uni208C" unicode="&#x208c;" horiz-adv-x="406" 
d="M53 82v47h301v-47h-301zM53 -30v47h301v-47h-301z" />
    <glyph glyph-name="uni208D" unicode="&#x208d;" horiz-adv-x="204" 
d="M118.5 195.5q-20.5 -73.5 -20.5 -159.5t20.5 -159.5t64.5 -151.5h-49q-48 70 -72 145.5t-24 165.5t24 165t72 146h49q-44 -78 -64.5 -151.5z" />
    <glyph glyph-name="uni208E" unicode="&#x208e;" horiz-adv-x="204" 
d="M85.5 -123.5q20.5 73.5 20.5 159.5t-20.5 159.5t-64.5 151.5h49q48 -70 72 -145.5t24 -165.5t-24 -165t-72 -146h-49q44 78 64.5 151.5z" />
    <glyph glyph-name="uni2099" unicode="&#x2099;" horiz-adv-x="409" 
d="M321.5 154.5q33.5 -37.5 33.5 -110.5v-216h-53v213q0 59 -22 82t-67 23q-43 0 -72 -28.5t-29 -82.5v-207h-54v356h53v-45h2q16 24 45.5 38.5t64.5 14.5q65 0 98.5 -37.5z" />
    <glyph glyph-name="franc" unicode="&#x20a3;" horiz-adv-x="544" 
d="M177 396h311v-60h-311v-131h177v-55h-177v-150h-66v150h-87v55h87v469h398v-59h-332v-219z" />
    <glyph glyph-name="lira" unicode="&#x20a4;" horiz-adv-x="544" 
d="M496 56v-56h-472v56q100 0 100 136v51h-100v54h100v64h-100v53h100v65q0 102 49.5 155t140.5 53q87 0 136.5 -53t49.5 -147h-62q0 68 -33 104t-91 36q-62 0 -94.5 -38t-32.5 -110v-65h127v-53h-127v-64h127v-54h-127v-51q0 -52 -11 -83t-37 -51v-2h357z" />
    <glyph glyph-name="peseta" unicode="&#x20a7;" horiz-adv-x="811" 
d="M783 55v-53q-22 -5 -46 -5q-66 0 -95 32t-29 105v322h-76q-4 -92 -66.5 -144.5t-176.5 -52.5h-128v-259h-65v674h193q104 0 165.5 -44t74.5 -122h79v118h62v-118h103v-52h-103v-321q0 -45 16.5 -64.5t56.5 -19.5q19 0 35 4zM424 357q45 39 45 110q0 70 -45 109t-131 39
h-127v-297h127q86 0 131 39z" />
    <glyph glyph-name="Euro" unicode="&#x20ac;" horiz-adv-x="544" 
d="M457.5 42q-57.5 -55 -153.5 -55q-104 0 -168 67t-80 195h-55l10 53h41l-1 35q0 20 1 29h-51l10 53h44q16 131 80 199.5t169 68.5q98 0 155 -54.5t65 -156.5h-68q-6 72 -45.5 111t-106.5 39q-76 0 -121.5 -53t-58.5 -154h274l-10 -53h-268l-1 -29q0 -24 1 -35h257l-11 -53
h-241q14 -99 59 -150t120 -51q65 0 105.5 39.5t50.5 114.5h68q-13 -105 -70.5 -160z" />
    <glyph glyph-name="uni20B9" unicode="&#x20b9;" horiz-adv-x="544" 
d="M404 524h112l-15 -54h-97q-9 -57 -54 -96.5t-118 -53.5v-2q34 -15 60.5 -44.5t52.5 -80.5l94 -193h-73l-86 178q-32 66 -70.5 94t-95.5 28h-16v55h43q83 0 133 31t61 84h-307l15 54h293q-19 96 -186 96h-122l15 54h473l-15 -54h-168v-2q61 -23 71 -94z" />
    <glyph glyph-name="uni20BA" unicode="&#x20ba;" horiz-adv-x="544" 
d="M427.5 78q-86.5 -81 -247.5 -81q-33 0 -62 3v290l-95 -52v61l95 52v96l-95 -52v61l95 52v166h65v-136l168 90v-60l-168 -90v-97l168 91v-60l-168 -91v-265q127 0 195.5 65.5t68.5 194.5h67q0 -157 -86.5 -238z" />
    <glyph glyph-name="uni20BC" unicode="&#x20bc;" horiz-adv-x="626" 
d="M104.5 523q55.5 65 176.5 70v119h64v-119q121 -5 176 -70t55 -207v-316h-64v316q0 112 -38.5 160.5t-128.5 52.5v-529h-64v529q-90 -4 -128.5 -52.5t-38.5 -160.5v-316h-65v316q0 142 55.5 207z" />
    <glyph glyph-name="uni20BD" unicode="&#x20bd;" horiz-adv-x="544" 
d="M455.5 621.5q57.5 -52.5 57.5 -144.5t-57.5 -145t-165.5 -53h-132v-74h205v-55h-205v-150h-62v150h-83v55h83v74h-83v56h83v339h194q108 0 165.5 -52.5zM158 335h132q77 0 117.5 37.5t40.5 104.5t-40.5 104t-117.5 37h-132v-283z" />
    <glyph glyph-name="afii61248" unicode="&#x2105;" horiz-adv-x="862" 
d="M306.5 647q40.5 -40 45.5 -95h-56q-2 33 -29 60t-67 27q-52 0 -81.5 -37t-29.5 -102t29.5 -102t81.5 -37q39 0 66 27t30 64h56q-5 -60 -46.5 -100t-105.5 -40q-78 0 -123 50t-45 138q0 87 45 137t123 50q66 0 106.5 -40zM195 0l392 674h65l-392 -674h-65zM785.5 312
q45.5 -50 45.5 -137q0 -88 -45.5 -138t-125.5 -50q-79 0 -125.5 50.5t-46.5 137.5t46.5 137t125.5 50q80 0 125.5 -50zM576.5 278q-30.5 -38 -30.5 -103t30.5 -103t83.5 -38q54 0 84.5 38t30.5 103t-30.5 103t-84.5 38q-53 0 -83.5 -38z" />
    <glyph glyph-name="afii61289" unicode="&#x2113;" horiz-adv-x="435" 
d="M196.5 67.5q18.5 -22.5 59.5 -22.5q26 0 50 8v-53q-27 -9 -62 -9q-66 0 -97 36t-31 113v55h-4q-31 0 -55 6v44q28 -5 55 -5h4v249q0 111 28.5 154.5t90.5 43.5q54 0 87 -45.5t33 -145.5q0 -130 -47 -202t-130 -92v-62q0 -50 18.5 -72.5zM308 496q0 75 -19 108t-50 33
q-33 0 -47 -29.5t-14 -109.5v-249q130 41 130 247z" />
    <glyph glyph-name="afii61352" unicode="&#x2116;" horiz-adv-x="1120" 
d="M545 0l-185 316l-105 179q-58 102 -88 152h-2l1 -356v-291h-65v712h99l185 -316l105 -179q58 -102 88 -152h2q-1 119 -1 356v291h65v-712h-99zM1043 562.5q46 -50.5 46 -137.5q0 -88 -45.5 -138t-125.5 -50q-79 0 -125.5 50.5t-46.5 137.5t46.5 137.5t125.5 50.5
t125 -50.5zM834.5 529q-30.5 -38 -30.5 -104q0 -65 30.5 -103t83.5 -38q54 0 84.5 38t30.5 103q0 66 -30.5 104t-84.5 38q-53 0 -83.5 -38zM764 116v53h307v-53h-307z" />
    <glyph glyph-name="uni2117" unicode="&#x2117;" horiz-adv-x="814" 
d="M594.5 677q81.5 -46 126 -129t44.5 -192t-44.5 -192t-126 -129t-187.5 -46t-187 46t-126 129t-45 192t45 192t126 129t187 46t187.5 -46zM241.5 639.5q-71.5 -40.5 -111 -113.5t-39.5 -170t39.5 -170t111 -113.5t165.5 -40.5t165.5 40.5t111 114t39.5 169.5t-39.5 169.5
t-111 114t-165.5 40.5t-165.5 -40.5zM567.5 549.5q46.5 -38.5 46.5 -109.5q0 -70 -47 -108.5t-133 -38.5h-99v-183h-63v478h162q87 0 133.5 -38.5zM335 351h98q56 0 86 22.5t30 66.5q0 45 -30 68t-86 23h-98v-180z" />
    <glyph glyph-name="trademark" unicode="&#x2122;" horiz-adv-x="787" 
d="M177 666v-310h-51v310h-121v46h293v-46h-121zM686 356v173v126h-2q-4 -10 -22 -62l-23 -63l-66 -174h-57l-65 174q-22 60 -32 90q-5 11 -13 35h-2l1 -126v-173h-51v356h82l59 -164q17 -45 49 -135h2l48 135l61 164h81v-356h-50z" />
    <glyph glyph-name="uni2126" unicode="&#x2126;" horiz-adv-x="726" 
d="M589.5 644.5q84.5 -80.5 84.5 -235.5q0 -100 -44 -182.5t-125 -165.5v-2h180v-59h-253v61q85 87 129.5 166.5t44.5 177.5q0 127 -66 193t-177 66q-110 0 -176 -66t-66 -193q0 -99 44.5 -178t128.5 -166v-61h-253v59h180v2q-81 83 -125 165.5t-44 182.5q0 155 85 235.5
t226 80.5q142 0 226.5 -80.5z" />
    <glyph glyph-name="estimated" unicode="&#x212e;" horiz-adv-x="859" 
d="M633.5 638q86.5 -49 132.5 -131.5t46 -180.5h-610q-6 0 -9.5 -3.5t-3.5 -8.5v-166q0 -17 3 -26.5t12 -17.5q93 -91 226 -91q72 0 135 30t103 79h69q-40 -55 -118 -94.5t-189 -39.5q-114 0 -201 44.5t-134.5 123.5t-47.5 180q0 99 46.5 179t133 126t203.5 46t203.5 -49z
M204 568q-9 -9 -12 -17.5t-3 -23.5v-166q0 -13 13 -13h454q13 0 13 13v166q0 15 -3 23.5t-12 17.5q-94 93 -224 93q-133 0 -226 -93z" />
    <glyph glyph-name="oneeighth" unicode="&#x215b;" horiz-adv-x="716" 
d="M99 270v291h-90v46q48 0 71.5 15.5t29.5 51.5h45v-404h-56zM65 0l392 674h65l-392 -674h-65zM640.5 381q38.5 -32 38.5 -81q0 -59 -65 -90v-1q38 -14 55 -38t17 -60q0 -53 -40 -86.5t-104 -33.5q-65 0 -105 33.5t-40 86.5q0 36 17.5 60t54.5 38v1q-65 31 -65 90
q0 50 38.5 81.5t99.5 31.5q60 0 98.5 -32zM483 344.5q-22 -16.5 -22 -44.5q0 -31 22 -49t59 -18t58.5 18t21.5 49q0 28 -22 44.5t-58 16.5q-37 0 -59 -16.5zM478.5 163.5q-24.5 -19.5 -24.5 -51.5t24 -50.5t64 -18.5q39 0 63 18.5t24 50.5t-24 51.5t-63 19.5t-63.5 -19.5z
" />
    <glyph glyph-name="threeeighths" unicode="&#x215c;" horiz-adv-x="843" 
d="M269 653q36 -30 36 -81q0 -34 -15 -56t-51 -38v-2q39 -16 56 -39.5t17 -60.5q0 -51 -39.5 -83t-102.5 -32q-67 0 -105 34.5t-38 96.5h57q0 -41 21.5 -60t64.5 -19q38 0 61 17.5t23 47.5q0 35 -26 53.5t-75 18.5h-13v50h13q43 0 68.5 18.5t25.5 49.5q0 29 -20.5 46
t-57.5 17q-40 0 -60.5 -18.5t-20.5 -57.5h-57q0 60 37.5 94t101.5 34q63 0 99 -30zM191 0l392 674h65l-392 -674h-65zM766.5 381q38.5 -32 38.5 -81q0 -59 -65 -90v-1q38 -14 55 -38t17 -60q0 -53 -40 -86.5t-104 -33.5q-65 0 -105 33.5t-40 86.5q0 36 17.5 60t54.5 38v1
q-65 31 -65 90q0 50 38.5 81.5t99.5 31.5q60 0 98.5 -32zM609 344.5q-22 -16.5 -22 -44.5q0 -31 22 -49t59 -18t58.5 18t21.5 49q0 28 -22 44.5t-58 16.5q-37 0 -59 -16.5zM604.5 163.5q-24.5 -19.5 -24.5 -51.5t24 -50.5t64 -18.5q39 0 63 18.5t24 50.5t-24 51.5t-63 19.5
t-63.5 -19.5z" />
    <glyph glyph-name="fiveeighths" unicode="&#x215d;" horiz-adv-x="844" 
d="M111 623l-11 -113h1q12 13 32.5 20.5t44.5 7.5q62 0 99 -37t37 -100q0 -64 -39 -102t-105 -38q-61 0 -98.5 31.5t-37.5 85.5h57q1 -31 23 -48t55 -17q40 0 63.5 24t23.5 65q0 39 -22 61.5t-60 22.5q-32 0 -52.5 -14t-27.5 -41l-56 3l22 240h234v-51h-183zM192 0l392 674
h65l-392 -674h-65zM767.5 381q38.5 -32 38.5 -81q0 -59 -65 -90v-1q38 -14 55 -38t17 -60q0 -53 -40 -86.5t-104 -33.5q-65 0 -105 33.5t-40 86.5q0 36 17.5 60t54.5 38v1q-65 31 -65 90q0 50 38.5 81.5t99.5 31.5q60 0 98.5 -32zM610 344.5q-22 -16.5 -22 -44.5
q0 -31 22 -49t59 -18t58.5 18t21.5 49q0 28 -22 44.5t-58 16.5q-37 0 -59 -16.5zM605.5 163.5q-24.5 -19.5 -24.5 -51.5t24 -50.5t64 -18.5q39 0 63 18.5t24 50.5t-24 51.5t-63 19.5t-63.5 -19.5z" />
    <glyph glyph-name="seveneighths" unicode="&#x215e;" horiz-adv-x="750" 
d="M205.5 466q-39.5 -93 -60.5 -196h-60q28 114 67 204t80 149h-223v51h284v-51q-48 -64 -87.5 -157zM98 0l392 674h65l-392 -674h-65zM673.5 381q38.5 -32 38.5 -81q0 -59 -65 -90v-1q38 -14 55 -38t17 -60q0 -53 -40 -86.5t-104 -33.5q-65 0 -105 33.5t-40 86.5
q0 36 17.5 60t54.5 38v1q-65 31 -65 90q0 50 38.5 81.5t99.5 31.5q60 0 98.5 -32zM516 344.5q-22 -16.5 -22 -44.5q0 -31 22 -49t59 -18t58.5 18t21.5 49q0 28 -22 44.5t-58 16.5q-37 0 -59 -16.5zM511.5 163.5q-24.5 -19.5 -24.5 -51.5t24 -50.5t64 -18.5q39 0 63 18.5
t24 50.5t-24 51.5t-63 19.5t-63.5 -19.5z" />
    <glyph glyph-name="uni2166" unicode="&#x2166;" horiz-adv-x="1131" 
d="M265 0l-258 712h69l121 -337l111 -312h2l110 312l121 337h69l-257 -712h-88zM698 0v712h65v-712h-65zM965 0v712h65v-712h-65z" />
    <glyph glyph-name="partialdiff" unicode="&#x2202;" horiz-adv-x="589" 
d="M454.5 635.5q65.5 -89.5 65.5 -261.5q0 -131 -33.5 -218t-89.5 -128t-126 -41q-105 0 -163.5 63.5t-58.5 169.5q0 72 27.5 131t79 93t120.5 34q66 0 110 -28.5t64 -72.5h2q1 11 1 33q0 76 -22.5 134t-64 89.5t-96.5 31.5q-112 0 -128 -115h-68q9 81 57.5 128t137.5 47
q120 0 185.5 -89.5zM194 392q-37 -26 -57 -71.5t-20 -103.5q0 -80 39.5 -125t114.5 -45q77 0 121 56.5t44 140.5q0 78 -42 126t-114 48q-49 0 -86 -26z" />
    <glyph glyph-name="uni2206" unicode="&#x2206;" horiz-adv-x="664" 
d="M6 0l282 712h89l281 -712h-652zM447 364l-114 295h-2l-114 -295l-118 -305h466z" />
    <glyph glyph-name="product" unicode="&#x220f;" horiz-adv-x="652" 
d="M486 -120v773h-320v-773h-65v832h450v-832h-65z" />
    <glyph glyph-name="summation" unicode="&#x2211;" horiz-adv-x="471" 
d="M107 654l214 -362l-214 -354h329v-58h-401v58l216 354l-216 362v58h401v-58h-329z" />
    <glyph glyph-name="minus" unicode="&#x2212;" horiz-adv-x="566" 
d="M74 288v57h418v-57h-418z" />
    <glyph glyph-name="uni2215" unicode="&#x2215;" horiz-adv-x="442" 
d="M30 -89l297 834h64l-297 -834h-64z" />
    <glyph glyph-name="uni2219" unicode="&#x2219;" horiz-adv-x="335" 
d="M124 260v91h86v-91h-86z" />
    <glyph glyph-name="radical" unicode="&#x221a;" horiz-adv-x="541" 
d="M206 -120l-100 420h-81v52h123l97 -406h2l218 766h56l-238 -832h-77z" />
    <glyph glyph-name="infinity" unicode="&#x221e;" horiz-adv-x="606" 
d="M554.5 411.5q36.5 -39.5 36.5 -103.5t-36.5 -103.5t-94.5 -39.5q-52 0 -87.5 26t-69.5 72q-34 -46 -69.5 -72t-86.5 -26q-59 0 -95.5 39.5t-36.5 103.5t36.5 103.5t95.5 39.5q51 0 86.5 -26t69.5 -72q34 46 69.5 72t87.5 26q58 0 94.5 -39.5zM215.5 243q26.5 22 56.5 65
q-30 43 -56.5 65t-63.5 22t-58.5 -23t-21.5 -64t21.5 -64t58.5 -23t63.5 22zM513 244q21 23 21 64t-21 64t-59 23q-37 0 -63.5 -22t-56.5 -65q30 -43 56.5 -65t63.5 -22q38 0 59 23z" />
    <glyph glyph-name="integral" unicode="&#x222b;" horiz-adv-x="295" 
d="M283 712v-53q-12 4 -32 4q-37 0 -55 -21t-18 -69v-625q0 -137 -124 -137q-22 0 -42 4v53q12 -4 31 -4q37 0 55 21t18 69v625q0 137 125 137q20 0 42 -4z" />
    <glyph glyph-name="approxequal" unicode="&#x2248;" horiz-adv-x="566" 
d="M242.5 471.5q24.5 -13.5 56.5 -40.5q28 -23 44.5 -33t37.5 -10q30 0 47 22.5t17 61.5h53q0 -62 -32 -100.5t-85 -38.5q-32 0 -57 13.5t-57 39.5q-24 21 -42.5 32t-39.5 11q-30 0 -47 -22.5t-17 -60.5h-53q0 62 32 100.5t85 38.5q33 0 57.5 -13.5zM242.5 287.5
q24.5 -13.5 56.5 -40.5q27 -22 44 -32t38 -10q30 0 47 22.5t17 60.5h53q0 -62 -32 -100.5t-85 -38.5q-33 0 -58 14t-56 40q-26 22 -43.5 32.5t-38.5 10.5q-30 0 -47 -22.5t-17 -61.5h-53q0 62 32 100.5t85 38.5q33 0 57.5 -13.5z" />
    <glyph glyph-name="notequal" unicode="&#x2260;" horiz-adv-x="566" 
d="M283 268h209v-56h-246l-88 -132h-63l87 132h-108v56h145l65 97h-210v56h247l87 132h64l-88 -132h108v-56h-145z" />
    <glyph glyph-name="lessequal" unicode="&#x2264;" horiz-adv-x="566" 
d="M133 320v-2l359 -150v-62l-418 175v75l418 175v-61zM492 0h-418v56h418v-56z" />
    <glyph glyph-name="greaterequal" unicode="&#x2265;" horiz-adv-x="566" 
d="M492 281l-418 -175v62l359 150v2l-359 150v61l418 -175v-75zM74 0v56h418v-56h-418z" />
    <glyph glyph-name="lozenge" unicode="&#x25ca;" horiz-adv-x="574" 
d="M327 0h-80l-207 356l207 356h80l207 -356zM287 46l181 310l-181 310l-182 -310z" />
    <glyph glyph-name="uniF8FF" unicode="&#xf8ff;" horiz-adv-x="614" 
d="M556.5 742.5q34.5 -34.5 34.5 -93.5v-586q0 -59 -34.5 -93.5t-93.5 -34.5h-312q-59 0 -93.5 34.5t-34.5 93.5v586q0 59 34.5 93.5t93.5 34.5h312q59 0 93.5 -34.5zM87.5 712.5q-23.5 -23.5 -23.5 -63.5v-586q0 -40 23.5 -63.5t63.5 -23.5h312q40 0 63.5 23.5t23.5 63.5
v586q0 40 -23.5 63.5t-63.5 23.5h-312q-40 0 -63.5 -23.5zM422 606q46 -40 46 -105q0 -44 -16 -73.5t-68 -73.5q-31 -26 -45 -45t-19 -43.5t-5 -71.5h-57v25q0 43 6.5 70t23 49.5t50.5 53.5q40 35 51 56t11 53q0 41 -26 64t-72 23q-50 0 -78 -27.5t-31 -79.5h-63
q4 81 48.5 123t123.5 42q74 0 120 -40zM248 65v81h77v-81h-77z" />
    <glyph glyph-name="uniFB00" unicode="&#xfb00;" horiz-adv-x="541" 
d="M440 642q-18 -21 -18 -69v-65h102v-52h-102v-456h-62v456h-192v-456h-62v456h-91v52h91v71q0 137 125 137q20 0 42 -4v-53q-14 4 -32 4q-37 0 -55 -21t-18 -69v-65h192v71q0 137 125 137q21 0 41 -4v-53q-14 4 -31 4q-37 0 -55 -21z" />
    <glyph glyph-name="uniFB01" unicode="&#xfb01;" horiz-adv-x="516" 
d="M231 716q20 0 42 -4v-53q-14 4 -32 4q-37 0 -55 -21t-18 -69v-65h103v-52h-103v-456h-62v456h-91v52h91v71q0 137 125 137zM432 624h-62v88h62v-88zM432 508v-508h-62v508h62z" />
    <glyph glyph-name="uniFB02" unicode="&#xfb02;" horiz-adv-x="516" 
d="M186 642q-18 -21 -18 -69v-65h103v-52h-103v-456h-62v456h-91v52h91v71q0 137 125 137q20 0 42 -4v-53q-14 4 -32 4q-37 0 -55 -21zM370 0v712h62v-712h-62z" />
    <glyph glyph-name="uniFB03" unicode="&#xfb03;" horiz-adv-x="769" 
d="M485 716q21 0 41 -4v-53q-14 4 -31 4q-37 0 -55 -21t-18 -69v-65h102v-52h-102v-456h-62v456h-192v-456h-62v456h-91v52h91v71q0 137 125 137q20 0 42 -4v-53q-14 4 -32 4q-37 0 -55 -21t-18 -69v-65h192v71q0 137 125 137zM686 624h-62v88h62v-88zM686 508v-508h-62v508
h62z" />
    <glyph glyph-name="uniFB04" unicode="&#xfb04;" horiz-adv-x="769" 
d="M485 716q21 0 41 -4v-53q-14 4 -31 4q-37 0 -55 -21t-18 -69v-65h102v-52h-102v-456h-62v456h-192v-456h-62v456h-91v52h91v71q0 137 125 137q20 0 42 -4v-53q-14 4 -32 4q-37 0 -55 -21t-18 -69v-65h192v71q0 137 125 137zM686 0h-62v712h62v-712z" />
    <glyph glyph-name="uniFEFF" unicode="&#xfeff;" horiz-adv-x="0" 
 />
    <glyph glyph-name="glyph202" horiz-adv-x="337" 
d="M194 45.5q-48 -49.5 -137 -49.5q-24 0 -42 5v60q21 -4 41 -4q60 0 90 33.5t30 104.5v517h66v-519q0 -98 -48 -147.5zM151 775l90 141h84l-115 -141h-59z" />
    <glyph glyph-name="Ccedilla.salt" horiz-adv-x="683" 
d="M494.5 692.5q61.5 -32.5 95.5 -89.5t38 -129h-68q-8 87 -64.5 138.5t-144.5 51.5q-73 0 -126.5 -37t-82 -106.5t-28.5 -164.5t28.5 -164.5t81.5 -106.5t125 -37q87 0 145 52.5t70 141.5h68q-8 -77 -44 -134.5t-97.5 -89t-141.5 -31.5q-93 0 -161.5 44.5t-105.5 127.5
t-37 197t37 197t106 127.5t163 44.5q82 0 143.5 -32.5zM203 -208l124 159h60l-101 -159h-83z" />
    <glyph glyph-name="Scedilla.salt" horiz-adv-x="599" 
d="M467.5 666q62.5 -59 62.5 -175h-66q0 175 -182 175q-75 0 -116 -34.5t-41 -94.5q0 -41 19.5 -66.5t57 -41t103.5 -31.5q81 -20 130 -41t78.5 -60.5t29.5 -106.5q0 -93 -65.5 -148t-177.5 -55q-122 0 -188.5 64t-66.5 186h65q0 -97 50 -143.5t140 -46.5q86 0 131.5 37
t45.5 105q0 43 -20.5 68.5t-59 41t-108.5 33.5q-80 20 -127.5 41t-75 59.5t-27.5 103.5q0 56 26.5 98.5t77 66.5t119.5 24q123 0 185.5 -59zM159 -208l124 159h60l-101 -159h-83z" />
    <glyph glyph-name="Tcommaaccent.salt" horiz-adv-x="592" 
d="M328 653v-653h-65v653h-253v59h572v-59h-254zM155 -208l124 159h60l-101 -159h-83z" />
    <glyph glyph-name="i.locl" horiz-adv-x="228" 
d="M83 0v508h62v-508h-62zM83 624v88h62v-88h-62z" />
    <glyph glyph-name="glyph314" horiz-adv-x="235" 
d="M19 -189q-19 0 -36 4v54q16 -3 30 -3q38 0 57.5 22.5t19.5 75.5v544h62v-545q0 -152 -133 -152zM63 571l90 141h84l-115 -141h-59z" />
    <glyph glyph-name="ccedilla.salt" horiz-adv-x="521" 
d="M416.5 469q56.5 -52 63.5 -136h-65q-5 59 -44 96.5t-97 37.5q-76 0 -119.5 -57t-43.5 -156q0 -100 43.5 -156.5t119.5 -56.5q57 0 96.5 40.5t44.5 99.5h65q-5 -55 -31.5 -99t-71.5 -69.5t-103 -25.5q-107 0 -168.5 71.5t-61.5 195.5t61.5 195.5t168.5 71.5
q86 0 142.5 -52zM133 -208l124 159h60l-101 -159h-83z" />
    <glyph glyph-name="scedilla.salt" horiz-adv-x="479" 
d="M370 475.5q50 -45.5 51 -128.5h-62q0 57 -34 88.5t-95 31.5q-52 0 -83.5 -23t-31.5 -61q0 -30 13 -46t36.5 -24t78.5 -21q66 -15 103 -28.5t63.5 -44t26.5 -84.5q0 -66 -52 -107t-138 -41q-96 0 -150 48t-55 136h63q0 -62 37 -96t105 -34q57 0 92.5 25t35.5 65
q0 33 -15 51t-44 28t-92 25q-59 14 -91.5 26t-55.5 40t-23 77q0 64 49.5 103.5t127.5 39.5q90 0 140 -45.5zM105 -208l124 159h60l-101 -159h-83z" />
    <glyph glyph-name="tcommaaccent.salt" horiz-adv-x="302" 
d="M273 55v-53q-22 -5 -46 -5q-66 0 -95 32t-29 105v322h-91v52h91v118h62v-118h103v-52h-103v-321q0 -45 16.5 -64.5t56.5 -19.5q19 0 35 4zM28 -208l124 159h60l-101 -159h-83z" />
    <glyph glyph-name="a.superior" horiz-adv-x="383" 
d="M291 660.5q37 -34.5 37 -103.5v-136q0 -53 9 -91h-49q-5 28 -5 53h-2q-38 -60 -129 -60q-57 0 -91.5 29t-34.5 75t32.5 72.5t110.5 38.5q62 9 107 12v14q0 45 -24 66t-65 21q-42 0 -65 -19.5t-25 -52.5h-56q3 51 41.5 83.5t104.5 32.5q67 0 104 -34.5zM176 494
q-52 -8 -72.5 -22t-20.5 -42q0 -29 21 -46t59 -17q24 0 45.5 7.5t34.5 20.5q19 19 26 37t7 51v23q-45 -3 -100 -12z" />
    <glyph glyph-name="b.superior" horiz-adv-x="411" 
d="M114 637q14 26 44 42.5t67 16.5q71 0 113 -51t42 -136t-42 -136t-113 -51q-37 0 -67 16.5t-45 42.5h-2v-51h-53v498h54v-191h2zM137.5 612q-29.5 -39 -29.5 -103t29.5 -103t78.5 -39t78.5 39t29.5 103t-29.5 103t-78.5 39t-78.5 -39z" />
    <glyph glyph-name="c.superior" horiz-adv-x="380" 
d="M306.5 655q40.5 -40 45.5 -95h-56q-2 33 -29 60t-67 27q-52 0 -81.5 -37t-29.5 -102t29.5 -102t81.5 -37q39 0 66 27t30 64h56q-5 -60 -46.5 -100t-105.5 -40q-78 0 -123 50t-45 138q0 87 45 137t123 50q66 0 106.5 -40z" />
    <glyph glyph-name="d.superior" horiz-adv-x="411" 
d="M353 330h-53v51h-2q-14 -26 -44.5 -42.5t-66.5 -16.5q-71 0 -113 51t-42 136t42 136t112 51q37 0 67 -16.5t45 -42.5h2v191h53v-498zM117 612q-30 -39 -30 -103t30 -103t79 -39q48 0 77.5 39t29.5 103t-29.5 103t-77.5 39q-49 0 -79 -39z" />
    <glyph glyph-name="e.superior" horiz-adv-x="393" 
d="M268.5 384q26.5 19 35.5 52h55q-9 -49 -49.5 -82.5t-108.5 -33.5q-79 0 -124 52.5t-45 141.5q0 80 44.5 130.5t122.5 50.5q62 0 103 -33.5t54 -92.5q6 -30 6 -73h-276q2 -65 33.5 -98t81.5 -33q41 0 67.5 19zM120.5 620.5q-30.5 -29.5 -34.5 -82.5h223q-4 53 -34 82.5
t-76 29.5q-48 0 -78.5 -29.5z" />
    <glyph glyph-name="egrave.superior" horiz-adv-x="393" 
d="M268.5 384q26.5 19 35.5 52h55q-9 -49 -49.5 -82.5t-108.5 -33.5q-79 0 -124 52.5t-45 141.5q0 74 38 123.5t106 56.5l-87 93h77l67 -95q48 -8 80 -40t43 -83q6 -30 6 -73h-276q2 -65 33.5 -98t81.5 -33q41 0 67.5 19zM120.5 620.5q-30.5 -29.5 -34.5 -82.5h223
q-4 53 -34 82.5t-76 29.5q-48 0 -78.5 -29.5z" />
    <glyph glyph-name="f.superior" horiz-adv-x="214" 
d="M141.5 773q-12.5 -14 -12.5 -47v-40h73v-45h-73v-311h-54v311h-64v45h64v47q0 98 96 98q18 0 32 -4v-43q-10 3 -23 3q-26 0 -38.5 -14z" />
    <glyph glyph-name="g.superior" horiz-adv-x="411" 
d="M251.5 680.5q28.5 -14.5 46.5 -41.5h2v47h53v-334q0 -78 -40.5 -117.5t-119.5 -39.5q-68 0 -106.5 30t-38.5 83h53q1 -33 25.5 -51t66.5 -18q55 0 80.5 27.5t25.5 87.5v39h-2q-18 -27 -46.5 -41.5t-61.5 -14.5q-72 0 -114.5 49t-42.5 130t42.5 130t114.5 49
q34 0 62.5 -14.5zM115.5 613.5q-28.5 -37.5 -28.5 -97.5t28.5 -97t75.5 -37q52 0 81.5 35.5t29.5 98.5t-29.5 99t-81.5 36q-47 0 -75.5 -37.5z" />
    <glyph glyph-name="h.superior" horiz-adv-x="409" 
d="M114 642q18 26 47 39t62 13q65 0 98.5 -37.5t33.5 -110.5v-216h-53v213q0 59 -22 82t-67 23q-43 0 -72 -28.5t-29 -82.5v-207h-54v498h54v-186h2z" />
    <glyph glyph-name="i.superior" horiz-adv-x="170" 
d="M58 764v64h54v-64h-54zM58 330v356h54v-356h-54z" />
    <glyph glyph-name="j.superior" horiz-adv-x="176" 
d="M64 764v64h53v-64h-53zM91 221q-26 -24 -73 -24q-14 0 -30 3v47q9 -2 24 -2q26 0 39 12.5t13 40.5v388h53v-389q0 -52 -26 -76z" />
    <glyph glyph-name="k.superior" horiz-adv-x="353" 
d="M284 330l-170 182h-2v-182h-54v498h54v-289h2l151 147h72l-170 -159l191 -197h-74z" />
    <glyph glyph-name="l.superior" horiz-adv-x="170" 
d="M58 330v498h54v-498h-54z" />
    <glyph glyph-name="m.superior" horiz-adv-x="614" 
d="M528.5 657.5q31.5 -36.5 31.5 -107.5v-220h-54v216q0 57 -19 79.5t-59 22.5q-42 0 -67 -31t-25 -82v-205h-54v226q0 44 -20 68t-58 24q-42 0 -67 -32t-25 -84v-202h-54v356h53v-43h2q21 26 44.5 38.5t54.5 12.5q37 0 66 -18t44 -51q37 69 115 69q60 0 91.5 -36.5z" />
    <glyph glyph-name="n.superior" horiz-adv-x="410" 
d="M321.5 656.5q33.5 -37.5 33.5 -110.5v-216h-53v213q0 59 -22 82t-67 23q-43 0 -72 -28.5t-29 -82.5v-207h-54v356h53v-45h2q16 24 45.5 38.5t64.5 14.5q65 0 98.5 -37.5z" />
    <glyph glyph-name="o.superior" horiz-adv-x="405" 
d="M328.5 645q45.5 -50 45.5 -137q0 -88 -45.5 -138t-125.5 -50q-79 0 -125.5 50.5t-46.5 137.5t46.5 137t125.5 50q80 0 125.5 -50zM119.5 611q-30.5 -38 -30.5 -103t30.5 -103t83.5 -38q54 0 84.5 38t30.5 103t-30.5 103t-84.5 38q-53 0 -83.5 -38z" />
    <glyph glyph-name="p.superior" horiz-adv-x="411" 
d="M338 645q42 -51 42 -136t-42 -136t-113 -51q-37 0 -67 16.5t-44 42.5h-2v-180h-54v485h53v-50h2q15 26 45 43t67 17q71 0 113 -51zM137.5 612q-29.5 -39 -29.5 -103t29.5 -103t78.5 -39t78.5 39t29.5 103t-29.5 103t-78.5 39t-78.5 -39z" />
    <glyph glyph-name="q.superior" horiz-adv-x="411" 
d="M253.5 679q30.5 -17 44.5 -43h2v50h53v-485h-53v180h-2q-15 -26 -45 -42.5t-67 -16.5q-70 0 -112 51t-42 136t42 136t113 51q36 0 66.5 -17zM117 612q-30 -39 -30 -103t30 -103t79 -39q48 0 77.5 39t29.5 103t-29.5 103t-77.5 39q-49 0 -79 -39z" />
    <glyph glyph-name="r.superior" horiz-adv-x="256" 
d="M247 687v-51q-12 2 -24 2q-54 0 -82.5 -33.5t-28.5 -92.5v-182h-54v356h53v-55h2q39 58 109 58q11 0 25 -2z" />
    <glyph glyph-name="s.superior" horiz-adv-x="351" 
d="M272 663.5q37 -31.5 38 -89.5h-54q0 37 -23 56.5t-64 19.5q-36 0 -57 -14t-21 -38q0 -20 9 -30t25 -15t56 -14q46 -10 72.5 -19.5t47 -32t20.5 -61.5q0 -48 -38 -77t-103 -29q-70 0 -109.5 33.5t-41.5 95.5h54q0 -40 25.5 -61.5t71.5 -21.5q39 0 63.5 15.5t24.5 40.5
q0 21 -10 33t-30 18.5t-65 17.5q-7 2 -45.5 11t-59 31.5t-20.5 59.5q0 46 36 74t95 28q66 0 103 -31.5z" />
    <glyph glyph-name="t.superior" horiz-adv-x="223" 
d="M202 377v-46q-13 -3 -34 -3q-51 0 -73.5 23t-22.5 76v214h-64v45h64v83h54v-83h73v-45h-73v-212q0 -29 11.5 -42t39.5 -13q10 0 25 3z" />
    <glyph glyph-name="u.superior" horiz-adv-x="409" 
d="M87.5 359.5q-33.5 37.5 -33.5 110.5v216h54v-213q0 -59 22 -82t66 -23q43 0 72.5 29t29.5 82v207h53v-356h-53v45h-2q-16 -24 -45.5 -38.5t-64.5 -14.5q-65 0 -98.5 37.5z" />
    <glyph glyph-name="v.superior" horiz-adv-x="331" 
d="M131 330l-135 356h58l55 -150l56 -154h2l55 154l55 150h58l-134 -356h-70z" />
    <glyph glyph-name="w.superior" horiz-adv-x="544" 
d="M360 330l-43 154q-20 66 -29 100l-15 53h-2q-24 -90 -44 -153l-43 -154h-76l-102 356h55l41 -149l44 -159h2l42 152l43 156h79l43 -156q24 -91 22 -81q12 -48 19 -71h2l45 159l41 149h55l-102 -356h-77z" />
    <glyph glyph-name="x.superior" horiz-adv-x="343" 
d="M343 330h-66l-105 147h-2l-105 -147h-65l140 187l-127 169h65l92 -132h2l93 132h64l-126 -169z" />
    <glyph glyph-name="y.superior" horiz-adv-x="337" 
d="M152 242q-19 -24 -44 -34t-64 -10q-14 0 -26 3v47q12 -3 25 -3q28 0 44 7t28 24.5t26 53.5l-144 356h58l114 -290h2l112 290h57l-150 -375q-19 -45 -38 -69z" />
    <glyph glyph-name="z.superior" horiz-adv-x="334" 
d="M85 378v-2h232v-46h-299v48l224 260v2h-217v46h285v-48z" />
    <glyph glyph-name="A.aalt" horiz-adv-x="554" 
d="M143 166l-67 -166h-70l227 548h88l227 -548h-70l-67 166h-268zM367 275q-61 150 -89 220h-2q-28 -70 -89 -220l-20 -50h220z" />
    <glyph glyph-name="Aacute.aalt" horiz-adv-x="554" 
d="M143 166l-67 -166h-70l227 548h88l227 -548h-70l-67 166h-268zM367 275q-61 150 -89 220h-2q-28 -70 -89 -220l-20 -50h220zM219 611l90 141h84l-115 -141h-59z" />
    <glyph glyph-name="Abreve.aalt" horiz-adv-x="554" 
d="M143 166l-67 -166h-70l227 548h88l227 -548h-70l-67 166h-268zM367 275q-61 150 -89 220h-2q-28 -70 -89 -220l-20 -50h220zM379 649.5q-38 -36.5 -102 -36.5t-102 36.5t-44 102.5h51q6 -43 30.5 -66t64.5 -23t64 22.5t31 66.5h51q-6 -66 -44 -102.5z" />
    <glyph glyph-name="Acircumflex.aalt" horiz-adv-x="554" 
d="M143 166l-67 -166h-70l227 548h88l227 -548h-70l-67 166h-268zM367 275q-61 150 -89 220h-2q-28 -70 -89 -220l-20 -50h220zM277 712l-81 -101h-69l114 141h71l114 -141h-69z" />
    <glyph glyph-name="Adieresis.aalt" horiz-adv-x="554" 
d="M143 166l-67 -166h-70l227 548h88l227 -548h-70l-67 166h-268zM367 275q-61 150 -89 220h-2q-28 -70 -89 -220l-20 -50h220zM154 664v88h61v-88h-61zM338 664v88h61v-88h-61z" />
    <glyph glyph-name="Agrave.aalt" horiz-adv-x="554" 
d="M143 166l-67 -166h-70l227 548h88l227 -548h-70l-67 166h-268zM367 275q-61 150 -89 220h-2q-28 -70 -89 -220l-20 -50h220zM335 611h-59l-115 141h84z" />
    <glyph glyph-name="Amacron.aalt" horiz-adv-x="554" 
d="M143 166l-67 -166h-70l227 548h88l227 -548h-70l-67 166h-268zM367 275q-61 150 -89 220h-2q-28 -70 -89 -220l-20 -50h220zM145 664v52h263v-52h-263z" />
    <glyph glyph-name="Aogonek.aalt" horiz-adv-x="554" 
d="M551 -140v-44q-19 -8 -49 -8q-46 0 -69 19.5t-23 55.5q0 32 18.5 58.5t59.5 58.5h-10l-67 166h-268l-67 -166h-70l227 548h88l227 -548q-45 -34 -62.5 -59t-17.5 -51q0 -18 11.5 -27.5t31.5 -9.5q22 0 40 7zM367 275q-61 150 -89 220h-2q-28 -70 -89 -220l-20 -50h220z
" />
    <glyph glyph-name="Aring.aalt" horiz-adv-x="554" 
d="M143 166l-67 -166h-70l227 548h88l227 -548h-70l-67 166h-268zM367 275q-61 150 -89 220h-2q-28 -70 -89 -220l-20 -50h220zM345 775.5q28 -28.5 28 -68.5t-28 -68.5t-68 -28.5t-68.5 28.5t-28.5 68.5t28.5 68.5t68.5 28.5t68 -28.5zM234.5 749q-17.5 -17 -17.5 -42
t17.5 -42.5t42.5 -17.5t42 17.5t17 42.5t-17 42t-42 17t-42.5 -17z" />
    <glyph glyph-name="Atilde.aalt" horiz-adv-x="554" 
d="M143 166l-67 -166h-70l227 548h88l227 -548h-70l-67 166h-268zM367 275q-61 150 -89 220h-2q-28 -70 -89 -220l-20 -50h220zM414.5 665q-24.5 -27 -65.5 -27q-21 0 -39 7.5t-42 21.5q-19 12 -33 18t-28 6q-20 0 -32 -13.5t-14 -39.5h-48q3 51 27.5 78t65.5 27q20 0 37 -7
t45 -23q23 -13 35 -18.5t25 -5.5q20 0 32 14t14 40h48q-3 -51 -27.5 -78z" />
    <glyph glyph-name="AE.aalt" horiz-adv-x="771" 
d="M718 0h-302l-29 178h-226l-93 -178h-73l287 548h427v-59h-305l29 -178h260v-59h-250l31 -193h244v-59zM337 489h-13l-132 -252h186z" />
    <glyph glyph-name="B.aalt" horiz-adv-x="537" 
d="M421 509.5q49 -38.5 49 -103.5q0 -44 -24 -76t-69 -48v-2q48 -13 76 -47t28 -80q0 -70 -50.5 -111.5t-140.5 -41.5h-200v548h187q95 0 144 -38.5zM155 307h112q137 0 137 91q0 47 -32 70.5t-102 23.5h-115v-185zM155 57h125q68 0 100.5 24t32.5 73q0 48 -35 72.5
t-111 24.5h-112v-194z" />
    <glyph glyph-name="C.aalt" horiz-adv-x="577" 
d="M458 507q62 -54 67 -142h-69q-6 63 -50.5 99t-112.5 36q-86 0 -135 -60t-49 -166t48.5 -166t134.5 -60q67 0 112 37.5t55 102.5h69q-9 -92 -72 -146.5t-164 -54.5q-117 0 -184 76.5t-67 210.5t67 210.5t185 76.5q103 0 165 -54z" />
    <glyph glyph-name="Cacute.aalt" horiz-adv-x="577" 
d="M458 507q62 -54 67 -142h-69q-6 63 -50.5 99t-112.5 36q-86 0 -135 -60t-49 -166t48.5 -166t134.5 -60q67 0 112 37.5t55 102.5h69q-9 -92 -72 -146.5t-164 -54.5q-117 0 -184 76.5t-67 210.5t67 210.5t185 76.5q103 0 165 -54zM235 611l90 141h84l-115 -141h-59z" />
    <glyph glyph-name="Ccaron.aalt" horiz-adv-x="577" 
d="M458 507q62 -54 67 -142h-69q-6 63 -50.5 99t-112.5 36q-86 0 -135 -60t-49 -166t48.5 -166t134.5 -60q67 0 112 37.5t55 102.5h69q-9 -92 -72 -146.5t-164 -54.5q-117 0 -184 76.5t-67 210.5t67 210.5t185 76.5q103 0 165 -54zM257 611l-114 141h69l81 -101l80 101h69
l-114 -141h-71z" />
    <glyph glyph-name="Ccedilla.c2sc" horiz-adv-x="577" 
d="M467 51.5q-53 -52.5 -139 -62.5l-35 -52q10 2 23 2q33 0 55.5 -19.5t22.5 -52.5q0 -36 -27 -60.5t-78 -24.5q-53 0 -100 27l15 32q37 -20 78 -20q29 0 44.5 11.5t15.5 32.5q0 20 -15 31.5t-41 11.5q-16 0 -31 -5l-16 18l44 66q-113 3 -177.5 79t-64.5 208q0 134 67 210.5
t185 76.5q103 0 165 -54t67 -142h-69q-6 63 -50.5 99t-112.5 36q-86 0 -135 -60t-49 -166t48.5 -166t134.5 -60q67 0 112 37.5t55 102.5h69q-8 -84 -61 -136.5z" />
    <glyph glyph-name="Ccircumflex.aalt" horiz-adv-x="577" 
d="M458 507q62 -54 67 -142h-69q-6 63 -50.5 99t-112.5 36q-86 0 -135 -60t-49 -166t48.5 -166t134.5 -60q67 0 112 37.5t55 102.5h69q-9 -92 -72 -146.5t-164 -54.5q-117 0 -184 76.5t-67 210.5t67 210.5t185 76.5q103 0 165 -54zM293 712l-81 -101h-69l114 141h71
l114 -141h-69z" />
    <glyph glyph-name="Cdotaccent.aalt" horiz-adv-x="577" 
d="M458 507q62 -54 67 -142h-69q-6 63 -50.5 99t-112.5 36q-86 0 -135 -60t-49 -166t48.5 -166t134.5 -60q67 0 112 37.5t55 102.5h69q-9 -92 -72 -146.5t-164 -54.5q-117 0 -184 76.5t-67 210.5t67 210.5t185 76.5q103 0 165 -54zM261 664v88h62v-88h-62z" />
    <glyph glyph-name="D.aalt" horiz-adv-x="604" 
d="M485 477q78 -71 78 -203t-78 -203t-222 -71h-173v548h173q144 0 222 -71zM155 59h108q111 0 171 55.5t60 159.5t-60 159.5t-171 55.5h-108v-430z" />
    <glyph glyph-name="Eth.aalt" horiz-adv-x="605" 
d="M486 477q78 -71 78 -203t-78 -203t-222 -71h-173v251h-64v53h64v244h173q144 0 222 -71zM435.5 114.5q60.5 55.5 60.5 159.5t-60.5 159.5t-171.5 55.5h-108v-185h165v-53h-165v-192h108q111 0 171.5 55.5z" />
    <glyph glyph-name="Dcaron.aalt" horiz-adv-x="604" 
d="M485 477q78 -71 78 -203t-78 -203t-222 -71h-173v548h173q144 0 222 -71zM155 59h108q111 0 171 55.5t60 159.5t-60 159.5t-171 55.5h-108v-430zM242 611l-114 141h69l81 -101l80 101h69l-114 -141h-71z" />
    <glyph glyph-name="Dcroat.aalt" horiz-adv-x="605" 
d="M486 477q78 -71 78 -203t-78 -203t-222 -71h-173v251h-64v53h64v244h173q144 0 222 -71zM435.5 114.5q60.5 55.5 60.5 159.5t-60.5 159.5t-171.5 55.5h-108v-185h165v-53h-165v-192h108q111 0 171.5 55.5z" />
    <glyph glyph-name="E.aalt" horiz-adv-x="520" 
d="M156 489v-178h290v-59h-290v-193h315v-59h-380v548h372v-59h-307z" />
    <glyph glyph-name="Eacute.aalt" horiz-adv-x="520" 
d="M156 489v-178h290v-59h-290v-193h315v-59h-380v548h372v-59h-307zM219 611l90 141h84l-115 -141h-59z" />
    <glyph glyph-name="Ebreve.aalt" horiz-adv-x="520" 
d="M156 489v-178h290v-59h-290v-193h315v-59h-380v548h372v-59h-307zM379 649.5q-38 -36.5 -102 -36.5t-102 36.5t-44 102.5h51q6 -43 30.5 -66t64.5 -23t64 22.5t31 66.5h51q-6 -66 -44 -102.5z" />
    <glyph glyph-name="Ecaron.aalt" horiz-adv-x="520" 
d="M156 489v-178h290v-59h-290v-193h315v-59h-380v548h372v-59h-307zM242 611l-114 141h69l81 -101l80 101h69l-114 -141h-71z" />
    <glyph glyph-name="Ecircumflex.aalt" horiz-adv-x="520" 
d="M156 489v-178h290v-59h-290v-193h315v-59h-380v548h372v-59h-307zM278 712l-81 -101h-69l114 141h71l114 -141h-69z" />
    <glyph glyph-name="Edieresis.aalt" horiz-adv-x="520" 
d="M156 489v-178h290v-59h-290v-193h315v-59h-380v548h372v-59h-307zM154 664v88h61v-88h-61zM338 664v88h61v-88h-61z" />
    <glyph glyph-name="Edotaccent.aalt" horiz-adv-x="520" 
d="M156 489v-178h290v-59h-290v-193h315v-59h-380v548h372v-59h-307zM246 664v88h62v-88h-62z" />
    <glyph glyph-name="Egrave.aalt" horiz-adv-x="520" 
d="M156 489v-178h290v-59h-290v-193h315v-59h-380v548h372v-59h-307zM335 611h-59l-115 141h84z" />
    <glyph glyph-name="Emacron.aalt" horiz-adv-x="520" 
d="M156 489v-178h290v-59h-290v-193h315v-59h-380v548h372v-59h-307zM145 664v52h263v-52h-263z" />
    <glyph glyph-name="Eogonek.aalt" horiz-adv-x="520" 
d="M474 -140v-44q-19 -8 -49 -8q-46 0 -69 19.5t-23 55.5q0 32 18.5 58.5t59.5 58.5h-320v548h372v-59h-307v-178h290v-59h-290v-193h315v-59q-45 -34 -62.5 -59t-17.5 -51q0 -18 11.5 -27.5t31.5 -9.5q22 0 40 7z" />
    <glyph glyph-name="F.aalt" horiz-adv-x="484" 
d="M155 489v-191h280v-59h-280v-239h-65v548h363v-59h-298z" />
    <glyph glyph-name="uniFB01.aalt" horiz-adv-x="731" 
d="M155 489v-191h280v-59h-280v-239h-65v548h363v-59h-298zM575 0v548h65v-548h-65z" />
    <glyph glyph-name="uniFB02.aalt" horiz-adv-x="954" 
d="M155 489v-191h280v-59h-280v-239h-65v548h363v-59h-298zM944 59v-59h-369v548h65v-489h304z" />
    <glyph glyph-name="G.aalt" horiz-adv-x="610" 
d="M461.5 514q63.5 -47 70.5 -127h-69q-11 55 -53.5 84t-109.5 29q-89 0 -140 -60.5t-51 -166.5q0 -104 49 -163.5t135 -59.5q81 0 128.5 44.5t47.5 139.5h-165v58h228v-292h-61v71h-2q-24 -38 -74 -59.5t-109 -21.5q-75 0 -130 34t-85 98t-30 151q0 134 69 211t190 77
q98 0 161.5 -47z" />
    <glyph glyph-name="Gbreve.aalt" horiz-adv-x="610" 
d="M461.5 514q63.5 -47 70.5 -127h-69q-11 55 -53.5 84t-109.5 29q-89 0 -140 -60.5t-51 -166.5q0 -104 49 -163.5t135 -59.5q81 0 128.5 44.5t47.5 139.5h-165v58h228v-292h-61v71h-2q-24 -38 -74 -59.5t-109 -21.5q-75 0 -130 34t-85 98t-30 151q0 134 69 211t190 77
q98 0 161.5 -47zM397 649.5q-38 -36.5 -102 -36.5t-102 36.5t-44 102.5h51q6 -43 30.5 -66t64.5 -23t64 22.5t31 66.5h51q-6 -66 -44 -102.5z" />
    <glyph glyph-name="Gcircumflex.aalt" horiz-adv-x="610" 
d="M461.5 514q63.5 -47 70.5 -127h-69q-11 55 -53.5 84t-109.5 29q-89 0 -140 -60.5t-51 -166.5q0 -104 49 -163.5t135 -59.5q81 0 128.5 44.5t47.5 139.5h-165v58h228v-292h-61v71h-2q-24 -38 -74 -59.5t-109 -21.5q-75 0 -130 34t-85 98t-30 151q0 134 69 211t190 77
q98 0 161.5 -47zM295 712l-81 -101h-69l114 141h71l114 -141h-69z" />
    <glyph glyph-name="Gcommaaccent.aalt" horiz-adv-x="610" 
d="M461.5 514q63.5 -47 70.5 -127h-69q-11 55 -53.5 84t-109.5 29q-89 0 -140 -60.5t-51 -166.5q0 -104 49 -163.5t135 -59.5q81 0 128.5 44.5t47.5 139.5h-165v58h228v-292h-61v71h-2q-24 -38 -74 -59.5t-109 -21.5q-75 0 -130 34t-85 98t-30 151q0 134 69 211t190 77
q98 0 161.5 -47zM285 -251h-29l35 102h-28v81h71v-81z" />
    <glyph glyph-name="Gdotaccent.aalt" horiz-adv-x="610" 
d="M461.5 514q63.5 -47 70.5 -127h-69q-11 55 -53.5 84t-109.5 29q-89 0 -140 -60.5t-51 -166.5q0 -104 49 -163.5t135 -59.5q81 0 128.5 44.5t47.5 139.5h-165v58h228v-292h-61v71h-2q-24 -38 -74 -59.5t-109 -21.5q-75 0 -130 34t-85 98t-30 151q0 134 69 211t190 77
q98 0 161.5 -47zM263 664v88h62v-88h-62z" />
    <glyph glyph-name="H.aalt" horiz-adv-x="624" 
d="M468 0v255h-312v-255h-65v548h65v-234h312v234h65v-548h-65z" />
    <glyph glyph-name="Hbar.aalt" horiz-adv-x="624" 
d="M533 438v-438h-65v255h-312v-255h-65v438h-49v51h49v59h65v-59h312v59h65v-59h49v-51h-49zM156 438v-124h312v124h-312z" />
    <glyph glyph-name="Hcircumflex.aalt" horiz-adv-x="624" 
d="M468 0v255h-312v-255h-65v548h65v-234h312v234h65v-548h-65zM313 712l-81 -101h-69l114 141h71l114 -141h-69z" />
    <glyph glyph-name="I.aalt" horiz-adv-x="247" 
d="M91 0v548h65v-548h-65z" />
    <glyph glyph-name="Iacute.aalt" horiz-adv-x="247" 
d="M91 0v548h65v-548h-65zM66 611l90 141h84l-115 -141h-59z" />
    <glyph glyph-name="Ibreve.aalt" horiz-adv-x="247" 
d="M91 0v548h65v-548h-65zM217.5 649.5q-33.5 -36.5 -93.5 -36.5t-93.5 36.5t-35.5 102.5h50q3 -44 23.5 -67t55.5 -23t55.5 23.5t22.5 66.5h51q-2 -66 -35.5 -102.5z" />
    <glyph glyph-name="Icircumflex.aalt" horiz-adv-x="247" 
d="M91 0v548h65v-548h-65zM191 612l-68 101l-67 -101h-68l98 140h74l98 -140h-67z" />
    <glyph glyph-name="Idieresis.aalt" horiz-adv-x="247" 
d="M91 0v548h65v-548h-65zM21 664v88h61v-88h-61zM165 664v88h61v-88h-61z" />
    <glyph glyph-name="Idotaccent.aalt" horiz-adv-x="247" 
d="M91 0v548h65v-548h-65zM92 664v88h62v-88h-62z" />
    <glyph glyph-name="Igrave.aalt" horiz-adv-x="247" 
d="M91 0v548h65v-548h-65zM181 611h-59l-115 141h84z" />
    <glyph glyph-name="IJ.aalt" horiz-adv-x="541" 
d="M91 0v548h65v-548h-65zM414.5 36.5q-40.5 -39.5 -116.5 -39.5q-25 0 -38 4v59q18 -3 34 -3q48 0 72 24t24 76v391h65v-393q0 -79 -40.5 -118.5z" />
    <glyph glyph-name="Imacron.aalt" horiz-adv-x="247" 
d="M91 0v548h65v-548h-65zM2 665v51h242v-51h-242z" />
    <glyph glyph-name="Iogonek.aalt" horiz-adv-x="247" 
d="M159 -140v-44q-19 -8 -49 -8q-46 0 -69 19.5t-23 55.5q0 32 18.5 58.5t59.5 58.5h-5v548h65v-548q-45 -34 -62.5 -59t-17.5 -51q0 -18 11.5 -27.5t31.5 -9.5q22 0 40 7z" />
    <glyph glyph-name="Itilde.aalt" horiz-adv-x="247" 
d="M91 0v548h65v-548h-65zM242 665.5q-23 -27.5 -61 -27.5q-19 0 -33.5 7.5t-34.5 22.5q-16 12 -27 18t-22 6q-36 0 -41 -54h-44q2 51 24.5 78t60.5 27q19 0 33.5 -8t35.5 -23q17 -13 27 -18.5t21 -5.5q37 0 42 55h44q-2 -50 -25 -77.5z" />
    <glyph glyph-name="J.c2sc" horiz-adv-x="294" 
d="M167.5 36.5q-40.5 -39.5 -116.5 -39.5q-25 0 -38 4v59q18 -3 34 -3q48 0 72 24t24 76v391h65v-393q0 -79 -40.5 -118.5z" />
    <glyph glyph-name="Jcircumflex.aalt" horiz-adv-x="294" 
d="M167.5 36.5q-40.5 -39.5 -116.5 -39.5q-25 0 -38 4v59q18 -3 34 -3q48 0 72 24t24 76v391h65v-393q0 -79 -40.5 -118.5zM242 612l-68 101l-67 -101h-68l98 140h74l98 -140h-67z" />
    <glyph glyph-name="K.aalt" horiz-adv-x="525" 
d="M520 0h-91l-271 271h-2v-271h-65v548h65v-248h2l248 248h89l-265 -262z" />
    <glyph glyph-name="Kcommaaccent.aalt" horiz-adv-x="525" 
d="M520 0h-91l-271 271h-2v-271h-65v548h65v-248h2l248 248h89l-265 -262zM267 -251h-29l35 102h-28v81h71v-81z" />
    <glyph glyph-name="L.aalt" horiz-adv-x="470" 
d="M460 59v-59h-369v548h65v-489h304z" />
    <glyph glyph-name="Lacute.aalt" horiz-adv-x="470" 
d="M460 59v-59h-369v548h65v-489h304zM100 611l90 141h84l-115 -141h-59z" />
    <glyph glyph-name="Lcaron.aalt" horiz-adv-x="470" 
d="M460 59v-59h-369v548h65v-489h304zM213 372l31 176h64l-54 -176h-41z" />
    <glyph glyph-name="Lcommaaccent.aalt" horiz-adv-x="470" 
d="M460 59v-59h-369v548h65v-489h304zM261 -251h-29l35 102h-28v81h71v-81z" />
    <glyph glyph-name="Ldot.aalt" horiz-adv-x="530" 
d="M460 59v-59h-369v548h65v-489h304zM346 288v92h85v-92h-85z" />
    <glyph glyph-name="glyph418" horiz-adv-x="294" 
d="M167.5 36.5q-40.5 -39.5 -116.5 -39.5q-25 0 -38 4v59q18 -3 34 -3q48 0 72 24t24 76v391h65v-393q0 -79 -40.5 -118.5zM117 611l90 141h84l-115 -141h-59z" />
    <glyph glyph-name="Lslash.aalt" horiz-adv-x="464" 
d="M454 0h-370v244l-69 -39v60l69 39v244h65v-214l123 69v-60l-123 -69v-215h305v-59z" />
    <glyph glyph-name="M.aalt" horiz-adv-x="778" 
d="M623 0v274v202h-2q-9 -21 -25 -63l-58 -141l-111 -272h-76l-111 272l-83 204h-2l1 -202v-274h-65v548h105l108 -266l84 -211h2l85 211l107 266h106v-548h-65z" />
    </font>
</defs>
</svg>
