<svg width="400" height="568" viewBox="0 0 400 568" fill="none" xmlns="http://www.w3.org/2000/svg">
<circle cx="102" cy="4" r="4" fill="#121212"/>
<circle cx="4" cy="4" r="4" fill="#121212"/>
<circle cx="200" cy="4" r="4" fill="#121212"/>
<circle cx="298" cy="4" r="4" fill="#121212"/>
<circle cx="396" cy="4" r="4" fill="#121212"/>
<circle cx="102" cy="316" r="4" fill="#121212"/>
<circle cx="4" cy="316" r="4" fill="#121212"/>
<circle cx="102" cy="524" r="4" fill="#121212"/>
<circle cx="4" cy="524" r="4" fill="#121212"/>
<circle cx="102" cy="212" r="4" fill="#121212"/>
<circle cx="4" cy="212" r="4" fill="#121212"/>
<circle cx="102" cy="420" r="4" fill="#121212"/>
<circle cx="4" cy="420" r="4" fill="#121212"/>
<circle cx="102" cy="108" r="4" fill="#121212"/>
<circle cx="4" cy="108" r="4" fill="#121212"/>
<circle cx="200" cy="108" r="4" fill="#121212"/>
<circle cx="200" cy="420" r="4" fill="#121212"/>
<circle cx="200" cy="316" r="4" fill="#121212"/>
<circle cx="200" cy="212" r="4" fill="#121212"/>
<circle cx="200" cy="524" r="4" fill="#121212"/>
<circle cx="298" cy="316" r="4" fill="#121212"/>
<circle cx="298" cy="212" r="4" fill="#121212"/>
<circle cx="298" cy="524" r="4" fill="#121212"/>
<circle cx="298" cy="420" r="4" fill="#121212"/>
<circle cx="298" cy="108" r="4" fill="#121212"/>
<circle cx="396" cy="420" r="4" fill="#121212"/>
<circle cx="396" cy="316" r="4" fill="#121212"/>
<circle cx="396" cy="524" r="4" fill="#121212"/>
<circle cx="396" cy="212" r="4" fill="#121212"/>
<circle cx="396" cy="108" r="4" fill="#121212"/>
</svg>
