<svg width="23" height="29" viewBox="0 0 23 29" fill="none" xmlns="http://www.w3.org/2000/svg">
<path fill-rule="evenodd" clip-rule="evenodd" d="M16.8789 0.281616C15.4788 0.340161 13.7822 1.21145 12.7781 2.38286C11.8755 3.42316 11.0875 5.08341 11.3 6.67534C12.8632 6.79725 14.4561 5.88427 15.4292 4.71227C16.4003 3.53815 17.0578 1.90876 16.8789 0.281616ZM16.4832 27.9862C18.3803 27.951 19.5818 26.2702 20.7434 24.5791C22.0162 22.7267 22.5783 20.9306 22.6621 20.6628C22.6668 20.6479 22.6699 20.6377 22.6717 20.6325C22.6708 20.6322 22.6685 20.6312 22.6647 20.6297C22.4822 20.5558 18.9708 19.1336 18.9359 15.0227C18.9016 11.628 21.6193 9.93922 21.9184 9.75331C21.9288 9.74685 21.9363 9.7422 21.9407 9.73936C20.3049 7.35638 17.7578 7.02963 16.8503 6.99231C15.5246 6.85877 14.2385 7.36355 13.1877 7.77599C12.5199 8.03809 11.9472 8.26289 11.5197 8.26289C11.0439 8.26289 10.4554 8.03024 9.795 7.76916C8.93063 7.42743 7.94302 7.03698 6.92342 7.05567C4.56181 7.09088 2.3825 8.42483 1.16629 10.5332C-1.28973 14.7785 0.536448 21.0692 2.92912 24.5114C4.10029 26.1949 5.49291 28.0897 7.32437 28.0214C8.1421 27.9888 8.72407 27.7419 9.32594 27.4866C10.0215 27.1915 10.7437 26.8852 11.8871 26.8852C12.976 26.8852 13.6648 27.1821 14.3273 27.4676C14.9608 27.7407 15.5704 28.0034 16.4832 27.9862Z" fill="white"/>
</svg>
