<svg width="84" height="8" viewBox="0 0 84 8" fill="none" xmlns="http://www.w3.org/2000/svg">
<path d="M0.556641 0.567109V7.56339H2.95661C5.03659 7.56339 6.25839 6.26886 6.25839 4.06282C6.25839 1.86164 5.03174 0.567109 2.95661 0.567109H0.556641ZM1.42936 1.35255H2.89843C4.48871 1.35255 5.36628 2.32224 5.36628 4.07252C5.36628 5.80826 4.48387 6.77794 2.89843 6.77794H1.42936V1.35255Z" fill="white"/>
<path d="M10.1848 7.61187C11.6539 7.61187 12.5945 6.56946 12.5945 4.95009C12.5945 3.32586 11.6539 2.2883 10.1848 2.2883C8.71577 2.2883 7.77517 3.32586 7.77517 4.95009C7.77517 6.56946 8.71577 7.61187 10.1848 7.61187ZM10.1848 6.86037C9.21515 6.86037 8.63334 6.14765 8.63334 4.95009C8.63334 3.75252 9.21031 3.03981 10.1848 3.03981C11.1594 3.03981 11.7363 3.74768 11.7363 4.95009C11.7363 6.14765 11.1594 6.86037 10.1848 6.86037Z" fill="white"/>
<path d="M20.8894 2.33678H20.0555L18.9937 6.60825H18.9743L17.7767 2.33678H16.9622L15.7646 6.60825H15.7452L14.6834 2.33678H13.8495L15.3137 7.56339H16.167L17.3597 3.50041H17.3791L18.5718 7.56339H19.4252L20.8894 2.33678Z" fill="white"/>
<path d="M22.4013 7.56339H23.2449V4.52827C23.2449 3.63131 23.8122 3.03981 24.6704 3.03981C25.4946 3.03981 25.9407 3.50525 25.9407 4.35858V7.56339H26.7843V4.21313C26.7843 3.02526 26.0716 2.2883 24.9225 2.2883C24.1128 2.2883 23.5456 2.59375 23.2159 3.18526H23.1965V2.33678H22.4013V7.56339Z" fill="white"/>
<path d="M28.752 7.56339H29.5956V0.261658H28.752V7.56339Z" fill="white"/>
<path d="M33.7354 7.61187C35.2045 7.61187 36.1451 6.56946 36.1451 4.95009C36.1451 3.32586 35.2045 2.2883 33.7354 2.2883C32.2663 2.2883 31.3257 3.32586 31.3257 4.95009C31.3257 6.56946 32.2663 7.61187 33.7354 7.61187ZM33.7354 6.86037C32.7657 6.86037 32.1839 6.14765 32.1839 4.95009C32.1839 3.75252 32.7609 3.03981 33.7354 3.03981C34.7099 3.03981 35.2869 3.74768 35.2869 4.95009C35.2869 6.14765 34.7099 6.86037 33.7354 6.86037Z" fill="white"/>
<path d="M39.5333 6.87976C38.874 6.87976 38.4521 6.56461 38.4521 6.07977C38.4521 5.57553 38.8594 5.28948 39.6448 5.24099L41.0121 5.15372V5.57553C41.0121 6.32704 40.3867 6.87976 39.5333 6.87976ZM39.3539 7.61187C40.0861 7.61187 40.7406 7.23854 41.0363 6.65673H41.0557V7.56339H41.8557V3.97555C41.8557 2.94769 41.0606 2.2883 39.8242 2.2883C38.7285 2.2883 37.8703 2.96223 37.8461 3.84464H38.6558C38.7576 3.35011 39.2085 3.03981 39.8145 3.03981C40.5854 3.03981 41.0121 3.39859 41.0121 4.04828V4.48464L39.5479 4.57191C38.2776 4.64948 37.5891 5.17796 37.5891 6.07492C37.5891 7.00097 38.2921 7.61187 39.3539 7.61187Z" fill="white"/>
<path d="M45.7531 7.61187C46.5094 7.61187 47.1058 7.28218 47.4452 6.68097H47.4597V7.56339H48.2646V0.261658H47.421V3.18526H47.4016C47.0816 2.61314 46.4804 2.2883 45.7337 2.2883C44.4343 2.2883 43.5131 3.35495 43.5131 4.95009C43.5131 6.54522 44.4392 7.61187 45.7531 7.61187ZM45.9034 3.03981C46.8101 3.03981 47.4258 3.81555 47.4258 4.95009C47.4258 6.08947 46.8101 6.86037 45.9034 6.86037C44.987 6.86037 44.3761 6.10886 44.3761 4.95009C44.3761 3.79616 44.987 3.03981 45.9034 3.03981Z" fill="white"/>
<path d="M55.5793 7.61187C57.0484 7.61187 57.989 6.56946 57.989 4.95009C57.989 3.32586 57.0484 2.2883 55.5793 2.2883C54.1102 2.2883 53.1696 3.32586 53.1696 4.95009C53.1696 6.56946 54.1102 7.61187 55.5793 7.61187ZM55.5793 6.86037C54.6096 6.86037 54.0278 6.14765 54.0278 4.95009C54.0278 3.75252 54.6048 3.03981 55.5793 3.03981C56.5538 3.03981 57.1308 3.74768 57.1308 4.95009C57.1308 6.14765 56.5538 6.86037 55.5793 6.86037Z" fill="white"/>
<path d="M59.6706 7.56339H60.5142V4.52827C60.5142 3.63131 61.0815 3.03981 61.9397 3.03981C62.7639 3.03981 63.2099 3.50525 63.2099 4.35858V7.56339H64.0536V4.21313C64.0536 3.02526 63.3409 2.2883 62.1918 2.2883C61.3821 2.2883 60.8148 2.59375 60.4851 3.18526H60.4657V2.33678H59.6706V7.56339Z" fill="white"/>
<path d="M69.4192 1.15862V2.33678H68.692V3.03496H69.4192V6.20583C69.4192 7.20945 69.7877 7.60218 70.7332 7.60218C70.9319 7.60218 71.1744 7.58278 71.2762 7.55854V6.84582C71.218 6.85552 71.0144 6.87006 70.9125 6.87006C70.4665 6.87006 70.2629 6.65188 70.2629 6.17189V3.03496H71.281V2.33678H70.2629V1.15862H69.4192Z" fill="white"/>
<path d="M73.0596 7.56339H73.9033V4.55736C73.9033 3.64101 74.4948 3.03981 75.3772 3.03981C76.2063 3.03981 76.7008 3.54404 76.7008 4.37797V7.56339H77.5444V4.22767C77.5444 3.06405 76.7735 2.2883 75.6293 2.2883C74.8293 2.2883 74.2475 2.59375 73.9226 3.18526H73.9033V0.261658H73.0596V7.56339Z" fill="white"/>
<path d="M81.5436 3.03011C82.3678 3.03011 82.9302 3.62162 82.9496 4.50888H80.0745C80.1327 3.62647 80.7242 3.03011 81.5436 3.03011ZM82.9302 6.07007C82.7799 6.55976 82.2709 6.87006 81.6163 6.87006C80.6854 6.87006 80.0745 6.22522 80.0745 5.23129V5.18281H83.8272V4.85312C83.8272 3.27253 82.9545 2.2883 81.5581 2.2883C80.1327 2.2883 79.2018 3.35011 79.2018 4.96948C79.2018 6.58885 80.1279 7.61187 81.5969 7.61187C82.7121 7.61187 83.6187 6.96703 83.7642 6.07007H82.9302Z" fill="white"/>
</svg>
