<svg width="28" height="28" viewBox="0 0 28 28" fill="none" xmlns="http://www.w3.org/2000/svg">
<path fill-rule="evenodd" clip-rule="evenodd" d="M2.33333 13.9997C2.33333 13.3553 2.85566 12.833 3.49999 12.833H24.5C25.1443 12.833 25.6667 13.3553 25.6667 13.9997C25.6667 14.644 25.1443 15.1663 24.5 15.1663H3.49999C2.85566 15.1663 2.33333 14.644 2.33333 13.9997Z" fill="#121212"/>
<path fill-rule="evenodd" clip-rule="evenodd" d="M2.33333 6.99968C2.33333 6.35534 2.85566 5.83301 3.49999 5.83301H24.5C25.1443 5.83301 25.6667 6.35534 25.6667 6.99968C25.6667 7.64401 25.1443 8.16634 24.5 8.16634H3.49999C2.85566 8.16634 2.33333 7.64401 2.33333 6.99968Z" fill="#121212"/>
<path fill-rule="evenodd" clip-rule="evenodd" d="M2.33333 20.9997C2.33333 20.3553 2.85566 19.833 3.49999 19.833H24.5C25.1443 19.833 25.6667 20.3553 25.6667 20.9997C25.6667 21.644 25.1443 22.1663 24.5 22.1663H3.49999C2.85566 22.1663 2.33333 21.644 2.33333 20.9997Z" fill="#121212"/>
</svg>
