<svg width="52" height="40" viewBox="0 0 52 40" fill="none" xmlns="http://www.w3.org/2000/svg">
  <path d="M40.5731 12.4078C39.3663 5.96084 35.1983 0.22253 27.8866 0.00599047C22.1974 -0.151493 17.3905 2.81117 14.2062 7.11243C13.0275 6.81661 11.7982 6.76273 10.5968 6.95425C9.3954 7.14576 8.2484 7.57845 7.22911 8.22466C4.32874 10.1932 3.84197 13.648 3.85211 16.8666C0.0694718 20.8037 -1.21845 26.4042 1.30669 31.2173C1.92209 32.4181 2.79381 33.478 3.86391 34.3265C4.93401 35.1751 6.17796 35.7928 7.51306 36.1386C10.7684 37.1229 13.8208 36.3748 17.1066 36.8571C18.6176 37.0737 20.0678 34.9772 18.1207 34.6917C13.2631 33.9831 7.87814 35.676 4.55185 30.9417C1.61092 26.7093 3.08139 21.0202 6.58007 17.5359C6.94515 17.1815 6.98572 16.8863 6.8336 16.65C6.8336 14.6815 6.8336 12.5948 7.84771 10.8724C8.40507 9.96303 9.30269 9.29774 10.3533 9.01532C11.4039 8.73289 12.5262 8.85515 13.4862 9.35658C14.3482 9.87824 16.2851 9.00224 16.133 8.21482C19.7331 2.84069 26.9536 -1.06687 33.0281 4.12025C35.8981 6.56124 37.0846 9.91761 37.7032 13.4413C37.7209 13.5516 37.7829 13.6507 37.8756 13.7169C37.8756 14.022 38.1393 14.2386 39.0013 14.0811C46.3231 12.8015 49.7001 21.3745 48.899 26.975C47.8849 33.6189 41.7495 36.3748 35.2795 35.6465C34.3769 35.5481 31.8416 36.9752 33.4743 37.1623C40.5731 37.9595 48.25 36.493 51.0996 29.3471C54.0912 21.8371 49.3858 11.7582 40.5731 12.4078Z" fill="#F96E30"/>
  <path d="M33.241 26.9456C34.2551 27.8019 36.7701 26.4043 35.5025 25.292C32.6629 22.7854 29.9012 20.1902 27.2172 17.5064C26.9264 17.3005 26.5813 17.1791 26.2222 17.1565C25.863 17.1338 25.5047 17.2108 25.1889 17.3785C24.742 17.4032 24.3231 17.5977 24.0227 17.9198C21.7917 20.5905 19.5302 23.2316 17.2383 25.8432C16.0315 27.231 18.8102 27.8118 19.7127 26.7487C21.2136 25.0361 22.6739 23.3038 24.1444 21.5715V39.8494C24.1444 40.2333 27.0853 39.8494 27.0853 39.0817V21.2467C29.1034 23.1857 31.1418 25.0952 33.241 26.9456Z" fill="#F96E30"/>
</svg>
