<svg width="20" height="20" viewBox="0 0 20 20" fill="none" xmlns="http://www.w3.org/2000/svg">
<path d="M6.7329 0.547417C4.29784 1.3806 2.22295 3.20286 1.06724 5.5089C0.664083 6.30446 0.373812 7.14839 0.196424 8.02458C-0.244358 10.1962 0.0620394 12.513 1.06186 14.4912C1.71228 15.7813 2.6476 16.9316 3.77643 17.8293C4.84613 18.6786 6.08785 19.3129 7.41019 19.6623C9.07656 20.1085 10.8504 20.0977 12.5276 19.7161C14.0434 19.3666 15.4787 18.641 16.6236 17.5874C17.8331 16.4747 18.6985 15.0126 19.1554 13.4376C19.6553 11.7228 19.7198 9.88984 19.4081 8.12671C16.2742 8.12671 13.135 8.12671 10.0011 8.12671C10.0011 9.42756 10.0011 10.7284 10.0011 12.0292C11.818 12.0292 13.6349 12.0292 15.4518 12.0292C15.2421 13.2763 14.5003 14.4159 13.4521 15.1201C12.791 15.5663 12.033 15.8511 11.2482 15.9909C10.4634 16.1253 9.64636 16.1414 8.86155 15.9855C8.06062 15.8243 7.30269 15.491 6.63614 15.0233C5.57181 14.2762 4.76013 13.185 4.34622 11.954C3.92157 10.7015 3.91619 9.3093 4.34622 8.06221C4.64725 7.18065 5.14178 6.36896 5.79758 5.70241C6.60389 4.8746 7.65209 4.28331 8.78629 4.04142C9.75386 3.83715 10.7752 3.87478 11.7213 4.15968C12.5276 4.40157 13.2694 4.84773 13.8768 5.42827C14.4896 4.81547 15.1024 4.20268 15.7152 3.58989C16.0377 3.26199 16.3763 2.94484 16.6881 2.60619C15.7582 1.74613 14.6616 1.0527 13.4683 0.611921C11.3181 -0.183636 8.89918 -0.199762 6.7329 0.547417Z" fill="white"/>
<path d="M6.73206 0.547291C8.89297 -0.199888 11.3173 -0.183762 13.4674 0.60642C14.6608 1.0472 15.752 1.73525 16.6873 2.60069C16.3755 2.93934 16.0369 3.25649 15.7143 3.58439C15.1015 4.19718 14.4887 4.80997 13.876 5.42277C13.2685 4.84223 12.5267 4.40144 11.7204 4.15418C10.7744 3.86928 9.75303 3.82628 8.78546 4.03592C7.65663 4.27781 6.60843 4.8691 5.79675 5.69691C5.14095 6.35809 4.64641 7.17514 4.34539 8.05671C3.25419 7.2074 2.16299 6.36346 1.06641 5.51415C2.22211 3.20273 4.29701 1.38048 6.73206 0.547291Z" fill="#EA4335"/>
<path d="M0.201999 8.01906C0.379387 7.14824 0.669658 6.29893 1.07281 5.50338C2.16402 6.35269 3.25522 7.19662 4.3518 8.04593C3.92177 9.2984 3.92177 10.6906 4.3518 11.9377C3.2606 12.787 2.16939 13.6363 1.07819 14.4803C0.0676148 12.5075 -0.238782 10.1907 0.201999 8.01906Z" fill="#FBBC05"/>
<path d="M10.0015 8.12121C13.1353 8.12121 16.2745 8.12121 19.4084 8.12121C19.7202 9.87896 19.6503 11.712 19.1558 13.4321C18.6988 15.0071 17.8334 16.4692 16.6239 17.5819C15.565 16.7595 14.506 15.937 13.4471 15.1146C14.4953 14.4104 15.2371 13.2708 15.4467 12.0237C13.6299 12.0237 11.813 12.0237 9.99609 12.0237C10.0015 10.7229 10.0015 9.42205 10.0015 8.12121Z" fill="#4285F4"/>
<path d="M1.06641 14.4857C2.15761 13.6417 3.24881 12.7924 4.34002 11.9431C4.7593 13.1741 5.56561 14.2653 6.62993 15.0124C7.29648 15.4801 8.05979 15.8134 8.85534 15.9746C9.64015 16.1359 10.4518 16.1144 11.242 15.98C12.0268 15.8403 12.7848 15.5554 13.4459 15.1092C14.5049 15.9316 15.5638 16.7541 16.6228 17.5765C15.4778 18.6355 14.0426 19.3558 12.5267 19.7052C10.8496 20.0868 9.07574 20.0976 7.40936 19.6514C6.08702 19.302 4.8453 18.6731 3.7756 17.8184C2.65215 16.9261 1.71683 15.7757 1.06641 14.4857Z" fill="#34A853"/>
</svg>
