<svg width="40" height="40" viewBox="0 0 40 40" fill="none" xmlns="http://www.w3.org/2000/svg">
<rect width="40" height="40" rx="8" fill="#FF5F0E"/>
<path fill-rule="evenodd" clip-rule="evenodd" d="M21.5477 29.4494V17.6481V16.9074C21.5477 13.6449 18.4931 11 15.0495 11H14.9649C14.8961 11 14.0977 11.001 14.0295 11.0031C10.681 11.1059 8 13.71 8 16.9074V29.4494H11.1711V17.6102C11.1711 15.6486 12.8496 14.0582 14.9202 14.0582H14.703C16.7735 14.0582 18.3829 15.6486 18.3829 17.6102V29.4494H21.5477Z" stroke="white"/>
<path d="M10.9031 26.458H8" stroke="white"/>
<path fill-rule="evenodd" clip-rule="evenodd" d="M32 29.4494V17.6481V16.9074C32 13.6449 28.9958 11 25.5357 11H25.4507C25.3816 11 24.5793 11.001 24.5108 11.0031C21.1464 11.1059 18.4523 13.71 18.4523 16.9074V29.4494H21.6386V17.6102C21.6386 15.6486 23.3252 14.0582 25.4057 14.0582H25.1875C27.2682 14.0582 28.9548 15.6486 28.9548 17.6102V29.4494H32Z" stroke="white"/>
<path d="M31.7084 26.458H28.8053" stroke="white"/>
<path d="M21.5477 26.458H18.6447" stroke="white"/>
</svg>
