<svg width="240" height="146" viewBox="0 0 240 146" fill="none" xmlns="http://www.w3.org/2000/svg">
<path fill-rule="evenodd" clip-rule="evenodd" d="M94.48 72.7596C94.48 32.6398 127.12 0.000488281 167.24 0.000488281C207.36 0.000488281 240 32.6398 240 72.7596V145.636H188.949V72.7596C188.949 60.7894 179.21 51.0502 167.24 51.0502C155.269 51.0502 145.53 60.7894 145.53 72.7596" fill="#121212"/>
<path fill-rule="evenodd" clip-rule="evenodd" d="M145.519 145.635H94.4684V72.7591C94.4684 60.7889 84.7302 51.0497 72.76 51.0497C60.7899 51.0497 51.0507 60.7889 51.0507 72.7591V145.635H0V72.7591C0 32.6393 32.6403 0 72.76 0C112.88 0 145.519 32.6393 145.519 72.7591V145.635Z" fill="#FF5B00"/>
</svg>
