<svg width="24" height="24" viewBox="0 0 24 24" fill="none" xmlns="http://www.w3.org/2000/svg">
  <path fill-rule="evenodd" clip-rule="evenodd" d="M12 24C18.6274 24 24 18.6274 24 12C24 5.37258 18.6274 0 12 0C5.37258 0 0 5.37258 0 12C0 18.6274 5.37258 24 12 24Z" fill="#FFD7C3"/>
  <path fill-rule="evenodd" clip-rule="evenodd" d="M13.5777 9.88083L12.92 13.9967C12.7292 15.1951 12.0599 15.7196 10.9121 15.5722C9.77484 15.4267 9.30686 14.7556 9.49764 13.5582L10.1553 9.44231L6.71192 9L6.08057 12.9571C5.62419 15.8208 7.10611 17.4709 10.539 17.9123C13.9719 18.3517 15.9112 17.1401 16.3676 14.2774L17 10.3203L13.5777 9.88083Z" fill="#FF5F0E"/>
  <path fill-rule="evenodd" clip-rule="evenodd" d="M14.2494 7L14 8.54528L17.5 9L17.7494 7.4557L14.2494 7Z" fill="#FF5F0E"/>
  <path fill-rule="evenodd" clip-rule="evenodd" d="M7.26789 6L7 7.53654L10.731 8L11 6.46445L7.26789 6Z" fill="#FF5F0E"/>
</svg>
