<svg width="42" height="36" viewBox="0 0 42 36" fill="none" xmlns="http://www.w3.org/2000/svg">
<path fill-rule="evenodd" clip-rule="evenodd" d="M17.3332 10.4543C17.3332 4.68975 22.0231 0 27.7877 0C33.5522 0 38.2421 4.68975 38.2421 10.4543V20.9255H30.9069V10.4543C30.9069 8.73441 29.5076 7.33504 27.7877 7.33504C26.0676 7.33504 24.6682 8.73441 24.6682 10.4543" fill="#121212"/>
<path fill-rule="evenodd" clip-rule="evenodd" d="M24.6667 20.9255H17.3315V10.4543C17.3315 8.73441 15.9323 7.33504 14.2123 7.33504C12.4924 7.33504 11.0931 8.73441 11.0931 10.4543V20.9255H3.75787V10.4543C3.75787 4.68975 8.44777 0 14.2123 0C19.9769 0 24.6667 4.68975 24.6667 10.4543V20.9255Z" fill="#FF5B00"/>
<path fill-rule="evenodd" clip-rule="evenodd" d="M14.9077 33.8854C15.4667 33.8854 15.9278 33.7034 16.2911 33.3393C16.6685 32.9612 16.8501 32.485 16.8501 31.9109C16.8501 31.3367 16.6685 30.8605 16.2911 30.4964C15.9278 30.1184 15.4667 29.9364 14.9077 29.9364C14.3486 29.9364 13.8875 30.1184 13.5242 30.4964C13.1608 30.8605 12.9792 31.3367 12.9792 31.9109C12.9792 32.485 13.1608 32.9612 13.5242 33.3393C13.8875 33.7034 14.3486 33.8854 14.9077 33.8854V33.8854ZM16.8502 28.4099H18.653V35.412H16.8502V34.5857C16.3052 35.2719 15.5505 35.608 14.5724 35.608C13.6361 35.608 12.8395 35.2579 12.1687 34.5437C11.5119 33.8295 11.1765 32.9471 11.1765 31.911C11.1765 30.8746 11.5119 30.0064 12.1687 29.2922C12.8395 28.578 13.6361 28.2139 14.5724 28.2139C15.5505 28.2139 16.3052 28.5499 16.8502 29.2361V28.4099Z" fill="#121212"/>
<path fill-rule="evenodd" clip-rule="evenodd" d="M24.0913 30.2861C23.5462 30.2162 23.0432 30.3282 22.61 30.6223C22.1767 30.9163 21.967 31.3924 21.967 32.0647V35.4116H20.1644V28.4097H21.967V29.614C22.3025 28.7177 23.141 28.2695 24.0913 28.2695H24.2698V30.2985L24.0913 30.2861Z" fill="#121212"/>
<path fill-rule="evenodd" clip-rule="evenodd" d="M25.6668 34.5437C24.9681 33.8295 24.6186 32.9611 24.6186 31.9109C24.6186 30.8606 24.9681 29.9924 25.6668 29.2782C26.3794 28.564 27.2599 28.2139 28.308 28.2139C29.6635 28.2139 30.8653 28.9141 31.4383 30.0204L29.8871 30.9305C29.6077 30.3565 29.0067 29.9924 28.294 29.9924C27.218 29.9924 26.4215 30.7905 26.4215 31.9109C26.4215 32.457 26.6031 32.9192 26.9525 33.2833C27.3018 33.6333 27.7491 33.8154 28.294 33.8154C29.0206 33.8154 29.6217 33.4654 29.9011 32.8912L31.4663 33.7874C30.8514 34.8937 29.6635 35.6079 28.308 35.6079C27.2599 35.6079 26.3794 35.2579 25.6668 34.5437" fill="#121212"/>
<path fill-rule="evenodd" clip-rule="evenodd" d="M37.2518 31.2526C37.0421 30.3003 36.3434 29.8382 35.519 29.8382C34.5547 29.8382 33.898 30.3563 33.6882 31.2526H37.2518ZM33.7162 32.6532C33.9537 33.5353 34.6105 33.9695 35.6866 33.9695C36.3714 33.9695 36.9024 33.7314 37.2518 33.2693L38.7052 34.1095C38.0203 35.1038 37.0002 35.6079 35.6585 35.6079C34.4988 35.6079 33.5764 35.2579 32.8776 34.5576C32.1789 33.8575 31.8295 32.9751 31.8295 31.9109C31.8295 30.8606 32.1789 29.9783 32.8637 29.2782C33.5484 28.564 34.4428 28.2139 35.5189 28.2139C36.539 28.2139 37.3916 28.564 38.0484 29.2782C38.7192 29.9924 39.0544 30.8606 39.0544 31.9109C39.0544 32.149 39.0266 32.3871 38.9846 32.6532H33.7162Z" fill="#121212"/>
<path fill-rule="evenodd" clip-rule="evenodd" d="M40.1303 35.4114H42V26.2305H40.1303V35.4114Z" fill="#121212"/>
<path fill-rule="evenodd" clip-rule="evenodd" d="M5.1342 29.4752C4.9509 29.2741 4.60133 28.9425 4.06337 28.7082C3.48182 28.4553 2.97698 28.4473 2.80022 28.4473C1.37328 28.4473 0 29.3698 0 31.0974V35.413C0 35.413 1.77973 35.4163 1.77631 35.413V31.3215C1.77039 30.6405 2.33315 30.0802 3.00978 30.0879C3.68214 30.0957 4.23006 30.6612 4.21522 31.3376V35.413C4.21522 35.413 6.04508 35.4145 6.04664 35.413V31.3376C6.0317 30.6612 6.57972 30.0957 7.25188 30.0879C7.92871 30.0802 8.49147 30.6405 8.48545 31.3215V35.413H10.2632C10.2672 35.4089 10.2618 31.0974 10.2618 31.0974C10.2618 29.3698 8.88858 28.4473 7.46154 28.4473C7.28489 28.4473 6.77994 28.4553 6.19849 28.7082C5.66033 28.9425 5.31086 29.2741 5.12766 29.4752" fill="#121212"/>
</svg>
