<svg width="20" height="16" viewBox="0 0 20 16" fill="none" xmlns="http://www.w3.org/2000/svg">
<path fill-rule="evenodd" clip-rule="evenodd" d="M5.31843 0.00276237C5.38357 0.000753669 6.03069 0 6.07756 0H6.14466C9.12293 0 11.8519 2.32746 11.8519 5.3238V16H8.24095V5.89085C8.24095 4.65775 7.26677 3.62815 5.95571 3.58487C4.62981 3.62842 3.61587 4.6706 3.61587 5.89085V16H0V5.3238C0 2.41542 2.39166 0.0940729 5.31843 0.00276237ZM6.0421 2.47123C7.89284 2.55842 9.33992 4.04269 9.33992 5.89085V14.8837H10.7529V5.3238C10.7529 3.05627 8.63279 1.11628 6.14466 1.11628H6.07756C6.05089 1.11628 5.87931 1.11649 5.70747 1.1169C5.62159 1.11711 5.53606 1.11737 5.46877 1.11768L5.38468 1.11818C5.36 1.11838 5.35106 1.11855 5.35178 1.11853C2.96328 1.19314 1.09897 3.07336 1.09897 5.3238V14.8837H2.5169V5.89085C2.5169 4.03012 4.02789 2.55818 5.86969 2.47124V2.46718H6.0421V2.47123ZM5.35178 1.11853C5.35171 1.11853 5.35184 1.11853 5.35178 1.11853V1.11853Z" fill="#C9CBCC"/>
<path fill-rule="evenodd" clip-rule="evenodd" d="M0.740723 12.5714H2.96294V13.7143H0.740723V12.5714Z" fill="#C9CBCC"/>
<path fill-rule="evenodd" clip-rule="evenodd" d="M13.4896 0.00275993C13.555 0.000754467 14.2051 0 14.2522 0H14.3197C17.3159 0 19.9999 2.33186 19.9999 5.3238V16H16.4839V5.89085C16.4839 4.67285 15.466 3.62827 14.1299 3.58486C12.794 3.62827 11.7761 4.67284 11.7761 5.89085V16H8.14807V5.3238C8.14807 2.41304 10.5526 0.0939555 13.4896 0.00275993ZM14.2165 2.47124C16.0636 2.55815 17.5829 4.02782 17.5829 5.89085V14.8837H18.901V5.3238C18.901 3.05188 16.8161 1.11628 14.3197 1.11628H14.2522C14.2254 1.11628 14.053 1.11649 13.8804 1.1169C13.7941 1.11711 13.7081 1.11737 13.6405 1.11768L13.556 1.11818C13.5363 1.11834 13.5266 1.11848 13.5237 1.11852C13.5229 1.11853 13.5227 1.11853 13.5228 1.11853C11.1192 1.19326 9.24704 3.07574 9.24704 5.3238V14.8837H10.6771V5.89085C10.6771 4.02783 12.1964 2.55816 14.0434 2.47125V2.46718H14.2165V2.47124ZM13.5228 1.11853C13.5227 1.11853 13.5229 1.11853 13.5237 1.11852L13.5062 0.560645L13.5228 1.11853Z" fill="#C9CBCC"/>
<path fill-rule="evenodd" clip-rule="evenodd" d="M17.0371 12.5714H19.2593V13.7143H17.0371V12.5714Z" fill="#C9CBCC"/>
<path fill-rule="evenodd" clip-rule="evenodd" d="M8.88892 12.5714H11.1111V13.7143H8.88892V12.5714Z" fill="#C9CBCC"/>
</svg>
