<svg width="28" height="22" viewBox="0 0 28 22" fill="none" xmlns="http://www.w3.org/2000/svg">
  <path fill-rule="evenodd" clip-rule="evenodd" d="M15.6767 21V8.20687V7.40386C15.6767 3.8672 12.3675 1 8.63691 1H8.54533C8.47077 1 7.60586 1.00112 7.53194 1.00337C3.90445 1.11478 1 3.93773 1 7.40386V21H4.43534V8.16583C4.43534 6.03928 6.25373 4.31527 8.49693 4.31527H8.2616C10.5046 4.31527 12.2482 6.03928 12.2482 8.16583V21H15.6767Z" stroke="#F96E30" stroke-width="2"/>
  <path d="M4.14501 17.757H1" stroke="#F96E30" stroke-width="2"/>
  <path fill-rule="evenodd" clip-rule="evenodd" d="M27 21V8.20687V7.40386C27 3.8672 23.7454 1 19.9969 1H19.9049C19.83 1 18.9609 1.00112 18.8866 1.00337C15.2418 1.11478 12.3232 3.93773 12.3232 7.40386V21H15.7751V8.16583C15.7751 6.03928 17.6023 4.31527 19.8561 4.31527H19.6198C21.8738 4.31527 23.7009 6.03928 23.7009 8.16583V21H27Z" stroke="#F96E30" stroke-width="2"/>
  <path d="M26.6841 17.7568H23.5391" stroke="#F96E30" stroke-width="2"/>
  <path d="M15.6767 17.7568H12.5317" stroke="#F96E30" stroke-width="2"/>
</svg>
